<svg width="119" height="100" viewBox="0 0 119 100" fill="none" xmlns="http://www.w3.org/2000/svg">
<g clip-path="url(#clip0_1166_60407)">
<path d="M84.9952 15.8906C82.8741 10.8034 82.0832 10.1383 77.5353 7.62171C76.7803 7.20827 76.295 6.1477 75.1984 5.82413C74.3176 5.57247 73.2391 5.80616 72.6818 5.64437C72.4302 5.57247 71.5673 4.54785 70.7045 4.38607C69.4102 4.15238 68.3317 4.63773 67.1992 4.74559C67.8463 3.41538 70.1832 3.61311 71.4235 3.8468C72.3403 4.02655 74.5154 4.5119 75.3782 4.74559C76.5107 5.05117 81.7776 8.79014 82.6584 9.86868C83.683 11.145 85.7502 14.3986 84.9952 15.8906Z" fill="#ECF4FF"/>
<path d="M67.1946 4.74658C68.3271 4.63873 69.4056 4.15338 70.6999 4.38707C71.5627 4.54885 72.4255 5.57347 72.6772 5.64537C73.2344 5.80716 74.313 5.57347 75.1938 5.82513C76.2903 6.1487 76.7757 7.20927 77.5307 7.62271C82.0785 10.1393 82.8695 10.8044 84.9906 15.8916C85.0625 16.0713 85.1524 16.3589 85.3501 16.4308C85.2602 16.5387 85.2063 17.2577 85.0805 17.3296C84.703 17.5274 84.1098 16.4129 83.7323 17.3296C81.6112 17.3656 79.9394 17.9408 79.4181 20.2058C79.2024 20.5293 79.1485 22.6145 77.9801 21.4641C79.0946 16.0534 71.4189 9.09673 66.2059 9.42029C65.7925 9.43827 65.0195 10.1393 64.9476 10.1393C64.8038 10.1393 63.3298 8.62935 62.7905 8.34174C58.3864 5.96894 56.3192 8.5934 53.3532 11.4875C53.1914 11.6493 52.6881 12.7458 52.5443 12.8357C52.2747 12.9975 50.6209 13.1233 49.8479 13.5547C49.5064 13.7345 48.6076 14.9568 48.4099 14.9928C46.9538 15.3163 45.2641 14.4895 43.0171 15.5321C40.932 16.5027 40.9499 18.2104 40.5005 18.5879C40.4107 18.6598 38.7569 18.9475 38.1637 19.307C36.3302 20.4394 35.0719 22.7583 34.4787 24.7896C34.2809 25.4727 34.0472 28.4207 33.9394 28.5645C33.8135 28.7443 31.3149 29.2656 30.1645 30.5418C24.0886 37.2828 31.261 49.74 38.0738 53.3711C37.157 53.6587 36.0246 53.1554 35.3774 54.18C34.5685 54.162 33.6697 52.5981 32.5013 53.461C32.8429 53.0835 27.6299 48.6255 27.1086 47.9784C24.9335 45.282 22.9202 40.824 23.1539 37.3726C23.2618 35.7189 24.7178 32.1237 24.7717 31.0811C24.7897 30.6137 24.1246 29.7509 24.0527 29.0139C23.819 26.3355 27.5759 20.2417 30.8835 20.8349L28.996 20.745C25.9941 22.1292 24.2504 24.9514 23.1539 27.9353C23.082 28.1151 23.0281 28.2949 22.9741 28.4746C22.7764 28.4027 22.6686 28.0971 22.6146 27.9353C22.5787 27.8455 22.4349 27.2882 22.4349 27.2163C22.345 26.3175 22.4169 25.0952 22.4349 24.1604L24.0527 18.8576C26.1019 14.6333 29.5892 9.74385 35.0179 11.2179C35.4314 11.4156 35.6471 10.1753 35.737 9.95956C37.6604 7.56878 39.5658 6.77785 42.6576 7.44295C43.7182 7.67664 45.3001 8.97089 45.7135 9.06077C46.6842 9.25851 48.5717 8.68328 49.8479 8.88102C51.2501 9.09673 52.2747 10.8044 53.3532 9.06077C55.3845 8.19794 57.1281 5.53752 59.7346 4.74658C63.1321 3.70399 64.9296 4.96229 67.1946 4.74658Z" fill="url(#paint0_linear_1166_60407)"/>
<path d="M53.3585 9.06006C52.2799 10.8037 51.2553 9.09601 49.8532 8.8803C48.5769 8.68256 46.6894 9.25779 45.7187 9.06006C45.3053 8.97018 43.7234 7.67592 42.6629 7.44223C39.571 6.77713 37.6656 7.56806 35.7422 9.95884C35.85 9.68921 35.5445 9.16791 36.3713 8.34102C39.0497 5.68061 43.6515 6.99284 46.7973 7.62199C46.9771 7.65794 46.7973 8.12531 46.9771 8.16127C47.3725 8.23317 49.0443 7.85568 49.8532 7.98151C51.471 8.23317 51.7586 9.74313 53.3585 9.06006Z" fill="#FFF3E9"/>
<path d="M77.9831 21.4644C77.9291 21.7161 77.8393 21.7341 77.6235 21.824C77.6235 20.7814 77.6595 19.7028 77.4438 18.6782C76.6528 14.7235 70.9725 9.95994 66.9279 9.78018C65.5798 9.72625 64.8967 10.679 64.7709 10.679C64.6091 10.679 62.9014 8.98924 62.0745 8.70163C58.1018 7.35345 55.0639 9.74423 52.817 12.7462C55.2617 12.3327 57.994 12.6024 59.6478 14.7235C59.7017 14.7954 59.9893 16.0358 60.0971 16.0717C60.169 16.1077 61.3015 15.5145 61.715 15.5324C62.3261 15.5504 63.2249 16.2515 63.3328 16.2515C64.1237 16.3054 65.0045 15.0471 67.1077 15.7122C68.3121 16.0897 69.121 17.7974 69.2648 17.8693C69.4625 17.9771 70.5231 17.5637 71.0624 17.6895C72.1229 17.9412 73.561 19.4512 74.3879 20.2061C74.5856 20.8712 75.5024 22.0397 75.4664 22.7227C75.4664 22.7767 75.1249 23.6036 74.9272 23.5317C75.1429 21.9678 72.7881 18.4984 71.4219 18.2288C70.5591 18.049 69.3727 18.6063 69.2648 18.5883C68.8514 18.4984 67.9346 15.4965 64.7709 15.8919C64.627 15.9099 63.6204 16.611 63.5125 16.611C63.0811 16.611 62.5239 15.9279 62.2542 15.8919C60.7443 15.6583 58.4613 17.1682 57.6704 18.4086C58.6591 16.2335 61.0319 16.2694 57.9401 13.9146C55.7111 12.2249 50.6239 12.7462 48.8623 14.9033C48.5926 15.2268 48.305 16.3953 48.2331 16.4312C47.8736 16.593 44.8717 15.2808 42.4809 16.7907C41.3844 17.4918 40.917 19.1096 40.6833 19.3073C40.4856 19.4691 38.9396 19.6669 38.3464 20.0264C33.9604 22.7048 33.2054 30.2007 36.0995 34.2272C35.5063 33.4543 35.0749 32.897 34.6614 31.9803C34.0502 30.6141 34.8771 29.4816 32.7739 29.7333C31.4078 29.8951 29.5203 31.9623 29.0889 33.2386C27.0576 39.2065 31.1921 47.3675 35.6501 51.3042C37.3937 52.8502 40.18 53.8029 41.3124 55.7982C40.9889 55.7263 39.0295 53.9826 37.9869 53.8209C36.9084 53.6411 36.1534 54.1983 35.3804 54.1804C36.0276 53.1558 37.16 53.6591 38.0768 53.3715C31.264 49.7403 24.0916 37.2831 30.1675 30.5422C31.3179 29.2659 33.8165 28.7446 33.9424 28.5649C34.0502 28.4211 34.2839 25.473 34.4816 24.79C35.0749 22.7587 36.3332 20.4398 38.1667 19.3073C38.7599 18.9478 40.4137 18.6602 40.5035 18.5883C40.9529 18.2108 40.935 16.5031 43.0201 15.5324C45.2671 14.4898 46.9568 15.3167 48.4129 14.9932C48.6106 14.9572 49.5094 13.7349 49.8509 13.5551C50.6239 13.1237 52.2777 12.9978 52.5473 12.8361C52.6911 12.7462 53.1944 11.6497 53.3562 11.4879C56.3222 8.59378 58.3894 5.96931 62.7935 8.34212C63.3328 8.62973 64.8068 10.1397 64.9506 10.1397C65.0225 10.1397 65.7955 9.43864 66.2089 9.42066C71.4219 9.0971 79.0976 16.0537 77.9831 21.4644Z" fill="#FFD5DE"/>
<path d="M77.6269 21.8241C75.5237 22.651 75.5058 21.2309 74.3913 20.2063C73.5644 19.4513 72.1263 17.9413 71.0657 17.6897C70.5265 17.5638 69.4659 17.9773 69.2682 17.8694C69.1244 17.7975 68.3154 16.0898 67.1111 15.7123C65.0079 15.0472 64.1271 16.3055 63.3361 16.2516C63.2283 16.2516 62.3295 15.5506 61.7183 15.5326C61.3049 15.5146 60.1724 16.1078 60.1005 16.0719C59.9927 16.0359 59.705 14.7956 59.6511 14.7237C57.9973 12.6025 55.265 12.3329 52.8203 12.7463C55.0673 9.74438 58.1052 7.3536 62.0778 8.70178C62.9047 8.9894 64.6124 10.6791 64.7742 10.6791C64.9 10.6791 65.5831 9.7264 66.9313 9.78033C70.9759 9.96009 76.6562 14.7237 77.4471 18.6783C77.6628 19.703 77.6269 20.7815 77.6269 21.8241Z" fill="#FA7BB3"/>
<path d="M35.0206 11.2158C29.5919 9.74177 26.1046 14.6312 24.0553 18.8555L22.4375 24.1584C22.5274 18.7117 25.4574 11.0001 31.5153 9.77772C33.8341 9.31035 33.6724 9.57999 35.0206 11.2158Z" fill="#FFCAD9"/>
<path d="M57.6725 18.4054C57.3669 18.8728 57.0793 19.6997 57.1332 20.2929C56.6478 20.6524 56.8276 19.8255 56.6838 19.8435C56.6299 19.8435 56.1984 20.4007 55.8749 20.3827C53.7897 20.185 51.7764 21.1557 51.2012 23.2589C51.0933 23.2768 49.853 22.5578 49.0441 22.5398C49.3497 21.6051 47.2465 22.6657 47.1566 22.7196C46.7612 23.0072 46.2758 24.0858 46.0781 24.1577C44.5142 24.661 43.3458 22.5398 40.7752 25.3261C38.6181 27.6809 37.5755 32.5524 37.7193 35.6622C37.1801 35.7161 36.5329 34.7993 36.1015 34.2241C33.2074 30.1975 33.9624 22.7016 38.3485 20.0232C38.9417 19.6637 40.4876 19.466 40.6853 19.3042C40.919 19.1065 41.3864 17.4886 42.4829 16.7876C44.8737 15.2776 47.8757 16.5899 48.2352 16.4281C48.3071 16.3921 48.5947 15.2237 48.8643 14.9001C50.626 12.743 55.7131 12.2217 57.9421 13.9115C61.0339 16.2663 58.6611 16.2303 57.6725 18.4054Z" fill="#F53F81"/>
<path d="M107.823 24.3387C107.338 23.9612 106.529 24.0151 106.475 23.9792C106.007 23.6556 105.36 21.4266 103.958 20.9233C102.7 20.4739 100.956 21.1929 100.723 21.103C100.633 21.0671 100.003 19.7009 99.7338 19.3953C97.0914 16.5192 94.8804 15.4407 91.1055 16.6091C92.3278 12.9959 98.6373 15.8181 100.453 17.9573C100.705 18.2449 100.812 19.3594 101.262 19.4852C101.531 19.5571 102.592 19.2875 103.239 19.4852C105.27 20.1144 107.463 22.1996 107.823 24.3387Z" fill="#E3EFFF"/>
<path d="M91.1044 16.6116C94.8794 15.4432 97.0904 16.5217 99.7328 19.3978C100.002 19.7034 100.632 21.0696 100.721 21.1055C100.955 21.1954 102.699 20.4764 103.957 20.9258C105.359 21.4291 106.006 23.6581 106.474 23.9817C106.528 24.0176 107.337 23.9637 107.822 24.3412C110.231 26.1927 107.768 31.8371 106.743 34.0481C106.6 34.3717 104.748 36.8523 105.215 37.104C107.013 36.9062 110.051 31.7831 110.968 31.5315C112.136 31.2259 113.826 33.1313 114.113 34.138C114.473 35.4322 114.419 39.5127 114.293 40.9688C113.466 50.9633 106.006 60.0591 96.8567 63.7081C94.6816 64.3553 93.2256 64.9844 91.1044 64.4272C93.2615 62.1622 98.6183 55.1157 98.2948 52.0239C101.459 48.1231 102.429 42.9281 101.89 38.0028C101.512 34.4795 98.133 26.2466 93.8907 26.3185C93.3874 26.3185 93.1896 26.4803 93.6211 26.8578C93.5671 26.8578 93.0458 27.2173 92.7223 27.0375C92.0212 23.1188 88.0665 17.2407 83.7344 17.3306C84.1119 16.4139 84.7051 17.5283 85.0826 17.3306C85.2084 17.2587 85.2623 16.5397 85.3522 16.4318C86.5026 15.0297 87.9767 14.796 89.5765 15.7128C90.6551 16.324 89.8641 16.9891 91.1044 16.6116Z" fill="url(#paint1_linear_1166_60407)"/>
<path d="M75.4686 22.7221C78.147 21.2122 79.1896 22.9019 81.131 23.6209C81.6163 23.8007 81.7242 23.4232 81.7601 23.4412C83.0364 23.9625 85.8586 25.4904 85.8946 27.1262C85.9125 27.7733 84.4745 29.6608 84.4565 29.8226C84.2767 30.9551 86.8653 31.5123 84.097 32.7886C83.7375 32.1415 82.2095 30.3619 81.6703 30.0922C80.7355 29.6249 79.0098 29.8226 78.7941 29.7327C78.6323 29.6608 77.1583 27.4678 76.4573 27.0363C75.3787 26.3533 74.0126 26.4431 73.4014 26.1375C73.1677 26.0297 72.3049 24.5557 71.7836 24.1602C69.1951 22.1829 65.3303 22.4345 63.2451 24.8792C62.9395 25.095 62.5979 25.5623 62.526 25.5983C61.3576 25.1669 60.1892 24.8253 58.9309 24.6995C58.9668 24.4658 58.9848 24.4298 58.7511 24.34C59.596 23.4951 59.3623 22.9558 58.7511 22.0031C58.1759 21.1043 56.9356 20.4752 55.875 20.3853C56.1986 20.4033 56.63 19.846 56.6839 19.846C56.8277 19.828 56.648 20.6549 57.1333 20.2954C57.0794 19.7022 57.367 18.8753 57.6726 18.408C58.4635 17.1676 60.7464 15.6577 62.2564 15.8914C62.526 15.9273 63.0833 16.6104 63.5147 16.6104C63.6226 16.6104 64.6292 15.9093 64.773 15.8914C67.9368 15.4959 68.8535 18.4978 69.267 18.5877C69.3748 18.6057 70.5612 18.0484 71.4241 18.2282C72.7902 18.4978 75.145 21.9672 74.9293 23.5311C75.1271 23.603 75.4686 22.7761 75.4686 22.7221Z" fill="#F4348A"/>
<path d="M92.724 27.0361C93.0295 28.7078 93.0835 30.5413 93.0835 32.249H92.5442C92.5802 30.8829 92.688 28.7797 92.5442 27.4855C91.915 22.1646 83.9338 13.4284 79.4219 20.2053C79.9432 17.9403 81.6149 17.3651 83.7361 17.3291C88.0682 17.2393 92.0229 23.1173 92.724 27.0361Z" fill="#E8EDF1"/>
<path d="M92.5462 32.2488C92.4922 33.8666 92.5102 35.5743 91.917 37.1023C91.4676 33.6869 85.3379 23.7642 82.2101 23.0811C82.1562 23.0632 81.3473 23.3148 81.7607 23.4407C81.7247 23.4227 81.6169 23.8002 81.1315 23.6204C79.1902 22.9014 78.1476 21.2117 75.4692 22.7216C75.5051 22.0385 74.5884 20.8701 74.3906 20.205C75.5051 21.2296 75.5231 22.6497 77.6263 21.8228C77.842 21.733 77.9319 21.715 77.9858 21.4633C79.1542 22.6138 79.2081 20.5286 79.4238 20.205C83.9358 13.4281 91.917 22.1644 92.5462 27.4852C92.69 28.7795 92.5821 30.8826 92.5462 32.2488Z" fill="#F377B5"/>
<path d="M55.8768 20.3845C56.9374 20.4744 58.1777 21.1035 58.753 22.0023C57.0453 20.6901 54.8702 20.043 52.9108 21.2833C52.3716 21.6248 51.4368 23.2247 51.2031 23.2606C51.7784 21.1575 53.7916 20.1868 55.8768 20.3845Z" fill="#FFC2D3"/>
<path d="M58.7484 22.0017C59.3596 22.9545 59.5933 23.4937 58.7484 24.3386C57.1486 23.7094 54.3983 24.806 53.086 25.7767C50.5514 27.6641 49.6347 31.0795 47.7832 33.5062C47.3338 32.7153 47.8012 31.2952 47.0641 30.3605C46.7765 29.983 46.0215 29.8751 45.8957 29.7313C44.188 27.9158 44.907 28.5629 44.7273 26.4058C44.6554 25.525 43.2533 25.525 45.3564 24.6981C45.8058 24.5183 46.2193 24.8958 46.2552 24.8779C46.5608 24.7341 46.5428 22.4871 49.0415 22.541C49.8504 22.559 51.0907 23.278 51.1986 23.26C51.4323 23.2241 52.367 21.6242 52.9063 21.2827C54.8656 20.0424 57.0407 20.6895 58.7484 22.0017Z" fill="#EF237D"/>
<path d="M24.0589 29.013C23.4657 29.4624 23.6455 28.1861 23.1602 27.9345C24.2567 24.9505 26.0003 22.1283 29.0023 20.7441L30.8897 20.834C27.5822 20.2408 23.8253 26.3346 24.0589 29.013Z" fill="#FFF0F2"/>
<path d="M49.041 22.5418C46.5423 22.4879 46.5603 24.7349 46.2547 24.8787C46.2188 24.8967 45.8053 24.5192 45.3559 24.6989C43.2528 25.5258 44.6549 25.5258 44.7268 26.4066C44.9065 28.5637 44.1875 27.9166 45.8952 29.7321C46.021 29.876 46.776 29.9838 47.0636 30.3613C47.8006 31.296 47.3333 32.7161 47.7827 33.5071C48.0523 33.9744 49.1129 34.0104 49.76 34.8552C50.9644 36.4371 49.9397 37.8033 50.2993 38.3605C50.8565 39.2234 51.5216 38.738 52.3665 39.0796C55.7459 40.4457 64.572 43.8611 66.6572 46.5395C67.0167 46.9889 67.3583 48.4809 67.7358 49.146C67.7897 49.2359 67.6459 49.6853 67.8257 49.6853C68.329 48.6067 67.9155 47.3125 68.6346 46.18C69.1199 45.407 70.3423 45.1554 70.6119 44.7419C70.7917 44.4723 70.8995 43.1241 71.1512 42.6747C71.313 42.3691 71.4747 42.0456 71.6904 41.7759C71.9781 41.4164 73.2364 40.4817 73.6678 40.1581C74.0992 39.8345 74.3329 39.457 74.6565 39.2593C75.0699 38.9897 76.8315 38.6122 76.9034 38.4504C77.0113 38.2167 75.1778 34.8013 77.0832 33.5969L76.2743 34.2261C75.5732 33.579 75.5552 34.298 74.9261 34.2261C74.7643 33.0577 75.0699 31.9611 76.454 32.2488C77.1731 32.3926 77.2809 33.2913 77.3528 33.3273C77.6225 33.4531 78.7549 33.2734 79.1504 33.8666C81.2176 31.5657 82.6197 32.033 83.914 34.5856C83.3208 34.5497 83.6264 34.9092 83.7342 35.2148C84.2735 36.8506 84.7768 38.3425 84.8128 39.7087C84.8487 40.8592 84.4173 41.6501 84.633 42.7646C82.8894 42.7826 81.8827 45.0295 80.7682 46.0901C80.193 46.6294 78.9886 46.8271 78.3415 47.6181C77.5146 48.6067 77.2809 50.2245 77.4427 51.4828C75.8429 51.3031 73.9914 51.0514 72.4994 50.9436C71.2411 50.8537 69.1918 51.3211 68.6346 52.5614C68.2391 52.6692 68.5267 52.7052 68.0953 52.5614C66.7831 50.3683 63.6193 50.2785 61.3544 50.9436C60.9409 51.0694 59.0535 51.7345 59.6467 52.3816C59.6287 52.3816 59.7186 52.6153 59.2872 52.5614C58.5322 49.4336 55.9796 50.6919 54.1641 50.4043C53.445 50.2964 52.1867 48.9483 51.1082 48.7865C49.4005 48.5348 46.021 49.11 45.266 50.9436C44.529 51.4109 43.7381 50.0088 43.2887 49.4156C40.7541 46.0721 37.9139 39.8525 37.7162 35.6642C37.5724 32.5543 38.615 27.6829 40.7721 25.3281C43.3426 22.5418 44.5111 24.663 46.075 24.1597C46.2727 24.0877 46.758 23.0092 47.1535 22.7216C47.2434 22.6677 49.3465 21.6071 49.041 22.5418Z" fill="url(#paint2_linear_1166_60407)"/>
<path d="M84.098 32.7889V32.9687C82.9296 31.7823 82.0667 30.452 80.413 29.9128C80.0175 29.7869 79.0109 30.0386 78.6154 29.9128C78.4716 29.8588 77.1953 27.9894 76.6381 27.5759C75.1101 26.4434 74.481 26.9288 73.4024 26.4974C72.8272 26.2637 71.515 23.8729 69.987 23.4415C67.1109 22.6146 65.4751 23.3696 63.2461 24.8795C65.3313 22.4348 69.1961 22.1832 71.7846 24.1605C72.3059 24.556 73.1687 26.03 73.4024 26.1379C74.0136 26.4434 75.3797 26.3536 76.4583 27.0366C77.1594 27.4681 78.6334 29.6611 78.7951 29.733C79.0109 29.8229 80.7365 29.6252 81.6713 30.0925C82.2105 30.3622 83.7385 32.1418 84.098 32.7889Z" fill="#FFB2CA"/>
<path d="M92.5462 32.2486H93.0854C93.1034 36.5449 92.3664 45.2092 91.1081 49.2358C90.5688 50.9255 89.5262 52.4894 88.951 54.1791C88.3578 54.269 85.3738 57.3608 85.8052 58.3135C83.9897 56.5339 82.7853 57.6664 81.0417 58.4933C80.5743 58.3495 81.0417 57.936 81.0417 57.7743C81.545 56.6957 81.4731 55.3655 81.0417 54.269C80.8979 53.8735 78.8846 51.5726 78.6149 51.4827C78.561 51.4648 77.8599 51.5187 77.4465 51.4827C77.2847 50.2244 77.5184 48.6066 78.3453 47.6179C78.9924 46.827 80.1968 46.6293 80.772 46.09C81.8865 45.0294 82.8932 42.7824 84.6368 42.7645C84.4211 41.65 84.8525 40.859 84.8166 39.7086C84.7806 38.3424 84.2773 36.8504 83.738 35.2146C83.6302 34.9091 83.3246 34.5495 83.9178 34.5855C84.5649 35.8618 84.9963 37.4077 85.1761 38.8098C85.3199 40.0322 84.4571 43.9868 86.2546 43.3037C85.4098 42.8004 85.3379 40.913 85.5356 40.0681C85.7873 38.9716 87.2972 38.3964 87.3332 38.2705C87.4051 38.0009 86.9737 37.8211 86.9737 37.7313C86.9737 37.2639 87.0815 35.8618 86.9737 35.5742C86.8838 35.3225 85.6614 34.8012 85.4457 34.5855C84.9424 34.0822 84.5469 33.4171 84.0975 32.9677V32.7879C86.8658 31.5116 84.2773 30.9544 84.4571 29.8219C84.475 29.6601 85.9131 27.7727 85.8951 27.1255C85.8592 25.4897 83.037 23.9618 81.7607 23.4405C81.3472 23.3147 82.1562 23.063 82.2101 23.081C85.3379 23.7641 91.4676 33.6867 91.917 37.1021C92.5102 35.5742 92.4922 33.8665 92.5462 32.2486Z" fill="url(#paint3_linear_1166_60407)"/>
<path d="M84.0978 32.9694C84.5472 33.4188 84.9426 34.0839 85.446 34.5872C85.6617 34.803 86.884 35.3243 86.9739 35.5759C87.0818 35.8635 86.9739 37.2656 86.9739 37.733C86.9739 37.8229 87.4053 38.0026 87.3334 38.2723C87.2975 38.3981 85.7875 38.9733 85.5358 40.0699C85.3381 40.9147 85.41 42.8022 86.2549 43.3055C84.4573 43.9886 85.3201 40.0339 85.1763 38.8116C84.9966 37.4094 84.5652 35.8635 83.918 34.5872C82.6238 32.0347 81.2217 31.5673 79.1544 33.8682C78.759 33.275 77.6265 33.4548 77.3569 33.3289C77.285 33.293 77.1771 32.3942 76.4581 32.2504C75.0739 31.9628 74.7684 33.0593 74.9301 34.2277C74.8582 34.2277 74.7863 34.2457 74.7504 34.2277C74.5167 32.1425 70.9215 31.5134 71.335 33.7783C71.4069 34.1199 72.1978 34.3715 72.2338 34.4075C72.4675 34.6592 73.0607 35.2344 72.5933 35.486C71.4428 35.2703 71.1552 36.277 71.5147 37.1039C71.9282 38.0386 72.8629 38.4341 73.1326 39.4407C71.8203 38.506 70.1306 38.8116 70.6159 40.5193C70.7418 40.9327 71.1912 41.6697 71.6945 41.7776C71.4788 42.0472 71.317 42.3708 71.1552 42.6764C70.8496 42.6584 71.0114 42.3348 70.9755 42.1371C70.8137 41.436 70.4901 40.7889 69.8969 40.3395C69.6812 39.4048 68.6386 39.1171 67.9196 38.7217C67.9915 38.6857 68.1173 38.2004 68.1892 38.1824C68.333 38.1285 70.2564 39.1351 70.4362 37.3735C70.544 36.3309 68.9442 34.2637 67.8297 34.5872C67.1286 34.803 67.1826 36.9061 66.5714 36.3848C66.6433 35.6119 66.1759 34.1019 65.1333 34.4075C64.0548 34.7311 64.4503 38.1824 65.7625 37.3735C65.4209 38.1824 65.4389 39.3688 66.4815 39.6205C66.4096 39.7823 66.5354 40.2856 66.4815 40.5193C66.4456 40.5372 66.6433 40.9507 66.122 40.8788C66.0861 40.5013 65.3131 39.5306 65.0435 39.4407C65.3131 39.0812 65.0974 39.1531 65.0435 38.9014C64.8817 38.1644 64.9176 37.7869 64.5042 37.1039C64.3784 36.0433 63.6234 35.8815 62.8864 35.486C62.8684 35.4681 62.7246 35.1265 62.7066 35.1265C62.7965 35.0366 63.5155 34.6232 63.6054 34.4075C64.2885 34.5153 64.7918 34.4614 64.8637 33.5986C63.6773 31.6392 62.9223 33.4907 62.437 33.6885C62.2392 33.7604 60.8371 32.9335 60.5495 34.767L59.0216 34.9468C59.0755 34.5513 59.5249 34.3715 59.8305 34.048C60.5855 33.2211 61.4123 32.2504 59.2912 32.0706C59.2732 31.9808 58.9497 31.7111 58.9317 31.7111L59.0216 30.4528C59.471 30.7045 61.8078 31.2977 61.9876 30.7225C61.4123 29.7518 60.5136 28.3317 59.2013 28.835C58.5902 29.0687 58.8418 29.9675 58.6621 30.0933C58.5722 30.1652 57.3858 29.554 56.505 29.7338C55.6601 29.9135 53.9704 32.1605 53.8086 32.0706C54.1681 29.8057 56.2173 26.8936 58.4823 26.3184C59.6148 26.0308 62.1853 26.4083 62.437 26.3184C62.5808 26.2645 63.138 25.0062 63.2459 24.8803C65.4749 23.3704 67.1107 22.6154 69.9868 23.4423C71.5147 23.8737 72.827 26.2645 73.4022 26.4981C74.4807 26.9296 75.1099 26.4442 76.6378 27.5767C77.1951 27.9901 78.4714 29.8596 78.6152 29.9135C79.0106 30.0394 80.0173 29.7877 80.4128 29.9135C82.0665 30.4528 82.9294 31.783 84.0978 32.9694ZM71.4249 28.116C71.0653 28.1699 70.2564 28.835 70.4362 29.2844C73.0966 30.1113 70.8496 30.0574 70.9755 30.7225C71.6945 31.4954 73.4921 32.0706 73.8516 30.7225C74.1931 29.4462 73.2943 29.608 72.773 29.1046C72.5753 28.9069 72.809 27.8823 71.4249 28.116ZM63.5155 28.2957C63.4436 28.3137 62.8684 28.835 62.7066 28.9249C62.0056 30.8842 65.3311 31.1718 66.2119 30.0933C65.2412 32.0167 67.3264 31.765 68.6386 31.4415L68.369 30.4528C70.9755 32.6818 70.7238 27.2172 68.369 28.4755C68.0634 28.6373 67.2185 30.2371 66.3916 29.9135C66.104 29.8057 65.6367 27.6845 63.5155 28.2957ZM68.4589 33.8682C69.124 34.9468 72.4135 34.3356 70.0767 32.9694C68.9262 32.3043 67.7578 32.7357 68.4589 33.8682Z" fill="#EC156B"/>
<path d="M58.7465 24.3396C58.9802 24.4295 58.9622 24.4654 58.9262 24.6991C54.7918 24.3037 52.9403 25.7777 50.6574 29.1032C50.3698 29.5166 48.3025 33.0039 48.3205 33.2376C48.3565 33.5612 52.7605 36.2935 50.2979 38.3607C49.9383 37.8035 50.963 36.4373 49.7586 34.8554C49.1115 34.0106 48.0509 33.9746 47.7812 33.5073C49.6328 31.0805 50.5495 27.6651 53.0841 25.7777C54.3963 24.807 57.1466 23.7105 58.7465 24.3396Z" fill="#C4DCF1"/>
<path d="M58.93 24.6995C60.1884 24.8253 61.3568 25.1669 62.5252 25.5983C61.4826 26.2094 59.7749 25.5803 58.3009 25.9578C54.8855 26.8386 53.1778 31.6921 52.4588 34.7659C52.3689 35.1794 51.8296 37.6061 51.9195 37.7319C52.1712 38.0375 53.8069 37.4263 53.5373 38.1813C52.261 38.0195 51.4521 38.6487 50.3017 38.3611C52.7644 36.2939 48.3603 33.5615 48.3243 33.238C48.3064 33.0043 50.3736 29.517 50.6612 29.1035C52.9441 25.778 54.7956 24.304 58.93 24.6995Z" fill="#EC116E"/>
<path d="M58.9322 31.7078C58.4648 31.7078 57.8177 32.0493 57.4043 32.247C57.9795 31.6718 56.2179 31.1685 55.6067 31.3482C55.409 31.4022 53.5934 33.3435 53.3597 33.6851C53.0901 34.0446 53.0721 34.7816 52.4609 34.7636C53.18 31.6898 54.8877 26.8363 58.3031 25.9555C59.7771 25.578 61.4848 26.2072 62.5274 25.596C62.5993 25.56 62.9408 25.0927 63.2464 24.877C63.1386 25.0028 62.5813 26.2611 62.4375 26.315C62.1858 26.4049 59.6153 26.0274 58.4828 26.315C56.2179 26.8902 54.1686 29.8023 53.8091 32.0673C53.9709 32.1571 55.6606 29.9102 56.5055 29.7304C57.3863 29.5507 58.5727 30.1618 58.6626 30.0899C58.8423 29.9641 58.5907 29.0653 59.2019 28.8316C60.5141 28.3283 61.4129 29.7484 61.9881 30.7191C61.8083 31.2943 59.4715 30.7011 59.0221 30.4494L58.9322 31.7078Z" fill="#BFDDFF"/>
<path d="M101.889 38.0011C100.936 37.9292 101.907 36.8327 100.63 36.7428C100.397 33.3634 97.952 26.3348 93.6198 26.8561C93.1884 26.4787 93.3862 26.3169 93.8895 26.3169C98.1318 26.245 101.511 34.4779 101.889 38.0011Z" fill="#E5EAF0"/>
<path d="M100.633 36.7423C100.687 37.6411 100.813 37.695 100.633 38.7196C100.454 39.8161 99.4291 41.4699 99.3752 42.5844C99.3212 43.7708 99.9504 45.2448 99.7347 46.7188C99.6448 47.366 97.7574 50.6555 97.308 50.7634C97.1282 50.7993 96.3912 50.332 95.8699 50.4039C94.5397 50.5836 92.9578 52.6868 92.3646 53.8193C92.0051 54.5203 91.7355 54.9697 91.7355 55.7966C91.1243 55.1135 89.9559 54.035 88.9492 54.1788C89.5244 52.4891 90.567 50.9252 91.1063 49.2355C92.3646 45.2089 93.1016 36.5445 93.0836 32.2483C93.0836 30.5406 93.0297 28.7071 92.7241 27.0354C93.0477 27.2151 93.569 26.8556 93.6229 26.8556C97.9551 26.3343 100.4 33.3628 100.633 36.7423Z" fill="url(#paint4_linear_1166_60407)"/>
<path d="M22.4362 27.2148C22.4362 27.2867 22.58 27.844 22.6159 27.9339C20.2611 28.1316 17.385 28.3114 17.4928 31.3493C16.1446 29.6236 12.6214 29.0304 12.5495 31.8885L10.0329 32.0683C8.68468 31.4032 6.86913 32.0324 5.89844 33.1469C6.31188 29.8393 12.2619 31.6728 12.4596 31.3493C12.5315 31.2414 12.2439 30.774 12.5495 30.3606C14.6167 27.6283 15.6413 29.3719 17.1333 28.8327C17.349 28.7608 17.5108 28.0957 17.8523 27.9339C19.4342 27.1789 20.6566 27.2867 22.4362 27.2148Z" fill="#E4EFFD"/>
<path d="M22.618 27.9336C22.672 28.0954 22.7798 28.401 22.9775 28.4729C19.706 38.4135 23.9482 46.3408 31.4262 52.5604C30.7071 52.5964 31.0307 53.2255 31.2464 53.639H31.0666C29.8802 51.5538 25.638 51.7335 24.9549 53.9985C24.3797 55.868 26.5367 58.8519 27.6512 60.3799C29.8443 63.3998 33.9607 67.0849 36.9987 69.2779L32.8642 72.5135C31.7138 72.6214 30.5094 72.945 29.2691 73.0528C25.0268 72.4237 21.2698 72.0102 17.4051 69.9969C14.2773 66.977 9.98105 64.1009 7.87789 60.3799C7.89586 57.0544 7.82396 58.4385 6.17019 57.0544C5.75674 56.7128 4.53439 55.5444 4.28273 55.1669C3.81536 54.4479 1.55041 47.1677 1.58636 46.5385C1.60434 46.2329 1.56838 46.1071 1.856 45.9094C2.05373 45.8734 2.32337 45.9633 2.48515 45.9094C5.12759 45.1903 8.36323 46.0891 10.8439 46.9879C9.47773 45.424 7.19481 45.46 5.54103 44.8308C2.39527 43.6265 1.71219 41.9188 2.30539 38.7191C3.45584 37.8023 4.33666 36.4002 5.00176 35.3037C5.39723 34.6565 5.03771 34.1352 5.90055 33.1466C6.87124 32.0321 8.6868 31.4029 10.035 32.068C11.0956 32.5893 12.9291 35.1599 13.8998 36.0227C13.5582 34.8543 12.5156 33.0926 12.5516 31.8883C12.6235 29.0301 16.1467 29.6233 17.4949 31.349C17.3871 28.3111 20.2632 28.1313 22.618 27.9336Z" fill="#F43F90"/>
<path d="M24.0551 29.0121C24.127 29.7491 24.7921 30.612 24.7742 31.0794C24.7202 32.122 23.2642 35.7171 23.1563 37.3709C22.9226 40.8222 24.9359 45.2802 27.111 47.9766C27.6323 48.6237 32.8453 53.0817 32.5037 53.4592C32.1262 53.1896 31.7847 52.866 31.4252 52.5604C23.9473 46.3408 19.705 38.4135 22.9766 28.4729C23.0305 28.2931 23.0844 28.1134 23.1563 27.9336C23.6417 28.1853 23.4619 29.4615 24.0551 29.0121Z" fill="#F7B8C8"/>
<path d="M71.4245 28.1145C72.8087 27.8808 72.575 28.9055 72.7727 29.1032C73.294 29.6065 74.1928 29.4447 73.8513 30.721C73.4918 32.0692 71.6942 31.494 70.9751 30.721C70.8493 30.0559 73.0963 30.1098 70.4359 29.283C70.2561 28.8336 71.065 28.1685 71.4245 28.1145Z" fill="#FF9DB9"/>
<path d="M63.5146 28.294C65.6358 27.6828 66.1031 29.8039 66.3907 29.9118C67.2176 30.2354 68.0625 28.6355 68.3681 28.4737C70.7229 27.2154 70.9746 32.6801 68.3681 30.4511L68.6377 31.4397C67.3255 31.7633 65.2403 32.015 66.211 30.0916C65.3302 31.1701 62.0047 30.8825 62.7057 28.9231C62.8675 28.8333 63.4427 28.312 63.5146 28.294Z" fill="#C0DCFC"/>
<path d="M36.1008 34.2264C36.5322 34.8017 37.1793 35.7184 37.7186 35.6645C37.9164 39.8529 40.7565 46.0725 43.2911 49.416C43.7405 50.0092 44.5314 51.4113 45.2685 50.9439C44.837 51.9865 44.891 52.8494 45.628 53.8201C45.7538 53.9818 45.8976 54.1796 45.9875 54.3593C44.4236 53.6762 41.9609 53.7302 41.6733 55.7974C41.6014 55.8154 41.4037 55.8154 41.3138 55.7974C40.1813 53.8021 37.3951 52.8494 35.6514 51.3034C31.1934 47.3667 27.059 39.2057 29.0902 33.2378C29.5217 31.9615 31.4091 29.8943 32.7753 29.7325C34.8784 29.4808 34.0516 30.6133 34.6627 31.9795C35.0762 32.8962 35.5076 33.4535 36.1008 34.2264Z" fill="#FE5684"/>
<path d="M113.936 48.2463C112.103 50.8887 110.898 53.8727 108.903 56.4253C108.364 57.1084 104.032 61.6203 103.6 61.7281C103.474 61.7641 103.223 61.7641 103.151 61.6383C104.086 60.8114 104.877 59.9845 105.668 59.0318C106.009 58.7801 106.566 58.4026 106.656 57.9532C106.063 57.9892 105.865 58.7981 105.668 59.0318C102.935 61.1349 100.095 62.7528 96.8594 63.7055C106.009 60.0564 113.469 50.9606 114.296 40.9661C114.422 39.5101 114.476 35.4296 114.116 34.1353C113.829 33.1287 112.139 31.2232 110.97 31.5288C110.054 31.7805 107.016 36.9036 105.218 37.1013C104.751 36.8496 106.602 34.369 106.746 34.0454C108.256 32.9309 110.719 29.6234 112.768 30.8098C116.201 32.8051 114.925 44.8309 113.936 48.2463Z" fill="#FFC9D6"/>
<path d="M58.9319 31.709C58.9498 31.709 59.2734 31.9787 59.2914 32.0685C58.5364 31.9966 57.6196 32.2123 57.1343 32.8775C59.1656 31.763 58.5544 33.1651 59.0217 33.3268C59.3273 33.4347 61.1249 32.4101 59.8307 34.0459C59.5251 34.3694 59.0757 34.5492 59.0217 34.9447L60.5497 34.7649L60.6396 35.1244C61.053 34.7469 60.8733 33.938 61.6282 34.3155L61.3586 34.7649C62.2035 34.729 63.1742 34.8548 62.6169 33.8661C62.7427 33.8122 63.4258 34.3694 63.6056 34.4054C63.5157 34.6211 62.7967 35.0345 62.7068 35.1244C61.9698 34.8728 60.3879 35.43 60.0104 36.1131C61.5743 35.6457 61.5024 34.8728 62.1675 36.7422C60.8373 40.7868 61.4305 37.2096 58.842 38.3601C59.561 37.3354 58.4285 35.8794 57.5837 35.6637C57.2781 35.5918 57.1523 36.1131 56.8647 36.0232C53.5751 35.0885 56.3613 33.974 55.7861 33.6864C54.8514 34.711 54.4918 33.7043 53.3594 33.6864C53.5931 33.3448 55.4086 31.4034 55.6063 31.3495C56.2175 31.1698 57.9792 31.6731 57.4039 32.2483C57.8174 32.0506 58.4645 31.709 58.9319 31.709Z" fill="#EC75A1"/>
<path d="M12.5557 31.8887C12.5197 33.093 13.5623 34.8547 13.9039 36.0231C12.9332 35.1603 11.0996 32.5897 10.0391 32.0684L12.5557 31.8887Z" fill="#FEA6BC"/>
<path d="M59.2899 32.0698C61.411 32.2496 60.5842 33.2203 59.8292 34.0472C61.1234 32.4114 59.3259 33.436 59.0203 33.3281C58.5529 33.1663 59.1641 31.7642 57.1328 32.8787C57.6182 32.2136 58.5349 31.9979 59.2899 32.0698Z" fill="#BDD6F0"/>
<path d="M74.7532 34.2245C73.6387 33.7032 73.9083 32.4988 72.2365 34.4042C72.2006 34.3683 71.4097 34.1166 71.3378 33.7751C70.9243 31.5101 74.5195 32.1393 74.7532 34.2245Z" fill="#FFA5BD"/>
<path d="M70.0757 32.967C69.7881 34.3511 69.4286 33.3624 68.4579 33.8658C67.7569 32.7333 68.9253 32.3019 70.0757 32.967Z" fill="#C3E1FF"/>
<path d="M63.6028 34.4057C63.423 34.3698 62.7399 33.8125 62.6141 33.8664C63.1713 34.8551 62.2006 34.7293 61.3558 34.7652L61.6254 34.3158C60.8704 33.9383 61.0502 34.7472 60.6368 35.1247L60.5469 34.7652C60.8345 32.9317 62.2366 33.7586 62.4343 33.6867C62.9197 33.4889 63.6747 31.6374 64.8611 33.5968C64.7892 34.4596 64.2858 34.5136 63.6028 34.4057Z" fill="#C0DBFA"/>
<path d="M68.457 33.8656C69.4277 33.3623 69.7872 34.3509 70.0749 32.9668C72.4117 34.333 69.1221 34.9441 68.457 33.8656Z" fill="#FF91B8"/>
<path d="M74.7474 34.2262C74.7833 34.2442 74.8552 34.2262 74.9271 34.2262C75.5563 34.2981 75.5742 33.5791 76.2753 34.2262L77.0842 33.5971C75.1788 34.8014 77.0123 38.2168 76.9045 38.4505C76.8326 38.6123 75.0709 38.9898 74.6575 39.2594C74.3339 39.4572 74.1002 39.8347 73.6688 40.1582C73.7227 39.7448 73.3812 39.619 73.1295 39.4392C72.8599 38.4326 71.9252 38.0371 71.5117 37.1023L73.4891 36.4732C73.5789 36.2575 72.6981 35.5025 72.5903 35.4845C73.0576 35.2329 72.4644 34.6576 72.2308 34.406C73.9025 32.5005 73.6329 33.7049 74.7474 34.2262Z" fill="#F984A2"/>
<path d="M62.1664 36.7434C62.454 35.8626 61.753 36.1682 62.7057 35.1256C62.7237 35.1256 62.8675 35.4671 62.8854 35.4851C62.508 35.3233 62.5619 35.9884 62.5259 36.3839C62.4361 37.4624 62.6877 38.0556 61.6271 38.8106L61.717 39.26L65.0425 38.9005C65.0965 39.1521 65.3122 39.0802 65.0425 39.4398C63.6764 39.0083 62.2203 39.7813 61.9867 41.2373C61.8608 41.5968 62.2024 41.8126 62.1664 42.1361C61.4474 41.7407 61.1777 40.6801 60.0992 40.3385C58.8948 39.961 57.0972 40.4823 56.6838 40.3385C56.3602 40.2307 55.4255 38.4151 53.538 38.1814C53.8077 37.4265 52.1719 38.0376 51.9202 37.7321C51.8303 37.6062 52.3696 35.1795 52.4595 34.766C53.0707 34.784 53.0886 34.047 53.3583 33.6875C54.4908 33.7055 54.8503 34.7121 55.785 33.6875C56.3602 33.9751 53.574 35.0896 56.8636 36.0244C57.1512 36.1142 57.277 35.5929 57.5826 35.6648C58.4275 35.8805 59.5599 37.3366 58.8409 38.3612C61.4294 37.2108 60.8362 40.7879 62.1664 36.7434Z" fill="#FE2D70"/>
<path d="M67.9165 38.7197C67.6109 38.8635 66.5863 39.3848 66.4785 39.6185C65.4359 39.3668 65.4179 38.1804 65.7594 37.3715C64.4472 38.1804 64.0517 34.7291 65.1303 34.4055C66.1729 34.0999 66.6403 35.6099 66.5683 36.3828C67.1795 36.9041 67.1256 34.801 67.8267 34.5852C68.9412 34.2617 70.541 36.3289 70.4331 37.3715C70.2534 39.1331 68.33 38.1265 68.1862 38.1804C68.1143 38.1984 67.9884 38.6837 67.9165 38.7197ZM68.8153 36.7423C68.7254 36.8502 67.9705 36.6704 68.5457 37.4614C69.031 37.4973 68.7254 36.9401 68.8153 36.7423C68.8513 36.7064 69.6063 36.4907 69.2647 36.0233C68.9052 36.221 68.9232 36.4907 68.8153 36.7423Z" fill="#C0DBF7"/>
<path d="M62.7042 35.1241C61.7515 36.1667 62.4525 35.8611 62.1649 36.7419C61.4998 34.8724 61.5717 35.6454 60.0078 36.1128C60.3853 35.4297 61.9672 34.8724 62.7042 35.1241Z" fill="#D8E3F3"/>
<path d="M5.00106 35.3047C4.33595 36.4012 3.45514 37.8033 2.30469 38.7201C2.5923 37.1382 3.14955 35.4305 5.00106 35.3047Z" fill="#D4E3F1"/>
<path d="M62.883 35.4858C63.62 35.8813 64.3749 36.0431 64.5008 37.1036C63.9435 36.1689 63.4941 35.9172 62.5234 36.3846C62.5594 35.9891 62.5055 35.324 62.883 35.4858Z" fill="#D4DFF1"/>
<path d="M72.5912 35.4847C72.6991 35.5026 73.5799 36.2576 73.49 36.4733L71.5127 37.1025C71.1531 36.2756 71.4408 35.269 72.5912 35.4847Z" fill="#C4E3FF"/>
<path d="M64.5011 37.1024C64.9146 37.7855 64.8786 38.163 65.0404 38.9L61.7149 39.2595L61.625 38.8101C62.6856 38.0551 62.4339 37.4619 62.5238 36.3834C63.4945 35.916 63.9439 36.1677 64.5011 37.1024Z" fill="#EE75A0"/>
<path d="M68.8164 36.7425C68.9243 36.4908 68.9063 36.2212 69.2658 36.0234C69.6073 36.4908 68.8524 36.7065 68.8164 36.7425Z" fill="#D6295C"/>
<path d="M68.8199 36.7422C68.73 36.9399 69.0356 37.4972 68.5502 37.4612C67.975 36.6703 68.73 36.85 68.8199 36.7422Z" fill="#D6295C"/>
<path d="M101.892 38.0005C102.432 42.9259 101.461 48.1209 98.2972 52.0216C98.2792 51.9317 97.5781 51.0869 97.5781 51.0329C97.5781 50.8172 99.6453 48.5343 99.915 47.4378C100.418 45.4425 99.5555 43.8966 99.7352 42.4046C99.8251 41.5777 101.317 39.87 100.634 38.7195C100.814 37.6949 100.688 37.641 100.634 36.7422C101.91 36.8321 100.94 37.9286 101.892 38.0005Z" fill="#FCB8C7"/>
<path d="M53.5364 38.1813C55.4239 38.415 56.3586 40.2306 56.6822 40.3384C57.0956 40.4822 58.8932 39.9609 60.0976 40.3384C61.1761 40.68 61.4458 41.7405 62.1648 42.136C62.2367 42.172 62.5603 42.136 62.8838 42.3158C65.4723 43.5381 68.0968 46.0547 67.7373 49.1466C67.3598 48.4815 67.0183 46.9895 66.6587 46.5401C64.5736 43.8617 55.7474 40.4463 52.368 39.0801C51.5231 38.7386 50.858 39.2239 50.3008 38.3611C51.4512 38.6487 52.2601 38.0196 53.5364 38.1813Z" fill="#C6DFF7"/>
<path d="M69.8992 40.3385C68.3892 39.1701 68.6229 40.1947 67.6522 40.3385C67.2567 40.3925 68.2274 39.4397 66.4838 40.5183C66.5377 40.2846 66.4119 39.7813 66.4838 39.6195C66.5916 39.3858 67.6162 38.8645 67.9218 38.7207C68.6409 39.1162 69.6835 39.4038 69.8992 40.3385Z" fill="#DAEAFF"/>
<path d="M98.2964 52.0228C98.6199 55.1146 93.2632 62.1611 91.1061 64.4261C86.1987 69.5851 80.3026 72.8927 73.8493 75.7508V75.9306L64.2323 77.7282C55.1365 78.3753 45.5554 75.2475 38.0775 70.1783C37.9696 70.1064 37.3764 69.5492 36.9989 69.2795C33.961 67.0865 29.8446 63.4015 27.6515 60.3815C26.537 58.8536 24.3799 55.8696 24.9552 54.0001C26.8067 52.1486 28.9458 52.2205 31.0669 53.6406H31.2467C31.3186 53.7664 32.0736 54.2698 32.0556 54.7192C32.0736 54.5214 32.4331 53.5148 32.505 53.4608C33.6734 52.598 34.5722 54.1619 35.3811 54.1799C36.1541 54.1979 36.9091 53.6406 37.9876 53.8204C39.0302 53.9821 40.9896 55.7258 41.3131 55.7977C41.403 55.8157 41.6007 55.8157 41.6726 55.7977C42.3737 55.582 42.6613 54.2158 44.6387 54.5394C46.5081 54.845 48.809 57.7391 50.1213 58.6738C50.1392 58.6738 50.0494 58.7997 50.301 58.8536C50.6066 58.9255 53.2311 58.3143 54.3456 58.4941C55.6938 58.7098 59.0552 61.0107 60.2776 61.9095C60.709 62.2151 61.7876 63.6531 61.9853 63.707C62.2549 63.7969 62.3268 63.5632 62.5246 63.5273C63.0818 63.8688 64.0345 63.2217 64.5918 63.1678C65.9579 63.024 67.3061 63.4015 68.6363 63.3475C69.3194 63.3296 69.2655 63.2936 69.8946 63.1678C71.6203 63.2756 73.364 62.3948 75.0177 61.9095C75.4851 61.7657 76.5816 62.0533 76.9951 61.9095C77.6422 61.6758 80.051 58.8356 82.3878 58.3143C83.5383 58.0626 86.0009 58.5839 86.1627 58.4941C86.3964 58.3682 85.983 57.793 86.2526 57.3256C86.4144 57.056 88.6793 54.5933 88.8591 54.5394C89.9916 54.2338 90.9623 55.7977 91.915 56.1572L92.3644 53.8204C92.9576 52.6879 94.5394 50.5847 95.8696 50.405C96.3909 50.3331 97.128 50.8004 97.3077 50.7645C97.7571 50.6566 99.6446 47.3671 99.7344 46.7199C99.9501 45.2459 99.321 43.7719 99.3749 42.5855C99.4288 41.471 100.453 39.8172 100.633 38.7207C101.316 39.8712 99.8243 41.5789 99.7344 42.4057C99.5547 43.8977 100.418 45.4436 99.9142 47.439C99.6446 48.5355 97.5773 50.8184 97.5773 51.0341C97.5773 51.088 98.2784 51.9329 98.2964 52.0228Z" fill="url(#paint5_linear_1166_60407)"/>
<path d="M73.133 39.4399C73.3847 39.6197 73.7262 39.7455 73.6723 40.1589C72.4859 39.0444 71.4433 39.0804 70.6164 40.5184C70.1311 38.8107 71.8208 38.5052 73.133 39.4399Z" fill="#D0E7FF"/>
<path d="M73.6692 40.1563C73.2377 40.4798 71.9794 41.4146 71.6918 41.7741C71.1885 41.6662 70.7391 40.9292 70.6133 40.5158C71.4402 39.0777 72.4828 39.0418 73.6692 40.1563Z" fill="#F984A2"/>
<path d="M65.0442 39.4394C65.3138 39.5293 66.0868 40.5 66.1227 40.8775C65.7093 40.8235 65.0621 39.3675 63.5162 39.7989C63.4084 39.8349 62.0242 41.1291 61.9883 41.237C62.222 39.7809 63.678 39.008 65.0442 39.4394Z" fill="#D2E3FE"/>
<path d="M66.1233 40.8771C66.6446 40.949 66.4469 40.5356 66.4829 40.5176C68.2265 39.439 67.2558 40.3917 67.6513 40.3378C68.622 40.194 68.3883 39.1694 69.8983 40.3378C70.4915 40.7872 70.815 41.4343 70.9768 42.1354C69.2332 41.2546 66.8783 44.0768 66.393 42.3152L66.3031 43.6633L65.8537 43.933C65.7459 43.9509 64.5235 42.8005 64.2359 42.6747C63.8224 42.4769 62.9416 42.3511 62.8877 42.3152C62.5641 42.1354 62.2406 42.1713 62.1687 42.1354C62.2046 41.8118 61.8631 41.5961 61.9889 41.2366C62.0249 41.1288 63.409 39.8345 63.5169 39.7985C65.0628 39.3671 65.7099 40.8232 66.1233 40.8771Z" fill="#EB73A0"/>
<path d="M70.9758 42.1359C71.0118 42.3336 70.85 42.6572 71.1556 42.6752C70.9039 43.1246 70.7961 44.4727 70.6163 44.7424C70.3467 45.1558 69.1243 45.4075 68.639 46.1804C67.9199 47.3129 68.3334 48.6072 67.8301 49.6857C67.6503 49.6857 67.7941 49.2363 67.7402 49.1465C68.0997 46.0546 65.4752 43.538 62.8867 42.3157C62.9406 42.3516 63.8215 42.4774 64.2349 42.6752C64.5225 42.801 65.7449 43.9514 65.8527 43.9335L66.3021 43.6638L66.392 42.3157C66.8773 44.0773 69.2322 41.2551 70.9758 42.1359Z" fill="#DD5AA4"/>
<path d="M2.48452 45.9106L2.125 45.3713C3.3114 45.1017 4.4978 45.4432 5.5404 44.832C7.19417 45.4612 9.4771 45.4252 10.8433 46.9891C8.3626 46.0903 5.12696 45.1915 2.48452 45.9106Z" fill="#E6EDF4"/>
<path d="M2.12549 45.3711L2.48501 45.9104C2.32323 45.9643 2.05359 45.8744 1.85586 45.9104C1.56824 46.1081 1.60419 46.2339 1.58622 46.5395C1.55027 47.1687 3.81522 54.4489 4.28259 55.1679C4.53425 55.5454 5.7566 56.7138 6.17004 57.0554C7.82382 58.4395 7.89572 57.0554 7.87774 60.3809C9.98091 64.1019 14.2771 66.978 17.4049 69.9979C16.1466 69.3328 9.31581 63.5985 8.59678 62.538C7.24859 60.5247 8.00357 59.536 7.51823 58.2238C7.32049 57.6845 6.15207 57.6845 5.81053 57.4149C2.80857 55.078 2.37715 50.7099 1.58622 47.4383C1.55027 47.2586 1.40646 46.4137 1.04695 46.8092C1.02897 46.4317 1.04695 46.18 0.867188 45.8205C0.975042 45.4789 1.8199 45.443 2.12549 45.3711Z" fill="#F6B7C6"/>
<path d="M17.4048 69.998C21.2696 72.0113 25.0266 72.4248 29.2689 73.0539C15.1039 74.3302 1.78388 60.4349 1.04688 46.8093C1.40639 46.4138 1.5502 47.2587 1.58615 47.4384C2.37708 50.71 2.8085 55.0781 5.81046 57.415C6.152 57.6846 7.32043 57.6846 7.51816 58.2239C8.0035 59.5361 7.24852 60.5248 8.59671 62.5381C9.31574 63.5987 16.1465 69.3329 17.4048 69.998Z" fill="#FF76A9"/>
<path d="M113.938 48.248C112.194 54.3239 107.556 60.2379 101.894 63.0781C105.543 62.8084 114.836 60.6513 117.802 62.8084C118.288 63.1679 118.342 63.3297 118.432 63.887C116.185 68.6506 112.392 70.3942 107.197 69.9987C107.412 70.3403 108.185 70.1605 108.545 70.1785C110.145 71.3649 110.145 70.0347 110.522 72.1558C109.498 79.0046 98.8379 81.2156 92.9958 81.683C89.0771 81.9886 84.9965 81.9526 81.3115 81.1437C81.689 81.3055 82.1024 81.3774 82.4799 81.5033C82.2822 82.3841 83.7562 82.1324 83.918 82.9413C81.8328 82.0425 78.8309 80.2449 77.0872 78.8069C76.8535 78.6091 76.6738 78.0159 76.1884 78.0879C75.739 77.3149 74.5167 76.3981 73.8516 75.751C80.3049 72.8929 86.2009 69.5853 91.1083 64.4263C93.2295 64.9835 94.6855 64.3544 96.8606 63.7072C100.096 62.7545 102.936 61.1367 105.669 59.0335C104.878 59.9862 104.087 60.8131 103.152 61.64C103.224 61.7658 103.476 61.7658 103.601 61.7299C104.033 61.622 108.365 57.1101 108.904 56.427C110.9 53.8745 112.104 50.8905 113.938 48.248Z" fill="url(#paint6_linear_1166_60407)"/>
<path d="M59.2895 52.5614C58.8041 52.5075 58.121 51.2132 57.0425 50.9436C56.3414 50.7638 54.7416 50.9615 53.9866 50.7638C51.8295 50.2245 51.6318 49.2359 48.7736 49.5055C46.0054 49.7572 44.6392 50.9975 45.6279 53.8197C44.8909 52.849 44.8369 51.9862 45.2684 50.9436C46.0233 49.11 49.4028 48.5348 51.1105 48.7865C52.189 48.9483 53.4473 50.2964 54.1664 50.4043C55.9819 50.6919 58.5345 49.4336 59.2895 52.5614Z" fill="#CDE0F2"/>
<path d="M59.287 52.5625C59.7184 52.6165 59.6286 52.3828 59.6465 52.3828C61.6598 52.1311 63.7091 50.8189 66.028 51.3042C66.7829 51.466 67.6458 52.6524 67.8255 52.7423C68.0772 52.8681 68.0772 52.5625 68.0952 52.5625C68.5266 52.7063 68.239 52.6704 68.6344 52.5625C69.3714 52.3648 70.2882 51.4121 71.0612 51.3042C71.4746 51.2503 77.9099 52.185 78.4312 52.3828C80.7142 53.2276 81.1456 55.6004 81.0377 57.7755C81.0377 57.9373 80.5704 58.3507 81.0377 58.4945C80.2648 58.872 79.1683 59.4652 78.4312 59.9326C78.0178 60.1843 76.8673 61.6762 76.6337 61.7302C76.5618 61.7482 75.5371 61.4066 75.0158 61.5504C73.3441 62.0178 71.5825 62.8267 69.8927 63.1682C69.2636 63.2941 69.3175 63.33 68.6344 63.348C66.7829 61.9998 64.3922 63.1323 62.5227 63.5278C62.3249 63.5637 62.253 63.7974 61.9834 63.7075C60.5453 60.1843 53.8763 56.4812 50.2991 58.8541C50.0475 58.8001 50.1374 58.6743 50.1194 58.6743C50.1014 57.2542 47.0994 54.8455 45.9849 54.3601C45.8951 54.1803 45.7513 53.9826 45.6254 53.8208C44.6368 50.9986 46.0029 49.7583 48.7712 49.5066C51.6293 49.237 51.8271 50.2257 53.9842 50.7649C54.7392 50.9627 56.339 50.7649 57.0401 50.9447C58.1186 51.2143 58.8017 52.5086 59.287 52.5625Z" fill="url(#paint7_linear_1166_60407)"/>
<path d="M68.0942 52.5615C68.0762 52.5615 68.0762 52.8671 67.8246 52.7413C67.6448 52.6514 66.782 51.465 66.027 51.3032C63.7081 50.8178 61.6589 52.1301 59.6456 52.3817C59.0524 51.7346 60.9399 51.0695 61.3533 50.9437C63.6183 50.2786 66.782 50.3685 68.0942 52.5615Z" fill="#CFE3F9"/>
<path d="M77.4449 51.4817C77.8583 51.5176 78.5594 51.4637 78.6133 51.4817C78.8829 51.5716 80.8962 53.8725 81.04 54.2679C81.4714 55.3644 81.5433 56.6947 81.04 57.7732C81.1479 55.5981 80.7164 53.2253 78.4335 52.3805C77.9122 52.1827 71.4769 51.248 71.0634 51.3019C70.2905 51.4098 69.3737 52.3625 68.6367 52.5602C69.194 51.3199 71.2432 50.8525 72.5015 50.9424C73.9935 51.0503 75.845 51.3019 77.4449 51.4817Z" fill="#CFE1F1"/>
<path d="M31.0649 53.6394C28.9437 52.2194 26.8046 52.1475 24.9531 53.999C25.6362 51.734 29.8785 51.5543 31.0649 53.6394Z" fill="#FFC1D0"/>
<path d="M31.4268 52.5625C31.7863 52.8681 32.1279 53.1917 32.5053 53.4613C32.4334 53.5152 32.0739 54.5219 32.0559 54.7196C32.0739 54.2702 31.3189 53.7669 31.247 53.641C31.0313 53.2276 30.7078 52.5985 31.4268 52.5625Z" fill="#E74C84"/>
<path d="M69.8945 63.1658C71.5843 62.8242 73.3459 62.0153 75.0176 61.5479C75.5389 61.4041 76.5635 61.7457 76.6355 61.7277C76.8691 61.6738 78.0196 60.1818 78.433 59.9301C79.17 59.4628 80.2666 58.8696 81.0395 58.4921C82.7832 57.6652 83.9875 56.5327 85.8031 58.3123C85.3717 57.3596 88.3557 54.2678 88.9489 54.1779C89.9555 54.0341 91.1239 55.1126 91.7351 55.7957C91.7351 54.9688 92.0047 54.5194 92.3643 53.8184L91.9149 56.1552C90.9622 55.7957 89.9915 54.2318 88.859 54.5374C88.6792 54.5913 86.4143 57.054 86.2525 57.3236C85.9829 57.791 86.3963 58.3662 86.1626 58.4921C86.0008 58.5819 83.5382 58.0606 82.3877 58.3123C80.0509 58.8336 77.6421 61.6738 76.995 61.9075C76.5815 62.0513 75.485 61.7637 75.0176 61.9075C73.3639 62.3928 71.6202 63.2736 69.8945 63.1658Z" fill="#FFC6D3"/>
<path d="M45.9861 54.3585C47.1006 54.8439 50.1025 57.2526 50.1205 58.6727C48.8083 57.738 46.5074 54.8439 44.6379 54.5383C42.6605 54.2147 42.3729 55.5809 41.6719 55.7966C41.9595 53.7294 44.4222 53.6755 45.9861 54.3585Z" fill="#FFBECD"/>
<path d="M105.668 59.0336C105.866 58.7999 106.063 57.991 106.657 57.9551C106.567 58.4045 106.01 58.782 105.668 59.0336Z" fill="#F1A4BE"/>
<path d="M61.985 63.7055C61.7873 63.6515 60.7088 62.2135 60.2773 61.9079C59.055 61.0091 55.6935 58.7082 54.3453 58.4925C53.2308 58.3127 50.6064 58.9239 50.3008 58.852C53.878 56.4792 60.547 60.1822 61.985 63.7055Z" fill="#FFB7C9"/>
<path d="M68.6352 63.347C67.305 63.4009 65.9568 63.0234 64.5907 63.1672C64.0334 63.2212 63.0807 63.8683 62.5234 63.5268C64.3929 63.1313 66.7837 61.9988 68.6352 63.347Z" fill="#FFB2C5"/>
<path d="M117.711 67.8414L117.442 66.4033C115.015 69.8008 112.552 70.3041 108.543 70.1782C108.184 70.1603 107.411 70.34 107.195 69.9985C112.39 70.394 116.183 68.6503 118.43 63.8867C118.574 64.8035 118.017 66.9246 117.711 67.8414Z" fill="#FFCBD6"/>
<path d="M117.711 67.8404C116.542 71.4356 113.666 74.4735 109.981 75.57C110.538 74.1499 110.808 73.7365 110.52 72.1546C110.143 70.0335 110.143 71.3637 108.543 70.1773C112.552 70.3031 115.014 69.7998 117.441 66.4023L117.711 67.8404Z" fill="#E59BBF"/>
<path d="M38.0802 70.1781C36.9117 71.1668 35.6175 71.9217 34.3053 72.6947C34.0536 72.4071 33.2267 72.479 32.8672 72.5149L37.0016 69.2793C37.3791 69.5489 37.9723 70.1062 38.0802 70.1781Z" fill="#DA5173"/>
<path d="M73.8475 75.928C74.98 79.4153 76.5079 82.2016 76.5439 85.9945C76.6158 96.0969 61.0847 95.5216 54.164 93.7241C51.216 92.9511 44.9424 91.0816 45.3559 87.2528C42.5696 91.6748 36.5118 91.6029 32.2336 89.5896C31.2269 89.1223 24.9714 84.9519 24.5939 84.2868C24.4321 84.0171 24.468 83.7295 24.4141 83.4779C23.5333 79.0378 31.155 74.5439 34.3008 72.6924C35.613 71.9194 36.9073 71.1644 38.0757 70.1758C45.5536 75.245 55.1347 78.3727 64.2305 77.7256L73.8475 75.928Z" fill="url(#paint8_linear_1166_60407)"/>
<path d="M109.98 75.5716C109.854 75.8772 109.746 76.021 109.62 76.2907C109.782 75.6975 109.009 76.2727 108.991 76.2907C104.066 81.3239 88.8225 83.6248 82.477 81.5037C82.0995 81.3778 81.6861 81.3059 81.3086 81.1441C84.9936 81.9531 89.0741 81.989 92.9929 81.6834C98.835 81.216 109.495 79.005 110.519 72.1562C110.807 73.7381 110.537 74.1516 109.98 75.5716Z" fill="#FFC5D3"/>
<path d="M76.1884 78.0869C76.6019 78.8239 77.1951 82.8145 77.267 83.929C77.3029 84.684 77.3568 87.8837 76.5479 85.9962C76.512 82.2033 74.984 79.4171 73.8516 75.9298V75.75C74.5167 76.3971 75.739 77.3139 76.1884 78.0869Z" fill="#F691AF"/>
<path d="M109.623 76.2892C105.254 85.0973 92.1142 86.4814 83.9172 82.9402C83.7554 82.1313 82.2814 82.383 82.4792 81.5021C88.8246 83.6233 104.068 81.3224 108.993 76.2892C109.011 76.2712 109.784 75.696 109.623 76.2892Z" fill="#FD76A8"/>
<path d="M77.0827 78.8071C77.1186 83.2111 78.1253 86.2131 76.3636 90.4913L73.9369 92.8282C67.6634 95.6684 60.4731 96.0099 53.804 94.2662C50.7302 93.4573 45.7689 92.0013 44.9959 88.514C38.219 94.8774 29.1772 89.3409 23.6946 84.1998C23.5508 83.9302 22.5981 82.7438 23.0654 82.4022L24.4136 83.4808C24.4676 83.7324 24.4316 84.0201 24.5934 84.2897C24.9709 84.9548 31.2265 89.1252 32.2331 89.5925C36.5113 91.6058 42.5692 91.6777 45.3554 87.2557C44.942 91.0845 51.2155 92.954 54.1636 93.727C61.0842 95.5246 76.6153 96.0998 76.5434 85.9974C77.3523 87.8848 77.2984 84.6852 77.2624 83.9302C77.1905 82.8157 76.5973 78.825 76.1839 78.088C76.6692 78.0161 76.849 78.6093 77.0827 78.8071Z" fill="#EFBDCD"/>
<path d="M76.3644 90.4907C72.895 98.9394 59.8266 97.9687 52.3667 96.6025C51.5398 96.4587 48.6277 95.1644 48.412 95.1644C48.3042 95.1644 46.7223 96.0093 46.2549 96.0632C43.0013 96.4228 41.9228 93.5466 41.2217 93.3669C40.5746 93.2051 37.4468 93.6365 36.0087 93.3669C31.9102 92.6119 25.5648 87.9202 23.6953 84.1992C29.1779 89.3403 38.2197 94.8768 44.9966 88.5134C45.7696 92.0007 50.7309 93.4567 53.8048 94.2657C60.4738 96.0093 67.6641 95.6678 73.9376 92.8276L76.3644 90.4907Z" fill="#E77798"/>
</g>
<defs>
<linearGradient id="paint0_linear_1166_60407" x1="51.4567" y1="7.39273" x2="56.1904" y2="41.5802" gradientUnits="userSpaceOnUse">
<stop stop-color="#FF93AC"/>
<stop offset="1" stop-color="#F3517F"/>
</linearGradient>
<linearGradient id="paint1_linear_1166_60407" x1="108.574" y1="29.2819" x2="85.3864" y2="43.7358" gradientUnits="userSpaceOnUse">
<stop stop-color="#FA7DB3"/>
<stop offset="1" stop-color="#F4427A"/>
</linearGradient>
<linearGradient id="paint2_linear_1166_60407" x1="63.0174" y1="30.3542" x2="57.9376" y2="50.9484" gradientUnits="userSpaceOnUse">
<stop stop-color="#FFD3DD"/>
<stop offset="1" stop-color="#EC8DBF"/>
</linearGradient>
<linearGradient id="paint3_linear_1166_60407" x1="87.1731" y1="32.2728" x2="83.0981" y2="55.6483" gradientUnits="userSpaceOnUse">
<stop stop-color="#DCECFC"/>
<stop offset="1" stop-color="#F895C0"/>
</linearGradient>
<linearGradient id="paint4_linear_1166_60407" x1="99.6236" y1="34.2918" x2="88.8504" y2="45.1269" gradientUnits="userSpaceOnUse">
<stop stop-color="#F176B4"/>
<stop offset="1" stop-color="#F34682"/>
</linearGradient>
<linearGradient id="paint5_linear_1166_60407" x1="62.9902" y1="47.5164" x2="58.0675" y2="75.8532" gradientUnits="userSpaceOnUse">
<stop stop-color="#FFC7D7"/>
<stop offset="1" stop-color="#F06891"/>
</linearGradient>
<linearGradient id="paint6_linear_1166_60407" x1="95.2044" y1="63.8643" x2="104.09" y2="76.5148" gradientUnits="userSpaceOnUse">
<stop stop-color="#D84C6B"/>
<stop offset="1" stop-color="#EB78B4"/>
</linearGradient>
<linearGradient id="paint7_linear_1166_60407" x1="63.7608" y1="51.6832" x2="62.2196" y2="60.9028" gradientUnits="userSpaceOnUse">
<stop stop-color="#FFAEC3"/>
<stop offset="1" stop-color="#EE88BE"/>
</linearGradient>
<linearGradient id="paint8_linear_1166_60407" x1="54.9492" y1="71.9298" x2="47.6379" y2="92.7963" gradientUnits="userSpaceOnUse">
<stop stop-color="#B1406F"/>
<stop offset="1" stop-color="#EA398D"/>
</linearGradient>
<clipPath id="clip0_1166_60407">
<rect width="117.533" height="99.3239" fill="white" transform="translate(0.734375 0.632812)"/>
</clipPath>
</defs>
</svg>
