<svg width="121" height="105" viewBox="0 0 121 105" fill="none" xmlns="http://www.w3.org/2000/svg">
<g clip-path="url(#clip0_1147_54183)">
<path d="M60.1853 1.04899C55.4663 7.1068 47.5394 13.0371 45.3923 20.4914C44.8651 20.9528 45.2129 19.1659 45.2279 19.0909C46.8809 10.846 53.9479 5.66179 59.9387 0.554688L60.1853 1.04899Z" fill="#F1DEEE"/>
<path d="M61.0098 1.21375C65.2418 6.78451 70.6941 9.98181 74.3235 16.2899C75.0045 17.4736 75.4733 18.8013 76.1316 19.9971C76.4376 21.8633 77.4731 26.8556 75.6385 28.0707C75.4945 28.1661 75.2737 28.4213 75.1454 28.3179C73.8541 25.572 71.7303 22.8264 69.3103 20.9857C66.5477 18.8843 63.2551 18.2925 60.7633 15.878C60.0435 18.0781 57.602 18.3902 55.9966 19.5028C52.0308 22.2516 49.6925 24.5111 47.0386 28.565C46.2769 27.9564 45.6515 27.2134 44.9018 26.5878C44.4704 24.5429 44.8287 22.4574 45.3949 20.4914C47.5421 13.0371 55.469 7.1068 60.188 1.04899C60.3168 0.883562 60.4487 0.705119 60.5989 0.554688C60.844 0.706108 60.8556 1.01076 61.0098 1.21375ZM55.5035 13.4065C53.6186 16.1009 52.7624 19.0133 51.8874 22.1391C52.7599 22.481 52.8395 19.3577 53.1202 18.7614L55.5035 13.4065Z" fill="url(#paint0_linear_1147_54183)"/>
<path d="M76.1296 19.9971C75.4713 18.8013 75.0025 17.4736 74.3215 16.2899C70.6921 9.98181 65.2398 6.78451 61.0078 1.21375L61.09 0.554688C66.2153 4.91853 72.2614 9.01051 74.979 15.4661C75.6264 17.0042 75.8842 18.5007 76.1296 19.9971Z" fill="#F2DEEF"/>
<path d="M55.5028 13.4062L53.1195 18.7612C52.8387 19.3575 52.7592 22.4808 51.8867 22.1389C52.7616 19.0131 53.6178 16.1007 55.5028 13.4062Z" fill="#D070BC"/>
<path d="M75.6393 28.0697V28.2344C75.1068 29.1454 75.8029 30.7175 76.7899 30.8707C76.5515 31.5113 78.3249 35.007 78.5979 36.2256C78.8594 37.3927 79.0284 39.0565 79.091 40.2624C78.9919 41.8702 77.867 41.0843 76.6255 41.251C76.6628 35.0741 75.0951 31.6791 71.2014 27.0811C68.3409 23.7034 64.8706 21.1866 61.5038 18.3485C61.3931 18.101 61.4053 17.7133 61.0928 17.5246C60.9964 17.5118 60.7477 17.9594 60.6819 18.0189C60.1479 18.5023 59.736 19.2682 59.1204 19.8314C56.878 21.8834 54.0185 23.3742 52.1348 25.7629C47.606 28.5376 44.3693 37.2363 44.9027 42.4044C44.3963 40.5979 44.512 41.0922 42.6016 41.251C42.7648 37.3754 43.5774 34.433 45.3958 31.0355C45.7119 30.445 46.6019 29.2323 47.0395 28.564C49.6933 24.5101 52.0316 22.2506 55.9975 19.5018C57.6028 18.3891 60.0443 18.0771 60.7641 15.877C63.2559 18.2914 66.5485 18.8833 69.3112 20.9847C71.7312 22.8253 73.8549 25.571 75.1462 28.3168C75.2746 28.4203 75.4953 28.1651 75.6393 28.0697Z" fill="#FCEFDA"/>
<path d="M61.5023 18.3514C64.0393 24.0277 64.8306 22.7074 69.3097 25.7659C69.9654 26.2136 70.5612 27.3615 71.2 27.0841C75.0936 31.6821 76.6614 35.0771 76.6241 41.254C76.6175 42.3489 76.5874 43.6342 76.4597 44.7141L75.9666 45.4556C75.6818 40.0117 73.7524 34.5973 70.2138 30.4618C69.098 29.158 65.8654 25.8556 64.05 26.2602C62.4126 26.6254 61.3833 34.6632 60.927 34.6633L58.6259 27.0841C56.0882 28.0648 53.7758 28.7637 51.8047 30.7089C47.048 34.6189 46.0263 41.0993 45.8875 46.9385C45.0625 45.5744 45.3148 43.8827 44.9013 42.4074C44.3679 37.2393 47.6046 28.5406 52.1334 25.7659C54.5719 24.2718 57.9341 24.0418 59.8586 21.3996C60.2083 20.9197 61.7903 18.1735 60.6805 18.0219C60.7462 17.9624 60.9949 17.5148 61.0914 17.5276C61.4039 17.7163 61.3917 18.104 61.5023 18.3514Z" fill="#F5899E"/>
<path d="M52.1328 25.7636C54.0165 23.3748 56.8759 21.884 59.1184 19.832C59.734 19.2688 60.1459 18.503 60.6799 18.0195C61.7897 18.1711 60.2077 20.9173 59.8581 21.3972C57.9335 24.0394 54.5714 24.2695 52.1328 25.7636Z" fill="#F4B6AF"/>
<path d="M71.1976 27.0803C70.5589 27.3578 69.9631 26.2098 69.3074 25.7622C64.8283 22.7036 64.037 24.0239 61.5 18.3477C64.8669 21.1858 68.3372 23.7026 71.1976 27.0803Z" fill="#F19BAC"/>
<path d="M100.292 19.6671C98.4776 20.9687 95.6759 20.4326 93.471 20.8204C89.0187 21.6037 78.4482 26.4073 76.7878 30.8712C75.8008 30.7179 75.1047 29.1459 75.6372 28.2349C76.0751 27.4859 79.9228 24.235 80.8148 23.6214C86.5704 19.6631 93.1681 18.4511 100.046 19.3375L100.292 19.6671Z" fill="#FED79F"/>
<path d="M44.903 26.587C45.6527 27.2127 46.2781 27.9556 47.0397 28.5642C46.6022 29.2325 45.7122 30.4452 45.3961 31.0357C39.7297 23.57 31.5015 20.7975 22.3025 21.3145L22.1382 21.644C23.9168 24.6336 23.7115 28.0816 24.3571 31.3653C23.4876 32.1448 24.0783 30.9511 23.7818 30.7062C23.5742 30.5349 21.8454 31.3541 21.3985 31.2005C21.0862 28.4458 21.4779 25.6408 21.3985 22.8798C21.3898 22.5793 21.5632 22.0663 21.0698 22.1383C21.0856 21.7449 20.8929 20.4752 21.152 20.3259C30.4617 18.2101 37.7977 20.6581 44.903 26.587Z" fill="#FED8A4"/>
<path d="M100.292 19.9975C98.1788 22.9462 98.4317 26.9645 97.6618 30.3778C94.0754 46.2783 86.027 57.42 72.3493 65.9674C71.8383 64.4832 72.3487 62.3791 72.185 61.1068C72.1733 61.0155 71.4123 60.332 71.5275 59.5415C72.2547 58.8252 72.8493 58.0128 73.4999 57.2348C77.8768 51.9998 79.449 47.2165 79.0884 40.2638C79.0258 39.0579 78.8568 37.3941 78.5953 36.227C78.3223 35.0084 76.5489 31.5127 76.7872 30.8721C78.4477 26.4082 89.0181 21.6046 93.4705 20.8213C95.6753 20.4335 98.4771 20.9696 100.292 19.668C100.303 19.7733 100.269 19.9074 100.292 19.9975Z" fill="url(#paint1_linear_1147_54183)"/>
<path d="M100.13 33.5089L99.8008 32.026C99.9401 30.0554 98.9604 31.3597 97.6641 30.3783C98.434 26.965 98.181 22.9467 100.294 19.998C101.235 23.6761 100.617 29.7015 100.13 33.5089Z" fill="#FEE1B2"/>
<path d="M45.3946 31.0393C43.5762 34.4368 42.7636 37.3792 42.6004 41.2549C42.2748 48.9892 45.0089 53.9851 50.3256 59.2144C48.9553 60.8214 50.8542 63.4875 50.1613 65.4756C35.6316 56.4638 27.8238 49.008 24.3557 31.3689C23.71 28.0852 23.9153 24.6372 22.1367 21.6476L22.3011 21.3181C31.5 20.8011 39.7283 23.5736 45.3946 31.0393Z" fill="url(#paint2_linear_1147_54183)"/>
<path d="M21.3986 31.2018C21.8562 35.2379 24.6859 41.675 26.6583 45.2894C30.8462 52.9632 37.4758 59.5728 44.7387 64.3199C40.614 62.1493 36.7087 60.281 33.0686 57.2349C32.2159 56.5213 31.0365 55.409 30.2744 54.5987C28.4997 52.7121 26.3225 49.6745 25.179 47.3489C21.3072 39.4749 20.7228 30.7782 21.0698 22.1397C21.5633 22.0677 21.3898 22.5806 21.3986 22.8811C21.4779 25.6421 21.0863 28.4471 21.3986 31.2018Z" fill="#FDD6B6"/>
<path d="M76.4597 44.7126C76.1919 46.9765 75.5265 49.4453 74.4872 51.468H74.3229C74.6161 48.1345 70.6039 50.2483 69.5562 51.7152C69.8031 50.8157 70.4798 49.503 70.2137 48.5846C70.168 48.4269 69.4093 47.8839 69.3919 47.7608C69.3056 47.1515 70.2318 45.6279 69.3919 44.3007C67.8112 41.803 65.0661 45.7635 64.2965 47.0193C64.0564 47.4111 63.8307 48.0605 63.4747 48.2551C63.1029 47.3909 64.1164 46.3893 64.1321 46.2779C64.9826 40.258 61.9073 41.5286 60.927 46.0307C59.7935 39.1451 56.5371 41.8954 58.1327 47.3489C54.279 40.2547 49.9603 45.024 51.969 51.0561C50.072 49.4028 48.2868 48.4599 47.5311 51.6328C46.202 49.0137 46.0771 47.4594 46.2161 44.4654C46.4456 39.5252 48.2479 34.2173 51.8046 30.7074C53.7757 28.7622 56.0882 28.0633 58.6258 27.0826L60.927 34.6618C61.3833 34.6617 62.4125 26.6239 64.0499 26.2587C65.8654 25.8541 69.098 29.1565 70.2137 30.4603C73.7524 34.5958 75.6817 40.0102 75.9665 45.454L76.4597 44.7126Z" fill="#FCAF81"/>
<path d="M99.8005 32.0266C99.7391 32.8946 99.2326 34.8281 98.9786 35.7338C95.8629 46.849 87.4101 56.5511 78.9259 63.9913C77.6712 64.6599 76.4244 65.3449 75.1454 65.9685C72.4518 67.282 69.4565 67.9902 67.0914 69.9229C67.0811 69.9033 66.7905 69.8418 66.9271 69.511C67.2315 68.7736 71.4294 66.5445 72.3512 65.9685C86.0288 57.4211 94.0772 46.2794 97.6637 30.3789C98.96 31.3603 99.9397 30.056 99.8005 32.0266Z" fill="#FDF2D5"/>
<path d="M24.357 31.3683C27.8252 49.0074 35.6329 56.4633 50.1627 65.475C51.915 66.5618 53.8252 67.6774 55.1758 69.2646L47.204 65.8045C46.3998 65.4004 45.5545 64.751 44.7385 64.3216C37.4757 59.5746 30.8461 52.9649 26.6582 45.2911C24.6858 41.6768 21.856 35.2397 21.3984 31.2035C21.8454 31.3571 23.5742 30.5379 23.7818 30.7092C24.0783 30.9541 23.4875 32.1478 24.357 31.3683Z" fill="#FEF2D2"/>
<path d="M51.8048 30.707C48.2481 34.2169 46.4458 39.5248 46.2164 44.465C46.0773 47.459 46.2022 49.0133 47.5313 51.6324C47.5799 51.7284 47.7583 51.3648 47.86 51.55C47.9568 51.726 47.6353 51.8608 47.6957 51.9619C48.8199 53.8455 49.6087 54.1777 50.8186 55.6692C52.7317 58.0276 54.9252 61.4424 57.2289 63.3308C57.2858 63.6495 56.9512 63.7793 57.3933 64.1547C55.1951 63.1298 51.8601 59.5796 50.1612 57.7288C49.3867 56.885 48.5984 56.0539 47.86 55.1749C48.0845 54.5919 49.4776 55.8954 49.8324 56.2459C51.2438 57.6401 52.268 60.0324 54.2703 60.9417C53.0711 59.0538 51.7455 57.3351 50.1612 55.7516C49.3702 54.961 48.2075 53.0996 47.2026 54.5158C47.0476 55.2055 49.3143 57.4704 49.8324 58.0583C50.8137 59.1718 51.9174 60.1629 52.791 61.3536C51.9873 60.6273 51.1027 59.976 50.3255 59.2117C45.0087 53.9823 42.2747 48.9864 42.6003 41.2521C44.5107 41.0933 44.395 40.599 44.9014 42.4055C45.315 43.8808 45.0627 45.5724 45.8876 46.9365C46.0265 41.0974 47.0482 34.6169 51.8048 30.707Z" fill="#FDF2B1"/>
<path d="M100.129 33.5083C99.4636 38.7083 98.074 43.506 95.6912 48.1725C94.5293 50.4481 92.9458 52.4546 91.582 54.5984C88.9055 56.6008 87.1279 59.0596 83.8568 61.1891C82.2715 62.2212 80.5931 63.1015 78.9258 63.9901C87.4101 56.5499 95.8628 46.8478 98.9785 35.7326C99.2325 34.8269 99.7391 32.8934 99.8004 32.0254L100.129 33.5083Z" fill="#FCD3B4"/>
<path d="M73.5009 57.2346H73.3365C74.815 55.8934 76.6872 52.8187 73.0078 54.0217C73.2212 53.5827 73.4399 53.4419 73.6653 52.9507C74.4475 52.4567 74.2176 51.9923 74.4871 51.4678C75.5264 49.4451 76.1918 46.9763 76.4595 44.7124C76.5872 43.6325 76.6173 42.3471 76.6239 41.2523C77.8653 41.0855 78.9903 41.8715 79.0894 40.2637C79.45 47.2163 77.8778 51.9997 73.5009 57.2346Z" fill="#FEF3B1"/>
<path d="M64.2967 47.0183C64.7447 47.484 64.1616 49.2199 63.3105 49.1602C63.1867 48.8178 62.9824 47.8825 62.4886 47.9245L62.8174 50.3136C62.7865 50.1651 62.5434 49.2914 62.4065 49.325C61.5547 50.4479 62.7432 51.6279 62.4886 52.3732C62.2452 53.0855 62.1374 51.997 62.0777 51.9613C61.8922 51.8499 61.2235 53.8488 61.6668 54.1856C61.2845 54.1568 60.7674 52.8905 60.6806 52.6203C60.4737 51.9762 60.0828 47.8978 59.4479 50.6431C58.996 49.8705 58.9469 49.354 59.7766 48.8307C60.2284 48.8577 61.2491 51.5699 61.4203 52.126C61.4053 50.383 62.2904 49.1355 62.3243 47.5949C61.4579 48.2687 61.5194 49.5303 61.2559 50.4784C60.9783 49.0586 60.3793 48.3484 59.6122 47.183L58.5438 49.4898V47.7597L58.1329 48.1716C58.0746 47.6346 57.4214 47.3796 57.2289 47.183C56.7159 46.6589 56.3047 45.5431 55.3387 45.3706L55.914 46.112C55.3602 46.7424 55.6523 47.6337 55.5852 48.4188L56.1605 47.5126C56.1638 48.2596 55.803 48.7404 56.2427 49.4074L56.9823 48.6659C58.0897 49.9092 57.9278 51.7162 58.2151 53.2794C58.4367 54.485 58.4674 55.7819 58.7082 56.9866C58.9469 58.1807 60.2667 60.3377 59.3657 61.1882C58.7097 59.6387 58.5065 58.1875 58.2151 56.5747C57.9232 54.9595 57.9007 53.3107 57.5576 51.7141L57.2289 52.0436C57.1903 51.5022 57.6901 50.0333 56.9002 49.9017C55.9141 49.7372 57.6873 53.3249 56.9823 53.4441C56.2036 52.5564 55.9348 48.5639 54.6812 48.5012C54.457 48.4899 54.9253 49.117 54.1881 48.8307C53.5785 48.5939 53.4177 47.0421 52.7088 46.6887C52.3135 46.8738 52.5477 47.3611 52.4623 47.5126C52.1002 48.1543 51.6682 48.2935 51.9692 49.325C52.4351 50.9222 52.316 49.1154 52.8732 49.1602C52.9981 49.1703 54.6086 50.2508 54.7634 50.4784C54.984 50.8024 56.1184 53.894 56.4071 54.5975C57.2412 56.6302 57.7813 58.5745 58.7082 60.6939H58.5438C58.3269 60.1272 57.7256 59.1016 57.3933 58.5519C57.2585 58.329 57.2136 58.0558 56.9823 57.8928V58.7167C56.2279 57.9204 53.1973 51.3007 52.7088 51.3022C51.6708 51.3055 53.2446 53.7004 53.4485 54.1032L53.2841 54.268C52.7001 53.3876 52.1322 52.5659 51.3117 51.8789L50.983 52.0436L53.7772 57.7281H53.6128C52.7402 56.3554 52.3894 55.6926 51.6404 54.268C51.0078 53.0647 51.1828 52.2336 49.8324 51.3022C50.4834 50.2531 49.8554 50.7583 49.3393 50.9727C49.237 51.0152 49.1611 50.8628 49.0927 50.8079C48.3304 51.6199 50.8243 53.8701 51.3117 54.5975C51.4761 54.8429 51.6378 55.0938 51.8048 55.339C51.8663 55.6832 51.5316 55.4874 51.3939 55.4213C50.1595 54.8302 48.752 52.8635 47.6956 51.9613C47.6353 51.8601 47.9568 51.7253 47.86 51.5493C47.7582 51.3641 47.5799 51.7278 47.5312 51.6317C48.287 48.4588 50.0722 49.4018 51.9692 51.055C49.9604 45.0229 54.2792 40.2536 58.1329 47.3478C56.5372 41.8943 59.7937 39.1441 60.9272 46.0297C61.9074 41.5276 64.9827 40.2569 64.1323 46.2768C64.1165 46.3882 63.103 47.3898 63.4748 48.254C63.8309 48.0594 64.0565 47.4101 64.2967 47.0183ZM59.1191 43.7229C59.0443 44.4561 58.2669 47.9261 59.6944 46.4416C59.5678 45.5139 58.8025 45.8644 59.2835 44.8763L61.0915 48.5012L61.1737 46.2768C60.1836 47.0018 60.1242 44.1953 59.1191 43.7229ZM63.0639 44.0525C62.712 44.1979 61.7049 47.2415 62.5708 47.5126C63.1057 47.4191 62.5286 44.073 63.4748 44.9587C63.6123 44.7898 63.1946 43.9984 63.0639 44.0525ZM53.5306 45.0411C53.4682 45.0569 52.9618 45.3892 52.9554 45.453L55.1743 48.3364C55.4232 48.1448 55.1506 44.6291 53.5306 45.0411ZM53.5306 50.6431C53.2049 50.8445 56.1321 57.0712 56.6536 57.5633C56.7795 57.3264 56.7651 56.9207 56.7358 56.6571C56.6599 55.9715 54.4245 50.0905 53.5306 50.6431Z" fill="#FDF096"/>
<path d="M74.3236 51.4676C74.2953 51.7881 73.8364 52.5791 73.6661 52.9505C73.2534 53.2111 72.6712 53.0591 72.5978 53.1153C72.0927 53.501 72.0946 54.0284 71.365 54.4334L73.5018 50.8909C72.0195 50.2419 70.033 53.9895 70.7075 54.7629C70.9238 55.0111 70.9942 54.8672 71.2006 55.0101C69.9388 54.845 70.1212 55.8644 70.0501 55.9163C69.6689 56.1944 69.3507 56.1743 69.2282 56.2458C69.4347 55.8863 70.7217 53.2092 70.7075 53.0329C70.5501 51.0789 66.6349 55.7616 66.2696 56.2458C64.8911 58.0734 64.144 60.1556 62.9823 62.095C63.4951 60.6879 64.1006 58.9519 64.7903 57.6463C65.006 57.238 65.9734 56.5134 66.2696 55.7515C66.9358 54.3497 67.7762 52.9638 68.4064 51.55C68.5104 51.3163 67.9661 51.1156 68.0777 50.8909C68.1114 50.8232 69.269 50.5235 69.1461 49.8199C70.377 49.3373 67.2641 54.277 67.2558 54.351C67.698 54.3932 69.3241 52.7112 69.3926 52.5386C69.6431 51.9078 69.0824 52.2436 69.2282 51.7147C69.3638 51.2231 70.3929 49.0875 69.3104 48.9961C68.2874 48.9096 66.6335 53.544 66.2696 54.4334C65.9644 55.1794 65.7414 56.3111 65.1191 56.8225L66.2696 53.1153C66.5116 52.7885 68.5387 49.4821 67.1737 49.8199C66.1023 50.085 65.8074 52.8927 65.6122 53.6096C65.3567 54.5471 65.1687 55.5423 64.7081 56.4106C64.6013 55.4848 65.1008 54.6408 65.2834 53.7743C65.3995 53.2238 66.4008 48.7649 65.6943 48.6666C64.5058 50.0158 63.6919 51.6973 62.8179 53.28C62.6499 53.5842 62.4042 54.5721 61.9961 54.5158C62.1437 53.7463 62.6914 53.2317 62.8179 52.4562C63.8347 51.1389 63.9029 50.7975 63.311 49.1609C64.1621 49.2205 64.7453 47.4847 64.2972 47.0189C65.0668 45.763 67.8119 41.8025 69.3926 44.3002C70.2325 45.6274 69.3063 47.151 69.3926 47.7603C69.41 47.8834 70.1687 48.4265 70.2144 48.5842C70.4806 49.5026 69.8039 50.8153 69.557 51.7147C70.6046 50.2478 74.6168 48.134 74.3236 51.4676ZM67.4202 45.536C66.933 45.8467 66.5837 46.213 66.2696 46.6894C65.9207 47.2184 66.0108 47.8056 65.9409 47.9251C65.7254 48.2937 65.6459 47.5132 65.1191 47.9251C64.8503 48.1352 64.4249 49.3502 64.2972 49.7375C66.0108 47.251 66.8257 49.3082 67.0093 49.3256C67.4859 49.3709 69.0267 45.7413 68.4886 45.0417C67.9087 44.8675 67.7074 45.3528 67.4202 45.536ZM68.9817 48.0075L67.8311 49.3256C68.2867 49.5304 69.2465 48.1156 68.9817 48.0075Z" fill="#FDF195"/>
<path d="M59.1219 43.7227C60.127 44.195 60.1864 47.0015 61.1765 46.2765L61.0943 48.5009L59.2863 44.876C58.8054 45.8641 59.5706 45.5137 59.6972 46.4413C58.2697 47.9259 59.0471 44.4559 59.1219 43.7227Z" fill="#FEBF51"/>
<path d="M63.0621 44.0534C63.1928 43.9994 63.6105 44.7908 63.4731 44.9596C62.5268 44.074 63.1039 47.4201 62.569 47.5135C61.7031 47.2425 62.7102 44.1989 63.0621 44.0534Z" fill="#FEA559"/>
<path d="M53.5284 45.0413C55.1484 44.6294 55.4209 48.1451 55.1721 48.3367L52.9531 45.4533C52.9595 45.3895 53.4659 45.0572 53.5284 45.0413Z" fill="#FFC054"/>
<path d="M66.2693 46.6887L66.7624 48.0892L67.4198 45.5353C67.707 45.3521 67.9083 44.8669 68.4882 45.041C69.0264 45.7406 67.4856 49.3703 67.0089 49.325C66.8253 49.3075 66.0104 47.2504 64.2969 49.7369C64.4246 49.3495 64.85 48.1345 65.1187 47.9244C65.6455 47.5125 65.7251 48.293 65.9405 47.9244C66.0104 47.805 65.9203 47.2178 66.2693 46.6887Z" fill="#FEBA5B"/>
<path d="M57.2262 47.1835L56.4043 47.2659C58.157 48.8727 58.1453 50.825 58.7055 52.9504L58.2124 53.2799C57.925 51.7168 58.0869 49.9098 56.9796 48.6664L56.24 49.4079C55.8003 48.7409 56.1611 48.2601 56.1578 47.5131L55.5825 48.4193C55.6495 47.6342 55.3575 46.7429 55.9112 46.1125L55.3359 45.3711C56.3019 45.5436 56.7132 46.6594 57.2262 47.1835Z" fill="#FECB51"/>
<path d="M66.2695 46.6885C66.5836 46.2122 66.9329 45.8459 67.4201 45.5352L66.7626 48.089L66.2695 46.6885Z" fill="#FDE36B"/>
<path d="M25.1782 47.3496C26.3217 49.6751 28.4989 52.7128 30.2735 54.5993C26.1494 53.1128 21.985 51.0527 17.5351 50.6449C13.8584 50.308 4.90894 51.1669 2.08462 53.7755C1.87061 53.9732 1.85023 54.1563 1.6737 54.3522C2.16105 54.4912 2.45264 54.8119 2.82427 55.0936V55.2584C2.16614 54.8959 1.39033 54.817 0.6875 54.5993C4.2015 47.446 18.1798 45.1014 25.1782 47.3496Z" fill="#D15EB5"/>
<path d="M58.2147 56.5755C57.0727 57.1192 57.3542 54.7025 57.2285 54.1863L56.4067 54.5983C56.118 53.8947 54.9836 50.8032 54.763 50.4791C55.0983 50.891 55.4313 51.4711 55.9136 51.7148C55.4726 50.4542 54.6811 49.1171 53.3659 48.6667C53.5889 49.2358 54.3465 49.5341 54.763 50.0672C54.8121 50.1301 54.7201 50.4264 54.763 50.4791C54.6082 50.2515 52.9977 49.171 52.8728 49.161C52.3156 49.1161 52.4347 50.923 51.9688 49.3257L53.1193 48.9138L52.4619 47.5133C52.5473 47.3619 52.3131 46.8745 52.7084 46.6895C53.4173 47.0429 53.5781 48.5946 54.1877 48.8314C54.9249 49.1178 54.4566 48.4907 54.6808 48.5019C55.9344 48.5647 56.2032 52.5571 56.9819 53.4449C57.6869 53.3256 55.9137 49.738 56.8998 49.9024C57.6897 50.0341 57.1899 51.5029 57.2285 52.0444L57.5572 51.7148C57.9003 53.3114 57.9228 54.9602 58.2147 56.5755Z" fill="#FDBD4F"/>
<path d="M57.2281 47.1816L57.3925 47.5936L57.0637 47.7583C57.5455 48.121 58.2373 48.9942 58.543 49.4884C59.2016 50.5531 60.4507 51.9287 59.858 52.9485C59.4548 52.0553 59.0976 50.9426 58.3787 50.2298L59.858 57.8915C59.3106 56.2618 59.1413 54.5945 58.7074 52.9485C58.1472 50.8231 58.1589 48.8708 56.4062 47.264L57.2281 47.1816Z" fill="#FBEC9C"/>
<path d="M120.675 55.2569C118.135 53.2334 115.148 51.9166 112.21 50.6434C111.395 50.5861 110.372 50.5634 109.58 50.4787C109.539 50.4742 109.311 50.0125 108.923 49.9844C108.723 49.9699 108.145 50.3156 108.101 50.3139C107.412 50.2885 106.166 49.9575 105.8 49.9844C105.532 50.004 105.341 50.475 105.307 50.4787C104.67 50.5456 104.578 50.1126 104.32 50.1491C104.036 50.1895 103.862 50.637 103.827 50.6434C103.151 50.771 101.996 50.6383 101.115 51.1377C98.6932 51.5437 93.5099 53.1556 91.582 54.5978C92.9458 52.4541 94.5293 50.4475 95.6912 48.1719C103.923 45.3905 115.729 47.735 120.675 55.2569Z" fill="#A33AA3"/>
<path d="M58.5457 49.4884C58.24 48.9942 57.5482 48.121 57.0664 47.7583L57.3951 47.5936L57.2308 47.1816C57.4232 47.3782 58.0764 47.6333 58.1348 48.1702L58.5457 47.7583V49.4884Z" fill="#FECB51"/>
<path d="M60.6836 52.6189C59.7453 52.8447 61.3362 54.5874 60.7658 54.9257C60.0977 54.6342 60.3095 53.3009 60.1905 53.0309C60.1241 52.8804 59.8718 52.9707 59.8618 52.9485C60.4545 51.9287 59.2055 50.5531 58.5469 49.4884L59.6153 47.1816C60.3824 48.347 60.9813 49.0572 61.2589 50.477C61.5224 49.5289 61.4609 48.2673 62.3273 47.5936C62.2935 49.1341 61.4083 50.3816 61.4233 52.1246C61.2522 51.5686 60.2315 48.8563 59.7796 48.8293C58.9499 49.3526 58.999 49.8691 59.4509 50.6417C60.0858 47.8964 60.4767 51.9749 60.6836 52.6189Z" fill="#FECB51"/>
<path d="M52.4615 47.5137L53.1189 48.9142L51.9684 49.3261C51.6674 48.2947 52.0994 48.1554 52.4615 47.5137Z" fill="#FDEB73"/>
<path d="M63.3101 49.1609C63.902 50.7976 63.8338 51.139 62.817 52.4563C62.9003 51.9453 62.9265 50.8412 62.817 50.3143L62.4883 47.9252C62.982 47.8832 63.1863 48.8186 63.3101 49.1609Z" fill="#FDD750"/>
<path d="M68.9787 48.0078C69.2435 48.1159 68.2838 49.5308 67.8281 49.3259L68.9787 48.0078Z" fill="#FDD044"/>
<path d="M54.7643 50.4784C54.7214 50.4257 54.8135 50.1295 54.7643 50.0665C54.3478 49.5335 53.5902 49.2351 53.3672 48.666C54.6825 49.1165 55.4739 50.4536 55.9149 51.7142C55.4326 51.4705 55.0996 50.8904 54.7643 50.4784Z" fill="#FCF7C8"/>
<path d="M65.2858 53.7738H64.6283C64.752 53.219 65.916 50.1761 64.7927 50.7256C64.7401 51.6092 64.4794 52.4359 64.2996 53.2795C63.4954 52.6736 63.1484 53.8041 62.9847 54.4328H62.8203C62.8584 54.1501 63.068 53.4477 62.8203 53.2795C63.6943 51.6967 64.5082 50.0153 65.6967 48.666C66.4032 48.7644 65.4019 53.2233 65.2858 53.7738Z" fill="#FED350"/>
<path d="M66.2695 55.7508C66.2934 55.6893 66.4964 54.4962 66.2695 54.4326C66.6334 53.5432 68.2873 48.9088 69.3103 48.9953C70.3928 49.0868 69.3637 51.2223 69.2281 51.714C69.0823 52.2429 69.643 51.9071 69.3925 52.5378C69.324 52.7105 67.6979 54.3924 67.2557 54.3503C67.264 54.2763 70.3769 49.3366 69.146 49.8192C69.2689 50.5227 68.1113 50.8224 68.0776 50.8902C67.966 51.1149 68.5103 51.3156 68.4063 51.5492C67.7761 52.9631 66.9357 54.3489 66.2695 55.7508Z" fill="#FED34D"/>
<path d="M62.8207 50.3157C62.9302 50.8426 62.9041 51.9467 62.8207 52.4577C62.6942 53.2332 62.1465 53.7478 61.9989 54.5173C62.407 54.5736 62.6527 53.5857 62.8207 53.2815C63.0684 53.4497 62.8589 54.1521 62.8207 54.4349C62.5696 56.2938 62.1633 58.5114 62.1633 60.3665L61.6702 57.5654C61.7528 56.8385 62.2829 54.9686 61.8345 54.8468C61.9188 55.6835 60.9187 57.1443 61.6702 57.895C61.6642 57.9492 61.6754 58.0054 61.6702 58.0597C61.1258 58.0215 61.3508 59.336 61.3414 59.8722L60.5196 59.9546C61.071 58.9543 60.1335 58.703 59.8621 57.895L58.3828 50.2333C59.1018 50.9461 59.4589 52.0588 59.8621 52.952C59.8721 52.9742 60.1244 52.8839 60.1908 53.0344C60.3099 53.3044 60.098 54.6377 60.7661 54.9292C61.3365 54.5909 59.7456 52.8482 60.6839 52.6224C60.7707 52.8927 61.2878 54.1589 61.6702 54.1877C61.2269 53.8509 61.8955 51.852 62.0811 51.9634C62.1407 51.9991 62.2486 53.0876 62.492 52.3753C62.7466 51.6301 61.5581 50.45 62.4098 49.3271C62.5467 49.2935 62.7898 50.1673 62.8207 50.3157Z" fill="#FC8748"/>
<path d="M66.2668 53.1144C66.1077 53.3293 65.9573 53.6588 65.6094 53.6087C65.8046 52.8918 66.0995 50.0842 67.1709 49.8191C68.5359 49.4813 66.5088 52.7877 66.2668 53.1144Z" fill="#FED34D"/>
<path d="M120.677 55.2585C116.287 60.7284 113.024 67.1388 107.446 71.5704L101.446 75.36C100.535 75.4063 97.5465 76.7056 96.1864 77.0077C96.1341 77.0192 96.0743 76.9963 96.022 77.0077C93.9715 77.4509 92.0547 77.7941 89.9404 77.8315C86.5895 77.8908 83.0852 77.3588 79.9141 76.3486C80.7246 75.949 82.5661 77.075 83.3658 76.431C84.5374 75.4873 84.1985 73.8481 83.037 73.0533C92.043 73.8777 99.9844 71.2843 107.117 65.9683C111.542 62.67 114.874 58.1231 119.691 55.3408C117.503 53.7642 114.836 51.8137 112.212 51.1393C109.286 50.3875 104.358 50.5961 101.117 51.1393C101.998 50.6399 103.153 50.7725 103.829 50.645C103.864 50.6386 104.038 50.1911 104.323 50.1507C104.58 50.1141 104.672 50.5471 105.309 50.4802C105.343 50.4766 105.534 50.0055 105.802 49.9859C106.169 49.9591 107.414 50.2901 108.103 50.3155C108.147 50.3171 108.725 49.9714 108.925 49.9859C109.313 50.0141 109.541 50.4758 109.582 50.4802C110.374 50.5649 111.397 50.5877 112.212 50.645C115.15 51.9181 118.137 53.235 120.677 55.2585Z" fill="url(#paint3_linear_1147_54183)"/>
<path d="M64.6268 53.7744C64.3655 54.947 64.1459 56.2225 63.6406 57.3169C63.8885 55.9978 64.0203 54.5839 64.2981 53.2801C64.4779 52.4365 64.7386 51.6099 64.7912 50.7262C65.9145 50.1767 64.7504 53.2196 64.6268 53.7744Z" fill="#FBF0BD"/>
<path d="M30.2717 54.5983C31.0339 55.4087 32.2132 56.521 33.066 57.2346C32.9037 58.1262 32.5505 58.3293 32.9016 59.2942C33.0471 59.6939 36.6357 63.3998 37.1751 63.8253C36.7317 64.5264 38.4376 65.2204 38.901 65.6377C39.3119 66.0079 41.3086 68.0248 41.4487 68.3564C41.7046 68.9625 41.3234 69.0049 41.4487 69.7569C41.5874 70.5893 41.5133 71.307 41.7774 72.2284C41.0185 72.4284 40.245 72.4571 39.4763 72.5579C26.8001 74.2214 18.1554 69.1334 9.23275 61.0242C6.90647 58.9101 5.46267 57.0939 2.82244 55.0926C2.45081 54.8109 2.15922 54.4903 1.67188 54.3512C1.84841 54.1553 1.86879 53.9722 2.08279 53.7745C4.90711 51.1659 13.8566 50.307 17.5333 50.6439C21.9832 51.0517 26.1476 53.1118 30.2717 54.5983ZM19.177 57.8937L23.7792 58.7175L28.2993 59.2942C25.367 58.3267 22.2763 57.8652 19.177 57.8937ZM25.0942 61.3538C24.7547 61.3899 23.7947 61.5052 23.6149 61.8481L31.4223 62.26C31.6345 61.8825 30.9103 61.7514 30.6826 61.6833C29.4269 61.3081 26.4175 61.2127 25.0942 61.3538Z" fill="url(#paint4_linear_1147_54183)"/>
<path d="M49.8329 51.3029C49.6778 51.1958 49.4039 51.1885 49.3398 50.9733C49.856 50.759 50.484 50.2538 49.8329 51.3029Z" fill="#FEE867"/>
<path d="M53.533 50.644C54.4269 50.0914 56.6623 55.9724 56.7382 56.658C56.7675 56.9216 56.7819 57.3273 56.656 57.5642C56.1345 57.072 53.2073 50.8453 53.533 50.644Z" fill="#FFCD57"/>
<path d="M71.3633 54.434C71.1344 54.5611 71.0057 54.8064 70.7059 54.7636C70.0313 53.9901 72.0178 50.2425 73.5001 50.8915L71.3633 54.434Z" fill="#FEBA52"/>
<path d="M83.036 73.0512C82.7494 73.025 82.0865 72.7823 81.7211 72.7216C80.9543 71.8037 79.9548 69.5499 80.2418 68.3553C80.5929 66.8942 87.2767 63.898 83.8578 61.188C87.1289 59.0585 88.9065 56.5997 91.5831 54.5973C93.5109 53.1551 98.6943 51.5432 101.116 51.1372C104.357 50.594 109.285 50.3854 112.211 51.1372C114.835 51.8116 117.502 53.7621 119.69 55.3387C114.873 58.121 111.541 62.6679 107.116 65.9662C99.9834 71.2822 92.042 73.8756 83.036 73.0512ZM96.021 57.0688C94.2269 57.3962 91.9057 57.875 90.5147 59.046C93.0006 58.3016 95.9215 57.37 98.4865 57.0688C101.598 56.7033 104.836 56.8821 107.938 57.2336C107.8 56.3712 106.022 56.7882 105.308 56.7393C103.385 56.6074 100.483 56.3384 98.2399 56.4097C97.8558 56.4219 96.2463 56.6167 96.021 57.0688Z" fill="url(#paint5_linear_1147_54183)"/>
<path d="M49.3396 50.9734C49.4037 51.1885 49.6775 51.1958 49.8327 51.3029C51.1831 52.2343 51.008 53.0654 51.6407 54.2687L51.312 54.5982C50.8246 53.8708 48.3307 51.6206 49.093 50.8086C49.1614 50.8635 49.2373 51.0159 49.3396 50.9734Z" fill="#FEC051"/>
<path d="M57.395 58.5525C57.2829 58.6253 57.0661 59.332 57.0663 59.3763C56.7203 59.6887 56.4017 59.0249 56.2444 58.7996C55.3396 57.5037 54.1639 55.514 53.4502 54.1038C53.2464 53.7009 51.6726 51.306 52.7105 51.3027C53.199 51.3013 56.2296 57.9209 56.9841 58.7172V57.8934C57.2153 58.0564 57.2602 58.3295 57.395 58.5525Z" fill="#FE9E5B"/>
<path d="M73.6641 52.9477C73.8343 52.5764 74.2933 51.7853 74.3215 51.4648H74.4859C74.2163 51.9893 74.4463 52.4538 73.6641 52.9477Z" fill="#FED35B"/>
<path d="M53.2855 54.268C54.7055 56.4085 57.431 60.7404 58.3809 63.0007C58.4859 63.2508 58.8549 63.3928 58.6274 63.6597L53.7786 57.7281L50.9844 52.0437L51.3131 51.8789C52.1336 52.566 52.7015 53.3877 53.2855 54.268Z" fill="#FE9767"/>
<path d="M51.3114 54.5992L51.6401 54.2696C52.3891 55.6942 52.7399 56.3571 53.6125 57.7297C54.5603 59.2207 56.9783 61.9308 57.2286 63.3318C54.9248 61.4434 52.7314 58.0286 50.8183 55.6701C49.6084 54.1787 48.8196 53.8465 47.6953 51.9629C48.7517 52.8652 50.1592 54.8318 51.3936 55.423C51.5313 55.4891 51.866 55.6848 51.8045 55.3406C51.6375 55.0954 51.4758 54.8445 51.3114 54.5992Z" fill="#FD8A62"/>
<path d="M69.2281 56.2459C69.1164 56.3112 68.6961 56.5237 68.5707 56.5755C68.3488 56.6669 67.996 56.7503 67.7488 56.7402C68.2391 55.9584 69.0457 54.8261 69.3925 54.0216C69.45 53.8883 69.86 53.2416 69.4747 53.2801C68.8318 54.4994 68.0033 55.5936 67.2557 56.7402L66.2695 56.2459C66.6348 55.7617 70.55 51.079 70.7074 53.033C70.7216 53.2093 69.4346 55.8864 69.2281 56.2459Z" fill="#FEC84D"/>
<path d="M58.7119 52.9492C59.1458 54.5952 59.3151 56.2625 59.8624 57.8922C60.1338 58.7002 61.0713 58.9515 60.5199 59.9518L61.3417 59.8694C61.3389 60.033 61.3432 60.2001 61.3417 60.3637C61.3386 60.6916 61.3417 61.0244 61.3417 61.3523V62.8352C60.9103 63.288 60.9821 63.1916 60.3555 63C60.335 62.6953 60.1977 62.4261 60.0268 62.1762C59.7975 61.8407 59.5833 61.6929 59.3693 61.1876C60.2704 60.337 58.9505 58.1801 58.7119 56.986C58.4711 55.7812 58.4403 54.4843 58.2188 53.2788L58.7119 52.9492Z" fill="#FC7F64"/>
<path d="M73.3381 57.2332C73.1527 57.4014 71.878 58.5411 71.8588 57.8098C71.8547 57.6508 73.4632 56.7899 73.8312 55.4207C73.8357 55.4042 74.0982 55.4805 74.16 55.3383L73.9134 55.0912C73.7737 55.1035 73.8546 55.4018 73.8312 55.4207C73.0664 56.0397 71.9758 57.292 71.2013 58.057L70.7082 57.2332C71.5873 56.3485 72.3904 55.2243 73.6669 54.844C72.4737 54.1738 71.5542 55.5654 70.8726 56.2446L70.0508 55.915C70.122 55.8631 69.9395 54.8437 71.2013 55.0088C70.9949 54.8659 70.9246 55.0098 70.7082 54.7617C71.0081 54.8045 71.1368 54.5592 71.3657 54.4321C72.0953 54.0271 72.0934 53.4997 72.5985 53.114C72.6719 53.0578 73.2541 53.2099 73.6669 52.9492C73.4415 53.4404 73.2227 53.5813 73.0094 54.0202C76.6887 52.8172 74.8166 55.892 73.3381 57.2332Z" fill="#FED35B"/>
<path d="M64.2972 53.2785C64.0194 54.5823 63.8876 55.9962 63.6398 57.3153C64.145 56.2209 64.3646 54.9455 64.626 53.7728H65.2834C65.1008 54.6393 64.6013 55.4833 64.7081 56.4091C65.1687 55.5408 65.3567 54.5456 65.6122 53.6081C65.9601 53.6581 66.1105 53.3286 66.2696 53.1138L65.1191 56.821C65.7414 56.3096 65.9644 55.178 66.2696 54.4319C66.4965 54.4955 66.2935 55.6886 66.2696 55.75C65.9734 56.5119 65.006 57.2365 64.7903 57.6448C64.1006 58.9505 63.4951 60.6864 62.9823 62.0935C64.144 60.1541 64.8911 58.0719 66.2696 56.2443L67.2558 56.7386C67.0515 57.052 66.8027 57.7439 66.5984 58.0568C65.6945 59.4403 64.2563 61.8037 63.311 62.9998C63.2729 63.048 63.1827 63.2868 63.1467 63.3293C62.8281 63.7066 62.1254 64.1019 61.6674 64.3179C61.5275 63.4394 62.7619 63.1419 62.407 62.1759L61.9961 62.5878C62.0505 62.0827 62.0829 61.5178 62.1605 61.0226C62.4589 59.119 62.5729 56.0041 62.9823 54.4319C63.146 53.8031 63.493 52.6727 64.2972 53.2785Z" fill="#FD8968"/>
<path d="M67.7482 56.7391C67.4565 57.2042 67.0561 57.6091 66.762 58.0572H66.5977C66.802 57.7443 67.0508 57.0525 67.2551 56.7391C68.0027 55.5925 68.8312 54.4983 69.4741 53.279C69.8594 53.2404 69.4494 53.8872 69.3919 54.0204C69.0451 54.825 68.2385 55.9573 67.7482 56.7391Z" fill="#FAF0C1"/>
<path d="M50.1615 55.7521L49.8328 56.2464C49.4779 55.896 48.0849 54.5925 47.8604 55.1754C48.5987 56.0545 49.387 56.8855 50.1615 57.7293L49.8328 58.0588C49.3147 57.471 47.0479 55.2061 47.2029 54.5164C48.2078 53.1002 49.3706 54.9616 50.1615 55.7521Z" fill="#FEC050"/>
<path d="M57.0656 59.376C57.0704 60.3991 58.1433 61.963 58.8736 62.6714C58.8621 62.7233 58.8823 62.7828 58.8736 62.8361V63.0009C58.7574 62.9605 58.5331 63.025 58.3805 63.0009C57.4307 60.7406 54.7051 56.4088 53.2852 54.2683L53.4495 54.1035C54.1632 55.5138 55.3389 57.5035 56.2438 58.7994C56.4011 59.0246 56.7196 59.6884 57.0656 59.376Z" fill="#F8E5B3"/>
<path d="M58.2143 56.5766C58.5057 58.1894 58.7089 59.6406 59.3649 61.1901C59.5789 61.6954 59.793 61.8432 60.0223 62.1787C59.6872 62.9582 60.0751 62.9182 60.3511 63.0025C60.9776 63.1941 60.9058 63.2905 61.3373 62.8377C61.6477 62.5118 61.6361 62.0317 61.3373 61.3548C61.3373 61.027 61.3341 60.6941 61.3373 60.3662C61.5144 59.6497 61.596 58.7937 61.666 58.0595C61.6713 58.0051 61.6601 57.949 61.666 57.8947C61.6777 57.788 61.6538 57.6718 61.666 57.5652L62.1591 60.3662V61.0253C62.0815 61.5206 62.0491 62.0854 61.9947 62.5906L62.4056 62.1787C62.7605 63.1447 61.5261 63.4421 61.666 64.3206C61.6369 64.3343 61.3627 64.8227 61.2551 64.8149C60.9081 64.7901 60.2176 63.7303 60.4332 63.332C59.8726 64.7892 59.0128 61.3941 58.7074 60.6958C57.7805 58.5764 57.2404 56.6321 56.4062 54.5994L57.2281 54.1875C57.3538 54.7037 57.0723 57.1203 58.2143 56.5766Z" fill="#FA5B3A"/>
<path d="M62.1602 61.0243V60.3652C62.1602 58.5101 62.5665 56.2925 62.8176 54.4336H62.982C62.5726 56.0058 62.4586 59.1207 62.1602 61.0243Z" fill="#FAC28F"/>
<path d="M2.82488 55.2567C4.90412 56.4022 7.00687 59.7908 9.23519 61.0236C18.1578 69.1327 26.8026 74.2207 39.4787 72.5572C37.7558 73.5234 37.6194 75.7743 39.4787 76.6764C34.968 77.2775 30.4584 77.1094 26.0006 76.3468C24.7807 76.1381 21.8574 75.0015 21.0696 75.0287C11.4726 71.3531 6.03431 63.3115 0.523742 55.1743L0.359375 54.8448C0.409343 54.7072 0.679069 54.6161 0.688109 54.5977C1.39094 54.8153 2.16675 54.8942 2.82488 55.2567Z" fill="url(#paint6_linear_1147_54183)"/>
<path d="M70.7084 57.2349C69.0624 58.8912 67.7873 60.7267 66.2705 62.3427C65.5841 63.0739 64.5936 64.0734 63.6406 64.3199C64.1023 64.0589 65.1666 63.0451 65.2843 62.5075C65.7404 62.1461 67.1714 60.5609 67.4211 60.036C68.84 59.1131 69.7411 57.3738 70.8728 56.2463C71.5544 55.5672 72.4739 54.1756 73.667 54.8458C72.3905 55.2261 71.5874 56.3503 70.7084 57.2349Z" fill="#F9E7A7"/>
<path d="M61.6683 57.5624C61.6561 57.669 61.6799 57.7852 61.6683 57.8919C60.9168 57.1413 61.917 55.6804 61.8326 54.8438C62.281 54.9655 61.751 56.8354 61.6683 57.5624Z" fill="#FAD088"/>
<path d="M9.23453 61.0253C7.00621 59.7926 4.90346 56.404 2.82422 55.2585V55.0938C5.46444 57.095 6.90824 58.9112 9.23453 61.0253Z" fill="#D15EB5"/>
<path d="M73.8307 55.4233C73.8541 55.4043 73.773 55.1061 73.9131 55.0938L74.1602 55.3409C74.0983 55.4831 73.8351 55.4068 73.8307 55.4233Z" fill="#FBCFB5"/>
<path d="M73.3364 57.2343H73.5008C72.8502 58.0123 72.2555 58.8248 71.5284 59.541C70.8032 60.2555 70.0532 60.986 69.3094 61.683C68.5045 62.4373 66.6245 63.2231 66.0221 63.825C65.8639 63.983 66.1886 64.0657 66.1042 64.1545C64.9865 64.2109 66.0592 63.1287 66.433 62.6716C67.6098 61.2327 69.7856 59.4547 71.1996 58.0581C71.9741 57.2931 73.0647 56.0409 73.8295 55.4219C73.4615 56.7911 71.853 57.652 71.8571 57.811C71.8763 58.5422 73.151 57.4025 73.3364 57.2343ZM67.9123 62.1773C67.7726 62.265 67.4414 62.0256 67.2548 62.5892C67.5949 62.8169 67.7755 62.3688 67.9123 62.1773C69.6179 61.1062 70.9639 59.7383 72.3502 58.3053C71.8354 58.5584 70.0446 58.8591 71.0353 59.2939C70.3508 60.2286 70.3377 59.5101 70.2956 59.541C69.8875 59.8417 68.0711 61.5456 67.7479 61.9302C67.7384 61.9415 67.9726 62.0929 67.9123 62.1773Z" fill="#FBCFB5"/>
<path d="M49.832 56.2443L50.1608 55.75C51.7451 57.3336 53.0707 59.0523 54.2699 60.9401C52.2676 60.0308 51.2435 57.6386 49.832 56.2443Z" fill="#FEAA4C"/>
<path d="M70.8736 56.2475C69.7419 57.375 68.8409 59.1143 67.4219 60.0371L67.7506 58.2247C68.2304 57.535 68.8021 56.9924 69.2299 56.2475C69.3524 56.176 69.6706 56.1961 70.0517 55.918L70.8736 56.2475Z" fill="#FFBC49"/>
<path d="M69.23 56.248C68.8022 56.993 68.2305 57.5355 67.7507 58.2252C66.8812 59.475 65.1674 61.8125 64.1346 62.8387C63.8554 63.1163 63.4739 63.3345 63.2306 63.6625L63.1484 63.333C63.1844 63.2905 63.2747 63.0518 63.3128 63.0035C63.7035 63.0727 63.7836 62.7141 63.9703 62.5092C65.6463 60.6699 67.0686 58.5573 68.5725 56.5776C68.698 56.5258 69.1182 56.3133 69.23 56.248Z" fill="#F9E7B9"/>
<path d="M98.485 57.0713C98.3687 56.4938 96.5067 56.9823 96.0195 57.0713C96.2449 56.6192 97.8544 56.4244 98.2385 56.4122C100.481 56.3409 103.384 56.6099 105.306 56.7418C106.021 56.7907 107.799 56.3737 107.936 57.2361C104.834 56.8846 101.597 56.7058 98.485 57.0713Z" fill="#D972B1"/>
<path d="M68.571 56.5762C67.0671 58.5558 65.6448 60.6685 63.9688 62.5078C64.8115 60.9871 65.8069 59.5161 66.763 58.0591C67.057 57.6109 67.4574 57.2061 67.7492 56.7409C67.9964 56.751 68.3491 56.6676 68.571 56.5762Z" fill="#FE9562"/>
<path d="M98.4835 57.0686C95.9186 57.3698 92.9976 58.3014 90.5117 59.0458C91.9028 57.8748 94.2239 57.396 96.018 57.0686C96.5052 56.9797 98.3671 56.4911 98.4835 57.0686Z" fill="#D7568C"/>
<path d="M44.7345 64.3174C45.5505 64.7468 46.3958 65.3961 47.2001 65.8003C49.7147 67.0639 52.444 67.8805 54.8431 69.4252C54.0662 70.4037 52.7027 69.2904 51.8845 68.9309C51.8643 68.922 51.3153 68.7796 51.4736 69.0956C48.6591 67.9436 47.5631 67.0177 44.2414 67.6127L41.2007 66.2946C39.9788 65.3655 38.3691 64.766 37.1737 63.8231C36.6342 63.3977 33.0456 59.6917 32.9001 59.292C32.549 58.3271 32.9023 58.124 33.0645 57.2324C36.7046 60.2785 40.6099 62.1468 44.7345 64.3174Z" fill="#F86A50"/>
<path d="M71.2005 58.0563C69.7865 59.4528 67.6108 61.2308 66.4339 62.6697L66.2695 62.3402C67.7863 60.7242 69.0615 58.8887 70.7074 57.2324L71.2005 58.0563Z" fill="#FE9654"/>
<path d="M50.1608 57.7305C51.8597 59.5813 55.1947 63.1315 57.3929 64.1564C57.812 64.3518 58.1238 64.3691 58.5435 64.4859C60.4209 65.0087 61.782 65.371 63.6389 64.3211C64.5919 64.0746 65.5823 63.0752 66.2687 62.3439L66.4331 62.6735C66.0593 63.1305 64.9867 64.2127 66.1044 64.1564C65.5031 64.7901 62.8542 68.8474 62.5705 68.9346C61.9912 69.1127 60.3048 68.87 59.694 68.6051L59.2009 68.2755C58.5451 67.7801 57.8576 66.482 57.2285 65.804C57.0451 64.0819 55.2484 63.4769 54.1056 62.5087C53.6429 62.1167 53.2402 61.7616 52.7906 61.3553C51.917 60.1646 50.8133 59.1735 49.832 58.06L50.1608 57.7305Z" fill="#F96276"/>
<path d="M58.3799 63.003C58.5325 63.0271 58.7568 62.9626 58.873 63.003C59.0906 63.0786 59.1949 63.3777 59.3661 63.2502L58.873 62.8382C58.8817 62.7848 58.8615 62.7254 58.873 62.6735C59.0288 61.9747 58.8162 61.4066 58.5443 60.6963H58.7087C59.0141 61.3945 59.8739 64.7897 60.4345 63.3325C60.2189 63.7308 60.9094 64.7906 61.2563 64.8154C61.364 64.8232 61.6382 64.3348 61.6673 64.3211C62.1254 64.1051 62.828 63.7098 63.1466 63.3325L63.2287 63.6621C63.472 63.334 63.8535 63.1159 64.1328 62.8382C63.9064 63.4316 65.0539 62.6906 65.2833 62.5087C65.1656 63.0463 64.1014 64.0601 63.6397 64.3211C61.7828 65.371 60.4217 65.0087 58.5443 64.4859C58.3267 63.8565 57.457 63.5192 57.2294 63.3325C56.979 61.9315 54.561 59.2214 53.6133 57.7305H53.7776L58.6265 63.6621C58.854 63.3951 58.485 63.2531 58.3799 63.003Z" fill="#FBC187"/>
<path d="M19.1797 57.8938C22.279 57.8653 25.3697 58.3268 28.3021 59.2943L23.782 58.7177L19.1797 57.8938Z" fill="#EC7782"/>
<path d="M61.6687 58.0594C61.5985 58.7936 61.5168 59.6496 61.3392 60.3661C61.3406 60.2025 61.3364 60.0355 61.3392 59.8718C61.3485 59.3357 61.123 58.0212 61.6687 58.0594Z" fill="#F8CF9A"/>
<path d="M66.7642 58.0586C65.8081 59.5156 64.8127 60.9867 63.97 62.5073C63.7832 62.7123 63.7032 63.0708 63.3125 63.0016C64.2578 61.8056 65.696 59.4421 66.5998 58.0586H66.7642Z" fill="#F9C3AB"/>
<path d="M67.4183 60.0351C67.1686 60.56 65.7377 62.1453 65.2815 62.5066C65.0521 62.6885 63.9046 63.4294 64.131 62.8361C65.1637 61.81 66.8775 59.4724 67.747 58.2227L67.4183 60.0351Z" fill="#FE915B"/>
<path d="M67.9147 62.1767C67.975 62.0923 67.7408 61.9409 67.7503 61.9296C68.0734 61.545 69.8898 59.8411 70.298 59.5404C70.34 59.5095 70.3532 60.228 71.0376 59.2933C70.047 58.8585 71.8378 58.5578 72.3526 58.3047C70.9663 59.7377 69.6203 61.1056 67.9147 62.1767Z" fill="#FC9769"/>
<path d="M58.5418 60.6947C58.8137 61.405 59.0264 61.9731 58.8705 62.6719C58.1403 61.9636 57.0673 60.3996 57.0625 59.3766C57.0623 59.3322 57.2791 58.6256 57.3912 58.5527C57.7236 59.1024 58.3248 60.1281 58.5418 60.6947Z" fill="#FD7137"/>
<path d="M52.7916 61.3549C53.2411 61.7612 53.6438 62.1162 54.1065 62.5082C55.0725 63.6692 56.2002 64.694 57.2295 65.8036C57.8585 66.4816 58.5461 67.7796 59.2019 68.2751C59.4233 68.4423 59.2958 68.4314 59.695 68.6046C60.3058 68.8695 61.9922 69.1122 62.5714 68.9341C62.8551 68.847 65.5041 64.7896 66.1053 64.1559C66.1896 64.0671 65.865 63.9844 66.0231 63.8264C66.6255 63.2245 68.5056 62.4387 69.3105 61.6844C70.0542 60.9874 70.8042 60.2569 71.5294 59.5424C71.4142 60.333 72.1752 61.0164 72.1869 61.1077C72.3506 62.38 71.8402 64.4841 72.3513 65.9683C71.4295 66.5443 67.2316 68.7735 66.9272 69.5108C66.7906 69.8417 67.0812 69.9031 67.0915 69.9227C67.1489 70.032 67.2319 70.1313 67.2559 70.2523C65.8911 70.2798 64.6124 69.7337 63.0645 69.9227C62.5461 69.986 61.2641 70.823 60.4347 70.7466C59.6156 70.6711 58.7953 69.5513 57.9692 69.4284C56.5272 69.2139 55.1739 70.3678 53.86 70.2523C53.1784 70.1923 52.081 69.3462 51.4767 69.0989C51.3184 68.7829 51.8674 68.9252 51.8876 68.9341C52.7058 69.2936 54.0692 70.407 54.8462 69.4284C52.4471 67.8837 49.7178 67.0672 47.2031 65.8036L55.1749 69.2637C53.8243 67.6765 51.914 66.5608 50.1617 65.474C50.8547 63.4859 48.9558 60.8199 50.3261 59.2129C51.1032 59.9772 51.9878 60.6286 52.7916 61.3549Z" fill="#FD832A"/>
<path d="M81.7181 72.7231C80.7329 72.5595 79.7283 72.3094 78.7595 72.064C79.3469 70.1338 79.6213 68.3395 77.3624 67.4506C76.8232 67.2384 76.2111 67.3881 75.8009 67.2858C74.8189 67.0411 74.2269 67.1693 75.1434 65.9677C76.4223 65.344 77.6692 64.6591 78.9238 63.9905C80.5912 63.1019 82.2695 62.2216 83.8549 61.1895C87.2737 63.8995 80.5899 66.8957 80.2388 68.3568C79.9518 69.5514 80.9513 71.8052 81.7181 72.7231Z" fill="#CF4A81"/>
<path d="M25.0965 61.353C26.4198 61.212 29.4292 61.3074 30.685 61.6825C30.9126 61.7506 31.6368 61.8817 31.4246 62.2592L23.6172 61.8473C23.797 61.5044 24.7571 61.3891 25.0965 61.353Z" fill="#F38583"/>
<path d="M61.3398 62.8364V61.3535C61.6394 62.0304 61.6511 62.5105 61.3398 62.8364Z" fill="#F7C592"/>
<path d="M60.3531 63.0035C60.0771 62.9192 59.6892 62.9592 60.0243 62.1797C60.1953 62.4296 60.3325 62.6989 60.3531 63.0035Z" fill="#F6B995"/>
<path d="M67.9153 62.1797C67.7785 62.3711 67.5979 62.8193 67.2578 62.5916C67.4444 62.0279 67.7756 62.2673 67.9153 62.1797Z" fill="#FC9769"/>
<path d="M57.2284 65.8031C56.1992 64.6936 55.0715 63.6688 54.1055 62.5078C55.2483 63.476 57.045 64.081 57.2284 65.8031Z" fill="#FAC189"/>
<path d="M58.875 63.0007V62.8359L59.3681 63.2479C59.1968 63.3754 59.0926 63.0763 58.875 63.0007Z" fill="#FD5837"/>
<path d="M58.5434 64.4834C58.1237 64.3666 57.8119 64.3493 57.3928 64.1539C56.9506 63.7786 57.2853 63.6487 57.2284 63.3301C57.4561 63.5168 58.3257 63.854 58.5434 64.4834Z" fill="#FD8A62"/>
<path d="M44.2422 67.6158C42.8372 67.8674 41.8512 68.2498 41.448 69.7578C41.3227 69.0058 41.7039 68.9634 41.448 68.3573C41.308 68.0257 39.3112 66.0088 38.9003 65.6386C38.437 65.2213 36.731 64.5273 37.1745 63.8262C38.3699 64.7691 39.9795 65.3686 41.2014 66.2977L44.2422 67.6158Z" fill="#F65847"/>
<path d="M75.8013 67.2849C72.7437 69.0801 70.964 70.1759 67.2542 70.2507C67.2302 70.1298 67.1472 70.0304 67.0898 69.9212C69.4549 67.9885 72.4502 67.2803 75.1438 65.9668C74.2273 67.1684 74.8194 67.0403 75.8013 67.2849Z" fill="#CD3C5C"/>
<path d="M78.7644 72.0634C78.6262 72.5175 77.5078 75.0394 77.2851 75.3587C76.6755 76.2326 74.8919 77.4928 73.9978 78.1598C75.4717 76.8377 79.3795 71.3616 78.7644 69.5095C78.6762 69.2436 76.9666 68.3089 76.7098 68.2738C74.4628 67.9666 71.7259 71.682 68.4093 71.8986C66.0723 72.0512 63.606 71.0207 61.2593 70.91C58.5576 70.7825 55.9689 71.6151 53.2875 71.2396C49.9716 70.7752 46.0755 67.8101 42.6859 69.0976C41.6277 69.4996 43.9199 74.0371 43.4255 74.782C43.334 74.9692 43.1367 74.6033 43.0968 74.6997C42.4413 74.0554 42.0309 73.0966 41.7819 72.2282C41.5177 71.3068 41.5919 70.5891 41.4531 69.7567C41.8563 68.2487 42.8424 67.8663 44.2474 67.6147C47.5691 67.0197 48.6651 67.9455 51.4795 69.0976C52.0839 69.3449 53.1812 70.191 53.8628 70.251C55.1768 70.3665 56.53 69.2126 57.972 69.4271C58.7981 69.55 59.6185 70.6698 60.4375 70.7453C61.2669 70.8217 62.549 69.9847 63.0674 69.9214C64.6152 69.7324 65.894 70.2785 67.2587 70.251C70.9685 70.1762 72.7483 69.0803 75.8058 67.2852C76.2161 67.3875 76.8282 67.2377 77.3673 67.4499C79.6262 68.3388 79.3519 70.1331 78.7644 72.0634Z" fill="#FDFAE0"/>
<path d="M59.6962 68.603C59.297 68.4298 59.4245 68.4407 59.2031 68.2734L59.6962 68.603Z" fill="#F7A474"/>
<path d="M73.9947 78.1599C73.0716 78.8484 72.2414 79.4596 71.2005 79.9723C72.0728 77.8753 70.8417 75.8024 69.7212 74.0407C69.4932 73.6822 69.4207 73.6402 69.2281 73.3817C69.1193 73.1414 69.1311 72.8186 68.735 72.7226C68.5976 72.4705 68.4186 72.2006 68.4062 71.8988C71.7228 71.6821 74.4597 67.9668 76.7068 68.2739C76.9635 68.309 78.6731 69.2437 78.7614 69.5096C79.3764 71.3618 75.4686 76.8378 73.9947 78.1599Z" fill="#FEE0A8"/>
<path d="M53.2825 71.2368C53.3775 71.6197 53.0149 71.8425 52.7894 72.0607C51.9873 72.2332 51.3519 72.793 50.817 73.3788C49.6033 74.7076 47.5619 78.3055 49.1734 79.8047C47.3382 78.9853 46.4577 78.191 44.8998 77.0037C43.6999 76.0892 44.2297 75.5623 42.5987 75.8503C43.294 75.615 42.933 75.0805 43.0918 74.6969C43.1317 74.6005 43.329 74.9665 43.4205 74.7793C43.9149 74.0344 41.6227 69.4969 42.6809 69.0949C46.0704 67.8074 49.9666 70.7725 53.2825 71.2368Z" fill="#FFE0A6"/>
<path d="M68.4048 71.8966C68.4171 72.1984 68.5961 72.4683 68.7335 72.7204C68.9809 73.1745 69.0257 73.1099 69.2266 73.3795C69.9146 74.8988 67.5093 78.2537 66.4324 79.5582C65.9969 80.0856 63.7729 81.4985 64.7887 81.7826C64.1094 81.9383 62.9948 82.5657 62.8163 82.6064C62.4366 82.6929 61.9315 82.8956 61.6657 82.9359C61.3547 82.9832 60.8531 82.9496 60.5151 82.9359C58.8808 82.8695 58.1389 82.0607 56.7347 81.7826C55.6111 80.0883 51.2659 74.9807 51.8037 72.9675C51.8824 72.6729 52.4975 72.3441 52.7899 72.0613C53.0154 71.8432 53.378 71.6204 53.283 71.2375C55.9643 71.613 58.5531 70.7804 61.2548 70.908C63.6015 71.0187 66.0678 72.0491 68.4048 71.8966Z" fill="#FFD8A9"/>
<path d="M52.7927 72.0645C52.5003 72.3472 51.8852 72.6761 51.8065 72.9707C51.2687 74.9838 55.6139 80.0914 56.7375 81.7857C56.4556 81.7298 56.1977 81.684 55.9157 81.6209C53.7367 80.2458 51.5664 78.6113 50.8203 76.0189V73.3826C51.3552 72.7968 51.9906 72.237 52.7927 72.0645Z" fill="#F9AF90"/>
<path d="M81.7192 72.7235C82.0845 72.7842 82.7474 73.0269 83.0341 73.0531C84.1955 73.8479 84.5344 75.4871 83.3628 76.4308C82.5632 77.0748 80.7216 75.9488 79.9111 76.3484C79.0161 76.0633 78.1161 75.8007 77.2812 75.3598C77.504 75.0405 78.6223 72.5185 78.7606 72.0645C79.7293 72.3098 80.7339 72.5599 81.7192 72.7235Z" fill="#FBD1A7"/>
<path d="M41.7778 72.2285C42.0268 73.097 42.4372 74.0558 43.0927 74.7C42.9339 75.0836 43.2949 75.6181 42.5996 75.8534C41.6405 76.0228 40.6458 76.5215 39.4766 76.6772C37.6173 75.7751 37.7537 73.5242 39.4766 72.558C40.2454 72.4572 41.0189 72.4285 41.7778 72.2285Z" fill="#FCD1A7"/>
<path d="M69.2275 73.3817C69.0266 73.1122 68.9817 73.1768 68.7344 72.7227C69.1305 72.8187 69.1187 73.1415 69.2275 73.3817Z" fill="#F7B198"/>
<path d="M50.8167 76.0191C49.308 77.2853 51.3871 79.2108 50.8167 80.303C50.2658 80.1043 49.9083 80.1371 49.1731 79.8087C47.5616 78.3095 49.6031 74.7117 50.8167 73.3828V76.0191Z" fill="#F78D67"/>
<path d="M69.7213 74.0419C71.187 78.036 68.4567 79.6975 65.6122 81.6211C65.3115 81.6984 65.0712 81.7215 64.7903 81.7859C63.7745 81.5019 65.9986 80.089 66.434 79.5616C67.5109 78.2571 69.9163 74.9021 69.2282 73.3828C69.4209 73.6413 69.4934 73.6833 69.7213 74.0419Z" fill="#F7B198"/>
<path d="M71.1979 79.9726C68.7683 81.1691 67.9802 81.011 65.6094 81.6203C68.4539 79.6966 71.1842 78.0351 69.7185 74.041C70.839 75.8027 72.0701 77.8756 71.1979 79.9726Z" fill="#F38C7D"/>
<path d="M77.2846 75.3594C78.1194 75.8003 79.0195 76.0629 79.9145 76.348C83.0856 77.3582 86.5899 77.8902 89.9409 77.8309L88.6259 78.5723C89.2926 78.4468 89.6317 78.9725 89.6943 78.9842C90.2706 79.0913 96.1388 78.9839 96.4333 78.8195L96.0224 77.007C96.0747 76.9957 96.1345 77.0186 96.1868 77.007C97.9611 80.0439 98.9809 82.9424 99.6385 86.3987C99.7307 86.8836 99.8729 87.3934 99.9672 87.8816C99.5688 91.0219 100.573 95.109 99.6385 98.5915C99.5386 98.964 98.6735 100.812 98.3236 100.898C97.2194 99.192 95.0078 98.1639 93.146 97.4381C85.1236 94.3107 72.4917 94.2764 66.272 87.7169C64.939 86.3109 63.8654 84.2438 62.8203 82.6091C62.9988 82.5684 64.1134 81.941 64.7927 81.7853C65.0736 81.7208 65.3139 81.6978 65.6146 81.6205C67.9854 81.0112 68.7735 81.1694 71.203 79.9728C72.244 79.4601 73.0742 78.849 73.9973 78.1604C74.8914 77.4934 76.675 76.2333 77.2846 75.3594ZM72.2714 79.6433C72.4976 80.351 73.3608 81.1597 73.9151 81.6205C77.4403 84.5519 83.3838 85.7028 87.0644 87.5521C88.3975 88.2219 89.487 89.2013 90.7627 89.9412C86.879 85.5396 80.6219 85.5637 75.7231 82.6091C74.4269 81.8273 73.3446 80.6932 72.2714 79.6433Z" fill="url(#paint7_linear_1147_54183)"/>
<path d="M44.9009 77.0076C44.5281 77.4345 45.1838 77.2894 44.9831 77.5019C44.0271 78.5149 36.3571 79.4376 34.7101 79.4791C31.3304 79.5645 27.9643 78.8698 24.6016 79.4791L24.8481 78.161C25.2298 77.5659 25.7199 77.0022 25.9987 76.3486C30.4565 77.1111 34.966 77.2792 39.4768 76.6781C40.6459 76.5224 41.6407 76.0237 42.5997 75.8543C44.2308 75.5663 43.701 76.0932 44.9009 77.0076Z" fill="#882B9D"/>
<path d="M50.8183 76.0176C51.5643 78.61 53.7346 80.2445 55.9136 81.6196C53.7136 81.1276 53.0855 81.1191 50.8183 80.3015C51.3886 79.2093 49.3095 77.2838 50.8183 76.0176Z" fill="#F28B86"/>
<path d="M49.1761 79.8069C49.9114 80.1353 50.2689 80.1025 50.8198 80.3012C53.0871 81.1188 53.7151 81.1273 55.9152 81.6193C56.1972 81.6824 56.4551 81.7282 56.737 81.7841C58.1412 82.0622 58.8832 82.8711 60.5175 82.9375C60.4815 83.4245 60.1928 83.7956 60.0244 84.2556H57.641C57.2969 85.1259 56.9275 85.9456 56.4083 86.7271C55.0823 88.7226 53.6546 90.1447 52.2169 91.9996C55.5265 91.9962 57.4382 90.0691 58.7094 87.2214C58.7142 87.2319 58.9029 87.1959 58.8738 87.3862C58.4443 88.3995 58.1364 89.2322 57.5589 90.1872C55.9209 92.0207 53.5933 91.7264 51.5595 92.4939C46.5362 94.3892 43.9258 96.1437 38.2457 97.1074C33.2735 97.9512 26.2585 97.2718 22.7131 101.227C22.5628 101.207 22.4818 101.484 22.3022 101.391C21.8477 101.158 21.7515 100.491 21.5625 100.073L22.22 95.3773C23.228 91.6124 29.7979 82.8137 32.986 80.466C33.6832 79.9525 34.1267 80.3053 34.7119 79.4774C36.3588 79.4358 44.0288 78.5131 44.9848 77.5002C45.1855 77.2876 44.5298 77.4328 44.9026 77.0059C46.4605 78.1932 47.341 78.9875 49.1761 79.8069ZM47.4503 80.6307C45.8592 82.5827 43.9527 84.1808 41.8618 85.5737C38.2812 87.9589 33.597 88.8569 30.3561 91.5053C30.0489 91.7564 29.5894 92.1931 29.4521 92.5763C35.1762 88.1302 43.3368 87.1125 47.4503 80.6307Z" fill="url(#paint8_linear_1147_54183)"/>
<path d="M96.0215 77.0059L96.4324 78.8183C96.1379 78.9827 90.2697 79.0902 89.6934 78.9831C89.6308 78.9714 89.2917 78.4456 88.625 78.5711L89.9399 77.8297C92.0542 77.7923 93.971 77.4491 96.0215 77.0059Z" fill="#A048AF"/>
<path d="M34.7139 79.4783C34.1288 80.3062 33.6853 79.9535 32.9881 80.4669C29.8 82.8146 23.2301 91.6134 22.2221 95.3783L21.5646 100.074C21.3577 99.6166 21.1908 99.0765 21.0715 98.5912C20.2569 95.2769 20.4076 90.2502 21.0715 86.8928C21.0751 86.8747 21.1548 86.9282 21.2359 86.5633C21.9084 83.5337 23.1922 80.749 24.8519 78.1602L24.6054 79.4783C27.9682 78.869 31.3342 79.5636 34.7139 79.4783Z" fill="#CF75CB"/>
<path d="M72.2695 79.6426C73.3427 80.6925 74.425 81.8266 75.7212 82.6084C80.62 85.563 86.8771 85.5389 90.7608 89.9405C89.4852 89.2005 88.3956 88.2212 87.0626 87.5514C83.3819 85.702 77.4384 84.5511 73.9132 81.6198C73.359 81.1589 72.4957 80.3503 72.2695 79.6426Z" fill="#CD74BE"/>
<path d="M47.4513 80.6309C43.3379 87.1126 35.1772 88.1304 29.4531 92.5764C29.5904 92.1932 30.0499 91.7566 30.3571 91.5055C33.598 88.857 38.2823 87.959 41.8628 85.5739C43.9537 84.1809 45.8602 82.5828 47.4513 80.6309Z" fill="#D571BC"/>
<path d="M62.8185 82.6094C63.8636 84.244 64.9372 86.3112 66.2702 87.7171L67.1743 89.2C65.7119 88.9499 64.4699 88.9293 63.3116 87.8819C62.5531 86.2145 61.7247 84.9469 61.668 82.9389C61.9338 82.8985 62.4388 82.6959 62.8185 82.6094Z" fill="#CB9591"/>
<path d="M60.0223 84.2559C59.6318 85.3227 59.319 86.3309 58.8718 87.3864C58.9008 87.1961 58.7122 87.2322 58.7074 87.2217C58.5172 86.8053 57.077 86.7844 56.4062 86.7274C56.9255 85.9459 57.2948 85.1262 57.639 84.2559H60.0223Z" fill="#9A39A4"/>
<path d="M58.7112 87.2228C57.44 90.0705 55.5283 91.9976 52.2188 92.001C53.6565 90.1461 55.0842 88.724 56.4101 86.7285C57.0809 86.7855 58.5211 86.8065 58.7112 87.2228Z" fill="#B354B6"/>
<path d="M98.3227 100.898C98.0417 100.967 93.7026 99.826 92.652 99.7448C86.1738 99.2444 79.4048 100.178 73.1745 97.6028C68.7013 95.7541 65.281 92.2087 63.3125 87.8816C64.4708 88.929 65.7127 88.9496 67.1751 89.1997L66.2711 87.7168C72.4907 94.2763 85.1227 94.3106 93.1451 97.438C95.0069 98.1638 97.2184 99.192 98.3227 100.898Z" fill="url(#paint9_linear_1147_54183)"/>
<path d="M57.5567 90.1875C56.5656 91.8263 55.1747 93.5819 53.6941 94.801C52.2046 96.0273 50.4355 96.7213 48.8453 97.7668C48.6364 97.816 48.6896 97.4018 48.5987 97.4372C45.1801 98.7712 41.7438 99.9084 38.0792 100.403C34.9676 100.823 25.5014 101.595 22.7109 101.227C26.2563 97.2721 33.2713 97.9515 38.2436 97.1077C43.9236 96.144 46.5341 94.3895 51.5573 92.4942C53.5912 91.7267 55.9188 92.021 57.5567 90.1875Z" fill="#F1D7E7"/>
</g>
<defs>
<linearGradient id="paint0_linear_1147_54183" x1="56.219" y1="6.85009" x2="68.2077" y2="27.3077" gradientUnits="userSpaceOnUse">
<stop stop-color="#B338A1"/>
<stop offset="1" stop-color="#E480BB"/>
</linearGradient>
<linearGradient id="paint1_linear_1147_54183" x1="99.781" y1="24.4152" x2="72.0348" y2="61.4295" gradientUnits="userSpaceOnUse">
<stop stop-color="#F53463"/>
<stop offset="0.569395" stop-color="#F8A39A"/>
<stop offset="1" stop-color="#FDA763"/>
</linearGradient>
<linearGradient id="paint2_linear_1147_54183" x1="21.7725" y1="25.2219" x2="49.2906" y2="59.7032" gradientUnits="userSpaceOnUse">
<stop offset="0.182836" stop-color="#F5426D"/>
<stop offset="0.567164" stop-color="#F9A599"/>
<stop offset="1" stop-color="#FEA864"/>
</linearGradient>
<linearGradient id="paint3_linear_1147_54183" x1="110.807" y1="62.695" x2="84.3804" y2="65.963" gradientUnits="userSpaceOnUse">
<stop stop-color="#EFD5E7"/>
<stop offset="1" stop-color="#FEF2C7"/>
</linearGradient>
<linearGradient id="paint4_linear_1147_54183" x1="4.82246" y1="60.9938" x2="40.1174" y2="62.7604" gradientUnits="userSpaceOnUse">
<stop stop-color="#B760C7"/>
<stop offset="0.437209" stop-color="#EC84AE"/>
<stop offset="0.916279" stop-color="#F7918C"/>
</linearGradient>
<linearGradient id="paint5_linear_1147_54183" x1="105.401" y1="49.9448" x2="93.7341" y2="75.9398" gradientUnits="userSpaceOnUse">
<stop stop-color="#BE52BB"/>
<stop offset="1" stop-color="#F38AA5"/>
</linearGradient>
<linearGradient id="paint6_linear_1147_54183" x1="8.42124" y1="63.835" x2="37.723" y2="68.9951" gradientUnits="userSpaceOnUse">
<stop stop-color="#EDD2E7"/>
<stop offset="1" stop-color="#FEF7C2"/>
</linearGradient>
<linearGradient id="paint7_linear_1147_54183" x1="73.6694" y1="77.997" x2="92.2402" y2="101.925" gradientUnits="userSpaceOnUse">
<stop stop-color="#5C0E8F"/>
<stop offset="0.456522" stop-color="#BE4DAF"/>
<stop offset="1" stop-color="#DF86C0"/>
</linearGradient>
<linearGradient id="paint8_linear_1147_54183" x1="51.1048" y1="78.6718" x2="28.4906" y2="102.589" gradientUnits="userSpaceOnUse">
<stop stop-color="#8A188D"/>
<stop offset="1" stop-color="#E184BF"/>
</linearGradient>
<linearGradient id="paint9_linear_1147_54183" x1="73.2094" y1="86.9996" x2="87.4808" y2="100.647" gradientUnits="userSpaceOnUse">
<stop stop-color="#F9E4E1"/>
<stop offset="1" stop-color="#ECCFE9"/>
</linearGradient>
<clipPath id="clip0_1147_54183">
<rect width="120.4" height="103.421" fill="white" transform="translate(0.300781 0.789062)"/>
</clipPath>
</defs>
</svg>
