<svg width="115" height="120" viewBox="0 0 115 120" fill="none" xmlns="http://www.w3.org/2000/svg">
<g clip-path="url(#clip0_1178_69183)">
<path d="M36.478 77.8326C36.2071 78.8905 35.2983 83.2248 36.6993 83.7338C37.7612 84.1196 41.0876 83.109 42.2317 82.7011C51.3044 75.0319 49.9773 90.0736 41.7093 94.222C41.1884 94.6046 39.5243 95.5075 38.7647 96.1264C35.1116 99.1031 32.9401 98.7245 29.0277 100.11C28.82 100.183 28.432 100.27 28.5114 100.552L19.8808 99.8146C19.6628 99.6066 19.403 97.7796 19.3645 97.3804C19.2366 96.0526 19.2392 93.1756 19.3645 91.848C19.7123 88.1591 21.5869 82.5856 23.3478 79.3079C23.8425 78.3872 24.3871 77.5167 24.9706 76.6523C28.5376 78.6023 32.5749 78.4422 36.478 77.8326Z" fill="url(#paint0_linear_1178_69183)"/>
<path d="M57.8711 85.9472C56.3263 88.6359 52.2722 92.2957 49.5357 93.7663C49.2717 93.9082 48.8877 94.1516 48.5767 93.9138C47.8171 92.3529 46.9217 90.588 46.5113 88.8978C46.1166 87.2726 45.534 80.9992 45.5896 79.3193L52.7814 71.7104C53.8879 70.4565 53.9917 65.0708 56.1008 64.0388C56.4005 63.8921 61.7808 68.1698 59.6415 69.4238C60.1093 69.2963 60.1505 69.7674 60.2316 70.0876C61.4842 75.0292 60.5037 81.3653 57.8711 85.9472Z" fill="url(#paint1_linear_1178_69183)"/>
<path d="M66.8724 7.01945C66.5208 7.24989 66.1874 7.50615 65.7659 7.60957L65.6921 8.12593L68.6427 16.7565C68.9778 18.5702 68.4613 24.3788 67.9051 26.1246C67.7406 26.641 67.7252 26.3169 67.4625 26.3459C67.2165 25.6596 65.2864 21.3212 64.7332 21.3299L60.2335 28.5589C59.198 25.7571 54.7483 18.3423 51.2341 18.8219C50.333 18.9449 50.6673 19.3132 50.2014 19.7071C47.984 21.5814 46.2249 24.0958 45.4805 26.9361C43.3714 25.9534 41.0014 25.3414 38.8416 24.428C38.3218 24.2082 37.7401 23.754 37.2188 23.5429C37.6481 23.6122 37.5227 23.1386 37.5138 22.879C37.475 21.7439 37.44 20.6989 37.5138 19.5595C37.6951 16.7584 38.2549 13.077 39.1366 10.5602C39.1425 10.5432 39.3841 10.6174 39.4317 10.4864C40.4597 7.66298 41.7279 4.92924 43.6363 2.59354C45.1692 2.49336 51.4668 5.27298 52.3406 5.10155C52.5855 5.05346 55.6928 2.69268 56.4715 2.29848C57.5087 1.77342 58.6158 1.34661 59.7171 0.970703L66.8724 7.01945Z" fill="url(#paint2_linear_1178_69183)"/>
<path d="M74.3957 4.06641C73.6545 6.34369 70.4678 10.5023 70.5599 12.7707C69.8214 14.1539 68.8928 15.1999 68.642 16.754L65.6914 8.12349L65.7652 7.60714C66.1867 7.50372 66.5201 7.24746 66.8716 7.01701C68.9747 5.63879 71.9793 4.69061 74.3957 4.06641Z" fill="#9A8FE7"/>
<path d="M79.1173 11.4429C80.1388 14.3661 80.5808 18.6133 80.2976 21.6963C80.2604 22.1004 80.4408 22.2801 79.855 22.2126C79.8293 22.1884 79.751 21.9595 79.6337 21.9176C76.6891 22.9612 73.4715 24.3195 71.1507 26.491L71.7408 16.1639L71.8146 15.7213C71.6762 15.8022 71.7632 16.1639 71.7408 16.1639C71.1852 16.1636 70.5844 13.3592 70.5605 12.7707C70.4685 10.5023 73.6551 6.34369 74.3963 4.06641C75.4401 4.27649 78.7153 10.2923 79.1173 11.4429Z" fill="url(#paint3_linear_1178_69183)"/>
<path d="M39.1366 10.5593C38.2548 13.0762 37.6951 16.7575 37.5138 19.5586L37.2187 21.5503C34.3763 18.2955 32.3539 13.5574 29.6947 10.1905C29.4327 9.85882 29.5228 9.73844 28.957 9.82164C29.0665 9.72634 29.3282 9.26752 29.4734 9.23152C32.7638 9.15967 36.1139 9.13297 39.1366 10.5593Z" fill="url(#paint4_linear_1178_69183)"/>
<path d="M91.9523 19.5576C90.7256 19.71 87.8131 20.6979 86.5675 21.1804C84.5096 21.9775 82.6424 23.3168 80.5925 24.131C80.4194 23.5999 80.278 22.6119 79.8548 22.2131C80.4407 22.2806 80.2603 22.1009 80.2974 21.6968C80.5807 18.6138 80.1387 14.3666 79.1172 11.4434L89.5181 9.23047C91.2224 12.3664 92.1561 15.9525 91.9523 19.5576Z" fill="url(#paint5_linear_1178_69183)"/>
<path d="M37.5168 19.5593C37.443 20.6987 37.478 21.7437 37.5168 22.8788C37.5256 23.1384 37.651 23.612 37.2217 23.5426C35.589 22.8816 34.0067 22.0828 32.3532 21.4772C30.9064 19.7032 29.8529 16.3234 29.4026 14.0269C29.1422 12.6989 29.3038 11.2013 28.8125 9.96985C28.8658 9.91541 28.8944 9.87956 28.96 9.82231C29.5258 9.73911 29.4357 9.85949 29.6977 10.1911C32.3569 13.5581 34.3793 18.2962 37.2217 21.551L37.5168 19.5593Z" fill="#8980D0"/>
<path d="M32.353 21.4761C30.6857 20.8655 27.3533 19.6236 25.7141 19.4107C25.6421 16.5802 26.8099 12.0156 28.8122 9.96875C29.3035 11.2002 29.142 12.6978 29.4023 14.0258C29.8526 16.3223 30.9061 19.7021 32.353 21.4761Z" fill="#837BD2"/>
<path d="M71.7393 16.1627L71.1492 26.4899C70.2977 27.2867 69.1769 28.7612 68.4937 29.7355C67.9335 28.6884 67.8534 27.4371 67.4609 26.3423C67.7237 26.3133 67.739 26.6374 67.9035 26.121C68.4597 24.3752 68.9762 18.5666 68.6412 16.7529C68.892 15.1988 69.8205 14.1528 70.5591 12.7695C70.583 13.358 71.1837 16.1624 71.7393 16.1627Z" fill="#645EC3"/>
<path d="M71.7411 16.1652C71.7635 16.1652 71.6765 15.8035 71.8149 15.7227L71.7411 16.1652Z" fill="#645EC3"/>
<path d="M51.2345 18.8203C54.8623 23.7098 56.4963 29.1561 57.4308 35.1224C57.7575 37.2091 57.6938 39.5986 58.0209 41.6138C58.0792 41.9733 58.1689 42.4321 58.611 42.5727C58.0514 42.7846 57.9483 43.2558 57.7996 43.3104C57.7176 43.3405 57.2199 43.0271 56.9144 43.1628C56.2128 43.4744 55.3317 44.196 54.6277 44.6381C54.3899 44.7874 53.9418 44.6927 53.2999 45.2283C52.846 45.3498 52.5093 45.5789 52.1197 45.8184C47.3842 39.3909 42.3878 33.0751 38.5469 26.0493C38.6355 25.5096 38.5756 24.9613 38.8419 24.4265C41.0018 25.3398 43.3717 25.9518 45.4808 26.9345C46.7425 27.5224 47.9298 28.3888 49.0953 29.1474C49.2859 28.2258 49.5345 27.8216 49.7592 27.2295C49.9871 27.2297 49.9501 26.7629 49.8329 26.6394C49.6662 26.7855 49.817 27.0773 49.7592 27.2295C48.776 27.229 50.4027 20.3385 50.2018 19.7055C50.6677 19.3116 50.3334 18.9434 51.2345 18.8203Z" fill="url(#paint6_linear_1178_69183)"/>
<path d="M60.2337 28.5561C61.965 33.2403 62.1648 38.3455 62.0041 43.3091C61.6279 43.1219 60.8414 43.1387 60.5288 43.4567C59.9459 42.6317 59.7306 42.1475 58.6109 42.5715C58.1687 42.4309 58.079 41.9721 58.0208 41.6125C57.6937 39.5974 57.7574 37.2079 57.4307 35.1212C56.4962 29.1549 54.8621 23.7085 51.2344 18.8191C54.7485 18.3395 59.1982 25.7543 60.2337 28.5561Z" fill="url(#paint7_linear_1178_69183)"/>
<path d="M25.7101 19.4103C27.3493 19.6232 30.6817 20.8651 32.349 21.4757C34.0025 22.0813 35.5848 22.8801 37.2175 23.5412C37.7389 23.7523 38.3206 24.2065 38.8403 24.4263C38.574 24.9611 38.6339 25.5095 38.5453 26.0492C37.6515 31.4919 37.4726 34.2589 40.7582 38.8843C39.4735 38.1434 38.1987 37.6762 36.7749 37.2615C33.4027 36.2792 28.9446 36.178 26.5953 39.4744C26.5682 39.5125 26.1561 39.7427 26.1527 39.8433C27.7692 43.0793 29.6893 46.2735 32.6441 48.4738C30.7284 47.2406 29.7818 46.2068 27.5543 45.3757C20.9378 42.9066 10.9499 42.3671 4.61328 45.6707C5.07918 44.5989 9.6898 41.0294 10.8096 40.5072C11.6288 40.1251 14.9798 39.2647 15.8994 39.1794C18.5561 38.9332 21.2551 39.5284 23.866 39.917C22.7156 37.0786 21.2984 34.4493 20.399 31.5078C20.09 30.4968 19.7542 29.4369 19.5138 28.4097C18.8947 25.7624 18.4851 22.9376 18.3336 20.2217C18.6766 19.3538 24.7698 19.2882 25.7101 19.4103Z" fill="url(#paint8_linear_1178_69183)"/>
<path d="M102.429 20.7401C102.639 21.512 101.665 21.6601 101.544 22.3629L85.3153 36.0095L89.9625 36.3783L89.8887 36.8209C86.3236 36.4814 82.7803 36.7394 79.4141 38.0011C81.4997 33.6097 82.1183 28.8113 80.5943 24.1333C82.6442 23.3191 84.5114 21.9798 86.5693 21.1827C87.8149 20.7001 90.7274 19.7122 91.9541 19.5598C93.0137 19.4282 95.6375 19.4715 96.7489 19.5598C98.6466 19.7108 100.57 20.3724 102.429 20.7401Z" fill="url(#paint9_linear_1178_69183)"/>
<path d="M49.7588 27.2311C49.5342 27.8231 49.2856 28.2274 49.095 29.149C47.9295 28.3904 46.7421 27.5239 45.4805 26.936C46.2249 24.0958 47.9841 21.5814 50.2014 19.707C50.4024 20.3401 48.7757 27.2305 49.7588 27.2311Z" fill="#C2C0EC"/>
<path d="M103.458 29C103.037 32.8032 100.712 37.0724 98.1469 39.8435C101.683 39.0664 105.063 39.0214 108.474 40.3598C110.848 41.2912 114.026 43.6775 115.408 45.8184C115.237 45.7916 115.271 45.9643 115.26 45.966C111.846 46.5245 108.582 46.3276 105.155 46.5561C103.181 46.6877 99.4643 47.6022 97.778 47.4413C97.3117 47.3967 93.8937 45.65 93.2046 45.3759C93.0779 45.3254 92.4687 45.587 92.1719 45.3759L92.2456 44.4907C92.9867 43.5344 95.7712 38.7864 94.8274 37.8518C94.7802 37.805 93.7726 37.4735 93.5734 37.4092C94.0561 37.0374 94.2537 37.1518 94.7537 36.5978C96.2357 34.9553 101.484 25.3414 101.835 23.3201C101.879 23.0665 101.749 22.5399 101.54 22.3611C101.661 21.6583 102.635 21.5102 102.425 20.7383C103.414 21.3609 103.59 27.8056 103.458 29Z" fill="url(#paint10_linear_1178_69183)"/>
<path d="M67.4595 26.3442C67.8519 27.439 67.932 28.6902 68.4922 29.7374C65.6029 33.8575 63.3929 39.3417 62.886 44.3429C62.8096 44.3641 62.6858 44.3323 62.591 44.3429C62.4706 44.0968 62.3617 43.4897 62.0008 43.3102C62.1615 38.3465 61.9617 33.2414 60.2305 28.5571L64.7301 21.3281C65.2834 21.3194 67.2135 25.6579 67.4595 26.3442Z" fill="url(#paint11_linear_1178_69183)"/>
<path d="M79.8566 22.213C80.2797 22.6118 80.4212 23.5998 80.5943 24.1309C82.1183 28.809 81.4997 33.6074 79.414 37.9988C79.138 38.1022 79.3538 38.3754 79.1927 38.4414C79.162 38.4539 79.1253 38.1681 78.5288 38.4414C74.3403 40.3601 70.9232 43.6793 67.8329 46.9981C67.6331 47.2126 67.6072 47.3575 67.3165 47.1457C67.2999 47.088 66.5312 46.5474 66.4314 46.3342C66.4095 46.2875 66.7478 45.9189 66.4314 45.3015C66.0559 44.5687 65.3904 44.7837 64.9561 44.6376C64.0163 44.3218 63.9587 44.045 62.8906 44.3426C63.3975 39.3415 65.6075 33.8572 68.4968 29.7371C69.18 28.7628 70.3008 27.2882 71.1523 26.4914C73.4731 24.3199 76.6908 22.9616 79.6353 21.918C79.7526 21.9599 79.8309 22.1888 79.8566 22.213Z" fill="url(#paint12_linear_1178_69183)"/>
<path d="M93.5742 37.4075C92.6449 37.1075 90.8992 36.9138 89.8859 36.8174L89.9597 36.3748L85.3125 36.0059L101.541 22.3594C101.75 22.5382 101.88 23.0647 101.836 23.3183C101.485 25.3396 96.2365 34.9536 94.7544 36.5961C94.2545 37.15 94.0569 37.0357 93.5742 37.4075Z" fill="#7260C5"/>
<path d="M52.1203 45.8199C51.0184 46.497 50.6077 46.6395 51.2352 48.1066L49.7599 48.3279C50.0536 47.8164 50.6529 48.0524 50.35 47.5165C46.982 44.8882 43.2785 42.4306 40.7605 38.8859C37.4748 34.2606 37.6538 31.4935 38.5475 26.0508C42.3885 33.0766 47.3849 39.3924 52.1203 45.8199Z" fill="url(#paint13_linear_1178_69183)"/>
<path d="M49.7576 27.2307C49.8155 27.0785 49.6647 26.7867 49.8314 26.6406C49.9485 26.7641 49.9856 27.2309 49.7576 27.2307Z" fill="#C2C0EC"/>
<path d="M19.5159 28.4082C19.7562 29.4355 20.092 30.4953 20.4011 31.5063L19.8847 32.244L10.6641 30.031C13.3944 28.9614 16.6677 29.0376 19.5159 28.4082Z" fill="#8B87DC"/>
<path d="M108.476 40.3598C105.064 39.0214 101.685 39.0664 98.1484 39.8435C100.713 37.0724 103.039 32.8032 103.46 29L112.164 31.7293L108.476 40.3598Z" fill="#4C42B3"/>
<path d="M20.3994 31.5066C21.2987 34.448 22.7159 37.0773 23.8664 39.9158C21.2555 39.5272 18.5564 38.9319 15.8997 39.1781C14.9802 39.2634 11.6292 40.1238 10.8099 40.5059C9.75832 37.3519 9.01727 34.0426 9.03955 30.6951C9.54897 30.3971 10.119 30.2441 10.6624 30.0312L19.883 32.2442L20.3994 31.5066Z" fill="url(#paint14_linear_1178_69183)"/>
<path d="M36.7773 37.2612L36.1871 40.3594C33.1234 39.3122 29.8115 38.8037 26.5977 39.4742C28.9469 36.1778 33.405 36.279 36.7773 37.2612Z" fill="#D3B8DC"/>
<path d="M89.8898 36.8201C90.903 36.9166 92.6488 37.1103 93.5781 37.4102C93.7772 37.4745 94.7849 37.806 94.8321 37.8528C95.7758 38.7874 92.9913 43.5354 92.2503 44.4916C92.0315 44.7739 91.754 45.1139 91.5126 45.3768C86.8271 50.4801 78.5309 52.2131 71.8911 52.7533C72.0622 51.9164 71.2821 51.6989 71.1535 51.3518C71.07 51.1264 71.4879 49.1551 69.8257 49.6552C69.606 49.3959 69.7233 49.1719 69.6782 48.9176C69.6022 48.4891 69.3559 47.5672 68.793 47.4423C70.9822 43.7171 74.6617 41.6387 78.0136 39.1806C78.2994 38.9709 78.6368 38.9349 78.53 38.4429C79.1264 38.1697 79.1632 38.4554 79.1939 38.4429C79.355 38.377 79.1391 38.1037 79.4152 38.0003C82.7814 36.7386 86.3247 36.4806 89.8898 36.8201Z" fill="url(#paint15_linear_1178_69183)"/>
<path d="M40.7609 38.8826C43.279 42.4273 46.9824 44.8849 50.3504 47.5131C50.6533 48.0491 50.054 47.8131 49.7603 48.3245C49.6581 48.5026 49.6176 48.4629 49.6128 48.4721C45.7329 45.4213 40.9005 41.9686 36.1875 40.3579L36.7776 37.2598C38.2014 37.6745 39.4762 38.1417 40.7609 38.8826Z" fill="#BB96CD"/>
<path d="M78.5289 38.4453C78.6357 38.9373 78.2983 38.9733 78.0126 39.183C74.6607 41.6411 70.9811 43.7195 68.7919 47.4447C68.1233 47.2963 67.7034 48.172 67.3166 47.2971C67.3146 47.2513 67.3287 47.1911 67.3166 47.1496C67.6073 47.3615 67.6332 47.2166 67.833 47.0021C70.9233 43.6832 74.3404 40.3641 78.5289 38.4453Z" fill="#AD82C7"/>
<path d="M36.1844 40.3598C40.8974 41.9705 45.7298 45.4232 49.6097 48.474C48.8785 49.8391 49.5694 50.1508 50.4949 50.982C50.591 51.3808 50.2364 51.2408 50.1998 51.2771C49.745 50.5671 48.7002 51.1242 48.4294 51.6459C48.1298 52.2232 48.451 52.4924 48.4294 52.5311C48.312 52.7419 47.9997 53.016 47.9868 53.0474C47.9603 53.1125 47.4411 53.4173 47.3967 53.9326C44.9731 53.3621 42.5141 52.9022 40.094 52.3098C39.3557 52.129 37.9604 51.203 37.2171 51.1295C35.6042 50.3961 34.1264 49.4283 32.6437 48.474C29.6889 46.2737 27.7688 43.0795 26.1523 39.8434C26.1557 39.7428 26.5678 39.5127 26.5949 39.4746C29.8087 38.8041 33.1206 39.3126 36.1844 40.3598Z" fill="url(#paint16_linear_1178_69183)"/>
<path d="M60.5243 43.4578C59.7551 44.2403 60.5297 44.7025 60.7456 45.3757C60.1809 44.4172 59.4822 45.1279 59.4179 45.0806C59.2768 44.9771 58.8677 41.9163 57.2787 44.1217C56.7659 44.8334 55.8798 47.4296 57.2049 47.7362C58.6531 48.0712 58.4051 46.7122 58.6802 45.8183C58.9714 47.0761 60.3514 47.4119 60.9669 46.3346C61.045 46.1982 60.8558 45.6663 61.0407 45.5232C61.5758 45.109 61.809 47.0794 62.2209 47.4411C65.5851 46.5884 62.5256 45.077 62.4422 44.8593C62.4327 44.8343 62.7252 44.6199 62.5898 44.343C62.6846 44.3324 62.8084 44.3642 62.8848 44.343C63.953 44.0454 64.0105 44.3222 64.9503 44.638C63.9416 45.5215 64.8029 45.5182 64.8027 45.7445C64.802 46.8706 63.7188 46.9078 64.8027 48.105C65.8781 49.2928 67.3612 48.4278 67.3107 47.2936C67.6976 48.1685 68.1174 47.2927 68.786 47.4411C69.349 47.5661 69.5953 48.488 69.6712 48.9164C68.3175 48.4256 68.0124 48.5275 67.1632 49.6541C65.3076 47.9591 65.2691 50.4988 65.024 50.6868C64.9655 50.7316 64.419 50.0602 63.6962 50.2442C62.9787 50.4268 63.3926 51.5755 61.7046 50.8343C62.4197 49.2122 61.0255 49.3941 60.7456 49.064C60.2786 48.5129 60.2787 47.6137 59.5654 47.4411C58.1695 47.1033 58.3161 48.2903 58.1639 48.4001C57.9281 48.57 57.4749 48.4222 57.2049 48.6214C56.8576 48.8775 56.7816 49.4714 56.6148 49.5066C56.5171 49.5271 55.6799 48.4501 54.8444 49.2115C53.8914 50.0802 54.7419 51.6164 56.0247 51.2769C56.5474 51.1385 56.7054 50.2722 56.7623 50.2442C57.0555 50.0996 59.0434 51.4506 58.8277 48.9164L59.9342 48.9902C60.0357 49.3083 59.5077 50.6219 59.5654 50.6868C59.6607 50.794 61.1944 51.2176 61.262 51.2769C61.5686 51.546 61.8492 52.2958 61.7046 52.6785C61.6381 52.8545 59.8516 53.5093 59.7129 53.4899C59.5993 53.4739 58.659 52.5861 58.5327 52.6047C58.2248 52.6501 57.6841 54.0382 58.1639 54.3751C58.1152 54.3755 58.0644 54.3703 58.0163 54.3751C56.8904 54.4844 56.8783 54.217 56.246 55.4078C55.0554 54.699 53.816 56.1863 54.6231 57.3257C54.4167 57.2875 53.7214 57.2429 53.5904 57.4732C53.5156 57.4909 53.2316 57.7933 53.1478 57.9158C53.0558 57.9286 52.8864 57.8928 52.8528 57.9158C53.2571 57.5638 52.7346 56.2654 52.4102 56.1454L52.5577 55.9979C54.2584 56.8496 54.9642 53.6908 53.0003 53.7849C52.9776 53.6578 53.0376 53.4095 53.0003 53.3423C55.7917 52.9003 53.3873 49.16 51.9676 51.867C51.8456 51.7257 50.9985 51.4364 50.4923 50.9819C49.5668 50.1507 48.8759 49.8389 49.6071 48.4738C49.612 48.4647 49.6524 48.5044 49.7546 48.3263L51.2299 48.105C50.6025 46.638 51.0132 46.4955 52.1151 45.8183C52.5047 45.5789 52.8414 45.3497 53.2954 45.2282C53.2601 45.2575 53.3373 45.5555 53.2954 45.597C52.9644 45.9238 52.2333 46.0197 52.1151 46.6297C51.9058 47.7104 52.8405 47.8743 52.8528 47.9575C52.8746 48.1053 50.8798 49.8566 52.6315 50.3917C54.3617 50.9203 54.1802 49.0029 54.3281 48.8427C54.4368 48.7248 56.0475 48.8073 56.0984 47.6624C56.1347 46.8439 55.1604 46.5657 55.0657 46.3346C55.0302 46.2478 55.3266 44.9915 54.6231 44.638C55.3271 44.1959 56.2082 43.4743 56.9099 43.1627C57.2154 43.027 57.713 43.3404 57.795 43.3103C57.9437 43.2557 58.0469 42.7845 58.6065 42.5726C59.7262 42.1486 59.9415 42.6328 60.5243 43.4578ZM62.8111 47.5887C61.5702 47.9706 62.2658 50.4836 63.8438 49.8016C65.151 49.2366 64.2204 47.1548 62.8111 47.5887ZM55.287 51.7195C54.0016 52.0425 54.3213 54.4366 56.1722 53.9325C57.3507 53.6114 56.9332 51.306 55.287 51.7195Z" fill="#FBB357"/>
<path d="M62.0012 43.3121C62.3621 43.4917 62.4709 44.0988 62.5913 44.3448C62.7268 44.6218 62.4342 44.8361 62.4438 44.8612C62.5272 45.0788 65.5866 46.5903 62.2225 47.443C61.8106 47.0812 61.5774 45.1108 61.0423 45.5251C60.8574 45.6682 61.0465 46.2 60.9685 46.3365C60.353 47.4138 58.973 47.078 58.6818 45.8202C58.4066 46.714 58.6546 48.0731 57.2065 47.738C55.8814 47.4315 56.7674 44.8352 57.2802 44.1236C58.8693 41.9181 59.2784 44.9789 59.4194 45.0825C59.4838 45.1297 60.1825 44.4191 60.7472 45.3776C60.5312 44.7044 59.7567 44.2422 60.5259 43.4597C60.8385 43.1417 61.625 43.1249 62.0012 43.3121Z" fill="#FED36B"/>
<path d="M32.6434 48.4757C34.1261 49.4301 35.6039 50.3979 37.2169 51.1313C30.9159 50.508 22.2723 54.1742 18.4805 59.2454C17.4522 59.3388 17.8718 60.2144 16.7102 59.8356C16.1937 59.6671 15.1401 58.8537 14.6447 58.5078C13.909 57.9939 12.8015 57.0608 12.1367 56.4424C10.8938 55.286 9.26017 52.7395 8.30093 51.9427C8.0907 51.768 8.05293 51.6532 7.71081 51.7214C7.43832 50.6562 4.40893 47.029 4.31761 46.3365C4.29754 46.1843 4.53418 45.8534 4.61267 45.6726C10.9492 42.369 20.9372 42.9085 27.5536 45.3776C29.7812 46.2088 30.7278 47.2425 32.6434 48.4757Z" fill="url(#paint17_linear_1178_69183)"/>
<path d="M115.26 45.9636C115.55 46.265 115.358 47.047 115.85 46.7012C115.662 48.2074 113.09 50.6105 112.162 51.791C111.985 52.0165 111.59 52.4397 111.867 52.75C111.02 52.5833 109.669 54.1585 108.843 54.6679C105.604 56.6653 104.256 57.0301 100.581 57.766C100.269 57.8284 99.621 57.8659 99.7695 58.3561C97.6995 57.7876 97.5023 57.4369 95.4911 58.2086C98.1656 56.2783 101.071 53.8516 102.278 50.7583C98.9954 48.3841 95.5177 46.2547 91.5078 45.3735C91.7492 45.1106 92.0267 44.7705 92.2455 44.4883L92.1717 45.3735C92.4685 45.5846 93.0777 45.323 93.2044 45.3735C93.8935 45.6476 97.3115 47.3943 97.7779 47.4389C99.4641 47.5998 103.181 46.6853 105.154 46.5537C108.582 46.3252 111.846 46.5221 115.26 45.9636Z" fill="url(#paint18_linear_1178_69183)"/>
<path d="M54.6304 44.6406C55.3338 44.9941 55.0374 46.2503 55.073 46.3372C55.1677 46.5683 56.142 46.8465 56.1057 47.665C56.0548 48.8098 54.444 48.7274 54.3353 48.8452C54.1875 49.0055 54.3689 50.9229 52.6387 50.3943C50.8871 49.8592 52.8818 48.1079 52.86 47.9601C52.8477 47.8769 51.913 47.7129 52.1223 46.6323C52.2405 46.0222 52.9717 45.9264 53.3026 45.5996C53.3445 45.5581 53.2673 45.2601 53.3026 45.2307C53.9445 44.6952 54.3925 44.7899 54.6304 44.6406Z" fill="#FED36D"/>
<path d="M67.3141 47.1486C67.3262 47.1901 67.3121 47.2503 67.3141 47.2962C67.3646 48.4304 65.8815 49.2954 64.8061 48.1076C63.7222 46.9104 64.8054 46.8732 64.8061 45.7471C64.8063 45.5208 63.945 45.524 64.9536 44.6406C65.388 44.7867 66.0535 44.5717 66.429 45.3045C66.7454 45.9219 66.4071 46.2905 66.429 46.3372C66.5288 46.5504 67.2975 47.091 67.3141 47.1486Z" fill="#FEC756"/>
<path d="M95.4916 58.2101C93.9024 58.82 92.4162 59.9699 90.6231 59.9805C87.9868 58.1858 83.5117 56.325 80.4435 55.4071C77.4644 54.5157 74.5973 53.907 71.4441 54.2268C71.3916 54.0493 71.1588 53.809 71.1491 53.7842C71.1249 53.7224 71.1617 53.5823 71.1491 53.4892C71.3143 53.449 71.8675 52.8456 71.8867 52.7515C78.5265 52.2113 86.8227 50.4782 91.5082 45.375C95.5181 46.2562 98.9959 48.3857 102.278 50.7599C101.072 53.8531 98.166 56.2799 95.4916 58.2101Z" fill="url(#paint19_linear_1178_69183)"/>
<path d="M61.7094 50.8363C61.6967 50.8649 61.2507 51.0817 61.2668 51.2789C61.1992 51.2196 59.6655 50.796 59.5702 50.6888C59.5125 50.6239 60.0405 49.3103 59.939 48.9922L58.8325 48.9184C59.0482 51.4525 57.0603 50.1016 56.7671 50.2462C56.7102 50.2742 56.5522 51.1405 56.0295 51.2789C54.7467 51.6184 53.8962 50.0821 54.8492 49.2135C55.6847 48.4521 56.5219 49.529 56.6196 49.5085C56.7865 49.4734 56.8624 48.8795 57.2097 48.6234C57.4797 48.4242 57.9329 48.572 58.1687 48.4021C58.3209 48.2923 58.1743 47.1053 59.5702 47.4431C60.2835 47.6157 60.2834 48.5149 60.7504 49.0659C61.0303 49.3961 62.4245 49.2142 61.7094 50.8363Z" fill="#FED470"/>
<path d="M62.8123 47.5883C64.2217 47.1544 65.1523 49.2362 63.8451 49.8013C62.2671 50.4833 61.5715 47.9703 62.8123 47.5883Z" fill="#FEC959"/>
<path d="M69.6761 48.9163C69.7212 49.1706 69.6039 49.3946 69.8236 49.6539C68.8294 49.9531 69.8691 51.2405 69.9711 51.7193C69.8348 51.9166 69.055 53.1848 69.086 53.2684C69.2102 53.6048 69.7717 53.4599 69.9711 53.0471C70.1364 53.4494 70.7886 53.5779 71.1514 53.4897C71.1641 53.5828 71.1272 53.723 71.1514 53.7848C70.8733 54.3508 69.9552 53.9069 69.8974 53.9323C69.7991 53.9755 69.35 55.453 68.7909 55.7027C68.7567 55.6668 68.0149 55.3864 67.9057 55.2601C66.6681 53.8274 68.5554 53.6207 67.6844 52.7521C66.6225 54.874 64.2518 52.6011 65.9878 51.4243C66.053 51.38 66.5104 51.4908 66.873 51.2768C67.08 52.1222 68.1921 50.999 68.2008 50.9079C68.2231 50.6738 67.4889 50.4285 67.4631 50.3916C67.3022 50.1622 67.3239 49.7963 67.1681 49.6539C68.0173 48.5274 68.3223 48.4254 69.6761 48.9163Z" fill="#FAAA36"/>
<path d="M67.1665 49.6544C67.3223 49.7968 67.3006 50.1626 67.4615 50.392C67.4263 50.8028 67.2194 51.0719 66.8714 51.2772C66.5088 51.4913 66.0514 51.3805 65.9862 51.4248L65.101 50.9084C65.5523 51.5718 64.6273 52.0928 64.6585 52.3837C64.67 52.4915 65.361 52.8677 65.2486 53.5639C65.0019 55.0928 62.4238 54.7883 62.9619 52.9001C62.7267 53.5144 61.42 53.2285 61.2653 53.4164C61.1735 53.5279 61.6903 54.0082 61.7078 54.1541C61.741 54.4288 60.8502 56.0802 61.7816 55.7031C62.0936 55.5768 63.3401 52.696 64.2159 55.9982C63.9053 56.2645 63.5478 56.5253 63.3307 56.8834C63.2284 56.8226 62.3803 56.8732 62.0767 56.4408C62.1816 57.8224 60.3128 58.2346 59.7899 57.0309C59.3668 56.0569 60.246 55.568 60.2325 55.4818C60.2237 55.4249 59.549 54.9563 59.3474 54.7442C59.2882 54.6819 59.4372 54.3554 59.2736 54.2278C59.2296 54.1935 58.4492 54.3724 58.1671 54.3754C57.6873 54.0385 58.228 52.6504 58.5359 52.605C58.6622 52.5864 59.6026 53.4742 59.7162 53.4902C59.8549 53.5097 61.6413 52.8548 61.7078 52.6788C61.8524 52.2961 61.5718 51.5463 61.2653 51.2772C61.2492 51.08 61.6952 50.8633 61.7078 50.8346C63.3959 51.5758 62.9819 50.4272 63.6995 50.2445C64.4223 50.0605 64.9687 50.732 65.0273 50.6871C65.2723 50.4991 65.3108 47.9594 67.1665 49.6544ZM63.4044 52.1624C63.2267 52.2267 63.336 52.5523 63.552 52.4575C63.7289 52.3797 63.6284 52.0813 63.4044 52.1624Z" fill="#FEC255"/>
<path d="M71.887 52.7514C71.8678 52.8455 71.3146 53.4489 71.1493 53.489C70.7865 53.5772 70.1343 53.4487 69.9691 53.0464C70.1275 52.7183 70.0489 52.0931 69.9691 51.7187C69.867 51.2398 68.8273 49.9524 69.8215 49.6532C71.4838 49.1531 71.0658 51.1244 71.1493 51.3498C71.278 51.697 72.0581 51.9144 71.887 52.7514Z" fill="#FDC351"/>
<path d="M66.8711 51.2758C67.2191 51.0704 67.426 50.8013 67.4612 50.3906C67.487 50.4275 68.2211 50.6729 68.1989 50.907C68.1902 50.998 67.0781 52.1213 66.8711 51.2758Z" fill="#ED8C37"/>
<path d="M53.0054 53.3412C52.9418 53.2269 52.3846 53.0206 52.1202 52.6773C52.0644 52.6049 51.9997 51.8972 51.9727 51.8659C53.3923 49.1589 55.7968 52.8992 53.0054 53.3412Z" fill="#FED06A"/>
<path d="M65.9858 51.4265C64.2498 52.6034 66.6205 54.8762 67.6824 52.7543C68.5534 53.6229 66.6661 53.8296 67.9037 55.2623C66.6638 55.7217 67.0723 56.6323 66.9447 57.3277C63.8546 57.3894 66.7525 56.2634 66.871 55.6311C67.0932 54.4448 65.4351 53.3887 64.8055 54.5984C64.5291 55.1297 64.778 55.7885 64.658 56.0737C64.5241 56.3924 64.2324 55.9853 64.2154 56C63.3397 52.6978 62.0932 55.5786 61.7812 55.7049C60.8498 56.082 61.7406 54.4305 61.7074 54.1558C61.6899 54.0099 61.1731 53.5297 61.2648 53.4182C61.4196 53.2302 62.7263 53.5161 62.9614 52.9018C62.4234 54.7901 65.0015 55.0946 65.2481 53.5657C65.3606 52.8695 64.6695 52.4933 64.658 52.3855C64.6269 52.0945 65.5519 51.5736 65.1006 50.9102L65.9858 51.4265Z" fill="#F19341"/>
<path d="M50.2012 51.2812C50.1821 51.3001 50.2122 51.4823 50.2012 51.5763C49.7563 51.6 48.2178 52.7968 48.9472 53.1991C50.0686 53.8176 50.7148 52.8869 50.7914 51.8713C51.8673 52.496 51.8677 53.249 51.0127 54.0843C50.8029 54.2892 50.0264 53.7594 51.0864 55.0432C51.2027 55.5087 49.2631 55.9134 49.0948 55.8547C48.9258 55.7957 48.1026 53.3986 47.9883 53.0516C48.0011 53.0202 48.3134 52.7461 48.4309 52.5352C48.4524 52.4966 48.1312 52.2273 48.4309 51.6501C48.7016 51.1284 49.7464 50.5713 50.2012 51.2812Z" fill="#FDBD54"/>
<path d="M51.973 51.8657C52 51.8969 52.0647 52.6046 52.1205 52.6771C52.3849 53.0204 52.9421 53.2266 53.0057 53.341C53.043 53.4081 52.9829 53.6564 53.0057 53.7835C51.7744 53.8426 51.7146 55.5716 52.5631 55.9965L52.4155 56.144C51.5029 55.8065 50.3112 56.8388 50.7927 57.7669C50.3579 58.831 49.8509 56.7197 49.0223 57.2505C48.0612 57.8663 49.5926 58.7847 49.76 58.9471L49.3174 59.3897C49.2119 59.0281 47.8684 57.2365 47.8421 57.103C47.6696 56.2238 48.6591 55.5875 48.4322 55.1851C48.3042 54.958 47.2855 55.2541 47.3995 53.9311C47.4439 53.4158 47.9631 53.111 47.9896 53.0459C48.104 53.3929 48.9272 55.79 49.0961 55.849C49.2644 55.9077 51.204 55.503 51.0878 55.0376C50.0278 53.7537 50.8042 54.2835 51.014 54.0786C51.8691 53.2433 51.8687 52.4903 50.7927 51.8657C50.6773 51.7987 50.2607 51.5675 50.2026 51.5706C50.2135 51.4766 50.1834 51.2944 50.2026 51.2755C50.2392 51.2392 50.5938 51.3792 50.4977 50.9805C51.0038 51.435 51.8509 51.7243 51.973 51.8657Z" fill="#F59E45"/>
<path d="M47.3988 53.9347C47.2848 55.2577 48.3034 54.9616 48.4315 55.1887C48.6584 55.5911 47.6689 56.2274 47.8414 57.1066C47.8676 57.2401 49.2112 59.0317 49.3167 59.3933C49.5749 60.2786 49.1638 60.6491 49.1692 60.7211C43.5438 62.6857 38.5861 64.8774 32.4982 64.9994C27.39 65.1018 21.2579 63.9644 17.5977 60.2047C17.9163 59.899 18.2174 59.6007 18.4828 59.2457C22.2747 54.1745 30.9182 50.5083 37.2192 51.1316C37.9625 51.205 39.3578 52.1311 40.096 52.3118C42.5161 52.9043 44.9752 53.3642 47.3988 53.9347Z" fill="url(#paint20_linear_1178_69183)"/>
<path d="M50.7913 51.8674C50.7147 52.883 50.0685 53.8136 48.9472 53.1951C48.2178 52.7928 49.7562 51.596 50.2012 51.5723C50.2593 51.5692 50.6759 51.8004 50.7913 51.8674Z" fill="#FED569"/>
<path d="M12.1359 56.4401C7.73067 56.8638 3.44624 57.894 -0.699219 59.3907C-0.156307 58.1943 6.52579 51.742 7.71001 51.7191C8.05214 51.651 8.0899 51.7658 8.30013 51.9404C9.25938 52.7373 10.893 55.2838 12.1359 56.4401Z" fill="#9187E2"/>
<path d="M55.2925 51.7194C56.9386 51.3059 57.3561 53.6113 56.1777 53.9324C54.3268 54.4365 54.0071 52.0423 55.2925 51.7194Z" fill="#FED778"/>
<path d="M69.9681 51.7207C70.0479 52.0951 70.1266 52.7204 69.9681 53.0485C69.7687 53.4613 69.2072 53.6061 69.0829 53.2698C69.0519 53.1861 69.8318 51.918 69.9681 51.7207Z" fill="#EF8E29"/>
<path d="M63.4053 52.1642C63.6293 52.0831 63.7297 52.3816 63.5528 52.4593C63.3368 52.5542 63.2275 52.2286 63.4053 52.1642Z" fill="#FBA147"/>
<path d="M111.869 52.7545C112.406 52.8601 114.778 54.7866 115.262 55.2625C115.703 55.6958 118.459 59.1223 118.508 59.4671C118.664 60.5612 116.705 63.1232 116 63.9668L117.18 61.9751L117.033 61.4588L118.066 60.3523C116.093 59.8511 114.107 60.4697 112.091 60.4261L106.558 61.3112C104.701 60.1036 101.92 58.9506 99.7718 58.3606C99.6232 57.8704 100.272 57.8329 100.583 57.7705C104.258 57.0346 105.606 56.6698 108.845 54.6724C109.671 54.163 111.022 52.5878 111.869 52.7545Z" fill="url(#paint21_linear_1178_69183)"/>
<path d="M53.0048 53.7872C54.9687 53.6931 54.263 56.8519 52.5622 56.0002C51.7138 55.5753 51.7735 53.8462 53.0048 53.7872Z" fill="#FEC358"/>
<path d="M71.4419 54.2277C71.535 54.5426 72.0435 55.9757 72.032 56.0719C71.955 56.7147 70.9218 56.968 70.5567 57.3259C70.2658 57.6112 70.642 57.8149 70.4092 57.916C70.0827 57.6046 68.8253 57.4405 68.4913 57.916L68.3438 57.7685C69.3067 57.2468 69.5733 56.5276 68.7863 55.7031C69.3455 55.4534 69.7946 53.9759 69.8928 53.9327C69.9507 53.9073 70.8687 54.3512 71.1468 53.7852C71.1566 53.8099 71.3894 54.0503 71.4419 54.2277Z" fill="#EA831E"/>
<path d="M67.9016 55.2599C68.0107 55.3862 68.7525 55.6667 68.7867 55.7025C69.5737 56.527 69.3071 57.2463 68.3442 57.7679C68.1204 57.8892 67.8281 57.5742 67.754 57.6942C67.6937 57.792 68.2366 59.3301 66.9426 59.5383C65.2676 59.8078 65.9851 57.0779 64.5084 58.358C64.3757 58.2105 63.6155 57.4484 63.4757 57.3253C63.4323 57.2871 63.6015 57.045 63.3281 56.8827C63.5453 56.5247 63.9028 56.2639 64.2133 55.9976C64.2303 55.983 64.5219 56.39 64.6559 56.0713C64.7758 55.7862 64.527 55.1273 64.8034 54.596C65.4329 53.3863 67.091 54.4424 66.8689 55.6287C66.7504 56.2611 63.8524 57.387 66.9426 57.3253C67.0702 56.6299 66.6617 55.7193 67.9016 55.2599Z" fill="#F8A02B"/>
<path d="M59.79 57.0301C59.247 56.9204 59.033 57.8092 59.0524 58.2104C58.5196 58.3977 57.5088 58.2695 57.0607 58.3579C56.9397 58.3818 57.034 58.6299 56.9132 58.653C56.3331 58.7633 55.6915 58.0236 55.1428 59.3906C55.4749 58.244 54.8305 57.1806 53.5938 57.4727C53.7248 57.2424 54.4201 57.287 54.6265 57.3252C55.0154 57.3972 55.2336 57.7666 55.8805 57.6202C56.375 57.5084 56.453 57.0247 56.6919 56.7351C57.4742 55.7864 57.0724 57.0922 58.241 56.8826C59.6773 56.6249 58.3994 55.0157 58.0197 54.3746C58.0678 54.3698 58.1185 54.375 58.1672 54.3746C58.4493 54.3716 59.2297 54.1927 59.2737 54.227C59.4373 54.3547 59.2883 54.6811 59.3474 54.7434C59.5491 54.9555 60.2238 55.4241 60.2326 55.481C60.246 55.5672 59.3669 56.0561 59.79 57.0301Z" fill="#F79F47"/>
<path d="M80.4431 55.4071C80.7799 56.493 79.0534 57.2092 78.8203 57.5463C78.4152 58.1322 78.4909 59.8298 77.6401 59.9806C76.2426 59.4518 74.2002 58.6144 72.8453 58.2102C72.546 58.121 72.1848 57.9805 71.8864 58.2102C71.6431 57.7011 70.9901 57.5953 70.5586 57.325C70.9237 56.9671 71.9569 56.7138 72.0339 56.071C72.0454 55.9748 71.5369 54.5417 71.4438 54.2269C74.5969 53.907 77.464 54.5158 80.4431 55.4071Z" fill="#B27BD0"/>
<path d="M58.0204 54.375C58.4001 55.0162 59.678 56.6253 58.2417 56.883C57.0731 57.0927 57.4749 55.7869 56.6926 56.7355C56.6061 56.5533 56.3807 55.4856 56.25 55.4077C56.8823 54.217 56.8944 54.4843 58.0204 54.375Z" fill="#FECB5F"/>
<path d="M56.2479 55.4068C56.3786 55.4847 56.6041 56.5523 56.6905 56.7345C56.4517 57.0241 56.3736 57.5079 55.8791 57.6197C55.2322 57.7661 55.014 57.3966 54.6251 57.3247C53.8179 56.1853 55.0573 54.698 56.2479 55.4068Z" fill="#FFC459"/>
<path d="M90.6233 59.9797C92.5825 61.3134 97.2225 66.1273 97.7048 68.3889C97.1049 68.2088 96.9363 68.6052 96.3032 68.3889C94.0872 67.6316 90.4684 65.3225 88.0415 64.2581C84.6389 62.7658 81.113 61.2934 77.6406 59.9797C78.4914 59.8289 78.4157 58.1313 78.8209 57.5454C79.054 57.2083 80.7805 56.4921 80.4437 55.4062C83.5119 56.3242 87.9871 58.185 90.6233 59.9797Z" fill="#D9B2EB"/>
<path d="M52.4132 56.1436C52.7376 56.2635 53.2601 57.5619 52.8557 57.9139C52.4641 58.183 52.6654 58.1161 52.1181 58.3565C51.6892 58.4051 50.9933 58.1578 50.7903 57.7664C50.3088 56.8383 51.5005 55.806 52.4132 56.1436Z" fill="#FDB543"/>
<path d="M12.1364 56.4414C12.8012 57.0599 13.9087 57.993 14.6444 58.5068L-0.698755 59.7608C0.896049 60.8262 2.72129 61.2276 4.53857 61.7525L11.9889 62.7852C10.6395 63.8474 8.36699 66.1179 7.41542 67.5062C3.99301 65.7554 1.01039 63.1896 -0.993815 59.9084C-1.0212 59.6993 -0.794605 59.6033 -0.698755 59.392C3.4467 57.8953 7.73113 56.8651 12.1364 56.4414Z" fill="#6D65C4"/>
<path d="M63.3304 56.884C63.6037 57.0463 63.4345 57.2884 63.4779 57.3266C61.2168 57.5426 61.6993 59.5741 63.9205 59.4658C63.9056 60.3455 62.0195 59.6456 63.0353 60.8673C62.6378 60.9098 62.7509 62.1508 62.5927 62.6377C62.2501 62.9152 61.6044 63.0848 61.2649 63.5229C61.232 63.3075 60.9401 62.8481 60.8223 62.7852C60.4066 62.2534 60.7213 61.0466 60.6748 60.8673C65.228 59.8929 59.1831 56.7869 60.0847 59.9821C59.8954 59.9591 59.8671 59.9317 59.7896 60.1297C59.7758 59.7473 59.248 59.1133 59.1995 58.9494C59.1842 58.8978 59.0537 58.2494 59.052 58.2118C59.0326 57.8106 59.2466 56.9218 59.7896 57.0315C60.3125 58.2352 62.1812 57.823 62.0763 56.4414C62.38 56.8738 63.2281 56.8232 63.3304 56.884Z" fill="#EF882B"/>
<path d="M50.7921 57.7676C50.9951 58.159 51.691 58.4062 52.1199 58.3577C52.1048 58.3643 51.9892 58.5915 51.9724 58.6528C51.5053 58.6137 50.9243 59.368 50.4971 59.5379C50.1616 59.1291 49.9025 59.0866 49.7594 58.9478C49.592 58.7854 48.0606 57.867 49.0218 57.2512C49.8503 56.7204 50.3573 58.8317 50.7921 57.7676Z" fill="#FCAD3D"/>
<path d="M63.4773 57.3242C63.6172 57.4473 64.3774 58.2094 64.51 58.3569C64.8092 58.6896 65.2471 59.6618 65.3214 59.6847C65.3644 59.6978 65.8188 59.3932 66.2066 59.5372C67.3684 59.9684 67.0104 62.0124 65.6165 61.8977C65.1769 61.8615 64.7868 61.1758 64.7313 61.16C64.2257 61.0165 63.756 61.7326 63.0347 60.8649C62.019 59.6432 63.905 60.3431 63.9199 59.4634C61.6987 59.5717 61.2163 57.5402 63.4773 57.3242Z" fill="#F49121"/>
<path d="M71.8866 58.2094C72.5902 59.6819 71.3749 59.9269 70.2638 59.9798C70.2684 59.7744 70.1089 59.842 69.9688 59.8322C70.4503 59.3157 71.0978 58.5691 70.4113 57.9143C70.6441 57.8133 70.2679 57.6095 70.5589 57.3242C70.9904 57.5945 71.6434 57.7003 71.8866 58.2094Z" fill="#DC6D23"/>
<path d="M59.0532 58.2104C59.055 58.248 59.1854 58.8964 59.2007 58.9481C57.1767 58.7576 57.7914 59.4547 57.2828 60.2758C56.256 61.9341 55.1374 59.5943 54.9961 59.5382C54.9051 59.502 54.2129 59.984 53.6683 59.8333C52.9726 59.6406 52.7688 58.4748 53.152 57.9154C53.2358 57.7929 53.5198 57.4905 53.5946 57.4728C54.8313 57.1807 55.4757 58.2441 55.1436 59.3907C55.6923 58.0236 56.3339 58.7634 56.914 58.653C57.0348 58.63 56.9406 58.3818 57.0615 58.3579C57.5096 58.2696 58.5205 58.3978 59.0532 58.2104Z" fill="#FDB23E"/>
<path d="M68.3446 57.7656L68.4922 57.9131C68.0207 58.5845 68.4039 59.1388 68.9348 59.536C67.9298 59.8785 67.0822 60.4179 67.902 61.5276C67.9603 61.6065 68.3054 61.685 68.3446 61.7489C67.5251 62.0227 66.9639 61.8421 66.8693 62.9292C65.1816 62.1129 65.3179 64.3007 65.1727 64.4045C65.0105 64.5204 64.392 64.1895 63.9187 64.6258C63.3053 65.1911 63.8519 66.1463 64.5088 66.4699C64.3343 66.5817 63.7796 67.1237 63.6237 67.2075C61.8728 68.1485 62.8599 67.5237 61.7795 67.3551C61.4927 67.3104 61.2707 68.0063 60.5255 67.06C61.285 66.1922 60.7999 65.4583 60.2305 64.6995C60.6248 64.4688 61.0442 64.6635 61.2632 64.1094C63.0014 65.7861 62.9644 64.4213 63.845 63.8143C64.0095 63.701 64.7741 63.9625 65.099 63.4455C65.6954 62.4963 64.7123 61.0394 63.5499 61.6014C63.2827 61.7306 62.984 62.3157 62.591 62.6341C62.7491 62.1472 62.6361 60.9062 63.0335 60.8637C63.7548 61.7314 64.2246 61.0152 64.7301 61.1588C64.7856 61.1746 65.1757 61.8603 65.6153 61.8964C67.0092 62.0112 67.3672 59.9672 66.2054 59.536C65.8176 59.392 65.3632 59.6966 65.3203 59.6835C65.2459 59.6606 64.808 58.6884 64.5088 58.3557C65.9856 57.0756 65.268 59.8055 66.9431 59.536C68.2371 59.3278 67.6942 57.7896 67.7545 57.6918C67.8286 57.5719 68.1208 57.8869 68.3446 57.7656ZM62.0746 65.1421C61.609 65.5428 61.4643 66.9057 61.9271 67.2075C63.1932 68.0333 64.2449 65.1262 62.0746 65.1421Z" fill="#D75D15"/>
<path d="M70.4124 57.9154C71.0988 58.5702 70.4513 59.3168 69.9698 59.8333C69.8745 59.8267 69.7603 59.8524 69.6747 59.8333C69.4185 59.7762 69.146 59.6945 68.9371 59.5383C68.4063 59.1411 68.023 58.5868 68.4945 57.9154C68.8285 57.4399 70.0859 57.604 70.4124 57.9154Z" fill="#F69118"/>
<path d="M99.7694 58.3568C101.917 58.9467 104.699 60.0997 106.556 61.3074C108.612 62.6443 110.532 64.7826 112.31 66.4709C112.464 66.7331 112.695 66.8313 112.752 66.9135C114.082 68.8192 115.685 70.5608 116.44 72.8147C116.251 73.1043 116.075 73.1834 115.85 73.4049C115.56 73.6905 114.813 74.212 114.449 74.4376C112.736 75.499 110.641 75.923 108.916 76.9456C106.913 76.9764 104.819 77.6731 102.72 77.6832C100.393 77.6946 97.9299 77.1976 95.7861 76.3555C93.8676 74.3442 91.4563 72.6865 89.5898 70.6018C90.979 70.5883 96.6948 69.9127 97.6302 69.1265C98.0609 68.7646 97.7669 68.6833 97.704 68.3888C97.2217 66.1272 92.5818 61.3133 90.6226 59.9796C92.4156 59.969 93.9019 58.8191 95.4911 58.2092C97.5022 57.4375 97.6994 57.7882 99.7694 58.3568Z" fill="url(#paint22_linear_1178_69183)"/>
<path d="M53.1529 57.9181C52.7698 58.4775 52.9735 59.6433 53.6693 59.836C54.2138 59.9867 54.906 59.5048 54.997 59.5409C55.1384 59.597 56.2569 61.9368 57.2838 60.2785C57.9962 60.4636 58.2544 61.2928 58.9066 61.1637C59.8309 62.5079 59.115 62.6924 58.3165 63.6717C57.9425 63.0412 56.7712 62.9288 56.3986 63.6717H56.251C57.3678 62.0485 56.3643 62.1782 55.6609 61.385C55.6268 61.3467 55.7301 60.6969 55.2921 60.4261C54.8364 60.1441 53.7646 60.1351 53.5955 60.7949C53.2762 62.0414 54.8353 61.7766 54.4807 63.0816H54.3331C54.1952 62.2866 53.2119 62.0556 52.5628 62.344C51.5009 60.6663 52.5505 60.6562 52.7103 60.0573C52.8208 59.6431 52.548 58.7038 51.9727 58.6557C51.9895 58.5945 52.1051 58.3673 52.1202 58.3607C52.6675 58.1202 52.4661 58.1872 52.8578 57.9181C52.8915 57.895 53.0608 57.9309 53.1529 57.9181Z" fill="#EA8025"/>
<path d="M77.6404 59.9832C81.1128 61.297 84.6387 62.7693 88.0413 64.2616C90.4682 65.326 94.087 67.6352 96.303 68.3924C96.9361 68.6087 97.1047 68.2123 97.7046 68.3924C97.7674 68.6869 98.0614 68.7682 97.6308 69.1301C96.6953 69.9163 90.9795 70.592 89.5904 70.6054C85.6248 70.6436 82.8329 69.5073 79.4108 67.6548C75.9674 65.7907 73.0631 63.2557 70.1164 60.7208C70.1215 60.4413 70.1056 60.3643 69.9688 60.1307C69.9643 59.9277 70.1218 59.99 70.2639 59.9832C71.375 59.9304 72.5903 59.6853 71.8867 58.2128C72.1852 57.9831 72.5464 58.1236 72.8457 58.2128C74.2006 58.6171 76.243 59.4544 77.6404 59.9832Z" fill="url(#paint23_linear_1178_69183)"/>
<path d="M16.7094 59.8336C15.1028 60.8355 13.4938 61.5991 11.9884 62.7842L4.53811 61.7515C2.72083 61.2266 0.895585 60.8252 -0.699219 59.7599L14.6439 58.5059C15.1393 58.8518 16.1929 59.6652 16.7094 59.8336Z" fill="#7969D0"/>
<path d="M60.6756 60.8656C60.6024 60.5838 60.2309 60.496 60.0854 59.9804C59.1839 56.7852 65.2288 59.8912 60.6756 60.8656Z" fill="#FCA833"/>
<path d="M51.9744 58.6538C52.5498 58.7019 52.8225 59.6412 52.712 60.0553C52.5523 60.6543 51.5026 60.6644 52.5645 62.3421C52.2271 62.492 51.8235 63.1209 51.8269 63.5223C51.7153 63.4639 50.56 63.8129 50.3516 62.6371C50.3355 62.5461 50.3488 62.4368 50.3516 62.3421C50.3775 61.4725 51.2512 60.7434 51.2367 60.6455C51.2314 60.609 50.7559 60.4416 50.6466 60.2029C50.6096 60.122 50.5544 59.6064 50.4991 59.539C50.9263 59.369 51.5073 58.6147 51.9744 58.6538Z" fill="#FDB436"/>
<path d="M59.1991 58.9457C59.2477 59.1096 59.7754 59.7436 59.7893 60.126C59.5966 60.6183 59.7108 60.9989 58.9041 61.1587C58.2519 61.2878 57.9937 60.4585 57.2812 60.2735C57.7898 59.4524 57.1752 58.7553 59.1991 58.9457Z" fill="#F79A2E"/>
<path d="M50.4958 59.5393C50.5511 59.6068 50.6063 60.1224 50.6433 60.2032C50.7526 60.4419 51.2281 60.6094 51.2334 60.6458C51.2479 60.7438 50.3742 61.4729 50.3483 62.3424C49.4823 62.035 49.2353 61.6297 49.168 60.7196C49.1627 60.6476 49.5737 60.2771 49.3156 59.3918L49.7581 58.9492C49.9012 59.088 50.1603 59.1305 50.4958 59.5393Z" fill="#EA802D"/>
<path d="M18.4825 59.2441C18.2171 59.5991 17.916 59.8974 17.5973 60.2031C21.2576 63.9628 27.3897 65.1002 32.4979 64.9978C29.6342 67.1329 25.614 69.3972 23.7936 72.5956C22.456 74.9459 22.6442 75.3792 24.9739 76.6527C24.3904 77.5171 23.8457 78.3875 23.351 79.3083C20.969 79.4453 18.6032 79.9379 16.1958 79.7509C15.3667 79.6864 12.2997 79.119 11.5486 78.8657C10.8369 78.6256 7.45477 76.7938 6.60633 76.2101C4.15437 74.5237 4.08459 74.5715 5.20479 71.7105C5.62599 70.6345 6.91039 68.246 7.41774 67.5058C8.36931 66.1176 10.6419 63.8471 11.9912 62.7849C13.4966 61.5998 15.1056 60.8361 16.7122 59.8343C17.8738 60.2131 17.4542 59.3375 18.4825 59.2441Z" fill="url(#paint24_linear_1178_69183)"/>
<path d="M69.6742 59.8361C69.6453 60.0122 69.9588 60.1131 69.9693 60.1311C70.106 60.3647 70.122 60.4417 70.1168 60.7213C70.0994 61.6544 69.478 61.6699 68.789 62.049C68.6676 61.858 68.3746 61.7999 68.3465 61.754C68.3072 61.6901 67.9621 61.6116 67.9039 61.5327C67.084 60.423 67.9316 59.8836 68.9366 59.541C69.1455 59.6973 69.418 59.779 69.6742 59.8361Z" fill="#F48814"/>
<path d="M69.9688 59.8352C70.109 59.845 70.2685 59.7774 70.2639 59.9828C70.1218 59.9896 69.9642 59.9273 69.9688 60.1303C69.9583 60.1123 69.6448 60.0114 69.6738 59.8352C69.7593 59.8543 69.8735 59.8286 69.9688 59.8352Z" fill="#AA5675"/>
<path d="M60.0879 59.9808C60.2333 60.4964 60.6048 60.5842 60.678 60.866C60.7245 61.0453 60.4098 62.2521 60.8255 62.7839C59.7021 62.1851 59.4559 62.977 59.3502 63.8166C59.2549 64.5742 59.5243 64.7407 59.4978 64.9231C59.4562 65.2084 58.6592 65.3261 58.9076 66.1771C58.3585 66.0399 58.5062 66.5166 58.17 66.7672C58.1474 66.7293 58.1909 66.5955 58.0225 66.6197C58.4119 65.7833 57.6989 65.5671 57.7274 65.3657C57.751 65.1987 58.9497 64.735 58.3175 63.6691C59.1161 62.6898 59.8319 62.5052 58.9076 61.1611C59.7143 61.0013 59.6001 60.6207 59.7928 60.1284C59.8703 59.9304 59.8986 59.9578 60.0879 59.9808Z" fill="#DE661C"/>
<path d="M117.033 61.4577C115.53 63.0686 113.725 64.4768 111.722 65.5148C111.922 65.8407 112.118 66.1436 112.312 66.4738C110.535 64.7854 108.614 62.6471 106.559 61.3102L112.091 60.425C114.107 60.4687 116.093 59.8501 118.066 60.3513L117.033 61.4577Z" fill="#392A9D"/>
<path d="M56.2536 63.6698C55.5782 64.0541 54.8429 63.7247 54.4833 63.0797C54.8379 61.7747 53.2788 62.0395 53.5981 60.793C53.7671 60.1332 54.839 60.1422 55.2947 60.4242C55.7327 60.695 55.6294 61.3448 55.6635 61.3831C56.3669 62.1762 57.3704 62.0466 56.2536 63.6698Z" fill="#F99D26"/>
<path d="M49.1697 60.7188C49.2369 61.6289 49.4839 62.0341 50.3499 62.3416C50.3471 62.4363 50.3338 62.5456 50.3499 62.6366C43.6421 65.7087 38.37 70.4569 36.4821 77.8323C32.579 78.4419 28.5417 78.6019 24.9747 76.652C22.645 75.3785 22.4568 74.9453 23.7944 72.5949C25.6148 69.3965 29.635 67.1322 32.4987 64.9971C38.5866 64.8751 43.5443 62.6834 49.1697 60.7188Z" fill="url(#paint25_linear_1178_69183)"/>
<path d="M79.4127 67.6527C81.8393 70.2395 83.6908 73.5425 84.1337 77.0946C84.3596 78.9064 84.3715 80.6982 83.9862 82.4795C83.7112 82.8582 81.4464 82.4801 80.888 82.4057C75.9033 81.7417 72.5515 79.7518 69.3807 75.9144C68.1671 73.0225 65.933 70.7043 64.9548 67.6527C64.8292 67.261 64.5222 66.9935 64.6597 66.4724C64.9753 66.2743 65.4089 66.525 65.9875 65.7348C67.4564 66.1968 67.6018 65.6061 68.0529 64.4808C68.0638 64.4535 67.7505 64.2183 67.7578 64.1857C67.7873 64.0547 69.6635 63.4203 68.7906 62.0465C69.4795 61.6674 70.1009 61.6519 70.1183 60.7188C73.0651 63.2536 75.9694 65.7886 79.4127 67.6527Z" fill="url(#paint26_linear_1178_69183)"/>
<path d="M61.2656 64.1137C61.2938 64.0423 61.2839 63.6432 61.2656 63.5236C61.6051 63.0856 62.2508 62.9159 62.5934 62.6384C62.9864 62.32 63.2852 61.7349 63.5523 61.6057C64.7147 61.0437 65.6979 62.5006 65.1014 63.4498C64.7766 63.9668 64.0119 63.7053 63.8474 63.8186C62.9668 64.4256 63.0038 65.7904 61.2656 64.1137Z" fill="#F18114"/>
<path d="M116.001 63.965C115.799 64.2069 115.547 64.7099 115.411 64.8502C114.889 65.3903 113.973 66.0243 113.345 66.4731C113.143 66.6181 112.973 66.7966 112.755 66.9157C112.698 66.8335 112.467 66.7352 112.313 66.4731C112.118 66.1429 111.922 65.84 111.723 65.5141C113.725 64.4761 115.53 63.0679 117.034 61.457L117.181 61.9734L116.001 63.965Z" fill="#4338A5"/>
<path d="M68.7887 62.0451C69.6616 63.4189 67.7855 64.0532 67.756 64.1843C67.7486 64.2169 68.062 64.452 68.051 64.4793C67.5999 65.6047 67.4546 66.1954 65.9856 65.7333C66.0197 65.6867 65.7149 65.395 65.8381 65.217C65.9391 65.0709 69.0624 63.9902 66.8708 62.9302C66.9654 61.8432 67.5266 62.0238 68.3461 61.75C68.3743 61.7959 68.6673 61.854 68.7887 62.0451Z" fill="#E46B0C"/>
<path d="M54.3323 63.0795C54.5084 64.0948 53.6192 64.2367 53.5946 64.3335C53.5164 64.6409 53.8851 64.5369 53.8897 64.5548C54.1452 65.5645 54.4836 65.5406 55.0699 66.3251C55.0395 66.3238 54.7757 66.6068 54.4798 66.4727C54.366 66.3961 53.7705 66.5699 53.4471 65.9563C53.1235 65.3424 53.5335 64.9934 53.4471 64.7761C53.3175 64.4506 52.8164 64.5883 52.7832 64.5548C52.436 64.2051 52.237 63.7383 51.8242 63.5221C51.8208 63.1206 52.2245 62.4917 52.5619 62.3418C53.211 62.0534 54.1943 62.2844 54.3323 63.0795Z" fill="#F38F1F"/>
<path d="M51.8248 63.5219C52.2376 63.7382 52.4366 64.205 52.7837 64.5546C52.8169 64.5881 53.3181 64.4505 53.4476 64.7759C53.5341 64.9932 53.1241 65.3423 53.4476 65.9562C53.771 66.5697 54.3666 66.3959 54.4803 66.4725C54.7574 66.6588 55.1873 66.8037 55.218 66.8413C55.5932 67.3007 52.8872 72.5966 52.4149 73.4064C50.8638 76.0666 48.7308 78.8198 46.2186 80.6354C44.9462 81.5551 43.7158 82.173 42.2353 82.7008C41.0912 83.1088 37.7649 84.1194 36.7029 83.7336C35.302 83.2246 36.2108 78.8903 36.4816 77.8323C38.3696 70.457 43.6417 65.7087 50.3495 62.6367C50.558 63.8125 51.7133 63.4635 51.8248 63.5219Z" fill="url(#paint27_linear_1178_69183)"/>
<path d="M60.823 62.7837C60.9407 62.8465 61.2327 63.3059 61.2656 63.5213C61.2838 63.641 61.2937 64.04 61.2656 64.1114C61.0466 64.6656 60.6272 64.4708 60.2328 64.7016C59.9825 64.368 59.714 64.0309 59.3477 63.8164C59.4533 62.9768 59.6995 62.1848 60.823 62.7837Z" fill="#F8901A"/>
<path d="M66.8742 62.932C69.0658 63.992 65.9425 65.0727 65.8415 65.2187C65.7183 65.3968 66.0231 65.6885 65.989 65.7351C65.4104 66.5253 64.9768 66.2746 64.6612 66.4727C64.6261 66.4949 64.5487 66.4503 64.5137 66.4727C63.8568 66.1492 63.3102 65.1939 63.9236 64.6286C64.3969 64.1924 65.0153 64.5233 65.1776 64.4073C65.3228 64.3036 65.1865 62.1157 66.8742 62.932Z" fill="#F27D0D"/>
<path d="M56.2485 63.6682H56.396C55.9469 64.5635 56.6857 64.9259 56.6911 65.0698C56.7127 65.6602 56.1235 66.2893 56.6911 67.209C55.8034 67.1449 55.6527 66.458 55.2157 66.3238C56.0182 64.7927 55.616 64.1461 53.888 64.5534C53.8834 64.5356 53.5147 64.6396 53.5929 64.3321C53.6176 64.2354 54.5067 64.0934 54.3306 63.0781H54.4781C54.8378 63.7231 55.5731 64.0526 56.2485 63.6682Z" fill="#DD5F13"/>
<path d="M58.3126 63.6702C58.9448 64.7361 57.7461 65.1998 57.7225 65.3668C57.694 65.5682 58.4071 65.7845 58.0176 66.6208C57.765 67.1632 57.2113 67.2486 56.6898 67.211C56.1223 66.2912 56.7115 65.6622 56.6898 65.0718C56.6845 64.9279 55.9457 64.5654 56.3947 63.6702C56.7674 62.9273 57.9386 63.0397 58.3126 63.6702Z" fill="#F58713"/>
<path d="M60.235 64.7055C60.8045 65.4642 61.2896 66.1982 60.5301 67.066C60.3622 67.2578 60.1294 67.2849 59.94 67.361C59.7258 66.736 59.1271 66.9336 58.9073 66.1808C58.6588 65.3298 59.4558 65.2121 59.4974 64.9268C59.5239 64.7444 59.2546 64.5779 59.3499 63.8203C59.7162 64.0348 59.9847 64.3719 60.235 64.7055Z" fill="#F68911"/>
<path d="M55.2184 66.3233C55.1787 66.311 55.1179 66.3253 55.0709 66.3233C54.4846 65.5387 54.1461 65.5626 53.8906 64.5529C55.6186 64.1456 56.0208 64.7922 55.2184 66.3233Z" fill="#ED7814"/>
<path d="M62.0788 65.1446C64.2492 65.1287 63.1974 68.0357 61.9313 67.21C61.4685 66.9082 61.6132 65.5453 62.0788 65.1446Z" fill="#F0750D"/>
<path d="M58.9056 66.1786C59.1254 66.9315 59.7241 66.7338 59.9383 67.3589C59.5027 67.534 59.2104 67.5371 58.7581 67.5064C58.6421 67.4112 58.2615 66.9263 58.168 66.7687C58.5042 66.5181 58.3565 66.0414 58.9056 66.1786Z" fill="#E76F0C"/>
<path d="M64.9528 67.6535L63.625 67.211C63.7809 67.1272 64.3357 66.5851 64.5102 66.4733C64.5451 66.4509 64.6226 66.4954 64.6577 66.4733C64.5202 66.9944 64.8272 67.2619 64.9528 67.6535Z" fill="#54319A"/>
<path d="M63.6248 67.2109L64.5754 66.2539C65.5536 69.3056 68.1649 73.0233 69.3785 75.9152C71.0973 80.0112 71.9496 86.1633 71.1488 90.5207C70.6826 93.0576 69.2958 95.8161 67.8294 97.8972C62.4209 96.3868 59.2998 91.0431 57.8711 85.9472C60.5036 81.3654 61.4841 75.0292 60.2316 70.0877C60.1504 69.7674 60.1093 69.2963 59.6415 69.4238C60.5414 68.1289 59.2486 67.9099 58.7563 67.5059C59.2086 67.5366 59.5009 67.5335 59.9365 67.3584C60.1259 67.2823 60.3588 67.2551 60.5266 67.0633C61.2718 68.0096 61.4938 67.3137 61.7806 67.3584C62.861 67.527 61.8739 68.1518 63.6248 67.2109Z" fill="url(#paint28_linear_1178_69183)"/>
<path d="M89.5937 70.603C91.4601 72.6877 93.8714 74.3454 95.7899 76.3566C96.3268 76.9195 96.775 77.3572 97.2652 77.9795C92.8886 78.9073 88.3482 78.5329 84.135 77.0943C83.6921 73.5422 81.8406 70.2391 79.4141 67.6523C82.8362 69.5049 85.628 70.6412 89.5937 70.603Z" fill="url(#paint29_linear_1178_69183)"/>
<path d="M80.8863 82.4054C81.826 86.7356 81.0816 91.5808 79.1897 95.5356L71.1493 90.5196C71.9501 86.1623 71.0978 80.0101 69.3789 75.9141C72.5498 79.7515 75.9015 81.7414 80.8863 82.4054Z" fill="url(#paint30_linear_1178_69183)"/>
<path d="M102.723 77.6832C106.056 79.7066 109.112 82.0743 111.796 84.9122C111.943 84.8451 111.23 82.1906 111.132 81.8879C110.898 81.1655 109.927 80.0433 110.247 79.3061C111.043 80.9009 111.707 82.8558 112.017 84.6172C112.115 85.1713 112.454 85.6971 112.312 86.3138C109.54 88.2796 106.044 88.973 102.723 89.4857C102.033 86.1541 99.3807 80.6648 97.2644 77.9783C96.7741 77.356 96.3259 76.9183 95.7891 76.3555C97.9328 77.1976 100.396 77.6946 102.723 77.6832Z" fill="url(#paint31_linear_1178_69183)"/>
<path d="M108.919 76.9453C109.349 77.7364 109.844 78.499 110.247 79.3058C109.926 80.043 110.898 81.1653 111.132 81.8876C111.23 82.1903 111.943 84.8448 111.796 84.912C109.112 82.0741 106.056 79.7063 102.723 77.683C104.821 77.6728 106.916 76.9761 108.919 76.9453Z" fill="#2B2789"/>
<path d="M97.2613 77.9789C99.3777 80.6655 102.03 86.1548 102.72 89.4863C103.133 91.4816 103.558 98.7329 102.867 100.404C102.027 101.19 102.316 100.373 102.056 100.404C102 100.41 101.761 100.888 101.023 100.846C100.909 100.84 100.991 100.563 100.876 100.551C96.7537 100.133 92.5159 100.121 88.7783 98.9282C88.5364 98.8511 88.4598 98.6009 88.262 99.0758C86.3706 98.3685 82.9771 96.0197 81.6969 95.6826C81.4149 95.6084 81.4166 95.5408 81.1068 95.6826C81.0772 98.7142 81.4356 101.837 81.033 104.829C80.9641 105.341 80.7195 106.339 80.5904 106.895C80.1809 108.66 79.0427 111.877 78.0824 113.386C77.756 113.899 77.431 114.444 76.9759 114.862C75.6093 115.197 69.2263 111.15 67.9028 110.141C67.3963 109.754 66.6572 109.219 66.2062 108.813C64.5834 107.352 65.4503 108.218 63.7719 111.911C63.2476 113.064 62.1783 114.898 61.4115 115.894C61.2627 116.088 61.1356 116.176 60.9689 116.337C57.944 115.857 55.107 114.132 53.1498 111.616C50.6873 108.45 48.9088 102.221 48.5763 98.2644C48.5042 97.4068 48.9171 94.6155 48.8714 94.4286C48.8366 94.2859 48.437 94.05 48.2812 93.986L48.5763 93.9122C48.8873 94.15 49.2713 93.9066 49.5353 93.7647C52.2718 92.2941 56.3259 88.6343 57.8707 85.9456C59.2994 91.0414 62.4206 96.3851 67.829 97.8955C69.2955 95.8145 70.6823 93.0559 71.1485 90.519L79.1889 95.535C81.0808 91.5802 81.8252 86.735 80.8855 82.4048C81.4439 82.4792 83.7086 82.8573 83.9836 82.4786C84.3689 80.6973 84.357 78.9056 84.1311 77.0938C88.3443 78.5323 92.8847 78.9068 97.2613 77.9789Z" fill="url(#paint32_linear_1178_69183)"/>
<path d="M23.3504 79.3059C21.5895 82.5836 19.715 88.1571 19.3671 91.846C15.8779 91.6829 12.1607 91.274 9.1875 89.2642C9.37944 85.6792 10.1827 82.165 11.548 78.8633C12.2991 79.1166 15.3661 79.684 16.1952 79.7485C18.6026 79.9355 20.9684 79.4429 23.3504 79.3059Z" fill="#3C32A1"/>
<path d="M48.5804 93.9145L48.2853 93.9882C48.4411 94.0523 48.8406 94.2882 48.8755 94.4308C48.9212 94.6177 48.5083 97.409 48.5804 98.2666C48.9129 102.224 50.6914 108.452 53.1538 111.618C51.1461 112.499 49.1217 113.278 46.9576 113.684C46.3434 113.799 43.2913 114.258 42.9005 114.126C42.407 113.96 42.1861 113.342 41.9415 112.946C41.5705 110.994 40.6527 109.334 40.3187 107.34C39.6873 103.571 40.1501 100.366 41.0563 96.7175C41.3341 95.5993 41.5292 94.3451 42.0891 93.3243C42.5823 92.4253 44.0931 91.1586 44.8921 90.3737C45.4061 89.8689 45.9741 89.3767 46.515 88.8984C46.9254 90.5887 47.8208 92.3536 48.5804 93.9145Z" fill="url(#paint33_linear_1178_69183)"/>
<path d="M42.0872 93.3199C41.5274 94.3407 41.3323 95.5948 41.0545 96.7131C39.5419 98.5766 37.0572 99.9507 35.5959 101.803C34.056 103.755 32.8126 106.998 31.3175 109.106C29.606 106.668 29.1043 103.422 28.5145 100.549C28.4351 100.267 28.8231 100.18 29.0308 100.106C32.9432 98.7211 35.1147 99.0997 38.7678 96.123C39.5274 95.5041 40.6811 93.85 41.2021 93.4674C41.3295 93.3739 41.8919 93.2991 42.0872 93.3199Z" fill="#2E359D"/>
<path d="M88.2641 99.0776C89.9514 99.7086 91.9599 100.37 93.7228 100.7C92.9454 102.439 92.5031 104.463 91.6573 106.159C90.9294 106.156 91.4287 107.202 90.6246 106.971C90.468 106.117 90.4759 105.239 90.3296 104.389C90.3297 104.197 90.3845 103.946 90.2558 103.799C89.9829 104.048 90.3246 104.359 90.3296 104.389C90.329 105.546 90.6454 107.147 89.9607 107.782L81.0352 104.831C81.4378 101.839 81.0794 98.7161 81.1089 95.6845C81.4187 95.5427 81.4171 95.6102 81.699 95.6845C82.9793 96.0216 86.3728 98.3704 88.2641 99.0776Z" fill="url(#paint34_linear_1178_69183)"/>
<path d="M41.0534 96.7188C40.1471 100.367 39.6843 103.572 40.3158 107.341L39.7994 106.603C38.005 107.32 35.8866 108.478 34.0457 108.964C33.6416 109.07 31.3657 109.612 31.3164 109.111C32.8115 107.004 34.0549 103.76 35.5948 101.809C37.0561 99.9563 39.5408 98.5822 41.0534 96.7188Z" fill="#282C9A"/>
<path d="M102.867 100.407C102.743 100.707 102.54 101.19 102.203 101.292C101.038 101.647 95.2051 100.98 93.7203 100.702C91.9575 100.372 89.949 99.7104 88.2617 99.0794C88.4596 98.6045 88.5361 98.8547 88.7781 98.9318C92.5156 100.125 96.7534 100.136 100.876 100.555C100.991 100.566 100.909 100.843 101.023 100.85C101.761 100.892 102 100.414 102.056 100.407C102.315 100.376 102.026 101.194 102.867 100.407Z" fill="#7D67D3"/>
<path d="M90.3278 104.387C90.3228 104.358 89.9811 104.046 90.254 103.797C90.3827 103.945 90.328 104.196 90.3278 104.387Z" fill="#3030A5"/>
<path d="M91.6585 106.157C91.3698 106.736 90.8782 108.06 90.257 108.223C87.8847 108.842 83.033 107.441 80.5938 106.895C80.7228 106.339 80.9674 105.341 81.0363 104.829L89.9619 107.78C90.6466 107.145 90.3302 105.544 90.3308 104.387C90.4771 105.237 90.4691 106.115 90.6258 106.969C91.4299 107.2 90.9306 106.154 91.6585 106.157Z" fill="#3030A5"/>
<path d="M40.3158 107.339C40.6498 109.333 41.5676 110.994 41.9386 112.945C41.2625 111.849 41.0772 110.556 40.5371 109.405C39.7237 109.61 38.9304 109.846 38.1028 109.995C36.5309 110.277 33.5808 111.045 32.1278 110.29C31.6818 110.058 31.5405 109.429 31.3164 109.11C31.3657 109.61 33.6416 109.069 34.0457 108.962C35.8866 108.476 38.005 107.319 39.7994 106.602L40.3158 107.339Z" fill="#2F31A3"/>
</g>
<defs>
<linearGradient id="paint0_linear_1178_69183" x1="37.6507" y1="82.8349" x2="21.7434" y2="96.6926" gradientUnits="userSpaceOnUse">
<stop stop-color="#6732B1"/>
<stop offset="1" stop-color="#A190E2"/>
</linearGradient>
<linearGradient id="paint1_linear_1178_69183" x1="52.3371" y1="76.7817" x2="55.2848" y2="90.1816" gradientUnits="userSpaceOnUse">
<stop stop-color="#CA9BE2"/>
<stop offset="1" stop-color="#E9D9F2"/>
</linearGradient>
<linearGradient id="paint2_linear_1178_69183" x1="50.9988" y1="3.24887" x2="54.9852" y2="25.4662" gradientUnits="userSpaceOnUse">
<stop stop-color="#C4B6F1"/>
<stop offset="1" stop-color="#7D6EC7"/>
</linearGradient>
<linearGradient id="paint3_linear_1178_69183" x1="77.4127" y1="8.09826" x2="73.6116" y2="23.1154" gradientUnits="userSpaceOnUse">
<stop stop-color="#747DDD"/>
<stop offset="1" stop-color="#534FBE"/>
</linearGradient>
<linearGradient id="paint4_linear_1178_69183" x1="30.5344" y1="11.7263" x2="35.977" y2="17.3402" gradientUnits="userSpaceOnUse">
<stop stop-color="#AF9FE4"/>
<stop offset="1" stop-color="#9184D1"/>
</linearGradient>
<linearGradient id="paint5_linear_1178_69183" x1="87.6468" y1="11.9663" x2="83.2551" y2="22.2828" gradientUnits="userSpaceOnUse">
<stop stop-color="#8E7BD6"/>
<stop offset="1" stop-color="#5E45B6"/>
</linearGradient>
<linearGradient id="paint6_linear_1178_69183" x1="44.5301" y1="24.9887" x2="52.7833" y2="39.812" gradientUnits="userSpaceOnUse">
<stop stop-color="#EEDAF5"/>
<stop offset="1" stop-color="#D7ABEB"/>
</linearGradient>
<linearGradient id="paint7_linear_1178_69183" x1="54.9797" y1="25.5325" x2="59.8507" y2="41.0125" gradientUnits="userSpaceOnUse">
<stop stop-color="#E0C9E7"/>
<stop offset="1" stop-color="#C495DE"/>
</linearGradient>
<linearGradient id="paint8_linear_1178_69183" x1="16.4622" y1="25.1017" x2="28.1447" y2="41.7755" gradientUnits="userSpaceOnUse">
<stop stop-color="#DCBFF1"/>
<stop offset="1" stop-color="#9B79DC"/>
</linearGradient>
<linearGradient id="paint9_linear_1178_69183" x1="97.3982" y1="21.2483" x2="84.2662" y2="36.9988" gradientUnits="userSpaceOnUse">
<stop stop-color="#9B8FE6"/>
<stop offset="1" stop-color="#6743B8"/>
</linearGradient>
<linearGradient id="paint10_linear_1178_69183" x1="107.331" y1="32.8197" x2="92.3162" y2="38.5782" gradientUnits="userSpaceOnUse">
<stop stop-color="#7066C6"/>
<stop offset="1" stop-color="#6540B4"/>
</linearGradient>
<linearGradient id="paint11_linear_1178_69183" x1="64.7872" y1="30.0768" x2="63.9975" y2="35.3289" gradientUnits="userSpaceOnUse">
<stop stop-color="#D2A6E4"/>
<stop offset="1" stop-color="#BA81DA"/>
</linearGradient>
<linearGradient id="paint12_linear_1178_69183" x1="78.314" y1="23.9948" x2="68.3487" y2="41.5789" gradientUnits="userSpaceOnUse">
<stop stop-color="#F1E4F6"/>
<stop offset="1" stop-color="#CFA4E8"/>
</linearGradient>
<linearGradient id="paint13_linear_1178_69183" x1="38.2031" y1="32.9601" x2="50.2253" y2="40.4469" gradientUnits="userSpaceOnUse">
<stop stop-color="#DBC1E4"/>
<stop offset="1" stop-color="#C595DB"/>
</linearGradient>
<linearGradient id="paint14_linear_1178_69183" x1="12.3571" y1="30.2484" x2="17.852" y2="36.999" gradientUnits="userSpaceOnUse">
<stop stop-color="#7B7BD0"/>
<stop offset="1" stop-color="#6764C7"/>
</linearGradient>
<linearGradient id="paint15_linear_1178_69183" x1="92.2156" y1="43.4747" x2="73.778" y2="45.8418" gradientUnits="userSpaceOnUse">
<stop stop-color="#E8D4F2"/>
<stop offset="1" stop-color="#CAA7DB"/>
</linearGradient>
<linearGradient id="paint16_linear_1178_69183" x1="46.6173" y1="46.062" x2="30.2804" y2="47.1906" gradientUnits="userSpaceOnUse">
<stop stop-color="#D8ADE6"/>
<stop offset="1" stop-color="#F2E4F4"/>
</linearGradient>
<linearGradient id="paint17_linear_1178_69183" x1="11.1702" y1="43.1593" x2="26.0258" y2="56.4251" gradientUnits="userSpaceOnUse">
<stop stop-color="#AE9BE5"/>
<stop offset="1" stop-color="#8D6CD7"/>
</linearGradient>
<linearGradient id="paint18_linear_1178_69183" x1="110.557" y1="46.26" x2="99.5667" y2="54.7172" gradientUnits="userSpaceOnUse">
<stop stop-color="#634EC2"/>
<stop offset="1" stop-color="#492490"/>
</linearGradient>
<linearGradient id="paint19_linear_1178_69183" x1="78.8826" y1="52.6024" x2="98.3532" y2="52.9697" gradientUnits="userSpaceOnUse">
<stop stop-color="#A06ABE"/>
<stop offset="1" stop-color="#DDC1E2"/>
</linearGradient>
<linearGradient id="paint20_linear_1178_69183" x1="44.938" y1="54.0758" x2="23.7345" y2="61.8162" gradientUnits="userSpaceOnUse">
<stop stop-color="#B787D1"/>
<stop offset="1" stop-color="#D4BCEC"/>
</linearGradient>
<linearGradient id="paint21_linear_1178_69183" x1="105.011" y1="58.1724" x2="113.559" y2="58.5552" gradientUnits="userSpaceOnUse">
<stop stop-color="#3A2088"/>
<stop offset="1" stop-color="#4B419F"/>
</linearGradient>
<linearGradient id="paint22_linear_1178_69183" x1="93.175" y1="65.0818" x2="113.56" y2="70.5166" gradientUnits="userSpaceOnUse">
<stop stop-color="#542791"/>
<stop offset="1" stop-color="#7F6BCB"/>
</linearGradient>
<linearGradient id="paint23_linear_1178_69183" x1="73.9672" y1="62.0594" x2="93.5011" y2="66.6415" gradientUnits="userSpaceOnUse">
<stop stop-color="#A872C6"/>
<stop offset="1" stop-color="#DFC4F1"/>
</linearGradient>
<linearGradient id="paint24_linear_1178_69183" x1="7.91448" y1="68.1896" x2="24.7391" y2="70.374" gradientUnits="userSpaceOnUse">
<stop stop-color="#8272C8"/>
<stop offset="1" stop-color="#6642AA"/>
</linearGradient>
<linearGradient id="paint25_linear_1178_69183" x1="43.5302" y1="63.5124" x2="29.7737" y2="75.5714" gradientUnits="userSpaceOnUse">
<stop stop-color="#9657C0"/>
<stop offset="1" stop-color="#D2B3E2"/>
</linearGradient>
<linearGradient id="paint26_linear_1178_69183" x1="73.1631" y1="63.7173" x2="76.0513" y2="80.5853" gradientUnits="userSpaceOnUse">
<stop stop-color="#8E58AA"/>
<stop offset="1" stop-color="#E2D2E8"/>
</linearGradient>
<linearGradient id="paint27_linear_1178_69183" x1="51.4453" y1="65.468" x2="40.0597" y2="80.7179" gradientUnits="userSpaceOnUse">
<stop stop-color="#C58EDE"/>
<stop offset="1" stop-color="#E5D1F3"/>
</linearGradient>
<linearGradient id="paint28_linear_1178_69183" x1="62.279" y1="71.6276" x2="66.156" y2="88.9015" gradientUnits="userSpaceOnUse">
<stop stop-color="#925DB2"/>
<stop offset="1" stop-color="#D2B8DC"/>
</linearGradient>
<linearGradient id="paint29_linear_1178_69183" x1="85.2828" y1="71.3599" x2="93.9097" y2="76.1852" gradientUnits="userSpaceOnUse">
<stop stop-color="#7F46A2"/>
<stop offset="1" stop-color="#AB7AC2"/>
</linearGradient>
<linearGradient id="paint30_linear_1178_69183" x1="73.3248" y1="81.0106" x2="77.1713" y2="89.6336" gradientUnits="userSpaceOnUse">
<stop stop-color="#7F46A9"/>
<stop offset="1" stop-color="#AE7ED0"/>
</linearGradient>
<linearGradient id="paint31_linear_1178_69183" x1="100.243" y1="78.8226" x2="106.939" y2="85.8914" gradientUnits="userSpaceOnUse">
<stop stop-color="#351D88"/>
<stop offset="1" stop-color="#3D36B0"/>
</linearGradient>
<linearGradient id="paint32_linear_1178_69183" x1="72.7891" y1="81.9066" x2="78.6904" y2="111.118" gradientUnits="userSpaceOnUse">
<stop stop-color="#49248C"/>
<stop offset="1" stop-color="#7E69CA"/>
</linearGradient>
<linearGradient id="paint33_linear_1178_69183" x1="50.6119" y1="95.3237" x2="41.8765" y2="109.175" gradientUnits="userSpaceOnUse">
<stop stop-color="#2E1F81"/>
<stop offset="1" stop-color="#5046B8"/>
</linearGradient>
<linearGradient id="paint34_linear_1178_69183" x1="85.1173" y1="97.1068" x2="89.2393" y2="105.272" gradientUnits="userSpaceOnUse">
<stop stop-color="#1D116B"/>
<stop offset="1" stop-color="#28229A"/>
</linearGradient>
<clipPath id="clip0_1178_69183">
<rect width="115" height="118.695" fill="white" transform="translate(0 0.585938)"/>
</clipPath>
</defs>
</svg>
