<svg width="128" height="123" viewBox="0 0 128 123" fill="none" xmlns="http://www.w3.org/2000/svg">
<g clip-path="url(#clip0_1166_60768)">
<path d="M101.299 28.74C100.971 31.2041 101.681 33.6768 101.477 36.1553C101.107 40.6549 95.6753 50.3263 92.3647 53.3982C92.0143 53.7232 91.7689 54.0207 91.4713 54.3809C91.9748 52.9375 91.7795 51.4829 91.8286 50.0032C92.2528 49.9898 92.3502 48.399 92.3647 48.1271C92.5096 45.3997 91.8393 42.6962 91.6499 39.997C91.1453 32.8058 91.6673 27.7026 86.8255 21.6821C81.8292 15.4693 71.5264 10.8087 63.7755 9.44233C60.5219 8.86876 48.8671 8.20853 46.2646 9.62101L46.0859 9.44233C46.538 9.15787 47.0878 9.0478 47.3367 8.54892C49.0372 8.17994 53.57 4.65311 55.8241 3.7245C60.0705 1.97502 70.1257 -0.0122855 74.5858 0.508216C79.3725 1.06678 94.7597 15.7897 97.3678 20.2526C98.2812 21.8155 100.565 28.031 101.299 28.74Z" fill="#F78770"/>
<path d="M47.3366 8.55078C47.0877 9.04966 46.5379 9.15973 46.0858 9.44419C39.3518 13.6815 27.2111 25.2158 27.3242 33.745L21.0703 19.8078C21.988 17.3555 21.133 16.522 23.6612 14.4473C30.6859 8.68301 39.6409 10.2204 47.3366 8.55078Z" fill="#F9BC79"/>
<path d="M63.7739 9.44328L65.6501 10.5154C79.6668 14.4977 91.9589 24.1426 91.4697 39.998C91.2875 40.0171 91.155 40.1859 91.1123 40.3553C85.0534 33.8727 79.3938 26.1342 71.8147 21.415C63.4353 16.1977 54.439 14.709 44.7443 17.1266C43.1755 15.1184 44.0735 10.8104 46.2631 9.62196C48.8656 8.20948 60.5203 8.86971 63.7739 9.44328Z" fill="#F8C17C"/>
<path d="M46.2614 9.61814C44.0719 10.8066 43.1738 15.1146 44.7426 17.1228C54.4374 14.7052 63.4337 16.1938 71.813 21.4112L70.7409 23.0193C64.6041 18.2274 52.793 19.5698 46.7975 24.0914C46.6881 23.9879 46.392 23.3854 46.3508 23.3767C45.7524 23.2489 37.5989 30.0862 36.7913 30.9707C34.3374 33.6581 31.942 38.1885 30.7161 41.6023C29.6195 39.6375 27.3508 35.9793 27.3211 33.7402C27.208 25.211 39.3487 13.6767 46.0827 9.43945L46.2614 9.61814Z" fill="#F69959"/>
<path d="M91.6479 39.9941H91.4692C91.9584 24.1388 79.6663 14.4938 65.6496 10.5115L63.7734 9.43945C71.5243 10.8058 81.8271 15.4664 86.8235 21.6792C91.6652 27.6997 91.1433 32.8029 91.6479 39.9941Z" fill="#F9E29B"/>
<path d="M27.3231 33.7419C27.3527 35.981 29.6214 39.6391 30.718 41.6039C31.8584 43.6473 32.9344 44.9356 34.113 46.7857C34.5266 47.4351 34.7537 48.2904 35.1851 48.9299C40.4478 56.7337 48.0804 64.8755 55.9122 70.1931C46.8393 66.7704 37.233 62.6248 30.0926 55.8985C25.0558 51.1536 19.8865 42.5929 17.6742 36.0648C17.0211 31.7752 16.6135 28.471 18.3889 24.3611C19.0808 22.7596 20.4602 21.4319 21.0692 19.8047L27.3231 33.7419Z" fill="#F9CA87"/>
<path d="M70.7412 23.0222C71.7125 23.7807 75.6405 29.252 75.7443 30.2589C76.0257 32.9889 73.9603 29.2111 73.7788 29.0081C73.3038 28.477 72.5673 27.7039 71.9919 27.3106C73.0229 23.9833 65.9846 21.1814 63.5045 20.878C59.2012 20.3516 50.774 22.0275 47.2444 24.6304C46.3975 25.255 41.3004 31.3199 41.0799 32.135C40.9714 32.5363 41.1569 33.2822 41.0799 33.7432C40.9402 33.4941 40.6838 32.6997 40.6332 32.6711C40.5608 32.6301 40.6028 33.0495 40.0078 33.0284C42.3205 30.0214 43.6919 26.4367 46.7977 24.0943C52.7932 19.5728 64.6043 18.2303 70.7412 23.0222Z" fill="#F8E29A"/>
<path d="M71.9941 27.3105C66.0186 23.226 57.1985 22.8952 50.9096 26.2384C47.7304 27.9284 44.4162 30.6933 41.7074 33.0283L41.082 32.1349C41.3025 31.3198 46.3996 25.2549 47.2466 24.6302C50.7761 22.0274 59.2033 20.3515 63.5067 20.8779C65.9868 21.1813 73.0251 23.9832 71.9941 27.3105Z" fill="#F8B975"/>
<path d="M91.1086 40.3544C91.042 40.6192 91.1888 41.1259 91.1086 41.3371C89.8062 44.7675 79.2518 49.8356 76.7247 53.2195C76.8832 48.163 77.2602 43.0066 76.9927 37.9422C76.9009 36.2027 76.8097 33.5527 76.0993 32.135C76.0119 31.9606 76.2272 31.3985 76.0099 31.2416C74.2714 31.5943 73.5316 33.3749 72.2576 34.4579C71.2706 35.297 70.1733 36.0179 69.1307 36.7807C69.1879 36.2065 69.519 34.9392 69.488 34.4579C72.0709 33.5162 68.3368 29.2243 67.0758 28.3827C65.0528 27.0325 62.0121 26.744 59.6605 26.9532C56.9796 27.1918 52.7398 28.7986 51.0838 30.9736C49.3709 33.223 49.9909 34.1505 51.0838 36.4234C49.7126 36.3396 49.9523 32.7582 49.833 32.5817C48.9122 31.2201 47.5968 36.1037 47.5101 36.6021C46.9753 35.7792 47.0993 32.4191 47.3314 31.5096C47.7797 29.753 50.5901 28.0466 50.9051 26.2385C57.194 22.8953 66.0141 23.2261 71.9896 27.3106C72.5649 27.7039 73.3015 28.477 73.7764 29.0081C73.958 29.211 76.0233 32.9889 75.7419 30.2588C75.6381 29.252 71.7101 23.7807 70.7388 23.0222L71.8109 21.4141C79.3901 26.1332 85.0497 33.8718 91.1086 40.3544Z" fill="#F37D4D"/>
<path d="M46.8002 24.0935C43.6943 26.4358 42.3229 30.0205 40.0102 33.0276C39.5848 33.0124 39.6196 32.86 39.2955 32.6702C39.2762 32.6589 39.3639 32.0725 38.9381 32.4022C39.1279 34.952 37.4436 37.0708 36.6153 39.3708C35.7315 41.8248 35.1461 44.3969 34.1137 46.7861C32.9351 44.936 31.8591 43.6477 30.7188 41.6043C31.9447 38.1906 34.3401 33.6601 36.7939 30.9727C37.6016 30.0882 45.755 23.251 46.3535 23.3787C46.3947 23.3875 46.6908 23.99 46.8002 24.0935Z" fill="#F37C4D"/>
<path d="M50.9094 26.2363C50.5944 28.0444 47.7841 29.7508 47.3357 31.5075C47.1036 32.4169 46.9796 35.7771 47.5144 36.5999C47.4226 37.1283 46.9335 41.61 46.9784 41.871C47.1615 42.939 49.3465 44.1101 49.4799 45.3553C46.397 41.8042 43.3876 37.8498 41.0819 33.741C41.1589 33.28 40.9734 32.5342 41.0819 32.1328L41.7073 33.0263C44.4161 30.6912 47.7303 27.9263 50.9094 26.2363Z" fill="#F36E4A"/>
<path d="M69.4904 34.4568C69.1619 29.3373 62.406 27.1111 58.0547 28.0242L59.7522 27.6668L59.6628 26.9521C62.0145 26.7429 65.0551 27.0314 67.0781 28.3816C68.3391 29.2232 72.0732 33.5151 69.4904 34.4568Z" fill="#F7DE94"/>
<path d="M59.6649 26.9512L59.7542 27.6659L58.0567 28.0233C56.8806 28.27 53.1297 30.272 52.5176 31.3289C49.9581 35.7484 56.5079 40.6897 59.3968 43.2113C59.7706 43.2808 61.8335 41.5772 62.3451 41.2458C63.7626 41.165 69.484 36.6545 70.1178 36.6C72.1335 36.4263 67.647 38.9316 67.8843 39.2803C66.9596 39.8486 60.1007 43.1017 60.2009 43.658L76.1036 52.8601C75.9205 53.0679 75.6759 53.2427 75.3889 53.2175C75.2926 53.1167 75.0174 53.0054 74.8529 53.0388C73.6578 51.8379 68.897 49.9576 67.0802 48.9291C61.984 46.0443 53.6268 41.701 51.0881 36.4213C49.9953 34.1485 49.3753 33.221 51.0881 30.9715C52.7441 28.7966 56.9839 27.1897 59.6649 26.9512Z" fill="#F6CC86"/>
<path d="M69.4937 34.4567C69.5246 34.9381 69.1935 36.2053 69.1363 36.7796C67.0573 38.3005 64.5361 39.8277 62.3464 41.2467C61.8348 41.5781 59.7719 43.2817 59.3981 43.2122C56.5092 40.6906 49.9594 35.7493 52.5188 31.3298C53.131 30.2729 56.8819 28.2709 58.058 28.0242C62.4093 27.1111 69.1652 29.3373 69.4937 34.4567ZM58.8621 31.0618C57.6677 31.1525 54.9661 32.1169 54.663 33.474C54.4506 34.4256 54.7827 37.0135 55.8245 37.4943C57.2743 38.1635 62.624 38.2677 64.0438 37.4943C69.1443 34.7163 62.6483 30.7737 58.8621 31.0618Z" fill="#F46E4B"/>
<path d="M111.66 40.1759C111.983 48.522 104.482 59.1018 97.5438 63.5833C94.4789 65.5629 91.2233 67.3217 87.7163 68.229C84.7446 68.4218 85.1333 68.0332 84.5 65.3701C86.8482 62.7297 88.4989 59.732 90.3965 56.7934C90.5516 56.5532 91.1384 56.1537 91.2899 55.8106C91.1995 55.2049 90.8788 56.1317 90.5752 55.9893C90.2116 55.8186 90.8438 55.3737 90.7539 55.1852C91.7499 54.8929 92.0642 54.361 92.362 53.3984C95.6726 50.3265 101.105 40.6551 101.475 36.1556C101.679 33.677 100.968 31.2043 101.296 28.7402C101.939 29.3608 105.124 30.7543 106.21 31.5992C108.47 33.3563 111.546 37.2305 111.66 40.1759Z" fill="url(#paint0_linear_1166_60768)"/>
<path d="M16.6011 32.1316C16.7353 34.6296 15.8456 37.0992 15.7077 39.547C15.3923 45.1417 17.0265 50.2547 18.5666 55.539C19.1607 57.5776 19.5283 59.7175 20.3534 61.7036C23.337 68.8844 29.0887 75.2731 34.8267 80.3759C29.4542 78.5043 28.3829 77.1912 23.7484 75.0154C23.0931 74.7077 22.4368 74.0873 21.6042 74.3007C20.2248 73.398 18.325 73.2545 16.6904 72.5138C10.4842 69.7019 4.2334 63.5206 2.30649 56.8791C1.48026 54.0315 1.59015 51.0155 1.05571 48.213C2.52663 47.6552 1.11129 47.4215 1.05571 47.2303C0.840581 46.4895 0.877747 45.5855 0.877033 44.8181C0.868277 36.3139 8.60862 31.8204 16.1544 30.8809C16.7974 31.2373 16.4769 31.7192 16.6011 32.1316Z" fill="url(#paint1_linear_1166_60768)"/>
<path d="M58.8577 31.0618C62.644 30.7738 69.1399 34.7164 64.0395 37.4944C62.6197 38.2677 57.2699 38.1635 55.8201 37.4944C54.7784 37.0135 54.4462 34.4257 54.6586 33.474C54.9617 32.1169 57.6634 31.1526 58.8577 31.0618ZM58.5003 31.5978C56.5759 31.8033 54.0213 34.4371 55.6414 36.4223C56.0674 36.9444 60.0845 38.4332 59.5724 36.7796C60.5825 38.0077 63.2935 37.6012 64.3075 36.3329C66.7504 33.2773 61.6964 31.5705 61.4486 31.8659C61.4282 31.89 61.9846 32.4123 61.3592 32.4913C61.2106 32.51 59.4975 31.4914 58.5003 31.5978Z" fill="#F6B673"/>
<path d="M76.1023 32.1336V32.3123C74.1255 35.1218 70.7895 37.4941 67.8829 39.2809C67.6456 38.9323 72.1321 36.427 70.1164 36.6007C69.4826 36.6552 63.7612 41.1657 62.3438 41.2464C64.5335 39.8275 67.0547 38.3003 69.1337 36.7794C70.1763 36.0166 71.2736 35.2956 72.2606 34.4565C73.5346 33.3735 74.2744 31.593 76.0129 31.2402C76.2302 31.3971 76.0149 31.9593 76.1023 32.1336Z" fill="#F8ECA9"/>
<path d="M58.5021 31.5976C59.4994 31.4912 61.2124 32.5098 61.3611 32.4911C61.9865 32.4121 61.43 31.8898 61.4504 31.8657C61.6982 31.5703 66.7523 33.2771 64.3093 36.3327C63.2953 37.601 60.5843 38.0075 59.5742 36.7794C60.0863 38.433 56.0692 36.9442 55.6432 36.4221C54.0231 34.4369 56.5777 31.8031 58.5021 31.5976ZM59.2169 32.6697C58.886 32.7151 57.3332 33.8826 57.0727 34.2779C59.9298 32.2752 60.3063 33.3893 62.8799 34.9033C62.3989 33.927 60.2677 32.5257 59.2169 32.6697Z" fill="#F4704B"/>
<path d="M17.6768 36.0638C19.8891 42.592 25.0583 51.1527 30.0952 55.8976C37.2355 62.6239 46.8419 66.7695 55.9148 70.1921C57.0034 70.9312 62.907 74.176 63.8662 74.3018C64.644 74.4039 65.5571 73.7349 66.2784 74.1232C63.4895 74.8688 60.6815 75.5691 57.8803 76.2673L58.4164 75.642C48.3273 71.4717 37.4205 68.6001 28.3977 62.1514L18.5702 55.5402C17.0301 50.2558 15.3959 45.1429 15.7113 39.5481C15.8492 37.1004 16.7389 34.6308 16.6047 32.1328C16.9948 33.4288 17.2412 34.7784 17.6768 36.0638Z" fill="#D73D4F"/>
<path d="M91.1108 40.3522C91.1535 40.1828 91.2859 40.014 91.4681 39.9948H91.6468C91.8362 42.694 92.5065 45.3975 92.3615 48.1249C92.3471 48.3968 92.2497 49.9876 91.8255 50.001C91.8459 49.3867 92.2068 43.0639 91.5575 43.0324L83.7848 54.8255C81.1239 54.6802 78.4147 54.5617 75.7441 54.4681C75.7209 54.2989 75.7832 54.0793 75.7441 53.9321C75.7114 53.8093 75.4543 53.2879 75.3867 53.2173C75.6737 53.2425 75.9183 53.0678 76.1014 52.86C76.5501 52.3509 76.5834 49.8529 76.6375 48.8396C76.9302 43.3564 76.5249 37.7561 76.1014 32.3115V32.1328C76.8119 33.5505 76.903 36.2005 76.9949 37.94C77.2623 43.0044 76.8853 48.1608 76.7268 53.2173C79.2539 49.8334 89.8083 44.7653 91.1108 41.335C91.191 41.1237 91.0441 40.617 91.1108 40.3522Z" fill="#F7AB6E"/>
<path d="M39.2951 32.6692C39.3213 33.256 39.472 34.1814 39.6524 34.7241C41.0429 38.9056 50.688 48.2514 54.4831 50.8948C56.8065 52.5132 57.9758 53.046 61.005 53.5751C61.1029 53.5922 62.2463 54.1002 62.3451 54.1111V54.2898C56.4275 53.6198 48.0794 50.8345 42.422 48.7507C40.9125 48.1948 36.3956 45.5438 35.096 46.0704C34.8968 46.1512 34.5673 46.8373 34.6493 47.0532C34.9418 47.1352 35.1318 47.3451 35.3641 47.4999C34.1422 47.6166 35.5924 48.1975 35.1854 48.9293C34.754 48.2898 34.5269 47.4345 34.1133 46.7852C35.1457 44.396 35.7311 41.8239 36.6148 39.3698C37.4432 37.0698 39.1275 34.951 38.9377 32.4012C39.3635 32.0716 39.2758 32.658 39.2951 32.6692Z" fill="url(#paint2_linear_1166_60768)"/>
<path d="M76.103 52.861L60.2003 43.6588C60.1001 43.1026 66.959 39.8495 67.8836 39.2811C70.7903 37.4943 74.1263 35.1219 76.103 32.3125C76.5265 37.7571 76.9318 43.3574 76.6391 48.8406C76.5849 49.8539 76.5517 52.3519 76.103 52.861Z" fill="#F5754C"/>
<path d="M51.0852 36.4242C53.624 41.7039 61.9811 46.0471 67.0773 48.932C68.8942 49.9605 73.655 51.8407 74.85 53.0417C75.0523 53.2448 75.3839 53.6129 75.386 53.9351C75.0943 53.9351 74.7812 53.962 74.4926 53.9351C73.9759 53.8868 66.0953 53.6937 66.0946 54.1137C64.6378 53.8874 63.3602 54.2269 62.3422 54.1137C62.2434 54.1028 61.1 53.5949 61.0021 53.5777C57.9729 53.0486 56.8036 52.5158 54.4802 50.8975L49.4771 45.3583C49.3436 44.1131 47.1587 42.942 46.9756 41.874C46.9307 41.613 47.4198 37.1312 47.5116 36.6029C47.5983 36.1045 48.9137 31.221 49.8345 32.5825C49.9538 32.7591 49.714 36.3404 51.0852 36.4242ZM56.8924 44.4649C58.024 46.7231 59.815 48.6062 61.1808 50.7188C60.3301 48.3941 58.4287 46.3579 56.8924 44.4649Z" fill="#F36B49"/>
<path d="M40.0116 33.0281C40.6066 33.0492 40.5646 32.6299 40.637 32.6708C40.6876 32.6994 40.944 33.4938 41.0837 33.7429C43.3894 37.8517 46.3988 41.8061 49.4818 45.3572L54.4849 50.8964C50.6898 48.253 41.0447 38.9072 39.6542 34.7256C39.4738 34.183 39.3231 33.2576 39.2969 32.6708C39.621 32.8605 39.5862 33.013 40.0116 33.0281Z" fill="#F6D089"/>
<path d="M59.2184 32.6704C60.2692 32.5264 62.4004 33.9276 62.8814 34.904C60.3078 33.39 59.9313 32.2759 57.0742 34.2786C57.3347 33.8833 58.8875 32.7158 59.2184 32.6704Z" fill="#F7AC70"/>
<path d="M116.487 81.6301C111.139 88.903 100.466 94.1093 91.4714 94.3165C90.764 94.3328 87.8697 93.4878 87.2724 93.7805C86.4437 96.3397 84.9127 98.3905 82.984 100.213C82.0529 101.093 75.0346 106.188 74.2286 106.288C74.0542 106.31 72.1391 106.001 71.9057 105.931C66.0905 104.19 58.6893 99.5621 54.6629 95.0313C53.4725 93.6917 50.5827 89.0702 49.5704 88.42C49.019 88.0659 41.1777 85.2788 40.1896 85.025C40.0526 84.9898 39.824 85.1151 39.8322 84.8464C39.9511 84.5678 40.0479 84.5097 40.0109 84.1316C41.0932 85.1421 42.312 85.0885 43.4952 85.5611C46.268 86.6686 49.4364 88.5744 52.4294 88.7774C57.1092 89.0947 72.8436 82.7007 77.0875 79.8433C81.9044 76.6 84.3456 72.1694 88.1658 69.1223C90.7699 67.0453 95.0644 66.0286 97.5466 63.5832C104.485 59.1016 111.986 48.5219 111.663 40.1758C121.319 43.4494 129.127 49.1097 128.28 60.4562C127.707 68.1362 122.944 69.8924 119.703 75.1082C118.462 77.1067 118.212 79.2847 116.487 81.6301Z" fill="url(#paint3_linear_1166_60768)"/>
<path d="M91.8259 50.0018C91.7767 51.4815 91.972 52.9361 91.4685 54.3795C91.7662 54.0193 92.0115 53.7218 92.3619 53.3968C92.064 54.3593 91.7497 54.8913 90.7538 55.1836C88.4125 55.8708 85.9799 54.9461 83.7852 54.8262L91.5578 43.0332C92.2072 43.0647 91.8462 49.3875 91.8259 50.0018Z" fill="#EB534B"/>
<path d="M56.8945 44.4648C58.4308 46.3578 60.3322 48.3941 61.1829 50.7187C59.8171 48.6062 58.0261 46.723 56.8945 44.4648Z" fill="#F59A61"/>
<path d="M62.3414 54.2901C66.7692 54.7915 71.28 54.3125 75.7426 54.4688C78.4132 54.5625 81.1224 54.6809 83.7833 54.8262C85.9781 54.9461 88.4107 55.8708 90.7519 55.1836C90.8418 55.3721 90.2096 55.817 90.5732 55.9876C90.8768 56.13 91.1976 55.2032 91.288 55.8089C91.1365 56.152 90.5497 56.5516 90.3946 56.7917L89.9479 56.4343C87.7435 58.4093 83.6868 58.8539 80.7457 59.1146C68.3705 60.2117 55.142 55.4569 43.6691 51.0739C41.5919 50.2803 37.05 48.6256 35.3604 47.5002C35.1281 47.3455 34.9382 47.1355 34.6457 47.0535C34.5637 46.8377 34.8931 46.1515 35.0924 46.0708C36.3919 45.5442 40.9088 48.1951 42.4184 48.751C48.0758 50.8348 56.4238 53.6201 62.3414 54.2901Z" fill="#F9EFA3"/>
<path d="M35.3603 47.502C37.0499 48.6273 41.5918 50.2821 43.669 51.0756C55.1418 55.4587 68.3704 60.2134 80.7456 59.1163L80.5669 69.1225C80.4107 69.3223 80.1779 69.5515 80.2095 69.8372C75.5096 71.2017 71.1133 72.8311 66.2723 74.1256C65.551 73.7373 64.6379 74.4063 63.8601 74.3043C62.9009 74.1785 56.9973 70.9336 55.9087 70.1946C48.0769 64.877 40.4443 56.7352 35.1816 48.9314C35.5886 48.1995 34.1384 47.6186 35.3603 47.502ZM53.8539 54.8279C55.3598 57.414 57.2144 59.9098 59.393 61.9752C57.5835 59.5757 55.8564 57.0793 53.8539 54.8279Z" fill="#F15849"/>
<path d="M75.3876 53.2199C75.4552 53.2905 75.7123 53.8119 75.745 53.9346H75.3876C75.3855 53.6125 75.0538 53.2444 74.8516 53.0412C75.0161 53.0078 75.2913 53.1191 75.3876 53.2199Z" fill="#F58254"/>
<path d="M74.4941 53.934H74.2261C73.8734 53.9057 73.8734 54.1409 74.2261 54.1127L74.4941 53.934C74.7827 53.961 75.0958 53.934 75.3876 53.934H75.7449C75.7841 54.0812 75.7217 54.3008 75.7449 54.47C71.2823 54.3137 66.7715 54.7927 62.3438 54.2913V54.1127C63.3617 54.2258 64.6393 53.8863 66.0961 54.1127C66.0955 54.3948 66.8076 54.3398 66.9895 54.202C66.7461 54.0142 66.3763 54.1563 66.0961 54.1127C66.0968 53.6926 73.9774 53.8857 74.4941 53.934Z" fill="url(#paint4_linear_1166_60768)"/>
<path d="M74.4974 53.934L74.2294 54.1127C73.8767 54.1409 73.8767 53.9058 74.2294 53.934H74.4974Z" fill="#F48455"/>
<path d="M66.0938 54.1125C66.3739 54.1561 66.7438 54.014 66.9872 54.2018C66.8053 54.3396 66.0932 54.3946 66.0938 54.1125Z" fill="#F2704A"/>
<path d="M53.8594 54.8262C55.8619 57.0776 57.589 59.5739 59.3985 61.9735C57.2199 59.9081 55.3653 57.4122 53.8594 54.8262Z" fill="#F49762"/>
<path d="M28.3939 62.1523L22.1401 58.8466C26.0319 62.1496 29.8234 66.1154 34.2011 68.7635C39.7392 72.1136 46.5545 74.1953 52.4267 76.9829C51.2049 77.7393 48.9644 77.3147 48.049 78.4124C45.0185 79.1673 40.4918 79.5815 39.2936 82.8794C38.3705 81.7049 36.2345 80.8683 34.8265 80.3779C29.0885 75.275 23.3369 68.8864 20.3532 61.7056C19.5281 59.7195 19.1605 57.5796 18.5664 55.541L28.3939 62.1523Z" fill="#F67B69"/>
<path d="M90.3978 56.7929C88.5002 59.7315 86.8496 62.7293 84.5013 65.3697C83.3152 66.7033 81.6824 67.6993 80.5703 69.122L80.749 59.1158C83.6901 58.8551 87.7467 58.4105 89.9511 56.4355L90.3978 56.7929Z" fill="#E14C49"/>
<path d="M28.3945 62.1513C37.4173 68.6 48.324 71.4716 58.4131 75.6418L57.8771 76.2672C54.6226 77.0786 51.2998 77.6018 48.0496 78.4114C48.965 77.3138 51.2055 77.7383 52.4273 76.982C46.5551 74.1943 39.7398 72.1127 34.2017 68.7626C29.824 66.1145 26.0325 62.1486 22.1406 58.8457L28.3945 62.1513Z" fill="#E3585F"/>
<path d="M97.5473 63.582C95.0651 66.0275 90.7706 67.0442 88.1665 69.1212C84.3463 72.1683 81.9051 76.5989 77.0882 79.8421C72.8443 82.6996 57.1099 89.0936 52.43 88.7762C49.4371 88.5733 46.2687 86.6674 43.4959 85.56C42.3127 85.0873 41.0939 85.1409 40.0116 84.1305C39.9898 83.9082 39.4745 83.1058 39.2969 82.8797C40.4951 79.5818 45.0219 79.1676 48.0523 78.4127C51.3025 77.6031 54.6253 77.0799 57.8798 76.2685C60.681 75.5702 63.489 74.8699 66.2779 74.1243C71.1189 72.8297 75.5153 71.2003 80.2151 69.8359C82.6726 69.1224 85.2567 68.8651 87.7198 68.2278C91.2268 67.3204 94.4824 65.5617 97.5473 63.582Z" fill="url(#paint5_linear_1166_60768)"/>
<path d="M87.7185 68.2281C85.2554 68.8654 82.6713 69.1227 80.2139 69.8362C80.1822 69.5505 80.415 69.3212 80.5712 69.1215C81.6833 67.6988 83.3161 66.7028 84.5022 65.3691C85.1355 68.0322 84.7468 68.4209 87.7185 68.2281Z" fill="#F39875"/>
<path d="M34.8286 80.378C36.2366 80.8685 38.3726 81.7051 39.2957 82.8796C39.4733 83.1056 39.9886 83.9081 40.0104 84.1304C40.0474 84.5085 39.9505 84.5665 39.8317 84.8451C39.0907 86.5817 26.8769 93.4453 24.5544 95.2087L21.1594 98.6036C24.9537 94.8717 29.6883 92.5933 34.2032 89.8482L40.1891 85.0238C41.1772 85.2775 49.0185 88.0646 49.5699 88.4188C50.5821 89.069 53.472 93.6904 54.6623 95.03C54.1322 96.0465 53.2995 96.7729 53.5903 97.8889C53.579 98.4293 53.1398 98.7453 52.8755 99.1397C53.0767 98.7632 52.3184 98.0662 52.2501 98.0676C52.0225 98.0726 49.7318 101.007 49.2125 101.463C48.2605 102.298 47.2397 102.656 46.443 103.249C45.4545 103.986 44.5314 104.693 43.8521 105.751C43.7511 102.96 42.9076 105.315 41.8866 105.93C40.5091 106.759 38.82 106.938 37.4195 107.716L39.8317 104.5L41.3505 102.535C40.7121 103.034 40.2429 103.792 39.653 104.321C37.6616 106.108 34.3958 108.33 31.791 107.984L31.8804 106.644L25.0904 107.18L25.9838 105.572C24.9575 106.539 21.7721 108.313 21.8741 105.93C20.2989 106.217 14.881 106.942 13.6548 106.466C13.6137 106.45 13.2239 106.06 13.208 106.019C12.6774 104.65 13.7709 98.8769 13.3867 97.7996C13.2207 97.3341 12.7803 97.8814 12.672 97.6209C12.2053 96.4977 14.0734 90.987 14.4588 89.4908C14.6016 88.9362 15.046 88.8783 14.9055 88.4188L13.5654 88.7761C13.9178 87.6869 14.6645 86.0237 15.3522 85.1131C15.7221 84.6234 16.4506 84.2147 16.9604 83.8624C17.0728 83.1424 15.0649 84.1289 16.4243 81.8968C17.2695 80.509 19.9942 78.9911 21.2488 77.8765C22.2245 77.0095 23.0098 76.0854 23.7503 75.0176C28.3848 77.1934 29.4562 78.5065 34.8286 80.378Z" fill="url(#paint6_linear_1166_60768)"/>
<path d="M40.1859 85.0244L34.2001 89.8488C29.6851 92.5939 24.9506 94.8723 21.1562 98.6042L24.5512 95.2093C26.8737 93.4459 39.0876 86.5823 39.8286 84.8457C39.8203 85.1144 40.0489 84.9892 40.1859 85.0244Z" fill="#8B917D"/>
<path d="M14.4589 89.492L13.4762 89.6707C13.181 89.3274 13.4935 88.9999 13.5655 88.7773L14.9056 88.4199C15.0461 88.8795 14.6017 88.9374 14.4589 89.492Z" fill="#829E87"/>
<path d="M91.4719 94.3145C91.7569 95.15 92.2736 95.7751 92.544 96.6374C93.9061 100.983 93.0175 106.106 91.4719 110.307C90.6038 112.665 88.7053 114.818 88.4343 117.275C87.6152 117.257 87.0849 116.82 86.2007 116.828C84.5578 116.845 82.4618 117.779 81.1976 117.901C80.4926 117.968 80.5044 117.527 79.9469 117.543C78.266 117.594 76.772 117.343 75.4798 117.365C74.4933 117.381 74.9532 117.901 74.7651 117.901C70.0359 117.894 62.0736 111.403 59.1304 107.805C58.0434 106.476 57.0128 105.138 56.5395 103.427L56.2715 104.589C55.3368 102.399 54.6058 100.272 53.9486 97.9775C53.9043 97.8228 53.5959 97.906 53.5912 97.8882C53.3005 96.7721 54.1332 96.0458 54.6633 95.0292C58.6897 99.5601 66.0909 104.188 71.9062 105.929C72.1395 105.999 74.0546 106.308 74.229 106.286C75.0351 106.186 82.0534 101.091 82.9845 100.211C84.9132 98.3885 86.4441 96.3377 87.2728 93.7785C87.8702 93.4858 90.7645 94.3308 91.4719 94.3145Z" fill="#899074"/>
<path d="M39.831 104.501L39.6523 104.322C40.2422 103.793 40.7114 103.035 41.3498 102.535L39.831 104.501Z" fill="#93AA91"/>
</g>
<defs>
<linearGradient id="paint0_linear_1166_60768" x1="107.243" y1="34.8971" x2="87.5853" y2="64.5271" gradientUnits="userSpaceOnUse">
<stop stop-color="#F9D38F"/>
<stop offset="1" stop-color="#F9AF7C"/>
</linearGradient>
<linearGradient id="paint1_linear_1166_60768" x1="25.0342" y1="37.3735" x2="12.9706" y2="68.7249" gradientUnits="userSpaceOnUse">
<stop stop-color="#F35F64"/>
<stop offset="1" stop-color="#D93B50"/>
</linearGradient>
<linearGradient id="paint2_linear_1166_60768" x1="37.7354" y1="40.9067" x2="49.2166" y2="43.6009" gradientUnits="userSpaceOnUse">
<stop stop-color="#EE5548"/>
<stop offset="1" stop-color="#F3714A"/>
</linearGradient>
<linearGradient id="paint3_linear_1166_60768" x1="76.7062" y1="66.2907" x2="103.718" y2="91.8187" gradientUnits="userSpaceOnUse">
<stop stop-color="#C44456"/>
<stop offset="1" stop-color="#E85160"/>
</linearGradient>
<linearGradient id="paint4_linear_1166_60768" x1="36.3962" y1="46.6091" x2="47.8774" y2="49.3032" gradientUnits="userSpaceOnUse">
<stop stop-color="#EE5548"/>
<stop offset="1" stop-color="#F3714A"/>
</linearGradient>
<linearGradient id="paint5_linear_1166_60768" x1="53.7433" y1="65.8613" x2="75.9443" y2="81.5064" gradientUnits="userSpaceOnUse">
<stop stop-color="#F9AB7C"/>
<stop offset="1" stop-color="#FAD994"/>
</linearGradient>
<linearGradient id="paint6_linear_1166_60768" x1="41.6614" y1="83.7977" x2="18.1931" y2="107.331" gradientUnits="userSpaceOnUse">
<stop stop-color="#77565E"/>
<stop offset="1" stop-color="#568580"/>
</linearGradient>
<clipPath id="clip0_1166_60768">
<rect width="127.668" height="122.19" fill="white" transform="translate(0.332031 0.09375)"/>
</clipPath>
</defs>
</svg>
