<svg width="129" height="100" viewBox="0 0 129 100" fill="none" xmlns="http://www.w3.org/2000/svg">
<g clip-path="url(#clip0_1178_72234)">
<path d="M75.0387 4.69669C72.8795 7.39112 74.1898 7.22503 76.0537 9.43963C73.4331 7.24348 70.3327 4.62287 66.7339 4.36449C62.2494 4.0323 58.8352 7.15121 55.7163 9.95637C55.5317 9.51345 54.8304 8.36924 54.5352 7.92632C57.6541 4.58596 61.9356 -0.156994 66.9923 0.470478C69.17 0.747304 73.267 3.31256 75.0387 4.69669Z" fill="#F3CED8"/>
<path d="M50.6395 4.19733C46.4687 7.85143 43.5528 12.7051 42.1687 18.094L41.8365 17.5034C41.7442 17.8541 41.4674 21.379 40.6553 20.3824C40.0094 18.7953 40.0094 17.0974 39.6403 15.4734C39.4742 14.7536 38.5515 13.4618 38.6253 12.6866C38.6622 12.2991 40.4523 9.84457 40.8214 9.3832C42.7961 7.03941 47.5206 2.90548 50.6395 4.21578V4.19733Z" fill="#FFA3CA"/>
<path d="M50.6388 4.19814C51.7645 4.65952 53.85 6.87412 54.5328 7.92606C54.8281 8.36898 55.5294 9.5132 55.7139 9.95612C56.2676 11.2664 57.2272 14.0162 56.2307 15.0313C55.6216 15.7141 55.2525 16.9321 54.5328 17.578C50.2328 13.2965 43.7181 18.2793 41.4851 22.4871C41.4666 21.0845 41.8173 19.442 42.1679 18.0763C43.5336 12.7059 46.4679 7.83379 50.6388 4.17969V4.19814Z" fill="url(#paint0_linear_1178_72234)"/>
<path d="M66.7336 4.36426C66.7705 5.02864 65.737 4.5119 65.5525 4.78873C65.2572 5.2132 66.1061 13.6471 66.2353 14.8652C63.707 11.5802 58.8164 12.1338 56.2511 15.0313C57.2477 13.9978 56.3065 11.248 55.7344 9.95614C58.8533 7.15097 62.249 4.03207 66.752 4.36426H66.7336Z" fill="#EC285D"/>
<path d="M76.0521 9.43734C77.4177 11.0429 78.7465 12.7408 80.2783 14.1803C78.9495 13.9957 77.8791 12.9253 76.2182 12.6485C74.5941 12.3902 74.4834 12.4455 73.007 12.9807C71.6598 13.2391 70.1095 13.9404 69.6113 15.343C69.4821 15.5091 68.9469 15.8043 69.1868 16.1919C70.3864 16.2657 71.2722 17.2438 72.158 17.7237V17.8898C70.9585 17.0777 68.1164 15.7859 66.7323 15.8597C66.7138 15.4721 66.4554 15.14 66.2155 14.8447C66.0863 13.6266 65.2559 5.19268 65.5327 4.76822C65.7357 4.49139 66.7507 5.00813 66.7138 4.34375C70.3125 4.60212 73.413 7.24119 76.0336 9.41889L76.0521 9.43734Z" fill="#ED3871"/>
<path d="M81.1277 12.667C80.5002 12.6855 80.1496 13.6267 80.2787 14.1988C78.747 12.7593 77.3998 11.0614 76.0525 9.45584C74.1886 7.24123 72.8783 7.40733 75.0375 4.71289C77.7504 6.85368 79.965 9.36356 81.1277 12.667Z" fill="#F1ACCA"/>
<path d="M108.572 30.2751C108.646 32.3421 108.24 36.273 107.391 38.1554C107.151 38.6721 106.025 39.2996 106.21 39.9271C105.545 40.573 104.272 42.3262 103.847 43.1383C103.7 43.1567 103.7 43.0829 103.681 42.9722C103.275 40.5546 101.356 38.6168 99.7873 36.882C100.064 36.9558 100.193 36.9374 100.378 37.2142C100.802 36.9189 100.47 36.9005 100.47 36.6975C101.43 36.3653 101.762 33.2464 101.817 32.2129C102.353 24.4987 98.4032 14.3484 91.9993 9.77154L87.1641 6.72646C98.9568 4.56722 108.24 20.2909 108.59 30.2751H108.572Z" fill="url(#paint1_linear_1178_72234)"/>
<path d="M91.9587 9.78719C98.3626 14.364 102.312 24.5143 101.777 32.2285C101.703 33.2805 101.371 36.3994 100.43 36.7131C100.356 31.1212 95.5575 23.2594 89.5965 22.4843C88.9506 22.392 88.2308 22.189 87.5664 22.3182C87.345 21.783 86.6252 21.0079 86.2192 20.6203C87.9724 22.6319 90.3347 21.5061 92.2356 22.9825C93.1399 22.5212 96.0373 25.8615 96.2957 25.8615C96.351 25.8615 96.8862 25.3263 96.8862 25.1049C96.8862 24.865 94.8377 21.34 94.524 20.8787C92.254 17.649 87.8433 14.0318 83.9308 13.1645C83.7831 13.1276 83.857 12.8323 83.8385 12.8323C83.8016 11.928 85.9978 6.98202 86.6252 6.9082C88.3046 7.94169 90.3531 8.64298 91.9587 9.78719Z" fill="url(#paint2_linear_1178_72234)"/>
<path d="M28.621 22.1339C28.3996 22.706 27.8459 23.5734 28.2888 24.164C27.7167 27.3198 27.4399 30.4756 27.9566 33.6499C26.8678 35.44 25.9081 38.7988 26.7755 40.6813L26.351 40.7735C25.945 40.3675 25.4467 39.8323 24.9115 39.5924C25.4098 39.2233 25.2253 39.2971 25.0776 38.8357C24.1364 35.6061 23.2506 33.1147 23.3798 29.6082C23.5274 25.9357 26.0927 17.7416 28.2888 14.7888C30.0605 12.3897 33.9176 10.212 36.9258 10.3781C32.8103 13.3309 29.8575 17.2064 28.621 22.1524V22.1339Z" fill="#FFA8D6"/>
<path d="M38.6104 12.6498C38.5365 13.4249 39.4593 14.7167 39.6254 15.4365C39.9945 17.0605 39.9945 18.7584 40.6404 20.3455C41.4524 21.3421 41.7293 17.8172 41.8215 17.4665L42.1537 18.0571C41.8031 19.4228 41.4524 21.0468 41.4709 22.4678C41.434 22.5417 41.4709 22.8185 41.3048 22.9846C41.1941 23.1507 40.8803 23.5013 40.788 23.6674C40.2898 23.3352 40.4743 22.191 39.6069 22.2279L39.773 26.7125C39.367 28.0413 38.5919 29.8683 39.0902 30.7726C38.8503 31.3078 38.7026 31.8799 38.5734 32.4705C38.4812 32.9503 38.1859 33.301 38.4073 33.8177C35.1777 30.8095 30.6931 29.0563 27.9064 33.6516C27.4081 30.4773 27.242 27.5799 27.8141 24.4241C27.9249 23.8335 28.2755 22.5601 28.4047 22.0803C30.2133 17.5403 31.376 12.3914 36.8018 10.3613L38.5734 12.6498H38.6104Z" fill="url(#paint3_linear_1178_72234)"/>
<path d="M76.219 12.6671C75.1671 12.9624 74.0782 12.7963 73.0078 12.9993C74.4842 12.4641 74.5949 12.4088 76.219 12.6671Z" fill="#FFEAF5"/>
<path d="M66.2183 14.8632C66.4397 15.1585 66.6981 15.4907 66.735 15.8782C65.9784 15.9151 60.9217 17.6315 60.2204 18.0744C59.9436 18.2405 59.5191 18.5358 59.6298 18.9233C58.3933 19.4954 56.7508 20.8611 56.4186 22.2268C56.1787 22.4482 56.271 21.9869 56.2525 21.9684C56.3448 20.1044 55.8465 18.8495 54.5547 17.5576C55.256 16.9117 55.6251 15.7121 56.2525 15.0108C58.8363 12.1134 63.7084 11.5598 66.2367 14.8447L66.2183 14.8632Z" fill="#FFB2DA"/>
<path d="M80.2804 14.1802C80.1512 13.6081 80.5019 12.6853 81.1293 12.6484C81.2216 12.6484 82.3105 13.0914 82.901 13.1652C83.6761 13.239 83.75 12.8145 83.8238 12.833C83.8238 12.833 83.7684 13.1467 83.9161 13.1652C87.8285 14.0326 92.2208 17.6498 94.5093 20.8794C94.8414 21.3408 96.89 24.8657 96.8715 25.1056C96.8715 25.3271 96.3363 25.8622 96.2809 25.8622C96.0226 25.8622 93.1251 22.5219 92.2208 22.9833C90.32 21.5069 87.9577 22.6326 86.2045 20.621C83.6208 18.2772 79.4315 17.1146 75.9619 17.5759C75.2422 17.6682 73.5628 18.6094 73.4151 18.591C73.3413 18.591 72.5478 17.9635 72.1417 17.742C71.2559 17.2807 70.3885 16.2841 69.1705 16.2103C68.9306 15.8227 69.4658 15.5274 69.5949 15.3613C70.3885 14.3648 71.7911 13.4236 72.9907 12.9991C74.0611 12.7961 75.1684 12.9622 76.2019 12.6669C77.8813 12.9253 78.9332 14.0141 80.262 14.1987L80.2804 14.1802Z" fill="url(#paint4_linear_1178_72234)"/>
<path d="M72.9895 13C71.8084 13.4245 70.3873 14.3841 69.5938 15.3622C70.092 13.9597 71.6423 13.2584 72.9895 13Z" fill="#FFEAF5"/>
<path d="M54.5352 17.5772C55.8271 18.8691 56.3069 20.1056 56.2331 21.988C55.9562 21.8403 55.9193 21.6558 55.9009 21.6558C56.1777 18.3154 53.0773 15.9163 49.8845 16.23C46.9686 16.5253 42.7793 20.5669 41.3398 23.003C41.4875 22.8369 41.469 22.5601 41.5059 22.4863C43.739 18.2785 50.2536 13.2772 54.5537 17.5772H54.5352Z" fill="#FFE4ED"/>
<path d="M72.1578 17.908C72.7853 18.3141 74.7599 19.7905 74.4462 20.6209C70.1277 18.2956 64.3144 16.7638 59.6268 18.9231C59.5161 18.5355 59.959 18.2402 60.2174 18.0741C60.9187 17.6312 65.9753 15.9149 66.732 15.878C68.0977 15.8042 70.9398 17.1145 72.1578 17.908Z" fill="#FF9CC5"/>
<path d="M55.9019 21.636C52.9307 20.2149 50.0332 21.636 47.4311 22.8171C43.5186 24.6257 40.9349 26.7111 39.1263 30.7712C38.6096 29.8669 39.4031 28.0399 39.8091 26.7111C40.0675 25.8437 40.4366 24.4227 40.8242 23.666C40.9164 23.4999 41.2302 23.1678 41.3409 22.9832C42.7989 20.5287 46.9697 16.5055 49.8856 16.2102C53.0599 15.878 56.1788 18.2956 55.9019 21.636Z" fill="#FF95C2"/>
<path d="M86.2037 20.6211C86.6282 21.0086 87.348 21.7837 87.551 22.3189C87.1819 22.3927 86.296 23.0387 86.0192 23.3339C86.7758 22.3005 84.0814 21.7837 83.3986 21.8022C82.402 21.8206 81.7007 22.2636 81.1101 22.9833C80.6857 23.2417 79.9844 22.6511 79.5784 22.4666C77.0316 21.3777 75.426 21.0824 73.6543 23.4816C73.4882 23.703 73.5067 23.7953 73.4882 23.8138C73.2114 24.2198 72.8054 25.3086 72.7316 25.3455C72.5839 25.4009 70.5908 24.2936 69.7603 24.1644C67.8041 23.8507 66.4015 24.1091 64.8512 25.3455C64.8697 24.5889 63.8916 23.9983 63.3195 23.6477C62.4706 23.1125 61.6216 22.7803 60.6066 22.6327C59.61 22.485 58.4473 22.3005 57.7276 23.3155C57.2478 23.9245 57.7645 24.5889 57.8937 25.1795C57.7091 25.2902 56.731 26.3052 57.137 26.5267C57.8199 26.5267 58.6873 26.4898 59.3332 26.6928C60.6066 27.0988 61.4924 29.6456 62.6366 28.3906C62.5075 28.7228 62.3598 29.0366 62.3045 29.4057C62.1199 30.4761 62.5259 31.3988 62.4705 32.4507L62.1384 32.3585C61.3079 27.3941 59.4255 25.8438 54.5164 27.5232C55.0885 26.988 55.5315 27.0619 56.2143 26.4159C56.3804 26.2498 57.3954 25.0872 56.8971 24.9764C56.2327 23.2232 52.2834 24.1829 51.6559 25.3086C51.5821 25.4563 51.4713 26.7112 51.4898 26.8404C50.6409 25.0318 49.9949 22.3558 47.4297 22.7803C50.0318 21.5807 52.9293 20.1781 55.9006 21.5992C55.919 21.5992 55.9559 21.8022 56.2327 21.9314C56.2327 21.9314 56.1774 22.4112 56.3988 22.1897C56.731 20.8241 58.3735 19.4584 59.61 18.8863C64.2976 16.7086 70.1109 18.2404 74.4294 20.5841C74.7616 19.7721 72.7685 18.2957 72.141 17.8713V17.7052C72.547 17.9266 73.3406 18.5541 73.4144 18.5541C73.5436 18.5541 75.2414 17.6313 75.9612 17.5391C79.4307 17.0777 83.62 18.2404 86.2037 20.5841V20.6211Z" fill="#E41934"/>
<path d="M79.5959 22.4849C77.2521 22.0235 75.4251 21.4145 73.6719 23.4999C75.4436 21.0823 77.0491 21.396 79.5959 22.4849Z" fill="#FFC8D8"/>
<path d="M86.0379 23.3336C85.2443 24.2195 84.1555 27.4491 84.5061 28.501C84.5984 28.7963 85.0044 28.741 85.0228 28.7594C85.3181 29.147 86.0563 29.4053 86.0379 30.1066C85.0967 29.0547 82.2177 27.2461 80.8705 26.8954C80.7597 26.8585 80.8705 27.3015 80.5383 27.2276C80.3906 27.1907 80.4644 26.8954 80.446 26.8954C80.1692 26.3418 80.1876 25.7143 80.2799 25.1238C80.3537 24.6808 80.8705 23.3336 81.1288 23.0014C81.7194 22.2817 82.4207 21.8388 83.4173 21.8203C84.1185 21.8203 86.7945 22.3186 86.0379 23.3521V23.3336Z" fill="#F56296"/>
<path d="M79.5991 22.4852C79.9866 22.6513 80.7064 23.2604 81.1309 23.002C80.8725 23.3157 80.3558 24.6814 80.2819 25.1243C80.1897 25.7149 80.1712 26.3423 80.448 26.896C79.9497 26.8222 79.636 26.7299 79.1008 26.7299C77.2553 26.693 76.96 27.2097 75.7051 28.4278C75.3913 27.9848 73.0291 25.8256 72.9922 25.6411C72.9922 25.5488 73.5274 24.1647 73.5089 23.8694C73.5274 23.8325 73.5089 23.7586 73.675 23.5372C75.4283 21.4518 77.2553 22.0608 79.5991 22.5222V22.4852Z" fill="#F15582"/>
<path d="M40.8218 23.6669C40.4342 24.4236 40.0651 25.8446 39.8067 26.712L39.6406 22.2274C40.5265 22.1905 40.3235 23.3347 40.8218 23.6669Z" fill="#EA2B5C"/>
<path d="M89.5964 22.485C85.7578 22.1713 84.5398 25.4748 85.0196 28.7598C85.0196 28.7413 84.6136 28.7967 84.5029 28.5014C84.1338 27.4495 85.2411 24.2198 86.0346 23.334C86.293 23.0387 87.1788 22.3928 87.5664 22.319C88.2308 22.1898 88.9505 22.4112 89.5964 22.485Z" fill="#FEE3F4"/>
<path d="M60.6446 22.6523C60.1463 22.8922 58.0978 22.9292 57.7656 23.3352C58.4854 22.3386 59.648 22.5231 60.6446 22.6523Z" fill="#FFBAD2"/>
<path d="M100.431 36.7164C100.431 36.9195 100.763 36.9379 100.339 37.2332C100.154 36.9564 100.025 36.9564 99.7482 36.901C99.6559 36.8825 99.4898 36.9379 99.416 36.901C94.5254 32.9516 86.3867 32.4902 80.9609 35.5538C82.5112 34.2066 81.2193 33.4499 80.9609 31.8259C81.4223 32.7117 81.8652 33.5422 82.0682 34.5387C83.7292 33.5237 85.7223 33.2284 87.6601 33.1915C87.8262 33.0993 86.2206 30.3495 86.0545 30.1465C86.073 29.4267 85.3348 29.1683 85.0395 28.7992C84.5597 25.5327 85.7777 22.2108 89.6163 22.5245C95.5773 23.2996 100.376 31.1615 100.449 36.7534L100.431 36.7164Z" fill="url(#paint5_linear_1178_72234)"/>
<path d="M63.3393 23.6674C62.0475 25.2914 60.9401 24.3871 59.353 24.6824C59.2792 24.6824 57.9873 25.1438 57.9135 25.1991C57.7843 24.6086 57.2491 23.9442 57.7474 23.3352C58.0796 22.9292 60.1281 22.9107 60.6264 22.6523C61.6414 22.8 62.4904 23.1506 63.3393 23.6674Z" fill="#F8518B"/>
<path d="M51.4882 26.8961C51.4882 27.136 51.8204 28.8708 51.9126 28.9261L53.186 28.2433C51.2852 29.4982 51.4328 30.4025 52.8538 31.9712C52.6877 31.7682 50.8053 30.4948 50.8238 30.1995C50.8238 30.0519 51.156 30.1257 51.156 30.1073C51.5251 29.5167 51.5989 29.1291 50.9899 29.7751C48.6461 27.4128 45.3242 29.5721 42.9435 30.9562C41.4302 31.842 41.0242 31.8605 40.1568 33.6691L38.625 32.488C38.7542 31.8974 38.9018 31.3437 39.1417 30.7901C40.9319 26.7115 43.534 24.6261 47.4465 22.836C50.0302 22.4115 50.6577 25.0875 51.5066 26.8961H51.4882Z" fill="#FFBBE2"/>
<path d="M64.8703 25.3639C64.003 26.0467 63.0802 27.3939 62.6742 28.409C61.53 29.6639 60.6441 27.1356 59.3707 26.7111C58.7248 26.5081 57.839 26.545 57.1746 26.545C56.7686 26.3051 57.7651 25.3085 57.9312 25.1978C58.0051 25.1424 59.2969 24.6995 59.3707 24.681C60.9579 24.3858 62.0652 25.2901 63.357 23.666C63.9291 24.0167 64.9073 24.5888 64.8888 25.3639H64.8703Z" fill="#F52E60"/>
<path d="M75.7009 28.4089C75.3134 28.778 73.191 31.3986 73.1541 31.7123C73.0249 32.8381 74.446 33.1334 74.5013 34.1669C72.8404 32.7089 70.0721 31.011 67.8206 30.7711C66.0674 30.5866 65.4215 31.1956 64.3511 32.469L64.4433 31.6201L62.4871 32.469C62.5425 31.4171 62.118 30.4943 62.321 29.4239C64.0189 26.1389 65.7721 24.1089 69.7769 24.1827C70.6073 24.3119 72.6005 25.4376 72.7481 25.3638C72.8219 25.3269 73.2464 24.238 73.5048 23.832C73.5232 24.1458 72.988 25.5114 72.988 25.6037C73.0249 25.7883 75.3872 27.966 75.7009 28.3904V28.4089Z" fill="#FB70AB"/>
<path d="M56.9131 25.0149C56.0457 24.5166 55.3075 24.2398 54.2925 24.3321C53.2775 24.4244 52.5762 25.2364 51.6719 25.3471C52.2993 24.2029 56.2672 23.2617 56.9131 25.0149Z" fill="#FFCFDF"/>
<path d="M69.7762 24.1842C65.7714 24.1104 64.0182 26.1404 62.3203 29.4254C62.3941 29.0563 62.5233 28.7426 62.6525 28.4104C63.0585 27.3954 63.9813 26.0482 64.8487 25.3653C66.3989 24.1288 67.8015 23.8705 69.7577 24.1842H69.7762Z" fill="#FDDCE7"/>
<path d="M56.9141 25.0335C57.4123 25.1443 56.4158 26.3069 56.2312 26.473C55.5484 27.1005 55.1055 27.0267 54.5334 27.5803C54.0166 27.7649 53.6291 27.9494 53.1861 28.2632L51.9127 28.946C51.8389 28.8906 51.5067 27.1559 51.4883 26.916C51.4883 26.8052 51.5806 25.5318 51.6544 25.3842C52.5771 25.2735 53.26 24.4614 54.275 24.3692C55.29 24.2769 56.0282 24.5537 56.8956 25.052L56.9141 25.0335Z" fill="#F8668B"/>
<path d="M79.0964 26.7136C78.875 27.1196 78.4136 26.5475 78.4136 27.3042C78.4136 27.5625 80.5913 31.0874 80.9604 31.7887C81.2188 33.4128 82.5106 34.1694 80.9604 35.5167C80.2776 35.9042 79.3548 36.384 78.7642 36.8639L77.4908 37.5467C76.6604 36.1995 75.7007 35.1845 74.5196 34.151C74.4642 33.1175 73.0432 32.8038 73.1724 31.6965C73.2093 31.3827 75.3316 28.7621 75.7192 28.393C76.9556 27.1934 77.2509 26.6582 79.1149 26.6951L79.0964 26.7136Z" fill="#FF7CB5"/>
<path d="M80.447 26.8779C80.447 26.8779 80.3916 27.1916 80.5392 27.2101C80.8899 27.2839 80.7791 26.841 80.8714 26.8779C82.2186 27.247 85.0976 29.0372 86.0388 30.0891C86.2234 30.2921 87.8105 33.0604 87.6444 33.1342C85.7066 33.1711 83.7319 33.4664 82.0525 34.4814C81.868 33.4848 81.4066 32.6543 80.9452 31.7685C80.5761 31.0672 78.4169 27.5423 78.3984 27.2839C78.3984 26.5273 78.8598 27.0994 79.0813 26.6934C79.6349 26.6934 79.9302 26.7856 80.4285 26.8595L80.447 26.8779Z" fill="#FD7FB7"/>
<path d="M62.4884 32.4701L64.4447 31.6212L64.3524 32.4701C63.5958 33.356 62.8575 34.7586 62.4884 35.8659C62.4515 35.829 61.6395 35.589 61.4734 35.5337C60.4584 33.965 58.0961 35.0723 56.6382 35.6998C55.7339 36.0873 54.6081 36.7517 53.8515 37.3976C53.1317 37.8221 53.021 37.8775 52.3197 38.4127C52.1352 38.4496 51.3785 38.8556 51.3047 38.9294C52.5412 36.641 55.4202 37.5822 54.3498 34.2787C54.1283 33.559 53.3347 32.5809 52.818 31.9903C51.397 30.4216 51.2493 29.5173 53.1502 28.2624C53.6116 27.9671 53.9807 27.7641 54.4974 27.5796C59.4065 25.8817 61.2889 27.4504 62.1193 32.4148L62.4515 32.507L62.4884 32.4701Z" fill="#FF8CBE"/>
<path d="M117.873 53.639C117.412 53.8789 115.16 57.939 114.477 58.8064C110.713 63.6416 104.456 67.6464 98.5508 69.1412C99.5104 68.7906 100.378 67.9601 101.171 67.5356C110.011 62.7742 116.489 52.421 115.659 41.9569C117.338 40.499 116.452 28.0049 115.659 27.7281C116.914 24.9598 119.645 30.7363 120.069 32.0466C122.395 39.3548 120.623 46.7737 117.873 53.639Z" fill="url(#paint6_linear_1178_72234)"/>
<path d="M14.9094 28.2424C14.8171 28.7222 14.3373 29.4604 14.2265 30.0141C12.5287 39.0201 14.7433 47.0296 20.8334 53.8026C18.9879 53.6734 18.5635 54.1717 18.2866 56.0911C17.5115 61.5537 20.4459 63.7499 23.7124 67.0164C29.8764 73.1989 35.0069 76.853 44.3821 75.8195C44.4374 76.447 43.5701 76.8899 43.0349 77.1667C42.352 76.8899 41.3554 77.462 40.7464 77.4989C38.458 77.6835 34.3241 77.2221 32.1095 76.9822C31.6481 76.9268 31.4266 77.2036 31.0944 77.1483C28.7691 76.853 24.5614 75.4504 21.7008 74.2693C12.8424 71.0765 6.56768 62.7349 2.10156 54.67C5.73721 52.7507 10.351 53.2859 14.2634 53.1936C10.7201 48.303 8.76383 41.6223 9.35439 35.5875C9.64968 32.5978 11.2737 27.4857 14.854 27.375C15.26 27.6518 15.0201 27.8548 14.9463 28.2239L14.9094 28.2424Z" fill="url(#paint7_linear_1178_72234)"/>
<path d="M115.678 27.7274C116.472 28.0043 117.358 40.4983 115.678 41.9563C115.568 40.6091 115.365 39.1142 114.663 37.97C113.925 36.7704 113.704 36.5859 112.467 36.6966C110.419 36.8996 107.632 38.4867 106.192 39.9078C106.026 39.2618 107.152 38.6344 107.374 38.1361C108.222 36.2537 108.628 32.3227 108.555 30.2558C110.695 28.7978 113.168 28.2073 115.66 27.709L115.678 27.7274Z" fill="#E06099"/>
<path d="M23.3825 29.5914C23.2533 33.0978 24.1391 35.6077 25.0803 38.8189C25.2095 39.2803 25.4125 39.2064 24.9142 39.5755C18.5472 36.7888 19.0086 44.4108 20.1713 48.3048C20.8172 50.4456 22.3859 52.5125 23.3825 54.4872C22.7735 54.3027 21.3893 53.8413 20.8357 53.8044C14.7455 47.0314 12.5309 39.0219 14.2288 30.0158C14.3395 29.4437 14.8193 28.724 14.9116 28.2441L23.3825 29.5914Z" fill="url(#paint8_linear_1178_72234)"/>
<path d="M50.9721 29.7565C50.9905 29.775 51.1197 30.0149 51.1382 30.0887C51.1382 30.1072 50.806 30.0334 50.806 30.181C50.806 30.4763 52.6699 31.7497 52.836 31.9527C53.3343 32.5248 54.1279 33.5214 54.3678 34.2411C55.4382 37.5446 52.5408 36.6218 51.3227 38.8918C51.1013 39.0763 49.8463 40.5897 49.7171 40.5897C47.4841 37.8399 46.303 34.3518 42.2613 34.4995C41.7076 34.5179 40.4158 35.0162 39.9729 35.0162C39.4008 34.2411 39.8437 34.2965 40.139 33.669C41.0248 31.8604 41.4308 31.842 42.9257 30.9561C45.3064 29.5535 48.6283 27.4128 50.9721 29.775V29.7565Z" fill="#FF96CC"/>
<path d="M51.1583 30.1079C51.1583 30.0341 51.0106 29.7942 50.9922 29.7757C51.6012 29.1482 51.5274 29.5173 51.1583 30.1079Z" fill="#FF99D1"/>
<path d="M38.4384 33.8356C38.7337 34.5738 39.1951 34.9983 39.9702 35.0167C40.4131 35.0167 41.705 34.5369 42.2586 34.5C46.3003 34.3523 47.4814 37.8403 49.7145 40.5901C49.8437 40.5901 51.0986 39.0953 51.3201 38.8923C51.3939 38.8185 52.1505 38.4309 52.3351 38.3755C52.1136 38.5601 50.1943 40.3502 50.1389 40.4979C49.8068 41.2914 51.4123 43.506 51.8368 44.558C52.2613 45.6653 52.8334 47.2155 52.6857 48.3597C52.6857 48.3782 52.2982 48.5627 52.5935 48.8765C52.7596 48.8026 52.6488 48.3782 52.6857 48.3597C53.4978 48.1013 52.372 49.8546 52.3536 50.0576C51.4493 50.6481 50.2681 51.4048 49.4746 52.0876C49.6222 51.4971 48.7364 52.2353 48.7179 52.2537C46.3741 54.2838 43.3844 58.307 42.5355 61.3152C42.1848 62.5332 42.5355 63.825 41.9449 64.9508C41.2436 63.9911 40.8376 64.8032 40.7638 64.7847C38.3646 64.3233 37.6264 62.2379 36.0208 61.0568C35.7625 60.8722 34.4337 60.0787 34.323 60.0418C33.5848 59.7649 33.1603 60.3001 32.3667 59.8757C29.8384 58.0302 26.3504 55.3911 23.3976 54.4499C22.401 52.4752 20.8139 50.4082 20.1864 48.2674C19.0237 44.3919 18.5624 36.7515 24.9294 39.5382C25.4646 39.7781 25.9628 40.3133 26.3688 40.7193L26.7933 40.627C25.9259 38.7446 26.8856 35.3858 27.9744 33.5957C30.7611 29.0004 35.2457 30.7536 38.4754 33.7618L38.4384 33.8356ZM30.7427 47.7138C30.7427 49.9468 30.8534 51.2941 31.4255 53.3057C31.8315 53.2872 30.9272 48.2859 30.7427 47.7138Z" fill="url(#paint9_linear_1178_72234)"/>
<path d="M74.5207 34.1678C75.7018 35.2013 76.643 36.2163 77.492 37.5635L78.7654 36.8807C76.3662 38.8185 74.3546 42.085 73.3396 45.0194C73.0258 45.6468 72.8966 46.3112 72.4906 46.8833C67.6185 45.0563 65.8837 44.5211 60.8086 46.0344C63.6691 44.2812 67.2309 44.3181 70.2022 45.7022L70.4606 45.2777C68.9473 41.7897 65.7915 39.1138 62.9309 36.7331C62.5987 36.4562 62.691 36.0133 62.5065 35.8841C62.8756 34.7768 63.6138 33.3742 64.3704 32.4884C65.4408 31.2335 66.0867 30.6244 67.84 30.7905C70.0915 31.012 72.8597 32.7283 74.5207 34.1863V34.1678Z" fill="url(#paint10_linear_1178_72234)"/>
<path d="M40.1378 33.6694C39.8241 34.2969 39.3996 34.26 39.9717 35.0166C39.1966 35.0166 38.7537 34.5737 38.44 33.8355C38.2185 33.3003 38.5138 32.9497 38.6061 32.4883L40.1378 33.6694Z" fill="#FF76B9"/>
<path d="M99.4158 36.8814C97.478 36.1801 95.8908 34.796 93.5655 34.3346C83.9689 32.4153 77.5096 36.6415 73.3203 45.0016C74.3169 42.0857 76.3469 38.8192 78.7461 36.8629C79.3367 36.3831 80.2594 35.8848 80.9422 35.5157C86.3865 32.4706 94.5067 32.9135 99.3973 36.8629L99.4158 36.8814Z" fill="#FFF4FB"/>
<path d="M99.4181 36.8802C99.4919 36.9171 99.658 36.8618 99.7503 36.8802C101.319 38.6334 103.238 40.5528 103.644 42.9704C102.998 43.967 102.297 45.3326 101.946 46.4399C101.743 47.1043 101.227 50.6661 101.098 50.8507C100.895 51.1275 99.658 51.2382 99.7503 51.958C97.7756 52.9361 96.3361 54.4679 95.0073 56.1842C93.6048 54.9846 91.5009 59.1555 92.1284 60.0782C91.0764 61.7392 89.9876 63.4739 88.0683 64.3044C88.0498 62.0713 87.3116 59.7829 86.2043 57.8636C83.6021 52.4563 77.9549 48.8944 72.4922 46.8459C72.8982 46.2738 73.0274 45.6095 73.3411 44.982C77.512 36.6218 83.9712 32.3956 93.5863 34.315C95.9116 34.7763 97.4803 36.1605 99.4366 36.8618L99.4181 36.8802Z" fill="url(#paint11_linear_1178_72234)"/>
<path d="M61.4735 35.5152C59.0559 34.574 56.0293 36.0873 53.8516 37.3791C54.6082 36.7332 55.734 36.0688 56.6383 35.6813C58.0962 35.0538 60.44 33.9465 61.4735 35.5152Z" fill="#FFE5F5"/>
<path d="M61.4753 35.5149C61.6414 35.5887 62.4534 35.8286 62.4903 35.8471C62.6749 35.9763 62.5826 36.4192 62.9148 36.696C65.7938 39.0767 68.9496 41.7712 70.4444 45.2407L70.1861 45.6652C67.2148 44.2995 63.6345 44.2441 60.7925 45.9974C57.8396 46.8832 54.9053 48.3781 52.3216 50.0575C52.34 49.8545 53.4843 48.1013 52.6538 48.3596C52.8014 47.197 52.2293 45.6467 51.8049 44.5579C51.3988 43.5059 49.7748 41.2913 50.107 40.4978C50.1623 40.3501 52.0817 38.56 52.3031 38.3754C52.986 37.8402 53.0967 37.7849 53.8349 37.3604C56.0126 36.0686 59.0392 34.5552 61.4568 35.4965L61.4753 35.5149Z" fill="url(#paint12_linear_1178_72234)"/>
<path d="M115.679 41.9541C116.51 52.4181 110.032 62.7714 101.192 67.5328C100.38 67.9757 99.5312 68.7878 98.5715 69.1384C104.477 67.6435 110.733 63.6388 114.498 58.8036C115.163 57.9546 117.433 53.8945 117.894 53.6362C119.739 52.6211 126.143 53.4516 128.229 54.4851C120.736 66.204 115.255 76.8895 99.1067 78.6981C97.6857 78.8642 96.2646 78.7904 94.8805 79.0303C93.9578 78.9749 92.8874 78.6243 92.0015 79.0303C88.8088 77.6277 85.7268 75.8745 82.5156 74.4535C82.9401 74.1397 83.4753 73.7891 83.8629 73.4384C91.7985 73.3646 100.196 68.5663 103.167 60.9813C103.942 59.0066 105.437 52.3259 103.167 51.0709C102.355 50.6095 100.602 51.5138 99.7711 51.9198C99.6973 51.2001 100.915 51.1078 101.118 50.8125C101.248 50.628 101.764 47.0846 101.967 46.4018C102.318 45.276 103.019 43.9288 103.665 42.9322C103.684 43.0614 103.665 43.1168 103.831 43.0983C103.259 44.1687 102.447 46.2357 102.133 47.4168C102.004 47.9151 101.672 49.0593 101.875 49.5391C103.075 43.4305 106.507 38.7983 112.468 36.676C113.723 36.5652 113.926 36.7498 114.664 37.9494C115.366 39.0936 115.569 40.5884 115.679 41.9357V41.9541Z" fill="url(#paint13_linear_1178_72234)"/>
<path d="M112.462 36.7148C106.52 38.8556 103.087 43.4878 101.869 49.578C101.666 49.0982 101.998 47.954 102.127 47.4557C102.441 46.2746 103.253 44.2076 103.825 43.1372C104.268 42.3067 105.541 40.5719 106.187 39.926C107.627 38.505 110.414 36.8994 112.462 36.7148Z" fill="#DEFCD9"/>
<path d="M72.4899 46.865C77.9526 48.9135 83.6183 52.4569 86.202 57.8827C83.1569 52.5676 77.0852 48.6367 71.3826 46.6989C65.5877 44.7427 63.0594 45.1487 57.4859 47.5478C51.8941 49.9654 46.8743 54.1178 43.8477 59.396C45.0657 56.5908 47.1142 54.0994 49.4395 52.1062C50.2331 51.4234 51.4142 50.6667 52.3185 50.0762C54.9022 48.3968 57.8366 46.9019 60.7894 46.0161C65.8645 44.4843 67.5993 45.0379 72.4714 46.865H72.4899Z" fill="#FEF3FA"/>
<path d="M86.2034 57.8816C87.2922 59.8009 88.0304 62.0894 88.0673 64.3224C88.0673 64.913 87.975 65.4482 87.9012 66.0203C87.5506 68.9362 85.9819 71.5014 83.8411 73.4761C83.4536 73.8268 82.9184 74.1774 82.4939 74.4911C77.7509 77.9791 71.1994 79.0864 65.3861 79.068C60.1817 79.0495 52.8182 77.7577 48.4443 74.8418C46.2666 73.3838 43.5168 70.3203 42.8525 67.7366C42.7971 67.5151 42.5572 67.4413 42.5203 67.2199C42.5203 67.1645 42.5203 67.1091 42.5203 67.0538C42.1696 64.3962 42.834 61.831 43.8675 59.4318C46.8757 54.1352 51.9139 49.9828 57.5058 47.5837C63.0792 45.1845 65.6075 44.7785 71.4024 46.7348C77.105 48.6725 83.1767 52.585 86.2218 57.9185L86.2034 57.8816Z" fill="url(#paint14_linear_1178_72234)"/>
<path d="M30.7461 47.7148C30.9122 48.287 31.8349 53.2698 31.4289 53.3067C30.8568 51.3136 30.7461 49.9479 30.7461 47.7148Z" fill="#FF7FBE"/>
<path d="M52.6673 48.3965C52.6304 48.3965 52.7411 48.821 52.575 48.9132C52.2797 48.5995 52.6488 48.4334 52.6673 48.3965Z" fill="#FF95CD"/>
<path d="M103.142 51.1104C98.4732 51.7563 95.7418 55.4104 93.3242 59.0645C93.5088 58.8061 93.7487 58.0864 94.0071 57.7173C94.3577 57.219 94.653 56.6653 95.0221 56.1855C96.3508 54.4507 97.7903 52.9374 99.765 51.9593C100.577 51.5533 102.33 50.649 103.161 51.1104H103.142Z" fill="#FAE4EA"/>
<path d="M103.144 51.1113C105.414 52.3663 103.919 59.047 103.144 61.0217C100.154 68.5883 91.7755 73.3866 83.8398 73.4788C85.9806 71.5226 87.5493 68.9574 87.9 66.023C88.4167 66.1891 89.321 65.0818 89.5978 64.7496C91.0004 63.0333 92.0708 60.911 93.3257 59.0839C95.7434 55.4298 98.4932 51.7757 103.144 51.1298V51.1113Z" fill="url(#paint15_linear_1178_72234)"/>
<path d="M49.4605 52.1222C47.1351 54.0969 45.0866 56.5883 43.8686 59.412C42.8351 61.8111 42.1523 64.3764 42.5214 67.0339L38.4613 64.8377C36.3758 63.2875 34.4565 61.442 32.3711 59.9287C33.1647 60.3532 33.5707 59.818 34.3273 60.0948C34.4196 60.1317 35.7484 60.9253 36.0252 61.1098C37.6308 62.2909 38.369 64.3764 40.7681 64.8377C40.842 64.8377 41.248 64.0626 41.9493 65.0038C42.5214 63.8781 42.1892 62.5678 42.5398 61.3682C43.3888 58.36 46.36 54.3368 48.7223 52.3068C48.7592 52.2883 49.6266 51.5501 49.4789 52.1407L49.4605 52.1222Z" fill="#F25C86"/>
<path d="M131.086 54.8378L130.495 56.019L128.539 55.0039C128.761 54.5795 129.056 54.155 129.056 53.6567C130.68 52.4018 131.067 52.9185 131.086 54.8378Z" fill="#D6A7BA"/>
<path d="M128.559 55.0054C124.591 62.5166 119.128 70.2308 111.709 74.66C108.11 76.8008 103.257 78.8124 99.0859 78.7202C115.234 76.9116 120.715 66.2261 128.208 54.5071C128.448 54.138 128.706 53.935 129.057 53.6582C129.057 54.1565 128.762 54.5994 128.54 55.0054H128.559Z" fill="#E8D6DE"/>
<path d="M20.8345 53.8238C21.3882 53.8608 22.7723 54.3037 23.3813 54.5067C26.3341 55.4479 29.8221 58.087 32.3505 59.9325C34.4543 61.4642 36.3737 63.2913 38.4406 64.8415C39.6956 65.7643 40.9505 66.8716 42.5007 67.2038C42.5377 67.4252 42.7776 67.4806 42.8329 67.7205C36.669 69.0308 29.8775 68.0342 23.6951 67.0377C20.4285 63.7711 17.5126 61.575 18.2693 56.1123C18.5461 54.1929 18.9706 53.6947 20.8161 53.8238H20.8345Z" fill="url(#paint16_linear_1178_72234)"/>
<path d="M131.086 54.8379C131.215 64.4899 121.212 74.5294 112.631 77.5376C108.81 78.8664 105.119 79.1616 101.115 79.2355C99.0291 79.2724 96.9437 79.1986 94.8398 79.0694C96.2424 78.811 97.645 78.8848 99.066 78.7372C103.237 78.8295 108.091 76.8179 111.689 74.6771C119.108 70.2479 124.571 62.5521 128.539 55.0224L130.495 56.0375L131.086 54.8563V54.8379Z" fill="#F05B9B"/>
<path d="M21.6843 74.307C24.5449 75.4881 28.7711 76.8907 31.0779 77.186C31.4101 77.2229 31.6316 76.9645 32.093 77.0199C34.3076 77.2598 38.4415 77.7212 40.7299 77.5366C41.339 77.4812 42.3171 76.9091 43.0184 77.2044C42.2432 77.6104 41.1359 77.8503 40.3055 78.2194C36.393 78.3855 32.5543 78.9207 28.6234 78.7362C25.5599 78.5885 22.4225 78.0718 19.4697 77.2044C12.4199 75.1375 3.54301 69.2318 1.01467 62.0528C0.700937 61.1854 -0.240271 57.4944 -0.000354964 56.7931C0.0365551 56.664 2.14043 55.1876 2.28807 55.1876C2.80481 55.1691 5.3147 59.8382 5.92372 60.6872C10.1868 66.7035 14.9113 71.5203 21.6659 74.3254L21.6843 74.307Z" fill="url(#paint17_linear_1178_72234)"/>
<path d="M95.0047 56.1837C94.6356 56.6635 94.3218 57.2172 93.9896 57.7155C93.1038 57.8447 92.5871 59.3764 92.1257 60.0777C91.4982 59.155 93.6021 54.9841 95.0047 56.1837Z" fill="#EE4380"/>
<path d="M93.9914 57.7168C93.7331 58.0859 93.4931 58.8056 93.3086 59.064C92.0536 60.9095 90.9833 63.0134 89.5807 64.7297C89.3039 65.0619 88.418 66.1692 87.8828 66.0031C87.9566 65.431 88.0674 64.8958 88.0489 64.3052C89.9682 63.4748 91.0571 61.74 92.109 60.079C92.5704 59.3593 93.0687 57.8275 93.973 57.7168H93.9914Z" fill="#D72B66"/>
<path d="M42.521 67.0184C42.521 67.0738 42.521 67.1291 42.521 67.1845C40.9524 66.8339 39.6974 65.745 38.4609 64.8223L42.521 67.0184Z" fill="#FFA7D9"/>
<path d="M42.8527 67.7004C43.4987 70.2841 46.2485 73.3477 48.4446 74.8056C47.1712 75.4331 45.7686 75.673 44.3845 75.8206C35.0093 76.8541 29.8973 73.2 23.7148 67.0176C29.8973 68.0142 36.6887 68.9923 42.8527 67.7004Z" fill="#FF6AAC"/>
<path d="M91.9614 79.0515C94.1944 80.0296 96.206 81.0262 98.5683 81.7644C99.6387 82.0965 100.672 82.4103 101.779 82.6133C101.687 82.724 101.521 83.5729 101.447 83.7944C92.109 89.7369 78.6184 94.7567 68.2466 88.7034C68.0621 88.5374 66.9732 87.467 66.8994 87.3562C65.5891 85.4923 65.5707 83.739 65.2016 81.5983C65.2016 80.7678 65.0908 79.8635 65.3677 79.0515C71.181 79.0884 77.7325 77.9626 82.4755 74.4746C85.6867 75.8772 88.7687 77.6304 91.9614 79.0515Z" fill="url(#paint18_linear_1178_72234)"/>
<path d="M65.3676 79.0515C65.0907 79.8451 65.2015 80.7678 65.2015 81.5983C65.183 84.3481 65.2015 85.2708 64.1864 87.873C63.6512 88.3713 63.2268 88.9065 62.6547 89.4048C53.4825 97.322 35.0459 93.2803 25.2278 88.0576C24.951 87.8361 24.6373 87.6146 24.3789 87.3747C28.5313 85.2339 32.5914 81.8198 36.9099 79.7528C37.888 79.5129 39.2906 78.6639 40.3056 78.221C41.1361 77.8519 42.2434 77.612 43.0185 77.206C43.5722 76.9107 44.4395 76.4862 44.3657 75.8588C45.7683 75.7111 47.1524 75.4712 48.4258 74.8438C52.7997 77.7781 60.1448 79.0515 65.3676 79.0699V79.0515Z" fill="url(#paint19_linear_1178_72234)"/>
<path d="M102.978 86.6717C101.926 88.1481 99.5639 90.3997 98.069 91.4147C96.7218 92.3374 94.1935 93.6293 92.6432 94.1276C92.2372 94.2568 91.4252 94.349 90.9454 94.4598C88.3247 95.0872 86.2209 95.3641 83.4895 95.3087C83.3234 95.3087 83.1573 95.3087 82.9728 95.3087C81.3672 95.2533 78.9496 94.9765 77.3809 94.6259C76.7534 94.4967 75.6277 94.1645 75.0187 93.943C74.3174 93.7031 73.4869 93.2786 72.8225 92.928C69.7036 91.3224 69.0946 89.8091 66.8984 87.5022V87.3361C66.9723 87.4468 68.0796 88.5357 68.2457 88.6833C75.6461 95.3087 93.0677 89.846 100.505 84.7893L104.307 82.0026C103.236 82.2979 102.351 83.2022 101.428 83.7743C101.52 83.5344 101.686 82.7039 101.76 82.5932C101.834 82.5009 103.716 81.412 103.882 81.412C106.595 81.1906 103.569 85.7859 102.96 86.6533L102.978 86.6717Z" fill="#FF82C1"/>
<path d="M68.2461 88.7022C78.6178 94.7555 92.1085 89.7357 101.447 83.7932C102.369 83.2026 103.255 82.2983 104.326 82.0215L100.524 84.8082C93.0866 89.8649 75.6466 95.3276 68.2645 88.7022H68.2461Z" fill="#FCF2F5"/>
<path d="M24.3972 87.3563C24.6556 87.5963 24.9693 87.8177 25.2461 88.0392C29.6938 91.4349 40.4162 93.9448 45.9896 94.1293C51.36 94.3139 58.945 93.5019 62.673 89.3864C63.2451 88.8881 63.6695 88.3714 64.2047 87.8546C62.267 92.8744 57.3764 96.713 52.3566 98.3555C50.345 99.0199 47.3553 99.6659 45.2514 99.7028C42.5016 99.7766 38.5707 99.186 35.9316 98.3555C35.9316 98.3555 36.0054 98.2633 35.7655 98.1895C33.1633 97.3221 30.5058 95.5688 27.9775 94.4615C26.132 93.2066 22.9023 91.0473 22.9023 88.7036V88.1868C23.1976 88.0576 23.9543 87.5778 24.4341 87.3379L24.3972 87.3563Z" fill="#FFA9BD"/>
<path d="M62.6729 89.3863C58.945 93.5018 51.36 94.3138 45.9896 94.1292C40.4161 93.9262 29.6938 91.4163 25.2461 88.0391C35.0642 93.2618 53.5192 97.3035 62.6729 89.3863Z" fill="#FDF5F7"/>
</g>
<defs>
<linearGradient id="paint0_linear_1178_72234" x1="54.5697" y1="12.1523" x2="44.8439" y2="13.5179" gradientUnits="userSpaceOnUse">
<stop stop-color="#F03963"/>
<stop offset="1" stop-color="#EA253A"/>
</linearGradient>
<linearGradient id="paint1_linear_1178_72234" x1="99.086" y1="11.7831" x2="95.0997" y2="37.3987" gradientUnits="userSpaceOnUse">
<stop stop-color="#FFC0E4"/>
<stop offset="1" stop-color="#E85F8A"/>
</linearGradient>
<linearGradient id="paint2_linear_1178_72234" x1="84.5952" y1="12.131" x2="99.23" y2="26.0092" gradientUnits="userSpaceOnUse">
<stop stop-color="#F55F90"/>
<stop offset="1" stop-color="#E9306A"/>
</linearGradient>
<linearGradient id="paint3_linear_1178_72234" x1="40.991" y1="18.2785" x2="29.2905" y2="29.5546" gradientUnits="userSpaceOnUse">
<stop stop-color="#FD84B7"/>
<stop offset="1" stop-color="#F06487"/>
</linearGradient>
<linearGradient id="paint4_linear_1178_72234" x1="79.007" y1="12.2978" x2="84.6912" y2="24.0537" gradientUnits="userSpaceOnUse">
<stop stop-color="#FFADDA"/>
<stop offset="1" stop-color="#FF79B6"/>
</linearGradient>
<linearGradient id="paint5_linear_1178_72234" x1="86.4975" y1="25.1636" x2="91.1297" y2="35.886" gradientUnits="userSpaceOnUse">
<stop stop-color="#FFB3E1"/>
<stop offset="1" stop-color="#FF68AA"/>
</linearGradient>
<linearGradient id="paint6_linear_1178_72234" x1="120.309" y1="34.8517" x2="111.174" y2="49.9111" gradientUnits="userSpaceOnUse">
<stop stop-color="#EA98B3"/>
<stop offset="1" stop-color="#E65292"/>
</linearGradient>
<linearGradient id="paint7_linear_1178_72234" x1="20.7227" y1="32.1918" x2="24.0077" y2="75.7641" gradientUnits="userSpaceOnUse">
<stop stop-color="#FDC1D0"/>
<stop offset="1" stop-color="#F8628D"/>
</linearGradient>
<linearGradient id="paint8_linear_1178_72234" x1="24.3975" y1="32.7841" x2="17.0524" y2="44.7614" gradientUnits="userSpaceOnUse">
<stop stop-color="#F65F90"/>
<stop offset="1" stop-color="#EF295B"/>
</linearGradient>
<linearGradient id="paint9_linear_1178_72234" x1="34.323" y1="32.2669" x2="39.2874" y2="62.0164" gradientUnits="userSpaceOnUse">
<stop stop-color="#FED6DE"/>
<stop offset="1" stop-color="#FF5A9B"/>
</linearGradient>
<linearGradient id="paint10_linear_1178_72234" x1="68.2275" y1="32.3961" x2="70.1099" y2="43.4138" gradientUnits="userSpaceOnUse">
<stop stop-color="#FFBAE9"/>
<stop offset="1" stop-color="#FF77B6"/>
</linearGradient>
<linearGradient id="paint11_linear_1178_72234" x1="85.7798" y1="36.0497" x2="91.7039" y2="58.8417" gradientUnits="userSpaceOnUse">
<stop stop-color="#FDC2D0"/>
<stop offset="1" stop-color="#E95084"/>
</linearGradient>
<linearGradient id="paint12_linear_1178_72234" x1="60.4972" y1="37.0467" x2="60.1281" y2="46.6987" gradientUnits="userSpaceOnUse">
<stop stop-color="#FFB1DF"/>
<stop offset="1" stop-color="#FF89BE"/>
</linearGradient>
<linearGradient id="paint13_linear_1178_72234" x1="97.2612" y1="45.276" x2="109.165" y2="73.5307" gradientUnits="userSpaceOnUse">
<stop stop-color="#FF8ED3"/>
<stop offset="1" stop-color="#E5206B"/>
</linearGradient>
<linearGradient id="paint14_linear_1178_72234" x1="62.9869" y1="47.473" x2="66.8071" y2="77.3701" gradientUnits="userSpaceOnUse">
<stop stop-color="#FCCDD8"/>
<stop offset="1" stop-color="#FD60A5"/>
</linearGradient>
<linearGradient id="paint15_linear_1178_72234" x1="104.011" y1="56.574" x2="86.7004" y2="68.7544" gradientUnits="userSpaceOnUse">
<stop stop-color="#FF9CB4"/>
<stop offset="1" stop-color="#E75187"/>
</linearGradient>
<linearGradient id="paint16_linear_1178_72234" x1="26.0019" y1="53.2702" x2="32.6827" y2="68.6617" gradientUnits="userSpaceOnUse">
<stop stop-color="#FFD0F1"/>
<stop offset="1" stop-color="#FF94CC"/>
</linearGradient>
<linearGradient id="paint17_linear_1178_72234" x1="13.3796" y1="52.1794" x2="22.5886" y2="70.8743" gradientUnits="userSpaceOnUse">
<stop stop-color="#FFD1E4"/>
<stop offset="1" stop-color="#FF81CA"/>
</linearGradient>
<linearGradient id="paint18_linear_1178_72234" x1="76.9205" y1="73.7918" x2="87.8828" y2="90.309" gradientUnits="userSpaceOnUse">
<stop stop-color="#D61D52"/>
<stop offset="1" stop-color="#F55E99"/>
</linearGradient>
<linearGradient id="paint19_linear_1178_72234" x1="44.9378" y1="76.8738" x2="44.8086" y2="91.9516" gradientUnits="userSpaceOnUse">
<stop stop-color="#E31749"/>
<stop offset="1" stop-color="#FF61AB"/>
</linearGradient>
<clipPath id="clip0_1178_72234">
<rect width="129.001" height="99.2882" fill="white" transform="translate(0 0.431641)"/>
</clipPath>
</defs>
</svg>
