<svg width="162" height="61" viewBox="0 0 162 61" fill="none" xmlns="http://www.w3.org/2000/svg">
<path fill-rule="evenodd" clip-rule="evenodd" d="M29.8261 29.4591L19.0293 37.5567V48.4444L29.917 56.6026L40.8048 48.4444V37.5567L29.917 29.3984L29.8261 29.4591Z" stroke="#231D06" stroke-width="0.909839" stroke-miterlimit="10"/>
<path fill-rule="evenodd" clip-rule="evenodd" d="M84.2636 10.4523L73.4668 18.5498V29.4376L84.3545 37.5958L95.2423 29.4376V18.5498L84.3545 10.3916L84.2636 10.4523Z" stroke="#231D06" stroke-width="0.909839" stroke-miterlimit="10"/>
<path fill-rule="evenodd" clip-rule="evenodd" d="M81.1396 56.4601H80.0781V55.8535H82.929V56.4601H81.8675L81.8371 59.7052H81.1093L81.1396 56.4601Z" fill="#231D06"/>
<path fill-rule="evenodd" clip-rule="evenodd" d="M83.8389 55.8535H84.5668V57.4306H86.2652V55.8535H86.993L86.9627 59.7052H86.2348L86.2652 58.0371H84.5668L84.5365 59.7052H83.8086L83.8389 55.8535Z" fill="#231D06"/>
<path fill-rule="evenodd" clip-rule="evenodd" d="M88.2374 55.8535H90.2997V56.4601H88.9349V57.4609H90.2693V58.0371H88.9349V59.0986H90.2997V59.7052H88.207L88.2374 55.8535Z" fill="#231D06"/>
<path fill-rule="evenodd" clip-rule="evenodd" d="M92.0883 57.5822V56.4297H92.5129C92.8768 56.4297 93.1498 56.6117 93.1498 56.9756C93.1498 57.4912 92.7252 57.5822 92.5129 57.5822H92.0883ZM91.3301 59.7052H92.0579V58.1584H92.2702C92.3612 58.1584 92.4522 58.1888 92.5129 58.2798L93.5743 59.7658L94.2112 59.4019L93.1194 57.9765C93.5743 57.8248 93.8776 57.4609 93.8776 56.9756C93.8776 56.3691 93.4834 55.8535 92.5735 55.8535H91.3604L91.3301 59.7052Z" fill="#231D06"/>
<path fill-rule="evenodd" clip-rule="evenodd" d="M97.0012 58.0969H96.061L96.5462 56.5805L97.0012 58.0969ZM95.8487 58.6731H97.1831L97.5471 59.7649L98.2446 59.5526L96.8799 55.8223H96.2126L94.7266 59.5526L95.3938 59.7649L95.8487 58.6731Z" fill="#231D06"/>
<path fill-rule="evenodd" clip-rule="evenodd" d="M99.9125 57.6125V56.4297H100.276C100.792 56.4297 100.913 56.7937 100.913 57.006C100.913 57.3699 100.61 57.6125 100.246 57.6125H99.9125ZM99.1543 59.7052H99.8822V58.1888H100.276C101.035 58.1888 101.672 57.8248 101.672 57.0363C101.672 56.3084 101.277 55.8535 100.276 55.8535H99.1846L99.1543 59.7052Z" fill="#231D06"/>
<path fill-rule="evenodd" clip-rule="evenodd" d="M102.644 55.8535H104.706V56.4601H103.371L103.341 57.4609H104.676V58.0371H103.341V59.0986H104.706V59.7052H102.613L102.644 55.8535Z" fill="#231D06"/>
<path fill-rule="evenodd" clip-rule="evenodd" d="M108.891 58.3102C108.891 59.2504 108.224 59.7659 107.314 59.7659C106.404 59.7659 105.768 59.2504 105.768 58.2495C105.768 57.4307 105.798 56.6422 105.798 55.8233H106.526C106.526 56.6422 106.495 57.461 106.495 58.2799C106.495 58.8258 106.859 59.129 107.345 59.129C107.921 59.129 108.194 58.7651 108.194 58.2192L108.224 55.793H108.952L108.891 58.3102Z" fill="#231D06"/>
<path fill-rule="evenodd" clip-rule="evenodd" d="M110.893 56.4601H109.801V55.8535H112.682L112.652 56.4601H111.59L111.56 59.7052H110.862L110.893 56.4601Z" fill="#231D06"/>
<path fill-rule="evenodd" clip-rule="evenodd" d="M113.562 55.8535H114.289L114.259 59.7052H113.531L113.562 55.8535Z" fill="#231D06"/>
<path fill-rule="evenodd" clip-rule="evenodd" d="M118.656 59.4011C118.292 59.6437 117.868 59.765 117.443 59.765C116.291 59.765 115.441 58.9158 115.441 57.7634C115.441 56.6109 116.26 55.7617 117.413 55.7617C117.868 55.7617 118.323 55.9134 118.656 56.2166L118.353 56.7019C118.11 56.4896 117.746 56.3683 117.443 56.3683C116.685 56.3683 116.2 56.9748 116.2 57.733C116.2 58.4912 116.715 59.1585 117.413 59.1585C117.898 59.1585 118.141 59.0371 118.383 58.9158L118.656 59.4011Z" fill="#231D06"/>
<path fill-rule="evenodd" clip-rule="evenodd" d="M119.596 58.9471C119.778 59.0684 120.051 59.22 120.263 59.22C120.658 59.22 120.87 58.9774 120.87 58.6741C120.87 57.9159 119.293 58.2495 119.293 56.9151C119.293 56.2782 119.809 55.793 120.567 55.793C120.961 55.793 121.325 55.9143 121.659 56.1266L121.355 56.6422C121.113 56.5208 120.9 56.3995 120.627 56.3995C120.294 56.3995 119.991 56.5815 119.991 56.9151C119.991 57.6733 121.598 57.4307 121.598 58.6741C121.598 59.3413 121.082 59.8266 120.324 59.8266C119.96 59.8266 119.596 59.7053 119.293 59.5233L119.596 58.9471Z" fill="#231D06"/>
<path fill-rule="evenodd" clip-rule="evenodd" d="M79.7155 51.8807C78.2294 52.9118 76.4401 53.4274 74.6204 53.4274C69.8589 53.4274 66.3105 49.9397 66.3105 45.1479C66.3105 40.356 69.7376 36.7773 74.4991 36.7773C76.4098 36.7773 78.2598 37.4142 79.7155 38.6273L78.4114 40.6897C77.4409 39.8708 75.8335 39.3249 74.5598 39.3249C71.436 39.3249 69.3737 41.8118 69.3737 45.0266C69.3737 48.2413 71.4663 50.9102 74.4688 50.9102C76.5007 50.9102 77.5319 50.4249 78.5024 49.879L79.7155 51.8807Z" fill="#231D06"/>
<path fill-rule="evenodd" clip-rule="evenodd" d="M83.7786 47.3921C83.7786 45.7847 84.4155 43.4191 86.5384 43.4191C88.4187 43.4191 89.2983 44.9659 89.2983 47.3921C89.2983 48.9995 88.5704 51.1831 86.5384 51.1831C84.5064 51.1831 83.7786 48.7872 83.7786 47.3921ZM80.9277 47.3011C80.9277 50.6069 82.7171 53.4577 86.5081 53.4577C90.0261 53.4577 92.0884 50.6069 92.0884 47.3011C92.0884 43.9954 90.2081 41.1445 86.5081 41.1445C83.081 41.1445 80.9277 44.2077 80.9277 47.3011Z" fill="#231D06"/>
<path fill-rule="evenodd" clip-rule="evenodd" d="M94.5744 41.4771H97.3949V43.6001L97.4253 43.6607C97.9712 42.3263 98.699 41.2042 100.124 41.1738C100.397 41.1738 100.67 41.2345 100.943 41.2951L100.488 43.9943C100.246 43.9337 100.033 43.9033 99.8212 43.9033C98.7294 43.9033 97.9408 44.7222 97.3646 45.9353L97.304 53.1534H94.4531L94.5744 41.4771Z" fill="#231D06"/>
<path fill-rule="evenodd" clip-rule="evenodd" d="M110.923 51.2125C109.801 52.6076 108.436 53.4264 106.586 53.4264C103.25 53.4264 101.521 50.2723 101.521 47.4518C101.521 44.2371 103.523 41.1133 107.011 41.1133C108.709 41.1133 110.044 41.9321 111.075 43.0846L109.467 44.6313C108.74 44.0551 108.103 43.5092 107.102 43.5092C105.343 43.5092 104.463 45.4199 104.463 47.1789C104.463 49.6354 105.555 51.0002 106.95 51.0002C107.981 51.0002 108.679 50.3633 109.346 49.6961L110.923 51.2125Z" fill="#231D06"/>
<path fill-rule="evenodd" clip-rule="evenodd" d="M114.744 45.6634C114.865 44.5109 115.835 43.1462 117.109 43.1462C118.595 43.1462 119.172 44.42 119.232 45.6634H114.744ZM121.901 47.6347C121.901 43.5708 120.385 41.1445 117.079 41.1445C113.773 41.1445 111.771 44.238 111.771 47.3314C111.771 51.0011 113.894 53.4274 116.867 53.4274C118.777 53.4274 120.385 52.5175 121.598 51.1224L119.99 49.6364C119.262 50.3946 118.383 51.1528 117.291 51.1528C115.35 51.1528 114.622 49.2118 114.622 47.6044H121.901V47.6347Z" fill="#231D06"/>
<path fill-rule="evenodd" clip-rule="evenodd" d="M126.723 45.3592C126.875 44.3584 127.633 43.5395 128.816 43.5395C130.514 43.5395 131.697 45.0559 131.697 47.2699C131.697 49.6051 130.18 51.0002 128.755 51.0002C127.724 51.0002 127.148 50.424 126.753 49.9387V45.3592H126.723ZM123.781 58.7035H126.602L126.662 52.274H126.723C127.36 53.0928 128.421 53.3961 129.362 53.3961C132.698 53.3961 134.487 50.2723 134.487 47.1182C134.487 43.6002 132.455 41.1133 129.544 41.1133C128.33 41.1133 127.178 41.7805 126.602 42.66H126.541V41.4469H123.842L123.781 58.7035Z" fill="#231D06"/>
<path fill-rule="evenodd" clip-rule="evenodd" d="M143.192 52.4871L142.252 53.0027C141.524 53.4273 140.826 53.4576 140.493 53.4576C138.552 53.4576 137.308 52.4265 137.308 49.9699C137.308 49.424 137.308 48.1805 137.339 47.1797L137.399 43.6313H135.822V41.5084L137.399 41.5387L137.49 37.3838H140.311L140.22 41.5387L142.798 41.5084V43.6313H140.22L140.159 47.0584C140.129 48.2109 140.129 49.2724 140.129 50.1215C140.129 50.8797 140.371 51.3347 141.069 51.3347C141.554 51.3347 141.979 51.0617 142.373 50.7888L143.192 52.4871Z" fill="#231D06"/>
<path fill-rule="evenodd" clip-rule="evenodd" d="M51.6014 29.4591L40.8047 37.5567V48.4444L51.6924 56.6026L62.5802 48.4444V37.5567L51.6924 29.3984L51.6014 29.4591Z" stroke="#231D06" stroke-width="0.909839" stroke-miterlimit="10"/>
<path fill-rule="evenodd" clip-rule="evenodd" d="M62.4882 10.4523L51.6914 18.5498V29.4376L62.5791 37.5958L73.4669 29.4376V18.5498L62.5791 10.3916L62.4882 10.4523Z" stroke="#231D06" stroke-width="0.909839" stroke-miterlimit="10"/>
<path d="M30.7227 53.3634L38.1439 47.8164" stroke="#231D06" stroke-width="0.909839" stroke-miterlimit="10"/>
</svg>
