<svg width="248" height="152" viewBox="0 0 248 152" fill="none" xmlns="http://www.w3.org/2000/svg">
<g clip-path="url(#clip0_2274_7632)">
<path d="M247.754 148.239C247.754 149.142 204.388 149.987 150.731 149.987C97.0738 149.987 23.5195 148.73 23.5195 147.827C23.5195 146.924 97.0681 146.719 150.731 146.719C204.394 146.719 247.754 147.336 247.754 148.239Z" fill="#F2D57E"/>
<path opacity="0.53" d="M46.6968 21.5078L23.5368 46.0507L23.5254 148.496C48.7425 148.068 173.2 148.194 246.965 148.194L46.6968 21.5078Z" fill="#F2D57E"/>
<path d="M24.252 93.416H35.0577V116.039H60.5777V93.416H71.3834V148.216H60.5777V125.433H35.0577V148.216H24.252V93.416Z" fill="#10A4A0"/>
<path d="M89.5024 146.216C86.3424 144.467 83.891 142.016 82.1424 138.856C80.3938 135.696 79.5195 132.033 79.5195 127.856V113.764C79.5195 109.587 80.3938 105.924 82.1424 102.764C83.891 99.6041 86.3424 97.1527 89.5024 95.4041C92.6567 93.6555 96.3024 92.7812 100.422 92.7812H108.72C112.84 92.7812 116.48 93.6555 119.64 95.4041C122.794 97.1527 125.251 99.6041 127 102.764C128.748 105.924 129.622 109.587 129.622 113.764V127.856C129.622 132.033 128.748 135.696 127 138.856C125.251 142.016 122.8 144.467 119.64 146.216C116.48 147.964 112.84 148.838 108.72 148.838H100.422C96.2967 148.838 92.6567 147.964 89.5024 146.216ZM108.725 139.29C111.754 139.29 114.194 138.193 116.045 136.004C117.897 133.81 118.822 130.941 118.822 127.393V114.238C118.822 110.69 117.897 107.821 116.045 105.627C114.194 103.433 111.754 102.341 108.725 102.341H100.428C97.3995 102.341 94.9595 103.438 93.1081 105.627C91.2567 107.821 90.331 110.69 90.331 114.238V127.393C90.331 130.941 91.2567 133.81 93.1081 136.004C94.9595 138.198 97.3995 139.29 100.428 139.29H108.725Z" fill="#10A4A0"/>
<path d="M137.766 93.416H166.651C169.834 93.416 172.651 94.0332 175.108 95.256C177.56 96.4846 179.463 98.2332 180.823 100.502C182.177 102.77 182.857 105.37 182.857 108.29V115.57C182.857 118.599 182.154 121.273 180.743 123.593C179.331 125.919 177.366 127.719 174.834 128.993C172.303 130.273 169.366 130.913 166.028 130.913H148.571V148.216H137.766V93.416ZM165.874 121.519C167.703 121.519 169.188 120.93 170.337 119.759C171.486 118.587 172.057 117.033 172.057 115.102V108.759C172.057 106.93 171.548 105.485 170.531 104.416C169.514 103.347 168.171 102.81 166.497 102.81H148.571V121.519H165.874Z" fill="#10A4A0"/>
<path d="M190.925 146.182C189.513 144.827 188.811 143.05 188.811 140.856V93.416H230.616V102.81H199.616V115.49H228.268V124.885H199.616V138.822H230.616V148.216H196.405C194.159 148.216 192.336 147.536 190.925 146.182Z" fill="#10A4A0"/>
<path d="M182.84 107.627C182.743 104.976 182.074 102.599 180.823 100.502C179.463 98.2332 177.56 96.4846 175.108 95.256C172.657 94.0332 169.834 93.416 166.651 93.416H160.371L182.84 107.627Z" fill="#037373"/>
<path d="M137.766 148.17V148.21H148.571V148.164C144.954 148.164 141.354 148.164 137.766 148.164V148.17Z" fill="#037373"/>
<path d="M210.125 124.885H228.268V115.49H199.611V102.81H230.616V93.416H188.811V111.405L210.125 124.885Z" fill="#037373"/>
<path d="M195.543 148.176C195.823 148.199 196.109 148.21 196.4 148.21H230.612V148.182C219.554 148.182 207.732 148.181 195.543 148.176Z" fill="#037373"/>
<path d="M27.143 32.9717C33.7028 30.0922 36.6862 22.4402 33.8066 15.8804C30.9271 9.32071 23.2751 6.3373 16.7153 9.21683C10.1556 12.0963 7.1722 19.7484 10.0517 26.3081C12.9313 32.8679 20.5833 35.8513 27.143 32.9717Z" fill="#F2D57E"/>
<path d="M11.5081 45.4783C19.8624 48.7354 30.6224 48.6326 39.691 40.2097C50.6338 30.0383 51.2567 12.8668 41.0853 1.92398C39.1138 -0.196017 35.7938 -0.316017 33.6738 1.65541C31.5538 3.62684 31.4338 6.94113 33.4053 9.06684C39.6395 15.7754 39.2567 26.3011 32.5481 32.5354C22.5481 41.8326 11.3253 34.0897 9.07955 31.6783C7.10812 29.5583 3.78812 29.4383 1.66812 31.4097C-0.451876 33.3811 -0.571876 36.6954 1.39955 38.8211C3.85669 41.4611 7.38812 43.884 11.5024 45.4897L11.5081 45.4783Z" fill="#037373"/>
<path d="M188.12 85.4156V70.8842C188.12 68.6727 187.343 66.8956 185.794 65.5584C184.24 64.2213 182.2 63.5527 179.668 63.5527H175.96C173.457 63.5527 171.44 64.1927 169.903 65.4727C168.366 66.7527 167.594 68.4442 167.594 70.5413H173.286C173.286 69.907 173.531 69.4042 174.017 69.0327C174.503 68.6613 175.154 68.4727 175.96 68.4727H179.668C180.446 68.4727 181.068 68.6956 181.543 69.1413C182.017 69.587 182.257 70.1699 182.257 70.8899V73.1299C181.537 72.787 180.748 72.5127 179.886 72.3127C179.023 72.1127 178.217 72.0099 177.468 72.0099H174.84C172.48 72.0099 170.583 72.5642 169.148 73.6727C167.714 74.7813 166.994 76.2384 166.994 78.0499V79.6442C166.994 81.4842 167.686 82.9642 169.063 84.0842C170.44 85.2042 172.251 85.7642 174.497 85.7642H177.171C178.148 85.7642 179.137 85.4956 180.148 84.9642C181.154 84.4327 182.006 83.7185 182.691 82.8327V85.4213H188.126L188.12 85.4156ZM182.257 78.2613C181.886 79.1813 181.28 79.9127 180.446 80.4613C179.611 81.0099 178.663 81.2785 177.6 81.2785H175.268C174.491 81.2785 173.868 81.107 173.394 80.7584C172.92 80.4156 172.68 79.9699 172.68 79.4213V78.3013C172.68 77.7242 172.897 77.267 173.326 76.9242C173.754 76.5813 174.314 76.4042 175.006 76.4042H177.72C178.64 76.4042 179.508 76.507 180.331 76.707C181.148 76.907 181.788 77.1813 182.251 77.5242V78.2556L182.257 78.2613Z" fill="#037373"/>
<path d="M195.8 78.3469C195.8 80.764 196.389 82.5469 197.566 83.6954C198.743 84.844 200.6 85.4212 203.132 85.4212H207.269V80.4212H203.56C202.897 80.4212 202.417 80.2326 202.114 79.8612C201.812 79.4897 201.663 78.9011 201.663 78.0954V68.9069H207.269V63.9069H201.663V57.3926H195.972V63.9069H192.006V68.9069H195.8V78.3526V78.3469Z" fill="#037373"/>
<path d="M215.138 84.7469C216.532 85.4212 218.132 85.7583 219.944 85.7583H223.224C225.035 85.7583 226.635 85.4554 228.029 84.8497C229.424 84.244 230.509 83.3869 231.286 82.2612C232.064 81.1412 232.452 79.8612 232.452 78.4212H226.675C226.675 79.1412 226.366 79.724 225.749 80.1697C225.132 80.6154 224.321 80.8383 223.315 80.8383H219.949C218.915 80.8383 218.098 80.5526 217.492 79.9755C216.886 79.3983 216.589 78.6383 216.589 77.6897V76.6555H232.544V72.084C232.544 69.4954 231.709 67.4269 230.041 65.8726C228.372 64.3183 226.161 63.5469 223.401 63.5469H219.949C218.138 63.5469 216.538 63.9069 215.144 64.6269C213.749 65.3469 212.664 66.3526 211.886 67.644C211.109 68.9354 210.721 70.4326 210.721 72.1297V77.6954C210.721 79.2783 211.109 80.6783 211.886 81.9012C212.664 83.124 213.749 84.0726 215.144 84.7469H215.138ZM216.498 72.3069C216.498 71.1297 216.812 70.1812 217.446 69.4612C218.081 68.7412 218.915 68.3812 219.949 68.3812H223.441C224.446 68.3812 225.252 68.7183 225.858 69.3926C226.464 70.0669 226.761 70.964 226.761 72.0897V72.4326H216.498V72.3012V72.3069Z" fill="#037373"/>
<path d="M131.371 61.8731C132.491 61.8731 133.388 61.5474 134.068 60.9017C134.742 60.256 135.079 59.3988 135.079 58.336C135.079 57.2731 134.742 56.416 134.068 55.7703C133.394 55.1245 132.496 54.7988 131.371 54.7988C130.245 54.7988 129.348 55.1245 128.674 55.7703C127.999 56.416 127.662 57.2731 127.662 58.336C127.662 59.3988 127.999 60.256 128.674 60.9017C129.348 61.5474 130.245 61.8731 131.371 61.8731Z" fill="#037373"/>
<path d="M121.812 69.0214L113.178 63.5586H114.812C117.001 63.5586 118.749 64.2672 120.081 65.69C120.915 66.6043 121.492 67.6729 121.795 68.9415C121.801 68.97 121.806 68.9929 121.812 69.0214Z" fill="#037373"/>
<path d="M122.063 71.2786V85.4215H116.194V71.2786C116.194 70.4729 116.006 69.8272 115.629 69.3586C115.251 68.8729 114.771 68.6386 114.171 68.6386H112.314C111.509 68.6386 110.806 68.9414 110.206 69.53C109.594 70.1186 109.217 70.9014 109.074 71.8786V85.4215H103.211V71.3186C103.211 70.5186 103.029 69.8615 102.657 69.3815C102.28 68.8843 101.789 68.6386 101.189 68.6386H99.5028C98.6685 68.6386 97.9371 69.0157 97.3028 69.7643C96.6742 70.5186 96.2742 71.49 96.0914 72.69V85.4215H90.2285V63.9015H95.6628V66.3986C96.1771 65.5415 96.8514 64.8443 97.6685 64.33C98.4971 63.8157 99.3199 63.5586 100.143 63.5586H102.571C103.6 63.5586 104.543 63.8272 105.389 64.37C106.234 64.9186 106.914 65.6786 107.394 66.6557C108.029 65.6786 108.789 64.9186 109.657 64.37C110.537 63.8272 111.469 63.5586 112.446 63.5586H113.177L121.811 69.0214C121.983 69.7129 122.063 70.4672 122.063 71.2786Z" fill="#10A4A0"/>
<path d="M134.302 76.9244V85.4215H128.439V73.2158L134.302 76.9244Z" fill="#10A4A0"/>
<path d="M134.302 63.9014V76.9242L128.439 73.2157V63.9014H134.302Z" fill="#037373"/>
<path d="M146.806 84.8336V85.4221H140.943V81.125L146.806 84.8336Z" fill="#10A4A0"/>
<path d="M162.075 71.4043V85.4215H156.212V71.6215C156.212 70.73 155.972 70.01 155.503 69.4672C155.018 68.9186 154.412 68.6386 153.669 68.6386H151.075C150.081 68.6386 149.178 69.0157 148.383 69.7415C147.589 70.4729 147.063 71.4272 146.806 72.6043V84.8329L140.943 81.1243V63.9015H146.378V66.4843C147.012 65.5929 147.823 64.89 148.835 64.3529C149.841 63.8272 150.852 63.5586 151.858 63.5586H154.441C156.749 63.5586 158.589 64.2786 159.983 65.7129C161.378 67.1472 162.075 69.0443 162.075 71.4043Z" fill="#037373"/>
<path d="M30.1203 55.2324H24.166V85.421H30.1203V55.2324Z" fill="#10A4A0"/>
<path d="M46.767 80.4153V85.421H44.007C41.447 85.421 39.5727 84.8781 38.3784 83.8038C37.1841 82.7238 36.5898 81.0496 36.5898 78.7753V55.2324H42.4527V78.4324C42.4527 79.1239 42.6127 79.6267 42.927 79.941C43.2413 80.261 43.7498 80.4153 44.4356 80.4153H46.767Z" fill="#10A4A0"/>
<path d="M60.1303 80.4153V85.421H57.3703C54.8103 85.421 52.936 84.8781 51.7417 83.8038C50.5531 82.7238 49.9531 81.0496 49.9531 78.7753V55.2324H55.8217V78.4324C55.8217 79.1239 55.976 79.6267 56.296 79.941C56.6103 80.261 57.1131 80.4153 57.8046 80.4153H60.1303Z" fill="#10A4A0"/>
<path d="M84.3662 63.9014V85.4214H78.9376V82.6614C78.2747 83.5814 77.4633 84.3242 76.4976 84.9014C75.5376 85.4785 74.6062 85.7642 73.7147 85.7642H70.869C68.6005 85.7642 66.7719 84.9928 65.3947 83.4557C64.0119 81.9185 63.3262 79.9014 63.3262 77.3985V63.9014H69.189V77.4842C69.189 78.4328 69.4233 79.2042 69.8976 79.7928C70.3776 80.3814 71.0005 80.6728 71.7776 80.6728H74.2747C75.229 80.6728 76.0919 80.2785 76.8633 79.4899C77.6405 78.7014 78.189 77.6557 78.5033 76.3642V63.9014H84.3662Z" fill="#10A4A0"/>
</g>
<defs>
<clipPath id="clip0_2274_7632">
<rect width="248" height="150.857" fill="white" transform="translate(0 0.25)"/>
</clipPath>
</defs>
</svg>
