<svg width="248" height="151" viewBox="0 0 248 151" fill="none" xmlns="http://www.w3.org/2000/svg">
<g clip-path="url(#clip0_702_30923)">
<path d="M247.755 147.989C247.755 148.892 204.389 149.737 150.732 149.737C97.0748 149.737 23.5205 148.48 23.5205 147.577C23.5205 146.674 97.0691 146.469 150.732 146.469C204.395 146.469 247.755 147.086 247.755 147.989Z" fill="#F2D57E"/>
<path opacity="0.53" d="M46.6968 21.2578L23.5368 45.8007L23.5254 148.246C48.7425 147.818 173.2 147.944 246.965 147.944L46.6968 21.2578Z" fill="#F2D57E"/>
<path d="M24.252 93.166H35.0577V115.789H60.5777V93.166H71.3834V147.966H60.5777V125.183H35.0577V147.966H24.252V93.166Z" fill="#10A4A0"/>
<path d="M89.5034 145.966C86.3434 144.217 83.8919 141.766 82.1434 138.606C80.3948 135.446 79.5205 131.783 79.5205 127.606V113.514C79.5205 109.337 80.3948 105.674 82.1434 102.514C83.8919 99.3541 86.3434 96.9027 89.5034 95.1541C92.6577 93.4055 96.3034 92.5312 100.423 92.5312H108.721C112.84 92.5312 116.48 93.4055 119.64 95.1541C122.795 96.9027 125.252 99.3541 127.001 102.514C128.749 105.674 129.623 109.337 129.623 113.514V127.606C129.623 131.783 128.749 135.446 127.001 138.606C125.252 141.766 122.8 144.217 119.64 145.966C116.48 147.714 112.84 148.588 108.721 148.588H100.423C96.2977 148.588 92.6577 147.714 89.5034 145.966ZM108.726 139.04C111.755 139.04 114.195 137.943 116.046 135.754C117.898 133.56 118.823 130.691 118.823 127.143V113.988C118.823 110.44 117.898 107.571 116.046 105.377C114.195 103.183 111.755 102.091 108.726 102.091H100.429C97.4005 102.091 94.9605 103.188 93.1091 105.377C91.2576 107.571 90.3319 110.44 90.3319 113.988V127.143C90.3319 130.691 91.2576 133.56 93.1091 135.754C94.9605 137.948 97.4005 139.04 100.429 139.04H108.726Z" fill="#10A4A0"/>
<path d="M137.766 93.166H166.651C169.834 93.166 172.651 93.7832 175.108 95.006C177.56 96.2346 179.463 97.9832 180.823 100.252C182.177 102.52 182.857 105.12 182.857 108.04V115.32C182.857 118.349 182.154 121.023 180.743 123.343C179.331 125.669 177.366 127.469 174.834 128.743C172.303 130.023 169.366 130.663 166.028 130.663H148.571V147.966H137.766V93.166ZM165.874 121.269C167.703 121.269 169.188 120.68 170.337 119.509C171.486 118.337 172.057 116.783 172.057 114.852V108.509C172.057 106.68 171.548 105.235 170.531 104.166C169.514 103.097 168.171 102.56 166.497 102.56H148.571V121.269H165.874Z" fill="#10A4A0"/>
<path d="M190.926 145.932C189.514 144.577 188.812 142.8 188.812 140.606V93.166H230.617V102.56H199.617V115.24H228.269V124.635H199.617V138.572H230.617V147.966H196.406C194.16 147.966 192.337 147.286 190.926 145.932Z" fill="#10A4A0"/>
<path d="M182.84 107.377C182.743 104.726 182.074 102.349 180.823 100.252C179.463 97.9832 177.56 96.2346 175.108 95.006C172.657 93.7832 169.834 93.166 166.651 93.166H160.371L182.84 107.377Z" fill="#037373"/>
<path d="M137.766 147.92V147.96H148.571V147.914C144.954 147.914 141.354 147.914 137.766 147.914V147.92Z" fill="#037373"/>
<path d="M210.126 124.635H228.269V115.24H199.612V102.56H230.617V93.166H188.812V111.155L210.126 124.635Z" fill="#037373"/>
<path d="M195.543 147.926C195.823 147.949 196.109 147.96 196.4 147.96H230.612V147.932C219.554 147.932 207.732 147.931 195.543 147.926Z" fill="#037373"/>
<path d="M27.143 32.7217C33.7028 29.8422 36.6862 22.1902 33.8066 15.6304C30.9271 9.07071 23.2751 6.0873 16.7153 8.96683C10.1556 11.8463 7.1722 19.4984 10.0517 26.0581C12.9313 32.6179 20.5833 35.6013 27.143 32.7217Z" fill="#F2D57E"/>
<path d="M11.5091 45.2283C19.8634 48.4854 30.6234 48.3826 39.692 39.9597C50.6348 29.7883 51.2577 12.6168 41.0862 1.67398C39.1148 -0.446017 35.7948 -0.566017 33.6748 1.40541C31.5548 3.37684 31.4348 6.69113 33.4062 8.81684C39.6405 15.5254 39.2577 26.0511 32.5491 32.2854C22.5491 41.5826 11.3262 33.8397 9.08053 31.4283C7.1091 29.3083 3.7891 29.1883 1.6691 31.1597C-0.4509 33.1311 -0.5709 36.4454 1.40053 38.5711C3.85767 41.2111 7.3891 43.634 11.5034 45.2397L11.5091 45.2283Z" fill="#037373"/>
<path d="M188.12 85.1656V70.6342C188.12 68.4227 187.343 66.6456 185.794 65.3084C184.24 63.9713 182.2 63.3027 179.668 63.3027H175.96C173.457 63.3027 171.44 63.9427 169.903 65.2227C168.366 66.5027 167.594 68.1942 167.594 70.2913H173.286C173.286 69.657 173.531 69.1542 174.017 68.7827C174.503 68.4113 175.154 68.2227 175.96 68.2227H179.668C180.446 68.2227 181.068 68.4456 181.543 68.8913C182.017 69.337 182.257 69.9199 182.257 70.6399V72.8799C181.537 72.537 180.748 72.2627 179.886 72.0627C179.023 71.8627 178.217 71.7599 177.468 71.7599H174.84C172.48 71.7599 170.583 72.3142 169.148 73.4227C167.714 74.5313 166.994 75.9884 166.994 77.7999V79.3942C166.994 81.2342 167.686 82.7142 169.063 83.8342C170.44 84.9542 172.251 85.5142 174.497 85.5142H177.171C178.148 85.5142 179.137 85.2456 180.148 84.7142C181.154 84.1827 182.006 83.4685 182.691 82.5827V85.1713H188.126L188.12 85.1656ZM182.257 78.0113C181.886 78.9313 181.28 79.6627 180.446 80.2113C179.611 80.7599 178.663 81.0285 177.6 81.0285H175.268C174.491 81.0285 173.868 80.857 173.394 80.5084C172.92 80.1656 172.68 79.7199 172.68 79.1713V78.0513C172.68 77.4742 172.897 77.017 173.326 76.6742C173.754 76.3313 174.314 76.1542 175.006 76.1542H177.72C178.64 76.1542 179.508 76.257 180.331 76.457C181.148 76.657 181.788 76.9313 182.251 77.2742V78.0056L182.257 78.0113Z" fill="#037373"/>
<path d="M195.8 78.0969C195.8 80.514 196.389 82.2969 197.566 83.4454C198.743 84.594 200.6 85.1712 203.132 85.1712H207.269V80.1712H203.56C202.897 80.1712 202.417 79.9826 202.114 79.6112C201.812 79.2397 201.663 78.6511 201.663 77.8454V68.6569H207.269V63.6569H201.663V57.1426H195.972V63.6569H192.006V68.6569H195.8V78.1026V78.0969Z" fill="#037373"/>
<path d="M215.137 84.4969C216.531 85.1712 218.131 85.5083 219.943 85.5083H223.223C225.034 85.5083 226.634 85.2054 228.028 84.5997C229.423 83.994 230.508 83.1369 231.285 82.0112C232.063 80.8912 232.451 79.6112 232.451 78.1712H226.674C226.674 78.8912 226.365 79.474 225.748 79.9197C225.131 80.3654 224.32 80.5883 223.314 80.5883H219.948C218.914 80.5883 218.097 80.3026 217.491 79.7255C216.885 79.1483 216.588 78.3883 216.588 77.4397V76.4055H232.543V71.834C232.543 69.2454 231.708 67.1769 230.04 65.6226C228.371 64.0683 226.16 63.2969 223.4 63.2969H219.948C218.137 63.2969 216.537 63.6569 215.143 64.3769C213.748 65.0969 212.663 66.1026 211.885 67.394C211.108 68.6854 210.72 70.1826 210.72 71.8797V77.4454C210.72 79.0283 211.108 80.4283 211.885 81.6512C212.663 82.874 213.748 83.8226 215.143 84.4969H215.137ZM216.497 72.0569C216.497 70.8797 216.811 69.9312 217.445 69.2112C218.08 68.4912 218.914 68.1312 219.948 68.1312H223.44C224.445 68.1312 225.251 68.4683 225.857 69.1426C226.463 69.8169 226.76 70.714 226.76 71.8397V72.1826H216.497V72.0512V72.0569Z" fill="#037373"/>
<path d="M131.372 61.6231C132.492 61.6231 133.389 61.2974 134.069 60.6517C134.743 60.006 135.08 59.1488 135.08 58.086C135.08 57.0231 134.743 56.166 134.069 55.5203C133.395 54.8745 132.497 54.5488 131.372 54.5488C130.246 54.5488 129.349 54.8745 128.675 55.5203C128 56.166 127.663 57.0231 127.663 58.086C127.663 59.1488 128 60.006 128.675 60.6517C129.349 61.2974 130.246 61.6231 131.372 61.6231Z" fill="#037373"/>
<path d="M121.811 68.7714L113.177 63.3086H114.811C117 63.3086 118.748 64.0172 120.08 65.44C120.914 66.3543 121.491 67.4229 121.794 68.6915C121.8 68.72 121.805 68.7429 121.811 68.7714Z" fill="#037373"/>
<path d="M122.063 71.0286V85.1715H116.194V71.0286C116.194 70.2229 116.006 69.5772 115.629 69.1086C115.251 68.6229 114.771 68.3886 114.171 68.3886H112.314C111.509 68.3886 110.806 68.6914 110.206 69.28C109.594 69.8686 109.217 70.6514 109.074 71.6286V85.1715H103.211V71.0686C103.211 70.2686 103.029 69.6115 102.657 69.1315C102.28 68.6343 101.789 68.3886 101.189 68.3886H99.5028C98.6685 68.3886 97.9371 68.7657 97.3028 69.5143C96.6742 70.2686 96.2742 71.24 96.0914 72.44V85.1715H90.2285V63.6515H95.6628V66.1486C96.1771 65.2915 96.8514 64.5943 97.6685 64.08C98.4971 63.5657 99.3199 63.3086 100.143 63.3086H102.571C103.6 63.3086 104.543 63.5772 105.389 64.12C106.234 64.6686 106.914 65.4286 107.394 66.4057C108.029 65.4286 108.789 64.6686 109.657 64.12C110.537 63.5772 111.469 63.3086 112.446 63.3086H113.177L121.811 68.7714C121.983 69.4629 122.063 70.2172 122.063 71.0286Z" fill="#10A4A0"/>
<path d="M134.302 76.6744V85.1715H128.439V72.9658L134.302 76.6744Z" fill="#10A4A0"/>
<path d="M134.302 63.6514V76.6742L128.439 72.9657V63.6514H134.302Z" fill="#037373"/>
<path d="M146.806 84.5836V85.1721H140.943V80.875L146.806 84.5836Z" fill="#10A4A0"/>
<path d="M162.075 71.1543V85.1715H156.212V71.3715C156.212 70.48 155.972 69.76 155.503 69.2172C155.018 68.6686 154.412 68.3886 153.669 68.3886H151.075C150.081 68.3886 149.178 68.7657 148.383 69.4915C147.589 70.2229 147.063 71.1772 146.806 72.3543V84.5829L140.943 80.8743V63.6515H146.378V66.2343C147.012 65.3429 147.823 64.64 148.835 64.1029C149.841 63.5772 150.852 63.3086 151.858 63.3086H154.441C156.749 63.3086 158.589 64.0286 159.983 65.4629C161.378 66.8972 162.075 68.7943 162.075 71.1543Z" fill="#037373"/>
<path d="M30.1203 54.9824H24.166V85.171H30.1203V54.9824Z" fill="#10A4A0"/>
<path d="M46.766 80.1653V85.171H44.006C41.446 85.171 39.5717 84.6281 38.3774 83.5538C37.1832 82.4738 36.5889 80.7996 36.5889 78.5253V54.9824H42.4517V78.1824C42.4517 78.8739 42.6117 79.3767 42.926 79.691C43.2403 80.011 43.7489 80.1653 44.4346 80.1653H46.766Z" fill="#10A4A0"/>
<path d="M60.1312 80.1653V85.171H57.3712C54.8112 85.171 52.937 84.6281 51.7427 83.5538C50.5541 82.4738 49.9541 80.7996 49.9541 78.5253V54.9824H55.8227V78.1824C55.8227 78.8739 55.977 79.3767 56.297 79.691C56.6112 80.011 57.1141 80.1653 57.8055 80.1653H60.1312Z" fill="#10A4A0"/>
<path d="M84.3662 63.6514V85.1714H78.9376V82.4114C78.2747 83.3314 77.4633 84.0742 76.4976 84.6514C75.5376 85.2285 74.6062 85.5142 73.7147 85.5142H70.869C68.6005 85.5142 66.7719 84.7428 65.3947 83.2057C64.0119 81.6685 63.3262 79.6514 63.3262 77.1485V63.6514H69.189V77.2342C69.189 78.1828 69.4233 78.9542 69.8976 79.5428C70.3776 80.1314 71.0005 80.4228 71.7776 80.4228H74.2747C75.229 80.4228 76.0919 80.0285 76.8633 79.2399C77.6405 78.4514 78.189 77.4057 78.5033 76.1142V63.6514H84.3662Z" fill="#10A4A0"/>
</g>
<defs>
<clipPath id="clip0_702_30923">
<rect width="248" height="150.857" fill="white"/>
</clipPath>
</defs>
</svg>
