<svg width="244" height="41" viewBox="0 0 244 41" fill="none" xmlns="http://www.w3.org/2000/svg">
<g clip-path="url(#clip0_702_28360)">
<g clip-path="url(#clip1_702_28360)">
<path d="M243.313 39.243C243.313 39.8805 226.399 40.4758 205.471 40.4758C184.542 40.4758 155.856 39.5911 155.856 38.9535C155.856 38.316 184.542 38.1729 205.471 38.1729C226.399 38.1729 243.313 38.6087 243.313 39.243Z" fill="#F2D57E"/>
<path opacity="0.53" d="M242.051 38.9529H155.857L82.0518 14.6451L82.3152 11.0312L156.393 23.9805L160.583 24.7123L169.7 26.3062L173.864 27.0348L176.817 27.5487L190.879 30.0078L197.297 31.13L201.545 31.8716L211.924 33.6867L216.189 34.4315L220.756 35.2317H220.759L235.783 37.8567L242.051 38.9529Z" fill="#F2D57E"/>
<path d="M0.313477 17.8135H4.50627V39.0767H0.313477V17.8135Z" fill="#037373"/>
<path d="M10.3223 37.9382C9.48308 37.1804 9.06348 35.9996 9.06348 34.3993V17.8135H13.1945V34.1553C13.1945 34.64 13.3051 34.9945 13.5295 35.2189C13.7507 35.4434 14.1052 35.554 14.5932 35.554H16.2325V39.0767H14.2874C12.4854 39.0767 11.1648 38.6961 10.3223 37.9382Z" fill="#037373"/>
<path d="M19.7393 37.9382C18.9001 37.1804 18.4805 35.9996 18.4805 34.3993V17.8135H22.6115V34.1553C22.6115 34.64 22.7221 34.9945 22.9465 35.2189C23.1677 35.4434 23.5222 35.554 24.0101 35.554H25.6495V39.0767H23.7044C21.9024 39.0767 20.5817 38.6961 19.7393 37.9382Z" fill="#037373"/>
<path d="M29.3537 37.6943C28.3811 36.6112 27.8965 35.1897 27.8965 33.4267V23.9189H32.0275V33.4885C32.0275 34.1586 32.1934 34.6986 32.5284 35.1149C32.8634 35.5313 33.3026 35.7394 33.849 35.7394H35.612C36.2821 35.7394 36.8871 35.4597 37.4335 34.9035C37.98 34.3473 38.3638 33.6121 38.5883 32.7014V23.9222H42.7193V39.08H38.8908V37.1349C38.4256 37.7822 37.8532 38.3091 37.1733 38.7157C36.4935 39.1191 35.843 39.324 35.2152 39.324H33.2115C31.6111 39.324 30.3263 38.7808 29.3537 37.6976V37.6943Z" fill="#037373"/>
<path d="M67.8695 25.1812C68.7998 26.183 69.2682 27.4939 69.2682 29.1137V39.0769H65.1372V29.1137C65.1372 28.5478 65.0071 28.0956 64.7436 27.7638C64.4802 27.4321 64.1354 27.2629 63.7125 27.2629H62.4049C61.8389 27.2629 61.3413 27.4711 60.9152 27.8874C60.489 28.3038 60.2256 28.8535 60.1247 29.5431V39.0802H55.9937V29.1463C55.9937 28.5803 55.8604 28.1249 55.6002 27.7801C55.3367 27.4353 54.9919 27.2629 54.5658 27.2629H53.3818C52.793 27.2629 52.2791 27.5264 51.8335 28.0533C51.3878 28.5803 51.1049 29.2699 50.9845 30.1188V39.0802H46.8535V23.9223H50.682V25.6853C51.0463 25.0771 51.518 24.5924 52.0937 24.2281C52.6694 23.8638 53.2517 23.6816 53.8404 23.6816H55.5416C56.2702 23.6816 56.9338 23.8736 57.5323 24.2574C58.1308 24.6412 58.5992 25.1779 58.944 25.8675C59.3896 25.1779 59.9198 24.6412 60.5378 24.2574C61.1559 23.8736 61.8097 23.6816 62.496 23.6816H64.1679C65.7065 23.6816 66.9425 24.1826 67.8728 25.1844L67.8695 25.1812Z" fill="#037373"/>
<path d="M73.7598 23.9189H77.8908V39.0768H73.7598V23.9189Z" fill="#037373"/>
<path d="M82.5684 23.9188H86.3968V25.7403C86.8425 25.1125 87.4182 24.6116 88.1273 24.2375C88.8364 23.8635 89.5455 23.6748 90.2546 23.6748H92.0761C93.696 23.6748 94.9971 24.1822 95.9794 25.1938C96.9618 26.2054 97.4529 27.5423 97.4529 29.2045V39.0766H93.322V29.3574C93.322 28.7296 93.1561 28.2222 92.821 27.8383C92.486 27.4545 92.0566 27.2626 91.5297 27.2626H89.7081C88.999 27.2626 88.3648 27.5196 87.8085 28.0367C87.2523 28.5539 86.8815 29.2273 86.6993 30.0567V39.0766H82.5684V23.9188Z" fill="#037373"/>
<path d="M102.375 38.1372C101.403 37.3468 100.918 36.3059 100.918 35.008V33.8858C100.918 32.6108 101.425 31.5829 102.437 30.8022C103.449 30.0216 104.785 29.6345 106.448 29.6345H108.302C108.829 29.6345 109.395 29.7061 110.003 29.8459C110.611 29.989 111.167 30.181 111.675 30.4217V28.8408C111.675 28.3334 111.509 27.9236 111.174 27.6113C110.839 27.299 110.4 27.1396 109.853 27.1396H107.241C106.675 27.1396 106.22 27.273 105.875 27.5332C105.53 27.7967 105.358 28.1512 105.358 28.5969H101.347C101.347 27.1201 101.891 25.9296 102.974 25.0286C104.057 24.1276 105.478 23.6787 107.241 23.6787H109.853C111.636 23.6787 113.073 24.1504 114.166 25.0904C115.259 26.0337 115.806 27.2828 115.806 28.8408V39.0772H111.977V37.2557C111.493 37.8835 110.894 38.3844 110.185 38.7585C109.476 39.1325 108.777 39.3212 108.09 39.3212H106.207C104.626 39.3212 103.351 38.9276 102.378 38.1372H102.375ZM108.39 36.1628C109.138 36.1628 109.808 35.9709 110.393 35.587C110.979 35.2032 111.405 34.686 111.668 34.0387V33.5215C111.343 33.2776 110.894 33.0857 110.318 32.9458C109.743 32.8027 109.128 32.7344 108.481 32.7344H106.568C106.08 32.7344 105.686 32.8547 105.384 33.0987C105.081 33.3426 104.929 33.6647 104.929 34.0712V34.8617C104.929 35.2455 105.094 35.561 105.43 35.8017C105.765 36.0457 106.204 36.166 106.75 36.166H108.39V36.1628Z" fill="#037373"/>
<path d="M122.451 37.8597C121.621 37.0498 121.205 35.7942 121.205 34.093V27.4411H118.531V23.9184H121.325V19.332H125.336V23.9184H129.285V27.4411H125.336V33.9109C125.336 34.4768 125.443 34.8932 125.655 35.1567C125.866 35.4201 126.208 35.5502 126.673 35.5502H129.285V39.073H126.37C124.588 39.073 123.284 38.6696 122.451 37.8564V37.8597Z" fill="#037373"/>
<path d="M134.831 38.6056C133.848 38.1307 133.084 37.4606 132.537 36.6019C131.991 35.7432 131.718 34.7543 131.718 33.6419V29.7223C131.718 28.5286 131.991 27.4747 132.537 26.5639C133.084 25.6531 133.848 24.944 134.831 24.4366C135.813 23.9292 136.942 23.6787 138.217 23.6787H140.647C142.592 23.6787 144.15 24.2252 145.324 25.3181C146.498 26.411 147.087 27.8683 147.087 29.693V32.9133H135.849V33.6419C135.849 34.312 136.06 34.8454 136.486 35.252C136.912 35.6586 137.488 35.8603 138.217 35.8603H140.585C141.294 35.8603 141.866 35.7041 142.302 35.3886C142.738 35.0764 142.956 34.6633 142.956 34.1591H147.025C147.025 35.1707 146.752 36.0717 146.206 36.8621C145.659 37.6525 144.895 38.2608 143.912 38.6837C142.93 39.1098 141.801 39.3212 140.526 39.3212H138.217C136.942 39.3212 135.813 39.0837 134.831 38.6056ZM143.018 29.9338V29.6898C143.018 28.8994 142.806 28.2683 142.38 27.7902C141.954 27.3153 141.388 27.0778 140.679 27.0778H138.217C137.488 27.0778 136.899 27.3315 136.454 27.8357C136.008 28.3432 135.784 29.01 135.784 29.8394V29.9305H143.015L143.018 29.9338Z" fill="#037373"/>
<path d="M79.208 14.5097C81.1 12.2795 80.8259 8.93786 78.5957 7.04586C76.3655 5.15387 73.0238 5.42802 71.1318 7.65819C69.2398 9.88837 69.514 13.2301 71.7442 15.1221C73.9743 17.0141 77.316 16.7399 79.208 14.5097Z" fill="#F2D57E"/>
<path d="M75.7061 21.9052C79.3557 21.606 83.2882 19.6446 85.1065 14.9281C87.3021 9.23903 84.4592 2.82135 78.7702 0.625743C77.6675 0.199633 76.4282 0.749347 76.0021 1.85203C75.576 2.95471 76.1257 4.19401 77.2284 4.62012C80.7153 5.96676 82.4588 9.89933 81.1121 13.3863C79.1052 18.5874 73.5983 17.7547 72.346 17.2701C71.2433 16.844 70.004 17.3937 69.5779 18.4964C69.1518 19.599 69.7015 20.8383 70.8042 21.2644C72.1768 21.7946 73.9073 22.0516 75.7061 21.9052Z" fill="#037373"/>
<path d="M156.306 17.2246H160.616V26.2477H170.797V17.2246H175.107V39.0831H170.797V29.9949H160.616V39.0831H156.306V17.2246Z" fill="#10A4A1"/>
<path d="M182.334 38.2866C181.075 37.5905 180.096 36.6115 179.4 35.3526C178.701 34.0938 178.353 32.6301 178.353 30.9647V25.3439C178.353 23.6785 178.701 22.218 179.4 20.956C180.096 19.6972 181.075 18.7181 182.334 18.022C183.593 17.3259 185.043 16.9746 186.689 16.9746H190.001C191.643 16.9746 193.097 17.3227 194.356 18.022C195.615 18.7213 196.594 19.6972 197.29 20.956C197.986 22.2148 198.337 23.6785 198.337 25.3439V30.9647C198.337 32.6301 197.989 34.0938 197.29 35.3526C196.594 36.6115 195.615 37.5905 194.356 38.2866C193.097 38.986 191.643 39.334 190.001 39.334H186.689C185.043 39.334 183.593 38.986 182.334 38.2866ZM190.001 35.5218C191.207 35.5218 192.18 35.0859 192.922 34.2109C193.66 33.3359 194.031 32.191 194.031 30.776V25.5293C194.031 24.1144 193.66 22.9694 192.922 22.0944C192.183 21.2194 191.207 20.7836 190.001 20.7836H186.689C185.483 20.7836 184.507 21.2194 183.768 22.0944C183.03 22.9694 182.659 24.1144 182.659 25.5293V30.776C182.659 32.191 183.027 33.3359 183.768 34.2109C184.507 35.0859 185.479 35.5218 186.689 35.5218H190.001Z" fill="#10A4A1"/>
<path d="M201.584 17.2246H213.105C214.374 17.2246 215.499 17.4686 216.478 17.9597C217.457 18.4476 218.215 19.147 218.759 20.0512C219.298 20.9555 219.572 21.9931 219.572 23.1576V26.0623C219.572 27.2691 219.292 28.336 218.729 29.263C218.166 30.1901 217.383 30.9089 216.371 31.4164C215.359 31.927 214.188 32.1808 212.858 32.1808H205.894V39.0831H201.584V17.2246ZM212.796 28.4336C213.525 28.4336 214.117 28.1994 214.575 27.731C215.034 27.2626 215.262 26.6446 215.262 25.8737V23.343C215.262 22.6144 215.06 22.0354 214.654 21.6093C214.247 21.1832 213.71 20.9685 213.047 20.9685H205.897V28.4303H212.799L212.796 28.4336Z" fill="#10A4A1"/>
<path d="M222.788 38.2702C222.225 37.7303 221.945 37.0212 221.945 36.1462V17.2217H238.619V20.9688H226.252V26.0269H237.682V29.774H226.252V35.333H238.619V39.0802H224.974C224.079 39.0802 223.351 38.8102 222.788 38.267V38.2702Z" fill="#10A4A1"/>
<path d="M160.583 24.7132L160.616 24.7197V17.3164H156.306V23.965L156.393 23.9813L160.583 24.7132Z" fill="#037373"/>
<path d="M175.106 27.2503V17.3164H170.797V26.3395H169.896L173.864 27.0356L175.106 27.2503Z" fill="#037373"/>
<path d="M182.663 25.6198C182.663 24.2049 183.03 23.0599 183.772 22.1849C184.51 21.3099 185.483 20.8741 186.693 20.8741H190.004C191.211 20.8741 192.184 21.3099 192.925 22.1849C193.664 23.0599 194.034 24.2049 194.034 25.6198V30.5575L197.303 31.13L198.338 31.3122C198.338 31.2276 198.344 31.143 198.344 31.0584V25.4377C198.344 23.7723 197.996 22.3118 197.297 21.0497C196.601 19.7909 195.622 18.8118 194.363 18.1157C193.104 17.4197 191.65 17.0684 190.007 17.0684H186.696C185.05 17.0684 183.6 17.4164 182.341 18.1157C181.082 18.8151 180.103 19.7909 179.407 21.0497C178.707 22.3085 178.359 23.7723 178.359 25.4377V27.8187L182.669 28.5733V25.6231L182.663 25.6198Z" fill="#037373"/>
<path d="M205.894 32.2726H212.858C214.188 32.2726 215.359 32.0188 216.371 31.5082C217.379 30.9975 218.166 30.2786 218.729 29.3548C219.292 28.4278 219.572 27.3609 219.572 26.1541V23.2494C219.572 22.0849 219.302 21.0473 218.759 20.143C218.215 19.2388 217.457 18.5394 216.478 18.0515C215.499 17.5636 214.377 17.3164 213.105 17.3164H201.584V31.879L205.894 32.6336V32.2758V32.2726ZM205.894 21.0636H213.043C213.71 21.0636 214.247 21.2783 214.65 21.7044C215.057 22.1305 215.259 22.7095 215.259 23.4381V25.9687C215.259 26.7396 215.028 27.3576 214.572 27.826C214.114 28.2944 213.522 28.5286 212.793 28.5286H205.891V21.0668L205.894 21.0636Z" fill="#037373"/>
<path d="M238.619 38.3519V35.4277H226.252V29.8688H237.682V26.1216H226.252V21.0636H238.619V17.3164H221.942V35.4375L235.783 37.8575L238.619 38.3519Z" fill="#037373"/>
</g>
</g>
<defs>
<clipPath id="clip0_702_28360">
<rect width="243.627" height="40.9443" fill="white"/>
</clipPath>
<clipPath id="clip1_702_28360">
<rect width="243" height="39.9926" fill="white" transform="translate(0.313477 0.479492)"/>
</clipPath>
</defs>
</svg>
