<svg width="332" height="281" viewBox="0 0 332 281" fill="none" xmlns="http://www.w3.org/2000/svg">
<g filter="url(#filter0_d_1178_67027)">
<g clip-path="url(#clip0_1178_67027)">
<rect x="16" y="16" width="300" height="225" rx="8" fill="#027373"/>
<g opacity="0.12">
<path d="M521.87 308.259C518.832 310.032 515.54 311.551 512.502 313.323C488.194 326.49 462.874 340.163 436.794 349.278C418.057 355.862 401.598 358.9 386.406 358.9C368.681 358.9 351.97 354.343 336.018 345.227C329.435 341.429 322.598 337.125 315.256 332.061C304.874 324.718 294.746 316.868 284.111 308.259C257.018 286.737 228.913 264.455 196.249 254.58C192.451 253.314 189.413 252.808 187.134 252.554C185.361 252.301 183.589 252.301 182.07 252.301C175.486 252.301 170.169 253.567 164.852 256.859C162.067 258.631 159.788 260.91 157.763 263.189C155.484 265.721 152.952 268.506 149.407 270.026C146.621 271.292 143.33 271.798 140.038 271.798C135.481 271.798 130.67 270.785 125.352 268.506C116.997 265.215 108.894 259.897 102.31 255.593C100.791 254.58 99.5253 253.82 98.0061 252.808C90.1567 247.997 82.3074 242.426 73.9517 236.349L73.4454 236.096C71.1665 234.577 68.8878 232.804 66.609 231.285C66.8622 232.298 67.1151 233.564 67.6215 234.577C69.1408 235.843 70.913 236.856 72.4322 238.122L72.6856 238.375C81.0414 244.199 89.1442 249.769 96.9935 254.833C98.2595 255.593 99.7786 256.606 101.298 257.618C107.881 261.923 116.237 267.24 124.846 270.785C130.67 273.064 135.734 274.077 140.545 274.077C144.089 274.077 147.634 273.317 150.673 272.051C154.471 270.279 157.256 267.493 159.788 264.708C161.813 262.429 163.839 260.404 166.371 258.631C171.182 255.846 175.993 254.58 182.323 254.58C183.842 254.58 185.361 254.58 187.134 254.833C189.413 255.086 192.198 255.593 195.743 256.606C228.153 266.227 256.006 288.509 283.099 309.779C293.733 318.134 303.861 326.237 314.242 333.58C321.585 338.644 328.675 343.202 335.258 347C351.464 356.115 367.922 360.673 385.899 360.926C401.598 361.179 418.563 357.887 438.06 351.051C464.14 341.936 489.46 328.262 514.021 314.843L514.781 314.589C517.819 313.07 520.604 311.551 523.643 309.779C553.774 293.573 581.12 283.952 607.959 279.901C608.466 279.141 608.719 278.128 608.973 277.368C600.87 278.381 592.515 280.154 584.412 282.433C564.409 288.003 544.152 296.359 521.87 308.259Z" fill="url(#paint0_linear_1178_67027)" fill-opacity="0.4"/>
<path d="M516.301 290.281L515.795 290.535C485.41 304.714 454.266 319.653 422.109 329.275C405.904 334.339 388.433 338.897 371.215 338.897C354.503 338.897 340.577 334.592 328.424 325.73C322.347 321.426 316.27 315.855 311.459 311.551C290.19 292.307 271.706 277.368 253.475 264.961C231.193 249.769 209.924 238.628 188.401 231.032C184.35 229.512 180.299 228.5 176.754 227.993C171.437 226.98 166.879 226.474 162.068 226.474C157.511 226.474 153.459 226.98 149.661 228.246C145.103 229.766 141.559 232.298 138.267 234.83C135.988 236.602 133.71 238.375 131.178 239.641C126.367 242.173 121.302 243.439 116.238 243.439C104.844 243.439 93.7033 237.615 82.309 231.032C76.2321 227.487 70.1553 223.689 64.0784 220.144C64.3317 221.157 64.5844 222.169 64.8376 223.182C70.1549 226.474 75.7254 229.766 81.2958 233.057C89.3984 237.615 97.5014 242.173 105.857 244.198C109.402 245.211 112.947 245.717 116.238 245.717C121.809 245.717 127.126 244.451 132.444 241.666C135.229 240.147 137.761 238.375 140.04 236.602C143.331 234.07 146.37 231.791 150.674 230.525C154.219 229.512 158.017 228.753 162.321 228.753C166.879 228.753 171.437 229.259 176.501 230.272C180.046 230.778 184.097 232.044 187.895 233.31C237.523 251.035 279.302 285.217 310.446 313.323C315.257 317.627 321.334 323.198 327.411 327.756C340.071 336.871 354.504 341.429 371.468 341.429C372.228 341.429 373.241 341.429 374 341.429C390.712 340.922 408.183 336.365 423.122 331.807C455.279 321.932 486.676 307.246 517.061 292.814L517.567 292.56C549.977 277.368 581.881 263.442 615.811 260.657C616.064 259.897 616.317 259.137 616.57 258.378C604.417 259.391 591.756 261.669 578.59 265.467C556.814 271.544 535.798 280.913 516.301 290.281Z" fill="url(#paint1_linear_1178_67027)" fill-opacity="0.4"/>
<path d="M519.849 263.945C493.516 277.365 458.321 294.077 422.366 304.965C404.388 310.282 387.17 315.093 369.699 314.84C354.254 314.586 343.366 308.003 331.718 297.875C326.908 293.57 322.097 289.013 317.286 284.455L315.513 282.683C298.295 266.478 279.052 253.058 256.77 241.157C238.033 231.282 217.017 222.673 190.177 213.811C185.113 212.039 181.315 211.026 177.77 210.013C168.402 207.734 159.792 205.708 150.93 205.708C149.917 205.708 148.905 205.708 147.892 205.708C140.296 206.215 133.966 208.494 127.129 211.026C123.584 212.292 120.04 213.811 116.495 214.824C110.924 216.343 105.86 217.103 100.796 217.103C91.1745 217.103 81.2994 214.317 69.652 208.747C67.1199 207.481 64.3343 205.962 61.0427 204.442C61.2958 205.455 61.2964 206.215 61.5496 207.228C64.0816 208.494 66.3599 209.76 68.6388 210.772C77.5009 215.077 84.844 217.609 92.1869 218.622C94.9722 219.128 98.011 219.382 100.796 219.382C106.114 219.382 111.431 218.622 117.001 217.103C120.799 216.09 124.344 214.571 127.889 213.305C134.472 210.773 140.802 208.494 147.892 207.987C148.905 207.987 149.918 207.987 150.677 207.987C159.286 207.987 167.642 209.76 177.01 212.039C180.555 212.798 184.354 214.064 189.418 215.583C229.171 228.75 275 247.234 313.741 283.949L315.513 285.721C320.324 290.279 325.135 294.836 329.946 299.141C341.847 309.522 353.241 316.612 369.446 316.865C369.699 316.865 370.206 316.865 370.459 316.865C387.93 316.865 405.148 312.054 422.872 306.737C459.08 295.849 494.022 279.138 520.609 265.465C554.538 248.247 587.961 232.801 624.17 231.535C624.423 230.776 624.423 230.016 624.676 229.257C610.75 229.763 596.57 232.042 581.378 236.853C560.108 243.942 539.346 254.07 519.849 263.945Z" fill="url(#paint2_linear_1178_67027)" fill-opacity="0.4"/>
<path d="M589.48 202.168C567.198 208.498 545.169 219.386 526.432 229.008C498.073 243.693 464.144 259.898 428.695 270.28C410.718 275.597 392.993 280.155 375.775 279.395C361.09 278.889 350.202 272.052 338.554 261.671C336.276 259.645 333.997 257.62 331.718 255.847L331.465 255.594C328.426 253.062 325.388 250.277 322.602 247.745C287.407 217.36 245.629 208.498 201.318 199.129L195.241 197.863C189.923 196.597 185.872 195.838 182.327 195.331L181.821 195.331C172.453 193.559 162.831 192.04 153.209 191.533C144.853 191.027 137.763 192.546 130.167 194.318C127.382 194.825 124.343 195.585 121.305 196.091C116.494 196.851 111.43 197.357 106.619 197.357C93.1992 197.357 79.0199 194.318 64.3341 188.242C62.8148 187.482 61.0426 186.976 59.5234 186.216C59.5234 186.976 59.7763 187.988 59.7763 188.748C61.0422 189.254 62.3083 189.761 63.5743 190.267C78.2601 196.344 92.946 199.383 106.619 199.383C111.683 199.383 116.747 198.876 121.811 198.117C124.85 197.61 127.888 196.851 130.927 196.344C138.27 194.825 145.359 193.306 153.462 193.559C162.83 194.065 172.452 195.585 181.568 197.357L182.074 197.357C185.619 198.117 189.67 198.876 194.988 199.889L201.064 201.155C245.122 210.524 286.647 219.386 321.336 249.264C324.375 251.796 327.414 254.581 330.452 257.113C332.731 259.139 335.01 261.164 337.288 263.19C344.125 269.267 349.442 273.065 355.013 275.85C361.849 279.395 368.686 281.168 376.029 281.421C377.042 281.421 378.308 281.421 379.321 281.421C395.779 281.421 412.49 277.116 429.708 272.052C465.41 261.671 499.339 245.213 527.951 230.527C560.362 213.815 594.797 197.61 630.246 197.61C630.499 197.61 631.006 197.61 631.259 197.61C631.259 196.851 631.512 196.091 631.512 195.331C617.839 196.091 604.166 198.117 589.48 202.168Z" fill="url(#paint3_linear_1178_67027)" fill-opacity="0.4"/>
<path d="M62.0511 171.528C83.5735 181.403 102.817 186.214 120.541 185.708C125.605 185.708 130.669 184.948 135.733 184.189C140.797 183.429 145.861 182.67 150.925 182.67C160.8 182.416 170.676 183.176 180.297 183.936C182.576 184.189 185.108 184.189 187.387 184.442C190.932 184.695 194.73 184.948 198.275 185.202L200.807 185.455C207.644 185.961 214.48 186.214 221.064 186.468C258.285 188.24 296.772 190.012 328.675 212.548C333.486 216.093 339.309 220.144 344.627 224.195C351.716 229.512 359.06 233.31 366.656 235.842C373.746 238.121 381.088 239.387 389.191 239.641C403.877 239.894 418.816 236.855 436.794 232.044C471.989 222.676 506.171 206.724 534.783 192.545C565.674 177.352 598.338 162.666 631.001 162.666C631.508 162.666 632.267 162.666 632.773 162.666C632.773 162.16 632.773 161.654 632.773 161.147C632.773 160.894 632.773 160.641 632.773 160.388C632.267 160.388 631.761 160.388 631.001 160.388C620.113 160.388 608.466 161.907 596.312 165.198C574.283 171.022 553.268 180.897 533.771 190.519C505.159 204.698 471.229 220.397 436.287 229.766C419.069 234.323 404.89 237.362 391.217 237.362C373.999 237.362 359.819 232.551 345.893 222.423C340.576 218.371 334.752 214.32 329.688 210.775C315.255 200.394 298.038 193.557 277.275 189.506C258.791 185.961 239.547 184.948 220.81 184.189C214.227 183.936 207.137 183.429 200.554 183.176L198.275 182.923C194.73 182.669 190.932 182.416 187.387 182.163C185.108 181.91 182.576 181.91 180.297 181.657C170.676 180.897 160.548 180.391 150.673 180.391C145.355 180.391 140.291 181.15 135.227 181.91C130.416 182.67 125.352 183.176 120.541 183.429C103.07 183.936 84.0797 179.378 63.0637 169.503C61.5444 168.743 60.0251 167.984 58.5059 167.224L57.9996 166.971C57.9996 167.73 57.9996 168.743 57.9996 169.503C59.2656 170.263 60.5319 171.022 62.0511 171.528Z" fill="url(#paint4_linear_1178_67027)" fill-opacity="0.4"/>
<path d="M135.23 176.087C148.144 176.087 161.563 174.568 174.477 173.302C180.807 172.542 187.391 171.783 193.721 171.276C197.772 171.023 202.33 170.517 207.141 170.01C214.737 169.251 222.586 168.238 230.435 167.478C246.894 165.453 263.858 163.427 280.316 163.427C302.598 163.427 320.576 167.225 336.528 175.074L338.3 176.087C343.111 178.366 348.175 180.898 352.986 183.683C366.912 191.533 381.851 195.584 398.816 195.584L399.322 195.584C415.527 195.584 431.986 192.039 445.912 188.747C480.348 180.392 513.011 166.719 543.143 153.046C571.755 140.132 601.886 127.725 631.258 126.966C631.258 126.206 631.004 125.446 631.004 124.687C622.649 124.94 613.533 125.953 604.418 127.978C583.149 132.789 561.879 141.905 542.129 150.767C511.998 164.44 479.335 178.113 445.405 186.469C430.72 190.014 415.021 193.305 399.576 193.305C382.864 193.305 367.925 189.507 354.252 181.658C349.441 178.872 344.377 176.34 339.566 174.062L337.794 173.302C321.335 165.199 303.358 161.401 280.57 161.401C263.858 161.401 246.894 163.427 230.435 165.453C222.839 166.465 214.99 167.225 207.393 167.985C202.583 168.491 198.278 168.744 193.973 169.251C187.643 169.757 181.06 170.517 174.73 171.276C161.817 172.796 148.65 174.062 135.736 174.062C131.938 174.062 128.394 173.808 124.849 173.555C100.035 171.783 76.4869 160.642 58.7626 151.02L58.2563 150.767C58.2563 151.526 58.2563 152.539 58.2563 153.299C75.9806 162.921 99.7819 173.808 124.849 175.834C127.888 175.834 131.432 176.087 135.23 176.087Z" fill="url(#paint5_linear_1178_67027)" fill-opacity="0.4"/>
<path d="M128.647 166.715C132.445 167.221 136.749 167.475 141.054 167.475C157.005 167.475 173.21 163.423 188.909 159.625C192.707 158.612 195.999 157.853 199.544 157.093C204.355 156.08 209.166 154.814 212.711 154.055C219.294 152.535 225.877 150.763 232.461 148.991C257.275 142.661 283.101 135.824 308.422 135.824C320.829 135.824 331.97 137.343 342.857 140.635C348.428 142.154 354.251 143.927 359.822 145.952C374.761 151.27 390.207 153.802 406.412 153.548C420.085 153.295 434.77 151.523 453.507 147.471C486.424 140.382 519.088 128.228 549.472 116.327C572.767 107.212 599.1 96.8305 625.434 94.5517C625.18 93.7921 625.181 93.0325 624.927 92.2729C619.61 92.7793 614.292 93.5389 608.722 94.5517C587.453 98.8562 565.93 107.212 548.713 114.048C518.328 125.949 485.918 137.85 453.001 144.939C433.504 149.244 418.565 151.016 404.892 151.016C389.447 151.016 375.014 148.484 360.582 143.42C355.011 141.395 349.187 139.622 343.364 138.103C332.476 134.811 320.829 133.292 308.168 133.292C282.342 133.292 256.515 139.875 231.701 146.459C225.371 148.231 218.534 149.75 212.204 151.269C208.153 152.282 203.595 153.295 199.037 154.308C195.492 155.068 191.948 155.827 188.403 156.84C172.704 160.638 156.499 164.436 141.054 164.436C136.749 164.436 132.698 164.183 128.9 163.677C103.073 159.878 79.0186 147.471 58.7622 135.571C58.7622 136.33 58.5087 137.343 58.5087 138.103C69.6497 144.433 79.0186 149.497 87.8807 153.295C102.567 160.638 115.733 164.689 128.647 166.715Z" fill="url(#paint6_linear_1178_67027)" fill-opacity="0.4"/>
<path d="M143.837 158.108C160.295 158.108 177.512 151.525 192.705 145.701C196.249 144.435 200.048 142.916 203.592 141.65L207.138 140.384C210.176 139.371 213.214 138.105 216.253 137.092C250.182 125.192 288.669 111.519 325.89 111.519C332.98 111.519 339.817 112.025 346.4 113.038L349.438 113.544C354.249 114.304 359.314 115.064 364.124 116.076C377.544 118.862 390.71 120.128 404.13 120.128C420.588 120.128 438.566 118.102 459.329 114.051C491.739 107.721 523.896 97.5925 554.028 87.9708L557.572 86.958C576.563 80.8811 597.832 74.0446 618.848 71.2593C618.594 70.4997 618.341 69.7401 618.088 68.9804C617.075 69.2336 615.81 69.2337 614.797 69.4869C594.794 72.5253 574.537 79.1087 556.813 84.9324L553.268 85.9452C523.137 95.5669 490.98 105.695 458.823 112.025C438.313 116.076 420.335 118.102 404.13 118.102C390.71 118.102 377.797 116.836 364.377 114.051C359.566 113.038 354.502 112.278 349.691 111.519L346.653 111.012C340.07 110 332.98 109.493 325.89 109.493C288.163 109.493 249.422 123.166 215.493 135.067C212.454 136.08 209.163 137.346 206.124 138.358L202.58 139.624C199.035 140.89 195.237 142.41 191.692 143.676C176.753 149.499 159.788 155.83 143.583 155.83C141.304 155.83 138.772 155.576 136.493 155.323C109.147 151.778 82.5606 137.346 59.7722 123.673C59.7722 124.432 59.5194 125.445 59.5194 126.205C82.0546 139.878 108.641 154.057 136.24 157.602C138.772 158.108 141.305 158.108 143.837 158.108Z" fill="url(#paint7_linear_1178_67027)" fill-opacity="0.4"/>
<path d="M142.828 145.447C158.02 145.447 172.706 138.611 186.886 132.281C192.456 129.749 198.027 127.217 203.344 125.191C207.395 123.672 211.193 122.152 214.991 120.886C255.251 107.213 298.548 94.8064 344.125 95.3128C351.215 95.3128 357.545 95.566 363.369 96.0724C374.004 97.0852 384.638 97.3384 394.766 97.3384C417.048 97.3384 438.824 95.3128 461.359 90.7551C489.465 85.1846 518.583 77.5885 550.487 66.9539C570.49 60.3706 591.506 53.7873 612.016 51.5084C611.762 50.7488 611.509 49.9892 611.256 49.2296C609.737 49.4828 607.964 49.736 606.192 49.736C586.948 52.5213 567.705 58.5982 549.727 64.4219C517.823 74.8032 488.705 82.6525 460.853 87.9698C438.318 92.2743 416.795 94.5531 394.513 94.5531C384.385 94.5531 374.004 94.0467 363.369 93.2871C357.292 92.7807 350.962 92.5275 343.872 92.5275C298.042 92.0211 254.491 104.681 213.978 118.354C210.18 119.62 206.382 121.14 202.331 122.659C197.014 124.684 191.443 127.216 185.873 129.749C171.946 136.079 157.514 142.662 142.828 142.662C140.802 142.662 138.777 142.409 136.751 142.156C110.165 138.611 84.3378 124.431 62.0559 110.505C61.8027 111.265 61.8028 112.024 61.5496 113.037C83.8315 126.963 109.658 140.89 136.245 144.434C138.524 145.194 140.802 145.447 142.828 145.447Z" fill="url(#paint8_linear_1178_67027)" fill-opacity="0.4"/>
<path d="M139.024 127.722C153.71 127.722 168.396 121.898 182.828 116.074C188.652 113.795 193.97 111.77 199.54 109.997C203.085 108.731 206.629 107.719 210.427 106.452C249.168 94.8051 292.972 81.6384 337.789 80.3724C341.081 80.3724 344.373 80.1193 347.411 80.1193C351.209 80.1193 354.501 80.1192 358.046 80.3724C365.642 80.6256 372.985 80.8789 380.074 80.8789C407.42 80.8789 431.222 78.3468 454.77 73.2827C480.596 67.459 507.183 59.6097 533.516 49.4815C553.266 41.8854 576.814 34.2892 602.894 34.2892C603.401 34.2892 603.654 34.2892 604.16 34.2892C603.907 33.5296 603.401 32.7701 603.148 32.0105C597.577 32.0105 592.007 32.2636 586.183 33.0232C570.231 35.0488 553.266 39.3534 532.757 47.2027C506.423 57.3309 480.09 65.1802 454.263 71.0039C430.715 76.068 407.168 78.6 379.821 78.6C372.985 78.6 365.642 78.3468 358.046 78.0936C354.501 77.8404 351.209 77.8404 347.411 77.8404C344.373 77.8404 341.081 77.8404 337.789 78.0936C292.719 79.3596 248.662 92.5263 209.668 104.174C205.87 105.186 202.325 106.452 198.78 107.719C193.21 109.491 187.892 111.77 182.069 114.049C167.889 119.619 153.203 125.443 139.024 125.443C113.957 125.443 87.8765 111.77 64.8348 97.3371C64.5817 98.0967 64.5818 98.8563 64.3286 99.6159C87.1169 114.302 113.45 127.722 139.024 127.722Z" fill="url(#paint9_linear_1178_67027)" fill-opacity="0.4"/>
<path d="M139.53 105.694C141.049 105.694 142.822 105.947 144.341 105.947C157.761 105.947 171.434 102.402 184.853 98.8575C188.145 98.0979 191.437 97.0851 194.728 96.3255C196.501 95.8191 198.273 95.5659 200.046 95.0595L200.299 95.0595C201.818 94.5531 203.591 94.2999 205.11 93.7935C214.985 91.5146 224.86 88.7294 234.228 86.1973C265.119 78.0948 297.276 69.4858 329.686 67.7134C337.282 67.207 343.866 67.207 349.943 67.4602C356.02 67.7134 361.083 67.7134 366.147 67.7134C395.013 67.7134 418.055 64.9282 441.35 58.5981C464.898 52.268 487.686 43.9122 508.702 34.0372C529.971 23.9091 550.987 18.845 572.509 18.845C580.358 18.845 588.461 19.6046 597.07 20.8706C596.564 20.111 596.057 19.0982 595.551 18.3385C587.448 17.0725 579.852 16.5661 572.256 16.5661C567.698 16.5661 563.394 16.8193 558.836 17.0725C541.618 18.5917 524.907 23.4026 507.436 31.7583C486.673 41.6333 464.138 49.9891 440.59 56.3192C417.548 62.6493 394.507 65.1813 365.895 65.1813C361.084 65.1813 355.766 65.1814 349.689 64.9282C343.359 64.675 336.776 64.9281 329.18 65.1813C296.517 66.9538 264.359 75.3095 233.215 83.6653C223.593 86.1973 213.718 88.7294 204.097 91.2614C202.577 91.5146 201.058 92.021 199.792 92.2742L199.539 92.2742C197.767 92.7806 195.741 93.287 193.968 93.5402C190.677 94.2998 187.385 95.3127 184.094 96.0723C170.927 99.6171 157.254 103.162 144.087 103.162C142.568 103.162 141.049 103.162 139.53 102.909C114.715 101.136 89.9019 89.9954 69.1392 78.6012C68.886 79.3608 68.6327 80.1204 68.3795 80.88C74.2032 84.1717 79.5204 86.9569 84.8378 89.2357C105.347 99.3639 123.071 104.681 139.53 105.694Z" fill="url(#paint10_linear_1178_67027)" fill-opacity="0.4"/>
<path d="M161.309 85.9433C170.678 85.9433 180.806 85.1837 191.188 83.6645C194.732 83.1581 198.024 82.6517 201.062 82.1453C217.774 79.1068 234.485 74.5491 250.691 70.2446C273.732 63.9145 297.786 57.5844 322.094 55.5588C329.437 55.0524 336.02 54.7992 342.097 55.0524C346.655 55.0524 350.959 55.3056 354.757 55.3056C383.116 55.3056 404.385 52.2672 425.908 44.6711C445.405 38.0878 464.395 29.2256 482.119 18.5911C500.097 7.70327 518.834 2.63906 541.116 2.63906C553.27 2.63907 566.942 4.15835 583.907 7.45001C585.933 7.95642 587.959 8.20963 589.984 8.71603C589.478 7.95642 588.972 6.9436 588.212 6.18399C586.946 5.93079 585.68 5.67761 584.161 5.42441C566.943 2.13275 553.27 0.613461 541.116 0.61346C537.824 0.61346 534.279 0.613551 530.988 0.866755C512.757 2.13278 496.299 7.45003 480.6 16.8186C462.876 27.4532 444.139 36.0621 424.895 42.8986C403.626 50.2415 382.61 53.28 354.504 53.28C350.453 53.28 346.402 53.28 341.844 53.0268C335.767 52.7736 329.184 53.0268 321.841 53.5332C297.28 55.3056 273.226 61.8889 249.931 68.219C233.726 72.5235 217.267 77.0812 200.556 80.1197C197.517 80.6261 194.226 81.1324 190.681 81.6388C180.3 83.158 170.424 83.9177 161.056 83.9177C154.219 83.9177 147.636 83.4113 141.813 82.6517C119.277 79.6132 96.9956 69.2318 76.7393 57.8376C76.486 58.5972 76.2327 59.3569 75.9795 59.8633C96.4891 71.2575 118.771 81.6389 141.559 84.9305C147.636 85.6901 154.22 85.9433 161.309 85.9433Z" fill="url(#paint11_linear_1178_67027)" fill-opacity="0.4"/>
<path d="M145.106 65.1822C147.891 65.9418 150.423 66.4482 153.209 67.2078L153.461 67.2078C164.602 69.9931 174.984 72.7783 186.378 72.7783C187.644 72.7783 188.657 72.7783 189.923 72.7783C193.215 72.5251 196.507 72.2719 199.545 72.0187C219.295 69.7399 238.538 63.4097 257.022 57.586C276.013 51.5091 295.763 45.179 316.019 43.1534C323.109 42.3937 329.439 42.1406 335.009 42.1406C338.807 42.1406 342.099 42.3938 345.39 42.3938C368.432 42.3938 388.435 40.3681 411.224 30.4931C426.416 23.9098 441.861 14.7945 458.826 2.64067C474.778 -8.75353 492.756 -14.0708 515.291 -14.0708C529.47 -14.0708 544.156 -12.0451 561.88 -9.00666C567.451 -7.99384 573.528 -6.981 579.352 -5.96818C578.592 -6.981 578.085 -7.7407 577.326 -8.75352C572.262 -9.76634 566.944 -10.5259 562.134 -11.5387C546.182 -14.324 530.736 -16.6028 515.291 -16.6028C512.759 -16.6028 510.479 -16.6029 507.947 -16.3497C488.451 -15.3368 471.739 -9.76631 457.307 0.615063C440.595 12.7689 425.15 21.6311 409.957 28.2144C387.676 38.0894 367.926 40.115 345.138 40.115C341.846 40.115 338.554 40.1149 334.756 39.8617C328.932 39.6085 322.602 40.115 315.512 40.8746C295.003 42.9002 275.253 49.4835 256.009 55.5604C237.525 61.3841 218.535 67.7143 199.038 69.9931C196 70.2463 192.709 70.7527 189.417 70.7527C188.404 70.7527 187.138 70.7527 186.125 70.7527C174.984 70.7527 164.603 67.9674 153.715 65.1822C150.93 64.4225 148.144 63.663 145.359 63.1565C124.343 58.0925 104.593 47.9643 85.3496 37.0765C85.0964 37.8361 84.5903 38.3425 84.3371 39.1021C90.1608 42.3938 96.2373 45.9387 102.314 48.9772C118.266 56.5733 132.193 61.8905 145.106 65.1822Z" fill="url(#paint12_linear_1178_67027)" fill-opacity="0.4"/>
<path d="M161.814 52.7755C171.435 58.0928 180.298 63.1569 192.958 63.4101C196.25 63.4101 199.541 63.4101 202.58 63.1569C223.343 61.3845 243.092 53.0288 262.083 45.1795C278.794 38.0897 296.012 31 313.736 28.2147C320.32 27.2019 325.89 26.6954 330.954 26.6954L331.461 26.6954C332.727 26.6954 333.993 26.6954 335.259 26.6954C345.64 26.6954 357.035 26.4423 367.922 24.6698C380.329 22.6442 391.217 19.0994 402.358 13.0225C416.79 5.42635 430.211 -4.95503 443.124 -14.83L445.656 -16.8556C461.355 -28.7562 479.332 -34.3268 502.627 -34.3268C519.085 -34.3268 536.05 -31.5416 552.255 -29.0095L552.762 -29.0095C556.56 -28.5031 560.104 -27.7435 563.902 -27.2371C563.143 -28.2499 562.383 -29.0094 561.624 -30.0222C558.839 -30.5287 555.8 -31.0352 553.014 -31.5416L552.508 -31.5416C535.797 -34.3268 518.832 -37.1119 502.121 -37.1119C500.095 -37.1119 498.323 -37.1119 496.297 -37.1119C486.422 -36.6055 477.56 -35.3395 469.457 -32.5543C460.088 -29.5158 451.733 -25.2113 443.884 -19.3876L441.352 -17.362C428.438 -7.48707 415.018 2.64101 400.839 10.2371C378.051 22.391 357.794 23.4038 335.259 23.4038C333.993 23.4038 332.474 23.4038 331.208 23.4038L330.701 23.4038C325.637 23.4038 319.813 23.9103 312.977 24.9231C294.999 27.7084 277.528 35.0513 260.817 42.141C241.826 49.9903 222.33 58.346 202.074 60.1184C199.035 60.3716 195.743 60.3716 192.704 60.3716C180.551 60.1184 171.942 55.0543 162.573 49.9902C159.029 47.9646 155.484 45.939 151.685 44.1666C129.91 34.0384 112.439 24.9231 96.234 15.5545C95.9807 16.3141 95.474 16.8205 95.2208 17.5801C111.426 26.9487 129.15 36.064 150.926 46.1922C154.724 48.7242 158.269 50.7499 161.814 52.7755Z" fill="url(#paint13_linear_1178_67027)" fill-opacity="0.4"/>
<path d="M159.786 30.7429C163.078 33.2749 166.117 36.0602 169.155 38.8455C179.03 47.7076 187.385 55.3037 200.299 55.3037C201.058 55.3037 201.818 55.3037 202.831 55.3037C206.882 55.0505 211.694 53.2781 215.998 52.0121L216.757 51.7588C230.937 47.2012 244.61 39.0986 257.777 31.5025C277.02 20.3615 297.023 8.71414 318.799 6.6885L319.052 6.6885C323.61 6.18209 328.674 5.67572 333.485 5.92892C336.776 6.18213 340.068 6.18207 343.106 6.18207C352.728 6.18207 361.084 5.42239 368.933 3.90317C380.327 1.62433 390.709 -2.1737 402.103 -8.25061C410.712 -12.8083 419.321 -18.3787 427.676 -23.696C435.273 -28.5069 443.122 -33.3179 450.971 -37.8755C470.468 -48.7633 491.231 -53.8274 516.045 -53.8274C523.641 -53.8274 531.491 -53.321 539.34 -52.5614C538.327 -53.321 537.314 -54.3338 536.302 -55.0934C529.465 -55.853 522.628 -56.1061 516.045 -56.1061C491.231 -56.1061 469.455 -50.7889 449.959 -39.9011C442.109 -35.5967 434.26 -30.5325 426.664 -25.7216C418.308 -20.4043 409.952 -15.087 401.343 -10.5294C382.86 -0.401183 365.894 3.65002 343.359 3.65002C340.321 3.65002 337.283 3.65008 334.244 3.39688C329.18 3.14367 324.369 3.65005 319.558 4.15646L319.305 4.15646C297.023 6.18209 276.767 18.0826 257.27 29.2236C244.103 36.8197 230.431 44.6691 216.504 49.2268L215.745 49.48C211.693 50.746 206.882 52.2652 203.084 52.7716C202.325 52.7716 201.565 52.7716 200.806 52.7716C188.905 52.7716 180.549 45.4287 171.18 36.8197C168.142 34.0345 165.104 31.2493 161.812 28.7173C151.177 20.3616 139.024 13.5249 127.123 6.94163C121.299 3.64997 115.222 0.358316 109.399 -3.18655C108.892 -2.68014 108.639 -1.92049 108.133 -1.41408C113.956 2.13078 120.034 5.67558 126.11 8.96723C137.251 15.8038 149.405 22.6404 159.786 30.7429Z" fill="url(#paint14_linear_1178_67027)" fill-opacity="0.4"/>
<path d="M138.267 -8.50242C150.42 -0.90629 162.828 6.94299 172.703 17.0712L174.728 19.0968C181.818 26.4397 186.882 31.7571 198.277 34.5423C202.581 35.5551 206.885 36.0615 211.443 36.0615C218.28 36.0615 225.116 34.7955 232.965 32.2634C236.257 31.2506 240.055 29.4782 243.853 27.7058C253.475 22.6417 262.843 15.0455 272.718 6.943C289.936 -6.98324 307.66 -21.4159 328.17 -22.9351C330.702 -23.1883 333.234 -23.1882 335.766 -23.1882C337.538 -23.1882 339.058 -23.1883 340.577 -22.9351C344.882 -22.4287 349.186 -22.1755 353.49 -22.1755C373.24 -22.1755 391.218 -27.4928 412.234 -35.3422C421.096 -38.6338 430.211 -42.4318 439.074 -45.9766C450.974 -50.7875 463.128 -55.8517 475.282 -60.1561C489.461 -64.967 503.388 -68.5119 517.82 -70.2843C516.808 -71.0439 516.048 -71.5503 515.035 -72.3099C501.362 -70.2843 488.195 -66.9926 474.522 -62.1818C462.368 -57.8773 449.961 -52.8133 438.314 -48.0024C429.705 -44.4575 420.589 -40.6594 411.727 -37.3678C390.965 -29.5184 373.241 -24.4542 353.744 -24.4542C349.693 -24.4542 345.388 -24.7076 341.084 -25.214C339.564 -25.4672 338.045 -25.4671 336.019 -25.4671C333.487 -25.4671 330.702 -25.214 328.17 -25.214C307.154 -23.6948 288.923 -9.00891 271.452 5.17054C261.577 13.2731 252.462 20.6161 242.84 25.6802C239.295 27.4526 235.751 28.9718 232.459 30.2378C219.799 34.2891 209.417 34.7955 199.036 32.2634C188.148 29.4782 183.337 24.4141 176.501 17.5776C175.994 16.818 175.235 16.3116 174.475 15.552C164.347 5.17062 151.94 -2.67869 139.786 -10.528C135.735 -13.0601 131.684 -15.5922 127.886 -18.3775C126.366 -19.3903 124.594 -20.4031 123.074 -21.4159C122.568 -20.9095 122.062 -20.1499 121.556 -19.6435C123.328 -18.6307 124.847 -17.3647 126.62 -16.3519C130.164 -13.8198 134.215 -11.0345 138.267 -8.50242Z" fill="url(#paint15_linear_1178_67027)" fill-opacity="0.4"/>
</g>
<path d="M79.5546 168.717H81.2636L83.7861 172.914L86.3154 168.717H88.0244L84.5039 174.432V178H83.0752V174.432L79.5546 168.717ZM91.377 178.137C89.3809 178.137 87.8907 176.64 87.8907 174.719C87.8907 172.798 89.3809 171.301 91.377 171.301C93.3731 171.301 94.8633 172.798 94.8633 174.719C94.8633 176.64 93.3731 178.137 91.377 178.137ZM89.2442 174.719C89.2442 175.929 90.1397 176.865 91.377 176.865C92.6143 176.865 93.5098 175.929 93.5098 174.719C93.5098 173.509 92.6143 172.572 91.377 172.572C90.1397 172.572 89.2442 173.509 89.2442 174.719ZM96.7872 171.438H98.1407V175.136C98.1407 176.223 98.7355 176.852 99.7404 176.852C100.773 176.852 101.586 176.223 101.586 175.136V171.438H102.94V178H101.579V177.173C101.36 177.508 100.738 178.137 99.5284 178.137C97.7374 178.137 96.7872 177.016 96.7872 175.423V171.438ZM110.24 178L108.305 171.438H109.734L111.176 176.674L112.707 171.506H114.143L115.674 176.674L117.116 171.438H118.545L116.611 178H114.765L113.425 173.331L112.085 178H110.24ZM120.114 169.236C120.114 168.744 120.455 168.402 120.948 168.402C121.44 168.402 121.788 168.744 121.788 169.236C121.788 169.729 121.44 170.07 120.948 170.07C120.455 170.07 120.114 169.729 120.114 169.236ZM121.624 178H120.271V171.438H121.624V178ZM125.476 168.375V178H124.122V168.375H125.476ZM129.328 168.375V178H127.974V168.375H129.328ZM135.459 178V168.375H136.812V172.333C137.298 171.711 138.036 171.301 139.15 171.301C141.016 171.301 142.445 172.668 142.445 174.685C142.445 176.701 141.016 178.137 139.15 178.137C138.036 178.137 137.298 177.727 136.812 177.104V178H135.459ZM136.819 174.685C136.819 175.895 137.721 176.92 138.986 176.92C140.251 176.92 141.091 175.895 141.091 174.685C141.091 173.475 140.251 172.518 138.986 172.518C137.728 172.518 136.819 173.475 136.819 174.685ZM144 174.726C144 172.771 145.401 171.301 147.39 171.301C149.304 171.301 150.549 172.723 150.549 174.479C150.549 174.685 150.535 174.896 150.494 175.108H145.401C145.463 176.093 146.303 176.865 147.438 176.865C148.259 176.865 148.915 176.517 149.407 175.744L150.405 176.469C149.797 177.562 148.6 178.137 147.438 178.137C145.456 178.137 144 176.674 144 174.726ZM145.435 174.097H149.175C149.093 173.174 148.32 172.524 147.377 172.524C146.372 172.524 145.606 173.174 145.435 174.097ZM155.777 176.134C155.777 174.903 156.953 174.056 158.676 174.056C159.462 174.056 160.029 174.22 160.33 174.363V174.008C160.33 173.188 159.667 172.572 158.648 172.572C157.835 172.572 157.158 173.037 156.768 173.481L155.914 172.634C156.42 171.991 157.473 171.301 158.669 171.301C160.515 171.301 161.684 172.299 161.684 173.892V178H160.357V177.152C159.954 177.768 159.195 178.137 158.313 178.137C156.892 178.137 155.777 177.419 155.777 176.134ZM157.144 176.086C157.144 176.681 157.739 177.029 158.512 177.029C159.578 177.029 160.33 176.298 160.33 175.402C160.05 175.259 159.421 175.088 158.71 175.088C157.855 175.088 157.144 175.375 157.144 176.086ZM163.594 176.619L164.599 175.806C164.968 176.448 165.597 176.893 166.431 176.893C167.135 176.893 167.661 176.612 167.661 176.168C167.661 175.683 167.258 175.532 166.294 175.313C164.886 174.999 163.881 174.555 163.881 173.256C163.881 172.066 164.968 171.301 166.308 171.301C167.531 171.301 168.468 171.937 168.905 172.654L167.996 173.434C167.641 172.928 167.08 172.538 166.308 172.538C165.658 172.538 165.221 172.812 165.221 173.235C165.221 173.734 165.706 173.871 166.67 174.104C168.099 174.452 169.028 174.917 169.028 176.168C169.028 177.364 167.825 178.137 166.431 178.137C165.152 178.137 164.1 177.549 163.594 176.619ZM171.096 168.375H172.463V174.288L175.327 171.438H177.187L174.363 174.186L177.296 178H175.58L173.379 175.136L172.463 176.052V178H171.096V168.375ZM178.01 174.726C178.01 172.771 179.411 171.301 181.401 171.301C183.315 171.301 184.559 172.723 184.559 174.479C184.559 174.685 184.545 174.896 184.504 175.108H179.411C179.473 176.093 180.314 176.865 181.448 176.865C182.269 176.865 182.925 176.517 183.417 175.744L184.415 176.469C183.807 177.562 182.611 178.137 181.448 178.137C179.466 178.137 178.01 176.674 178.01 174.726ZM179.445 174.097H183.185C183.103 173.174 182.33 172.524 181.387 172.524C180.382 172.524 179.616 173.174 179.445 174.097ZM186.12 174.685C186.12 172.668 187.549 171.301 189.415 171.301C190.53 171.301 191.268 171.711 191.753 172.333V168.375H193.107V178H191.753V177.104C191.268 177.727 190.53 178.137 189.415 178.137C187.549 178.137 186.12 176.701 186.12 174.685ZM189.579 172.518C188.315 172.518 187.474 173.475 187.474 174.685C187.474 175.895 188.315 176.92 189.579 176.92C190.844 176.92 191.746 175.895 191.746 174.685C191.746 173.475 190.837 172.518 189.579 172.518ZM199.641 172.586H198.472V171.438H199.662V169.332H200.981V171.438H203.066V172.586H200.995V175.867C200.995 176.564 201.398 176.913 202.068 176.913C202.382 176.913 202.813 176.824 203.134 176.688L203.312 177.85C202.984 178.021 202.403 178.137 201.876 178.137C200.502 178.137 199.641 177.364 199.641 176.031V172.586ZM207.847 178.137C205.851 178.137 204.361 176.64 204.361 174.719C204.361 172.798 205.851 171.301 207.847 171.301C209.843 171.301 211.333 172.798 211.333 174.719C211.333 176.64 209.843 178.137 207.847 178.137ZM205.714 174.719C205.714 175.929 206.61 176.865 207.847 176.865C209.084 176.865 209.98 175.929 209.98 174.719C209.98 173.509 209.084 172.572 207.847 172.572C206.61 172.572 205.714 173.509 205.714 174.719ZM219.83 178.137C217.964 178.137 216.535 176.701 216.535 174.685C216.535 172.668 217.964 171.301 219.83 171.301C220.944 171.301 221.682 171.711 222.168 172.333V171.438H223.521V177.487C223.521 179.552 222.12 180.871 219.912 180.871C218.709 180.871 217.594 180.365 216.842 179.463L217.731 178.581C218.353 179.258 219.057 179.641 219.939 179.641C221.286 179.641 222.168 178.854 222.168 177.658V177.104C221.71 177.699 220.944 178.137 219.83 178.137ZM219.994 172.518C218.729 172.518 217.888 173.475 217.888 174.685C217.888 175.895 218.729 176.92 219.994 176.92C221.258 176.92 222.161 175.895 222.161 174.685C222.161 173.475 221.252 172.518 219.994 172.518ZM227.359 178H225.999V171.438H227.359V172.333C227.728 171.615 228.35 171.301 229.068 171.301C229.581 171.301 229.97 171.465 229.97 171.465L229.827 172.709C229.752 172.682 229.458 172.559 229.027 172.559C228.302 172.559 227.359 172.941 227.359 174.425V178ZM231.04 176.134C231.04 174.903 232.216 174.056 233.938 174.056C234.724 174.056 235.292 174.22 235.593 174.363V174.008C235.593 173.188 234.93 172.572 233.911 172.572C233.097 172.572 232.421 173.037 232.031 173.481L231.177 172.634C231.682 171.991 232.735 171.301 233.931 171.301C235.777 171.301 236.946 172.299 236.946 173.892V178H235.62V177.152C235.217 177.768 234.458 178.137 233.576 178.137C232.154 178.137 231.04 177.419 231.04 176.134ZM232.407 176.086C232.407 176.681 233.002 177.029 233.774 177.029C234.841 177.029 235.593 176.298 235.593 175.402C235.312 175.259 234.683 175.088 233.972 175.088C233.118 175.088 232.407 175.375 232.407 176.086ZM240.716 178H239.362V171.438H240.723V172.265C240.941 171.93 241.563 171.301 242.739 171.301C244.544 171.301 245.494 172.422 245.494 174.015V178H244.141V174.302C244.141 173.215 243.546 172.586 242.527 172.586C241.529 172.586 240.716 173.215 240.716 174.302V178ZM248.218 172.586H247.049V171.438H248.238V169.332H249.558V171.438H251.643V172.586H249.571V175.867C249.571 176.564 249.975 176.913 250.645 176.913C250.959 176.913 251.39 176.824 251.711 176.688L251.889 177.85C251.561 178.021 250.979 178.137 250.453 178.137C249.079 178.137 248.218 177.364 248.218 176.031V172.586ZM82.131 198V191.438H83.4913V192.265C83.7032 191.93 84.3253 191.301 85.4806 191.301C86.6085 191.301 87.4015 191.766 87.8185 192.524C88.215 191.882 89.0353 191.301 90.1632 191.301C91.9132 191.301 92.8566 192.422 92.8566 194.015V198H91.4962V194.302C91.4962 193.215 90.9152 192.586 89.9513 192.586C88.9943 192.586 88.2081 193.188 88.1739 194.22V198H86.8136V194.302C86.8136 193.215 86.2325 192.586 85.2687 192.586C84.2911 192.586 83.4913 193.215 83.4913 194.302V198H82.131ZM95.1086 189.236C95.1086 188.744 95.4504 188.402 95.9426 188.402C96.4348 188.402 96.7834 188.744 96.7834 189.236C96.7834 189.729 96.4348 190.07 95.9426 190.07C95.4504 190.07 95.1086 189.729 95.1086 189.236ZM96.6193 198H95.2658V191.438H96.6193V198ZM102.112 198.137C100.122 198.137 98.6321 196.626 98.6321 194.712C98.6321 192.791 100.184 191.301 102.166 191.301C103.458 191.301 104.538 191.978 105.154 193.099L104.108 193.81C103.698 193.051 102.959 192.572 102.139 192.572C100.874 192.572 99.9993 193.509 99.9993 194.712C99.9993 195.922 100.895 196.865 102.112 196.865C102.966 196.865 103.677 196.414 104.128 195.635L105.147 196.353C104.545 197.433 103.438 198.137 102.112 198.137ZM108.404 198H107.043V191.438H108.404V192.333C108.773 191.615 109.395 191.301 110.113 191.301C110.625 191.301 111.015 191.465 111.015 191.465L110.871 192.709C110.796 192.682 110.502 192.559 110.072 192.559C109.347 192.559 108.404 192.941 108.404 194.425V198ZM115.468 198.137C113.472 198.137 111.982 196.64 111.982 194.719C111.982 192.798 113.472 191.301 115.468 191.301C117.464 191.301 118.955 192.798 118.955 194.719C118.955 196.64 117.464 198.137 115.468 198.137ZM113.335 194.719C113.335 195.929 114.231 196.865 115.468 196.865C116.706 196.865 117.601 195.929 117.601 194.719C117.601 193.509 116.706 192.572 115.468 192.572C114.231 192.572 113.335 193.509 113.335 194.719ZM120.967 200.734V191.438H122.321V192.333C122.806 191.711 123.544 191.301 124.659 191.301C126.525 191.301 127.954 192.736 127.954 194.753C127.954 196.77 126.525 198.137 124.659 198.137C123.544 198.137 122.806 197.727 122.321 197.104V200.734H120.967ZM122.328 194.753C122.328 195.963 123.237 196.92 124.495 196.92C125.759 196.92 126.6 195.963 126.6 194.753C126.6 193.543 125.759 192.518 124.495 192.518C123.23 192.518 122.328 193.543 122.328 194.753ZM131.34 198H129.987V188.375H131.347V192.265C131.566 191.93 132.188 191.301 133.364 191.301C135.134 191.301 136.085 192.422 136.085 194.015V198H134.731V194.302C134.731 193.215 134.136 192.586 133.152 192.586C132.154 192.586 131.34 193.215 131.34 194.302V198ZM141.502 198.137C139.506 198.137 138.015 196.64 138.015 194.719C138.015 192.798 139.506 191.301 141.502 191.301C143.498 191.301 144.988 192.798 144.988 194.719C144.988 196.64 143.498 198.137 141.502 198.137ZM139.369 194.719C139.369 195.929 140.264 196.865 141.502 196.865C142.739 196.865 143.634 195.929 143.634 194.719C143.634 193.509 142.739 192.572 141.502 192.572C140.264 192.572 139.369 193.509 139.369 194.719ZM148.354 198H147.001V191.438H148.361V192.265C148.58 191.93 149.202 191.301 150.378 191.301C152.182 191.301 153.133 192.422 153.133 194.015V198H151.779V194.302C151.779 193.215 151.184 192.586 150.166 192.586C149.168 192.586 148.354 193.215 148.354 194.302V198ZM155.063 194.726C155.063 192.771 156.465 191.301 158.454 191.301C160.368 191.301 161.612 192.723 161.612 194.479C161.612 194.685 161.598 194.896 161.557 195.108H156.465C156.526 196.093 157.367 196.865 158.502 196.865C159.322 196.865 159.978 196.517 160.471 195.744L161.469 196.469C160.86 197.562 159.664 198.137 158.502 198.137C156.519 198.137 155.063 196.674 155.063 194.726ZM156.499 194.097H160.238C160.156 193.174 159.384 192.524 158.44 192.524C157.435 192.524 156.67 193.174 156.499 194.097ZM167.278 200.734V191.438H168.632V192.333C169.117 191.711 169.855 191.301 170.97 191.301C172.836 191.301 174.265 192.736 174.265 194.753C174.265 196.77 172.836 198.137 170.97 198.137C169.855 198.137 169.117 197.727 168.632 197.104V200.734H167.278ZM168.639 194.753C168.639 195.963 169.548 196.92 170.806 196.92C172.07 196.92 172.911 195.963 172.911 194.753C172.911 193.543 172.07 192.518 170.806 192.518C169.541 192.518 168.639 193.543 168.639 194.753ZM175.819 194.726C175.819 192.771 177.221 191.301 179.21 191.301C181.124 191.301 182.368 192.723 182.368 194.479C182.368 194.685 182.355 194.896 182.314 195.108H177.221C177.282 196.093 178.123 196.865 179.258 196.865C180.078 196.865 180.734 196.517 181.227 195.744L182.225 196.469C181.616 197.562 180.42 198.137 179.258 198.137C177.275 198.137 175.819 196.674 175.819 194.726ZM177.255 194.097H180.994C180.912 193.174 180.14 192.524 179.196 192.524C178.191 192.524 177.426 193.174 177.255 194.097ZM185.762 198H184.402V191.438H185.762V192.333C186.131 191.615 186.753 191.301 187.471 191.301C187.984 191.301 188.373 191.465 188.373 191.465L188.23 192.709C188.154 192.682 187.861 192.559 187.43 192.559C186.705 192.559 185.762 192.941 185.762 194.425V198ZM190.085 198V191.438H191.446V192.265C191.657 191.93 192.28 191.301 193.435 191.301C194.563 191.301 195.356 191.766 195.773 192.524C196.169 191.882 196.989 191.301 198.117 191.301C199.867 191.301 200.811 192.422 200.811 194.015V198H199.45V194.302C199.45 193.215 198.869 192.586 197.906 192.586C196.948 192.586 196.162 193.188 196.128 194.22V198H194.768V194.302C194.768 193.215 194.187 192.586 193.223 192.586C192.245 192.586 191.446 193.215 191.446 194.302V198H190.085ZM203.063 189.236C203.063 188.744 203.405 188.402 203.897 188.402C204.389 188.402 204.738 188.744 204.738 189.236C204.738 189.729 204.389 190.07 203.897 190.07C203.405 190.07 203.063 189.729 203.063 189.236ZM204.574 198H203.22V191.438H204.574V198ZM206.566 196.619L207.571 195.806C207.94 196.448 208.569 196.893 209.403 196.893C210.107 196.893 210.633 196.612 210.633 196.168C210.633 195.683 210.23 195.532 209.266 195.313C207.858 194.999 206.853 194.555 206.853 193.256C206.853 192.066 207.94 191.301 209.28 191.301C210.503 191.301 211.44 191.937 211.877 192.654L210.968 193.434C210.613 192.928 210.052 192.538 209.28 192.538C208.63 192.538 208.193 192.812 208.193 193.235C208.193 193.734 208.678 193.871 209.642 194.104C211.071 194.452 212 194.917 212 196.168C212 197.364 210.797 198.137 209.403 198.137C208.124 198.137 207.072 197.549 206.566 196.619ZM213.562 196.619L214.567 195.806C214.936 196.448 215.565 196.893 216.399 196.893C217.103 196.893 217.629 196.612 217.629 196.168C217.629 195.683 217.226 195.532 216.262 195.313C214.854 194.999 213.849 194.555 213.849 193.256C213.849 192.066 214.936 191.301 216.276 191.301C217.499 191.301 218.436 191.937 218.874 192.654L217.964 193.434C217.609 192.928 217.048 192.538 216.276 192.538C215.626 192.538 215.189 192.812 215.189 193.235C215.189 193.734 215.674 193.871 216.638 194.104C218.067 194.452 218.997 194.917 218.997 196.168C218.997 197.364 217.793 198.137 216.399 198.137C215.121 198.137 214.068 197.549 213.562 196.619ZM220.907 189.236C220.907 188.744 221.249 188.402 221.741 188.402C222.233 188.402 222.582 188.744 222.582 189.236C222.582 189.729 222.233 190.07 221.741 190.07C221.249 190.07 220.907 189.729 220.907 189.236ZM222.418 198H221.064V191.438H222.418V198ZM227.917 198.137C225.921 198.137 224.43 196.64 224.43 194.719C224.43 192.798 225.921 191.301 227.917 191.301C229.913 191.301 231.403 192.798 231.403 194.719C231.403 196.64 229.913 198.137 227.917 198.137ZM225.784 194.719C225.784 195.929 226.679 196.865 227.917 196.865C229.154 196.865 230.049 195.929 230.049 194.719C230.049 193.509 229.154 192.572 227.917 192.572C226.679 192.572 225.784 193.509 225.784 194.719ZM234.769 198H233.416V191.438H234.776V192.265C234.995 191.93 235.617 191.301 236.793 191.301C238.597 191.301 239.548 192.422 239.548 194.015V198H238.194V194.302C238.194 193.215 237.599 192.586 236.581 192.586C235.583 192.586 234.769 193.215 234.769 194.302V198ZM241.451 196.619L242.456 195.806C242.825 196.448 243.454 196.893 244.288 196.893C244.992 196.893 245.518 196.612 245.518 196.168C245.518 195.683 245.115 195.532 244.151 195.313C242.743 194.999 241.738 194.555 241.738 193.256C241.738 192.066 242.825 191.301 244.165 191.301C245.388 191.301 246.325 191.937 246.763 192.654L245.853 193.434C245.498 192.928 244.937 192.538 244.165 192.538C243.515 192.538 243.078 192.812 243.078 193.235C243.078 193.734 243.563 193.871 244.527 194.104C245.956 194.452 246.886 194.917 246.886 196.168C246.886 197.364 245.682 198.137 244.288 198.137C243.01 198.137 241.957 197.549 241.451 196.619ZM248.57 197.303C248.57 196.838 248.926 196.462 249.404 196.462C249.883 196.462 250.245 196.838 250.245 197.303C250.245 197.768 249.883 198.137 249.404 198.137C248.926 198.137 248.57 197.768 248.57 197.303Z" fill="white"/>
<path d="M120.199 120H116.676V105.412H124.045C126.795 105.412 129.029 107.356 129.029 110.149C129.029 112.233 127.858 113.834 126.161 114.554L129.212 120.011H125.398L122.638 114.973H120.199V120ZM120.199 108.42V111.965H123.282C124.614 111.965 125.409 111.181 125.409 110.149C125.409 109.183 124.625 108.42 123.282 108.42H120.199ZM130.871 114.844C130.871 111.707 132.976 109.473 136.081 109.473C138.616 109.473 141.237 111.062 141.237 114.511C141.237 114.887 141.205 115.295 141.14 115.714H134.179C134.319 116.831 135.393 117.357 136.457 117.357C137.381 117.357 138.208 116.777 138.766 116.079L140.915 117.97C140.131 119.216 138.509 120.215 136.414 120.215C133.137 120.215 130.871 117.98 130.871 114.844ZM136.177 112.137C134.996 112.137 134.298 112.878 134.179 113.727H138.111C138.079 112.921 137.262 112.137 136.177 112.137ZM148.815 120.215C145.625 120.215 143.379 117.916 143.379 114.844C143.379 111.771 145.732 109.473 148.922 109.473C151.168 109.473 152.897 110.719 153.713 112.233L151.103 114.092C150.716 113.146 149.9 112.588 148.922 112.588C147.633 112.588 146.731 113.565 146.731 114.844C146.731 116.154 147.633 117.132 148.922 117.132C150.136 117.132 150.824 116.283 151.178 115.66L153.735 117.529C152.661 119.227 151.017 120.215 148.815 120.215ZM155.555 114.844C155.555 111.771 157.908 109.473 161.098 109.473C164.288 109.473 166.641 111.771 166.641 114.844C166.641 117.916 164.288 120.215 161.098 120.215C157.908 120.215 155.555 117.916 155.555 114.844ZM158.907 114.844C158.907 116.154 159.809 117.132 161.098 117.132C162.387 117.132 163.289 116.154 163.289 114.844C163.289 113.565 162.387 112.588 161.098 112.588C159.809 112.588 158.907 113.565 158.907 114.844ZM172.908 120H169.525V109.688H172.715L172.823 111.095C173.306 110.074 174.326 109.473 175.519 109.473C175.927 109.473 176.346 109.548 176.776 109.688L176.572 112.642C176.142 112.491 175.701 112.416 175.272 112.416C173.993 112.416 172.908 113.114 172.908 115.037V120ZM182.871 120.215C179.96 120.215 178.059 117.938 178.059 114.865C178.059 111.771 179.96 109.473 182.871 109.473C184.429 109.473 185.396 110.021 185.997 110.772V104.875H189.284V120H186.008L185.9 119.205C185.288 119.828 184.149 120.215 182.871 120.215ZM181.464 114.844C181.464 116.219 182.452 117.186 183.741 117.186C185.009 117.186 185.943 116.219 185.943 114.844C185.943 113.458 185.009 112.502 183.741 112.502C182.441 112.502 181.464 113.415 181.464 114.844ZM201.798 120.215C199.617 120.215 197.952 119.033 197.952 117.078C197.952 115.026 199.971 113.791 202.313 113.791C203.054 113.791 203.753 113.888 204.376 114.06V113.855C204.376 113.05 203.667 112.459 202.442 112.459C201.4 112.459 200.509 112.996 199.961 113.608L198.092 111.6C198.876 110.729 200.487 109.473 202.732 109.473C205.869 109.473 207.76 111.127 207.76 113.877V120H204.548V118.947C204.021 119.656 203.022 120.215 201.798 120.215ZM201.196 116.874C201.196 117.486 201.755 117.905 202.539 117.905C203.57 117.905 204.376 117.207 204.376 116.111C204.011 115.95 203.42 115.843 202.915 115.843C201.862 115.843 201.196 116.208 201.196 116.874ZM214.94 120.322C212.996 120.322 211.127 118.958 211.127 116.498V109.688H214.51V115.531C214.51 116.681 215.423 117.229 216.24 117.229C217.088 117.229 217.959 116.681 217.959 115.531V109.688H221.342V120H218.238L218.13 119.022C217.4 119.946 216.154 120.322 214.94 120.322ZM229.06 120.215C226.149 120.215 224.248 117.938 224.248 114.865C224.248 111.771 226.149 109.473 229.06 109.473C230.618 109.473 231.584 110.021 232.186 110.772V104.875H235.473V120H232.197L232.089 119.205C231.477 119.828 230.338 120.215 229.06 120.215ZM227.653 114.844C227.653 116.219 228.641 117.186 229.93 117.186C231.198 117.186 232.132 116.219 232.132 114.844C232.132 113.458 231.198 112.502 229.93 112.502C228.63 112.502 227.653 113.415 227.653 114.844ZM238.905 106.519C238.905 105.423 239.657 104.66 240.752 104.66C241.848 104.66 242.621 105.412 242.621 106.519C242.621 107.614 241.848 108.366 240.752 108.366C239.667 108.366 238.905 107.614 238.905 106.519ZM239.119 109.688H242.503V120H239.119V109.688ZM245.376 114.844C245.376 111.771 247.729 109.473 250.919 109.473C254.109 109.473 256.462 111.771 256.462 114.844C256.462 117.916 254.109 120.215 250.919 120.215C247.729 120.215 245.376 117.916 245.376 114.844ZM248.728 114.844C248.728 116.154 249.63 117.132 250.919 117.132C252.208 117.132 253.11 116.154 253.11 114.844C253.11 113.565 252.208 112.588 250.919 112.588C249.63 112.588 248.728 113.565 248.728 114.844Z" fill="white"/>
<mask id="mask0_1178_67027" style="mask-type:alpha" maskUnits="userSpaceOnUse" x="74" y="101" width="81" height="81">
<rect x="74.0898" y="101" width="80.5106" height="80.5106" fill="#D9D9D9"/>
</mask>
<g mask="url(#mask0_1178_67027)">
<path d="M84.1773 121.329C85.9903 121.326 87.7276 120.605 89.0097 119.324C90.2916 118.042 91.012 116.304 91.0144 114.492V107.979C91.0144 105.537 89.7117 103.28 87.5957 102.059C85.4799 100.837 82.8746 100.837 80.7586 102.059C78.6427 103.28 77.3398 105.538 77.3398 107.979V114.492C77.3423 116.304 78.0626 118.042 79.3446 119.324C80.6266 120.605 82.3642 121.326 84.1773 121.329Z" fill="white"/>
<path d="M76.0173 117.556C75.8965 117.043 75.3922 116.718 74.8758 116.822C74.3593 116.925 74.0175 117.419 74.1029 117.938L74.363 119.214H74.3642C74.7061 120.91 75.623 122.435 76.9611 123.532C78.298 124.628 79.9731 125.23 81.7019 125.235H83.2V127.189H80.2698C79.7301 127.189 79.2931 127.626 79.2931 128.165C79.2931 128.704 79.7301 129.142 80.2698 129.142H88.0837C88.6233 129.142 89.0604 128.704 89.0604 128.165C89.0604 127.626 88.6233 127.189 88.0837 127.189H85.1535V125.235H86.6515C88.3816 125.232 90.0568 124.631 91.3949 123.533C92.733 122.437 93.6511 120.911 93.9942 119.216L94.2542 117.939V117.938C94.3397 117.419 93.9979 116.925 93.4814 116.822C92.9662 116.718 92.4607 117.043 92.3399 117.556L92.0798 118.833C91.8258 120.087 91.147 121.214 90.1581 122.024C89.1691 122.835 87.9299 123.28 86.6515 123.282H81.7019C80.4236 123.279 79.1844 122.835 78.1954 122.023C77.2064 121.212 76.5288 120.086 76.2761 118.832L76.0173 117.556Z" fill="white"/>
</g>
</g>
<rect x="16.5" y="16.5" width="299" height="224" rx="7.5" stroke="white" stroke-opacity="0.85"/>
</g>
<defs>
<filter id="filter0_d_1178_67027" x="-20" y="-16" width="372" height="297" filterUnits="userSpaceOnUse" color-interpolation-filters="sRGB">
<feFlood flood-opacity="0" result="BackgroundImageFix"/>
<feColorMatrix in="SourceAlpha" type="matrix" values="0 0 0 0 0 0 0 0 0 0 0 0 0 0 0 0 0 0 127 0" result="hardAlpha"/>
<feOffset dy="4"/>
<feGaussianBlur stdDeviation="18"/>
<feComposite in2="hardAlpha" operator="out"/>
<feColorMatrix type="matrix" values="0 0 0 0 0.0189427 0 0 0 0 0.25356 0 0 0 0 0.25152 0 0 0 0.36 0"/>
<feBlend mode="normal" in2="BackgroundImageFix" result="effect1_dropShadow_1178_67027"/>
<feBlend mode="normal" in="SourceGraphic" in2="effect1_dropShadow_1178_67027" result="shape"/>
</filter>
<linearGradient id="paint0_linear_1178_67027" x1="455.636" y1="316.161" x2="241.387" y2="107.299" gradientUnits="userSpaceOnUse">
<stop stop-color="#A7F2D7"/>
<stop offset="1" stop-color="#2E8D8A"/>
</linearGradient>
<linearGradient id="paint1_linear_1178_67027" x1="460.37" y1="299.541" x2="260.243" y2="87.0894" gradientUnits="userSpaceOnUse">
<stop stop-color="#A7F2D7"/>
<stop offset="1" stop-color="#2E8D8A"/>
</linearGradient>
<linearGradient id="paint2_linear_1178_67027" x1="465.325" y1="278.038" x2="281.718" y2="63.5175" gradientUnits="userSpaceOnUse">
<stop stop-color="#A7F2D7"/>
<stop offset="1" stop-color="#2E8D8A"/>
</linearGradient>
<linearGradient id="paint3_linear_1178_67027" x1="469.799" y1="248.54" x2="320.936" y2="40.1147" gradientUnits="userSpaceOnUse">
<stop stop-color="#A7F2D7"/>
<stop offset="1" stop-color="#2E8D8A"/>
</linearGradient>
<linearGradient id="paint4_linear_1178_67027" x1="470.273" y1="212.279" x2="355.415" y2="18.1908" gradientUnits="userSpaceOnUse">
<stop stop-color="#A7F2D7"/>
<stop offset="1" stop-color="#2E8D8A"/>
</linearGradient>
<linearGradient id="paint5_linear_1178_67027" x1="469.259" y1="171.098" x2="372.181" y2="-11.7465" gradientUnits="userSpaceOnUse">
<stop stop-color="#A7F2D7"/>
<stop offset="1" stop-color="#2E8D8A"/>
</linearGradient>
<linearGradient id="paint6_linear_1178_67027" x1="465.153" y1="141.502" x2="358.269" y2="-46.2762" gradientUnits="userSpaceOnUse">
<stop stop-color="#A7F2D7"/>
<stop offset="1" stop-color="#2E8D8A"/>
</linearGradient>
<linearGradient id="paint7_linear_1178_67027" x1="460.714" y1="127.326" x2="323.425" y2="-73.456" gradientUnits="userSpaceOnUse">
<stop stop-color="#A7F2D7"/>
<stop offset="1" stop-color="#2E8D8A"/>
</linearGradient>
<linearGradient id="paint8_linear_1178_67027" x1="456.388" y1="112.217" x2="303.699" y2="-91.3553" gradientUnits="userSpaceOnUse">
<stop stop-color="#A7F2D7"/>
<stop offset="1" stop-color="#2E8D8A"/>
</linearGradient>
<linearGradient id="paint9_linear_1178_67027" x1="451.539" y1="94.6659" x2="299.062" y2="-105.751" gradientUnits="userSpaceOnUse">
<stop stop-color="#A7F2D7"/>
<stop offset="1" stop-color="#2E8D8A"/>
</linearGradient>
<linearGradient id="paint10_linear_1178_67027" x1="447.599" y1="75.0777" x2="307.148" y2="-118.526" gradientUnits="userSpaceOnUse">
<stop stop-color="#A7F2D7"/>
<stop offset="1" stop-color="#2E8D8A"/>
</linearGradient>
<linearGradient id="paint11_linear_1178_67027" x1="444.665" y1="56.473" x2="311.356" y2="-130.664" gradientUnits="userSpaceOnUse">
<stop stop-color="#A7F2D7"/>
<stop offset="1" stop-color="#2E8D8A"/>
</linearGradient>
<linearGradient id="paint12_linear_1178_67027" x1="439.401" y1="41.9088" x2="296.336" y2="-142.738" gradientUnits="userSpaceOnUse">
<stop stop-color="#A7F2D7"/>
<stop offset="1" stop-color="#2E8D8A"/>
</linearGradient>
<linearGradient id="paint13_linear_1178_67027" x1="431.397" y1="28.6928" x2="265.804" y2="-151.232" gradientUnits="userSpaceOnUse">
<stop stop-color="#A7F2D7"/>
<stop offset="1" stop-color="#2E8D8A"/>
</linearGradient>
<linearGradient id="paint14_linear_1178_67027" x1="417.429" y1="16.8261" x2="234.244" y2="-148.403" gradientUnits="userSpaceOnUse">
<stop stop-color="#A7F2D7"/>
<stop offset="1" stop-color="#2E8D8A"/>
</linearGradient>
<linearGradient id="paint15_linear_1178_67027" x1="405.788" y1="-1.36673" x2="228.919" y2="-152.082" gradientUnits="userSpaceOnUse">
<stop stop-color="#A7F2D7"/>
<stop offset="1" stop-color="#2E8D8A"/>
</linearGradient>
<clipPath id="clip0_1178_67027">
<rect x="16" y="16" width="300" height="225" rx="8" fill="white"/>
</clipPath>
</defs>
</svg>
