<svg width="300" height="225" viewBox="0 0 300 225" fill="none" xmlns="http://www.w3.org/2000/svg">
<rect x="0.5" y="0.5" width="299" height="224" rx="7.5" stroke="#075454"/>
<path d="M69.5148 152V142.717H71.2169L74.423 149.32L77.6359 142.717H79.3312V152H77.882V145.349L74.9357 151.344H73.9103L70.964 145.349V152H69.5148ZM81.5559 150.134C81.5559 148.903 82.7316 148.056 84.4543 148.056C85.2404 148.056 85.8078 148.22 86.1086 148.363V148.008C86.1086 147.188 85.4455 146.572 84.4269 146.572C83.6135 146.572 82.9367 147.037 82.5471 147.481L81.6926 146.634C82.1984 145.991 83.2512 145.301 84.4475 145.301C86.2932 145.301 87.4621 146.299 87.4621 147.892V152H86.1359V151.152C85.7326 151.768 84.9738 152.137 84.092 152.137C82.6701 152.137 81.5559 151.419 81.5559 150.134ZM82.923 150.086C82.923 150.681 83.5178 151.029 84.2902 151.029C85.3566 151.029 86.1086 150.298 86.1086 149.402C85.8283 149.259 85.1994 149.088 84.4885 149.088C83.634 149.088 82.923 149.375 82.923 150.086ZM89.01 152L91.4846 148.65L89.0647 145.438H90.6233L92.3255 147.748L94.0276 145.438H95.5862L93.1663 148.65L95.6409 152H94.0823L92.3255 149.546L90.5686 152H89.01ZM102.257 142.375V152H100.904V142.375H102.257ZM104.277 148.726C104.277 146.771 105.678 145.301 107.667 145.301C109.582 145.301 110.826 146.723 110.826 148.479C110.826 148.685 110.812 148.896 110.771 149.108H105.678C105.74 150.093 106.581 150.865 107.715 150.865C108.536 150.865 109.192 150.517 109.684 149.744L110.682 150.469C110.074 151.562 108.877 152.137 107.715 152.137C105.733 152.137 104.277 150.674 104.277 148.726ZM105.712 148.097H109.452C109.37 147.174 108.597 146.524 107.654 146.524C106.649 146.524 105.883 147.174 105.712 148.097ZM114.212 152H112.859V145.438H114.219V146.265C114.438 145.93 115.06 145.301 116.236 145.301C118.041 145.301 118.991 146.422 118.991 148.015V152H117.637V148.302C117.637 147.215 117.043 146.586 116.024 146.586C115.026 146.586 114.212 147.215 114.212 148.302V152ZM124.251 152.137C122.384 152.137 120.956 150.701 120.956 148.685C120.956 146.668 122.384 145.301 124.251 145.301C125.365 145.301 126.103 145.711 126.589 146.333V145.438H127.942V151.487C127.942 153.552 126.541 154.871 124.333 154.871C123.13 154.871 122.015 154.365 121.263 153.463L122.152 152.581C122.774 153.258 123.478 153.641 124.36 153.641C125.707 153.641 126.589 152.854 126.589 151.658V151.104C126.131 151.699 125.365 152.137 124.251 152.137ZM124.415 146.518C123.15 146.518 122.309 147.475 122.309 148.685C122.309 149.895 123.15 150.92 124.415 150.92C125.679 150.92 126.582 149.895 126.582 148.685C126.582 147.475 125.673 146.518 124.415 146.518ZM130.816 146.586H129.647V145.438H130.837V143.332H132.156V145.438H134.241V146.586H132.17V149.867C132.17 150.564 132.573 150.913 133.243 150.913C133.557 150.913 133.988 150.824 134.309 150.688L134.487 151.85C134.159 152.021 133.578 152.137 133.052 152.137C131.677 152.137 130.816 151.364 130.816 150.031V146.586ZM137.539 152H136.185V142.375H137.546V146.265C137.764 145.93 138.387 145.301 139.562 145.301C141.333 145.301 142.283 146.422 142.283 148.015V152H140.93V148.302C140.93 147.215 140.335 146.586 139.35 146.586C138.352 146.586 137.539 147.215 137.539 148.302V152ZM144.515 146.142C144.515 145.677 144.87 145.301 145.349 145.301C145.827 145.301 146.189 145.677 146.189 146.142C146.189 146.606 145.827 146.976 145.349 146.976C144.87 146.976 144.515 146.606 144.515 146.142ZM144.515 151.303C144.515 150.838 144.87 150.462 145.349 150.462C145.827 150.462 146.189 150.838 146.189 151.303C146.189 151.768 145.827 152.137 145.349 152.137C144.87 152.137 144.515 151.768 144.515 151.303ZM154.884 148.767C152.915 148.767 151.63 147.57 151.63 145.731C151.63 143.77 152.977 142.58 154.973 142.58C157.495 142.58 158.548 144.569 158.548 147.023C158.548 150.018 157.283 152.137 154.399 152.137C153.476 152.137 152.703 151.925 152.088 151.508L152.573 150.291C153.12 150.64 153.735 150.824 154.303 150.824C155.827 150.824 157.024 149.751 157.085 147.673C156.648 148.397 155.841 148.767 154.884 148.767ZM155.027 143.831C153.852 143.831 153.1 144.549 153.1 145.684C153.1 146.866 153.817 147.495 155.021 147.495C156.21 147.495 156.853 146.6 156.853 145.704C156.853 144.768 156.203 143.831 155.027 143.831ZM164.02 152.137C161.757 152.137 160.315 150.271 160.315 147.358C160.315 144.453 161.757 142.58 164.02 142.58C166.282 142.58 167.718 144.453 167.718 147.358C167.718 150.271 166.282 152.137 164.02 152.137ZM164.02 143.934C162.659 143.934 161.75 145.26 161.75 147.358C161.75 149.464 162.659 150.776 164.02 150.776C165.373 150.776 166.282 149.464 166.282 147.358C166.282 145.26 165.373 143.934 164.02 143.934ZM172.981 150.619L173.986 149.806C174.355 150.448 174.984 150.893 175.818 150.893C176.522 150.893 177.048 150.612 177.048 150.168C177.048 149.683 176.645 149.532 175.681 149.313C174.273 148.999 173.268 148.555 173.268 147.256C173.268 146.066 174.355 145.301 175.695 145.301C176.918 145.301 177.855 145.937 178.292 146.654L177.383 147.434C177.028 146.928 176.467 146.538 175.695 146.538C175.045 146.538 174.608 146.812 174.608 147.235C174.608 147.734 175.093 147.871 176.057 148.104C177.486 148.452 178.415 148.917 178.415 150.168C178.415 151.364 177.212 152.137 175.818 152.137C174.539 152.137 173.487 151.549 172.981 150.619ZM180.004 148.726C180.004 146.771 181.406 145.301 183.395 145.301C185.309 145.301 186.553 146.723 186.553 148.479C186.553 148.685 186.539 148.896 186.498 149.108H181.406C181.467 150.093 182.308 150.865 183.443 150.865C184.263 150.865 184.919 150.517 185.412 149.744L186.41 150.469C185.801 151.562 184.605 152.137 183.443 152.137C181.46 152.137 180.004 150.674 180.004 148.726ZM181.44 148.097H185.179C185.097 147.174 184.325 146.524 183.381 146.524C182.376 146.524 181.611 147.174 181.44 148.097ZM191.581 152.137C189.591 152.137 188.101 150.626 188.101 148.712C188.101 146.791 189.653 145.301 191.635 145.301C192.927 145.301 194.007 145.978 194.623 147.099L193.577 147.81C193.166 147.051 192.428 146.572 191.608 146.572C190.343 146.572 189.468 147.509 189.468 148.712C189.468 149.922 190.364 150.865 191.581 150.865C192.435 150.865 193.146 150.414 193.597 149.635L194.616 150.353C194.014 151.433 192.907 152.137 191.581 152.137ZM199.459 152.137C197.462 152.137 195.972 150.64 195.972 148.719C195.972 146.798 197.462 145.301 199.459 145.301C201.455 145.301 202.945 146.798 202.945 148.719C202.945 150.64 201.455 152.137 199.459 152.137ZM197.326 148.719C197.326 149.929 198.221 150.865 199.459 150.865C200.696 150.865 201.591 149.929 201.591 148.719C201.591 147.509 200.696 146.572 199.459 146.572C198.221 146.572 197.326 147.509 197.326 148.719ZM206.311 152H204.958V145.438H206.318V146.265C206.537 145.93 207.159 145.301 208.335 145.301C210.139 145.301 211.089 146.422 211.089 148.015V152H209.736V148.302C209.736 147.215 209.141 146.586 208.123 146.586C207.125 146.586 206.311 147.215 206.311 148.302V152ZM213.027 148.685C213.027 146.668 214.456 145.301 216.322 145.301C217.436 145.301 218.175 145.711 218.66 146.333V142.375H220.013V152H218.66V151.104C218.175 151.727 217.436 152.137 216.322 152.137C214.456 152.137 213.027 150.701 213.027 148.685ZM216.486 146.518C215.221 146.518 214.381 147.475 214.381 148.685C214.381 149.895 215.221 150.92 216.486 150.92C217.751 150.92 218.653 149.895 218.653 148.685C218.653 147.475 217.744 146.518 216.486 146.518ZM222.013 150.619L223.017 149.806C223.387 150.448 224.015 150.893 224.849 150.893C225.554 150.893 226.08 150.612 226.08 150.168C226.08 149.683 225.677 149.532 224.713 149.313C223.305 148.999 222.3 148.555 222.3 147.256C222.3 146.066 223.387 145.301 224.726 145.301C225.95 145.301 226.887 145.937 227.324 146.654L226.415 147.434C226.059 146.928 225.499 146.538 224.726 146.538C224.077 146.538 223.639 146.812 223.639 147.235C223.639 147.734 224.125 147.871 225.089 148.104C226.517 148.452 227.447 148.917 227.447 150.168C227.447 151.364 226.244 152.137 224.849 152.137C223.571 152.137 222.518 151.549 222.013 150.619ZM43.8163 170.031L44.8895 169.286C45.3339 170.195 46.1884 170.845 47.4462 170.845C48.5194 170.845 49.3534 170.332 49.3534 169.519C49.3534 168.739 48.6151 168.397 47.2479 167.96C45.4843 167.393 44.0966 166.805 44.1102 165.164C44.1239 163.469 45.7235 162.58 47.2684 162.58C48.9843 162.58 50.078 163.503 50.5975 164.494L49.4833 165.273C49.0868 164.556 48.3348 163.886 47.2684 163.886C46.3866 163.886 45.5526 164.337 45.5526 165.157C45.5526 165.978 46.3114 166.196 47.6239 166.641C49.3534 167.229 50.7958 167.707 50.7958 169.505C50.7958 171.269 49.0663 172.137 47.4735 172.137C45.6552 172.137 44.3495 171.207 43.8163 170.031ZM52.7744 165.438H54.1279V169.136C54.1279 170.223 54.7226 170.852 55.7275 170.852C56.7597 170.852 57.5732 170.223 57.5732 169.136V165.438H58.9267V172H57.5664V171.173C57.3476 171.508 56.7255 172.137 55.5156 172.137C53.7246 172.137 52.7744 171.016 52.7744 169.423V165.438ZM61.4317 174.734V165.438H62.7852V166.333C63.2705 165.711 64.0088 165.301 65.1231 165.301C66.9893 165.301 68.418 166.736 68.418 168.753C68.418 170.77 66.9893 172.137 65.1231 172.137C64.0088 172.137 63.2705 171.727 62.7852 171.104V174.734H61.4317ZM62.792 168.753C62.792 169.963 63.7012 170.92 64.959 170.92C66.2237 170.92 67.0645 169.963 67.0645 168.753C67.0645 167.543 66.2237 166.518 64.959 166.518C63.6944 166.518 62.792 167.543 62.792 168.753ZM70.4513 174.734V165.438H71.8048V166.333C72.2902 165.711 73.0284 165.301 74.1427 165.301C76.0089 165.301 77.4376 166.736 77.4376 168.753C77.4376 170.77 76.0089 172.137 74.1427 172.137C73.0284 172.137 72.2902 171.727 71.8048 171.104V174.734H70.4513ZM71.8116 168.753C71.8116 169.963 72.7208 170.92 73.9786 170.92C75.2433 170.92 76.0841 169.963 76.0841 168.753C76.0841 167.543 75.2433 166.518 73.9786 166.518C72.714 166.518 71.8116 167.543 71.8116 168.753ZM82.4719 172.137C80.4758 172.137 78.9855 170.64 78.9855 168.719C78.9855 166.798 80.4758 165.301 82.4719 165.301C84.468 165.301 85.9582 166.798 85.9582 168.719C85.9582 170.64 84.468 172.137 82.4719 172.137ZM80.3391 168.719C80.3391 169.929 81.2346 170.865 82.4719 170.865C83.7092 170.865 84.6047 169.929 84.6047 168.719C84.6047 167.509 83.7092 166.572 82.4719 166.572C81.2346 166.572 80.3391 167.509 80.3391 168.719ZM89.3313 172H87.971V165.438H89.3313V166.333C89.7005 165.615 90.3225 165.301 91.0403 165.301C91.553 165.301 91.9427 165.465 91.9427 165.465L91.7991 166.709C91.7239 166.682 91.43 166.559 90.9993 166.559C90.2747 166.559 89.3313 166.941 89.3313 168.425V172ZM94.0511 166.586H92.8822V165.438H94.0716V163.332H95.391V165.438H97.4759V166.586H95.4047V169.867C95.4047 170.564 95.808 170.913 96.4779 170.913C96.7923 170.913 97.223 170.824 97.5443 170.688L97.722 171.85C97.3939 172.021 96.8129 172.137 96.2865 172.137C94.9125 172.137 94.0511 171.364 94.0511 170.031V166.586ZM98.7778 168.726C98.7778 166.771 100.179 165.301 102.168 165.301C104.082 165.301 105.327 166.723 105.327 168.479C105.327 168.685 105.313 168.896 105.272 169.108H100.179C100.241 170.093 101.081 170.865 102.216 170.865C103.037 170.865 103.693 170.517 104.185 169.744L105.183 170.469C104.575 171.562 103.378 172.137 102.216 172.137C100.234 172.137 98.7778 170.674 98.7778 168.726ZM100.213 168.097H103.953C103.871 167.174 103.098 166.524 102.155 166.524C101.15 166.524 100.384 167.174 100.213 168.097ZM106.888 168.685C106.888 166.668 108.317 165.301 110.183 165.301C111.297 165.301 112.036 165.711 112.521 166.333V162.375H113.875V172H112.521V171.104C112.036 171.727 111.297 172.137 110.183 172.137C108.317 172.137 106.888 170.701 106.888 168.685ZM110.347 166.518C109.083 166.518 108.242 167.475 108.242 168.685C108.242 169.895 109.083 170.92 110.347 170.92C111.612 170.92 112.514 169.895 112.514 168.685C112.514 167.475 111.605 166.518 110.347 166.518ZM120.505 166.586H119.267V165.438H120.525V164.727C120.525 163.209 121.468 162.238 123.068 162.238C123.649 162.238 124.039 162.416 124.155 162.478L124.011 163.599C123.827 163.517 123.471 163.428 123.13 163.428C122.248 163.428 121.838 163.852 121.838 164.802V165.438H123.772V166.586H121.858V172H120.505V166.586ZM124.859 163.236C124.859 162.744 125.201 162.402 125.693 162.402C126.185 162.402 126.534 162.744 126.534 163.236C126.534 163.729 126.185 164.07 125.693 164.07C125.201 164.07 124.859 163.729 124.859 163.236ZM125.016 172V165.438H126.37V172H125.016ZM130.221 162.375V172H128.868V162.375H130.221ZM132.241 168.726C132.241 166.771 133.642 165.301 135.632 165.301C137.546 165.301 138.79 166.723 138.79 168.479C138.79 168.685 138.776 168.896 138.735 169.108H133.642C133.704 170.093 134.545 170.865 135.68 170.865C136.5 170.865 137.156 170.517 137.648 169.744L138.646 170.469C138.038 171.562 136.842 172.137 135.68 172.137C133.697 172.137 132.241 170.674 132.241 168.726ZM133.677 168.097H137.416C137.334 167.174 136.561 166.524 135.618 166.524C134.613 166.524 133.848 167.174 133.677 168.097ZM144.853 166.586H143.684V165.438H144.873V163.332H146.192V165.438H148.277V166.586H146.206V169.867C146.206 170.564 146.609 170.913 147.279 170.913C147.594 170.913 148.024 170.824 148.346 170.688L148.523 171.85C148.195 172.021 147.614 172.137 147.088 172.137C145.714 172.137 144.853 171.364 144.853 170.031V166.586ZM152.177 172.096L149.347 165.438H150.837L152.881 170.605L154.911 165.438H156.401L153.257 172.834C152.731 174.051 152.163 174.871 150.564 174.871C149.983 174.871 149.593 174.693 149.477 174.632L149.62 173.511C149.805 173.593 150.16 173.682 150.502 173.682C151.384 173.682 151.739 173.237 152.033 172.472L152.177 172.096ZM158.025 174.734V165.438H159.378V166.333C159.863 165.711 160.602 165.301 161.716 165.301C163.582 165.301 165.011 166.736 165.011 168.753C165.011 170.77 163.582 172.137 161.716 172.137C160.602 172.137 159.863 171.727 159.378 171.104V174.734H158.025ZM159.385 168.753C159.385 169.963 160.294 170.92 161.552 170.92C162.817 170.92 163.657 169.963 163.657 168.753C163.657 167.543 162.817 166.518 161.552 166.518C160.287 166.518 159.385 167.543 159.385 168.753ZM166.566 168.726C166.566 166.771 167.967 165.301 169.956 165.301C171.87 165.301 173.115 166.723 173.115 168.479C173.115 168.685 173.101 168.896 173.06 169.108H167.967C168.029 170.093 168.869 170.865 170.004 170.865C170.824 170.865 171.481 170.517 171.973 169.744L172.971 170.469C172.363 171.562 171.166 172.137 170.004 172.137C168.022 172.137 166.566 170.674 166.566 168.726ZM168.001 168.097H171.74C171.658 167.174 170.886 166.524 169.943 166.524C168.938 166.524 168.172 167.174 168.001 168.097ZM174.642 170.619L175.647 169.806C176.016 170.448 176.645 170.893 177.479 170.893C178.183 170.893 178.709 170.612 178.709 170.168C178.709 169.683 178.306 169.532 177.342 169.313C175.934 168.999 174.929 168.555 174.929 167.256C174.929 166.066 176.016 165.301 177.356 165.301C178.579 165.301 179.516 165.937 179.953 166.654L179.044 167.434C178.689 166.928 178.128 166.538 177.356 166.538C176.706 166.538 176.269 166.812 176.269 167.235C176.269 167.734 176.754 167.871 177.718 168.104C179.147 168.452 180.076 168.917 180.076 170.168C180.076 171.364 178.873 172.137 177.479 172.137C176.201 172.137 175.148 171.549 174.642 170.619ZM181.959 166.142C181.959 165.677 182.315 165.301 182.793 165.301C183.272 165.301 183.634 165.677 183.634 166.142C183.634 166.606 183.272 166.976 182.793 166.976C182.315 166.976 181.959 166.606 181.959 166.142ZM181.959 171.303C181.959 170.838 182.315 170.462 182.793 170.462C183.272 170.462 183.634 170.838 183.634 171.303C183.634 171.768 183.272 172.137 182.793 172.137C182.315 172.137 181.959 171.768 181.959 171.303ZM189.752 172V162.717H191.454L194.66 169.32L197.873 162.717H199.568V172H198.119V165.349L195.172 171.344H194.147L191.201 165.349V172H189.752ZM203.83 172H202.394V162.724H206.209C208.123 162.724 209.36 163.906 209.36 165.629C209.36 167.331 208.123 168.541 206.209 168.541H203.83V172ZM203.83 164.029V167.229H206.147C207.275 167.229 207.863 166.518 207.863 165.629C207.863 164.727 207.275 164.029 206.147 164.029H203.83ZM210.682 170.052L211.885 169.389C212.234 170.25 212.993 170.79 213.923 170.79C214.9 170.79 215.611 170.202 215.611 169.402C215.611 168.527 214.839 167.926 213.717 167.926H212.562V166.675H213.717C214.592 166.675 215.392 166.217 215.392 165.219C215.392 164.446 214.729 163.906 213.779 163.906C212.815 163.906 212.145 164.59 211.879 165.239L210.682 164.597C211.195 163.346 212.364 162.58 213.752 162.58C215.584 162.58 216.862 163.653 216.862 165.198C216.862 166.128 216.336 166.928 215.529 167.249C216.466 167.563 217.081 168.418 217.081 169.423C217.081 170.995 215.761 172.137 213.95 172.137C212.432 172.137 211.216 171.357 210.682 170.052ZM219.251 170.271H220.673L219.579 173.798H218.383L219.251 170.271ZM225.02 162.717H226.455L228.766 170.708L231.015 162.867H232.553L234.802 170.708L237.105 162.717H238.548L235.964 172H233.646L231.78 165.123L229.921 172H227.603L225.02 162.717ZM240.314 172H238.783L242.618 162.717H244.177L248.012 172H246.48L245.742 170.065H241.053L240.314 172ZM241.483 168.869H245.312L243.397 164.323L241.483 168.869ZM251.419 172L247.844 162.717H249.341L252.274 170.469L255.206 162.717H256.703L253.128 172H251.419ZM87.0003 192V182.717H88.7024L91.9085 189.32L95.1214 182.717H96.8167V192H95.3675V185.349L92.4212 191.344H91.3958L88.4495 185.349V192H87.0003ZM99.0414 190.134C99.0414 188.903 100.217 188.056 101.94 188.056C102.726 188.056 103.293 188.22 103.594 188.363V188.008C103.594 187.188 102.931 186.572 101.912 186.572C101.099 186.572 100.422 187.037 100.033 187.481L99.1781 186.634C99.6839 185.991 100.737 185.301 101.933 185.301C103.779 185.301 104.948 186.299 104.948 187.892V192H103.621V191.152C103.218 191.768 102.459 192.137 101.577 192.137C100.156 192.137 99.0414 191.419 99.0414 190.134ZM100.409 190.086C100.409 190.681 101.003 191.029 101.776 191.029C102.842 191.029 103.594 190.298 103.594 189.402C103.314 189.259 102.685 189.088 101.974 189.088C101.119 189.088 100.409 189.375 100.409 190.086ZM106.496 192L108.97 188.65L106.55 185.438H108.109L109.811 187.748L111.513 185.438H113.072L110.652 188.65L113.126 192H111.568L109.811 189.546L108.054 192H106.496ZM118.881 186.586H117.644V185.438H118.902V184.727C118.902 183.209 119.845 182.238 121.445 182.238C122.026 182.238 122.416 182.416 122.532 182.478L122.388 183.599C122.204 183.517 121.848 183.428 121.506 183.428C120.625 183.428 120.214 183.852 120.214 184.802V185.438H122.149V186.586H120.235V192H118.881V186.586ZM123.236 183.236C123.236 182.744 123.578 182.402 124.07 182.402C124.562 182.402 124.911 182.744 124.911 183.236C124.911 183.729 124.562 184.07 124.07 184.07C123.578 184.07 123.236 183.729 123.236 183.236ZM123.393 192V185.438H124.747V192H123.393ZM128.598 182.375V192H127.245V182.375H128.598ZM130.618 188.726C130.618 186.771 132.019 185.301 134.009 185.301C135.923 185.301 137.167 186.723 137.167 188.479C137.167 188.685 137.153 188.896 137.112 189.108H132.019C132.081 190.093 132.922 190.865 134.056 190.865C134.877 190.865 135.533 190.517 136.025 189.744L137.023 190.469C136.415 191.562 135.219 192.137 134.056 192.137C132.074 192.137 130.618 190.674 130.618 188.726ZM132.053 188.097H135.793C135.711 187.174 134.938 186.524 133.995 186.524C132.99 186.524 132.224 187.174 132.053 188.097ZM142.327 190.619L143.332 189.806C143.701 190.448 144.33 190.893 145.164 190.893C145.868 190.893 146.394 190.612 146.394 190.168C146.394 189.683 145.991 189.532 145.027 189.313C143.619 188.999 142.614 188.555 142.614 187.256C142.614 186.066 143.701 185.301 145.041 185.301C146.265 185.301 147.201 185.937 147.639 186.654L146.729 187.434C146.374 186.928 145.813 186.538 145.041 186.538C144.392 186.538 143.954 186.812 143.954 187.235C143.954 187.734 144.439 187.871 145.403 188.104C146.832 188.452 147.762 188.917 147.762 190.168C147.762 191.364 146.559 192.137 145.164 192.137C143.886 192.137 142.833 191.549 142.327 190.619ZM149.672 183.236C149.672 182.744 150.014 182.402 150.506 182.402C150.998 182.402 151.347 182.744 151.347 183.236C151.347 183.729 150.998 184.07 150.506 184.07C150.014 184.07 149.672 183.729 149.672 183.236ZM151.183 192H149.829V185.438H151.183V192ZM153.209 192V190.872L156.593 186.586H153.277V185.438H158.131V186.565L154.747 190.852H158.343V192H153.209ZM159.679 188.726C159.679 186.771 161.08 185.301 163.069 185.301C164.984 185.301 166.228 186.723 166.228 188.479C166.228 188.685 166.214 188.896 166.173 189.108H161.08C161.142 190.093 161.983 190.865 163.117 190.865C163.938 190.865 164.594 190.517 165.086 189.744L166.084 190.469C165.476 191.562 164.279 192.137 163.117 192.137C161.135 192.137 159.679 190.674 159.679 188.726ZM161.114 188.097H164.854C164.772 187.174 163.999 186.524 163.056 186.524C162.051 186.524 161.285 187.174 161.114 188.097ZM168.076 186.142C168.076 185.677 168.432 185.301 168.91 185.301C169.389 185.301 169.751 185.677 169.751 186.142C169.751 186.606 169.389 186.976 168.91 186.976C168.432 186.976 168.076 186.606 168.076 186.142ZM168.076 191.303C168.076 190.838 168.432 190.462 168.91 190.462C169.389 190.462 169.751 190.838 169.751 191.303C169.751 191.768 169.389 192.137 168.91 192.137C168.432 192.137 168.076 191.768 168.076 191.303ZM176.682 192V184.016H174.912V182.717H178.118V192H176.682ZM184.123 192.137C181.86 192.137 180.417 190.271 180.417 187.358C180.417 184.453 181.86 182.58 184.123 182.58C186.385 182.58 187.821 184.453 187.821 187.358C187.821 190.271 186.385 192.137 184.123 192.137ZM184.123 183.934C182.762 183.934 181.853 185.26 181.853 187.358C181.853 189.464 182.762 190.776 184.123 190.776C185.476 190.776 186.385 189.464 186.385 187.358C186.385 185.26 185.476 183.934 184.123 183.934ZM193.754 192V182.717H195.456L198.662 189.32L201.875 182.717H203.57V192H202.121V185.349L199.174 191.344H198.149L195.203 185.349V192H193.754ZM210.676 192H206.396V182.717H210.402C212.159 182.717 213.232 183.899 213.232 185.314C213.232 186.06 212.849 186.818 212.214 187.188C213.082 187.557 213.581 188.404 213.581 189.313C213.581 190.824 212.357 192 210.676 192ZM207.839 186.668H210.402C211.257 186.668 211.783 186.046 211.783 185.349C211.783 184.679 211.298 183.995 210.402 183.995H207.839V186.668ZM207.839 187.878V190.715H210.676C211.585 190.715 212.159 190.052 212.159 189.286C212.159 188.555 211.557 187.878 210.676 187.878H207.839Z" fill="#075454"/>
<path d="M78.1484 88.4121H81.6826V97.5537C81.6826 99.1436 82.7139 100.153 84.3252 100.153C85.958 100.153 86.9785 99.1543 86.9785 97.5537V88.4121H90.5127V97.7471C90.5127 101.142 88.1709 103.215 84.3252 103.215C80.4258 103.215 78.1484 101.206 78.1484 97.7471V88.4121ZM94.1375 107.297V92.6875H97.3172L97.4246 93.7725C98.0262 93.0205 98.993 92.4727 100.551 92.4727C103.462 92.4727 105.363 94.7715 105.363 97.8652C105.363 100.938 103.462 103.215 100.551 103.215C99.2723 103.215 98.1336 102.828 97.5213 102.237V107.297H94.1375ZM99.6805 95.502C98.4129 95.502 97.4784 96.458 97.4784 97.8438C97.4784 99.2188 98.4129 100.186 99.6805 100.186C100.97 100.186 101.958 99.2188 101.958 97.8438C101.958 96.415 100.98 95.502 99.6805 95.502ZM111.652 87.875V103H108.268V87.875H111.652ZM114.525 97.8438C114.525 94.7715 116.877 92.4727 120.068 92.4727C123.258 92.4727 125.611 94.7715 125.611 97.8438C125.611 100.916 123.258 103.215 120.068 103.215C116.877 103.215 114.525 100.916 114.525 97.8438ZM117.876 97.8438C117.876 99.1543 118.779 100.132 120.068 100.132C121.357 100.132 122.259 99.1543 122.259 97.8438C122.259 96.5654 121.357 95.5879 120.068 95.5879C118.779 95.5879 117.876 96.5654 117.876 97.8438ZM131.653 103.215C129.472 103.215 127.807 102.033 127.807 100.078C127.807 98.0264 129.827 96.791 132.168 96.791C132.91 96.791 133.608 96.8877 134.231 97.0596V96.8555C134.231 96.0498 133.522 95.459 132.297 95.459C131.255 95.459 130.364 95.9961 129.816 96.6084L127.947 94.5996C128.731 93.7295 130.342 92.4727 132.587 92.4727C135.724 92.4727 137.615 94.127 137.615 96.877V103H134.403V101.947C133.876 102.656 132.877 103.215 131.653 103.215ZM131.051 99.874C131.051 100.486 131.61 100.905 132.394 100.905C133.425 100.905 134.231 100.207 134.231 99.1113C133.866 98.9502 133.275 98.8428 132.77 98.8428C131.717 98.8428 131.051 99.208 131.051 99.874ZM145.193 103.215C142.281 103.215 140.38 100.938 140.38 97.8652C140.38 94.7715 142.281 92.4727 145.193 92.4727C146.75 92.4727 147.717 93.0205 148.319 93.7725V87.875H151.606V103H148.329L148.222 102.205C147.61 102.828 146.471 103.215 145.193 103.215ZM143.785 97.8438C143.785 99.2188 144.774 100.186 146.063 100.186C147.33 100.186 148.265 99.2188 148.265 97.8438C148.265 96.458 147.33 95.502 146.063 95.502C144.763 95.502 143.785 96.415 143.785 97.8438ZM164.345 103H160.961V92.6875H164.151L164.259 94.0947C164.742 93.0742 165.763 92.4727 166.955 92.4727C167.363 92.4727 167.782 92.5479 168.212 92.6875L168.008 95.6416C167.578 95.4912 167.138 95.416 166.708 95.416C165.43 95.416 164.345 96.1143 164.345 98.0371V103ZM169.441 97.8438C169.441 94.707 171.547 92.4727 174.651 92.4727C177.186 92.4727 179.807 94.0625 179.807 97.5107C179.807 97.8867 179.775 98.2949 179.711 98.7139H172.75C172.889 99.8311 173.964 100.357 175.027 100.357C175.951 100.357 176.778 99.7773 177.337 99.0791L179.485 100.97C178.701 102.216 177.079 103.215 174.984 103.215C171.708 103.215 169.441 100.98 169.441 97.8438ZM174.748 95.1367C173.566 95.1367 172.868 95.8779 172.75 96.7266H176.681C176.649 95.9209 175.833 95.1367 174.748 95.1367ZM187.385 103.215C184.195 103.215 181.95 100.916 181.95 97.8438C181.95 94.7715 184.302 92.4727 187.493 92.4727C189.738 92.4727 191.467 93.7188 192.284 95.2334L189.673 97.0918C189.287 96.1465 188.47 95.5879 187.493 95.5879C186.204 95.5879 185.301 96.5654 185.301 97.8438C185.301 99.1543 186.204 100.132 187.493 100.132C188.707 100.132 189.394 99.2832 189.749 98.6602L192.305 100.529C191.231 102.227 189.587 103.215 187.385 103.215ZM194.125 97.8438C194.125 94.7715 196.478 92.4727 199.668 92.4727C202.859 92.4727 205.211 94.7715 205.211 97.8438C205.211 100.916 202.859 103.215 199.668 103.215C196.478 103.215 194.125 100.916 194.125 97.8438ZM197.477 97.8438C197.477 99.1543 198.379 100.132 199.668 100.132C200.957 100.132 201.86 99.1543 201.86 97.8438C201.86 96.5654 200.957 95.5879 199.668 95.5879C198.379 95.5879 197.477 96.5654 197.477 97.8438ZM211.479 103H208.095V92.6875H211.285L211.393 94.0947C211.876 93.0742 212.897 92.4727 214.089 92.4727C214.497 92.4727 214.916 92.5479 215.346 92.6875L215.142 95.6416C214.712 95.4912 214.272 95.416 213.842 95.416C212.564 95.416 211.479 96.1143 211.479 98.0371V103ZM221.441 103.215C218.53 103.215 216.629 100.938 216.629 97.8652C216.629 94.7715 218.53 92.4727 221.441 92.4727C222.999 92.4727 223.966 93.0205 224.567 93.7725V87.875H227.855V103H224.578L224.471 102.205C223.858 102.828 222.72 103.215 221.441 103.215ZM220.034 97.8438C220.034 99.2188 221.023 100.186 222.312 100.186C223.579 100.186 224.514 99.2188 224.514 97.8438C224.514 96.458 223.579 95.502 222.312 95.502C221.012 95.502 220.034 96.415 220.034 97.8438ZM231.286 89.5186C231.286 88.4229 232.038 87.6602 233.134 87.6602C234.229 87.6602 235.003 88.4121 235.003 89.5186C235.003 90.6143 234.229 91.3662 233.134 91.3662C232.049 91.3662 231.286 90.6143 231.286 89.5186ZM231.501 92.6875H234.885V103H231.501V92.6875ZM241.614 103H238.23V92.6875H241.335L241.442 93.7725C242.173 92.8486 243.419 92.4727 244.633 92.4727C246.577 92.4727 248.446 93.8369 248.446 96.2969V103H245.062V97.2637C245.062 96.1143 244.149 95.5664 243.333 95.5664C242.484 95.5664 241.614 96.1143 241.614 97.2637V103ZM250.964 105.277L252.973 103.269C253.929 104.192 254.864 104.611 256.142 104.611C257.292 104.611 258.806 104.031 258.806 102.495V101.915C258.215 102.646 257.216 103.215 255.766 103.215C253.016 103.215 250.997 100.938 250.997 97.8545C250.997 94.7715 253.016 92.4727 255.766 92.4727C257.216 92.4727 258.215 93.0527 258.806 93.7725L258.914 92.6875H262.19V102.635C262.19 106.04 259.064 107.512 256.185 107.512C253.951 107.512 252.125 106.642 250.964 105.277ZM256.572 95.4805C255.261 95.4805 254.348 96.458 254.348 97.8545C254.348 99.251 255.261 100.229 256.572 100.229C257.882 100.229 258.796 99.251 258.796 97.8545C258.796 96.458 257.882 95.4912 256.572 95.4805Z" fill="#075454"/>
<mask id="mask0_1178_67029" style="mask-type:alpha" maskUnits="userSpaceOnUse" x="34" y="82" width="82" height="81">
<rect x="34.5898" y="82" width="80.5106" height="80.5106" fill="#D9D9D9"/>
</mask>
<g mask="url(#mask0_1178_67029)">
<path d="M52.8317 93.804H50.5192V99.496C50.516 100.406 49.7722 101.143 48.8563 101.143H43.3738C42.9321 101.144 42.5098 100.972 42.198 100.662C41.8863 100.354 41.7109 99.933 41.7109 99.496V93.804H39.3919C38.6757 93.8056 38.0213 93.3943 37.7177 92.7492C37.4124 92.1025 37.513 91.3413 37.9742 90.7946L44.6924 82.8006C45.0447 82.3845 45.5644 82.1426 46.1117 82.1426C46.6589 82.1426 47.1786 82.3845 47.531 82.8006L54.2541 90.7946C54.7169 91.3413 54.816 92.1058 54.5107 92.7508C54.2054 93.3959 53.5495 93.8072 52.8317 93.804Z" fill="#075454"/>
<path d="M36.7927 104.901C36.6545 104.315 36.0783 103.943 35.4881 104.062C34.8978 104.179 34.5071 104.744 34.6048 105.337L34.902 106.796H34.9034C35.2941 108.734 36.342 110.477 37.8713 111.731C39.3992 112.984 41.3136 113.672 43.2894 113.677C45.3348 113.677 46.691 113.677 48.9461 113.677C50.9233 113.673 52.8378 112.986 54.367 111.732C55.8963 110.479 56.9456 108.735 57.3377 106.798L57.6349 105.339V105.337C57.7326 104.744 57.3419 104.179 56.7516 104.062C56.1628 103.944 55.5852 104.315 55.447 104.901L55.1498 106.36C54.8596 107.793 54.0838 109.081 52.9536 110.008C51.8233 110.934 50.4071 111.442 48.9461 111.445H43.2894C41.8285 111.442 40.4122 110.934 39.2819 110.006C38.1516 109.08 37.3773 107.792 37.0884 106.359L36.7927 104.901Z" fill="#075454"/>
</g>
</svg>
