<svg width="300" height="225" viewBox="0 0 300 225" fill="none" xmlns="http://www.w3.org/2000/svg">
<rect x="0.5" y="0.5" width="299" height="224" rx="7.5" stroke="#075454"/>
<path d="M61.9482 152.717H63.6572L66.1796 156.914L68.7089 152.717H70.4179L66.8974 158.432V162H65.4687V158.432L61.9482 152.717ZM73.7705 162.137C71.7745 162.137 70.2842 160.64 70.2842 158.719C70.2842 156.798 71.7745 155.301 73.7705 155.301C75.7666 155.301 77.2569 156.798 77.2569 158.719C77.2569 160.64 75.7666 162.137 73.7705 162.137ZM71.6377 158.719C71.6377 159.929 72.5332 160.865 73.7705 160.865C75.0079 160.865 75.9034 159.929 75.9034 158.719C75.9034 157.509 75.0079 156.572 73.7705 156.572C72.5332 156.572 71.6377 157.509 71.6377 158.719ZM79.1808 155.438H80.5343V159.136C80.5343 160.223 81.129 160.852 82.1339 160.852C83.1661 160.852 83.9796 160.223 83.9796 159.136V155.438H85.3331V162H83.9728V161.173C83.754 161.508 83.132 162.137 81.922 162.137C80.131 162.137 79.1808 161.016 79.1808 159.423V155.438ZM92.6331 162L90.6985 155.438H92.1272L93.5696 160.674L95.1009 155.506H96.5364L98.0677 160.674L99.51 155.438H100.939L99.0042 162H97.1585L95.8186 157.331L94.4788 162H92.6331ZM102.507 153.236C102.507 152.744 102.849 152.402 103.341 152.402C103.833 152.402 104.182 152.744 104.182 153.236C104.182 153.729 103.833 154.07 103.341 154.07C102.849 154.07 102.507 153.729 102.507 153.236ZM104.018 162H102.664V155.438H104.018V162ZM107.87 152.375V162H106.516V152.375H107.87ZM111.721 152.375V162H110.368V152.375H111.721ZM117.852 162V152.375H119.206V156.333C119.691 155.711 120.429 155.301 121.544 155.301C123.41 155.301 124.839 156.668 124.839 158.685C124.839 160.701 123.41 162.137 121.544 162.137C120.429 162.137 119.691 161.727 119.206 161.104V162H117.852ZM119.213 158.685C119.213 159.895 120.115 160.92 121.38 160.92C122.644 160.92 123.485 159.895 123.485 158.685C123.485 157.475 122.644 156.518 121.38 156.518C120.122 156.518 119.213 157.475 119.213 158.685ZM126.393 158.726C126.393 156.771 127.795 155.301 129.784 155.301C131.698 155.301 132.942 156.723 132.942 158.479C132.942 158.685 132.928 158.896 132.887 159.108H127.795C127.856 160.093 128.697 160.865 129.832 160.865C130.652 160.865 131.308 160.517 131.801 159.744L132.799 160.469C132.19 161.562 130.994 162.137 129.832 162.137C127.849 162.137 126.393 160.674 126.393 158.726ZM127.829 158.097H131.568C131.486 157.174 130.714 156.524 129.77 156.524C128.765 156.524 128 157.174 127.829 158.097ZM138.171 160.134C138.171 158.903 139.347 158.056 141.069 158.056C141.855 158.056 142.423 158.22 142.724 158.363V158.008C142.724 157.188 142.06 156.572 141.042 156.572C140.228 156.572 139.552 157.037 139.162 157.481L138.308 156.634C138.813 155.991 139.866 155.301 141.062 155.301C142.908 155.301 144.077 156.299 144.077 157.892V162H142.751V161.152C142.348 161.768 141.589 162.137 140.707 162.137C139.285 162.137 138.171 161.419 138.171 160.134ZM139.538 160.086C139.538 160.681 140.133 161.029 140.905 161.029C141.972 161.029 142.724 160.298 142.724 159.402C142.443 159.259 141.814 159.088 141.103 159.088C140.249 159.088 139.538 159.375 139.538 160.086ZM145.987 160.619L146.992 159.806C147.361 160.448 147.99 160.893 148.824 160.893C149.528 160.893 150.055 160.612 150.055 160.168C150.055 159.683 149.651 159.532 148.688 159.313C147.279 158.999 146.274 158.555 146.274 157.256C146.274 156.066 147.361 155.301 148.701 155.301C149.925 155.301 150.861 155.937 151.299 156.654L150.39 157.434C150.034 156.928 149.474 156.538 148.701 156.538C148.052 156.538 147.614 156.812 147.614 157.235C147.614 157.734 148.1 157.871 149.063 158.104C150.492 158.452 151.422 158.917 151.422 160.168C151.422 161.364 150.219 162.137 148.824 162.137C147.546 162.137 146.493 161.549 145.987 160.619ZM153.489 152.375H154.857V158.288L157.721 155.438H159.58L156.757 158.186L159.69 162H157.974L155.773 159.136L154.857 160.052V162H153.489V152.375ZM160.403 158.726C160.403 156.771 161.805 155.301 163.794 155.301C165.708 155.301 166.952 156.723 166.952 158.479C166.952 158.685 166.939 158.896 166.898 159.108H161.805C161.866 160.093 162.707 160.865 163.842 160.865C164.662 160.865 165.319 160.517 165.811 159.744L166.809 160.469C166.2 161.562 165.004 162.137 163.842 162.137C161.86 162.137 160.403 160.674 160.403 158.726ZM161.839 158.097H165.578C165.496 157.174 164.724 156.524 163.78 156.524C162.776 156.524 162.01 157.174 161.839 158.097ZM168.514 158.685C168.514 156.668 169.943 155.301 171.809 155.301C172.923 155.301 173.661 155.711 174.147 156.333V152.375H175.5V162H174.147V161.104C173.661 161.727 172.923 162.137 171.809 162.137C169.943 162.137 168.514 160.701 168.514 158.685ZM171.973 156.518C170.708 156.518 169.867 157.475 169.867 158.685C169.867 159.895 170.708 160.92 171.973 160.92C173.238 160.92 174.14 159.895 174.14 158.685C174.14 157.475 173.231 156.518 171.973 156.518ZM182.035 156.586H180.866V155.438H182.055V153.332H183.374V155.438H185.459V156.586H183.388V159.867C183.388 160.564 183.791 160.913 184.461 160.913C184.776 160.913 185.206 160.824 185.528 160.688L185.705 161.85C185.377 162.021 184.796 162.137 184.27 162.137C182.896 162.137 182.035 161.364 182.035 160.031V156.586ZM190.241 162.137C188.245 162.137 186.754 160.64 186.754 158.719C186.754 156.798 188.245 155.301 190.241 155.301C192.237 155.301 193.727 156.798 193.727 158.719C193.727 160.64 192.237 162.137 190.241 162.137ZM188.108 158.719C188.108 159.929 189.003 160.865 190.241 160.865C191.478 160.865 192.374 159.929 192.374 158.719C192.374 157.509 191.478 156.572 190.241 156.572C189.003 156.572 188.108 157.509 188.108 158.719ZM202.223 162.137C200.357 162.137 198.928 160.701 198.928 158.685C198.928 156.668 200.357 155.301 202.223 155.301C203.338 155.301 204.076 155.711 204.561 156.333V155.438H205.915V161.487C205.915 163.552 204.513 164.871 202.305 164.871C201.102 164.871 199.988 164.365 199.236 163.463L200.125 162.581C200.747 163.258 201.451 163.641 202.333 163.641C203.679 163.641 204.561 162.854 204.561 161.658V161.104C204.103 161.699 203.338 162.137 202.223 162.137ZM202.387 156.518C201.123 156.518 200.282 157.475 200.282 158.685C200.282 159.895 201.123 160.92 202.387 160.92C203.652 160.92 204.554 159.895 204.554 158.685C204.554 157.475 203.645 156.518 202.387 156.518ZM209.753 162H208.392V155.438H209.753V156.333C210.122 155.615 210.744 155.301 211.462 155.301C211.974 155.301 212.364 155.465 212.364 155.465L212.22 156.709C212.145 156.682 211.851 156.559 211.421 156.559C210.696 156.559 209.753 156.941 209.753 158.425V162ZM213.433 160.134C213.433 158.903 214.609 158.056 216.332 158.056C217.118 158.056 217.685 158.22 217.986 158.363V158.008C217.986 157.188 217.323 156.572 216.305 156.572C215.491 156.572 214.814 157.037 214.425 157.481L213.57 156.634C214.076 155.991 215.129 155.301 216.325 155.301C218.171 155.301 219.34 156.299 219.34 157.892V162H218.013V161.152C217.61 161.768 216.851 162.137 215.97 162.137C214.548 162.137 213.433 161.419 213.433 160.134ZM214.801 160.086C214.801 160.681 215.395 161.029 216.168 161.029C217.234 161.029 217.986 160.298 217.986 159.402C217.706 159.259 217.077 159.088 216.366 159.088C215.512 159.088 214.801 159.375 214.801 160.086ZM223.109 162H221.756V155.438H223.116V156.265C223.335 155.93 223.957 155.301 225.133 155.301C226.937 155.301 227.888 156.422 227.888 158.015V162H226.534V158.302C226.534 157.215 225.939 156.586 224.921 156.586C223.923 156.586 223.109 157.215 223.109 158.302V162ZM230.611 156.586H229.442V155.438H230.632V153.332H231.951V155.438H234.036V156.586H231.965V159.867C231.965 160.564 232.368 160.913 233.038 160.913C233.353 160.913 233.783 160.824 234.104 160.688L234.282 161.85C233.954 162.021 233.373 162.137 232.847 162.137C231.473 162.137 230.611 161.364 230.611 160.031V156.586ZM66.131 182V175.438H67.4913V176.265C67.7032 175.93 68.3253 175.301 69.4806 175.301C70.6085 175.301 71.4015 175.766 71.8185 176.524C72.215 175.882 73.0353 175.301 74.1632 175.301C75.9132 175.301 76.8566 176.422 76.8566 178.015V182H75.4962V178.302C75.4962 177.215 74.9152 176.586 73.9513 176.586C72.9943 176.586 72.2081 177.188 72.1739 178.22V182H70.8136V178.302C70.8136 177.215 70.2325 176.586 69.2687 176.586C68.2911 176.586 67.4913 177.215 67.4913 178.302V182H66.131ZM79.1086 173.236C79.1086 172.744 79.4504 172.402 79.9426 172.402C80.4348 172.402 80.7834 172.744 80.7834 173.236C80.7834 173.729 80.4348 174.07 79.9426 174.07C79.4504 174.07 79.1086 173.729 79.1086 173.236ZM80.6193 182H79.2658V175.438H80.6193V182ZM86.1116 182.137C84.1223 182.137 82.6321 180.626 82.6321 178.712C82.6321 176.791 84.1839 175.301 86.1663 175.301C87.4583 175.301 88.5384 175.978 89.1536 177.099L88.1077 177.81C87.6975 177.051 86.9593 176.572 86.1389 176.572C84.8743 176.572 83.9993 177.509 83.9993 178.712C83.9993 179.922 84.8948 180.865 86.1116 180.865C86.9661 180.865 87.677 180.414 88.1282 179.635L89.1468 180.353C88.5452 181.433 87.4378 182.137 86.1116 182.137ZM92.4037 182H91.0433V175.438H92.4037V176.333C92.7728 175.615 93.3949 175.301 94.1127 175.301C94.6254 175.301 95.015 175.465 95.015 175.465L94.8714 176.709C94.7962 176.682 94.5023 176.559 94.0716 176.559C93.347 176.559 92.4037 176.941 92.4037 178.425V182ZM99.4682 182.137C97.4721 182.137 95.9819 180.64 95.9819 178.719C95.9819 176.798 97.4721 175.301 99.4682 175.301C101.464 175.301 102.955 176.798 102.955 178.719C102.955 180.64 101.464 182.137 99.4682 182.137ZM97.3354 178.719C97.3354 179.929 98.2309 180.865 99.4682 180.865C100.706 180.865 101.601 179.929 101.601 178.719C101.601 177.509 100.706 176.572 99.4682 176.572C98.2309 176.572 97.3354 177.509 97.3354 178.719ZM104.967 184.734V175.438H106.321V176.333C106.806 175.711 107.544 175.301 108.659 175.301C110.525 175.301 111.954 176.736 111.954 178.753C111.954 180.77 110.525 182.137 108.659 182.137C107.544 182.137 106.806 181.727 106.321 181.104V184.734H104.967ZM106.328 178.753C106.328 179.963 107.237 180.92 108.495 180.92C109.759 180.92 110.6 179.963 110.6 178.753C110.6 177.543 109.759 176.518 108.495 176.518C107.23 176.518 106.328 177.543 106.328 178.753ZM115.34 182H113.987V172.375H115.347V176.265C115.566 175.93 116.188 175.301 117.364 175.301C119.134 175.301 120.085 176.422 120.085 178.015V182H118.731V178.302C118.731 177.215 118.136 176.586 117.152 176.586C116.154 176.586 115.34 177.215 115.34 178.302V182ZM125.502 182.137C123.506 182.137 122.015 180.64 122.015 178.719C122.015 176.798 123.506 175.301 125.502 175.301C127.498 175.301 128.988 176.798 128.988 178.719C128.988 180.64 127.498 182.137 125.502 182.137ZM123.369 178.719C123.369 179.929 124.264 180.865 125.502 180.865C126.739 180.865 127.634 179.929 127.634 178.719C127.634 177.509 126.739 176.572 125.502 176.572C124.264 176.572 123.369 177.509 123.369 178.719ZM132.354 182H131.001V175.438H132.361V176.265C132.58 175.93 133.202 175.301 134.378 175.301C136.182 175.301 137.133 176.422 137.133 178.015V182H135.779V178.302C135.779 177.215 135.184 176.586 134.166 176.586C133.168 176.586 132.354 177.215 132.354 178.302V182ZM139.063 178.726C139.063 176.771 140.465 175.301 142.454 175.301C144.368 175.301 145.612 176.723 145.612 178.479C145.612 178.685 145.598 178.896 145.557 179.108H140.465C140.526 180.093 141.367 180.865 142.502 180.865C143.322 180.865 143.978 180.517 144.471 179.744L145.469 180.469C144.86 181.562 143.664 182.137 142.502 182.137C140.519 182.137 139.063 180.674 139.063 178.726ZM140.499 178.097H144.238C144.156 177.174 143.384 176.524 142.44 176.524C141.435 176.524 140.67 177.174 140.499 178.097ZM151.278 184.734V175.438H152.632V176.333C153.117 175.711 153.855 175.301 154.97 175.301C156.836 175.301 158.265 176.736 158.265 178.753C158.265 180.77 156.836 182.137 154.97 182.137C153.855 182.137 153.117 181.727 152.632 181.104V184.734H151.278ZM152.639 178.753C152.639 179.963 153.548 180.92 154.806 180.92C156.07 180.92 156.911 179.963 156.911 178.753C156.911 177.543 156.07 176.518 154.806 176.518C153.541 176.518 152.639 177.543 152.639 178.753ZM159.819 178.726C159.819 176.771 161.221 175.301 163.21 175.301C165.124 175.301 166.368 176.723 166.368 178.479C166.368 178.685 166.355 178.896 166.314 179.108H161.221C161.282 180.093 162.123 180.865 163.258 180.865C164.078 180.865 164.734 180.517 165.227 179.744L166.225 180.469C165.616 181.562 164.42 182.137 163.258 182.137C161.275 182.137 159.819 180.674 159.819 178.726ZM161.255 178.097H164.994C164.912 177.174 164.14 176.524 163.196 176.524C162.191 176.524 161.426 177.174 161.255 178.097ZM169.762 182H168.402V175.438H169.762V176.333C170.131 175.615 170.753 175.301 171.471 175.301C171.984 175.301 172.373 175.465 172.373 175.465L172.23 176.709C172.154 176.682 171.861 176.559 171.43 176.559C170.705 176.559 169.762 176.941 169.762 178.425V182ZM174.085 182V175.438H175.446V176.265C175.657 175.93 176.28 175.301 177.435 175.301C178.563 175.301 179.356 175.766 179.773 176.524C180.169 175.882 180.989 175.301 182.117 175.301C183.867 175.301 184.811 176.422 184.811 178.015V182H183.45V178.302C183.45 177.215 182.869 176.586 181.906 176.586C180.948 176.586 180.162 177.188 180.128 178.22V182H178.768V178.302C178.768 177.215 178.187 176.586 177.223 176.586C176.245 176.586 175.446 177.215 175.446 178.302V182H174.085ZM187.063 173.236C187.063 172.744 187.405 172.402 187.897 172.402C188.389 172.402 188.738 172.744 188.738 173.236C188.738 173.729 188.389 174.07 187.897 174.07C187.405 174.07 187.063 173.729 187.063 173.236ZM188.574 182H187.22V175.438H188.574V182ZM190.566 180.619L191.571 179.806C191.94 180.448 192.569 180.893 193.403 180.893C194.107 180.893 194.633 180.612 194.633 180.168C194.633 179.683 194.23 179.532 193.266 179.313C191.858 178.999 190.853 178.555 190.853 177.256C190.853 176.066 191.94 175.301 193.28 175.301C194.503 175.301 195.44 175.937 195.877 176.654L194.968 177.434C194.613 176.928 194.052 176.538 193.28 176.538C192.63 176.538 192.193 176.812 192.193 177.235C192.193 177.734 192.678 177.871 193.642 178.104C195.071 178.452 196 178.917 196 180.168C196 181.364 194.797 182.137 193.403 182.137C192.124 182.137 191.072 181.549 190.566 180.619ZM197.562 180.619L198.567 179.806C198.936 180.448 199.565 180.893 200.399 180.893C201.103 180.893 201.629 180.612 201.629 180.168C201.629 179.683 201.226 179.532 200.262 179.313C198.854 178.999 197.849 178.555 197.849 177.256C197.849 176.066 198.936 175.301 200.276 175.301C201.499 175.301 202.436 175.937 202.874 176.654L201.964 177.434C201.609 176.928 201.048 176.538 200.276 176.538C199.626 176.538 199.189 176.812 199.189 177.235C199.189 177.734 199.674 177.871 200.638 178.104C202.067 178.452 202.997 178.917 202.997 180.168C202.997 181.364 201.793 182.137 200.399 182.137C199.121 182.137 198.068 181.549 197.562 180.619ZM204.907 173.236C204.907 172.744 205.249 172.402 205.741 172.402C206.233 172.402 206.582 172.744 206.582 173.236C206.582 173.729 206.233 174.07 205.741 174.07C205.249 174.07 204.907 173.729 204.907 173.236ZM206.418 182H205.064V175.438H206.418V182ZM211.917 182.137C209.921 182.137 208.43 180.64 208.43 178.719C208.43 176.798 209.921 175.301 211.917 175.301C213.913 175.301 215.403 176.798 215.403 178.719C215.403 180.64 213.913 182.137 211.917 182.137ZM209.784 178.719C209.784 179.929 210.679 180.865 211.917 180.865C213.154 180.865 214.049 179.929 214.049 178.719C214.049 177.509 213.154 176.572 211.917 176.572C210.679 176.572 209.784 177.509 209.784 178.719ZM218.769 182H217.416V175.438H218.776V176.265C218.995 175.93 219.617 175.301 220.793 175.301C222.597 175.301 223.548 176.422 223.548 178.015V182H222.194V178.302C222.194 177.215 221.599 176.586 220.581 176.586C219.583 176.586 218.769 177.215 218.769 178.302V182ZM225.451 180.619L226.456 179.806C226.825 180.448 227.454 180.893 228.288 180.893C228.992 180.893 229.518 180.612 229.518 180.168C229.518 179.683 229.115 179.532 228.151 179.313C226.743 178.999 225.738 178.555 225.738 177.256C225.738 176.066 226.825 175.301 228.165 175.301C229.388 175.301 230.325 175.937 230.763 176.654L229.853 177.434C229.498 176.928 228.937 176.538 228.165 176.538C227.515 176.538 227.078 176.812 227.078 177.235C227.078 177.734 227.563 177.871 228.527 178.104C229.956 178.452 230.886 178.917 230.886 180.168C230.886 181.364 229.682 182.137 228.288 182.137C227.01 182.137 225.957 181.549 225.451 180.619ZM232.57 181.303C232.57 180.838 232.926 180.462 233.404 180.462C233.883 180.462 234.245 180.838 234.245 181.303C234.245 181.768 233.883 182.137 233.404 182.137C232.926 182.137 232.57 181.768 232.57 181.303Z" fill="#075454"/>
<path d="M105.641 103H102.117V88.4121H109.486C112.236 88.4121 114.471 90.3564 114.471 93.1494C114.471 95.2334 113.3 96.834 111.602 97.5537L114.653 103.011H110.84L108.079 97.9727H105.641V103ZM105.641 91.4199V94.9648H108.724C110.056 94.9648 110.85 94.1807 110.85 93.1494C110.85 92.1826 110.066 91.4199 108.724 91.4199H105.641ZM116.312 97.8438C116.312 94.707 118.418 92.4727 121.522 92.4727C124.057 92.4727 126.678 94.0625 126.678 97.5107C126.678 97.8867 126.646 98.2949 126.582 98.7139H119.621C119.76 99.8311 120.835 100.357 121.898 100.357C122.822 100.357 123.649 99.7773 124.208 99.0791L126.356 100.97C125.572 102.216 123.95 103.215 121.855 103.215C118.579 103.215 116.312 100.98 116.312 97.8438ZM121.619 95.1367C120.437 95.1367 119.739 95.8779 119.621 96.7266H123.552C123.52 95.9209 122.704 95.1367 121.619 95.1367ZM134.256 103.215C131.066 103.215 128.821 100.916 128.821 97.8438C128.821 94.7715 131.173 92.4727 134.364 92.4727C136.609 92.4727 138.338 93.7188 139.155 95.2334L136.544 97.0918C136.158 96.1465 135.341 95.5879 134.364 95.5879C133.075 95.5879 132.172 96.5654 132.172 97.8438C132.172 99.1543 133.075 100.132 134.364 100.132C135.578 100.132 136.265 99.2832 136.62 98.6602L139.176 100.529C138.102 102.227 136.459 103.215 134.256 103.215ZM140.996 97.8438C140.996 94.7715 143.349 92.4727 146.539 92.4727C149.73 92.4727 152.082 94.7715 152.082 97.8438C152.082 100.916 149.73 103.215 146.539 103.215C143.349 103.215 140.996 100.916 140.996 97.8438ZM144.348 97.8438C144.348 99.1543 145.25 100.132 146.539 100.132C147.829 100.132 148.731 99.1543 148.731 97.8438C148.731 96.5654 147.829 95.5879 146.539 95.5879C145.25 95.5879 144.348 96.5654 144.348 97.8438ZM158.35 103H154.966V92.6875H158.156L158.264 94.0947C158.747 93.0742 159.768 92.4727 160.96 92.4727C161.368 92.4727 161.787 92.5479 162.217 92.6875L162.013 95.6416C161.583 95.4912 161.143 95.416 160.713 95.416C159.435 95.416 158.35 96.1143 158.35 98.0371V103ZM168.313 103.215C165.401 103.215 163.5 100.938 163.5 97.8652C163.5 94.7715 165.401 92.4727 168.313 92.4727C169.87 92.4727 170.837 93.0205 171.439 93.7725V87.875H174.726V103H171.449L171.342 102.205C170.73 102.828 169.591 103.215 168.313 103.215ZM166.905 97.8438C166.905 99.2188 167.894 100.186 169.183 100.186C170.45 100.186 171.385 99.2188 171.385 97.8438C171.385 96.458 170.45 95.502 169.183 95.502C167.883 95.502 166.905 96.415 166.905 97.8438ZM187.239 103.215C185.058 103.215 183.393 102.033 183.393 100.078C183.393 98.0264 185.413 96.791 187.755 96.791C188.496 96.791 189.194 96.8877 189.817 97.0596V96.8555C189.817 96.0498 189.108 95.459 187.884 95.459C186.842 95.459 185.95 95.9961 185.402 96.6084L183.533 94.5996C184.317 93.7295 185.928 92.4727 188.174 92.4727C191.31 92.4727 193.201 94.127 193.201 96.877V103H189.989V101.947C189.463 102.656 188.464 103.215 187.239 103.215ZM186.637 99.874C186.637 100.486 187.196 100.905 187.98 100.905C189.011 100.905 189.817 100.207 189.817 99.1113C189.452 98.9502 188.861 98.8428 188.356 98.8428C187.303 98.8428 186.637 99.208 186.637 99.874ZM200.381 103.322C198.437 103.322 196.568 101.958 196.568 99.498V92.6875H199.952V98.5312C199.952 99.6807 200.865 100.229 201.681 100.229C202.53 100.229 203.4 99.6807 203.4 98.5312V92.6875H206.784V103H203.679L203.572 102.022C202.841 102.946 201.595 103.322 200.381 103.322ZM214.501 103.215C211.59 103.215 209.689 100.938 209.689 97.8652C209.689 94.7715 211.59 92.4727 214.501 92.4727C216.059 92.4727 217.026 93.0205 217.627 93.7725V87.875H220.914V103H217.638L217.531 102.205C216.918 102.828 215.78 103.215 214.501 103.215ZM213.094 97.8438C213.094 99.2188 214.082 100.186 215.372 100.186C216.639 100.186 217.574 99.2188 217.574 97.8438C217.574 96.458 216.639 95.502 215.372 95.502C214.072 95.502 213.094 96.415 213.094 97.8438ZM224.346 89.5186C224.346 88.4229 225.098 87.6602 226.194 87.6602C227.289 87.6602 228.063 88.4121 228.063 89.5186C228.063 90.6143 227.289 91.3662 226.194 91.3662C225.109 91.3662 224.346 90.6143 224.346 89.5186ZM224.561 92.6875H227.945V103H224.561V92.6875ZM230.818 97.8438C230.818 94.7715 233.17 92.4727 236.36 92.4727C239.551 92.4727 241.903 94.7715 241.903 97.8438C241.903 100.916 239.551 103.215 236.36 103.215C233.17 103.215 230.818 100.916 230.818 97.8438ZM234.169 97.8438C234.169 99.1543 235.071 100.132 236.36 100.132C237.65 100.132 238.552 99.1543 238.552 97.8438C238.552 96.5654 237.65 95.5879 236.36 95.5879C235.071 95.5879 234.169 96.5654 234.169 97.8438Z" fill="#075454"/>
<mask id="mask0_1178_67028" style="mask-type:alpha" maskUnits="userSpaceOnUse" x="59" y="84" width="82" height="81">
<rect x="59.5312" y="84" width="80.5106" height="80.5106" fill="#D9D9D9"/>
</mask>
<g mask="url(#mask0_1178_67028)">
<path d="M69.6187 104.329C71.4317 104.326 73.169 103.605 74.4511 102.324C75.733 101.042 76.4534 99.3035 76.4558 97.4917V90.9793C76.4558 88.5375 75.1531 86.28 73.0371 85.0592C70.9213 83.837 68.316 83.837 66.2 85.0592C64.0841 86.2801 62.7812 88.5376 62.7812 90.9793V97.4917C62.7837 99.3035 63.504 101.042 64.786 102.324C66.068 103.605 67.8056 104.326 69.6187 104.329Z" fill="#075454"/>
<path d="M61.4587 100.556C61.3379 100.043 60.8336 99.7183 60.3172 99.822C59.8008 99.9246 59.4589 100.419 59.5443 100.938L59.8044 102.214H59.8056C60.1475 103.91 61.0644 105.435 62.4025 106.532C63.7394 107.628 65.4145 108.23 67.1433 108.235H68.6414V110.189H65.7112C65.1715 110.189 64.7345 110.626 64.7345 111.165C64.7345 111.704 65.1715 112.142 65.7112 112.142H73.5251C74.0647 112.142 74.5018 111.704 74.5018 111.165C74.5018 110.626 74.0647 110.189 73.5251 110.189H70.5949V108.235H72.0929C73.823 108.232 75.4982 107.631 76.8363 106.533C78.1744 105.437 79.0925 103.911 79.4356 102.216L79.6957 100.939V100.938C79.7811 100.419 79.4393 99.9246 78.9228 99.8221C78.4076 99.7183 77.9021 100.043 77.7813 100.556L77.5212 101.833C77.2673 103.087 76.5884 104.214 75.5995 105.024C74.6105 105.835 73.3713 106.28 72.0929 106.282H67.1433C65.865 106.279 64.6258 105.835 63.6368 105.023C62.6478 104.212 61.9702 103.086 61.7175 101.832L61.4587 100.556Z" fill="#075454"/>
</g>
</svg>
