<svg width="332" height="281" viewBox="0 0 332 281" fill="none" xmlns="http://www.w3.org/2000/svg">
<g filter="url(#filter0_d_1178_67030)">
<g clip-path="url(#clip0_1178_67030)">
<rect x="16" y="16" width="300" height="225" rx="8" fill="#027373"/>
<g opacity="0.12">
<path d="M521.87 308.259C518.832 310.032 515.54 311.551 512.502 313.323C488.194 326.49 462.874 340.163 436.794 349.278C418.057 355.862 401.598 358.9 386.406 358.9C368.681 358.9 351.97 354.343 336.018 345.227C329.435 341.429 322.598 337.125 315.256 332.061C304.874 324.718 294.746 316.868 284.111 308.259C257.018 286.737 228.913 264.455 196.249 254.58C192.451 253.314 189.413 252.808 187.134 252.554C185.361 252.301 183.589 252.301 182.07 252.301C175.486 252.301 170.169 253.567 164.852 256.859C162.067 258.631 159.788 260.91 157.763 263.189C155.484 265.721 152.952 268.506 149.407 270.026C146.621 271.292 143.33 271.798 140.038 271.798C135.481 271.798 130.67 270.785 125.352 268.506C116.997 265.215 108.894 259.897 102.31 255.593C100.791 254.58 99.5253 253.82 98.0061 252.808C90.1567 247.997 82.3074 242.426 73.9517 236.349L73.4454 236.096C71.1665 234.577 68.8878 232.804 66.609 231.285C66.8622 232.298 67.1151 233.564 67.6215 234.577C69.1408 235.843 70.913 236.856 72.4322 238.122L72.6856 238.375C81.0414 244.199 89.1442 249.769 96.9935 254.833C98.2595 255.593 99.7786 256.606 101.298 257.618C107.881 261.923 116.237 267.24 124.846 270.785C130.67 273.064 135.734 274.077 140.545 274.077C144.089 274.077 147.634 273.317 150.673 272.051C154.471 270.279 157.256 267.493 159.788 264.708C161.813 262.429 163.839 260.404 166.371 258.631C171.182 255.846 175.993 254.58 182.323 254.58C183.842 254.58 185.361 254.58 187.134 254.833C189.413 255.086 192.198 255.593 195.743 256.606C228.153 266.227 256.006 288.509 283.099 309.779C293.733 318.134 303.861 326.237 314.242 333.58C321.585 338.644 328.675 343.202 335.258 347C351.464 356.115 367.922 360.673 385.899 360.926C401.598 361.179 418.563 357.887 438.06 351.051C464.14 341.936 489.46 328.262 514.021 314.843L514.781 314.589C517.819 313.07 520.604 311.551 523.643 309.779C553.774 293.573 581.12 283.952 607.959 279.901C608.466 279.141 608.719 278.128 608.973 277.368C600.87 278.381 592.515 280.154 584.412 282.433C564.409 288.003 544.152 296.359 521.87 308.259Z" fill="url(#paint0_linear_1178_67030)" fill-opacity="0.4"/>
<path d="M516.301 290.281L515.795 290.535C485.41 304.714 454.266 319.653 422.109 329.275C405.904 334.339 388.433 338.897 371.215 338.897C354.503 338.897 340.577 334.592 328.424 325.73C322.347 321.426 316.27 315.855 311.459 311.551C290.19 292.307 271.706 277.368 253.475 264.961C231.193 249.769 209.924 238.628 188.401 231.032C184.35 229.512 180.299 228.5 176.754 227.993C171.437 226.98 166.879 226.474 162.068 226.474C157.511 226.474 153.459 226.98 149.661 228.246C145.103 229.766 141.559 232.298 138.267 234.83C135.988 236.602 133.71 238.375 131.178 239.641C126.367 242.173 121.302 243.439 116.238 243.439C104.844 243.439 93.7033 237.615 82.309 231.032C76.2321 227.487 70.1553 223.689 64.0784 220.144C64.3317 221.157 64.5844 222.169 64.8376 223.182C70.1549 226.474 75.7254 229.766 81.2958 233.057C89.3984 237.615 97.5014 242.173 105.857 244.198C109.402 245.211 112.947 245.717 116.238 245.717C121.809 245.717 127.126 244.451 132.444 241.666C135.229 240.147 137.761 238.375 140.04 236.602C143.331 234.07 146.37 231.791 150.674 230.525C154.219 229.512 158.017 228.753 162.321 228.753C166.879 228.753 171.437 229.259 176.501 230.272C180.046 230.778 184.097 232.044 187.895 233.31C237.523 251.035 279.302 285.217 310.446 313.323C315.257 317.627 321.334 323.198 327.411 327.756C340.071 336.871 354.504 341.429 371.468 341.429C372.228 341.429 373.241 341.429 374 341.429C390.712 340.922 408.183 336.365 423.122 331.807C455.279 321.932 486.676 307.246 517.061 292.814L517.567 292.56C549.977 277.368 581.881 263.442 615.811 260.657C616.064 259.897 616.317 259.137 616.57 258.378C604.417 259.391 591.756 261.669 578.59 265.467C556.814 271.544 535.798 280.913 516.301 290.281Z" fill="url(#paint1_linear_1178_67030)" fill-opacity="0.4"/>
<path d="M519.849 263.945C493.516 277.365 458.321 294.077 422.366 304.965C404.388 310.282 387.17 315.093 369.699 314.84C354.254 314.586 343.366 308.003 331.718 297.875C326.908 293.57 322.097 289.013 317.286 284.455L315.513 282.683C298.295 266.478 279.052 253.058 256.77 241.157C238.033 231.282 217.017 222.673 190.177 213.811C185.113 212.039 181.315 211.026 177.77 210.013C168.402 207.734 159.792 205.708 150.93 205.708C149.917 205.708 148.905 205.708 147.892 205.708C140.296 206.215 133.966 208.494 127.129 211.026C123.584 212.292 120.04 213.811 116.495 214.824C110.924 216.343 105.86 217.103 100.796 217.103C91.1745 217.103 81.2994 214.317 69.652 208.747C67.1199 207.481 64.3343 205.962 61.0427 204.442C61.2958 205.455 61.2964 206.215 61.5496 207.228C64.0816 208.494 66.3599 209.76 68.6388 210.772C77.5009 215.077 84.844 217.609 92.1869 218.622C94.9722 219.128 98.011 219.382 100.796 219.382C106.114 219.382 111.431 218.622 117.001 217.103C120.799 216.09 124.344 214.571 127.889 213.305C134.472 210.773 140.802 208.494 147.892 207.987C148.905 207.987 149.918 207.987 150.677 207.987C159.286 207.987 167.642 209.76 177.01 212.039C180.555 212.798 184.354 214.064 189.418 215.583C229.171 228.75 275 247.234 313.741 283.949L315.513 285.721C320.324 290.279 325.135 294.836 329.946 299.141C341.847 309.522 353.241 316.612 369.446 316.865C369.699 316.865 370.206 316.865 370.459 316.865C387.93 316.865 405.148 312.054 422.872 306.737C459.08 295.849 494.022 279.138 520.609 265.465C554.538 248.247 587.961 232.801 624.17 231.535C624.423 230.776 624.423 230.016 624.676 229.257C610.75 229.763 596.57 232.042 581.378 236.853C560.108 243.942 539.346 254.07 519.849 263.945Z" fill="url(#paint2_linear_1178_67030)" fill-opacity="0.4"/>
<path d="M589.48 202.168C567.198 208.498 545.169 219.386 526.432 229.008C498.073 243.693 464.144 259.898 428.695 270.28C410.718 275.597 392.993 280.155 375.775 279.395C361.09 278.889 350.202 272.052 338.554 261.671C336.276 259.645 333.997 257.62 331.718 255.847L331.465 255.594C328.426 253.062 325.388 250.277 322.602 247.745C287.407 217.36 245.629 208.498 201.318 199.129L195.241 197.863C189.923 196.597 185.872 195.838 182.327 195.331L181.821 195.331C172.453 193.559 162.831 192.04 153.209 191.533C144.853 191.027 137.763 192.546 130.167 194.318C127.382 194.825 124.343 195.585 121.305 196.091C116.494 196.851 111.43 197.357 106.619 197.357C93.1992 197.357 79.0199 194.318 64.3341 188.242C62.8148 187.482 61.0426 186.976 59.5234 186.216C59.5234 186.976 59.7763 187.988 59.7763 188.748C61.0422 189.254 62.3083 189.761 63.5743 190.267C78.2601 196.344 92.946 199.383 106.619 199.383C111.683 199.383 116.747 198.876 121.811 198.117C124.85 197.61 127.888 196.851 130.927 196.344C138.27 194.825 145.359 193.306 153.462 193.559C162.83 194.065 172.452 195.585 181.568 197.357L182.074 197.357C185.619 198.117 189.67 198.876 194.988 199.889L201.064 201.155C245.122 210.524 286.647 219.386 321.336 249.264C324.375 251.796 327.414 254.581 330.452 257.113C332.731 259.139 335.01 261.164 337.288 263.19C344.125 269.267 349.442 273.065 355.013 275.85C361.849 279.395 368.686 281.168 376.029 281.421C377.042 281.421 378.308 281.421 379.321 281.421C395.779 281.421 412.49 277.116 429.708 272.052C465.41 261.671 499.339 245.213 527.951 230.527C560.362 213.815 594.797 197.61 630.246 197.61C630.499 197.61 631.006 197.61 631.259 197.61C631.259 196.851 631.512 196.091 631.512 195.331C617.839 196.091 604.166 198.117 589.48 202.168Z" fill="url(#paint3_linear_1178_67030)" fill-opacity="0.4"/>
<path d="M62.0511 171.528C83.5735 181.403 102.817 186.214 120.541 185.708C125.605 185.708 130.669 184.948 135.733 184.189C140.797 183.429 145.861 182.67 150.925 182.67C160.8 182.416 170.676 183.176 180.297 183.936C182.576 184.189 185.108 184.189 187.387 184.442C190.932 184.695 194.73 184.948 198.275 185.202L200.807 185.455C207.644 185.961 214.48 186.214 221.064 186.468C258.285 188.24 296.772 190.012 328.675 212.548C333.486 216.093 339.309 220.144 344.627 224.195C351.716 229.512 359.06 233.31 366.656 235.842C373.746 238.121 381.088 239.387 389.191 239.641C403.877 239.894 418.816 236.855 436.794 232.044C471.989 222.676 506.171 206.724 534.783 192.545C565.674 177.352 598.338 162.666 631.001 162.666C631.508 162.666 632.267 162.666 632.773 162.666C632.773 162.16 632.773 161.654 632.773 161.147C632.773 160.894 632.773 160.641 632.773 160.388C632.267 160.388 631.761 160.388 631.001 160.388C620.113 160.388 608.466 161.907 596.312 165.198C574.283 171.022 553.268 180.897 533.771 190.519C505.159 204.698 471.229 220.397 436.287 229.766C419.069 234.323 404.89 237.362 391.217 237.362C373.999 237.362 359.819 232.551 345.893 222.423C340.576 218.371 334.752 214.32 329.688 210.775C315.255 200.394 298.038 193.557 277.275 189.506C258.791 185.961 239.547 184.948 220.81 184.189C214.227 183.936 207.137 183.429 200.554 183.176L198.275 182.923C194.73 182.669 190.932 182.416 187.387 182.163C185.108 181.91 182.576 181.91 180.297 181.657C170.676 180.897 160.548 180.391 150.673 180.391C145.355 180.391 140.291 181.15 135.227 181.91C130.416 182.67 125.352 183.176 120.541 183.429C103.07 183.936 84.0797 179.378 63.0637 169.503C61.5444 168.743 60.0251 167.984 58.5059 167.224L57.9996 166.971C57.9996 167.73 57.9996 168.743 57.9996 169.503C59.2656 170.263 60.5319 171.022 62.0511 171.528Z" fill="url(#paint4_linear_1178_67030)" fill-opacity="0.4"/>
<path d="M135.23 176.087C148.144 176.087 161.563 174.568 174.477 173.302C180.807 172.542 187.391 171.783 193.721 171.276C197.772 171.023 202.33 170.517 207.141 170.01C214.737 169.251 222.586 168.238 230.435 167.478C246.894 165.453 263.858 163.427 280.316 163.427C302.598 163.427 320.576 167.225 336.528 175.074L338.3 176.087C343.111 178.366 348.175 180.898 352.986 183.683C366.912 191.533 381.851 195.584 398.816 195.584L399.322 195.584C415.527 195.584 431.986 192.039 445.912 188.747C480.348 180.392 513.011 166.719 543.143 153.046C571.755 140.132 601.886 127.725 631.258 126.966C631.258 126.206 631.004 125.446 631.004 124.687C622.649 124.94 613.533 125.953 604.418 127.978C583.149 132.789 561.879 141.905 542.129 150.767C511.998 164.44 479.335 178.113 445.405 186.469C430.72 190.014 415.021 193.305 399.576 193.305C382.864 193.305 367.925 189.507 354.252 181.658C349.441 178.872 344.377 176.34 339.566 174.062L337.794 173.302C321.335 165.199 303.358 161.401 280.57 161.401C263.858 161.401 246.894 163.427 230.435 165.453C222.839 166.465 214.99 167.225 207.393 167.985C202.583 168.491 198.278 168.744 193.973 169.251C187.643 169.757 181.06 170.517 174.73 171.276C161.817 172.796 148.65 174.062 135.736 174.062C131.938 174.062 128.394 173.808 124.849 173.555C100.035 171.783 76.4869 160.642 58.7626 151.02L58.2563 150.767C58.2563 151.526 58.2563 152.539 58.2563 153.299C75.9806 162.921 99.7819 173.808 124.849 175.834C127.888 175.834 131.432 176.087 135.23 176.087Z" fill="url(#paint5_linear_1178_67030)" fill-opacity="0.4"/>
<path d="M128.647 166.715C132.445 167.221 136.749 167.475 141.054 167.475C157.005 167.475 173.21 163.423 188.909 159.625C192.707 158.612 195.999 157.853 199.544 157.093C204.355 156.08 209.166 154.814 212.711 154.055C219.294 152.535 225.877 150.763 232.461 148.991C257.275 142.661 283.101 135.824 308.422 135.824C320.829 135.824 331.97 137.343 342.857 140.635C348.428 142.154 354.251 143.927 359.822 145.952C374.761 151.27 390.207 153.802 406.412 153.548C420.085 153.295 434.77 151.523 453.507 147.471C486.424 140.382 519.088 128.228 549.472 116.327C572.767 107.212 599.1 96.8305 625.434 94.5517C625.18 93.7921 625.181 93.0325 624.927 92.2729C619.61 92.7793 614.292 93.5389 608.722 94.5517C587.453 98.8562 565.93 107.212 548.713 114.048C518.328 125.949 485.918 137.85 453.001 144.939C433.504 149.244 418.565 151.016 404.892 151.016C389.447 151.016 375.014 148.484 360.582 143.42C355.011 141.395 349.187 139.622 343.364 138.103C332.476 134.811 320.829 133.292 308.168 133.292C282.342 133.292 256.515 139.875 231.701 146.459C225.371 148.231 218.534 149.75 212.204 151.269C208.153 152.282 203.595 153.295 199.037 154.308C195.492 155.068 191.948 155.827 188.403 156.84C172.704 160.638 156.499 164.436 141.054 164.436C136.749 164.436 132.698 164.183 128.9 163.677C103.073 159.878 79.0186 147.471 58.7622 135.571C58.7622 136.33 58.5087 137.343 58.5087 138.103C69.6497 144.433 79.0186 149.497 87.8807 153.295C102.567 160.638 115.733 164.689 128.647 166.715Z" fill="url(#paint6_linear_1178_67030)" fill-opacity="0.4"/>
<path d="M143.837 158.108C160.295 158.108 177.512 151.525 192.705 145.701C196.249 144.435 200.048 142.916 203.592 141.65L207.138 140.384C210.176 139.371 213.214 138.105 216.253 137.092C250.182 125.192 288.669 111.519 325.89 111.519C332.98 111.519 339.817 112.025 346.4 113.038L349.438 113.544C354.249 114.304 359.314 115.064 364.124 116.076C377.544 118.862 390.71 120.128 404.13 120.128C420.588 120.128 438.566 118.102 459.329 114.051C491.739 107.721 523.896 97.5925 554.028 87.9708L557.572 86.958C576.563 80.8811 597.832 74.0446 618.848 71.2593C618.594 70.4997 618.341 69.7401 618.088 68.9804C617.075 69.2336 615.81 69.2337 614.797 69.4869C594.794 72.5253 574.537 79.1087 556.813 84.9324L553.268 85.9452C523.137 95.5669 490.98 105.695 458.823 112.025C438.313 116.076 420.335 118.102 404.13 118.102C390.71 118.102 377.797 116.836 364.377 114.051C359.566 113.038 354.502 112.278 349.691 111.519L346.653 111.012C340.07 110 332.98 109.493 325.89 109.493C288.163 109.493 249.422 123.166 215.493 135.067C212.454 136.08 209.163 137.346 206.124 138.358L202.58 139.624C199.035 140.89 195.237 142.41 191.692 143.676C176.753 149.499 159.788 155.83 143.583 155.83C141.304 155.83 138.772 155.576 136.493 155.323C109.147 151.778 82.5606 137.346 59.7722 123.673C59.7722 124.432 59.5194 125.445 59.5194 126.205C82.0546 139.878 108.641 154.057 136.24 157.602C138.772 158.108 141.305 158.108 143.837 158.108Z" fill="url(#paint7_linear_1178_67030)" fill-opacity="0.4"/>
<path d="M142.828 145.447C158.02 145.447 172.706 138.611 186.886 132.281C192.456 129.749 198.027 127.217 203.344 125.191C207.395 123.672 211.193 122.152 214.991 120.886C255.251 107.213 298.548 94.8064 344.125 95.3128C351.215 95.3128 357.545 95.566 363.369 96.0724C374.004 97.0852 384.638 97.3384 394.766 97.3384C417.048 97.3384 438.824 95.3128 461.359 90.7551C489.465 85.1846 518.583 77.5885 550.487 66.9539C570.49 60.3706 591.506 53.7873 612.016 51.5084C611.762 50.7488 611.509 49.9892 611.256 49.2296C609.737 49.4828 607.964 49.736 606.192 49.736C586.948 52.5213 567.705 58.5982 549.727 64.4219C517.823 74.8032 488.705 82.6525 460.853 87.9698C438.318 92.2743 416.795 94.5531 394.513 94.5531C384.385 94.5531 374.004 94.0467 363.369 93.2871C357.292 92.7807 350.962 92.5275 343.872 92.5275C298.042 92.0211 254.491 104.681 213.978 118.354C210.18 119.62 206.382 121.14 202.331 122.659C197.014 124.684 191.443 127.216 185.873 129.749C171.946 136.079 157.514 142.662 142.828 142.662C140.802 142.662 138.777 142.409 136.751 142.156C110.165 138.611 84.3378 124.431 62.0559 110.505C61.8027 111.265 61.8028 112.024 61.5496 113.037C83.8315 126.963 109.658 140.89 136.245 144.434C138.524 145.194 140.802 145.447 142.828 145.447Z" fill="url(#paint8_linear_1178_67030)" fill-opacity="0.4"/>
<path d="M139.024 127.722C153.71 127.722 168.396 121.898 182.828 116.074C188.652 113.795 193.97 111.77 199.54 109.997C203.085 108.731 206.629 107.719 210.427 106.452C249.168 94.8051 292.972 81.6384 337.789 80.3724C341.081 80.3724 344.373 80.1193 347.411 80.1193C351.209 80.1193 354.501 80.1192 358.046 80.3724C365.642 80.6256 372.985 80.8789 380.074 80.8789C407.42 80.8789 431.222 78.3468 454.77 73.2827C480.596 67.459 507.183 59.6097 533.516 49.4815C553.266 41.8854 576.814 34.2892 602.894 34.2892C603.401 34.2892 603.654 34.2892 604.16 34.2892C603.907 33.5296 603.401 32.7701 603.148 32.0105C597.577 32.0105 592.007 32.2636 586.183 33.0232C570.231 35.0488 553.266 39.3534 532.757 47.2027C506.423 57.3309 480.09 65.1802 454.263 71.0039C430.715 76.068 407.168 78.6 379.821 78.6C372.985 78.6 365.642 78.3468 358.046 78.0936C354.501 77.8404 351.209 77.8404 347.411 77.8404C344.373 77.8404 341.081 77.8404 337.789 78.0936C292.719 79.3596 248.662 92.5263 209.668 104.174C205.87 105.186 202.325 106.452 198.78 107.719C193.21 109.491 187.892 111.77 182.069 114.049C167.889 119.619 153.203 125.443 139.024 125.443C113.957 125.443 87.8765 111.77 64.8348 97.3371C64.5817 98.0967 64.5818 98.8563 64.3286 99.6159C87.1169 114.302 113.45 127.722 139.024 127.722Z" fill="url(#paint9_linear_1178_67030)" fill-opacity="0.4"/>
<path d="M139.53 105.694C141.049 105.694 142.822 105.947 144.341 105.947C157.761 105.947 171.434 102.402 184.853 98.8575C188.145 98.0979 191.437 97.0851 194.728 96.3255C196.501 95.8191 198.273 95.5659 200.046 95.0595L200.299 95.0595C201.818 94.5531 203.591 94.2999 205.11 93.7935C214.985 91.5146 224.86 88.7294 234.228 86.1973C265.119 78.0948 297.276 69.4858 329.686 67.7134C337.282 67.207 343.866 67.207 349.943 67.4602C356.02 67.7134 361.083 67.7134 366.147 67.7134C395.013 67.7134 418.055 64.9282 441.35 58.5981C464.898 52.268 487.686 43.9122 508.702 34.0372C529.971 23.9091 550.987 18.845 572.509 18.845C580.358 18.845 588.461 19.6046 597.07 20.8706C596.564 20.111 596.057 19.0982 595.551 18.3385C587.448 17.0725 579.852 16.5661 572.256 16.5661C567.698 16.5661 563.394 16.8193 558.836 17.0725C541.618 18.5917 524.907 23.4026 507.436 31.7583C486.673 41.6333 464.138 49.9891 440.59 56.3192C417.548 62.6493 394.507 65.1813 365.895 65.1813C361.084 65.1813 355.766 65.1814 349.689 64.9282C343.359 64.675 336.776 64.9281 329.18 65.1813C296.517 66.9538 264.359 75.3095 233.215 83.6653C223.593 86.1973 213.718 88.7294 204.097 91.2614C202.577 91.5146 201.058 92.021 199.792 92.2742L199.539 92.2742C197.767 92.7806 195.741 93.287 193.968 93.5402C190.677 94.2998 187.385 95.3127 184.094 96.0723C170.927 99.6171 157.254 103.162 144.087 103.162C142.568 103.162 141.049 103.162 139.53 102.909C114.715 101.136 89.9019 89.9954 69.1392 78.6012C68.886 79.3608 68.6327 80.1204 68.3795 80.88C74.2032 84.1717 79.5204 86.9569 84.8378 89.2357C105.347 99.3639 123.071 104.681 139.53 105.694Z" fill="url(#paint10_linear_1178_67030)" fill-opacity="0.4"/>
<path d="M161.309 85.9433C170.678 85.9433 180.806 85.1837 191.188 83.6645C194.732 83.1581 198.024 82.6517 201.062 82.1453C217.774 79.1068 234.485 74.5491 250.691 70.2446C273.732 63.9145 297.786 57.5844 322.094 55.5588C329.437 55.0524 336.02 54.7992 342.097 55.0524C346.655 55.0524 350.959 55.3056 354.757 55.3056C383.116 55.3056 404.385 52.2672 425.908 44.6711C445.405 38.0878 464.395 29.2256 482.119 18.5911C500.097 7.70327 518.834 2.63906 541.116 2.63906C553.27 2.63907 566.942 4.15835 583.907 7.45001C585.933 7.95642 587.959 8.20963 589.984 8.71603C589.478 7.95642 588.972 6.9436 588.212 6.18399C586.946 5.93079 585.68 5.67761 584.161 5.42441C566.943 2.13275 553.27 0.613461 541.116 0.61346C537.824 0.61346 534.279 0.613551 530.988 0.866755C512.757 2.13278 496.299 7.45003 480.6 16.8186C462.876 27.4532 444.139 36.0621 424.895 42.8986C403.626 50.2415 382.61 53.28 354.504 53.28C350.453 53.28 346.402 53.28 341.844 53.0268C335.767 52.7736 329.184 53.0268 321.841 53.5332C297.28 55.3056 273.226 61.8889 249.931 68.219C233.726 72.5235 217.267 77.0812 200.556 80.1197C197.517 80.6261 194.226 81.1324 190.681 81.6388C180.3 83.158 170.424 83.9177 161.056 83.9177C154.219 83.9177 147.636 83.4113 141.813 82.6517C119.277 79.6132 96.9956 69.2318 76.7393 57.8376C76.486 58.5972 76.2327 59.3569 75.9795 59.8633C96.4891 71.2575 118.771 81.6389 141.559 84.9305C147.636 85.6901 154.22 85.9433 161.309 85.9433Z" fill="url(#paint11_linear_1178_67030)" fill-opacity="0.4"/>
<path d="M145.106 65.1822C147.891 65.9418 150.423 66.4482 153.209 67.2078L153.461 67.2078C164.602 69.9931 174.984 72.7783 186.378 72.7783C187.644 72.7783 188.657 72.7783 189.923 72.7783C193.215 72.5251 196.507 72.2719 199.545 72.0187C219.295 69.7399 238.538 63.4097 257.022 57.586C276.013 51.5091 295.763 45.179 316.019 43.1534C323.109 42.3937 329.439 42.1406 335.009 42.1406C338.807 42.1406 342.099 42.3938 345.39 42.3938C368.432 42.3938 388.435 40.3681 411.224 30.4931C426.416 23.9098 441.861 14.7945 458.826 2.64067C474.778 -8.75353 492.756 -14.0708 515.291 -14.0708C529.47 -14.0708 544.156 -12.0451 561.88 -9.00666C567.451 -7.99384 573.528 -6.981 579.352 -5.96818C578.592 -6.981 578.085 -7.7407 577.326 -8.75352C572.262 -9.76634 566.944 -10.5259 562.134 -11.5387C546.182 -14.324 530.736 -16.6028 515.291 -16.6028C512.759 -16.6028 510.479 -16.6029 507.947 -16.3497C488.451 -15.3368 471.739 -9.76631 457.307 0.615063C440.595 12.7689 425.15 21.6311 409.957 28.2144C387.676 38.0894 367.926 40.115 345.138 40.115C341.846 40.115 338.554 40.1149 334.756 39.8617C328.932 39.6085 322.602 40.115 315.512 40.8746C295.003 42.9002 275.253 49.4835 256.009 55.5604C237.525 61.3841 218.535 67.7143 199.038 69.9931C196 70.2463 192.709 70.7527 189.417 70.7527C188.404 70.7527 187.138 70.7527 186.125 70.7527C174.984 70.7527 164.603 67.9674 153.715 65.1822C150.93 64.4225 148.144 63.663 145.359 63.1565C124.343 58.0925 104.593 47.9643 85.3496 37.0765C85.0964 37.8361 84.5903 38.3425 84.3371 39.1021C90.1608 42.3938 96.2373 45.9387 102.314 48.9772C118.266 56.5733 132.193 61.8905 145.106 65.1822Z" fill="url(#paint12_linear_1178_67030)" fill-opacity="0.4"/>
<path d="M161.814 52.7755C171.435 58.0928 180.298 63.1569 192.958 63.4101C196.25 63.4101 199.541 63.4101 202.58 63.1569C223.343 61.3845 243.092 53.0288 262.083 45.1795C278.794 38.0897 296.012 31 313.736 28.2147C320.32 27.2019 325.89 26.6954 330.954 26.6954L331.461 26.6954C332.727 26.6954 333.993 26.6954 335.259 26.6954C345.64 26.6954 357.035 26.4423 367.922 24.6698C380.329 22.6442 391.217 19.0994 402.358 13.0225C416.79 5.42635 430.211 -4.95503 443.124 -14.83L445.656 -16.8556C461.355 -28.7562 479.332 -34.3268 502.627 -34.3268C519.085 -34.3268 536.05 -31.5416 552.255 -29.0095L552.762 -29.0095C556.56 -28.5031 560.104 -27.7435 563.902 -27.2371C563.143 -28.2499 562.383 -29.0094 561.624 -30.0222C558.839 -30.5287 555.8 -31.0352 553.014 -31.5416L552.508 -31.5416C535.797 -34.3268 518.832 -37.1119 502.121 -37.1119C500.095 -37.1119 498.323 -37.1119 496.297 -37.1119C486.422 -36.6055 477.56 -35.3395 469.457 -32.5543C460.088 -29.5158 451.733 -25.2113 443.884 -19.3876L441.352 -17.362C428.438 -7.48707 415.018 2.64101 400.839 10.2371C378.051 22.391 357.794 23.4038 335.259 23.4038C333.993 23.4038 332.474 23.4038 331.208 23.4038L330.701 23.4038C325.637 23.4038 319.813 23.9103 312.977 24.9231C294.999 27.7084 277.528 35.0513 260.817 42.141C241.826 49.9903 222.33 58.346 202.074 60.1184C199.035 60.3716 195.743 60.3716 192.704 60.3716C180.551 60.1184 171.942 55.0543 162.573 49.9902C159.029 47.9646 155.484 45.939 151.685 44.1666C129.91 34.0384 112.439 24.9231 96.234 15.5545C95.9807 16.3141 95.474 16.8205 95.2208 17.5801C111.426 26.9487 129.15 36.064 150.926 46.1922C154.724 48.7242 158.269 50.7499 161.814 52.7755Z" fill="url(#paint13_linear_1178_67030)" fill-opacity="0.4"/>
<path d="M159.786 30.7429C163.078 33.2749 166.117 36.0602 169.155 38.8455C179.03 47.7076 187.385 55.3037 200.299 55.3037C201.058 55.3037 201.818 55.3037 202.831 55.3037C206.882 55.0505 211.694 53.2781 215.998 52.0121L216.757 51.7588C230.937 47.2012 244.61 39.0986 257.777 31.5025C277.02 20.3615 297.023 8.71414 318.799 6.6885L319.052 6.6885C323.61 6.18209 328.674 5.67572 333.485 5.92892C336.776 6.18213 340.068 6.18207 343.106 6.18207C352.728 6.18207 361.084 5.42239 368.933 3.90317C380.327 1.62433 390.709 -2.1737 402.103 -8.25061C410.712 -12.8083 419.321 -18.3787 427.676 -23.696C435.273 -28.5069 443.122 -33.3179 450.971 -37.8755C470.468 -48.7633 491.231 -53.8274 516.045 -53.8274C523.641 -53.8274 531.491 -53.321 539.34 -52.5614C538.327 -53.321 537.314 -54.3338 536.302 -55.0934C529.465 -55.853 522.628 -56.1061 516.045 -56.1061C491.231 -56.1061 469.455 -50.7889 449.959 -39.9011C442.109 -35.5967 434.26 -30.5325 426.664 -25.7216C418.308 -20.4043 409.952 -15.087 401.343 -10.5294C382.86 -0.401183 365.894 3.65002 343.359 3.65002C340.321 3.65002 337.283 3.65008 334.244 3.39688C329.18 3.14367 324.369 3.65005 319.558 4.15646L319.305 4.15646C297.023 6.18209 276.767 18.0826 257.27 29.2236C244.103 36.8197 230.431 44.6691 216.504 49.2268L215.745 49.48C211.693 50.746 206.882 52.2652 203.084 52.7716C202.325 52.7716 201.565 52.7716 200.806 52.7716C188.905 52.7716 180.549 45.4287 171.18 36.8197C168.142 34.0345 165.104 31.2493 161.812 28.7173C151.177 20.3616 139.024 13.5249 127.123 6.94163C121.299 3.64997 115.222 0.358316 109.399 -3.18655C108.892 -2.68014 108.639 -1.92049 108.133 -1.41408C113.956 2.13078 120.034 5.67558 126.11 8.96723C137.251 15.8038 149.405 22.6404 159.786 30.7429Z" fill="url(#paint14_linear_1178_67030)" fill-opacity="0.4"/>
<path d="M138.267 -8.50242C150.42 -0.90629 162.828 6.94299 172.703 17.0712L174.728 19.0968C181.818 26.4397 186.882 31.7571 198.277 34.5423C202.581 35.5551 206.885 36.0615 211.443 36.0615C218.28 36.0615 225.116 34.7955 232.965 32.2634C236.257 31.2506 240.055 29.4782 243.853 27.7058C253.475 22.6417 262.843 15.0455 272.718 6.943C289.936 -6.98324 307.66 -21.4159 328.17 -22.9351C330.702 -23.1883 333.234 -23.1882 335.766 -23.1882C337.538 -23.1882 339.058 -23.1883 340.577 -22.9351C344.882 -22.4287 349.186 -22.1755 353.49 -22.1755C373.24 -22.1755 391.218 -27.4928 412.234 -35.3422C421.096 -38.6338 430.211 -42.4318 439.074 -45.9766C450.974 -50.7875 463.128 -55.8517 475.282 -60.1561C489.461 -64.967 503.388 -68.5119 517.82 -70.2843C516.808 -71.0439 516.048 -71.5503 515.035 -72.3099C501.362 -70.2843 488.195 -66.9926 474.522 -62.1818C462.368 -57.8773 449.961 -52.8133 438.314 -48.0024C429.705 -44.4575 420.589 -40.6594 411.727 -37.3678C390.965 -29.5184 373.241 -24.4542 353.744 -24.4542C349.693 -24.4542 345.388 -24.7076 341.084 -25.214C339.564 -25.4672 338.045 -25.4671 336.019 -25.4671C333.487 -25.4671 330.702 -25.214 328.17 -25.214C307.154 -23.6948 288.923 -9.00891 271.452 5.17054C261.577 13.2731 252.462 20.6161 242.84 25.6802C239.295 27.4526 235.751 28.9718 232.459 30.2378C219.799 34.2891 209.417 34.7955 199.036 32.2634C188.148 29.4782 183.337 24.4141 176.501 17.5776C175.994 16.818 175.235 16.3116 174.475 15.552C164.347 5.17062 151.94 -2.67869 139.786 -10.528C135.735 -13.0601 131.684 -15.5922 127.886 -18.3775C126.366 -19.3903 124.594 -20.4031 123.074 -21.4159C122.568 -20.9095 122.062 -20.1499 121.556 -19.6435C123.328 -18.6307 124.847 -17.3647 126.62 -16.3519C130.164 -13.8198 134.215 -11.0345 138.267 -8.50242Z" fill="url(#paint15_linear_1178_67030)" fill-opacity="0.4"/>
</g>
<path d="M85.5148 168V158.717H87.2169L90.423 165.32L93.6359 158.717H95.3312V168H93.882V161.349L90.9357 167.344H89.9103L86.964 161.349V168H85.5148ZM97.5559 166.134C97.5559 164.903 98.7316 164.056 100.454 164.056C101.24 164.056 101.808 164.22 102.109 164.363V164.008C102.109 163.188 101.446 162.572 100.427 162.572C99.6135 162.572 98.9367 163.037 98.5471 163.481L97.6926 162.634C98.1984 161.991 99.2512 161.301 100.447 161.301C102.293 161.301 103.462 162.299 103.462 163.892V168H102.136V167.152C101.733 167.768 100.974 168.137 100.092 168.137C98.6701 168.137 97.5559 167.419 97.5559 166.134ZM98.923 166.086C98.923 166.681 99.5178 167.029 100.29 167.029C101.357 167.029 102.109 166.298 102.109 165.402C101.828 165.259 101.199 165.088 100.488 165.088C99.634 165.088 98.923 165.375 98.923 166.086ZM105.01 168L107.485 164.65L105.065 161.438H106.623L108.325 163.748L110.028 161.438H111.586L109.166 164.65L111.641 168H110.082L108.325 165.546L106.569 168H105.01ZM118.257 158.375V168H116.904V158.375H118.257ZM120.277 164.726C120.277 162.771 121.678 161.301 123.667 161.301C125.582 161.301 126.826 162.723 126.826 164.479C126.826 164.685 126.812 164.896 126.771 165.108H121.678C121.74 166.093 122.581 166.865 123.715 166.865C124.536 166.865 125.192 166.517 125.684 165.744L126.682 166.469C126.074 167.562 124.877 168.137 123.715 168.137C121.733 168.137 120.277 166.674 120.277 164.726ZM121.712 164.097H125.452C125.37 163.174 124.597 162.524 123.654 162.524C122.649 162.524 121.883 163.174 121.712 164.097ZM130.212 168H128.859V161.438H130.219V162.265C130.438 161.93 131.06 161.301 132.236 161.301C134.041 161.301 134.991 162.422 134.991 164.015V168H133.637V164.302C133.637 163.215 133.043 162.586 132.024 162.586C131.026 162.586 130.212 163.215 130.212 164.302V168ZM140.251 168.137C138.384 168.137 136.956 166.701 136.956 164.685C136.956 162.668 138.384 161.301 140.251 161.301C141.365 161.301 142.103 161.711 142.589 162.333V161.438H143.942V167.487C143.942 169.552 142.541 170.871 140.333 170.871C139.13 170.871 138.015 170.365 137.263 169.463L138.152 168.581C138.774 169.258 139.478 169.641 140.36 169.641C141.707 169.641 142.589 168.854 142.589 167.658V167.104C142.131 167.699 141.365 168.137 140.251 168.137ZM140.415 162.518C139.15 162.518 138.309 163.475 138.309 164.685C138.309 165.895 139.15 166.92 140.415 166.92C141.679 166.92 142.582 165.895 142.582 164.685C142.582 163.475 141.673 162.518 140.415 162.518ZM146.816 162.586H145.647V161.438H146.837V159.332H148.156V161.438H150.241V162.586H148.17V165.867C148.17 166.564 148.573 166.913 149.243 166.913C149.557 166.913 149.988 166.824 150.309 166.688L150.487 167.85C150.159 168.021 149.578 168.137 149.052 168.137C147.677 168.137 146.816 167.364 146.816 166.031V162.586ZM153.539 168H152.185V158.375H153.546V162.265C153.764 161.93 154.387 161.301 155.562 161.301C157.333 161.301 158.283 162.422 158.283 164.015V168H156.93V164.302C156.93 163.215 156.335 162.586 155.35 162.586C154.352 162.586 153.539 163.215 153.539 164.302V168ZM160.515 162.142C160.515 161.677 160.87 161.301 161.349 161.301C161.827 161.301 162.189 161.677 162.189 162.142C162.189 162.606 161.827 162.976 161.349 162.976C160.87 162.976 160.515 162.606 160.515 162.142ZM160.515 167.303C160.515 166.838 160.87 166.462 161.349 166.462C161.827 166.462 162.189 166.838 162.189 167.303C162.189 167.768 161.827 168.137 161.349 168.137C160.87 168.137 160.515 167.768 160.515 167.303ZM170.884 164.767C168.915 164.767 167.63 163.57 167.63 161.731C167.63 159.77 168.977 158.58 170.973 158.58C173.495 158.58 174.548 160.569 174.548 163.023C174.548 166.018 173.283 168.137 170.399 168.137C169.476 168.137 168.703 167.925 168.088 167.508L168.573 166.291C169.12 166.64 169.735 166.824 170.303 166.824C171.827 166.824 173.024 165.751 173.085 163.673C172.648 164.397 171.841 164.767 170.884 164.767ZM171.027 159.831C169.852 159.831 169.1 160.549 169.1 161.684C169.1 162.866 169.817 163.495 171.021 163.495C172.21 163.495 172.853 162.6 172.853 161.704C172.853 160.768 172.203 159.831 171.027 159.831ZM180.02 168.137C177.757 168.137 176.315 166.271 176.315 163.358C176.315 160.453 177.757 158.58 180.02 158.58C182.282 158.58 183.718 160.453 183.718 163.358C183.718 166.271 182.282 168.137 180.02 168.137ZM180.02 159.934C178.659 159.934 177.75 161.26 177.75 163.358C177.75 165.464 178.659 166.776 180.02 166.776C181.373 166.776 182.282 165.464 182.282 163.358C182.282 161.26 181.373 159.934 180.02 159.934ZM188.981 166.619L189.986 165.806C190.355 166.448 190.984 166.893 191.818 166.893C192.522 166.893 193.048 166.612 193.048 166.168C193.048 165.683 192.645 165.532 191.681 165.313C190.273 164.999 189.268 164.555 189.268 163.256C189.268 162.066 190.355 161.301 191.695 161.301C192.918 161.301 193.855 161.937 194.292 162.654L193.383 163.434C193.028 162.928 192.467 162.538 191.695 162.538C191.045 162.538 190.608 162.812 190.608 163.235C190.608 163.734 191.093 163.871 192.057 164.104C193.486 164.452 194.415 164.917 194.415 166.168C194.415 167.364 193.212 168.137 191.818 168.137C190.539 168.137 189.487 167.549 188.981 166.619ZM196.004 164.726C196.004 162.771 197.406 161.301 199.395 161.301C201.309 161.301 202.553 162.723 202.553 164.479C202.553 164.685 202.539 164.896 202.498 165.108H197.406C197.467 166.093 198.308 166.865 199.443 166.865C200.263 166.865 200.919 166.517 201.412 165.744L202.41 166.469C201.801 167.562 200.605 168.137 199.443 168.137C197.46 168.137 196.004 166.674 196.004 164.726ZM197.44 164.097H201.179C201.097 163.174 200.325 162.524 199.381 162.524C198.376 162.524 197.611 163.174 197.44 164.097ZM207.581 168.137C205.591 168.137 204.101 166.626 204.101 164.712C204.101 162.791 205.653 161.301 207.635 161.301C208.927 161.301 210.007 161.978 210.623 163.099L209.577 163.81C209.166 163.051 208.428 162.572 207.608 162.572C206.343 162.572 205.468 163.509 205.468 164.712C205.468 165.922 206.364 166.865 207.581 166.865C208.435 166.865 209.146 166.414 209.597 165.635L210.616 166.353C210.014 167.433 208.907 168.137 207.581 168.137ZM215.459 168.137C213.462 168.137 211.972 166.64 211.972 164.719C211.972 162.798 213.462 161.301 215.459 161.301C217.455 161.301 218.945 162.798 218.945 164.719C218.945 166.64 217.455 168.137 215.459 168.137ZM213.326 164.719C213.326 165.929 214.221 166.865 215.459 166.865C216.696 166.865 217.591 165.929 217.591 164.719C217.591 163.509 216.696 162.572 215.459 162.572C214.221 162.572 213.326 163.509 213.326 164.719ZM222.311 168H220.958V161.438H222.318V162.265C222.537 161.93 223.159 161.301 224.335 161.301C226.139 161.301 227.089 162.422 227.089 164.015V168H225.736V164.302C225.736 163.215 225.141 162.586 224.123 162.586C223.125 162.586 222.311 163.215 222.311 164.302V168ZM229.027 164.685C229.027 162.668 230.456 161.301 232.322 161.301C233.436 161.301 234.175 161.711 234.66 162.333V158.375H236.013V168H234.66V167.104C234.175 167.727 233.436 168.137 232.322 168.137C230.456 168.137 229.027 166.701 229.027 164.685ZM232.486 162.518C231.221 162.518 230.381 163.475 230.381 164.685C230.381 165.895 231.221 166.92 232.486 166.92C233.751 166.92 234.653 165.895 234.653 164.685C234.653 163.475 233.744 162.518 232.486 162.518ZM238.013 166.619L239.017 165.806C239.387 166.448 240.015 166.893 240.849 166.893C241.554 166.893 242.08 166.612 242.08 166.168C242.08 165.683 241.677 165.532 240.713 165.313C239.305 164.999 238.3 164.555 238.3 163.256C238.3 162.066 239.387 161.301 240.726 161.301C241.95 161.301 242.887 161.937 243.324 162.654L242.415 163.434C242.059 162.928 241.499 162.538 240.726 162.538C240.077 162.538 239.639 162.812 239.639 163.235C239.639 163.734 240.125 163.871 241.089 164.104C242.517 164.452 243.447 164.917 243.447 166.168C243.447 167.364 242.244 168.137 240.849 168.137C239.571 168.137 238.518 167.549 238.013 166.619ZM59.8163 186.031L60.8895 185.286C61.3339 186.195 62.1884 186.845 63.4462 186.845C64.5194 186.845 65.3534 186.332 65.3534 185.519C65.3534 184.739 64.6151 184.397 63.2479 183.96C61.4843 183.393 60.0966 182.805 60.1102 181.164C60.1239 179.469 61.7235 178.58 63.2684 178.58C64.9843 178.58 66.078 179.503 66.5975 180.494L65.4833 181.273C65.0868 180.556 64.3348 179.886 63.2684 179.886C62.3866 179.886 61.5526 180.337 61.5526 181.157C61.5526 181.978 62.3114 182.196 63.6239 182.641C65.3534 183.229 66.7958 183.707 66.7958 185.505C66.7958 187.269 65.0663 188.137 63.4735 188.137C61.6552 188.137 60.3495 187.207 59.8163 186.031ZM68.7744 181.438H70.1279V185.136C70.1279 186.223 70.7226 186.852 71.7275 186.852C72.7597 186.852 73.5732 186.223 73.5732 185.136V181.438H74.9267V188H73.5664V187.173C73.3476 187.508 72.7255 188.137 71.5156 188.137C69.7246 188.137 68.7744 187.016 68.7744 185.423V181.438ZM77.4317 190.734V181.438H78.7852V182.333C79.2705 181.711 80.0088 181.301 81.1231 181.301C82.9893 181.301 84.418 182.736 84.418 184.753C84.418 186.77 82.9893 188.137 81.1231 188.137C80.0088 188.137 79.2705 187.727 78.7852 187.104V190.734H77.4317ZM78.792 184.753C78.792 185.963 79.7012 186.92 80.959 186.92C82.2237 186.92 83.0645 185.963 83.0645 184.753C83.0645 183.543 82.2237 182.518 80.959 182.518C79.6944 182.518 78.792 183.543 78.792 184.753ZM86.4513 190.734V181.438H87.8048V182.333C88.2902 181.711 89.0284 181.301 90.1427 181.301C92.0089 181.301 93.4376 182.736 93.4376 184.753C93.4376 186.77 92.0089 188.137 90.1427 188.137C89.0284 188.137 88.2902 187.727 87.8048 187.104V190.734H86.4513ZM87.8116 184.753C87.8116 185.963 88.7208 186.92 89.9786 186.92C91.2433 186.92 92.0841 185.963 92.0841 184.753C92.0841 183.543 91.2433 182.518 89.9786 182.518C88.714 182.518 87.8116 183.543 87.8116 184.753ZM98.4719 188.137C96.4758 188.137 94.9855 186.64 94.9855 184.719C94.9855 182.798 96.4758 181.301 98.4719 181.301C100.468 181.301 101.958 182.798 101.958 184.719C101.958 186.64 100.468 188.137 98.4719 188.137ZM96.3391 184.719C96.3391 185.929 97.2346 186.865 98.4719 186.865C99.7092 186.865 100.605 185.929 100.605 184.719C100.605 183.509 99.7092 182.572 98.4719 182.572C97.2346 182.572 96.3391 183.509 96.3391 184.719ZM105.331 188H103.971V181.438H105.331V182.333C105.7 181.615 106.323 181.301 107.04 181.301C107.553 181.301 107.943 181.465 107.943 181.465L107.799 182.709C107.724 182.682 107.43 182.559 106.999 182.559C106.275 182.559 105.331 182.941 105.331 184.425V188ZM110.051 182.586H108.882V181.438H110.072V179.332H111.391V181.438H113.476V182.586H111.405V185.867C111.405 186.564 111.808 186.913 112.478 186.913C112.792 186.913 113.223 186.824 113.544 186.688L113.722 187.85C113.394 188.021 112.813 188.137 112.286 188.137C110.912 188.137 110.051 187.364 110.051 186.031V182.586ZM114.778 184.726C114.778 182.771 116.179 181.301 118.168 181.301C120.082 181.301 121.327 182.723 121.327 184.479C121.327 184.685 121.313 184.896 121.272 185.108H116.179C116.241 186.093 117.081 186.865 118.216 186.865C119.037 186.865 119.693 186.517 120.185 185.744L121.183 186.469C120.575 187.562 119.378 188.137 118.216 188.137C116.234 188.137 114.778 186.674 114.778 184.726ZM116.213 184.097H119.953C119.871 183.174 119.098 182.524 118.155 182.524C117.15 182.524 116.384 183.174 116.213 184.097ZM122.888 184.685C122.888 182.668 124.317 181.301 126.183 181.301C127.297 181.301 128.036 181.711 128.521 182.333V178.375H129.875V188H128.521V187.104C128.036 187.727 127.297 188.137 126.183 188.137C124.317 188.137 122.888 186.701 122.888 184.685ZM126.347 182.518C125.083 182.518 124.242 183.475 124.242 184.685C124.242 185.895 125.083 186.92 126.347 186.92C127.612 186.92 128.514 185.895 128.514 184.685C128.514 183.475 127.605 182.518 126.347 182.518ZM136.505 182.586H135.267V181.438H136.525V180.727C136.525 179.209 137.468 178.238 139.068 178.238C139.649 178.238 140.039 178.416 140.155 178.478L140.011 179.599C139.827 179.517 139.471 179.428 139.13 179.428C138.248 179.428 137.838 179.852 137.838 180.802V181.438H139.772V182.586H137.858V188H136.505V182.586ZM140.859 179.236C140.859 178.744 141.201 178.402 141.693 178.402C142.185 178.402 142.534 178.744 142.534 179.236C142.534 179.729 142.185 180.07 141.693 180.07C141.201 180.07 140.859 179.729 140.859 179.236ZM141.016 188V181.438H142.37V188H141.016ZM146.221 178.375V188H144.868V178.375H146.221ZM148.241 184.726C148.241 182.771 149.642 181.301 151.632 181.301C153.546 181.301 154.79 182.723 154.79 184.479C154.79 184.685 154.776 184.896 154.735 185.108H149.642C149.704 186.093 150.545 186.865 151.68 186.865C152.5 186.865 153.156 186.517 153.648 185.744L154.646 186.469C154.038 187.562 152.842 188.137 151.68 188.137C149.697 188.137 148.241 186.674 148.241 184.726ZM149.677 184.097H153.416C153.334 183.174 152.561 182.524 151.618 182.524C150.613 182.524 149.848 183.174 149.677 184.097ZM160.853 182.586H159.684V181.438H160.873V179.332H162.192V181.438H164.277V182.586H162.206V185.867C162.206 186.564 162.609 186.913 163.279 186.913C163.594 186.913 164.024 186.824 164.346 186.688L164.523 187.85C164.195 188.021 163.614 188.137 163.088 188.137C161.714 188.137 160.853 187.364 160.853 186.031V182.586ZM168.177 188.096L165.347 181.438H166.837L168.881 186.605L170.911 181.438H172.401L169.257 188.834C168.731 190.051 168.163 190.871 166.564 190.871C165.983 190.871 165.593 190.693 165.477 190.632L165.62 189.511C165.805 189.593 166.16 189.682 166.502 189.682C167.384 189.682 167.739 189.237 168.033 188.472L168.177 188.096ZM174.025 190.734V181.438H175.378V182.333C175.863 181.711 176.602 181.301 177.716 181.301C179.582 181.301 181.011 182.736 181.011 184.753C181.011 186.77 179.582 188.137 177.716 188.137C176.602 188.137 175.863 187.727 175.378 187.104V190.734H174.025ZM175.385 184.753C175.385 185.963 176.294 186.92 177.552 186.92C178.817 186.92 179.657 185.963 179.657 184.753C179.657 183.543 178.817 182.518 177.552 182.518C176.287 182.518 175.385 183.543 175.385 184.753ZM182.566 184.726C182.566 182.771 183.967 181.301 185.956 181.301C187.87 181.301 189.115 182.723 189.115 184.479C189.115 184.685 189.101 184.896 189.06 185.108H183.967C184.029 186.093 184.869 186.865 186.004 186.865C186.824 186.865 187.481 186.517 187.973 185.744L188.971 186.469C188.363 187.562 187.166 188.137 186.004 188.137C184.022 188.137 182.566 186.674 182.566 184.726ZM184.001 184.097H187.74C187.658 183.174 186.886 182.524 185.943 182.524C184.938 182.524 184.172 183.174 184.001 184.097ZM190.642 186.619L191.647 185.806C192.016 186.448 192.645 186.893 193.479 186.893C194.183 186.893 194.709 186.612 194.709 186.168C194.709 185.683 194.306 185.532 193.342 185.313C191.934 184.999 190.929 184.555 190.929 183.256C190.929 182.066 192.016 181.301 193.356 181.301C194.579 181.301 195.516 181.937 195.953 182.654L195.044 183.434C194.689 182.928 194.128 182.538 193.356 182.538C192.706 182.538 192.269 182.812 192.269 183.235C192.269 183.734 192.754 183.871 193.718 184.104C195.147 184.452 196.076 184.917 196.076 186.168C196.076 187.364 194.873 188.137 193.479 188.137C192.201 188.137 191.148 187.549 190.642 186.619ZM197.959 182.142C197.959 181.677 198.315 181.301 198.793 181.301C199.272 181.301 199.634 181.677 199.634 182.142C199.634 182.606 199.272 182.976 198.793 182.976C198.315 182.976 197.959 182.606 197.959 182.142ZM197.959 187.303C197.959 186.838 198.315 186.462 198.793 186.462C199.272 186.462 199.634 186.838 199.634 187.303C199.634 187.768 199.272 188.137 198.793 188.137C198.315 188.137 197.959 187.768 197.959 187.303ZM205.752 188V178.717H207.454L210.66 185.32L213.873 178.717H215.568V188H214.119V181.349L211.172 187.344H210.147L207.201 181.349V188H205.752ZM219.83 188H218.394V178.724H222.209C224.123 178.724 225.36 179.906 225.36 181.629C225.36 183.331 224.123 184.541 222.209 184.541H219.83V188ZM219.83 180.029V183.229H222.147C223.275 183.229 223.863 182.518 223.863 181.629C223.863 180.727 223.275 180.029 222.147 180.029H219.83ZM226.682 186.052L227.885 185.389C228.234 186.25 228.993 186.79 229.923 186.79C230.9 186.79 231.611 186.202 231.611 185.402C231.611 184.527 230.839 183.926 229.717 183.926H228.562V182.675H229.717C230.592 182.675 231.392 182.217 231.392 181.219C231.392 180.446 230.729 179.906 229.779 179.906C228.815 179.906 228.145 180.59 227.879 181.239L226.682 180.597C227.195 179.346 228.364 178.58 229.752 178.58C231.584 178.58 232.862 179.653 232.862 181.198C232.862 182.128 232.336 182.928 231.529 183.249C232.466 183.563 233.081 184.418 233.081 185.423C233.081 186.995 231.761 188.137 229.95 188.137C228.432 188.137 227.216 187.357 226.682 186.052ZM235.251 186.271H236.673L235.579 189.798H234.383L235.251 186.271ZM241.02 178.717H242.455L244.766 186.708L247.015 178.867H248.553L250.802 186.708L253.105 178.717H254.548L251.964 188H249.646L247.78 181.123L245.921 188H243.603L241.02 178.717ZM256.314 188H254.783L258.618 178.717H260.177L264.012 188H262.48L261.742 186.065H257.053L256.314 188ZM257.483 184.869H261.312L259.397 180.323L257.483 184.869ZM267.419 188L263.844 178.717H265.341L268.274 186.469L271.206 178.717H272.703L269.128 188H267.419ZM103 208V198.717H104.702L107.908 205.32L111.121 198.717H112.817V208H111.367V201.349L108.421 207.344H107.396L104.449 201.349V208H103ZM115.041 206.134C115.041 204.903 116.217 204.056 117.94 204.056C118.726 204.056 119.293 204.22 119.594 204.363V204.008C119.594 203.188 118.931 202.572 117.912 202.572C117.099 202.572 116.422 203.037 116.033 203.481L115.178 202.634C115.684 201.991 116.737 201.301 117.933 201.301C119.779 201.301 120.948 202.299 120.948 203.892V208H119.621V207.152C119.218 207.768 118.459 208.137 117.577 208.137C116.156 208.137 115.041 207.419 115.041 206.134ZM116.409 206.086C116.409 206.681 117.003 207.029 117.776 207.029C118.842 207.029 119.594 206.298 119.594 205.402C119.314 205.259 118.685 205.088 117.974 205.088C117.119 205.088 116.409 205.375 116.409 206.086ZM122.496 208L124.97 204.65L122.55 201.438H124.109L125.811 203.748L127.513 201.438H129.072L126.652 204.65L129.126 208H127.568L125.811 205.546L124.054 208H122.496ZM134.881 202.586H133.644V201.438H134.902V200.727C134.902 199.209 135.845 198.238 137.445 198.238C138.026 198.238 138.416 198.416 138.532 198.478L138.388 199.599C138.204 199.517 137.848 199.428 137.506 199.428C136.625 199.428 136.214 199.852 136.214 200.802V201.438H138.149V202.586H136.235V208H134.881V202.586ZM139.236 199.236C139.236 198.744 139.578 198.402 140.07 198.402C140.562 198.402 140.911 198.744 140.911 199.236C140.911 199.729 140.562 200.07 140.07 200.07C139.578 200.07 139.236 199.729 139.236 199.236ZM139.393 208V201.438H140.747V208H139.393ZM144.598 198.375V208H143.245V198.375H144.598ZM146.618 204.726C146.618 202.771 148.019 201.301 150.009 201.301C151.923 201.301 153.167 202.723 153.167 204.479C153.167 204.685 153.153 204.896 153.112 205.108H148.019C148.081 206.093 148.922 206.865 150.056 206.865C150.877 206.865 151.533 206.517 152.025 205.744L153.023 206.469C152.415 207.562 151.219 208.137 150.056 208.137C148.074 208.137 146.618 206.674 146.618 204.726ZM148.053 204.097H151.793C151.711 203.174 150.938 202.524 149.995 202.524C148.99 202.524 148.224 203.174 148.053 204.097ZM158.327 206.619L159.332 205.806C159.701 206.448 160.33 206.893 161.164 206.893C161.868 206.893 162.394 206.612 162.394 206.168C162.394 205.683 161.991 205.532 161.027 205.313C159.619 204.999 158.614 204.555 158.614 203.256C158.614 202.066 159.701 201.301 161.041 201.301C162.265 201.301 163.201 201.937 163.639 202.654L162.729 203.434C162.374 202.928 161.813 202.538 161.041 202.538C160.392 202.538 159.954 202.812 159.954 203.235C159.954 203.734 160.439 203.871 161.403 204.104C162.832 204.452 163.762 204.917 163.762 206.168C163.762 207.364 162.559 208.137 161.164 208.137C159.886 208.137 158.833 207.549 158.327 206.619ZM165.672 199.236C165.672 198.744 166.014 198.402 166.506 198.402C166.998 198.402 167.347 198.744 167.347 199.236C167.347 199.729 166.998 200.07 166.506 200.07C166.014 200.07 165.672 199.729 165.672 199.236ZM167.183 208H165.829V201.438H167.183V208ZM169.209 208V206.872L172.593 202.586H169.277V201.438H174.131V202.565L170.747 206.852H174.343V208H169.209ZM175.679 204.726C175.679 202.771 177.08 201.301 179.069 201.301C180.984 201.301 182.228 202.723 182.228 204.479C182.228 204.685 182.214 204.896 182.173 205.108H177.08C177.142 206.093 177.983 206.865 179.117 206.865C179.938 206.865 180.594 206.517 181.086 205.744L182.084 206.469C181.476 207.562 180.279 208.137 179.117 208.137C177.135 208.137 175.679 206.674 175.679 204.726ZM177.114 204.097H180.854C180.772 203.174 179.999 202.524 179.056 202.524C178.051 202.524 177.285 203.174 177.114 204.097ZM184.076 202.142C184.076 201.677 184.432 201.301 184.91 201.301C185.389 201.301 185.751 201.677 185.751 202.142C185.751 202.606 185.389 202.976 184.91 202.976C184.432 202.976 184.076 202.606 184.076 202.142ZM184.076 207.303C184.076 206.838 184.432 206.462 184.91 206.462C185.389 206.462 185.751 206.838 185.751 207.303C185.751 207.768 185.389 208.137 184.91 208.137C184.432 208.137 184.076 207.768 184.076 207.303ZM192.682 208V200.016H190.912V198.717H194.118V208H192.682ZM200.123 208.137C197.86 208.137 196.417 206.271 196.417 203.358C196.417 200.453 197.86 198.58 200.123 198.58C202.385 198.58 203.821 200.453 203.821 203.358C203.821 206.271 202.385 208.137 200.123 208.137ZM200.123 199.934C198.762 199.934 197.853 201.26 197.853 203.358C197.853 205.464 198.762 206.776 200.123 206.776C201.476 206.776 202.385 205.464 202.385 203.358C202.385 201.26 201.476 199.934 200.123 199.934ZM209.754 208V198.717H211.456L214.662 205.32L217.875 198.717H219.57V208H218.121V201.349L215.174 207.344H214.149L211.203 201.349V208H209.754ZM226.676 208H222.396V198.717H226.402C228.159 198.717 229.232 199.899 229.232 201.314C229.232 202.06 228.849 202.818 228.214 203.188C229.082 203.557 229.581 204.404 229.581 205.313C229.581 206.824 228.357 208 226.676 208ZM223.839 202.668H226.402C227.257 202.668 227.783 202.046 227.783 201.349C227.783 200.679 227.298 199.995 226.402 199.995H223.839V202.668ZM223.839 203.878V206.715H226.676C227.585 206.715 228.159 206.052 228.159 205.286C228.159 204.555 227.557 203.878 226.676 203.878H223.839Z" fill="white"/>
<path d="M94.1484 104.412H97.6826V113.554C97.6826 115.144 98.7139 116.153 100.325 116.153C101.958 116.153 102.979 115.154 102.979 113.554V104.412H106.513V113.747C106.513 117.142 104.171 119.215 100.325 119.215C96.4258 119.215 94.1484 117.206 94.1484 113.747V104.412ZM110.138 123.297V108.688H113.317L113.425 109.772C114.026 109.021 114.993 108.473 116.551 108.473C119.462 108.473 121.363 110.771 121.363 113.865C121.363 116.938 119.462 119.215 116.551 119.215C115.272 119.215 114.134 118.828 113.521 118.237V123.297H110.138ZM115.681 111.502C114.413 111.502 113.478 112.458 113.478 113.844C113.478 115.219 114.413 116.186 115.681 116.186C116.97 116.186 117.958 115.219 117.958 113.844C117.958 112.415 116.98 111.502 115.681 111.502ZM127.652 103.875V119H124.268V103.875H127.652ZM130.525 113.844C130.525 110.771 132.877 108.473 136.068 108.473C139.258 108.473 141.611 110.771 141.611 113.844C141.611 116.916 139.258 119.215 136.068 119.215C132.877 119.215 130.525 116.916 130.525 113.844ZM133.876 113.844C133.876 115.154 134.779 116.132 136.068 116.132C137.357 116.132 138.259 115.154 138.259 113.844C138.259 112.565 137.357 111.588 136.068 111.588C134.779 111.588 133.876 112.565 133.876 113.844ZM147.653 119.215C145.472 119.215 143.807 118.033 143.807 116.078C143.807 114.026 145.827 112.791 148.168 112.791C148.91 112.791 149.608 112.888 150.231 113.06V112.855C150.231 112.05 149.522 111.459 148.297 111.459C147.255 111.459 146.364 111.996 145.816 112.608L143.947 110.6C144.731 109.729 146.342 108.473 148.587 108.473C151.724 108.473 153.615 110.127 153.615 112.877V119H150.403V117.947C149.876 118.656 148.877 119.215 147.653 119.215ZM147.051 115.874C147.051 116.486 147.61 116.905 148.394 116.905C149.425 116.905 150.231 116.207 150.231 115.111C149.866 114.95 149.275 114.843 148.77 114.843C147.717 114.843 147.051 115.208 147.051 115.874ZM161.193 119.215C158.281 119.215 156.38 116.938 156.38 113.865C156.38 110.771 158.281 108.473 161.193 108.473C162.75 108.473 163.717 109.021 164.319 109.772V103.875H167.606V119H164.329L164.222 118.205C163.61 118.828 162.471 119.215 161.193 119.215ZM159.785 113.844C159.785 115.219 160.774 116.186 162.063 116.186C163.33 116.186 164.265 115.219 164.265 113.844C164.265 112.458 163.33 111.502 162.063 111.502C160.763 111.502 159.785 112.415 159.785 113.844ZM180.345 119H176.961V108.688H180.151L180.259 110.095C180.742 109.074 181.763 108.473 182.955 108.473C183.363 108.473 183.782 108.548 184.212 108.688L184.008 111.642C183.578 111.491 183.138 111.416 182.708 111.416C181.43 111.416 180.345 112.114 180.345 114.037V119ZM185.441 113.844C185.441 110.707 187.547 108.473 190.651 108.473C193.186 108.473 195.807 110.062 195.807 113.511C195.807 113.887 195.775 114.295 195.711 114.714H188.75C188.889 115.831 189.964 116.357 191.027 116.357C191.951 116.357 192.778 115.777 193.337 115.079L195.485 116.97C194.701 118.216 193.079 119.215 190.984 119.215C187.708 119.215 185.441 116.98 185.441 113.844ZM190.748 111.137C189.566 111.137 188.868 111.878 188.75 112.727H192.681C192.649 111.921 191.833 111.137 190.748 111.137ZM203.385 119.215C200.195 119.215 197.95 116.916 197.95 113.844C197.95 110.771 200.302 108.473 203.493 108.473C205.738 108.473 207.467 109.719 208.284 111.233L205.673 113.092C205.287 112.146 204.47 111.588 203.493 111.588C202.204 111.588 201.301 112.565 201.301 113.844C201.301 115.154 202.204 116.132 203.493 116.132C204.707 116.132 205.394 115.283 205.749 114.66L208.305 116.529C207.231 118.227 205.587 119.215 203.385 119.215ZM210.125 113.844C210.125 110.771 212.478 108.473 215.668 108.473C218.859 108.473 221.211 110.771 221.211 113.844C221.211 116.916 218.859 119.215 215.668 119.215C212.478 119.215 210.125 116.916 210.125 113.844ZM213.477 113.844C213.477 115.154 214.379 116.132 215.668 116.132C216.957 116.132 217.86 115.154 217.86 113.844C217.86 112.565 216.957 111.588 215.668 111.588C214.379 111.588 213.477 112.565 213.477 113.844ZM227.479 119H224.095V108.688H227.285L227.393 110.095C227.876 109.074 228.897 108.473 230.089 108.473C230.497 108.473 230.916 108.548 231.346 108.688L231.142 111.642C230.712 111.491 230.272 111.416 229.842 111.416C228.564 111.416 227.479 112.114 227.479 114.037V119ZM237.441 119.215C234.53 119.215 232.629 116.938 232.629 113.865C232.629 110.771 234.53 108.473 237.441 108.473C238.999 108.473 239.966 109.021 240.567 109.772V103.875H243.855V119H240.578L240.471 118.205C239.858 118.828 238.72 119.215 237.441 119.215ZM236.034 113.844C236.034 115.219 237.023 116.186 238.312 116.186C239.579 116.186 240.514 115.219 240.514 113.844C240.514 112.458 239.579 111.502 238.312 111.502C237.012 111.502 236.034 112.415 236.034 113.844ZM247.286 105.519C247.286 104.423 248.038 103.66 249.134 103.66C250.229 103.66 251.003 104.412 251.003 105.519C251.003 106.614 250.229 107.366 249.134 107.366C248.049 107.366 247.286 106.614 247.286 105.519ZM247.501 108.688H250.885V119H247.501V108.688ZM257.614 119H254.23V108.688H257.335L257.442 109.772C258.173 108.849 259.419 108.473 260.633 108.473C262.577 108.473 264.446 109.837 264.446 112.297V119H261.062V113.264C261.062 112.114 260.149 111.566 259.333 111.566C258.484 111.566 257.614 112.114 257.614 113.264V119ZM266.964 121.277L268.973 119.269C269.929 120.192 270.864 120.611 272.142 120.611C273.292 120.611 274.806 120.031 274.806 118.495V117.915C274.215 118.646 273.216 119.215 271.766 119.215C269.016 119.215 266.997 116.938 266.997 113.854C266.997 110.771 269.016 108.473 271.766 108.473C273.216 108.473 274.215 109.053 274.806 109.772L274.914 108.688H278.19V118.635C278.19 122.04 275.064 123.512 272.185 123.512C269.951 123.512 268.125 122.642 266.964 121.277ZM272.572 111.48C271.261 111.48 270.348 112.458 270.348 113.854C270.348 115.251 271.261 116.229 272.572 116.229C273.882 116.229 274.796 115.251 274.796 113.854C274.796 112.458 273.882 111.491 272.572 111.48Z" fill="white"/>
<mask id="mask0_1178_67030" style="mask-type:alpha" maskUnits="userSpaceOnUse" x="50" y="98" width="82" height="81">
<rect x="50.5898" y="98" width="80.5106" height="80.5106" fill="#D9D9D9"/>
</mask>
<g mask="url(#mask0_1178_67030)">
<path d="M68.8317 109.804H66.5192V115.496C66.516 116.406 65.7722 117.143 64.8563 117.143H59.3738C58.9321 117.144 58.5098 116.972 58.198 116.662C57.8863 116.354 57.7109 115.933 57.7109 115.496V109.804H55.3919C54.6757 109.806 54.0213 109.394 53.7177 108.749C53.4124 108.103 53.513 107.341 53.9742 106.795L60.6924 98.8006C61.0447 98.3845 61.5644 98.1426 62.1117 98.1426C62.6589 98.1426 63.1786 98.3845 63.531 98.8006L70.2541 106.795C70.7169 107.341 70.816 108.106 70.5107 108.751C70.2054 109.396 69.5495 109.807 68.8317 109.804Z" fill="white"/>
<path d="M52.7927 120.901C52.6545 120.315 52.0783 119.943 51.4881 120.062C50.8978 120.179 50.5071 120.744 50.6048 121.337L50.902 122.796H50.9034C51.2941 124.734 52.342 126.477 53.8713 127.731C55.3992 128.984 57.3136 129.672 59.2894 129.677C61.3348 129.677 62.691 129.677 64.9461 129.677C66.9233 129.673 68.8378 128.986 70.367 127.732C71.8963 126.479 72.9456 124.735 73.3377 122.798L73.6349 121.339V121.337C73.7326 120.744 73.3419 120.179 72.7516 120.062C72.1628 119.944 71.5852 120.315 71.447 120.901L71.1498 122.36C70.8596 123.793 70.0838 125.081 68.9536 126.008C67.8233 126.934 66.4071 127.442 64.9461 127.445H59.2894C57.8285 127.442 56.4122 126.934 55.2819 126.006C54.1516 125.08 53.3773 123.792 53.0884 122.359L52.7927 120.901Z" fill="white"/>
</g>
</g>
<rect x="16.5" y="16.5" width="299" height="224" rx="7.5" stroke="white" stroke-opacity="0.85"/>
</g>
<defs>
<filter id="filter0_d_1178_67030" x="-20" y="-16" width="372" height="297" filterUnits="userSpaceOnUse" color-interpolation-filters="sRGB">
<feFlood flood-opacity="0" result="BackgroundImageFix"/>
<feColorMatrix in="SourceAlpha" type="matrix" values="0 0 0 0 0 0 0 0 0 0 0 0 0 0 0 0 0 0 127 0" result="hardAlpha"/>
<feOffset dy="4"/>
<feGaussianBlur stdDeviation="18"/>
<feComposite in2="hardAlpha" operator="out"/>
<feColorMatrix type="matrix" values="0 0 0 0 0.0189427 0 0 0 0 0.25356 0 0 0 0 0.25152 0 0 0 0.36 0"/>
<feBlend mode="normal" in2="BackgroundImageFix" result="effect1_dropShadow_1178_67030"/>
<feBlend mode="normal" in="SourceGraphic" in2="effect1_dropShadow_1178_67030" result="shape"/>
</filter>
<linearGradient id="paint0_linear_1178_67030" x1="455.636" y1="316.161" x2="241.387" y2="107.299" gradientUnits="userSpaceOnUse">
<stop stop-color="#A7F2D7"/>
<stop offset="1" stop-color="#2E8D8A"/>
</linearGradient>
<linearGradient id="paint1_linear_1178_67030" x1="460.37" y1="299.541" x2="260.243" y2="87.0894" gradientUnits="userSpaceOnUse">
<stop stop-color="#A7F2D7"/>
<stop offset="1" stop-color="#2E8D8A"/>
</linearGradient>
<linearGradient id="paint2_linear_1178_67030" x1="465.325" y1="278.038" x2="281.718" y2="63.5175" gradientUnits="userSpaceOnUse">
<stop stop-color="#A7F2D7"/>
<stop offset="1" stop-color="#2E8D8A"/>
</linearGradient>
<linearGradient id="paint3_linear_1178_67030" x1="469.799" y1="248.54" x2="320.936" y2="40.1147" gradientUnits="userSpaceOnUse">
<stop stop-color="#A7F2D7"/>
<stop offset="1" stop-color="#2E8D8A"/>
</linearGradient>
<linearGradient id="paint4_linear_1178_67030" x1="470.273" y1="212.279" x2="355.415" y2="18.1908" gradientUnits="userSpaceOnUse">
<stop stop-color="#A7F2D7"/>
<stop offset="1" stop-color="#2E8D8A"/>
</linearGradient>
<linearGradient id="paint5_linear_1178_67030" x1="469.259" y1="171.098" x2="372.181" y2="-11.7465" gradientUnits="userSpaceOnUse">
<stop stop-color="#A7F2D7"/>
<stop offset="1" stop-color="#2E8D8A"/>
</linearGradient>
<linearGradient id="paint6_linear_1178_67030" x1="465.153" y1="141.502" x2="358.269" y2="-46.2762" gradientUnits="userSpaceOnUse">
<stop stop-color="#A7F2D7"/>
<stop offset="1" stop-color="#2E8D8A"/>
</linearGradient>
<linearGradient id="paint7_linear_1178_67030" x1="460.714" y1="127.326" x2="323.425" y2="-73.456" gradientUnits="userSpaceOnUse">
<stop stop-color="#A7F2D7"/>
<stop offset="1" stop-color="#2E8D8A"/>
</linearGradient>
<linearGradient id="paint8_linear_1178_67030" x1="456.388" y1="112.217" x2="303.699" y2="-91.3553" gradientUnits="userSpaceOnUse">
<stop stop-color="#A7F2D7"/>
<stop offset="1" stop-color="#2E8D8A"/>
</linearGradient>
<linearGradient id="paint9_linear_1178_67030" x1="451.539" y1="94.6659" x2="299.062" y2="-105.751" gradientUnits="userSpaceOnUse">
<stop stop-color="#A7F2D7"/>
<stop offset="1" stop-color="#2E8D8A"/>
</linearGradient>
<linearGradient id="paint10_linear_1178_67030" x1="447.599" y1="75.0777" x2="307.148" y2="-118.526" gradientUnits="userSpaceOnUse">
<stop stop-color="#A7F2D7"/>
<stop offset="1" stop-color="#2E8D8A"/>
</linearGradient>
<linearGradient id="paint11_linear_1178_67030" x1="444.665" y1="56.473" x2="311.356" y2="-130.664" gradientUnits="userSpaceOnUse">
<stop stop-color="#A7F2D7"/>
<stop offset="1" stop-color="#2E8D8A"/>
</linearGradient>
<linearGradient id="paint12_linear_1178_67030" x1="439.401" y1="41.9088" x2="296.336" y2="-142.738" gradientUnits="userSpaceOnUse">
<stop stop-color="#A7F2D7"/>
<stop offset="1" stop-color="#2E8D8A"/>
</linearGradient>
<linearGradient id="paint13_linear_1178_67030" x1="431.397" y1="28.6928" x2="265.804" y2="-151.232" gradientUnits="userSpaceOnUse">
<stop stop-color="#A7F2D7"/>
<stop offset="1" stop-color="#2E8D8A"/>
</linearGradient>
<linearGradient id="paint14_linear_1178_67030" x1="417.429" y1="16.8261" x2="234.244" y2="-148.403" gradientUnits="userSpaceOnUse">
<stop stop-color="#A7F2D7"/>
<stop offset="1" stop-color="#2E8D8A"/>
</linearGradient>
<linearGradient id="paint15_linear_1178_67030" x1="405.788" y1="-1.36673" x2="228.919" y2="-152.082" gradientUnits="userSpaceOnUse">
<stop stop-color="#A7F2D7"/>
<stop offset="1" stop-color="#2E8D8A"/>
</linearGradient>
<clipPath id="clip0_1178_67030">
<rect x="16" y="16" width="300" height="225" rx="8" fill="white"/>
</clipPath>
</defs>
</svg>
