<svg width="766" height="1246" viewBox="0 0 766 1246" fill="none" xmlns="http://www.w3.org/2000/svg">
<g clip-path="url(#clip0_1660_131698)">
<path d="M483.187 1016.81C477.419 1024.05 472.047 1031.53 466.675 1039C470.55 1035.95 474.426 1032.9 478.531 1029.45C480.988 1026.11 483.674 1022.38 486.131 1019.04C491.442 1012.59 497.211 1005.34 503.834 997.534C527.243 969.808 555.383 938.469 585.902 908.503C589.046 903.974 591.794 899.215 594.541 894.456C558.895 927.807 527.611 963.676 500.723 994.68C494.267 1003.11 488.498 1010.36 483.187 1016.81Z" fill="url(#paint0_linear_1660_131698)" fill-opacity="0.2"/>
<path d="M513.225 953.793C506.999 961.83 501.23 969.073 496.087 976.15C476.659 1002.47 458.818 1029.71 441.602 1056.78C441.144 1057.58 440.686 1058.37 440.228 1059.16C443.02 1057.08 446.209 1055.21 449.002 1053.13C464.844 1028.43 481.541 1003.18 499.199 979.003C504.342 971.927 510.11 964.683 516.336 956.646L523.646 947.648C554.489 908.88 587.956 867.397 626.73 833.208C627.936 830.204 628.913 827.595 630.516 824.819C588.844 859.45 553.544 904.105 520.535 944.795L513.225 953.793Z" fill="url(#paint1_linear_1660_131698)" fill-opacity="0.2"/>
<path d="M509.913 920.152C504.541 927.626 499.795 934.931 495.277 941.84C491.675 947.163 488.241 953.111 484.578 959.456C479.083 968.973 473.756 979.116 468.49 988.236C463.621 997.586 457.897 1007.5 452.402 1017.02C442.1 1034.86 432.439 1048.85 422.733 1060.16C417.422 1066.61 411.715 1072.84 405.382 1079.23C409.425 1076.8 413.469 1074.38 417.512 1071.95C420.366 1068.84 423.219 1065.73 425.448 1062.79C435.382 1051.08 445.043 1037.09 455.575 1018.85C461.07 1009.33 466.397 999.189 471.663 990.068C476.761 980.322 482.255 970.805 487.75 961.287C491.413 954.943 494.848 948.994 498.221 944.067C502.739 937.159 507.485 929.853 512.857 922.38C547.608 873.179 589.82 819.298 646.749 776.557C647.498 774.345 648.246 772.133 648.597 769.693C629.28 783.919 610.466 800.022 592.322 818.627C565.846 846.169 539.689 878.654 509.913 920.152Z" fill="url(#paint2_linear_1660_131698)" fill-opacity="0.2"/>
<path d="M482.395 900.043C478.732 906.388 475.236 913.359 472.198 919.536C466.123 931.89 461.008 945.328 456.351 957.973C449.802 974.812 443.191 992.673 434.033 1008.54C429.454 1016.47 424.311 1023.54 419.229 1029.6C382.009 1072.09 330.926 1102.87 280.424 1130.81C286.053 1129.31 291.682 1127.8 297.312 1126.29C342.978 1100.31 388.432 1071.03 422.34 1032.45C428.048 1026.23 432.794 1018.92 437.602 1010.6C446.989 994.337 453.371 976.872 460.15 959.637C464.806 946.992 469.921 933.554 475.767 921.596C479.034 915.023 482.3 908.449 485.964 902.104C527.297 828.68 590.498 780.571 658.061 734.981C658.581 733.166 658.703 731.122 659.222 729.307C621.794 754.755 590.911 777.109 563.139 802.316C528.7 832.662 502.146 864.918 482.395 900.043Z" fill="url(#paint3_linear_1660_131698)" fill-opacity="0.2"/>
<path d="M655.463 706.514C643.606 716.059 630.103 725.711 615.745 735.927C602.47 745.183 589.425 754.041 574.899 763.632C521.694 799.006 466.384 835.28 434.789 890.004C433.415 892.384 432.27 894.366 430.897 896.745C428.317 902.13 425.737 907.513 423.554 913.126C418.668 926.168 416.391 940.186 413.717 953.976C411.026 971.457 407.481 989.502 398.781 1004.57C397.179 1007.35 395.576 1010.12 393.577 1012.67C360.216 1055.8 303.017 1082.52 252.364 1106.15C246.673 1108.68 241.379 1111.44 235.688 1113.97C221.117 1120.89 205.921 1127.98 192.831 1134.17C182.929 1138.5 173.195 1143.45 163.293 1147.78C166.984 1147.8 170.279 1147.59 173.971 1147.6C181.142 1144.34 187.687 1141.25 194.858 1137.99C209.2 1131.46 223.77 1124.54 237.715 1117.79C243.01 1115.03 248.472 1112.89 254.162 1110.36C305.045 1086.34 362.869 1059.45 396.688 1015.52C398.687 1012.98 400.519 1009.8 402.121 1007.03C411.279 991.166 414.657 972.495 417.576 954.618C420.021 941.225 422.069 927.603 426.955 914.562C428.909 909.345 431.489 903.961 434.069 898.577C435.443 896.198 436.587 894.215 437.961 891.836C468.869 838.301 523.783 801.799 576.759 766.821C591.056 757.627 604.33 748.372 617.605 739.117C631.963 728.9 645.696 718.851 657.323 709.702L660.969 707.049C661.595 706.882 662.053 706.088 662.679 705.921C662.801 703.876 663.32 702.061 663.443 700.017C661.734 701.146 660.193 702.9 658.484 704.028L655.463 706.514Z" fill="url(#paint4_linear_1660_131698)" fill-opacity="0.2"/>
<path d="M599.87 730.46C586.305 741.134 572.344 751.579 557.589 761.566C536.396 776.296 514.012 790.339 492.483 803.817C473.289 815.999 453.24 828.746 433.816 841.325C409.663 857.518 382.823 877.448 366.339 905.999L365.652 907.188C363.134 911.55 361.012 916.142 359.515 920.566C355.255 933.439 355.312 946.162 355.766 959.113C356.325 973.712 356.321 987.456 350.017 1000.21C349.33 1001.4 348.414 1002.98 347.727 1004.17C325.061 1043.43 267.299 1069.3 224.961 1087.68C218.019 1090.55 211.473 1093.64 205.554 1096.57C186.772 1105.29 167.594 1113.78 149.896 1121.54C132.198 1129.3 114.5 1137.06 96.9691 1145.44C100.035 1145.63 102.476 1145.98 105.542 1146.16C121.135 1139.3 136.331 1132.22 151.924 1125.36C170.247 1117.43 189.029 1108.71 207.581 1100.39C213.501 1097.46 220.214 1094.99 226.988 1091.5C249.752 1081.38 275.871 1070.02 299.109 1055.41C326.39 1038.38 344.244 1021.2 353.814 1001.87C360.577 988.328 360.414 973.957 360.312 958.565C360.026 946.239 359.969 933.517 363.771 921.436C365.268 917.013 367.161 912.818 369.679 908.456L370.366 907.266C386.393 879.507 413.003 859.975 436.531 843.95C455.558 831.142 475.607 818.395 494.801 806.213C516.33 792.734 538.713 778.692 560.136 763.566C574.891 753.579 588.852 743.134 602.417 732.46C633.423 708.062 654.024 686.117 667.699 663.346C667.883 660.28 668.067 657.214 668.251 654.147C667.336 655.734 666.42 657.32 665.504 658.906C651.935 683.324 631.959 705.102 599.87 730.46Z" fill="url(#paint5_linear_1660_131698)" fill-opacity="0.2"/>
<path d="M616 461.662L616.274 463.934C624.879 508.557 633.987 555.057 631.913 599.86C630.91 633.649 622.602 662.692 607.72 688.468C592.839 714.244 570.697 737.942 539.127 761.485C525.166 771.93 510.808 782.146 496.114 791.111C467.521 809.5 437.402 825.95 407.91 842.233C397.092 848.148 384.795 854.795 372.894 861.671L369.934 863.135C342.546 878.519 311.741 896.158 293.107 922.94C290.421 926.676 288.131 930.642 286.635 935.065C281.291 948.9 283.621 961.348 285.555 973.568C287.611 983.743 289.438 994.316 286.155 1004.58C284.887 1008.61 283.223 1012.41 280.934 1016.37C274.065 1028.27 262.087 1039.86 244.601 1050.91C224.552 1063.66 201.163 1073.95 181.985 1082.44C176.294 1084.97 169.978 1087.67 164.913 1090.03C146.986 1098.19 128.83 1106.74 111.132 1114.5C93.434 1122.26 75.507 1130.41 57.351 1138.96C59.7917 1139.31 62.232 1139.67 64.6726 1140.02C80.7231 1132.37 96.9415 1125.34 112.763 1118.08C130.461 1110.32 149.014 1102 166.544 1093.62C171.609 1091.25 177.925 1088.55 183.616 1086.02C202.794 1077.53 226.184 1067.24 246.858 1054.33C265.198 1042.71 277.405 1030.73 284.503 1018.43C286.792 1014.47 288.685 1010.27 289.785 1005.62C293.129 994.332 291.135 983.135 289.307 972.563C287.145 960.739 284.983 948.916 290.265 936.104C291.929 932.306 293.99 928.737 296.279 924.771C314.456 898.783 343.552 882.271 371.794 866.324L374.754 864.86C386.426 858.38 398.953 851.337 409.77 845.421C439.263 829.138 469.381 812.689 497.974 794.301C512.896 784.939 527.255 774.722 541.216 764.277C572.389 740.505 593.845 717.996 608.894 692.846C625.317 665.316 633.915 634.855 635.437 599.251C637.343 553.822 628.235 507.323 619.463 462.075C618.351 456.674 617.239 451.274 616.524 446.102C612.641 425.354 610.344 405.522 609.801 387.231C608.337 384.271 607.041 381.937 605.349 379.373C605.311 400.501 607.653 423.003 612.375 446.878C613.883 452.508 614.827 457.283 616 461.662Z" fill="url(#paint6_linear_1660_131698)" fill-opacity="0.2"/>
<path d="M575.403 471.539C576.057 477.733 576.482 484.323 576.511 490.684L576.617 492.331C579.592 538.463 583.299 586.075 577.701 631.487C573.8 665.717 564.699 694.301 550.046 719.681C534.249 747.043 511.481 770.909 480.431 792.637C468.011 801.328 453.317 810.294 438.227 819.03C411.069 834.017 382.553 847.691 354.892 860.801C339.467 868.287 323.646 875.542 307.992 883.424L307.366 883.592C276.684 899.188 244.979 914.722 222.318 940.236C219.235 943.744 216.549 947.481 214.26 951.446L214.031 951.842C205.102 967.308 208.454 979.818 211.806 992.328C213.588 1000.23 215.767 1008.36 215.215 1017.56C214.679 1023.07 212.893 1028.91 209.687 1034.46C195.492 1059.05 158.784 1075.92 131.977 1088.47C127.767 1090.27 123.327 1092.46 119.512 1094.49C102.607 1102.71 85.3058 1110.7 68.8588 1118.12C56.6226 1123.74 44.1571 1129.77 31.692 1135.79C33.9037 1136.54 35.9482 1136.66 38.1599 1137.41C49.145 1132.12 59.901 1127.22 70.6572 1122.33C87.3332 1114.51 104.635 1106.52 121.54 1098.3C125.125 1096.67 129.565 1094.48 134.005 1092.28C161.437 1079.57 198.771 1062.53 213.653 1036.75C217.087 1030.8 219.103 1024.56 219.868 1018.66C220.878 1008.67 218.928 1000.14 216.749 992.009C213.564 980.125 210.777 968.469 218.79 954.589L219.018 954.194C221.079 950.625 223.536 947.284 226.619 943.777C248.822 919.056 280.13 903.293 310.584 888.093L310.813 887.696C326.238 880.211 341.892 872.329 357.088 865.241L357.316 864.845C384.978 851.734 413.493 838.06 440.652 823.073C456.138 814.566 470.435 805.372 483.252 796.909C513.448 775.745 536.154 752.901 552.119 726.165C568.084 699.428 578.101 669.257 582.125 632.982C587.326 587.341 584.244 539.563 580.873 493.203C580.448 486.613 579.855 479.397 579.659 472.41C576.79 427.926 579.808 387.898 589.4 351.137C588.272 349.428 587.54 347.948 586.412 346.239C585.312 350.892 584.212 355.544 583.112 360.196C574.788 392.93 572.35 430.121 575.403 471.539Z" fill="url(#paint7_linear_1660_131698)" fill-opacity="0.2"/>
<path d="M539.11 484.947C539.139 491.308 538.542 497.837 538.57 504.198C537.212 554.172 535.731 606.19 526.425 655.277C519.793 690.575 509.67 719.098 495.933 742.891C479.906 770.65 457.658 792.701 428.958 809.442C417.057 816.318 404.134 823.132 389.564 830.053C368.677 839.672 347.226 848.437 324.127 857.308C265.923 880.278 205.613 904.148 160.613 946.374C155.196 951.178 151.655 955.479 149.198 958.819C147.199 961.366 145.596 964.142 144.223 966.521C138.27 976.831 135.445 986.304 135.792 997.608C136.049 1003.57 137.558 1009.2 139.296 1014.43C141.201 1020.29 143.273 1026.78 142.447 1033.7C141.911 1039.21 139.728 1044.82 136.752 1049.98C132.631 1057.11 126.694 1063.73 118.318 1070C105.607 1080.11 89.9529 1087.99 77.2589 1094.41C74.2989 1095.87 71.9646 1097.17 69.0048 1098.63C54.3728 1106.58 38.5513 1113.83 21.4787 1121.42L20.6243 1121.99C16.1845 1124.18 11.3482 1126.15 6.9084 1128.34C8.72355 1128.86 10.9351 1129.61 12.9792 1129.74C16.3356 1128.5 19.5242 1126.64 22.8807 1125.41L23.5064 1125.24C40.1825 1117.42 56.2332 1109.77 71.2616 1102.05C73.596 1100.76 76.5557 1099.29 79.5156 1097.83C92.2097 1091.41 108.093 1083.13 121.429 1072.85C130.264 1065.79 136.429 1058.78 140.779 1051.24C143.984 1045.69 146 1039.45 146.764 1033.55C147.423 1026 145.579 1019.12 143.506 1012.64C141.769 1007.4 140.428 1002.4 139.942 996.831C139.93 986.778 142.297 978.098 148.021 968.184C149.395 965.805 150.768 963.426 152.767 960.879C155.224 957.539 158.536 953.635 163.328 948.999C207.702 906.94 267.783 883.467 325.591 860.268C348.293 851.168 370.14 842.633 391.027 833.014C405.598 826.093 419.146 819.11 431.047 812.234C459.976 795.097 481.995 773.442 498.647 745.516C513.239 721.159 523.423 691.613 530.346 654.897C539.652 605.81 541.133 553.792 542.323 503.192L542.614 501.773C542.982 495.641 543.121 489.905 543.093 483.544C544.958 421.701 554.615 370.174 572.539 324.477C571.807 322.997 570.451 321.684 569.49 320.601C563.75 334.206 558.97 348.895 555.213 363.645C545.85 400.009 540.62 439.289 539.11 484.947Z" fill="url(#paint8_linear_1660_131698)" fill-opacity="0.2"/>
<path d="M505.918 477.414L505.857 478.436C500.59 538.843 495.826 601.127 481.818 660.189C475.096 690.147 466.436 721.631 450.868 748.596C435.757 774.769 416.424 792.687 391.555 803.708C379.319 809.333 365.1 813.813 354.009 817.456C304.639 833.366 264.529 848.807 228.614 866.14C184.673 887.299 147.993 910.536 116.636 937.374C110.593 942.345 105.344 947.774 101.346 952.868C94.9518 960.279 90.0375 966.96 85.6874 974.494C81.5663 981.632 78.696 988.435 77.2445 995.528C75.5027 1004.04 76.2629 1011.88 77.252 1019.33C77.9673 1024.5 78.6832 1029.67 78.3765 1034.78C77.992 1044.6 75.3954 1053.68 70.8164 1061.61C60.5137 1079.45 41.3194 1091.64 20.7063 1103.53C9.65984 1109.84 -1.78308 1115.92 -12.8296 1122.24C-11.0144 1122.75 -9.19966 1123.27 -7.38451 1123.79C2.57861 1118.44 12.7706 1112.7 22.9627 1106.95C37.427 1098.38 51.8917 1089.81 62.6194 1078.55C67.4109 1073.92 71.409 1068.83 74.3854 1063.67C79.4222 1054.95 82.2477 1045.47 82.6936 1034.63C82.8327 1028.89 82.3463 1023.32 81.631 1018.15C80.6419 1010.71 79.8202 1003.89 81.7296 996.002C83.3487 989.535 85.5929 982.9 89.485 976.159C93.6061 969.021 98.5205 962.34 104.686 955.325C108.684 950.231 114.33 945.031 119.747 940.228C192.38 878.53 283.69 844.007 355.868 820.645C366.96 817.003 381.179 812.522 393.812 807.125C419.535 795.54 439.723 777.058 455.063 750.489C455.749 749.299 456.665 747.713 457.352 746.524C471.67 719.893 480.329 688.41 486.699 660.893C500.31 601.602 505.7 539.15 510.571 478.514L510.632 477.492C516.144 412.996 523.182 350.438 549.499 294.782C548.538 293.699 547.577 292.615 546.617 291.532C537.213 311.482 529.335 333.37 523.378 357.425C513.205 397.023 508.875 438.408 505.918 477.414Z" fill="url(#paint9_linear_1660_131698)" fill-opacity="0.2"/>
<path d="M467.885 448.045C465.091 501.421 459.44 571.652 443.981 637.807C436.053 670.77 428.019 702.086 411.825 729.219C397.462 753.18 377.307 764.279 350.913 773.362C339.822 777.005 328.334 780.418 316.846 783.831L312.467 785.005C271.519 797.318 233.102 815.321 194.317 839.457C161.909 859.873 129.423 885.003 91.2753 919.024C83.9205 925.352 78.9003 930.385 74.1088 935.02C62.0687 947.632 51.1118 959.284 43.0986 973.163C42.1828 974.749 41.2671 976.335 40.3513 977.922C34.2759 990.276 32.1213 1002.25 29.9052 1015.25C28.6826 1021.94 27.8568 1028.87 26.2377 1035.34C23.5801 1045.43 20.1909 1054.05 15.6119 1061.98C6.91181 1077.05 -6.37934 1090 -25.6351 1103.2C-29.9074 1106.02 -34.8055 1109.01 -40.1612 1112.79C-38.346 1113.31 -37.1559 1114 -35.3407 1114.52C-31.0685 1111.7 -27.0257 1109.27 -23.3789 1106.62C-8.6243 1096.63 1.98089 1087.42 10.2066 1076.84C13.5181 1072.94 16.6625 1068.4 19.181 1064.04C23.9889 1055.72 27.6068 1046.7 30.2644 1036.6C32.1124 1029.74 32.9385 1022.81 34.1611 1016.12C36.1482 1003.52 38.3029 991.544 43.9203 979.982C44.8361 978.396 45.7522 976.809 46.439 975.62C54.2233 962.137 64.5541 950.654 76.5942 938.042C80.9891 933.177 86.4066 928.373 93.3649 921.816C149.931 871.462 220.318 816.4 312.847 788.926L317.226 787.753C328.714 784.339 340.202 780.925 351.294 777.283C378.313 768.032 399.719 756.598 414.768 731.448C414.997 731.051 415.455 730.258 415.684 729.861C431.482 702.499 439.516 671.184 447.214 638.617C462.902 572.065 468.325 502.231 470.95 448.23C474.664 379.524 480.696 313.212 511.453 255.361C510.492 254.277 509.303 253.591 508.342 252.507C496.543 274.775 487.29 299.043 481.088 327.186C472.96 366.907 470.048 408.582 467.885 448.045Z" fill="url(#paint10_linear_1660_131698)" fill-opacity="0.2"/>
<path d="M434.087 283.14C423.853 323.761 420.986 368.106 419.113 406.151C416.47 463.844 411.171 531.634 395.377 596.538C387.449 629.501 378.56 661.381 361.802 687.66C347.73 710.202 327.178 721.072 300.388 729.926C295.155 731.664 289.922 733.401 285.086 735.367L284.46 735.535C277.747 738.004 270.637 740.245 264.153 742.317C184.743 769.964 133.088 827.381 78.3492 888.307L70.8713 896.68C64.0807 903.863 59.2282 909.52 55.2298 914.614L54.772 915.407C43.525 928.477 32.4455 942.172 22.9523 956.783C14.6039 969.411 10.5723 981.889 6.47971 995.388C4.75438 1000.21 3.19668 1005.65 1.24239 1010.87C-1.91798 1019.09 -5.70399 1027.48 -10.054 1035.02C-22.1883 1056.03 -39.768 1075.49 -62.5643 1093C-65.1276 1094.69 -67.5231 1097.01 -70.0864 1098.7C-68.8968 1099.39 -67.082 1099.91 -65.8923 1100.59C-63.9545 1099.07 -62.0166 1097.54 -60.0787 1096.02C-37.2825 1078.51 -19.2449 1058.26 -6.88166 1036.85C-2.30265 1028.92 1.48324 1020.53 4.87255 1011.91C6.82684 1006.69 8.38487 1001.25 10.3391 996.03C14.5994 983.156 18.6304 970.679 26.3533 958.219C35.6175 944.004 46.6971 930.309 57.7152 917.635L58.1729 916.842C62.5679 911.978 67.421 906.319 73.8151 898.907L81.2924 890.535C135.802 830.006 187.229 772.985 265.388 745.674C272.101 743.205 279.211 740.964 285.924 738.495C291.157 736.757 296.389 735.02 301.622 733.283C317.321 728.071 328.077 723.177 337.476 716.972C349.21 709.47 358.167 700.366 365.203 689.095C366.119 687.509 367.264 685.526 368.18 683.939C383.062 658.164 391.431 628.099 399.068 596.555C415.091 531.254 419.995 463.234 422.866 405.145C425.999 339.276 431.757 270.692 463.81 215.175C464.039 214.779 464.497 213.985 464.726 213.588C463.536 212.902 462.575 211.819 461.385 211.132C450.212 233.233 441.021 256.477 434.087 283.14Z" fill="url(#paint11_linear_1660_131698)" fill-opacity="0.2"/>
<path d="M-90.7994 1081.45C-55.8732 1056.68 -30.9389 1030.89 -15.7056 1002.67C-11.1266 994.742 -7.73729 986.124 -4.34796 977.506C-0.958639 968.888 2.43079 960.27 7.00977 952.339C15.5422 936.645 25.6611 921.866 35.5508 907.484C38.0079 904.144 40.2975 900.178 42.7546 896.838C46.3564 891.515 50.1874 885.796 53.7892 880.473L56.4752 876.736C63.4499 866.487 70.0282 856.009 76.3774 845.928C112.809 789.238 150.385 730.564 214.526 700.975C224.427 696.646 236.038 691.19 247.19 686.525C261.928 680.23 274.517 672.163 285.351 662.556C295.33 653.513 303.952 643.158 311.675 630.698C325.351 607.927 334.1 581.782 342.821 549.277C359.973 485.685 365.898 417.727 369.562 360.096C373.701 297.98 380.236 233.545 409.77 182.39C410.228 181.597 410.915 180.408 411.372 179.615C410.579 179.157 409.786 178.699 408.993 178.241C408.597 178.012 408.2 177.783 407.804 177.554C407.346 178.347 406.888 179.14 406.201 180.33C396.356 197.381 388.204 216.996 382.37 239.007C371.572 278.773 368.034 320.616 365.474 359.85C361.81 417.482 355.717 484.814 338.794 548.01C330.364 579.096 322.301 604.051 309.938 625.464C294.369 652.43 274.013 670.287 245.559 682.94C234.406 687.604 222.796 693.061 212.665 697.787C183.357 711.003 157.081 731.787 131.963 760.641C109.698 786.384 90.7111 815.606 72.5792 844.264C66.2299 854.346 59.0263 864.991 52.6771 875.073L50.2202 878.412C46.6183 883.735 42.7875 889.455 39.1856 894.778C36.7285 898.118 34.4389 902.083 31.9818 905.423C22.0921 919.805 12.1411 935.209 3.21209 950.675C-1.59583 959.002 -4.98537 967.621 -8.3747 976.239C-11.5351 984.46 -15.321 992.849 -19.2745 1000.61C-34.2789 1028.43 -58.5879 1054.05 -93.0562 1078.04C-95.6196 1079.73 -98.183 1081.42 -100.746 1083.11L-101.601 1083.68C-100.411 1084.37 -98.8248 1085.28 -97.6352 1085.97C-95.3008 1084.67 -92.9662 1083.38 -90.7994 1081.45Z" fill="url(#paint12_linear_1660_131698)" fill-opacity="0.2"/>
<path d="M-17.4934 970.973C-5.81698 950.749 3.938 928.358 13.6317 906.989C18.1657 896.388 22.929 885.391 27.8597 875.019C31.1263 868.445 34.4544 860.849 38.0113 852.857C43.6901 840.273 49.2012 827.065 55.109 814.085C66.8183 786.477 78.9853 758.077 93.867 732.301C114.015 697.405 136.218 672.684 162.935 654.799L166.124 652.939C174.043 647.465 182.587 641.823 191.299 636.807C216.185 622.094 236.038 602.36 251.377 575.791L251.835 574.998C266.488 549.619 275.818 520.638 283.255 495.852C301.306 434.365 309.427 370.846 315.258 311.294C320.905 254.807 328.719 196.398 354.087 149.712C352.898 149.025 351.479 148.735 350.289 148.048C343.13 161.363 336.474 176.555 331.405 192.662C319.707 230.323 314.751 271.876 310.773 310.82C304.941 370.373 296.821 433.891 279.228 494.584C271.501 520.789 262.461 548.351 248.495 572.541C233.385 598.713 213.928 618.676 189.272 632.993C180.56 638.009 172.015 643.65 164.096 649.124L161.304 651.213C133.733 669.663 111.529 694.383 90.9237 730.072C75.8131 756.245 63.6458 784.646 51.9365 812.253C46.6542 825.065 40.7463 838.046 35.0674 850.629C31.5105 858.622 28.0148 865.592 24.9158 872.791C19.9852 883.163 15.2225 894.16 10.6885 904.76C1.39138 926.358 -8.53167 948.124 -20.2081 968.348C-23.6423 974.296 -27.2436 979.619 -30.8455 984.941C-56.0583 1022.2 -94.7991 1049.01 -125.894 1068.07L-126.749 1068.63C-125.559 1069.32 -123.973 1070.23 -122.783 1070.92C-91.6879 1051.86 -53.1149 1024.43 -27.2765 987.002C-24.5291 982.243 -20.9276 976.921 -17.4934 970.973Z" fill="url(#paint13_linear_1660_131698)" fill-opacity="0.2"/>
<path d="M-38.1222 972.807C-33.8948 967.316 -29.6063 960.804 -25.7142 954.063C-11.2904 929.08 -2.98268 900.038 5.26387 872.018C7.11193 865.154 8.89905 859.311 10.9147 853.072C13.6785 844.622 16.0456 835.943 18.0613 829.704C21.6346 818.02 24.8116 806.107 27.9884 794.194C40.5116 749.609 53.1576 702.979 76.0525 663.324C87.271 643.893 99.7237 627.819 114.724 613.743C122.14 606.393 130.181 598.875 138.391 591.982C160.226 573.394 178.158 551.493 192.414 525.885C204.381 504.242 214.884 479.64 225.481 446.632C244.141 388.67 254.641 326.524 263.477 268.178C270.265 223.453 277.817 172.824 298.059 129.523C296.64 129.232 295.451 128.545 294.032 128.255C290.017 137.04 286.399 146.055 282.948 155.695C270.458 192.898 264.083 234.16 259.222 267.307C250.386 325.654 239.718 387.173 221.058 445.135C210.17 479.562 199.438 504.561 187.075 525.975C173.109 550.165 156.093 570.479 135.112 588.503C126.903 595.396 118.861 602.914 111.216 610.661C96.216 624.736 83.3053 641.603 71.8578 661.431C48.505 701.879 35.4626 748.28 23.3359 793.095C20.388 804.611 16.5858 816.691 13.2414 827.979C11.1644 835.24 8.62911 843.294 6.09425 851.348C4.07862 857.586 2.0631 863.825 0.444016 870.292C-7.80257 898.313 -16.5069 927.126 -30.4728 951.316C-34.365 958.057 -38.4248 964.173 -42.6521 969.664C-71.9532 1006.68 -113.134 1033.13 -150.088 1054.09C-148.898 1054.78 -147.541 1056.09 -146.352 1056.78C-126.364 1045.06 -109.962 1034.96 -96.0004 1024.52C-71.2213 1008.16 -52.971 991.199 -38.1222 972.807Z" fill="url(#paint14_linear_1660_131698)" fill-opacity="0.2"/>
<path d="M-37.8677 941.233C-22.986 915.457 -17.7282 882.54 -13.1119 853.481C-11.8894 846.784 -10.8344 839.462 -9.61186 832.766L-8.38899 826.069C-7.22782 820.394 -6.46346 814.491 -5.30229 808.817C6.73899 744.918 20.1256 672.279 53.7811 613.986C60.1917 602.883 67.1666 592.633 74.7055 583.239L78.2458 578.938C83.7855 572.09 89.5543 564.846 95.4905 558.227C111.987 539.729 125.875 520.254 138.009 499.236C152.891 473.46 165.974 443.473 178.403 407.293C197.794 350.811 211.009 291.29 223.185 235.4L224.804 228.933C232.458 193.697 240.983 154.205 255.624 118.773C254.205 118.483 252.786 118.193 251.367 117.902C250.848 119.718 249.704 121.7 249.185 123.515C235.856 157.59 227.85 195.267 220.945 228.292L219.326 234.759C207.15 290.648 193.935 350.169 174.772 406.254C162.572 442.038 149.489 472.025 134.837 497.405C122.702 518.422 109.043 537.501 92.5468 556C86.6105 562.619 80.8418 569.863 75.3021 576.711L71.7617 581.011C64.2228 590.406 57.0192 601.051 50.6086 612.154C16.4952 671.241 2.87956 744.277 -9.16172 808.175C-10.3229 813.85 -11.3163 820.149 -12.4775 825.824L-13.6998 832.52C-14.9223 839.216 -15.9775 846.538 -17.2 853.235C-21.5873 881.897 -27.013 914.19 -41.6658 939.569C-43.7263 943.138 -46.4126 946.875 -48.8696 950.215C-79.1479 989.837 -125.791 1018.43 -167.81 1041.75C-166.621 1042.44 -165.263 1043.75 -164.073 1044.44C-122.283 1021.51 -76.0365 992.69 -45.5293 952.671C-42.4467 949.164 -40.1572 945.198 -37.8677 941.233Z" fill="url(#paint15_linear_1660_131698)" fill-opacity="0.2"/>
<path d="M-58.6062 931.364C-44.8693 907.571 -42.2968 878.389 -39.3895 850.458C-38.3181 839.444 -37.2467 828.431 -35.6111 818.272C-34.3273 810.553 -33.2727 803.232 -31.8212 796.139C-16.8321 720.724 2.88728 641.695 44.8912 570.774C51.3018 559.67 57.4223 549.985 63.4812 541.322C74.6833 525.583 84.6955 509.157 93.8534 493.295C114.001 458.398 130.518 422.463 143.757 383.049C160.446 333.995 174.879 281.523 187.071 221.942C194.848 184.661 203.54 145.795 218.516 111.614C217.097 111.323 215.679 111.033 214.26 110.743C213.283 113.351 212.077 116.356 210.474 119.132C197.436 151.788 189.553 187.421 182.419 220.842C169.83 280.194 155.794 332.895 138.937 381.323C125.302 420.509 109.41 456.276 89.2627 491.172C80.1048 507.034 69.9246 522.835 59.1191 538.804C52.8312 547.863 46.7111 557.548 40.3005 568.651C-1.93236 639.969 -21.4842 719.623 -36.7023 795.435C-38.1538 802.528 -39.2089 809.85 -40.4928 817.569C-42.1283 827.728 -43.1997 838.742 -44.2711 849.755C-46.9495 877.289 -49.6892 905.845 -62.9683 928.845C-64.7999 932.018 -67.0277 934.961 -69.2559 937.904C-98.8473 976.337 -144.407 1003.96 -186.365 1026.27C-185.404 1027.35 -184.214 1028.04 -182.857 1029.35C-140.899 1007.05 -95.7361 979.19 -66.1447 940.758C-62.8945 937.876 -60.4378 934.536 -58.6062 931.364Z" fill="url(#paint16_linear_1660_131698)" fill-opacity="0.2"/>
<path d="M-89.8041 921.289C-76.525 898.289 -72.3666 870.023 -68.4371 842.154C-66.7403 830.973 -65.1045 820.813 -62.8435 810.486C-61.621 803.79 -60.0023 797.323 -58.5508 790.23C-41.763 719.026 -22.7754 638.517 15.7658 567.183C18.7422 562.028 21.3222 556.643 24.0695 551.885C27.5038 545.936 30.4799 540.781 34.0817 535.459C41.3468 523.791 48.3828 512.52 54.7934 501.417C79.5199 458.589 97.0756 419.024 110.437 377.566C124.669 331.851 136.416 283.116 144.364 232.716C150.326 194.917 159.721 151.169 183.303 110.325C183.761 109.532 183.99 109.135 184.448 108.342C183.029 108.052 181.382 108.158 179.963 107.867C174.927 116.591 170.286 125.544 166.21 135.352C154.959 162.166 146.36 192.628 140.109 231.846C132.16 282.245 120.642 330.584 106.41 376.298C93.0488 417.756 75.7223 456.925 50.9958 499.752C44.8142 510.459 37.7778 521.73 30.5128 533.398C26.911 538.721 23.9347 543.876 20.5005 549.824C17.7531 554.583 14.7767 559.738 12.1969 565.122C-26.5733 636.853 -45.7894 717.758 -62.8062 789.358C-64.6542 796.222 -65.8769 802.919 -67.0994 809.616C-69.3604 819.942 -70.5996 830.331 -72.2965 841.512C-76.3935 868.756 -80.5519 897.022 -93.373 919.229C-116.039 958.487 -161.035 986.969 -204.472 1010.01C-203.512 1011.09 -202.322 1011.78 -201.361 1012.86C-157.756 990.448 -112.928 961.341 -89.8041 921.289Z" fill="url(#paint17_linear_1660_131698)" fill-opacity="0.2"/>
<path d="M-123.846 900.58C-122.473 898.2 -120.473 895.653 -119.099 893.274C-106.965 872.256 -100.154 847.637 -93.571 823.415C-91.7843 817.573 -90.3944 811.502 -88.6077 805.66C-87.7982 802.426 -86.5919 799.421 -85.7823 796.187L-85.5537 795.791C-84.9731 792.954 -83.7667 789.949 -83.1861 787.112C-77.8261 769.586 -73.2591 751.602 -68.7535 734.64C-53.5113 678.934 -37.9177 620.788 -11.3881 568.427C-5.31273 556.072 0.640041 545.762 6.53138 536.474C12.4227 527.185 17.0014 519.255 21.5803 511.324C47.6806 466.117 64.1534 427.511 75.3029 385.305C86.6814 342.702 94.2003 299.458 97.7375 257.615C101.107 215.146 112.179 177.654 131.64 143.947C138.737 131.654 147.253 119.65 157.02 107.312C155.373 107.419 153.329 107.296 151.681 107.403C142.372 118.947 134.71 130.386 127.842 142.282C123.721 149.42 120.225 156.391 116.501 163.758C103.311 192.097 95.735 222.62 93.0237 257.537C89.7154 298.983 82.4254 341.831 71.0469 384.434C60.1263 426.244 43.2575 464.62 17.3862 509.43C13.0362 516.965 8.22802 525.293 2.33669 534.581C-3.78359 544.266 -9.33948 554.805 -15.8114 566.93C-42.57 619.688 -58.5606 677.606 -73.6351 733.937C-78.3697 751.296 -83.3332 769.051 -88.0677 786.409C-89.0449 789.017 -89.6254 791.854 -90.3736 794.066L-90.6022 794.462C-91.4117 797.696 -92.4507 801.327 -93.6568 804.332C-95.4434 810.174 -96.8334 816.244 -98.62 822.086C-104.974 845.912 -111.785 870.531 -123.691 891.152C-125.064 893.531 -126.438 895.911 -128.208 898.061C-153.421 935.321 -193.306 964.108 -229.925 986.323C-228.964 987.406 -228.003 988.49 -227.043 989.573C-216.622 983.429 -207.452 977.62 -199.075 971.352C-164.668 948.39 -140.314 925.44 -123.846 900.58Z" fill="url(#paint18_linear_1660_131698)" fill-opacity="0.2"/>
<path d="M-135.088 848.617C-126.616 833.944 -118.648 817.395 -111.64 799.763C-109.228 793.753 -107.045 788.141 -105.091 782.924C-94.7389 754.004 -86.766 723.71 -78.8546 694.439C-67.9341 652.629 -56.0978 609.233 -37.291 569.333C-31.4446 557.375 -25.8888 546.836 -19.9974 537.548C-15.8763 530.41 -11.5876 523.897 -8.1534 517.949C17.4889 473.535 31.9623 437.477 39.5264 396.902C46.8452 360.415 50.137 322.66 49.5083 285.286C48.712 247.286 57.7231 213.362 77.8706 178.465C88.8602 159.431 103.603 139.391 124.097 115.798C126.722 113.084 128.951 110.14 131.575 107.425C129.928 107.532 127.884 107.409 126.007 107.912C124.466 109.665 122.924 111.42 121.154 113.57C100.43 137.559 85.6878 157.599 74.6982 176.634C71.7219 181.789 68.5168 187.341 65.937 192.725C51.4354 222.421 44.8815 253.005 45.359 286.062C45.9877 323.436 42.5282 360.565 35.835 396.885C28.1032 436.835 13.859 472.496 -11.5544 516.513C-15.2176 522.858 -18.8808 529.203 -23.3984 536.112C-29.2897 545.4 -34.8462 555.94 -40.6926 567.898C-60.1248 607.966 -71.5645 651.591 -82.714 693.797C-90.6254 723.069 -98.3691 752.966 -108.721 781.885C-110.675 787.102 -112.858 792.715 -115.271 798.724C-122.278 816.357 -130.018 832.51 -138.489 847.182C-144.671 857.889 -151.416 867.741 -157.872 876.175C-183.007 908.72 -219.413 934.23 -255.574 955.651C-254.613 956.735 -253.652 957.818 -253.088 958.673C-216.698 936.855 -180.292 911.345 -154.532 878.632C-147.847 869.802 -141.498 859.72 -135.088 848.617Z" fill="url(#paint19_linear_1660_131698)" fill-opacity="0.2"/>
<path d="M-182.251 855.217C-178.543 851.542 -175.461 848.035 -171.753 844.36L-171.524 843.964C-157.088 829.034 -143.339 815.294 -133.037 797.449C-131.892 795.466 -130.976 793.879 -129.831 791.896C-127.251 786.512 -124.671 781.128 -122.32 776.14C-108.031 743.149 -100.545 707.287 -92.9525 673.073C-85.2986 637.837 -77.3542 601.182 -62.2107 567.626C-56.9898 555.836 -51.6625 545.694 -46.6256 536.969C-43.1914 531.021 -39.8189 526.095 -36.8426 520.94C-16.0082 484.854 -1.09367 451.695 4.04624 407.076C7.47286 377.33 7.16301 344.898 3.46813 307.34C0.047112 272.054 7.97512 239.091 28.3516 203.798C41.1727 181.591 57.624 160.423 78.409 135.412C85.0321 127.604 92.1135 119.002 98.9655 110.797C96.6925 111.071 95.0447 111.177 92.7716 111.451C86.6064 118.466 80.6089 126.107 74.6727 132.726C55.8868 155.19 38.352 177.319 24.3861 201.509C22.0966 205.474 20.0356 209.044 18.1427 213.238C2.09979 244.688 -4.28667 275.898 -1.07815 307.888C2.84568 345.05 2.7593 377.253 -0.667323 406.999C-5.34933 450.824 -20.0346 483.586 -40.64 519.276C-43.6163 524.431 -46.593 529.586 -50.4238 535.306C-56.0862 544.197 -61.017 554.57 -66.2379 566.36C-81.6104 600.312 -89.1581 637.196 -97.041 672.829C-104.634 707.043 -111.891 742.508 -125.951 775.103C-128.302 780.09 -130.485 785.703 -133.461 790.858C-134.377 792.444 -135.522 794.427 -136.438 796.013C-146.511 813.461 -160.26 827.202 -174.467 841.735C-178.175 845.41 -181.884 849.086 -185.195 852.99C-212.129 881.325 -245.849 903.097 -280.301 923.391C-279.34 924.474 -279.005 925.725 -278.044 926.808C-267.623 920.664 -256.577 914.352 -246.323 907.582C-220.003 889.468 -199.083 872.465 -182.251 855.217Z" fill="url(#paint20_linear_1660_131698)" fill-opacity="0.2"/>
<path d="M-186.574 817.834C-169.547 807.573 -153.602 798.272 -141.758 778.674C-138.782 773.518 -135.805 768.363 -133.455 763.375C-117.457 729.256 -112.685 690.769 -107.807 653.931C-103.799 621.348 -99.3346 587.972 -87.6702 557.695C-83.3037 546.469 -79.06 537.286 -74.481 529.355L-74.0232 528.562C-72.8785 526.58 -71.7337 524.597 -70.589 522.614C-61.2021 506.356 -51.2955 488.281 -44.2265 469.627C-36.1804 448.364 -31.8876 428.108 -31.3311 405.165C-30.1775 375.693 -34.3016 345.288 -38.0907 316.135L-38.9736 310.338C-43.4166 274.991 -35.8855 241.799 -14.8222 205.316C0.0595343 179.541 19.7608 155.491 38.379 132.401L38.8374 131.607C43.0647 126.117 47.4595 121.252 51.6868 115.762C49.4138 116.036 47.5376 116.538 45.2645 116.812C41.953 120.716 38.412 125.017 35.1005 128.921L34.6427 129.714C15.17 153.368 -4.53128 177.419 -19.6419 203.591C-21.4735 206.763 -23.0763 209.539 -24.9079 212.712C-33.0438 228.635 -39.0745 243.66 -42.0388 258.868C-45.7513 276.288 -46.5649 293.265 -44.5416 310.824L-43.6587 316.621C-39.8696 345.775 -36.142 375.95 -37.0666 405.025C-38.6376 451.704 -55.3676 484.345 -75.7441 519.638C-76.8888 521.621 -78.2622 523.999 -79.4069 525.982L-79.8653 526.776C-84.4443 534.707 -88.9168 544.286 -93.5123 555.908C-105.406 586.582 -109.703 620.583 -113.71 653.166C-118.588 690.005 -123.131 728.094 -138.671 761.421C-141.022 766.409 -143.999 771.564 -146.746 776.323C-158.132 795.129 -173.847 804.032 -190.249 814.125C-196.627 817.846 -203.005 821.566 -209.215 825.912C-244.767 850.857 -274.84 869.977 -304.165 886.885C-303.204 887.968 -302.869 889.22 -301.909 890.303C-272.583 873.395 -242.281 853.878 -206.73 828.933C-199.33 825.274 -192.952 821.554 -186.574 817.834Z" fill="url(#paint21_linear_1660_131698)" fill-opacity="0.2"/>
<path d="M-222.912 801.086C-215.971 798.22 -208.861 795.979 -201.751 793.739C-178.943 786.287 -159.492 780.069 -147.815 759.845C-147.128 758.656 -146.442 757.466 -145.526 755.88C-142.259 749.306 -140.684 740.168 -138.775 732.282L-138.485 730.864C-132.802 704.536 -133.128 675.795 -133.119 648.306C-133.167 608.094 -133.322 566.236 -116.805 530.301L-116.576 529.904C-113.248 522.308 -109.462 513.919 -104.715 506.614C-101.342 501.688 -98.3659 496.532 -95.6185 491.774C-86.9184 476.705 -80.553 462.932 -75.8349 449.265C-69.1011 429.36 -65.6622 409.666 -64.8767 386.327C-64.2304 368.723 -65.1705 350.204 -65.9427 332.31C-66.6088 316.063 -67.0461 299.42 -67.0866 283.006C-66.5092 242.627 -55.6659 205.53 -33.2289 166.668C-26.3604 154.771 -18.47 142.936 -10.1829 131.33C-12.2884 132.229 -14.7903 132.9 -16.8957 133.799C-24.267 143.819 -30.845 154.297 -36.7977 164.607C-59.2347 203.469 -70.5971 242.381 -71.1745 282.76C-71.5306 298.946 -70.6967 315.817 -70.0307 332.064C-69.2584 349.958 -68.4862 367.852 -69.1325 385.456C-69.9837 423.562 -78.9789 453.795 -99.3554 489.088C-102.103 493.847 -104.85 498.605 -107.994 503.135C-112.969 510.837 -116.526 518.829 -120.083 526.822L-120.312 527.218C-137.288 563.947 -136.966 606.431 -137.147 647.039C-137.155 674.529 -137.225 703.039 -142.679 728.971L-142.97 730.389C-144.65 737.879 -146.621 746.787 -149.262 753.193C-149.949 754.383 -150.636 755.572 -151.322 756.762C-162.083 775.4 -181.139 781.847 -203.093 788.735C-210.202 790.976 -217.311 793.216 -224.253 796.081C-246.955 805.181 -268.652 818.034 -289.723 830.719C-300.144 836.863 -310.794 843.404 -321.611 849.32C-321.276 850.571 -320.315 851.654 -319.98 852.905C-309.162 846.99 -298.116 840.677 -287.466 834.136C-266.685 822.87 -244.989 810.018 -222.912 801.086Z" fill="url(#paint22_linear_1660_131698)" fill-opacity="0.2"/>
<path d="M-303.836 799.304C-280.95 787.138 -257.438 774.804 -232.647 768.497L-227.643 767.156C-209.732 762.692 -196.825 759.569 -182.161 744.242C-176.682 738.417 -171.997 732.133 -167.876 724.995C-161.694 714.288 -157.496 702.437 -154.364 687.854C-152.974 681.783 -152.315 674.232 -151.657 666.681C-150.888 647.033 -154.313 625.493 -158.074 602.701C-164.316 563.143 -170.893 522.335 -154.727 488.841C-152.834 484.646 -150.545 480.681 -148.255 476.715C-146.653 473.939 -145.279 471.559 -143.509 469.409C-138.823 463.125 -134.535 456.614 -130.643 449.872C-112.785 418.941 -104.857 385.977 -98.1469 345.966C-95.2889 329.11 -92.9951 311.401 -90.5336 294.316C-87.3075 271.328 -84.249 247.715 -80.0008 224.788C-74.7141 198.231 -67.6735 173.215 -57.3993 149.009C-59.5048 149.909 -60.9849 150.641 -63.0903 151.54C-72.2812 174.786 -79.0314 198.383 -83.8601 224.146C-88.1083 247.073 -91.396 271.083 -94.3932 293.675C-96.6257 310.363 -98.9196 328.073 -101.778 344.928C-108.258 384.543 -116.353 416.88 -133.982 447.415C-137.646 453.76 -141.935 460.272 -146.62 466.555C-148.39 468.706 -149.764 471.085 -151.595 474.258C-153.885 478.223 -156.007 482.814 -158.296 486.78C-174.92 521.067 -168.404 562.898 -161.995 603.081C-158.234 625.873 -154.976 646.788 -155.745 666.436C-156.175 673.591 -157 680.516 -157.994 686.816C-163.096 710.306 -171.691 727.024 -185.043 740.993C-199.25 755.526 -211.531 758.481 -228.419 763.006C-230.067 763.113 -231.547 763.845 -233.424 764.347C-258.84 770.822 -282.352 783.156 -305.634 795.093C-313.263 799.148 -320.892 803.203 -328.688 806.633C-331.648 808.097 -334.837 809.957 -337.797 811.421C-337.462 812.672 -336.73 814.151 -336.394 815.402C-333.206 813.542 -329.849 812.308 -326.66 810.448C-319.489 807.185 -311.464 803.36 -303.836 799.304Z" fill="url(#paint23_linear_1660_131698)" fill-opacity="0.2"/>
<path d="M-230.586 713.644C-227.794 711.555 -224.834 710.092 -222.042 708.003C-204.098 696.155 -188.49 685.605 -179.561 670.139C-173.837 660.225 -170.66 648.312 -170.823 633.942C-170.684 628.206 -171.109 621.616 -172.327 614.568C-174.641 598.428 -180.752 580.623 -186.802 561.797C-199.237 522.893 -213.41 478.756 -198.602 443.949C-196.709 439.755 -194.588 435.165 -191.84 430.406C-190.696 428.423 -189.78 426.837 -188.467 425.48C-183.324 418.403 -178.577 411.097 -173.999 403.166C-154.309 369.063 -142.277 332.654 -129.725 294.429L-128.229 290.006C-121.205 268.682 -114.577 247.129 -108.178 225.973L-107.949 225.576C-101.612 205.441 -95.2752 185.308 -88.7091 164.777C-90.418 165.905 -92.294 166.407 -94.0029 167.536C-100.279 186.648 -106.158 205.989 -111.976 224.308L-112.205 224.705C-118.604 245.861 -125.628 267.185 -132.423 288.112L-133.919 292.536C-146.471 330.76 -158.274 366.773 -177.735 400.48C-182.085 408.014 -186.832 415.321 -191.975 422.397C-192.891 423.983 -194.432 425.737 -195.577 427.72C-198.324 432.478 -200.675 437.465 -202.568 441.66C-209.682 457.645 -210.848 477.064 -207.545 500.649C-204.058 521.168 -197.734 542.267 -190.952 562.574C-184.902 581.4 -179.187 598.975 -176.645 614.719C-175.426 621.767 -174.772 627.961 -175.308 633.468C-175.709 646.983 -178.428 658.103 -183.694 667.224C-192.165 681.896 -206.69 691.487 -224.863 703.73C-227.426 705.423 -230.218 707.512 -233.407 709.372C-266.334 731.603 -300.144 748.037 -334.976 764.409C-340.667 766.94 -345.961 769.699 -351.256 772.459C-350.92 773.71 -350.585 774.961 -349.854 776.441C-344.33 773.285 -338.64 770.754 -332.72 767.827C-297.949 752.477 -263.513 735.875 -230.586 713.644Z" fill="url(#paint24_linear_1660_131698)" fill-opacity="0.2"/>
<path d="M-231.793 665.365C-216.351 654.188 -204.954 645.436 -198.314 633.936L-198.085 633.539C-191.445 622.039 -190.251 608.982 -194.196 589.256C-195.308 583.855 -196.984 577.601 -199.392 569.866C-204.101 556.044 -210.793 541.076 -218.217 524.629C-237.059 483.084 -258.431 435.848 -245.192 396.434C-243.176 390.196 -240.765 384.187 -237.101 377.842L-236.643 377.048C-233.438 371.496 -230.233 365.945 -226.799 359.997C-200.012 313.6 -177.77 267.751 -157.132 224.678C-152.659 215.099 -148.187 205.521 -143.943 196.339C-146.278 197.635 -148.444 199.556 -150.778 200.852C-154.106 208.448 -157.602 215.418 -161.326 222.785C-181.965 265.858 -204.206 311.707 -230.764 357.707C-233.969 363.259 -237.403 369.207 -240.609 374.758C-244.501 381.5 -247.371 388.303 -249.615 394.938C-263.144 435.771 -241.605 483.632 -222.199 526.031C-214.943 541.853 -208.25 556.82 -203.541 570.642C-201.301 577.751 -199.625 584.006 -198.513 589.407C-194.903 607.882 -196.037 619.918 -202.218 630.625L-202.447 631.021C-208.4 641.331 -219.798 650.084 -234.614 661.093C-266.809 684.804 -301.764 703.221 -343.264 724.732C-349.184 727.659 -355.332 730.983 -360.855 734.139C-360.52 735.39 -360.414 737.037 -360.079 738.288C-353.93 734.964 -347.781 731.641 -341.633 728.318C-299.172 707.89 -264.613 689.244 -231.793 665.365Z" fill="url(#paint25_linear_1660_131698)" fill-opacity="0.2"/>
</g>
<defs>
<linearGradient id="paint0_linear_1660_131698" x1="579.419" y1="901.055" x2="504.811" y2="888.259" gradientUnits="userSpaceOnUse">
<stop stop-color="#F2D57E"/>
<stop offset="1" stop-color="#A7F2D7"/>
</linearGradient>
<linearGradient id="paint1_linear_1660_131698" x1="610.14" y1="837.219" x2="515.199" y2="814.371" gradientUnits="userSpaceOnUse">
<stop stop-color="#F2D57E"/>
<stop offset="1" stop-color="#A7F2D7"/>
</linearGradient>
<linearGradient id="paint2_linear_1660_131698" x1="623.78" y1="786.952" x2="510.847" y2="756.789" gradientUnits="userSpaceOnUse">
<stop stop-color="#F2D57E"/>
<stop offset="1" stop-color="#A7F2D7"/>
</linearGradient>
<linearGradient id="paint3_linear_1660_131698" x1="613.474" y1="746.434" x2="366.749" y2="718.672" gradientUnits="userSpaceOnUse">
<stop stop-color="#F2D57E"/>
<stop offset="1" stop-color="#A7F2D7"/>
</linearGradient>
<linearGradient id="paint4_linear_1660_131698" x1="596.376" y1="713.002" x2="216.229" y2="719.995" gradientUnits="userSpaceOnUse">
<stop stop-color="#F2D57E"/>
<stop offset="1" stop-color="#A7F2D7"/>
</linearGradient>
<linearGradient id="paint5_linear_1660_131698" x1="591.008" y1="667.196" x2="145.446" y2="689.629" gradientUnits="userSpaceOnUse">
<stop stop-color="#F2D57E"/>
<stop offset="1" stop-color="#A7F2D7"/>
</linearGradient>
<linearGradient id="paint6_linear_1660_131698" x1="654.895" y1="483.515" x2="177.333" y2="453.344" gradientUnits="userSpaceOnUse">
<stop stop-color="#F2D57E"/>
<stop offset="1" stop-color="#A7F2D7"/>
</linearGradient>
<linearGradient id="paint7_linear_1660_131698" x1="637.248" y1="453.5" x2="171.192" y2="412.039" gradientUnits="userSpaceOnUse">
<stop stop-color="#F2D57E"/>
<stop offset="1" stop-color="#A7F2D7"/>
</linearGradient>
<linearGradient id="paint8_linear_1660_131698" x1="614.23" y1="425.938" x2="165.929" y2="374.556" gradientUnits="userSpaceOnUse">
<stop stop-color="#F2D57E"/>
<stop offset="1" stop-color="#A7F2D7"/>
</linearGradient>
<linearGradient id="paint9_linear_1660_131698" x1="593.238" y1="399.44" x2="170.232" y2="337.957" gradientUnits="userSpaceOnUse">
<stop stop-color="#F2D57E"/>
<stop offset="1" stop-color="#A7F2D7"/>
</linearGradient>
<linearGradient id="paint10_linear_1660_131698" x1="564.929" y1="367.802" x2="170.094" y2="297.521" gradientUnits="userSpaceOnUse">
<stop stop-color="#F2D57E"/>
<stop offset="1" stop-color="#A7F2D7"/>
</linearGradient>
<linearGradient id="paint11_linear_1660_131698" x1="521.93" y1="329.937" x2="185.285" y2="251.067" gradientUnits="userSpaceOnUse">
<stop stop-color="#F2D57E"/>
<stop offset="1" stop-color="#A7F2D7"/>
</linearGradient>
<linearGradient id="paint12_linear_1660_131698" x1="463.845" y1="294.167" x2="183.334" y2="214.034" gradientUnits="userSpaceOnUse">
<stop stop-color="#F2D57E"/>
<stop offset="1" stop-color="#A7F2D7"/>
</linearGradient>
<linearGradient id="paint13_linear_1660_131698" x1="396.901" y1="258.429" x2="146.387" y2="180.213" gradientUnits="userSpaceOnUse">
<stop stop-color="#F2D57E"/>
<stop offset="1" stop-color="#A7F2D7"/>
</linearGradient>
<linearGradient id="paint14_linear_1660_131698" x1="346.283" y1="240.472" x2="80.2683" y2="161.881" gradientUnits="userSpaceOnUse">
<stop stop-color="#F2D57E"/>
<stop offset="1" stop-color="#A7F2D7"/>
</linearGradient>
<linearGradient id="paint15_linear_1660_131698" x1="320.585" y1="238.273" x2="5.22222" y2="160.435" gradientUnits="userSpaceOnUse">
<stop stop-color="#F2D57E"/>
<stop offset="1" stop-color="#A7F2D7"/>
</linearGradient>
<linearGradient id="paint16_linear_1660_131698" x1="292.316" y1="234.917" x2="-47.521" y2="160.24" gradientUnits="userSpaceOnUse">
<stop stop-color="#F2D57E"/>
<stop offset="1" stop-color="#A7F2D7"/>
</linearGradient>
<linearGradient id="paint17_linear_1660_131698" x1="258.332" y1="230.135" x2="-79.5742" y2="157.343" gradientUnits="userSpaceOnUse">
<stop stop-color="#F2D57E"/>
<stop offset="1" stop-color="#A7F2D7"/>
</linearGradient>
<linearGradient id="paint18_linear_1660_131698" x1="221.05" y1="221.783" x2="-94.9025" y2="149.207" gradientUnits="userSpaceOnUse">
<stop stop-color="#F2D57E"/>
<stop offset="1" stop-color="#A7F2D7"/>
</linearGradient>
<linearGradient id="paint19_linear_1660_131698" x1="185.86" y1="214.117" x2="-115.882" y2="143.193" gradientUnits="userSpaceOnUse">
<stop stop-color="#F2D57E"/>
<stop offset="1" stop-color="#A7F2D7"/>
</linearGradient>
<linearGradient id="paint20_linear_1660_131698" x1="155.219" y1="215.841" x2="-160.149" y2="149.671" gradientUnits="userSpaceOnUse">
<stop stop-color="#F2D57E"/>
<stop offset="1" stop-color="#A7F2D7"/>
</linearGradient>
<linearGradient id="paint21_linear_1660_131698" x1="123.806" y1="226.106" x2="-227.465" y2="172.202" gradientUnits="userSpaceOnUse">
<stop stop-color="#F2D57E"/>
<stop offset="1" stop-color="#A7F2D7"/>
</linearGradient>
<linearGradient id="paint22_linear_1660_131698" x1="86.9378" y1="250.615" x2="-294.355" y2="218.13" gradientUnits="userSpaceOnUse">
<stop stop-color="#F2D57E"/>
<stop offset="1" stop-color="#A7F2D7"/>
</linearGradient>
<linearGradient id="paint23_linear_1660_131698" x1="40.7721" y1="263.778" x2="-326.764" y2="240.69" gradientUnits="userSpaceOnUse">
<stop stop-color="#F2D57E"/>
<stop offset="1" stop-color="#A7F2D7"/>
</linearGradient>
<linearGradient id="paint24_linear_1660_131698" x1="-0.28197" y1="269.354" x2="-333.666" y2="245.912" gradientUnits="userSpaceOnUse">
<stop stop-color="#F2D57E"/>
<stop offset="1" stop-color="#A7F2D7"/>
</linearGradient>
<linearGradient id="paint25_linear_1660_131698" x1="-54.1857" y1="294.967" x2="-376.312" y2="288.634" gradientUnits="userSpaceOnUse">
<stop stop-color="#F2D57E"/>
<stop offset="1" stop-color="#A7F2D7"/>
</linearGradient>
<clipPath id="clip0_1660_131698">
<rect width="766" height="1245" fill="white" transform="translate(0 0.695312)"/>
</clipPath>
</defs>
</svg>
