<svg width="1096" height="144" viewBox="0 0 1096 144" fill="none" xmlns="http://www.w3.org/2000/svg">
<g opacity="0.3">
<path d="M207.333 -14.2644C257.958 -19.6671 325.621 -26.3949 394.745 -30.7783C429.306 -32.9189 462.408 -34.8558 495.996 -34.7538C525.69 -34.6519 546.622 -32.0015 569.014 -27.924C578.263 -26.1911 587.511 -24.3562 596.76 -22.5213L600.169 -21.8078C633.27 -15.2838 670.265 -9.88105 713.102 -5.08999C749.124 -1.11442 789.528 2.35144 841.127 5.91925C850.862 6.63281 858.164 7.04057 864.979 7.44832C882.99 8.36575 899.541 9.18127 916.578 9.18127C918.525 9.18127 920.472 9.18127 922.419 9.18127C937.023 8.97739 949.192 8.05995 962.335 7.04057C969.15 6.53088 975.965 5.91926 982.78 5.51151C993.489 4.89988 1003.22 4.59408 1012.96 4.59408C1031.46 4.59408 1050.44 5.71538 1072.84 7.958C1077.7 8.46769 1083.06 9.07933 1089.39 9.69095C1088.9 9.2832 1088.9 8.97738 1088.41 8.56963C1083.54 8.05995 1079.16 7.55027 1074.78 7.14252C1057.75 5.40958 1043.63 4.3902 1029.51 3.98245C1024.16 3.77857 1018.32 3.67661 1012.96 3.67661C1002.74 3.67661 992.516 3.98245 981.807 4.59408C974.505 5.00183 967.69 5.61345 960.875 6.12314C948.219 7.14252 936.049 8.05993 922.419 8.2638C920.472 8.2638 918.525 8.2638 917.064 8.2638C900.514 8.2638 884.45 7.55027 866.439 6.63283C859.624 6.32701 852.322 5.8173 842.586 5.20568C766.161 -0.0950745 678.054 -7.53651 603.576 -22.3175L600.169 -23.031C590.92 -24.8659 581.67 -26.7008 572.421 -28.4337C549.542 -32.6131 527.638 -35.4674 496.483 -35.5693C495.997 -35.5693 495.022 -35.5693 494.535 -35.5693C460.947 -35.5693 427.846 -33.6325 393.771 -31.4918C324.161 -27.1085 256.986 -20.3806 205.873 -14.876C140.644 -7.94425 76.3881 -1.72606 6.77802 -1.21638C6.29123 -0.910562 6.29147 -0.604756 5.80469 -0.298943C32.5778 -0.502819 59.8382 -1.42026 89.0452 -3.35707C129.935 -6.21132 169.85 -10.2888 207.333 -14.2644Z" fill="url(#paint0_linear_2385_9161)"/>
<path d="M1087.45 22.9437C1046.07 18.9682 1009.08 17.0314 975.003 17.2352C965.267 17.2352 955.531 17.541 945.796 17.8469C936.06 18.1527 926.324 18.4585 916.589 18.4585C897.604 18.5604 878.619 18.2546 860.121 17.9488C855.74 17.8468 850.872 17.8469 846.491 17.7449C839.676 17.643 832.374 17.541 825.559 17.4391L820.691 17.3372C807.548 17.1333 794.405 17.0313 781.749 16.9294C710.191 16.2158 636.2 15.5023 574.865 6.42985C565.616 5.00272 554.421 3.37171 544.199 1.74071C530.569 -0.399974 516.451 -1.92904 501.848 -2.94842C488.218 -3.86586 474.101 -4.37554 458.524 -4.47748C430.291 -4.57942 401.57 -3.35617 367.009 -1.41936C299.346 2.35233 233.63 8.7744 178.623 14.4829C119.236 20.5992 56.4407 26.5116 -6.35447 26.5116C-7.32804 26.5116 -8.78815 26.5116 -9.76172 26.5116C-9.76172 26.7154 -9.76172 26.9193 -9.76172 27.1232C-9.76172 27.2251 -9.76172 27.327 -9.76172 27.429C-8.78815 27.429 -7.81482 27.429 -6.35447 27.429C14.5773 27.429 36.9691 26.8174 60.3347 25.4922C102.685 23.1476 143.088 19.1721 180.57 15.2984C235.577 9.58992 300.806 3.2698 367.982 -0.501894C401.083 -2.33677 428.344 -3.56002 454.63 -3.56002C487.731 -3.56002 514.992 -1.62321 541.765 2.45429C551.987 4.08529 563.183 5.7163 572.919 7.14342C600.665 11.3229 633.766 14.0752 673.683 15.7062C709.218 17.1333 746.214 17.541 782.236 17.8469C794.892 17.9488 808.522 18.1527 821.179 18.2546L825.559 18.3566C832.374 18.4585 839.676 18.5604 846.491 18.6624C850.872 18.7643 855.74 18.7643 860.121 18.8662C878.619 19.1721 898.09 19.3759 917.075 19.3759C927.297 19.3759 937.033 19.0701 946.769 18.7643C956.018 18.4585 965.754 18.2546 975.003 18.1527C1008.59 17.9488 1045.1 19.7837 1085.5 23.7592C1088.42 24.065 1091.34 24.3708 1094.26 24.6767L1095.24 24.7786C1095.24 24.4728 1095.24 24.065 1095.24 23.7592C1092.8 23.4534 1090.37 23.1476 1087.45 22.9437Z" fill="url(#paint1_linear_2385_9161)"/>
<path d="M959.416 24.88C952.114 24.6762 943.839 24.5742 935.564 24.5742C904.897 24.5742 873.743 26.2052 843.562 27.7343C836.26 28.142 829.931 28.4479 823.116 28.7537C813.867 29.1614 804.619 29.6711 797.804 29.9769C785.147 30.5886 772.491 31.3021 759.834 32.0157C712.13 34.5641 662.478 37.3164 613.799 37.3164C589.947 37.3164 568.529 36.7048 547.597 35.3796C536.888 34.768 525.692 34.0544 514.983 33.2389C486.263 31.0982 456.568 30.0788 425.414 30.1808C399.128 30.2827 370.895 30.9963 334.873 32.6273C271.591 35.4816 208.795 40.3745 150.381 45.1656C105.597 48.8354 54.9713 53.0148 4.3457 53.9322C4.83249 54.2381 4.83225 54.5439 5.31903 54.8497C15.5415 54.6458 25.7647 54.34 36.4739 53.9322C77.3638 52.1993 118.74 48.8354 151.842 46.083C210.256 41.292 272.564 36.5009 335.846 33.6467C373.329 31.9137 402.049 31.2002 428.335 31.2002C458.029 31.2002 485.776 32.2195 513.522 34.2583C524.232 35.0738 535.428 35.7874 546.624 36.399C567.556 37.7242 589.947 38.3358 614.286 38.3358C663.938 38.3358 713.59 35.6854 761.295 33.0351C773.465 32.3215 786.608 31.7099 798.777 31.0982C806.566 30.6905 815.329 30.2827 824.091 29.875C830.906 29.5692 837.721 29.2634 844.536 28.8556C874.716 27.3265 905.87 25.7975 935.564 25.7975C943.839 25.7975 951.628 25.8994 958.93 26.1033C1008.58 27.6323 1054.83 32.6273 1093.77 37.4184C1093.77 37.1125 1094.26 36.7048 1094.26 36.399C1072.84 33.8505 1054.83 31.8118 1037.79 30.2827C1009.56 27.3265 984.242 25.6956 959.416 24.88Z" fill="url(#paint2_linear_2385_9161)"/>
<path d="M932.156 33.4424C902.949 33.4424 874.715 36.1947 847.455 38.7431C836.745 39.7625 826.036 40.7819 815.814 41.5974C808.025 42.209 800.724 42.8206 793.422 43.3303C716.024 48.835 632.784 53.8299 545.162 53.626C531.532 53.626 519.362 53.5241 508.166 53.3202C487.721 52.9125 467.277 52.8105 447.806 52.8105C404.969 52.8105 363.105 53.626 319.781 55.4609C265.748 57.7035 209.768 60.7616 148.433 65.043C109.977 67.6934 69.5741 70.3438 30.1445 71.2612C30.6313 71.567 31.1183 71.8728 31.6051 72.1786C34.5258 72.0767 37.9333 71.9748 41.3408 71.9748C78.3364 70.8534 115.332 68.407 149.894 66.0624C211.229 61.883 267.208 58.7229 320.754 56.5822C364.078 54.8493 405.455 53.9318 448.292 53.9318C467.763 53.9318 487.721 54.1357 508.166 54.4415C519.849 54.6454 532.019 54.7473 545.648 54.7473C633.756 54.9512 717.484 49.8543 795.369 44.3497C802.671 43.84 809.973 43.2284 817.762 42.6168C827.984 41.8013 838.693 40.7819 849.403 39.7625C876.176 37.2141 903.922 34.5637 932.156 34.5637C936.05 34.5637 939.944 34.6656 943.838 34.7676C994.951 36.1947 1044.6 41.9032 1087.44 47.5097C1087.93 47.2039 1087.93 46.8981 1088.41 46.4904C1045.58 40.8838 995.924 35.2773 944.812 33.8501C940.43 33.5443 936.05 33.4424 932.156 33.4424Z" fill="url(#paint3_linear_2385_9161)"/>
<path d="M938.483 49.4457C935.562 49.4457 932.154 49.3438 929.234 49.3438C903.434 49.3438 877.148 50.7709 851.348 52.198C845.02 52.5038 838.692 52.9116 832.364 53.2174C828.956 53.4212 825.549 53.5232 822.141 53.7271H821.655C818.734 53.9309 815.326 54.0329 812.405 54.2367C793.421 55.1542 774.436 56.2755 756.425 57.2949C697.038 60.5569 635.216 64.0228 572.908 64.7363C558.304 64.9402 545.648 64.9402 533.965 64.8382C522.282 64.7363 512.547 64.7363 502.811 64.7363C447.318 64.7363 403.02 65.8576 358.236 68.406C312.965 70.9545 269.155 74.3184 228.752 78.294C187.862 82.3715 147.459 84.4103 106.082 84.4103C90.992 84.4103 75.4139 84.1045 58.8633 83.5948C59.8368 83.9006 60.8109 84.3083 61.7845 84.6141C77.3616 85.1238 91.9648 85.3277 106.568 85.3277C115.33 85.3277 123.606 85.2258 132.368 85.1238C165.469 84.5122 197.597 82.5754 231.186 79.2115C271.102 75.2359 314.425 71.872 359.696 69.3235C403.993 66.7751 448.291 65.7557 503.297 65.7557C512.546 65.7557 522.77 65.7557 534.452 65.8576C546.622 65.9595 559.278 65.8576 573.881 65.7557C636.676 65.0421 698.499 61.6782 758.373 58.3142C776.871 57.2949 795.855 56.2755 814.353 55.2561C817.274 55.1542 820.194 54.9503 822.628 54.8484H823.114C826.522 54.6445 830.417 54.4406 833.825 54.3387C840.153 54.0329 846.48 53.6251 852.809 53.3193C878.121 51.8922 904.408 50.4651 929.721 50.4651C932.641 50.4651 935.562 50.465 938.483 50.567C986.188 51.2805 1033.89 55.7658 1073.81 60.353C1074.29 60.0472 1074.78 59.7414 1075.27 59.4356C1064.07 58.1104 1053.85 56.9891 1043.63 56.0716C1004.2 51.9941 970.124 49.8534 938.483 49.4457Z" fill="url(#paint4_linear_2385_9161)"/>
<path d="M927.786 65.7564C922.431 65.4506 917.564 65.2467 912.209 64.9408H911.723C890.305 63.8195 870.346 62.6982 848.441 62.6982C846.007 62.6982 844.059 62.6982 841.625 62.6982C835.297 62.8002 828.969 62.9021 823.127 63.004C785.158 63.9215 748.163 66.4699 712.628 68.8145C676.119 71.261 638.149 73.8094 599.207 74.6249C585.577 74.9308 573.407 75.0327 562.698 75.0327C555.396 75.0327 549.069 74.9307 542.74 74.9307C498.443 74.9307 459.987 75.7463 416.177 79.7218C386.969 82.3722 357.275 86.042 324.661 90.935C293.993 95.5221 259.432 97.6628 216.108 97.6628C188.848 97.6628 160.615 96.8473 126.54 95.6241C115.831 95.2163 104.147 94.8085 92.9512 94.4008C94.4115 94.8085 95.3853 95.1144 96.8457 95.5221C106.581 95.9299 116.804 96.2357 126.053 96.6434C156.72 97.7647 186.414 98.6822 216.108 98.6822C220.976 98.6822 225.357 98.6822 230.225 98.5803C267.708 98.1725 299.835 95.9299 327.582 91.7504C359.71 86.8574 389.403 83.2896 418.61 80.6392C461.447 76.6637 499.416 75.8481 543.226 75.8481C549.555 75.8481 555.883 75.8482 563.185 75.9501C574.381 76.0521 586.551 75.8482 600.181 75.5423C639.611 74.7268 677.58 72.0765 714.575 69.63C750.111 67.2854 786.62 64.737 824.102 63.8195C829.943 63.7176 836.271 63.5137 842.599 63.5137C844.546 63.5137 846.98 63.5137 848.927 63.5137C870.346 63.5137 890.304 64.6351 911.236 65.7564C916.59 66.0622 921.945 66.368 927.3 66.5719C967.703 68.6106 1005.67 72.6881 1042.67 77.0714C1043.15 76.7656 1044.13 76.5617 1044.61 76.2559C1033.42 74.9307 1021.74 73.5036 1010.05 72.2803C979.386 69.2222 952.612 67.0816 927.786 65.7564Z" fill="url(#paint5_linear_2385_9161)"/>
<path d="M899.549 79.6194C893.221 78.6 887.379 77.4787 881.538 76.3574C862.553 72.7895 846.49 69.7314 821.664 69.7314C820.204 69.7314 818.743 69.7314 816.796 69.7314C809.008 69.8334 799.758 70.5469 791.482 71.0566L790.023 71.1586C762.763 72.9934 736.476 76.2554 711.163 79.3136C674.167 83.7988 635.712 88.4879 593.849 89.3034H593.362C584.599 89.5073 574.864 89.7112 565.615 89.6092C559.287 89.5073 552.958 89.5073 547.117 89.5073C528.619 89.5073 512.556 89.8132 497.465 90.4248C475.56 91.3422 455.601 92.8713 433.696 95.3178C417.145 97.1526 400.596 99.3952 384.532 101.536C369.928 103.473 354.838 105.41 339.748 107.244C302.265 111.628 262.348 113.667 214.643 113.667C200.04 113.667 184.95 113.463 169.859 113.157C171.807 113.463 173.753 113.87 175.701 114.176C188.844 114.482 201.987 114.584 214.643 114.584C262.348 114.584 304.212 112.443 341.694 108.06C356.785 106.327 371.875 104.288 386.478 102.351C402.542 100.211 418.606 98.07 435.157 96.2352C470.692 92.1577 503.307 90.5267 546.631 90.5267C552.472 90.5267 558.313 90.5267 564.155 90.6286C573.89 90.7305 583.139 90.5267 592.388 90.3228H592.875C635.712 89.5073 674.655 84.7163 712.138 80.231C737.45 77.1729 763.736 74.0128 790.509 72.1779L791.97 72.076C799.758 71.5663 809.007 70.9547 816.309 70.7508C817.769 70.7508 819.229 70.7508 820.69 70.7508C843.568 70.7508 859.633 73.707 877.644 77.1729C883.486 78.2942 889.327 79.4155 895.655 80.4349C916.1 83.7988 939.465 86.5511 962.344 89.2015C973.54 90.5267 985.223 91.8519 996.419 93.279C997.393 93.0751 997.879 92.7693 998.853 92.5654C987.657 91.1383 975.974 89.7112 964.291 88.386C942.872 85.6337 919.508 82.8814 899.549 79.6194Z" fill="url(#paint6_linear_2385_9161)"/>
<path d="M823.127 90.8328C819.72 90.527 816.799 90.1192 813.391 89.8134C792.946 87.6727 774.936 85.8379 755.952 85.8379C743.782 85.8379 731.126 86.5514 717.982 88.1824C712.628 88.7941 706.786 89.6095 700.945 90.6289C687.315 92.8715 674.171 96.0316 660.054 99.2936C630.847 106.021 597.746 113.667 557.83 114.686C552.962 114.788 547.608 114.89 541.767 114.89C539.333 114.89 537.385 114.89 535.438 114.788C526.189 114.584 516.94 114.482 507.205 114.482C465.341 114.482 425.425 116.215 383.562 118.05L378.694 118.254C355.328 119.273 331.963 120.395 309.084 121.516H308.596C286.691 122.535 264.787 123.555 242.395 124.574C244.342 124.778 245.801 125.084 247.748 125.288C268.68 124.37 289.612 123.351 309.57 122.433H310.057C332.936 121.312 356.301 120.293 379.18 119.273L384.048 119.07C425.911 117.235 465.341 115.502 506.717 115.502C515.966 115.502 525.216 115.604 534.465 115.807C536.412 115.807 538.846 115.909 541.28 115.909C547.121 115.909 552.962 115.808 557.83 115.706C576.327 115.298 594.826 113.361 614.784 110.099C631.822 107.143 647.885 103.575 662.976 100.007C677.092 96.7452 690.236 93.6871 703.379 91.4445C709.22 90.4251 714.574 89.6095 719.929 89.0998C732.585 87.6727 744.268 86.9592 755.465 86.9592C773.476 86.9592 790.026 88.6921 810.957 90.8328C813.878 91.1386 817.286 91.4444 820.693 91.8522C858.662 95.7258 891.764 100.415 925.352 105.308C930.706 106.123 936.061 106.837 941.416 107.551C942.389 107.347 943.363 107.143 944.337 106.837C938.496 106.123 933.141 105.308 927.3 104.492C894.685 99.4975 861.096 94.7064 823.127 90.8328Z" fill="url(#paint7_linear_2385_9161)"/>
<path d="M864.019 113.361C829.458 108.876 793.922 104.288 754.979 101.434C743.296 100.619 733.561 100.211 725.286 100.211C719.444 100.211 713.603 100.415 708.248 100.823C697.052 101.74 686.343 103.575 671.74 107.143C667.845 108.162 662.977 109.385 657.622 111.016C648.86 113.463 640.585 116.419 631.336 119.477C603.59 129.059 571.949 139.967 524.731 142.719C522.784 142.821 520.836 142.923 518.889 143.025C523.27 143.025 528.138 143.127 532.519 143.127C577.303 139.661 607.97 129.263 634.744 119.987C643.992 116.929 652.268 113.972 660.543 111.526C665.898 109.997 670.279 108.774 674.66 107.754C692.184 103.473 705.327 101.128 724.799 101.128C733.074 101.128 742.324 101.536 753.52 102.352C791.976 105.104 827.511 109.691 861.585 114.176C865.48 114.686 869.374 115.196 873.268 115.705C878.136 116.317 883.49 117.031 889.332 117.744C890.305 117.54 891.766 117.336 892.739 117.133C886.898 116.419 881.057 115.705 875.216 114.992C871.808 114.278 867.914 113.871 864.019 113.361Z" fill="url(#paint8_linear_2385_9161)"/>
<path d="M741.825 111.322C722.841 111.322 705.803 112.851 689.252 116.113C675.136 118.866 663.453 122.535 653.231 125.797L651.284 126.409C646.903 127.836 642.035 129.365 636.681 131.2C629.866 133.545 623.05 136.195 615.749 138.947C612.828 140.069 609.907 141.19 606.986 142.311C608.933 142.311 610.394 142.209 612.341 142.209C614.775 141.292 617.209 140.374 619.643 139.457C626.945 136.705 633.273 134.054 640.088 131.71C645.443 129.875 649.824 128.346 654.691 126.919L656.638 126.205C677.57 119.579 700.936 112.138 741.339 112.138C781.256 112.138 822.145 116.521 857.68 120.293C860.114 120.599 863.035 120.802 865.469 121.108C866.93 120.904 867.902 120.701 869.362 120.497C865.955 120.191 863.034 119.783 859.627 119.477C824.092 115.808 783.202 111.322 741.825 111.322Z" fill="url(#paint9_linear_2385_9161)"/>
<path d="M788.57 122.841C772.506 122.841 758.39 123.351 744.76 124.37C709.225 127.122 684.885 133.85 663.953 140.374C665.9 140.272 668.334 140.17 670.282 140.068C690.24 133.952 713.606 127.734 746.22 125.185C758.877 124.166 772.993 123.656 788.57 123.656C805.608 123.656 822.645 124.268 838.709 125.083C840.17 124.88 842.117 124.676 843.577 124.37C836.762 123.962 829.946 123.656 823.131 123.452C810.962 123.045 799.28 122.841 788.57 122.841Z" fill="url(#paint10_linear_2385_9161)"/>
<path d="M722.848 136.909C728.202 136.501 733.557 136.093 738.912 135.686C739.399 135.686 739.398 135.584 739.885 135.584C750.108 134.259 761.79 133.341 773.96 132.627C779.801 132.118 785.156 131.506 790.51 130.895C771.039 131.506 753.028 132.831 737.451 134.768C732.583 135.38 727.229 136.093 722.848 136.909Z" fill="url(#paint11_linear_2385_9161)"/>
</g>
<defs>
<linearGradient id="paint0_linear_2385_9161" x1="81.874" y1="-24.0421" x2="89.0335" y2="70.3686" gradientUnits="userSpaceOnUse">
<stop stop-color="#F2D57E"/>
<stop offset="1" stop-color="#A7F2D7"/>
</linearGradient>
<linearGradient id="paint1_linear_2385_9161" x1="67.8111" y1="3.6443" x2="71.3119" y2="70.4112" gradientUnits="userSpaceOnUse">
<stop stop-color="#F2D57E"/>
<stop offset="1" stop-color="#A7F2D7"/>
</linearGradient>
<linearGradient id="paint2_linear_2385_9161" x1="80.8592" y1="32.285" x2="84.0544" y2="95.6402" gradientUnits="userSpaceOnUse">
<stop stop-color="#F2D57E"/>
<stop offset="1" stop-color="#A7F2D7"/>
</linearGradient>
<linearGradient id="paint3_linear_2385_9161" x1="104.437" y1="43.308" x2="109.814" y2="124.217" gradientUnits="userSpaceOnUse">
<stop stop-color="#F2D57E"/>
<stop offset="1" stop-color="#A7F2D7"/>
</linearGradient>
<linearGradient id="paint4_linear_2385_9161" x1="130.217" y1="58.5084" x2="135.049" y2="133.69" gradientUnits="userSpaceOnUse">
<stop stop-color="#F2D57E"/>
<stop offset="1" stop-color="#A7F2D7"/>
</linearGradient>
<linearGradient id="paint5_linear_2385_9161" x1="159.76" y1="71.8629" x2="164.918" y2="147.001" gradientUnits="userSpaceOnUse">
<stop stop-color="#F2D57E"/>
<stop offset="1" stop-color="#A7F2D7"/>
</linearGradient>
<linearGradient id="paint6_linear_2385_9161" x1="228.056" y1="81.1548" x2="237.211" y2="174.354" gradientUnits="userSpaceOnUse">
<stop stop-color="#F2D57E"/>
<stop offset="1" stop-color="#A7F2D7"/>
</linearGradient>
<linearGradient id="paint7_linear_2385_9161" x1="291.672" y1="95.8853" x2="300.03" y2="177.796" gradientUnits="userSpaceOnUse">
<stop stop-color="#F2D57E"/>
<stop offset="1" stop-color="#A7F2D7"/>
</linearGradient>
<linearGradient id="paint8_linear_2385_9161" x1="545.134" y1="111.141" x2="563.117" y2="197.428" gradientUnits="userSpaceOnUse">
<stop stop-color="#F2D57E"/>
<stop offset="1" stop-color="#A7F2D7"/>
</linearGradient>
<linearGradient id="paint9_linear_2385_9161" x1="625.406" y1="119.215" x2="638.734" y2="181.37" gradientUnits="userSpaceOnUse">
<stop stop-color="#F2D57E"/>
<stop offset="1" stop-color="#A7F2D7"/>
</linearGradient>
<linearGradient id="paint10_linear_2385_9161" x1="676.563" y1="127.306" x2="682.883" y2="162.97" gradientUnits="userSpaceOnUse">
<stop stop-color="#F2D57E"/>
<stop offset="1" stop-color="#A7F2D7"/>
</linearGradient>
<linearGradient id="paint11_linear_2385_9161" x1="727.598" y1="132.426" x2="729.582" y2="144.724" gradientUnits="userSpaceOnUse">
<stop stop-color="#F2D57E"/>
<stop offset="1" stop-color="#A7F2D7"/>
</linearGradient>
</defs>
</svg>
