<svg width="674" height="1070" viewBox="0 0 674 1070" fill="none" xmlns="http://www.w3.org/2000/svg">
<path d="M519.037 462.893C521.59 469.385 524.443 475.705 527.295 482.025C526.765 478.348 526.235 474.67 525.533 470.694C524.279 467.833 522.853 464.673 521.599 461.811C519.391 455.916 516.838 449.424 514.238 442.162C504.967 416.444 495.12 386.281 487.065 355.081C485.294 351.324 483.224 347.738 481.154 344.153C489.486 379.973 501.105 413.895 511.204 443.117C514.275 450.505 516.829 456.998 519.037 462.893Z" fill="url(#paint0_linear_2154_6661)" fill-opacity="0.4"/>
<path d="M489.237 419.557C492.135 426.647 494.688 433.139 497.368 439.16C507.224 461.751 518.276 483.652 529.453 505.082C529.798 505.679 530.143 506.277 530.488 506.874C530.177 504.266 530.164 501.484 529.853 498.876C519.711 479.238 509.522 458.831 500.402 438.205C497.722 432.184 495.169 425.692 492.271 418.602L489.153 410.443C475.478 375.717 461.019 338.256 453.319 300.08C451.813 298.162 450.479 296.542 449.272 294.45C456.169 334.683 472.007 374.535 486.12 411.398L489.237 419.557Z" fill="url(#paint1_linear_2154_6661)" fill-opacity="0.4"/>
<path d="M466.041 409.046C468.893 415.366 471.871 421.215 474.677 426.765C476.793 431.12 479.38 435.601 482.14 440.381C486.28 447.551 490.891 454.847 494.858 461.718C499.123 468.417 503.435 475.886 507.575 483.056C515.337 496.499 520.823 508.071 524.55 518.666C526.758 524.561 528.668 530.628 530.451 537.167C530.393 533.615 530.334 530.064 530.275 526.513C529.32 523.479 528.366 520.446 527.284 517.883C523.385 506.99 517.899 495.418 509.965 481.676C505.825 474.506 501.215 467.21 497.248 460.338C492.809 453.341 488.67 446.171 484.53 439.001C481.77 434.221 479.183 429.739 477.239 425.683C474.434 420.133 471.455 414.285 468.603 407.965C449.593 366.759 430.339 318.922 423.898 265.679C422.737 264.358 421.575 263.037 420.116 261.888C422.121 279.85 425.54 298.191 430.844 317.037C438.84 344.685 450.181 373.988 466.041 409.046Z" fill="url(#paint2_linear_2154_6661)" fill-opacity="0.4"/>
<path d="M442.554 419.423C445.314 424.203 448.545 429.109 451.431 433.418C457.203 442.035 464.044 450.434 470.539 458.236C479.059 468.852 488.222 479.893 495.121 491.843C498.571 497.818 501.25 503.839 503.286 509.435C516.987 549.723 517.829 594.647 517.038 638.123C518.174 633.882 519.311 629.641 520.447 625.4C520.699 585.82 518.72 545.137 506.32 508.48C504.41 502.413 501.432 496.565 497.81 490.291C490.738 478.042 481.747 467.299 473.056 456.384C466.56 448.583 459.719 440.184 454.12 431.866C451.061 427.258 448.003 422.651 445.243 417.871C412.909 363.246 405.327 303.889 401.033 242.636C400.044 241.613 398.757 240.763 397.768 239.741C400.273 273.746 403.224 302.316 409.209 329.93C416.035 363.831 427.077 393.305 442.554 419.423Z" fill="url(#paint3_linear_2154_6661)" fill-opacity="0.4"/>
<path d="M381.481 233.61C383.243 244.941 384.453 257.387 385.71 270.603C386.748 282.75 387.614 294.598 388.4 307.688C391.438 355.725 394.27 405.476 418.072 446.703C419.107 448.496 419.969 449.989 421.004 451.782C423.545 455.493 426.086 459.204 428.926 462.743C435.594 470.843 443.882 477.609 451.872 484.548C462.264 492.889 472.702 501.999 479.256 513.351C480.464 515.442 481.671 517.534 482.58 519.798C498.153 557.81 494.042 605.194 490.378 647.143C489.885 651.809 489.691 656.302 489.199 660.969C488.226 673.082 487.126 685.666 486.233 696.539C485.328 704.63 484.894 712.847 483.989 720.938C485.39 718.536 486.493 716.306 487.894 713.904C488.467 707.996 488.913 702.56 489.486 696.653C490.631 684.838 491.604 672.725 492.451 661.082C492.645 656.589 493.31 652.222 493.803 647.555C497.295 605.308 501.531 557.452 485.613 518.843C484.705 516.579 483.325 514.189 482.118 512.098C475.218 500.148 464.309 490.911 453.744 482.272C445.927 475.632 437.812 469.165 431.144 461.065C428.476 457.825 425.935 454.113 423.394 450.402C422.359 448.609 421.497 447.116 420.462 445.323C397.177 404.992 394.047 355.415 391.181 307.676C390.568 294.885 389.53 282.738 388.492 270.591C387.235 257.375 385.851 244.63 384.262 233.597L383.905 230.219C384.031 229.748 383.686 229.15 383.812 228.679C382.524 227.829 381.536 226.806 380.248 225.956C380.341 227.496 380.905 229.162 380.997 230.702L381.481 233.61Z" fill="url(#paint4_linear_2154_6661)" fill-opacity="0.4"/>
<path d="M376.165 278.9C378.019 291.771 379.575 304.814 380.533 318.202C382.16 337.578 382.89 357.472 383.574 376.595C384.292 393.707 385.056 411.589 385.947 429C387.414 450.858 390.306 475.876 402.725 497.386L403.242 498.282C405.14 501.568 407.336 504.683 409.658 507.325C416.453 514.954 424.775 519.709 433.396 524.292C443.131 529.426 452.097 534.606 458.041 543.522C458.559 544.418 459.249 545.613 459.766 546.51C476.842 576.086 471.961 623.516 468.008 658.064C467.262 663.673 466.816 669.109 466.496 674.074C465.11 689.612 463.426 705.323 461.822 719.792C460.217 734.262 458.613 748.732 457.48 763.327C458.755 761.396 459.904 759.936 461.179 758.005C462.577 745.248 463.676 732.663 465.074 719.906C466.804 704.966 468.19 689.427 469.748 674.188C470.068 669.223 470.986 663.913 471.26 658.178C473.231 639.514 475.66 618.194 474.884 597.531C474.048 573.317 469.561 555.195 460.558 541.671C454.268 532.158 444.831 526.851 434.751 521.119C426.601 516.663 418.279 511.908 411.829 504.876C409.507 502.234 407.483 499.419 405.586 496.132L405.069 495.236C392.995 474.324 390.275 449.604 388.682 428.217C387.493 410.979 386.728 393.097 386.01 375.985C385.326 356.862 384.596 336.969 382.797 317.294C381.839 303.906 380.283 290.862 378.428 277.991C374.19 248.572 367.632 226.865 357.927 209.365C355.996 208.09 354.065 206.815 352.134 205.54C352.823 206.735 353.513 207.929 354.203 209.124C365.023 227.176 371.707 248.411 376.165 278.9Z" fill="url(#paint5_linear_2154_6661)" fill-opacity="0.4"/>
<path d="M206.866 167.124L208.452 167.801C240.807 178.996 274.575 190.57 303.025 208.799C324.692 222.181 340.512 238.541 351.723 257.96C362.934 277.379 370.055 300.752 373.524 330.217C375.08 343.261 376.337 356.477 376.651 369.44C377.878 395.022 377.265 420.869 376.779 446.244C376.564 455.53 376.268 466.057 376.272 476.412L376.112 478.895C375.832 502.558 375.737 529.301 386.191 551.547C387.617 554.707 389.342 557.694 391.664 560.337C398.677 569.034 407.677 572.203 416.378 575.545C423.791 578.036 431.377 580.827 436.838 586.835C438.988 589.179 440.839 591.696 442.564 594.683C447.738 603.646 450.788 615.827 451.413 631.399C452.177 649.281 450.081 668.416 448.396 684.127C447.904 688.793 447.284 693.93 446.918 698.125C445.486 712.893 444.227 727.96 442.622 742.43C441.018 756.899 439.586 771.667 438.327 786.735C439.476 785.275 440.625 783.815 441.774 782.355C442.827 769.001 444.35 755.772 445.576 742.716C447.18 728.247 448.738 713.007 449.871 698.411C450.238 694.216 450.857 689.08 451.35 684.414C453.034 668.703 455.131 649.567 454.493 631.213C453.821 614.871 450.599 602.392 445.253 593.131C443.528 590.143 441.504 587.328 438.883 584.858C432.779 578.424 424.721 575.508 417.135 572.718C408.607 569.675 400.079 566.632 393.709 558.36C391.858 555.843 390.306 553.155 388.581 550.167C378.472 528.518 378.659 503.315 378.893 478.882L379.053 476.399C379.222 466.344 379.345 455.518 379.56 446.232C380.046 420.856 380.659 395.01 379.433 369.428C378.946 356.166 377.688 342.95 376.133 329.906C372.365 300.613 365.762 278.136 355.022 258.844C343.246 237.759 326.611 220.675 303.955 206.27C275.034 187.915 241.266 176.341 208.439 165.02C204.497 163.711 200.555 162.402 196.911 160.921C181.912 155.639 168.107 149.667 155.969 143.132C153.487 142.972 151.475 142.938 149.166 143.077C162.936 151.06 178.499 158.008 195.855 163.921C200.096 165.057 203.567 166.24 206.866 167.124Z" fill="url(#paint6_linear_2154_6661)" fill-opacity="0.4"/>
<path d="M198.02 197.331C202.308 199.237 206.768 201.442 210.929 203.82L212.043 204.371C243.262 219.806 275.722 235.323 303.241 256.081C324.105 271.52 339.326 288.225 350.365 307.345C362.267 327.959 369.261 351.803 371.741 380.246C372.733 391.623 373.048 404.587 373.064 417.723C372.612 441.087 370.792 464.843 368.926 487.828C367.999 500.712 366.774 513.767 366.019 526.949L365.893 527.421C364.511 553.314 362.704 579.85 370.814 604.246C371.941 607.579 373.367 610.739 375.092 613.726L375.264 614.025C381.991 625.676 391.416 628.202 400.84 630.727C406.668 632.541 412.793 634.182 418.587 638.007C421.978 640.431 425.117 643.797 427.531 647.98C438.225 666.502 435.408 696.809 433.496 719.024C433.083 722.449 432.843 726.173 432.729 729.425C431.722 743.55 430.417 757.847 429.065 771.374C428.126 781.476 427.359 791.877 426.593 802.278C427.914 801.117 428.764 799.829 430.085 798.668C430.771 789.508 431.631 780.648 432.49 771.787C433.669 757.961 434.974 743.664 435.981 729.539C436.268 726.585 436.508 722.862 436.748 719.138C438.786 696.451 441.73 665.674 430.519 646.255C427.932 641.774 424.62 638.108 421.057 635.386C414.918 630.963 408.62 629.023 402.494 627.382C393.541 624.983 384.886 622.411 378.849 611.955L378.677 611.657C377.124 608.968 375.871 606.106 374.743 602.774C366.978 578.976 368.487 552.611 370.042 527.017L369.869 526.718C370.796 513.835 371.55 500.653 372.649 488.068L372.477 487.77C374.343 464.784 376.163 441.029 376.615 417.664C376.898 404.356 376.285 391.565 375.591 380.015C373.158 352.342 366.806 328.923 355.376 308.435C343.946 287.948 328.035 270.047 305.883 253.758C278.065 233.172 245.732 217.186 214.215 201.923C209.755 199.717 204.824 197.386 200.192 194.882C170.088 179.997 145.11 162.951 124.738 142.845C123.198 142.938 121.957 142.857 120.417 142.95C123.038 145.42 125.659 147.89 128.28 150.36C146.502 168.121 169.848 183.721 198.02 197.331Z" fill="url(#paint7_linear_2154_6661)" fill-opacity="0.4"/>
<path d="M193.095 226.06C197.256 228.438 201.29 231.286 205.451 233.664C237.545 253.375 270.925 273.935 299.446 298.497C319.977 316.12 334.774 333.469 345.123 351.394C357.196 372.307 363.203 395.128 363.314 420.159C363.317 430.514 362.896 441.512 361.923 453.625C360.331 470.876 357.969 488.173 355.056 506.585C348.118 553.212 340.973 601.552 351.572 646.817C352.666 652.161 354.138 656.091 355.392 658.952C356.3 661.216 357.508 663.307 358.543 665.099C363.027 672.867 368.143 678.278 375.649 682.31C379.638 684.389 383.878 685.525 387.947 686.362C392.487 687.326 397.498 688.416 401.705 691.564C405.096 693.988 407.936 697.526 410.178 701.41C413.283 706.788 415.365 713.154 416.299 720.98C418.107 733.081 417.353 746.263 416.759 756.963C416.599 759.446 416.565 761.457 416.404 763.939C416.075 776.477 414.85 789.533 413.372 803.532L413.418 804.301C413.178 808.025 412.639 811.921 412.399 815.645C413.421 814.656 414.743 813.495 415.593 812.208C416.051 809.553 416.039 806.772 416.498 804.117L416.624 803.645C417.803 789.82 418.856 776.465 419.484 763.754C419.518 761.743 419.678 759.26 419.838 756.778C420.433 746.078 421.014 732.597 419.332 720.025C418.054 711.602 415.799 704.937 412.522 699.261C410.107 695.078 406.796 691.413 403.233 688.69C398.554 685.417 393.371 684.028 388.36 682.938C384.291 682.1 380.521 681.09 376.705 679.31C370.142 675.531 365.371 670.717 361.059 663.248C360.024 661.456 358.989 659.663 358.081 657.4C356.827 654.538 355.527 650.907 354.307 646.034C343.582 601.24 350.899 553.199 357.538 506.745C360.152 488.505 362.813 471.037 364.405 453.786C365.378 441.672 365.926 430.203 365.923 419.848C365.639 394.519 359.805 371.995 347.857 350.612C337.462 331.917 322.022 314.142 300.675 295.796C272.154 271.234 238.773 250.673 206.209 230.836L205.392 230.112C201.53 227.562 197.84 225.311 193.679 222.933C154.034 198.421 124.054 172.711 100.991 143.803C99.7494 143.723 98.3816 144.114 97.3129 144.333C104.027 153.203 111.81 161.854 120.019 169.862C140.217 189.668 163.875 207.877 193.095 226.06Z" fill="url(#paint8_linear_2154_6661)" fill-opacity="0.4"/>
<path d="M175.679 244.878L176.322 245.303C213.75 271.494 252.592 298.063 285.85 329.45C302.863 345.12 320.142 362.629 331.871 382.944C343.255 402.662 347.663 422.025 345.486 442.402C344.547 452.504 342.114 463.468 340.312 472.077C332.096 510.28 327.061 542.266 324.841 572.227C322.095 608.866 323.438 641.55 329.137 672.119C330.104 677.933 331.668 683.403 333.486 687.93C335.913 694.894 338.42 700.617 341.697 706.293C344.802 711.67 348.159 716.106 352.24 719.725C357.138 724.067 362.54 726.525 367.77 728.684C371.413 730.165 375.056 731.646 378.275 733.771C384.54 737.722 389.483 742.835 392.933 748.81C400.695 762.254 401.412 779.366 401.407 797.294C401.364 806.879 401.022 816.636 400.979 826.221C402.002 825.232 403.025 824.244 404.047 823.255C404.309 814.739 404.398 805.924 404.487 797.11C404.345 784.445 404.203 771.78 400.901 760.541C399.681 755.669 397.864 751.142 395.622 747.258C391.827 740.685 386.711 735.274 379.803 730.897C376.113 728.646 372.297 726.866 368.653 725.384C363.423 723.226 358.665 721.193 354.239 716.977C350.629 713.484 347.146 709.521 344.214 704.442C341.109 699.065 338.602 693.342 336.347 686.677C334.53 682.15 333.264 676.507 332.17 671.164C319.276 600.535 331.148 527.957 343.093 472.065C344.895 463.456 347.328 452.491 348.565 442.217C350.696 421.07 346.242 400.937 334.686 380.92C334.169 380.024 333.479 378.829 332.961 377.933C320.98 358.561 303.701 341.052 288.147 326.53C254.591 295.316 215.875 268.275 178.149 242.257L177.505 241.832C137.502 213.941 99.3383 185.785 72.9393 147.65C71.8706 147.869 70.8018 148.087 69.7331 148.306C79.2072 161.956 90.5201 175.341 103.97 188.289C125.974 209.841 151.344 228.256 175.679 244.878Z" fill="url(#paint9_linear_2154_6661)" fill-opacity="0.4"/>
<path d="M142.19 258.63C175.962 280.558 219.654 310.701 256.993 345.706C275.513 363.295 292.918 380.333 304.521 401.119C314.743 419.515 314.393 436.846 310.377 457.488C308.575 466.096 306.475 474.877 304.375 483.658L303.491 486.957C296.1 518.311 293.375 550.157 294.512 584.554C295.625 613.388 299.783 644.049 307.61 681.753C308.969 688.936 310.361 694.106 311.581 698.979C315.274 711.585 318.748 723.123 324.785 733.579C325.475 734.774 326.165 735.969 326.855 737.164C332.627 745.781 339.628 751.697 347.272 758.039C351.181 761.359 355.388 764.506 358.998 767.999C364.585 773.536 368.93 778.994 372.38 784.969C378.934 796.321 382.375 809.87 383.737 827.407C383.968 831.257 384.073 835.578 384.523 840.497C385.545 839.508 386.441 838.99 387.464 838.002C387.233 834.152 387.174 830.601 386.817 827.222C385.859 813.834 383.844 803.445 380.037 794.092C378.738 790.461 376.966 786.703 375.069 783.416C371.447 777.143 366.929 771.387 361.341 765.849C357.559 762.058 353.352 758.91 349.443 755.59C341.971 749.547 334.971 743.631 329.544 735.611C328.854 734.416 328.164 733.221 327.646 732.325C321.782 722.167 318.181 711.101 314.488 698.495C312.97 693.795 311.876 688.451 310.219 681.441C298.674 625.569 289.263 558.904 306.192 488.186L307.076 484.887C309.176 476.107 311.276 467.325 313.078 458.717C317.22 437.604 317.824 419.331 307.083 400.038C306.911 399.74 306.566 399.142 306.393 398.843C294.492 378.229 277.087 361.192 258.739 343.901C221.228 308.597 177.708 278.754 143.465 256.7C100.038 228.396 59.046 199.482 32.8872 157.623C31.8185 157.842 30.9223 158.36 29.8536 158.578C39.9376 174.665 52.2856 189.843 68.3108 204.49C91.1643 224.756 117.257 242.353 142.19 258.63Z" fill="url(#paint10_linear_2154_6661)" fill-opacity="0.4"/>
<path d="M21.8695 218.564C44.5167 240.542 72.3692 259.117 96.4854 274.67C133.131 298.126 175.363 327.119 211.759 361.872C230.279 379.461 247.731 397.269 258.564 418.102C267.97 435.774 267.321 453.277 263.006 474.091C262.168 478.16 261.331 482.228 260.792 486.124L260.666 486.596C259.748 491.906 258.532 497.388 257.441 502.399C245.567 564.623 263.57 619.953 282.701 678.616L285.347 686.649C287.475 693.785 289.338 699.082 291.156 703.61L291.501 704.207C295.791 716.468 300.553 728.856 306.51 740.553C311.604 750.757 318.226 758.087 325.492 765.842C327.987 768.783 330.953 771.851 333.62 775.091C337.794 780.25 341.841 785.88 345.118 791.556C354.26 807.39 360.334 826.189 363.168 847.656C363.306 849.966 363.916 852.402 364.055 854.712C364.951 854.195 365.974 853.207 366.87 852.689C366.605 850.85 366.34 849.012 366.075 847.173C363.241 825.706 356.822 806.309 347.508 790.176C344.059 784.201 340.011 778.571 335.665 773.114C332.998 769.874 330.032 766.806 327.365 763.566C320.57 755.937 313.948 748.607 308.728 738.875C302.943 727.476 298.181 715.089 294.063 703.126L293.718 702.529C292.2 697.829 290.336 692.531 287.909 685.568L285.263 677.535C266.305 619.171 248.474 564.14 260.096 502.858C261.014 497.548 262.23 492.066 263.148 486.756C263.986 482.687 264.823 478.619 265.661 474.55C268.174 462.344 269.033 453.483 268.525 445.014C268.05 434.533 265.484 425.259 260.781 416.423C260.091 415.228 259.229 413.734 258.539 412.539C247.327 393.12 230.865 376.335 213.161 359.47C176.592 324.418 134.061 295.597 97.2428 271.842C55.4476 244.986 12.8702 215.396 -11.2774 173.571C-11.4499 173.272 -11.7951 172.674 -11.9676 172.375C-12.8638 172.893 -13.9323 173.112 -14.8285 173.629C-4.6182 189.244 7.08555 203.997 21.8695 218.564Z" fill="url(#paint11_linear_2154_6661)" fill-opacity="0.4"/>
<path d="M345.002 861.729C341.993 829.608 334.56 803.627 321.889 783.059C318.439 777.084 314.094 771.627 309.748 766.169C305.402 760.712 301.056 755.254 297.606 749.279C290.581 737.801 284.75 725.632 279.092 713.762C277.838 710.9 276.113 707.913 274.86 705.052C272.744 700.697 270.455 696.043 268.339 691.688L266.913 688.528C262.853 680.117 258.495 671.878 254.309 663.938C231.046 618.815 206.92 572.197 211.775 519.204C212.681 511.113 213.494 501.483 214.652 492.449C216.096 480.462 215.575 469.211 213.388 458.523C211.247 448.606 207.739 439.08 202.518 429.348C192.813 411.848 179.052 396.291 161.129 378.357C126.1 343.213 83.994 313.748 47.7735 289.649C8.80568 263.55 -30.7721 235.016 -53.0223 196.477C-53.3673 195.88 -53.8847 194.984 -54.2296 194.386C-54.8271 194.731 -55.4246 195.076 -56.0221 195.421C-56.3208 195.594 -56.6196 195.766 -56.9184 195.939C-56.5734 196.536 -56.2285 197.133 -55.7111 198.03C-48.2943 210.876 -38.5677 223.583 -26.4048 235.681C-4.52759 257.705 21.4396 275.774 46.0732 292.223C82.2937 316.323 123.929 345.661 158.785 380.507C175.891 397.717 189.136 412.377 198.45 428.51C210.178 448.825 214.162 468.832 211.698 492.163C210.54 501.196 209.727 510.827 208.994 519.217C206.577 543.317 210.24 568.289 219.603 595.546C228.012 619.77 239.926 643.165 251.793 665.789C255.979 673.729 260.211 682.439 264.397 690.379L265.65 693.24C267.766 697.595 270.055 702.249 272.171 706.604C273.425 709.465 275.149 712.453 276.403 715.314C282.061 727.184 288.363 739.479 295.09 751.13C298.712 757.404 303.058 762.861 307.404 768.319C311.577 773.478 315.625 779.108 319.2 784.612C331.699 804.88 339.258 830.391 341.923 861.914C342.061 864.224 342.2 866.534 342.339 868.844L342.385 869.614C343.281 869.096 344.476 868.406 345.372 867.889C345.406 865.878 345.44 863.866 345.002 861.729Z" fill="url(#paint12_linear_2154_6661)" fill-opacity="0.4"/>
<path d="M300.533 772.285C291.736 757.049 280.802 742.25 270.512 727.877C265.303 720.925 259.923 713.675 255.013 706.551C251.955 701.944 248.252 696.911 244.378 691.58C238.307 683.135 231.765 674.564 225.522 665.82C211.92 647.781 197.974 629.145 186.763 609.726C171.584 583.436 163.819 559.638 162.214 535.47L162.202 532.689C161.613 525.46 161.151 517.76 161.16 510.187C160.935 488.409 155.538 468.023 143.982 448.006L143.637 447.409C132.598 428.289 117.204 411.286 103.834 397.097C70.5177 362.159 32.1348 332.934 -4.52312 306.697C-39.2499 281.735 -74.414 254.635 -95.3183 220.498C-96.2145 221.015 -96.9382 221.832 -97.8344 222.349C-91.8438 232.035 -84.4393 242.1 -75.84 251.475C-55.6752 273.293 -30.4315 292.179 -6.52166 309.444C30.1362 335.682 68.5189 364.906 101.49 399.246C115.677 414.159 130.254 430.439 140.776 448.662C152.159 468.38 157.855 488.594 157.908 510.073C157.899 517.647 158.361 525.347 158.949 532.575L159.26 535.184C160.912 560.122 168.677 583.92 184.2 610.807C195.584 630.525 209.53 649.161 223.132 667.2C229.501 675.472 235.745 684.216 241.815 692.661C245.69 697.993 248.921 702.899 252.451 707.633C257.36 714.757 262.741 722.006 267.949 728.958C278.538 743.159 289.001 757.832 297.798 773.068C300.385 777.549 302.501 781.904 304.617 786.259C319.429 816.743 322.325 852.116 323.046 879.583L323.093 880.353C323.989 879.836 325.184 879.146 326.08 878.628C325.359 851.161 321.991 815.662 307.306 784.706C305.236 781.121 303.12 776.767 300.533 772.285Z" fill="url(#paint13_linear_2154_6661)" fill-opacity="0.4"/>
<path d="M293.958 786.437C291.968 781.611 289.335 776.36 286.403 771.281C275.536 752.46 259.718 736.1 244.543 720.165C240.76 716.374 237.621 713.007 234.31 709.342C229.838 704.355 225.067 699.542 221.756 695.877C215.479 689.144 208.904 682.584 202.328 676.024C177.956 651.058 152.296 625.243 135.048 595.368C126.596 580.729 120.8 566.55 117.267 551.462C115.265 543.854 113.389 535.776 111.984 527.823C108.082 506.575 100.547 486.626 89.2097 467.679C79.5969 451.719 67.5018 435.599 49.9581 416.251C19.1704 382.244 -17.42 351.984 -52.1591 324.241C-78.7825 302.965 -108.969 278.967 -129.596 249.449C-130.32 250.266 -131.216 250.783 -131.94 251.599C-127.721 257.528 -123.202 263.285 -118.212 269.167C-98.6451 291.33 -74.1254 311.031 -54.3303 326.689C-19.5912 354.432 16.5278 384.566 47.3155 418.574C65.6754 438.645 77.9432 455.064 87.2573 471.196C97.7787 489.42 104.623 508.173 108.479 528.652C109.884 536.604 111.76 544.683 113.934 552.589C117.467 567.678 123.609 582.455 132.233 597.392C149.826 627.864 175.187 653.852 199.858 678.645C206.261 684.906 212.711 691.937 218.815 698.371C222.77 702.461 227.07 707.149 231.37 711.837C234.681 715.502 237.991 719.167 241.601 722.659C256.776 738.595 272.296 755.127 282.818 773.351C285.75 778.43 288.211 783.382 290.201 788.208C303.313 821.268 305.06 858.101 304.817 890.107C305.714 889.59 307.081 889.199 307.978 888.681C307.857 871.224 307.45 856.721 305.894 843.677C304.554 821.348 300.365 803.053 293.958 786.437Z" fill="url(#paint14_linear_2154_6661)" fill-opacity="0.4"/>
<path d="M273.454 774.375C262.243 754.957 242.747 739.127 225.527 725.169C221.618 721.849 217.238 718.402 213.33 715.082L209.421 711.762C206.156 708.867 202.593 706.145 199.328 703.25C162.175 671.324 119.825 635.228 94.4696 591.312C89.6401 582.947 85.5804 574.536 82.2909 566.078L80.8186 562.148C78.4377 555.955 75.8842 549.462 73.802 543.096C67.9467 525.365 60.4717 508.968 51.3301 493.134C40.1187 473.716 25.4824 453.884 6.5588 432.147C-22.9877 398.219 -56.8433 367.177 -88.7212 338.18L-92.3308 334.688C-112.437 316.421 -134.992 295.983 -152.594 273.084C-153.318 273.901 -154.041 274.717 -154.765 275.533C-153.776 276.556 -152.914 278.049 -151.926 279.071C-134.715 300.603 -113.148 320.019 -94.2032 336.964L-90.5936 340.456C-58.7157 369.453 -24.8604 400.495 4.51364 434.124C23.2647 455.563 37.9012 475.394 48.9401 494.514C58.0817 510.348 65.3845 526.446 71.2398 544.177C73.322 550.544 75.8755 557.036 78.2564 563.23L79.7286 567.16C83.0181 575.617 87.2501 584.327 92.0796 592.692C117.78 637.205 160.302 673.6 197.456 705.526C200.721 708.421 204.457 711.442 207.721 714.337L211.63 717.657C215.538 720.977 219.918 724.424 223.827 727.744C240.874 741.403 259.899 757.107 270.938 776.227C272.491 778.915 273.917 782.076 275.17 784.937C289.616 819.616 290.698 860.817 290.089 897.018C290.985 896.501 292.353 896.109 293.249 895.592C294.03 859.689 292.649 818.661 278.031 783.683C276.904 780.35 275.179 777.363 273.454 774.375Z" fill="url(#paint15_linear_2154_6661)" fill-opacity="0.4"/>
<path d="M259.204 784.189C248.855 766.264 230.785 753.593 213.657 741.176C206.875 736.328 200.093 731.48 194.081 726.586C189.529 722.841 185.149 719.395 181.068 715.777C137.511 677.59 93.3777 634.955 62.9283 580.835C58.0988 572.47 54.0853 564.829 50.7157 557.613C44.6664 544.375 37.721 531.656 30.8217 519.706C15.6432 493.416 -1.58036 469.103 -22.3088 445.619C-48.0269 416.253 -76.8247 387.071 -111.105 356.673C-132.499 337.557 -154.582 317.245 -171.242 294.599C-171.966 295.415 -172.69 296.231 -173.413 297.047C-172.08 298.667 -170.573 300.586 -169.366 302.677C-152.971 323.485 -132.692 342.05 -113.575 359.294C-79.5934 389.865 -50.497 418.874 -25.2502 448.114C-4.82049 471.77 12.5292 495.612 27.7077 521.901C34.607 533.851 41.0814 546.445 47.4294 559.51C50.9715 567.025 54.9848 574.666 59.8143 583.031C90.4362 637.45 135.041 680.21 178.77 718.696C182.851 722.315 187.231 725.762 191.783 729.507C197.796 734.401 204.578 739.248 211.36 744.096C228.315 756.215 245.914 768.759 255.918 786.087C257.298 788.476 258.379 791.039 259.46 793.601C273.388 827.385 274.252 867.516 272.999 903.292C274.068 903.074 274.964 902.556 276.331 902.165C277.584 866.388 276.422 826.43 262.494 792.646C261.838 789.44 260.584 786.579 259.204 784.189Z" fill="url(#paint16_linear_2154_6661)" fill-opacity="0.4"/>
<path d="M240.878 800.75C230.874 783.422 213.999 770.062 197.296 757C190.64 751.681 184.628 746.787 178.742 741.422C174.833 738.102 171.224 734.61 167.143 730.991C127.011 693.217 81.6362 650.502 49.613 598.486C47.3707 594.602 44.8297 590.891 42.7599 587.306C40.1726 582.825 37.9304 578.941 35.8144 574.586C30.9386 565.451 26.2355 556.615 21.406 548.25C2.77787 515.985 -16.423 489.628 -38.4389 465.294C-62.9033 438.789 -90.2754 412.767 -120.164 388.596C-142.58 370.468 -167.583 347.859 -185.349 317.088C-185.694 316.491 -185.866 316.192 -186.211 315.594C-186.935 316.411 -187.486 317.525 -188.21 318.341C-184.415 324.914 -180.322 331.314 -175.459 337.668C-162.202 355.109 -145.567 372.193 -122.335 391.045C-92.4466 415.215 -65.2472 440.938 -40.7827 467.444C-18.7668 491.778 0.261377 517.836 18.8895 550.101C23.5465 558.167 28.2499 567.004 33.1257 576.139C35.2417 580.494 37.4838 584.377 40.0711 588.858C42.1409 592.443 44.3832 596.327 46.9243 600.038C79.1199 652.353 124.667 695.366 164.971 733.439C168.754 737.23 172.662 740.551 176.571 743.871C182.457 749.236 188.768 753.958 195.424 759.276C211.655 772.212 228.53 785.572 238.189 802.302C255.265 831.878 256.898 871.964 255.566 908.981C256.634 908.762 257.531 908.245 258.599 908.026C260.403 871.135 258.299 830.923 240.878 800.75Z" fill="url(#paint17_linear_2154_6661)" fill-opacity="0.4"/>
<path d="M214.544 815.158C213.509 813.365 212.6 811.101 211.565 809.309C202.424 793.475 188.927 779.757 175.603 766.338C172.465 762.972 169.027 759.778 165.889 756.412C164.084 754.666 162.578 752.747 160.773 751.001L160.601 750.702C158.968 749.255 157.462 747.336 155.829 745.888C146.414 735.789 136.401 726.035 127.031 716.706C96.4286 685.778 64.3659 653.702 40.1969 616.669C34.4249 608.052 29.9404 600.284 26.0995 592.942C22.2587 585.6 18.8092 579.625 15.3595 573.65C-4.30353 539.593 -23.286 514.303 -46.6231 491.13C-70.1327 467.659 -95.5146 446.464 -121.482 428.394C-147.92 410.199 -168.211 388.852 -182.872 363.459C-188.219 354.198 -192.843 344.12 -197.214 333.1C-197.765 334.215 -198.615 335.502 -199.166 336.617C-195.14 347.04 -190.563 356.347 -185.389 365.309C-182.284 370.687 -179.053 375.593 -175.65 380.798C-162.128 400.078 -145.068 416.519 -123.308 431.441C-97.5135 449.211 -72.304 470.107 -48.7944 493.579C-25.6297 516.453 -6.9463 541.914 12.5442 575.673C15.8214 581.349 19.4439 587.623 23.2847 594.966C27.298 602.607 32.081 610.202 37.5542 618.992C61.8957 656.323 93.6601 688.572 124.734 719.627C134.276 729.254 143.99 739.181 153.532 748.808C154.866 750.428 156.498 751.876 157.659 753.197L157.831 753.495C159.636 755.242 161.614 757.287 163.12 759.206C166.259 762.572 169.696 765.766 172.834 769.132C185.986 782.252 199.482 795.97 208.452 811.505C209.486 813.297 210.522 815.09 211.258 817.055C226.07 847.54 229.828 884.406 230.528 916.665C231.596 916.446 232.665 916.228 233.734 916.009C233.651 906.896 233.315 898.725 232.381 890.898C230.36 859.8 224.56 835.266 214.544 815.158Z" fill="url(#paint18_linear_2154_6661)" fill-opacity="0.4"/>
<path d="M176.408 802.919C170.026 791.865 162.23 780.432 153.366 769.218C150.354 765.381 147.514 761.842 144.847 758.602C129.878 740.955 113.117 724.342 96.9989 708.154C73.8342 685.28 49.9798 661.211 31.0315 633.911C25.432 625.592 20.6488 617.998 16.808 610.655C13.7033 605.278 11.0698 600.026 8.48259 595.545C-10.8355 562.085 -28.9091 539.06 -52.5326 518.841C-73.5812 500.322 -96.9735 483.953 -121.595 470.284C-146.687 456.49 -165.426 437.832 -180.605 411.542C-188.884 397.202 -196.405 380.035 -204.078 357.777C-204.86 355.042 -205.941 352.479 -206.724 349.744C-207.275 350.859 -208.125 352.146 -208.504 353.56C-207.94 355.226 -207.377 356.893 -206.64 358.858C-198.795 381.415 -191.274 398.582 -182.995 412.922C-180.752 416.806 -178.337 420.988 -175.796 424.699C-161.884 445.347 -144.399 461.143 -122.651 473.284C-98.0302 486.952 -75.109 503.195 -53.9341 521.243C-30.7819 541.336 -12.8807 564.062 6.26486 597.223C9.0246 602.003 11.7843 606.783 14.5902 612.333C18.4311 619.676 23.2147 627.271 28.8142 635.59C47.6362 663.361 71.7893 687.258 95.1265 710.43C111.244 726.618 127.833 742.932 142.802 760.58C145.469 763.82 148.309 767.358 151.321 771.196C160.185 782.41 167.809 793.544 174.191 804.598C178.848 812.664 182.734 820.776 185.805 828.164C197.571 856.823 200.501 890.184 200.856 921.846C201.924 921.627 202.993 921.409 203.763 921.363C203.236 889.402 200.306 856.041 188.667 826.911C185.423 819.224 181.237 811.284 176.408 802.919Z" fill="url(#paint19_linear_2154_6661)" fill-opacity="0.4"/>
<path d="M162.947 836.176C161.946 832.373 160.819 829.04 159.818 825.236L159.645 824.938C155.342 809.896 151.557 795.75 143.795 782.306C142.933 780.813 142.242 779.617 141.38 778.123C138.839 774.412 136.298 770.701 133.929 767.288C117.787 745.538 97.2097 727.145 77.7472 709.304C57.641 691.037 36.7186 672.047 20.5299 649.527C14.8042 641.679 10.1935 634.383 6.39885 627.81C3.81161 623.329 1.86827 619.274 -0.37401 615.39C-16.0699 588.204 -32.0861 565.982 -59.2608 545.822C-77.3772 532.381 -98.6537 520.367 -124.55 508.63C-148.86 497.57 -167.38 479.981 -182.731 453.393C-192.39 436.663 -200.004 417.956 -208.493 394.973C-211.092 387.711 -214.037 379.851 -216.809 372.29C-217.487 373.876 -218.038 374.991 -218.716 376.577C-216.461 383.242 -213.735 390.033 -211.653 396.399C-204.073 417.118 -196.24 436.894 -185.719 455.117C-183.994 458.105 -182.441 460.794 -180.418 463.609C-165.941 485.923 -147.985 501.846 -125.905 511.803C-100.181 523.241 -79.2034 535.427 -61.087 548.868C-34.2573 568.431 -18.4139 590.353 -2.89042 617.24C-0.648137 621.124 1.5942 625.008 3.88269 629.662C7.55104 636.706 12.4608 643.83 18.1866 651.677C34.5477 674.496 55.7688 693.314 76.0475 711.879C95.5099 729.721 115.915 747.815 131.885 769.266C134.253 772.679 137.093 776.217 139.335 780.101C140.025 781.296 140.887 782.789 141.577 783.984C149.167 797.129 152.952 811.276 157.083 826.019C158.084 829.823 159.085 833.627 160.385 837.258C168.726 865.504 170.23 895.705 170.492 925.827C171.561 925.608 172.503 925.86 173.572 925.642C173.488 916.528 173.532 906.944 172.977 897.704C171.073 873.708 167.86 853.655 162.947 836.176Z" fill="url(#paint20_linear_2154_6661)" fill-opacity="0.4"/>
<path d="M136.929 824.915C136.649 809.941 136.587 796.035 128.261 780.925C126.019 777.041 123.777 773.157 121.408 769.745C105.173 746.455 81.8611 728.844 59.6637 711.785C39.9149 696.897 19.8212 681.412 4.46116 662.397C-1.21838 655.319 -5.61069 649.092 -9.06034 643.117L-9.40523 642.519C-10.2676 641.026 -11.1301 639.532 -11.9925 638.038C-19.0643 625.79 -27.125 612.518 -36.6329 600.879C-47.4746 587.62 -59.0735 577.189 -73.8327 568.184C-92.6267 556.33 -114.017 547.567 -134.465 539.058L-138.58 537.45C-163.315 527.035 -182.134 509.618 -198.002 482.133C-209.213 462.715 -217.483 440.802 -225.535 419.957L-225.88 419.359C-227.87 414.533 -229.388 409.833 -231.378 405.007C-232.055 406.593 -232.434 408.006 -233.112 409.592C-231.812 413.224 -230.34 417.154 -229.04 420.785L-228.695 421.383C-220.597 442.997 -212.327 464.91 -200.943 484.628C-199.564 487.018 -198.356 489.109 -196.976 491.499C-189.652 502.805 -182.121 512.4 -173.315 520.062C-163.349 529.046 -152.578 535.972 -140.36 541.266L-136.245 542.874C-115.797 551.383 -94.7059 560.318 -76.0844 571.873C-46.221 590.481 -31.2271 613.692 -15.8762 640.28C-15.0138 641.774 -13.9791 643.566 -13.1167 645.06L-12.7714 645.658C-9.32174 651.633 -4.75703 658.159 1.09499 665.536C16.6275 684.849 37.1922 700.461 56.9411 715.349C79.1385 732.408 102.278 749.719 118.168 772.412C120.537 775.824 122.779 779.709 124.849 783.294C132.829 797.806 132.719 811.413 133.126 825.916C133.15 831.479 133.175 837.041 133.671 842.73C136.555 875.322 137.701 902.144 137.686 927.646C138.755 927.427 139.698 927.68 140.766 927.462C140.781 901.96 139.462 874.838 136.579 842.246C136.979 836.04 136.954 830.478 136.929 824.915Z" fill="url(#paint21_linear_2154_6661)" fill-opacity="0.4"/>
<path d="M112.313 842.315C113.059 836.706 114.275 831.223 115.491 825.741C119.221 808.053 122.491 793.02 113.695 777.784C113.177 776.888 112.66 775.991 111.97 774.796C108.912 770.189 103.543 765.719 99.1169 761.503L98.301 760.78C83.2645 747.155 64.3901 736.541 46.4585 726.181C20.2049 711.065 -7.16337 695.398 -24.3869 671.086L-24.5595 670.787C-28.2617 665.754 -32.3087 660.125 -35.2872 654.276C-37.2307 650.22 -39.4731 646.336 -41.5429 642.751C-48.0973 631.398 -54.6854 622.057 -61.8249 613.831C-72.2753 601.94 -83.8285 592.278 -98.7602 582.974C-110.002 575.921 -122.439 569.558 -134.404 563.322C-145.255 557.637 -156.278 551.653 -167.003 545.496C-193.13 529.909 -213.249 508.861 -230.152 479.584C-235.327 470.621 -240.076 461.015 -244.527 451.236C-244.733 452.949 -245.238 454.834 -245.445 456.546C-241.684 465.13 -237.325 473.368 -232.841 481.136C-215.938 510.413 -194.83 532.484 -168.703 548.071C-158.277 554.4 -146.955 560.211 -136.104 565.896C-124.139 572.133 -112.173 578.37 -100.931 585.422C-76.3901 600.332 -60.0536 617.589 -44.7026 644.177C-42.6328 647.762 -40.5632 651.347 -38.7922 655.104C-35.6413 661.252 -31.7666 666.583 -27.8919 671.914L-27.7192 672.213C-10.1508 697.123 17.6889 712.917 44.115 728.331C62.0466 738.692 80.6217 749.477 95.4857 762.803L96.302 763.527C100.555 767.445 105.625 772.086 108.81 776.222C109.327 777.118 109.845 778.014 110.362 778.911C118.469 792.952 115.497 807.813 111.722 824.731C110.505 830.214 109.289 835.696 108.544 841.304C105.929 859.544 106.142 878.54 106.481 897.066C106.564 906.18 106.82 915.592 106.605 924.878C107.547 925.13 108.616 924.912 109.559 925.164C109.774 915.878 109.817 906.293 109.561 896.881C110.038 879.079 109.825 860.083 112.313 842.315Z" fill="url(#paint22_linear_2154_6661)" fill-opacity="0.4"/>
<path d="M80.6694 894.442C81.3527 874.927 82.162 854.941 87.3851 836.391L88.3951 832.621C92.2293 819.254 95.0534 809.657 90.5779 794.316C88.8407 788.547 86.506 783.123 83.4013 777.746C78.7443 769.68 72.5935 762.476 64.2591 754.939C60.8218 751.746 56.1433 748.472 51.4648 745.198C38.9355 737.295 23.5913 731.416 7.30448 725.284C-20.8555 714.456 -49.9578 703.375 -65.7214 680.212C-67.745 677.397 -69.4697 674.409 -71.1945 671.422C-72.4019 669.33 -73.4371 667.537 -74.1733 665.572C-76.508 660.149 -79.1412 654.898 -82.0734 649.819C-95.5271 626.517 -114.047 608.927 -137.625 589.478C-147.545 581.264 -158.236 573.097 -168.455 565.055C-182.238 554.291 -196.492 543.401 -209.85 531.993C-225.185 518.54 -238.855 504.524 -250.777 488.703C-250.984 490.415 -251.063 491.656 -251.27 493.369C-239.566 508.121 -226.713 521.414 -211.723 534.269C-198.365 545.677 -183.938 556.866 -170.328 567.332C-160.281 575.074 -149.59 583.242 -139.669 591.456C-116.265 610.606 -98.2159 628.069 -84.9347 651.072C-82.175 655.852 -79.5417 661.104 -77.207 666.527C-76.4708 668.492 -75.4359 670.285 -74.056 672.675C-72.3312 675.662 -70.135 678.776 -68.4102 681.764C-52.3016 705.525 -22.5556 717.031 6.07563 727.985C22.3624 734.117 37.2357 739.87 49.765 747.773C54.271 750.748 58.478 753.895 62.214 756.917C75.6181 769.094 83.2877 780.999 87.372 794.972C91.5025 809.716 88.8046 818.841 85.3954 831.565C84.8441 832.679 84.7642 833.921 84.3854 835.335C79.036 854.356 78.2264 874.342 77.2444 894.029C77.0166 900.533 76.7886 907.038 76.0896 913.417C75.9295 915.899 75.9421 918.681 75.782 921.163C76.7245 921.416 77.9655 921.495 78.908 921.748C78.8956 918.967 79.3544 916.312 79.342 913.531C79.9147 907.623 80.4416 900.946 80.6694 894.442Z" fill="url(#paint23_linear_2154_6661)" fill-opacity="0.4"/>
<path d="M52.3732 814.384C52.0621 811.775 52.2222 809.293 51.911 806.684C50.9405 790.514 49.9363 776.357 43.2095 764.705C38.8975 757.237 32.3216 750.676 22.8846 745.37C19.1948 743.119 14.7351 740.913 9.67783 739.053C-1.72416 734.483 -15.6427 731.763 -30.2046 728.619C-60.271 722.078 -94.4061 714.699 -111.537 691.927C-113.561 689.112 -115.757 685.998 -117.826 682.414C-118.689 680.92 -119.379 679.725 -119.77 678.357C-122.449 672.336 -125.428 666.487 -128.878 660.512C-143.711 634.82 -162.933 613.255 -183.144 590.667L-185.467 588.025C-196.733 575.409 -208.299 562.967 -219.692 550.823L-219.864 550.524C-230.614 538.805 -241.363 527.086 -252.284 515.069C-252.192 516.609 -252.571 518.022 -252.478 519.562C-242.373 530.856 -231.969 541.977 -222.208 552.673L-222.036 552.972C-210.643 565.116 -199.376 577.731 -188.282 590.048L-185.96 592.69C-165.749 615.278 -146.699 636.544 -132.038 661.938C-128.761 667.614 -125.782 673.463 -123.102 679.485C-122.412 680.68 -121.849 682.346 -120.986 683.839C-118.917 687.424 -116.548 690.836 -114.525 693.651C-106.775 704.314 -94.5444 712.39 -77.9127 719.119C-63.212 724.573 -47.064 728.395 -31.2608 731.619C-16.6989 734.763 -3.0794 737.655 8.15011 741.927C13.2074 743.787 17.4947 745.693 20.8857 748.117C29.5528 753.47 35.7836 759.432 39.7507 766.304C46.1326 777.357 46.9181 790.447 48.0611 806.915C48.1998 809.225 48.5109 811.834 48.5233 814.615C50.6245 844.472 48.6109 872.721 46.1722 901.614C45.6795 906.28 45.4857 910.774 45.2917 915.267C46.2342 915.52 47.1769 915.772 48.4181 915.853C48.4395 911.06 48.9322 906.394 49.2524 901.429C52.3347 872.961 54.4744 844.241 52.3732 814.384Z" fill="url(#paint24_linear_2154_6661)" fill-opacity="0.4"/>
<path d="M20.4198 796.987C18.9442 782.702 17.5273 771.969 12.5253 763.305L12.3526 763.006C7.35062 754.343 -0.718924 748.645 -15.0746 743.788C-19.0169 742.479 -23.7289 741.217 -29.6824 739.874C-40.4745 737.74 -52.7604 736.468 -66.2874 735.117C-100.49 731.76 -139.359 727.911 -160.087 704.427C-163.398 700.762 -166.411 696.925 -169.17 692.145L-169.516 691.547C-171.93 687.364 -174.345 683.183 -176.932 678.701C-197.113 643.748 -218.648 611.966 -238.977 582.276C-243.541 575.75 -248.105 569.224 -252.498 562.996C-252.531 565.008 -252.094 567.145 -252.128 569.156C-248.426 574.188 -245.195 579.095 -241.791 584.3C-221.463 613.99 -199.928 645.771 -179.92 680.426C-177.505 684.609 -174.918 689.089 -172.503 693.272C-169.571 698.351 -166.214 702.786 -162.73 706.749C-141.185 730.957 -101.845 734.933 -66.8728 738.243C-53.8169 739.468 -41.5312 740.74 -30.7391 742.874C-25.2567 744.09 -20.5444 745.353 -16.6021 746.662C-3.18892 751.266 4.2372 756.539 8.89423 764.605L9.06646 764.904C13.551 772.671 14.968 783.405 16.5699 797.218C19.9123 827.155 18.7612 856.898 17.1635 892.077C16.8433 897.042 16.6956 902.305 16.6741 907.098C17.6166 907.35 18.7315 907.901 19.674 908.154C19.8217 902.89 19.9695 897.627 20.1172 892.363C22.7836 856.966 23.6359 827.395 20.4198 796.987Z" fill="url(#paint25_linear_2154_6661)" fill-opacity="0.4"/>
<path d="M0.837775 877.595C1.73645 848.795 2.58869 819.224 -2.84496 790.494C-4.59456 781.944 -6.84893 775.28 -9.78113 770.201C-11.8509 766.616 -14.5181 763.376 -17.6104 760.78C-24.2663 755.461 -33.4384 751.993 -49.0691 749.068C-53.4365 748.402 -58.7465 747.484 -65.4238 746.958C-75.6985 745.72 -87.2943 745.644 -99.534 745.142C-137.448 744.326 -180.625 743.364 -205.422 719.042C-206.411 718.02 -207.4 716.997 -208.389 715.974C-206.836 718.663 -205.41 721.823 -203.858 724.512C-177.832 746.132 -136.493 747.36 -99.8204 748.095C-87.5808 748.597 -75.9846 748.674 -65.8825 749.613C-59.5039 750.312 -54.3669 750.931 -49.8271 751.895C-31.0702 755.405 -19.5419 759.505 -12.6426 771.455C-9.71039 776.533 -7.62781 782.9 -6.0507 791.151C-0.490787 819.409 -1.34344 848.979 -2.4146 877.481C-2.52848 880.733 -2.64253 883.986 -2.75641 887.238C-2.82407 891.26 -3.01792 895.754 -3.03937 900.546C-2.09692 900.799 -0.981947 901.35 -0.0394794 901.603C-0.018029 896.81 0.00360486 892.018 0.025052 887.226C0.908914 883.927 0.723891 880.847 0.837775 877.595Z" fill="url(#paint26_linear_2154_6661)" fill-opacity="0.4"/>
<path d="M-11.1505 876.15C-11.3206 847.568 -11.5369 818.216 -20.6818 792.028C-25.3174 779.169 -33.1003 770.518 -44.8473 765.35C-55.6518 760.435 -69.3054 759.554 -81.2925 758.11C-86.2573 757.79 -92.1644 757.217 -99.1405 756.863C-109.369 756.395 -120.321 756.743 -132.216 756.839C-149.202 757.086 -167.256 757.551 -184.507 755.959C-183.817 757.154 -182.828 758.177 -182.138 759.372C-165.531 760.539 -148.546 760.292 -132.031 759.919L-131.732 759.747C-120.01 759.352 -108.885 759.303 -99.1282 759.644C-91.8534 759.826 -86.417 760.273 -81.2796 760.891C-59.3628 762.976 -38.2162 765.107 -27.1774 784.227C-25.625 786.916 -24.3715 789.777 -23.4166 792.81C-14.4442 818.7 -14.1015 847.581 -14.2764 875.565C-14.2979 880.357 -14.0206 884.977 -14.2145 889.471C-14.2484 891.482 -13.9834 893.321 -14.0172 895.332C-12.9023 895.883 -11.9601 896.135 -10.8451 896.686C-10.9838 894.376 -10.8233 891.894 -10.962 889.585C-11.3655 885.436 -11.3444 880.643 -11.1505 876.15Z" fill="url(#paint27_linear_2154_6661)" fill-opacity="0.4"/>
<path d="M-36.4802 799.159C-43.207 787.507 -53.7251 779.638 -69.1495 775C-82.2177 770.993 -97.1121 770.033 -110.294 769.279L-112.777 769.119C-118.511 768.845 -124.717 768.445 -131.992 768.263C-141.278 768.048 -151.46 768.35 -162.114 768.526C-166.435 768.63 -170.756 768.735 -175.077 768.84C-174.387 770.035 -173.571 770.759 -172.881 771.954C-169.33 771.895 -165.779 771.837 -162.228 771.778C-151.574 771.602 -141.565 771.002 -132.279 771.217C-125.004 771.398 -118.97 771.5 -113.063 772.073L-110.282 772.06C-83.4465 773.695 -53.3584 775.444 -39.0424 800.24C-24.8988 824.737 -23.2566 857.249 -21.7191 885.439C-21.7529 887.451 -21.3153 889.588 -21.3492 891.599C-20.2342 892.151 -19.2922 892.403 -18.1772 892.954C-18.4883 890.345 -18.3282 887.863 -18.6394 885.254C-20.4757 857.236 -21.8192 824.552 -36.4802 799.159Z" fill="url(#paint28_linear_2154_6661)" fill-opacity="0.4"/>
<defs>
<linearGradient id="paint0_linear_2154_6661" x1="479.764" y1="356.505" x2="443.311" y2="400.362" gradientUnits="userSpaceOnUse">
<stop stop-color="#F2D57E"/>
<stop offset="1" stop-color="#A7F2D7"/>
</linearGradient>
<linearGradient id="paint1_linear_2154_6661" x1="449.687" y1="312.415" x2="399.017" y2="365.751" gradientUnits="userSpaceOnUse">
<stop stop-color="#F2D57E"/>
<stop offset="1" stop-color="#A7F2D7"/>
</linearGradient>
<linearGradient id="paint2_linear_2154_6661" x1="422.028" y1="284.581" x2="359.809" y2="346.901" gradientUnits="userSpaceOnUse">
<stop stop-color="#F2D57E"/>
<stop offset="1" stop-color="#A7F2D7"/>
</linearGradient>
<linearGradient id="paint3_linear_2154_6661" x1="391.71" y1="276.04" x2="280.66" y2="426.555" gradientUnits="userSpaceOnUse">
<stop stop-color="#F2D57E"/>
<stop offset="1" stop-color="#A7F2D7"/>
</linearGradient>
<linearGradient id="paint4_linear_2154_6661" x1="363.457" y1="274.604" x2="224.825" y2="525.259" gradientUnits="userSpaceOnUse">
<stop stop-color="#F2D57E"/>
<stop offset="1" stop-color="#A7F2D7"/>
</linearGradient>
<linearGradient id="paint5_linear_2154_6661" x1="331.55" y1="260.851" x2="178.351" y2="560.001" gradientUnits="userSpaceOnUse">
<stop stop-color="#F2D57E"/>
<stop offset="1" stop-color="#A7F2D7"/>
</linearGradient>
<linearGradient id="paint6_linear_2154_6661" x1="235.774" y1="149.979" x2="36.2005" y2="450.193" gradientUnits="userSpaceOnUse">
<stop stop-color="#F2D57E"/>
<stop offset="1" stop-color="#A7F2D7"/>
</linearGradient>
<linearGradient id="paint7_linear_2154_6661" x1="209.547" y1="150.186" x2="6.94058" y2="438.639" gradientUnits="userSpaceOnUse">
<stop stop-color="#F2D57E"/>
<stop offset="1" stop-color="#A7F2D7"/>
</linearGradient>
<linearGradient id="paint8_linear_2154_6661" x1="182.892" y1="154.822" x2="-19.499" y2="427.954" gradientUnits="userSpaceOnUse">
<stop stop-color="#F2D57E"/>
<stop offset="1" stop-color="#A7F2D7"/>
</linearGradient>
<linearGradient id="paint9_linear_2154_6661" x1="157.698" y1="158.536" x2="-41.7553" y2="411.36" gradientUnits="userSpaceOnUse">
<stop stop-color="#F2D57E"/>
<stop offset="1" stop-color="#A7F2D7"/>
</linearGradient>
<linearGradient id="paint10_linear_2154_6661" x1="126.391" y1="165.089" x2="-68.1901" y2="396.219" gradientUnits="userSpaceOnUse">
<stop stop-color="#F2D57E"/>
<stop offset="1" stop-color="#A7F2D7"/>
</linearGradient>
<linearGradient id="paint11_linear_2154_6661" x1="85.4904" y1="178.88" x2="-92.7761" y2="368.81" gradientUnits="userSpaceOnUse">
<stop stop-color="#F2D57E"/>
<stop offset="1" stop-color="#A7F2D7"/>
</linearGradient>
<linearGradient id="paint12_linear_2154_6661" x1="40.274" y1="203.302" x2="-117.672" y2="356.132" gradientUnits="userSpaceOnUse">
<stop stop-color="#F2D57E"/>
<stop offset="1" stop-color="#A7F2D7"/>
</linearGradient>
<linearGradient id="paint13_linear_2154_6661" x1="-8.26027" y1="233.516" x2="-153.655" y2="367.498" gradientUnits="userSpaceOnUse">
<stop stop-color="#F2D57E"/>
<stop offset="1" stop-color="#A7F2D7"/>
</linearGradient>
<linearGradient id="paint14_linear_2154_6661" x1="-39.0436" y1="259.779" x2="-190.523" y2="403.732" gradientUnits="userSpaceOnUse">
<stop stop-color="#F2D57E"/>
<stop offset="1" stop-color="#A7F2D7"/>
</linearGradient>
<linearGradient id="paint15_linear_2154_6661" x1="-50.1581" y1="275.715" x2="-219.734" y2="452.148" gradientUnits="userSpaceOnUse">
<stop stop-color="#F2D57E"/>
<stop offset="1" stop-color="#A7F2D7"/>
</linearGradient>
<linearGradient id="paint16_linear_2154_6661" x1="-62.9956" y1="292.895" x2="-239.728" y2="486.487" gradientUnits="userSpaceOnUse">
<stop stop-color="#F2D57E"/>
<stop offset="1" stop-color="#A7F2D7"/>
</linearGradient>
<linearGradient id="paint17_linear_2154_6661" x1="-78.9183" y1="313.267" x2="-253.694" y2="506.309" gradientUnits="userSpaceOnUse">
<stop stop-color="#F2D57E"/>
<stop offset="1" stop-color="#A7F2D7"/>
</linearGradient>
<linearGradient id="paint18_linear_2154_6661" x1="-98.4102" y1="334.443" x2="-264.775" y2="513.244" gradientUnits="userSpaceOnUse">
<stop stop-color="#F2D57E"/>
<stop offset="1" stop-color="#A7F2D7"/>
</linearGradient>
<linearGradient id="paint19_linear_2154_6661" x1="-116.667" y1="354.515" x2="-276.601" y2="524.666" gradientUnits="userSpaceOnUse">
<stop stop-color="#F2D57E"/>
<stop offset="1" stop-color="#A7F2D7"/>
</linearGradient>
<linearGradient id="paint20_linear_2154_6661" x1="-127.085" y1="375.156" x2="-289.05" y2="555.988" gradientUnits="userSpaceOnUse">
<stop stop-color="#F2D57E"/>
<stop offset="1" stop-color="#A7F2D7"/>
</linearGradient>
<linearGradient id="paint21_linear_2154_6661" x1="-132.22" y1="399.518" x2="-299.707" y2="608.395" gradientUnits="userSpaceOnUse">
<stop stop-color="#F2D57E"/>
<stop offset="1" stop-color="#A7F2D7"/>
</linearGradient>
<linearGradient id="paint22_linear_2154_6661" x1="-130.117" y1="432.804" x2="-294.939" y2="669.336" gradientUnits="userSpaceOnUse">
<stop stop-color="#F2D57E"/>
<stop offset="1" stop-color="#A7F2D7"/>
</linearGradient>
<linearGradient id="paint23_linear_2154_6661" x1="-138.918" y1="467.884" x2="-292.427" y2="698.98" gradientUnits="userSpaceOnUse">
<stop stop-color="#F2D57E"/>
<stop offset="1" stop-color="#A7F2D7"/>
</linearGradient>
<linearGradient id="paint24_linear_2154_6661" x1="-150.745" y1="496.769" x2="-291.62" y2="705.45" gradientUnits="userSpaceOnUse">
<stop stop-color="#F2D57E"/>
<stop offset="1" stop-color="#A7F2D7"/>
</linearGradient>
<linearGradient id="paint25_linear_2154_6661" x1="-154.339" y1="541.587" x2="-279.811" y2="749.368" gradientUnits="userSpaceOnUse">
<stop stop-color="#F2D57E"/>
<stop offset="1" stop-color="#A7F2D7"/>
</linearGradient>
<linearGradient id="paint26_linear_2154_6661" x1="-105.648" y1="678.132" x2="-162.039" y2="886.598" gradientUnits="userSpaceOnUse">
<stop stop-color="#F2D57E"/>
<stop offset="1" stop-color="#A7F2D7"/>
</linearGradient>
<linearGradient id="paint27_linear_2154_6661" x1="-96.6649" y1="722.162" x2="-135.537" y2="895.196" gradientUnits="userSpaceOnUse">
<stop stop-color="#F2D57E"/>
<stop offset="1" stop-color="#A7F2D7"/>
</linearGradient>
<linearGradient id="paint28_linear_2154_6661" x1="-100.862" y1="741.064" x2="-138.884" y2="890.004" gradientUnits="userSpaceOnUse">
<stop stop-color="#F2D57E"/>
<stop offset="1" stop-color="#A7F2D7"/>
</linearGradient>
</defs>
</svg>
