<svg width="623" height="1179" viewBox="0 0 623 1179" fill="none" xmlns="http://www.w3.org/2000/svg">
<g clip-path="url(#clip0_1660_132240)">
<path d="M695.81 124.247L698.076 124.57C743.405 127.808 790.678 131.046 833.417 144.645C865.795 154.358 891.698 169.9 912.744 190.946C933.79 211.992 950.95 239.513 965.52 276.1C971.996 292.289 978.148 308.802 983.005 325.315C993.366 357.694 1001.46 391.043 1009.56 423.746C1012.47 435.726 1015.71 449.324 1019.27 462.6L1019.92 465.838C1027.69 496.273 1036.75 530.594 1057.8 555.525C1060.71 559.087 1063.95 562.325 1067.84 564.915C1079.82 573.657 1092.44 574.628 1104.75 575.923C1115.11 576.571 1125.79 577.542 1134.86 583.371C1138.42 585.637 1141.66 588.227 1144.9 591.465C1154.61 601.179 1162.7 615.749 1168.86 635.5C1175.98 658.165 1179.87 683.42 1183.1 704.142C1184.07 710.294 1185.05 717.093 1186.02 722.597C1189.25 742.024 1192.82 761.775 1195.73 780.878C1198.64 799.981 1201.88 819.408 1205.44 839.159C1206.41 836.892 1207.39 834.626 1208.36 832.36C1205.12 814.876 1202.53 797.391 1199.62 780.23C1196.7 761.127 1193.46 741.053 1189.9 721.949C1188.93 716.445 1187.96 709.646 1186.99 703.494C1183.75 682.772 1179.86 657.517 1172.74 634.204C1166.27 613.482 1157.85 598.589 1147.81 588.551C1144.57 585.313 1141.01 582.399 1136.8 580.133C1126.76 573.981 1115.43 573.01 1104.75 572.039C1092.77 571.067 1080.79 570.096 1069.78 561.677C1066.54 559.087 1063.63 556.173 1060.39 552.935C1039.99 528.651 1031.57 496.273 1023.48 464.866L1022.83 461.628C1019.59 448.676 1016.03 434.754 1013.12 422.774C1005.02 390.072 996.928 356.723 986.567 324.345C981.386 307.508 975.234 290.994 968.758 274.805C953.864 238.542 937.675 211.992 917.277 190.946C894.936 167.957 867.738 151.768 833.741 141.083C790.354 127.484 743.082 124.246 697.105 121.009C691.6 120.685 686.096 120.361 680.916 119.714C659.87 118.095 640.118 115.18 622.31 110.971C619.073 111.619 616.482 112.266 613.568 113.237C633.967 118.742 656.308 122.303 680.591 123.922C686.419 123.922 691.277 124.247 695.81 124.247Z" fill="url(#paint0_linear_1660_132240)" fill-opacity="0.4"/>
<path d="M694.843 166.016C700.995 166.987 707.471 168.283 713.622 169.902L715.241 170.225C760.57 179.291 807.519 188.033 849.935 205.194C881.99 217.821 907.244 234.01 927.967 254.732C950.308 277.073 967.468 305.242 980.419 340.858C985.6 355.105 990.457 371.618 994.99 388.455C1002.44 418.567 1008.26 449.65 1013.77 479.762C1017.01 496.598 1019.92 513.759 1023.48 530.919L1023.48 531.567C1030.61 565.24 1037.41 599.885 1056.18 628.378C1058.77 632.263 1061.69 635.825 1064.93 639.063L1065.25 639.386C1077.88 652.014 1090.83 652.014 1103.78 652.014C1111.88 652.338 1120.29 652.338 1129.04 655.252C1134.22 657.194 1139.4 660.432 1143.93 664.965C1164 685.04 1170.8 724.865 1175.98 754.005C1176.63 758.538 1177.6 763.395 1178.57 767.604C1182.14 786.06 1185.37 804.839 1188.29 822.647C1190.55 835.923 1193.14 849.522 1195.74 863.121C1197.03 861.178 1197.68 859.235 1198.97 857.292C1196.71 845.312 1194.76 833.656 1192.82 822C1189.58 803.868 1186.34 785.089 1182.78 766.633C1182.14 762.748 1181.16 757.891 1180.19 753.034C1175.01 723.246 1168.21 682.773 1147.17 661.727C1142.31 656.871 1136.81 653.309 1131.3 651.042C1121.91 647.481 1113.17 647.157 1104.75 647.157C1092.45 647.157 1080.47 646.833 1069.14 635.501L1068.81 635.177C1065.9 632.263 1063.31 629.025 1060.72 625.14C1042.59 597.295 1035.46 562.974 1028.66 529.624L1028.34 529.3C1025.1 512.463 1021.54 495.303 1018.63 478.79L1018.3 478.467C1012.8 448.355 1006.97 417.271 999.523 387.16C995.313 369.999 990.133 353.81 985.276 339.24C972.648 304.595 956.459 276.75 934.766 254.409C913.073 232.068 886.522 214.583 852.525 201.308C809.785 184.471 762.837 175.082 717.184 166.34C710.708 165.045 703.585 163.749 696.786 162.131C653.075 153.388 615.192 140.113 582.166 121.334C580.224 121.981 578.604 122.305 576.662 122.952C580.871 125.219 585.08 127.485 589.289 129.752C618.754 146.265 654.046 158.245 694.843 166.016Z" fill="url(#paint1_linear_1660_132240)" fill-opacity="0.4"/>
<path d="M698.4 204.541C704.552 206.16 710.704 208.426 716.856 210.045C764.776 224.292 814.638 239.185 859.644 260.879C892.022 276.42 916.954 293.581 936.381 313.008C959.046 335.673 974.587 362.871 983.329 394.925C986.891 408.2 990.128 422.446 993.042 438.312C996.928 460.977 999.842 483.965 1002.43 508.573C1009.56 570.739 1017 635.172 1046.14 689.567C1049.38 696.043 1052.62 700.576 1055.21 703.814C1057.15 706.404 1059.42 708.671 1061.36 710.614C1069.78 719.032 1078.2 724.213 1089.21 726.803C1095.03 728.098 1100.86 728.097 1106.37 727.774C1112.52 727.45 1119.32 727.126 1125.79 729.716C1130.97 731.659 1135.83 735.221 1140.04 739.43C1145.87 745.258 1150.72 752.705 1154.61 762.419C1161.09 777.313 1164.65 794.473 1167.56 808.396C1168.21 811.634 1168.86 814.224 1169.5 817.462C1173.39 833.651 1176.3 850.811 1179.22 869.267L1179.54 870.238C1180.51 875.095 1181.16 880.275 1182.13 885.132C1183.1 883.513 1184.4 881.571 1185.05 879.628C1184.72 876.066 1183.75 872.505 1183.43 868.944L1183.43 868.296C1180.19 850.164 1176.95 832.679 1173.39 816.166C1172.74 813.576 1172.09 810.338 1171.45 807.101C1168.53 793.178 1164.65 775.693 1158.17 760.152C1153.64 749.791 1148.46 742.02 1142.31 735.868C1137.77 731.335 1132.27 727.774 1126.76 725.507C1119.64 722.917 1112.52 722.917 1105.72 723.241C1100.22 723.565 1095.03 723.565 1089.53 722.593C1079.82 720.003 1072.05 715.47 1063.95 707.375C1062.01 705.433 1060.07 703.49 1058.12 700.9C1055.53 697.662 1052.62 693.453 1049.38 687.625C1020.24 633.877 1013.12 569.768 1005.67 507.925C1002.76 483.641 1000.17 460.33 996.281 437.665C993.367 421.799 990.129 406.905 986.567 393.63C977.501 361.252 962.283 334.378 939.619 311.065C919.868 290.667 893.965 273.182 860.291 256.993C815.286 235.3 765.423 220.406 716.856 206.159L715.56 205.512C709.732 203.569 704.228 201.95 698.076 200.331C638.824 182.523 591.552 159.859 552.051 130.718C550.432 131.042 548.812 132.013 547.517 132.661C559.173 141.727 572.124 150.145 585.4 157.592C618.102 176.047 654.69 191.266 698.4 204.541Z" fill="url(#paint2_linear_1660_132240)" fill-opacity="0.4"/>
<path d="M682.533 234.654L683.504 234.977C740.49 255.7 799.419 276.422 852.843 305.238C880.04 319.485 908.21 335.998 930.227 358.015C951.597 379.385 963.9 402.697 968.109 429.571C970.376 442.846 971.023 457.74 971.671 469.396C974.261 521.201 978.795 563.941 986.242 603.119C995.308 651.039 1008.26 692.483 1026.07 729.718C1029.3 736.841 1033.19 743.316 1037.07 748.497C1042.58 756.591 1047.76 763.067 1053.91 769.219C1059.74 775.047 1065.57 779.581 1072.04 782.818C1079.81 786.704 1087.59 787.999 1095.03 788.97C1100.21 789.618 1105.39 790.265 1110.25 791.884C1119.64 794.798 1127.73 799.655 1134.21 806.131C1148.78 820.701 1155.58 842.394 1161.73 865.383C1164.97 877.686 1167.88 890.314 1171.12 902.618C1172.09 900.999 1173.06 899.38 1174.04 897.761C1171.45 886.753 1168.53 875.42 1165.62 864.088C1161.08 847.899 1156.55 831.709 1148.46 818.434C1145.22 812.606 1141.33 807.426 1137.12 803.217C1130 796.093 1121.58 790.912 1111.22 787.675C1105.72 786.056 1100.21 785.084 1095.03 784.437C1087.59 783.465 1080.79 782.494 1073.66 778.609C1067.83 775.371 1062.01 771.486 1056.5 765.982C1050.67 760.154 1045.49 753.678 1040.31 745.907C1036.43 740.726 1032.87 733.927 1029.63 727.451C988.832 641.325 979.118 544.19 975.233 468.425C974.585 456.769 973.937 441.874 971.994 428.276C967.462 400.43 954.834 376.147 933.141 354.453C932.169 353.482 930.874 352.187 929.903 351.215C907.886 330.493 879.717 313.981 854.786 300.706C801.038 272.213 742.109 250.843 684.799 230.444L683.828 230.121C622.957 208.104 564.352 185.115 517.404 145.289C516.108 145.937 514.813 146.584 513.518 147.232C530.355 161.478 549.458 174.754 571.151 186.734C606.767 206.808 645.622 221.702 682.533 234.654Z" fill="url(#paint3_linear_1660_132240)" fill-opacity="0.4"/>
<path d="M644.32 263.792C695.154 280.305 761.53 303.941 821.43 335.995C851.218 352.184 879.387 368.05 901.404 390.715C920.831 410.789 926.336 433.13 928.278 460.976C928.926 472.632 929.249 484.612 929.573 496.592L929.574 501.125C930.869 543.865 938.316 585.632 951.591 629.343C962.923 665.931 978.789 703.813 1001.78 749.467C1005.99 758.209 1009.55 764.36 1012.79 770.189C1021.85 785.083 1030.27 798.682 1041.6 810.014C1042.9 811.309 1044.19 812.604 1045.49 813.899C1055.85 822.965 1066.86 828.146 1078.84 833.65C1084.99 836.564 1091.46 839.154 1097.29 842.392C1106.36 847.573 1113.81 853.077 1120.28 859.552C1132.59 871.856 1141.65 888.045 1149.42 910.063C1151.04 914.919 1152.66 920.424 1154.93 926.576C1155.9 924.957 1156.87 923.985 1157.84 922.366C1156.22 917.509 1154.93 912.977 1153.31 908.768C1147.48 891.931 1141.33 879.304 1133.23 868.619C1130.32 864.41 1126.76 860.2 1123.2 856.638C1116.4 849.839 1108.63 844.011 1099.56 838.831C1093.41 835.269 1086.93 832.679 1080.78 829.764C1069.12 824.584 1058.12 819.404 1048.4 810.985C1047.11 809.69 1045.81 808.395 1044.84 807.423C1033.83 796.415 1025.41 783.464 1016.35 768.57C1012.79 763.066 1009.55 756.589 1005.01 748.171C971.017 680.5 936.049 598.26 933.459 501.773L933.459 497.24C933.135 485.26 932.811 473.279 932.164 461.623C930.221 433.13 924.717 409.494 904.319 388.449C903.995 388.125 903.347 387.477 903.023 387.153C880.682 364.812 852.513 348.947 823.049 333.081C762.825 300.703 696.774 277.391 645.292 260.878C579.888 239.509 517.398 216.52 469.478 171.837C468.183 172.485 467.212 173.457 465.916 174.104C484.372 191.265 505.418 206.483 530.997 219.758C567.261 237.89 606.762 251.488 644.32 263.792Z" fill="url(#paint4_linear_1660_132240)" fill-opacity="0.4"/>
<path d="M476.286 253.757C512.874 274.155 554.966 288.402 591.23 300.058C646.273 317.542 710.381 340.207 768.986 372.261C798.774 388.45 827.267 405.288 848.313 428.276C866.445 447.703 871.626 470.368 873.244 498.537C873.568 504.041 873.892 509.545 874.539 514.726L874.54 515.374C875.187 522.497 875.511 529.944 875.835 536.743C881.987 620.603 924.078 685.359 968.76 754.001L974.913 763.392C980.093 771.81 984.302 777.961 988.187 783.142L988.835 783.789C998.548 798.036 1008.91 812.282 1020.57 825.234C1030.6 836.566 1041.61 843.69 1053.59 851.137C1057.8 854.051 1062.66 856.965 1067.19 860.203C1074.31 865.383 1081.44 871.211 1087.59 877.363C1104.75 894.524 1119 916.541 1130 943.091C1130.98 946.005 1132.59 948.919 1133.57 951.833C1134.54 950.861 1135.51 949.243 1136.48 948.272C1135.51 946.005 1134.54 943.739 1133.57 941.472C1122.56 914.922 1107.66 892.257 1090.18 874.773C1083.7 868.297 1076.58 862.469 1069.13 856.965C1064.6 853.727 1059.74 850.813 1055.21 847.575C1043.88 840.128 1032.87 833.005 1022.83 822.32C1011.5 809.693 1001.14 795.446 991.749 781.523L991.102 780.876C987.54 775.372 983.33 769.219 977.826 761.125L971.675 751.735C927.316 683.417 885.548 618.984 879.396 536.42C878.749 529.296 878.425 521.849 877.777 514.726C877.453 509.222 877.13 503.717 876.806 498.213C875.835 481.7 873.892 470.044 870.33 459.359C866.121 446.084 859.645 435.075 850.58 425.362C849.284 424.067 847.665 422.448 846.37 421.152C825.324 400.107 798.451 384.242 769.958 368.7C711.029 336.322 646.596 313.98 591.229 296.172C528.415 276.098 463.659 252.786 418.33 207.456C418.006 207.132 417.358 206.484 417.034 206.161C416.063 207.132 414.768 207.78 413.797 208.751C432.252 225.264 452.326 240.158 476.286 253.757Z" fill="url(#paint5_linear_1660_132240)" fill-opacity="0.4"/>
<path d="M1111.55 967.376C1096.66 927.227 1078.2 896.468 1054.89 874.451C1048.41 867.975 1040.97 862.471 1033.52 856.967C1026.07 851.462 1018.62 845.958 1012.15 839.482C999.197 827.179 987.541 813.579 976.208 800.304C973.618 797.066 970.38 793.828 967.79 790.591C963.581 785.734 959.048 780.553 954.838 775.696L951.924 772.135C943.83 762.745 935.411 753.679 927.317 744.937C881.987 695.074 835.039 643.593 823.059 573.98C821.44 563.295 819.174 550.668 817.555 538.688C815.288 522.823 810.755 508.575 804.279 495.624C798.127 483.644 790.357 472.636 780.32 461.951C761.864 442.848 738.875 427.63 709.735 410.793C652.749 377.767 588.64 354.455 533.921 335.999C474.992 315.925 414.445 292.936 372.677 251.168C372.029 250.521 371.058 249.55 370.41 248.902C369.763 249.55 369.115 250.197 368.468 250.845C368.144 251.168 367.82 251.492 367.496 251.816C368.144 252.464 368.791 253.111 369.763 254.082C383.685 268.005 400.522 280.956 420.273 292.289C455.889 313.011 495.39 327.257 532.625 339.885C587.345 358.34 650.806 381.653 707.468 414.355C735.313 430.544 757.331 444.79 774.815 462.275C796.832 484.292 808.813 508.576 813.67 539.335C815.288 551.315 817.555 563.943 819.497 574.951C824.678 606.682 837.953 637.441 859.322 669.172C878.426 697.341 901.738 723.244 924.727 748.175C932.821 756.917 941.24 766.631 949.334 775.373L951.924 778.611C956.133 783.467 960.667 788.648 964.876 793.505C967.466 796.742 970.704 799.981 973.294 803.218C984.627 816.493 996.93 830.092 1009.56 842.72C1016.36 849.519 1023.8 855.024 1031.25 860.528C1038.37 865.709 1045.5 871.537 1051.97 877.365C1074.96 899.058 1093.42 929.17 1107.66 968.672C1108.64 971.586 1109.61 974.5 1110.58 977.414L1110.9 978.385C1111.87 977.414 1113.17 976.119 1114.14 975.147C1113.49 972.557 1112.84 969.966 1111.55 967.376Z" fill="url(#paint6_linear_1660_132240)" fill-opacity="0.4"/>
<path d="M1023.81 867.973C1007.29 851.461 988.189 836.243 970.057 821.349C960.991 814.226 951.601 806.778 942.859 799.331C937.355 794.474 930.879 789.294 924.08 783.789C913.395 775.047 902.063 766.305 891.054 757.239C867.418 738.784 843.134 719.681 822.088 698.635C793.596 670.142 775.464 642.297 765.103 611.861L764.132 608.3C760.894 599.234 757.656 589.52 755.066 579.807C747.295 551.961 733.372 527.677 711.678 505.984L711.031 505.336C690.309 484.614 664.73 468.102 642.713 454.503C587.994 421.153 528.741 396.869 472.726 375.823C419.626 355.749 365.23 333.084 326.7 296.496C325.729 297.467 325.082 298.763 324.11 299.734C335.119 310.095 348.07 320.456 362.317 329.522C395.666 350.568 434.521 366.11 471.108 380.033C527.122 401.079 586.375 425.362 640.446 458.064C663.759 472.311 688.042 488.176 707.793 507.926C729.162 529.296 743.409 553.257 750.856 580.778C753.447 590.492 756.685 600.205 759.922 609.271L761.217 612.509C771.902 643.916 790.034 671.761 819.174 700.901C840.544 722.271 864.828 741.374 888.464 759.83C899.472 768.248 910.481 777.314 921.166 786.056C927.966 791.561 933.794 796.741 939.946 801.598C948.688 809.045 958.077 816.492 967.143 823.615C985.599 838.185 1004.05 853.403 1020.57 869.916C1025.42 874.773 1029.63 879.629 1033.84 884.486C1063.31 918.483 1079.17 962.842 1089.53 997.81L1089.86 998.781C1090.83 997.81 1092.12 996.515 1093.09 995.544C1082.73 960.575 1066.22 916.217 1036.76 881.572C1032.87 877.686 1028.66 872.83 1023.81 867.973Z" fill="url(#paint7_linear_1660_132240)" fill-opacity="0.4"/>
<path d="M1020.24 888.375C1016.03 882.871 1010.85 877.043 1005.34 871.538C984.946 851.14 959.043 835.599 934.112 820.381C927.96 816.819 922.779 813.581 917.275 810.019C909.828 805.163 902.057 800.63 896.553 797.068C886.192 790.593 875.507 784.441 864.822 778.289C824.997 754.653 783.229 730.369 750.85 697.991C734.985 682.125 722.682 665.937 712.968 647.805C707.788 638.739 702.607 629.025 698.074 619.312C685.771 593.409 669.257 570.42 648.211 550.022C630.403 532.861 609.358 516.349 580.217 497.57C529.06 464.544 471.75 438.317 417.678 414.681C376.234 396.549 329.285 376.151 292.698 345.391C292.05 346.686 291.079 347.657 290.431 348.953C297.878 355.104 305.649 360.933 314.068 366.761C346.77 388.455 384.976 405.291 415.735 418.566C469.807 442.202 526.469 468.429 577.627 501.455C608.063 520.882 629.432 537.718 646.917 555.203C666.667 574.953 681.885 596.647 693.865 621.578C698.398 631.292 703.579 641.005 709.083 650.395C718.797 668.527 731.748 685.363 747.937 701.552C780.963 734.578 822.407 759.186 862.556 782.498C872.917 788.326 883.601 795.125 893.639 801.277C900.114 805.163 907.238 809.696 914.361 814.229C919.866 817.791 925.37 821.352 931.198 824.59C956.129 839.808 981.708 855.673 1001.46 875.424C1006.96 880.928 1011.82 886.433 1016.03 891.937C1044.2 929.82 1059.09 976.444 1069.78 1017.56C1070.75 1016.59 1072.37 1015.62 1073.34 1014.65C1067.19 992.31 1061.68 973.854 1055.21 957.665C1045.82 929.496 1034.16 907.478 1020.24 888.375Z" fill="url(#paint8_linear_1660_132240)" fill-opacity="0.4"/>
<path d="M989.805 879.955C968.759 858.91 938.324 845.311 911.45 833.331C905.298 830.417 898.499 827.503 892.347 824.589L886.195 821.675C881.014 819.084 875.51 816.818 870.33 814.228C811.725 786.059 745.025 754.328 697.429 706.732C688.363 697.666 680.269 688.276 673.145 678.562L669.908 674.03C664.727 666.906 659.223 659.459 654.366 652.012C640.767 631.29 625.55 612.835 608.389 595.675C587.343 574.629 561.764 554.23 530.034 532.861C480.495 499.511 426.423 471.341 375.589 445.115L369.761 441.877C337.706 425.364 301.767 406.909 271.331 383.597C270.684 384.892 270.036 386.187 269.389 387.482C271.007 388.454 272.626 390.072 274.245 391.043C303.709 412.737 338.03 430.221 368.142 445.439L373.97 448.677C424.804 474.903 478.876 503.072 528.091 536.098C559.498 557.144 585.077 577.543 605.799 598.265C622.96 615.425 637.853 633.557 651.452 654.279C656.309 661.726 661.814 669.173 666.994 676.297L670.232 680.829C677.355 690.543 685.773 700.256 694.839 709.322C743.083 757.566 810.106 789.621 868.711 817.79C873.891 820.38 879.719 822.97 884.9 825.56L891.051 828.474C897.203 831.388 904.003 834.302 910.155 837.216C936.705 848.873 966.493 862.471 987.215 883.194C990.129 886.108 993.043 889.669 995.634 892.907C1026.07 932.409 1041.61 984.862 1053.27 1031.49C1054.24 1030.52 1055.86 1029.54 1056.83 1028.57C1045.5 982.271 1029.63 930.142 998.871 890.317C996.281 886.431 993.043 883.193 989.805 879.955Z" fill="url(#paint9_linear_1660_132240)" fill-opacity="0.4"/>
<path d="M974.906 897.435C955.479 878.008 927.957 867.97 901.73 857.933C891.369 854.047 881.008 850.162 871.618 845.953C864.495 842.715 857.696 839.802 851.22 836.564C782.255 802.566 711.022 763.065 653.389 704.136C644.323 695.07 636.552 686.652 629.753 678.557C617.449 663.663 604.174 649.741 591.223 636.79C562.73 608.297 532.294 583.041 497.649 560.053C454.586 531.236 407.638 503.715 353.242 476.517C319.245 459.356 283.953 440.901 254.812 417.588C254.164 418.883 253.517 420.179 252.87 421.474C255.136 423.093 257.726 425.035 259.993 427.302C288.162 448.348 320.54 465.185 350.976 480.726C405.048 508.248 452.319 535.445 494.735 564.262C529.056 587.574 559.492 612.182 587.984 640.674C600.936 653.626 613.563 667.549 626.191 682.119C633.314 690.537 641.085 698.955 650.151 708.021C708.108 767.274 779.988 806.775 849.277 841.096C855.753 844.334 862.553 847.249 869.676 850.486C879.066 854.695 889.427 858.581 899.788 862.466C925.691 872.18 952.564 882.217 971.344 900.996C973.934 903.587 976.2 906.5 978.467 909.414C1007.93 947.945 1022.83 999.102 1033.51 1045.4C1034.81 1044.76 1035.78 1043.78 1037.4 1042.81C1026.71 996.512 1011.49 945.678 982.028 907.148C980.086 903.262 977.496 900.025 974.906 897.435Z" fill="url(#paint10_linear_1660_132240)" fill-opacity="0.4"/>
<path d="M957.1 924.962C938.32 906.183 912.094 894.85 886.191 883.841C875.83 879.308 866.44 875.099 857.05 870.242C850.898 867.328 845.071 864.091 838.595 860.853C774.162 826.208 701.311 787.03 642.383 731.34C638.173 727.131 633.64 723.245 629.755 719.36C624.898 714.503 620.689 710.294 616.48 705.437C607.09 695.4 598.025 685.687 588.959 676.621C553.99 641.652 520.317 614.454 483.729 590.818C443.256 565.239 399.221 541.279 352.597 520.557C317.628 505.015 277.803 484.617 244.453 451.268C243.806 450.62 243.482 450.296 242.835 449.649C242.187 450.944 241.863 452.562 241.215 453.858C248.339 460.981 255.785 467.78 264.204 474.256C287.192 492.064 314.391 508.253 350.654 524.442C397.279 545.165 440.99 568.801 481.463 594.38C518.05 618.016 551.399 644.889 586.368 679.858C595.11 688.6 604.176 698.314 613.566 708.351C617.775 713.208 621.984 717.417 626.841 722.274C630.726 726.159 634.936 730.368 639.469 734.254C698.721 790.268 771.895 829.769 836.652 864.738C842.804 868.299 848.956 871.214 855.108 874.128C864.497 878.984 874.211 882.87 884.572 887.403C909.827 898.412 936.054 909.744 954.186 927.876C986.24 959.931 1002.11 1010.76 1013.11 1058.68C1014.41 1058.04 1015.38 1057.07 1016.68 1056.42C1006.31 1008.5 989.802 957.664 957.1 924.962Z" fill="url(#paint11_linear_1660_132240)" fill-opacity="0.4"/>
<path d="M928.286 952.483C926.343 950.541 924.4 947.95 922.457 946.007C905.297 928.847 883.28 915.895 861.586 903.268C856.406 900.03 850.902 897.116 845.721 893.878C842.807 892.259 840.216 890.316 837.302 888.697L836.979 888.374C834.389 887.079 831.798 885.136 829.208 883.841C813.666 874.127 797.477 865.061 782.259 856.319C732.397 827.179 680.268 797.067 636.557 757.889C626.196 748.823 617.778 740.405 610.331 732.31C602.884 724.216 596.408 717.741 589.933 711.265C553.021 674.354 519.995 648.45 482.112 626.757C443.906 604.74 404.081 586.285 364.58 572.038C324.431 557.792 291.081 537.393 263.559 509.872C253.522 499.835 244.132 488.502 234.742 475.874C234.418 477.493 233.771 479.436 233.447 481.055C242.189 493.035 251.255 503.396 260.969 513.109C266.797 518.937 272.625 524.118 278.777 529.622C302.737 549.697 330.259 564.915 363.284 576.571C402.462 590.494 441.963 608.625 480.17 630.642C517.729 652.012 550.431 678.239 587.018 714.826C593.17 720.978 599.97 727.778 607.417 735.872C615.188 744.291 623.929 752.385 633.967 761.775C678.001 801.276 729.807 831.712 780.317 860.853C795.859 869.919 811.724 879.308 827.266 888.374C829.532 889.993 832.122 891.288 834.065 892.583L834.388 892.906C837.302 894.525 840.541 896.469 843.131 898.411C848.311 901.649 853.815 904.563 858.996 907.801C880.366 920.105 902.383 933.056 919.22 949.893C921.162 951.835 923.105 953.778 924.724 956.045C954.189 990.042 971.672 1036.02 983.652 1077.14C984.947 1076.49 986.243 1075.84 987.538 1075.2C984.3 1063.54 981.062 1053.18 977.177 1043.47C963.901 1004.29 948.037 974.824 928.286 952.483Z" fill="url(#paint12_linear_1660_132240)" fill-opacity="0.4"/>
<path d="M875.184 949.892C863.204 937.912 849.281 925.932 834.064 914.6C828.883 910.714 824.027 907.153 819.494 903.915C794.239 886.431 767.04 870.889 740.814 855.671C703.255 834.302 664.402 811.637 630.728 783.144C620.691 774.402 611.949 766.308 604.502 758.213C598.674 752.385 593.493 746.557 588.637 741.7C552.373 705.436 521.289 682.124 484.054 664.316C450.705 647.803 415.089 634.851 378.825 625.786C341.914 616.72 311.478 599.235 282.985 570.742C267.444 555.201 251.902 535.774 234.418 509.872C232.475 506.634 230.208 503.719 228.266 500.481C227.942 502.1 227.294 504.043 227.294 505.985C228.589 507.928 229.885 509.871 231.504 512.138C249.312 538.364 264.853 557.791 280.395 573.333C284.604 577.542 289.137 582.075 293.67 585.96C318.601 607.654 346.446 621.9 378.501 629.994C414.765 639.06 449.733 652.012 483.083 667.877C519.67 685.685 550.43 708.674 586.37 744.614C591.55 749.794 596.731 754.975 602.235 761.127C609.682 769.221 618.425 777.316 628.462 786.058C662.135 815.199 701.313 837.54 739.195 859.233C765.422 874.451 792.296 889.669 817.551 907.153C822.084 910.391 826.94 913.952 832.121 917.837C847.339 929.17 860.938 940.827 872.918 952.807C881.66 961.549 889.431 970.614 895.906 979.032C920.837 1011.73 936.055 1053.5 947.387 1093.98C948.683 1093.33 949.978 1092.68 950.949 1092.36C939.293 1051.56 924.076 1009.79 899.144 976.443C892.345 967.7 884.25 958.958 875.184 949.892Z" fill="url(#paint13_linear_1660_132240)" fill-opacity="0.4"/>
<path d="M869.352 997.157C866.761 992.624 864.171 988.738 861.581 984.205L861.258 983.882C850.573 966.074 840.859 949.237 826.289 934.667C824.67 933.048 823.375 931.752 821.756 930.134C817.223 926.248 812.69 922.363 808.48 918.801C780.311 896.46 747.609 879.947 716.526 863.758C684.472 847.245 651.122 830.085 622.629 806.772C612.592 798.678 604.173 790.907 597.05 783.783C592.193 778.927 588.308 774.394 584.099 770.185C554.635 740.721 526.466 717.732 484.698 701.219C456.853 690.211 425.445 682.116 388.21 675.964C353.242 670.136 323.454 653.947 294.637 625.13C276.505 606.998 260.316 585.629 241.537 559.079C235.709 550.66 229.233 541.594 223.081 532.852C222.757 535.118 222.433 536.737 222.11 539.004C227.29 546.775 233.118 554.545 237.975 561.992C254.812 585.952 271.648 608.617 291.399 628.368C294.637 631.606 297.552 634.52 301.113 637.434C327.34 661.07 355.832 675.317 387.563 680.497C424.474 686.326 455.558 694.744 483.403 705.752C524.523 721.618 552.368 744.282 581.509 773.422C585.718 777.632 589.927 781.841 594.46 787.022C601.583 794.792 610.326 802.24 620.363 810.334C649.18 833.97 682.853 850.807 715.232 867.644C746.315 883.833 778.693 900.022 806.538 922.039C810.748 925.601 815.604 929.162 819.813 933.371C821.108 934.666 822.727 936.285 824.022 937.581C838.269 951.827 847.982 968.664 858.343 986.148C860.934 990.681 863.524 995.214 866.438 999.423C886.836 1032.77 899.14 1070.98 909.825 1109.51C911.12 1108.86 912.415 1108.86 913.71 1108.21C910.472 1096.56 907.235 1084.25 903.349 1072.6C892.665 1042.49 881.655 1017.88 869.352 997.157Z" fill="url(#paint14_linear_1660_132240)" fill-opacity="0.4"/>
<path d="M832.123 991.658C826.619 972.555 821.762 954.747 805.897 938.234C801.688 934.024 797.478 929.815 793.269 926.254C764.452 901.97 728.513 887.4 694.192 873.153C663.756 860.849 632.673 847.898 606.447 828.795C596.733 821.672 588.962 815.196 582.486 808.721L581.839 808.073C580.22 806.454 578.601 804.835 576.982 803.216C563.707 789.941 548.813 775.694 532.624 764.038C514.168 750.763 495.713 741.374 473.696 734.898C445.526 726.156 415.091 722.27 385.95 718.385L380.122 717.737C344.83 712.88 314.718 697.015 284.93 667.227C263.884 646.181 245.752 620.927 228.268 596.967L227.62 596.319C223.411 590.814 219.85 585.31 215.64 579.806C215.317 582.072 215.316 584.015 214.993 586.281C217.907 590.49 221.145 595.024 224.059 599.233L224.706 599.881C242.514 624.812 260.646 650.066 282.016 671.436C284.606 674.026 286.873 676.293 289.463 678.883C302.738 690.863 315.689 700.577 329.612 707.377C345.478 715.471 361.666 720.651 379.151 723.241L384.979 723.889C414.119 727.774 444.231 731.984 472.076 740.402C516.758 754.001 543.956 778.609 572.773 807.426C574.392 809.044 576.334 810.987 577.953 812.606L578.601 813.254C585.077 819.729 593.172 826.529 603.209 833.976C629.759 853.403 661.489 866.354 691.925 878.657C726.246 892.904 761.862 907.15 790.031 930.786C794.24 934.348 798.45 938.558 802.335 942.443C817.553 958.309 822.086 975.793 827.59 994.248C829.533 1001.37 831.476 1008.49 834.066 1015.62C848.96 1056.41 859.645 1090.41 868.387 1123.11C869.682 1122.47 870.977 1122.47 872.273 1121.82C863.53 1089.12 852.522 1054.8 837.628 1014C836.009 1005.9 834.066 998.781 832.123 991.658Z" fill="url(#paint15_linear_1660_132240)" fill-opacity="0.4"/>
<path d="M806.542 1022.42C805.571 1014.98 805.246 1007.53 804.922 1000.08C803.627 976.121 802.656 955.724 786.143 939.211C785.172 938.24 784.201 937.268 782.906 935.973C777.401 931.116 768.982 927.23 761.859 923.345L760.565 922.698C736.605 910.394 708.759 903.27 682.209 896.147C643.355 885.786 602.882 875.102 572.447 849.847L572.123 849.522C565.647 844.342 558.524 838.514 552.696 832.038C548.81 827.505 544.601 823.296 540.716 819.411C528.412 807.107 516.756 797.394 504.776 789.299C487.291 777.643 469.159 769.224 446.818 762.425C429.982 757.244 411.85 753.359 394.366 749.474C378.501 745.912 362.312 742.027 346.446 737.818C307.592 726.809 274.566 706.734 242.835 675.003C233.122 665.29 223.732 654.605 214.666 643.597C214.99 645.863 214.99 648.453 215.314 650.72C223.084 660.433 231.503 669.499 239.921 677.917C271.652 709.648 306.297 730.694 345.151 741.703C360.692 746.236 377.205 749.797 393.071 753.359C410.555 757.244 428.039 761.13 444.876 766.31C481.463 776.995 508.338 793.509 537.154 822.325C541.04 826.211 544.925 830.095 548.486 834.305C554.638 841.104 561.438 846.609 568.237 852.113L568.561 852.437C599.645 878.34 640.765 889.025 679.943 899.709C706.493 906.833 734.014 914.279 757.65 926.259L758.945 926.907C765.745 930.468 773.839 934.678 779.344 938.887C780.315 939.858 781.286 940.829 782.257 941.801C797.475 957.018 798.771 977.094 799.742 1000.08C800.066 1007.53 800.39 1014.98 801.361 1022.42C804.275 1046.71 811.074 1070.99 817.874 1094.63C821.112 1106.28 824.673 1118.26 827.587 1130.24C828.883 1130.24 830.178 1129.59 831.473 1129.59C828.559 1117.61 825.321 1105.31 821.759 1093.33C816.255 1070.34 809.456 1046.06 806.542 1022.42Z" fill="url(#paint16_linear_1660_132240)" fill-opacity="0.4"/>
<path d="M783.875 1100.13C778.047 1074.87 772.219 1048.97 772.542 1023.39L772.542 1018.21C772.866 999.755 773.19 986.479 762.181 968.348C757.972 961.548 753.115 955.396 747.287 949.568C738.545 940.826 728.184 933.703 714.909 926.904C709.405 923.99 702.281 921.399 695.158 918.809C676.379 912.981 654.685 910.715 631.697 908.448C591.871 904.239 550.751 900.03 522.582 875.746C519.021 872.832 515.783 869.594 512.545 866.357C510.279 864.09 508.335 862.147 506.716 859.88C501.86 853.729 496.68 847.901 491.175 842.397C465.92 817.142 436.132 800.952 399.22 784.115C383.679 776.992 367.166 770.193 351.301 763.393C329.931 754.327 307.914 745.262 286.868 735.224C262.584 723.244 240.243 709.969 219.521 693.78C219.845 696.046 220.169 697.666 220.493 699.932C240.567 714.826 261.613 727.454 285.249 738.786C306.295 748.823 328.636 758.213 349.682 766.955C365.224 773.431 381.737 780.23 397.278 787.354C433.866 803.867 463.006 820.055 487.937 844.987C493.118 850.167 498.298 855.995 503.155 862.147C504.774 864.414 506.717 866.356 509.307 868.947C512.545 872.184 516.43 875.423 519.668 878.66C548.485 903.592 590.576 908.124 631.049 912.334C654.038 914.6 675.084 916.867 693.863 922.695C700.663 924.961 707.138 927.551 712.966 930.141C734.336 941.15 748.259 953.778 758.296 970.291C768.657 987.775 768.333 1000.4 768.333 1017.89C768.009 1019.51 768.333 1021.12 768.333 1023.07C768.01 1049.29 773.838 1075.2 779.342 1100.78C781.285 1109.19 783.227 1117.61 784.522 1126.03C785.17 1129.27 786.142 1132.83 786.789 1136.07C788.084 1136.07 789.703 1135.74 790.998 1135.74C790.026 1132.18 789.703 1128.62 788.731 1125.06C787.436 1117.29 785.818 1108.55 783.875 1100.13Z" fill="url(#paint17_linear_1660_132240)" fill-opacity="0.4"/>
<path d="M720.093 1007.2C718.798 1003.97 718.15 1000.73 716.855 997.49C710.055 977.091 703.904 959.284 691.277 946.656C683.182 938.562 672.497 932.41 658.574 928.848C653.07 927.229 646.594 925.934 639.471 925.286C623.282 923.344 604.502 924.638 584.751 925.61C543.955 927.552 497.654 929.819 467.866 906.507C464.304 903.593 460.419 900.355 456.534 896.47C454.915 894.851 453.62 893.556 452.648 891.937C447.144 885.137 441.316 878.662 434.84 872.186C406.995 844.341 374.941 823.295 341.267 801.278L337.382 798.688C318.602 786.384 299.499 774.404 280.72 762.748L280.396 762.423C262.587 751.091 244.78 739.759 226.648 728.103C227.296 730.046 227.295 731.988 227.943 733.93C244.78 744.939 261.94 755.624 278.129 765.985L278.453 766.309C297.233 777.965 316.012 790.269 334.467 802.249L338.353 804.839C372.026 826.856 403.757 847.578 431.278 875.1C437.43 881.252 443.259 887.728 448.763 894.527C450.058 895.822 451.353 897.765 452.972 899.384C456.857 903.269 461.066 906.83 464.628 909.745C478.227 920.753 496.683 926.906 520.319 929.82C541.041 931.762 563.058 931.114 584.428 929.819C604.179 928.848 622.634 927.877 638.5 929.496C645.623 930.143 651.775 931.114 656.955 933.057C669.907 936.942 679.944 942.447 687.391 949.894C699.371 961.874 704.875 978.386 711.998 999.109C712.97 1002.02 714.265 1005.26 715.236 1008.82C728.187 1046.38 735.31 1083.29 742.11 1121.17C743.081 1127.33 744.377 1133.15 745.672 1138.98C746.967 1138.98 748.262 1138.98 749.881 1138.66C748.262 1132.51 747.291 1126.36 745.996 1119.88C740.168 1082.32 733.044 1044.76 720.093 1007.2Z" fill="url(#paint18_linear_1660_132240)" fill-opacity="0.4"/>
<path d="M673.146 995.874C666.347 978.066 660.843 964.791 651.453 955.401L651.129 955.077C641.739 945.688 629.435 941.154 609.361 939.859C603.857 939.535 597.382 939.536 589.287 939.86C574.717 940.831 558.528 943.421 540.72 946.335C495.714 953.782 444.556 962.201 409.911 939.212C404.407 935.65 399.226 931.765 394.046 926.585L393.398 925.937C388.865 921.404 384.332 916.871 379.476 912.015C341.593 874.132 303.062 840.782 266.799 809.698C258.704 802.899 250.61 796.1 242.839 789.625C243.487 792.215 244.781 794.805 245.429 797.395C251.905 802.575 257.733 807.756 263.885 813.26C300.149 844.344 338.679 877.694 376.238 915.252C380.771 919.785 385.627 924.641 390.16 929.174C395.664 934.679 401.492 939.212 407.321 943.097C443.26 966.733 495.066 958.315 541.043 950.544C558.204 947.63 574.392 945.04 588.963 944.068C596.41 943.745 602.885 943.745 608.39 944.068C627.169 945.363 638.502 949.573 647.244 958.315L647.567 958.639C655.986 967.057 661.49 980.332 668.289 997.493C682.86 1034.73 691.602 1073.26 701.639 1118.91C702.935 1125.39 704.553 1132.19 706.172 1138.34C707.467 1138.34 709.086 1138.66 710.381 1138.66C708.763 1131.86 707.144 1125.06 705.525 1118.26C696.783 1071.96 687.716 1033.76 673.146 995.874Z" fill="url(#paint19_linear_1660_132240)" fill-opacity="0.4"/>
<path d="M675.732 1105.95C666.99 1068.72 657.924 1030.51 641.087 995.542C635.906 985.181 630.726 977.411 625.222 971.907C621.337 968.021 616.804 964.783 611.947 962.517C601.586 957.984 588.635 956.689 567.589 958.308C561.761 958.955 554.637 959.602 545.895 961.221C532.296 963.164 517.402 967.05 501.537 970.611C452.645 982.591 396.955 996.19 356.806 973.526C355.187 972.554 353.568 971.582 351.949 970.611C354.863 973.525 357.777 977.087 360.691 980.001C401.488 998.78 454.912 986.153 502.184 974.497C518.049 970.935 532.944 967.05 546.219 964.783C554.637 963.488 561.436 962.516 567.588 962.193C592.843 960.25 609.032 961.545 621.984 974.497C627.488 980.001 632.345 987.448 637.202 997.485C654.039 1031.81 663.105 1070.01 671.523 1106.92C672.494 1111.13 673.465 1115.34 674.437 1119.55C675.732 1124.73 677.027 1130.56 678.646 1136.71C679.941 1136.71 681.56 1137.04 682.855 1137.04C681.236 1130.88 679.618 1124.73 677.999 1118.58C677.999 1114.05 676.703 1110.16 675.732 1105.95Z" fill="url(#paint20_linear_1660_132240)" fill-opacity="0.4"/>
<path d="M659.863 1108.22C649.826 1071.63 639.465 1034.07 618.743 1003.64C608.382 988.742 595.431 980.323 578.594 977.733C563.052 975.143 545.244 978.704 529.379 980.971C522.903 982.266 515.132 983.561 506.066 985.504C492.791 988.418 478.869 992.627 463.651 996.836C441.957 1002.99 418.969 1009.79 396.304 1013.67C397.599 1014.97 399.218 1015.94 400.514 1017.24C422.207 1013.03 443.9 1006.87 464.946 1000.72L465.27 1000.4C480.164 995.865 494.41 991.98 507.038 989.066C516.427 986.799 523.551 985.504 530.351 984.533C559.167 979.676 587.012 975.143 607.734 995.865C610.648 998.779 613.239 1002.02 615.505 1005.58C635.903 1035.69 646.265 1072.6 655.654 1108.54C657.273 1114.69 659.216 1120.52 660.511 1126.35C661.159 1128.94 662.13 1131.21 662.778 1133.8C664.397 1134.12 665.691 1134.12 667.31 1134.44C666.339 1131.53 665.692 1128.29 664.721 1125.38C662.778 1120.2 661.158 1114.05 659.863 1108.22Z" fill="url(#paint21_linear_1660_132240)" fill-opacity="0.4"/>
<path d="M600.94 1018.21C588.312 1005.58 572.123 999.103 550.753 998.455C532.621 997.808 513.195 1001.69 496.034 1005.25L492.797 1005.9C485.35 1007.52 477.255 1009.14 467.865 1011.41C455.885 1014.32 442.934 1018.21 429.335 1022.09C423.831 1023.71 418.326 1025.33 412.822 1026.95C414.117 1028.24 415.413 1028.89 416.708 1030.19C421.241 1028.89 425.774 1027.6 430.307 1026.3C443.905 1022.42 456.533 1018.21 468.513 1015.29C477.902 1013.03 485.673 1011.08 493.444 1009.79L497.005 1008.82C531.974 1001.69 571.152 993.599 598.026 1020.47C624.576 1047.02 637.851 1088.14 649.507 1123.76C650.155 1126.35 651.45 1128.94 652.098 1131.53C653.717 1131.85 655.011 1131.85 656.63 1132.18C655.335 1128.94 654.687 1125.7 653.392 1122.46C641.412 1087.17 628.461 1045.73 600.94 1018.21Z" fill="url(#paint22_linear_1660_132240)" fill-opacity="0.4"/>
<path d="M578.925 1035.05C563.383 1025.99 544.604 1022.1 521.939 1023.4C502.188 1024.37 482.114 1029.55 464.306 1033.76L453.297 1036.35C448.116 1037.64 442.289 1038.94 437.108 1040.23L431.927 1041.53C433.546 1042.5 434.841 1043.79 436.46 1044.77L438.08 1044.44C443.26 1043.15 449.088 1041.85 454.269 1040.56C456.859 1039.91 459.449 1039.26 461.715 1038.94L464.954 1038.29C501.541 1029.55 543.309 1019.51 576.658 1039.26C583.458 1043.47 589.934 1048.65 595.762 1054.48C616.16 1074.88 630.082 1104.34 641.091 1131.54C642.71 1131.86 644.329 1132.19 645.948 1132.51C634.616 1104.34 620.369 1073.26 598.676 1051.57C592.524 1044.77 585.724 1039.26 578.925 1035.05Z" fill="url(#paint23_linear_1660_132240)" fill-opacity="0.4"/>
<path d="M595.434 1085.88C584.749 1075.2 573.74 1067.43 561.436 1061.6C529.058 1046.71 491.499 1051.89 456.854 1058.68C458.473 1059.66 460.416 1060.95 462.035 1061.92C494.737 1055.77 530.03 1051.56 559.818 1065.16C571.474 1070.34 582.482 1078.11 592.843 1088.47C604.176 1099.81 613.566 1113.08 621.66 1126.36C623.279 1126.68 625.222 1127.33 627.165 1127.33C623.927 1121.5 620.365 1115.99 616.479 1110.81C609.68 1101.42 602.557 1093.01 595.434 1085.88Z" fill="url(#paint24_linear_1660_132240)" fill-opacity="0.4"/>
<path d="M507.039 1086.85C511.896 1089.12 516.753 1091.39 521.61 1093.65C521.934 1093.98 522.257 1093.65 522.581 1093.98C533.589 1096.57 544.274 1101.42 554.635 1107.25C560.14 1109.52 565.644 1111.14 571.148 1112.75C556.254 1101.75 540.065 1093.98 523.552 1089.77C518.372 1088.47 512.544 1087.18 507.039 1086.85Z" fill="url(#paint25_linear_1660_132240)" fill-opacity="0.4"/>
</g>
<defs>
<linearGradient id="paint0_linear_1660_132240" x1="726.985" y1="92.3326" x2="574.24" y2="545.814" gradientUnits="userSpaceOnUse">
<stop stop-color="#F2D57E"/>
<stop offset="1" stop-color="#A7F2D7"/>
</linearGradient>
<linearGradient id="paint1_linear_1660_132240" x1="693.425" y1="101.61" x2="532.752" y2="541.054" gradientUnits="userSpaceOnUse">
<stop stop-color="#F2D57E"/>
<stop offset="1" stop-color="#A7F2D7"/>
</linearGradient>
<linearGradient id="paint2_linear_1660_132240" x1="660.845" y1="116.709" x2="495.185" y2="536.435" gradientUnits="userSpaceOnUse">
<stop stop-color="#F2D57E"/>
<stop offset="1" stop-color="#A7F2D7"/>
</linearGradient>
<linearGradient id="paint3_linear_1660_132240" x1="629.816" y1="130.128" x2="460.946" y2="522.807" gradientUnits="userSpaceOnUse">
<stop stop-color="#F2D57E"/>
<stop offset="1" stop-color="#A7F2D7"/>
</linearGradient>
<linearGradient id="paint4_linear_1660_132240" x1="591.929" y1="149.286" x2="421.852" y2="512.477" gradientUnits="userSpaceOnUse">
<stop stop-color="#F2D57E"/>
<stop offset="1" stop-color="#A7F2D7"/>
</linearGradient>
<linearGradient id="paint5_linear_1660_132240" x1="544.224" y1="181.019" x2="380.911" y2="485.779" gradientUnits="userSpaceOnUse">
<stop stop-color="#F2D57E"/>
<stop offset="1" stop-color="#A7F2D7"/>
</linearGradient>
<linearGradient id="paint6_linear_1660_132240" x1="494.641" y1="227.866" x2="344.636" y2="478.079" gradientUnits="userSpaceOnUse">
<stop stop-color="#F2D57E"/>
<stop offset="1" stop-color="#A7F2D7"/>
</linearGradient>
<linearGradient id="paint7_linear_1660_132240" x1="442.794" y1="283.279" x2="302.406" y2="505.014" gradientUnits="userSpaceOnUse">
<stop stop-color="#F2D57E"/>
<stop offset="1" stop-color="#A7F2D7"/>
</linearGradient>
<linearGradient id="paint8_linear_1660_132240" x1="412.348" y1="327.526" x2="267.585" y2="564.135" gradientUnits="userSpaceOnUse">
<stop stop-color="#F2D57E"/>
<stop offset="1" stop-color="#A7F2D7"/>
</linearGradient>
<linearGradient id="paint9_linear_1660_132240" x1="403.572" y1="351.777" x2="246.765" y2="636.249" gradientUnits="userSpaceOnUse">
<stop stop-color="#F2D57E"/>
<stop offset="1" stop-color="#A7F2D7"/>
</linearGradient>
<linearGradient id="paint10_linear_1660_132240" x1="393.015" y1="378.216" x2="232.926" y2="687.146" gradientUnits="userSpaceOnUse">
<stop stop-color="#F2D57E"/>
<stop offset="1" stop-color="#A7F2D7"/>
</linearGradient>
<linearGradient id="paint11_linear_1660_132240" x1="379.6" y1="409.805" x2="221.832" y2="717.357" gradientUnits="userSpaceOnUse">
<stop stop-color="#F2D57E"/>
<stop offset="1" stop-color="#A7F2D7"/>
</linearGradient>
<linearGradient id="paint12_linear_1660_132240" x1="361.884" y1="443.653" x2="210.007" y2="730.056" gradientUnits="userSpaceOnUse">
<stop stop-color="#F2D57E"/>
<stop offset="1" stop-color="#A7F2D7"/>
</linearGradient>
<linearGradient id="paint13_linear_1660_132240" x1="345.371" y1="475.66" x2="198.768" y2="748.763" gradientUnits="userSpaceOnUse">
<stop stop-color="#F2D57E"/>
<stop offset="1" stop-color="#A7F2D7"/>
</linearGradient>
<linearGradient id="paint14_linear_1660_132240" x1="339.105" y1="505.702" x2="193.567" y2="793.198" gradientUnits="userSpaceOnUse">
<stop stop-color="#F2D57E"/>
<stop offset="1" stop-color="#A7F2D7"/>
</linearGradient>
<linearGradient id="paint15_linear_1660_132240" x1="340.89" y1="538.703" x2="197.907" y2="864.054" gradientUnits="userSpaceOnUse">
<stop stop-color="#F2D57E"/>
<stop offset="1" stop-color="#A7F2D7"/>
</linearGradient>
<linearGradient id="paint16_linear_1660_132240" x1="355.023" y1="580.658" x2="224.959" y2="940.551" gradientUnits="userSpaceOnUse">
<stop stop-color="#F2D57E"/>
<stop offset="1" stop-color="#A7F2D7"/>
</linearGradient>
<linearGradient id="paint17_linear_1660_132240" x1="355.788" y1="628.658" x2="238.361" y2="977.695" gradientUnits="userSpaceOnUse">
<stop stop-color="#F2D57E"/>
<stop offset="1" stop-color="#A7F2D7"/>
</linearGradient>
<linearGradient id="paint18_linear_1660_132240" x1="350.549" y1="669.756" x2="241.619" y2="985.713" gradientUnits="userSpaceOnUse">
<stop stop-color="#F2D57E"/>
<stop offset="1" stop-color="#A7F2D7"/>
</linearGradient>
<linearGradient id="paint19_linear_1660_132240" x1="361.337" y1="728.452" x2="271.848" y2="1037.96" gradientUnits="userSpaceOnUse">
<stop stop-color="#F2D57E"/>
<stop offset="1" stop-color="#A7F2D7"/>
</linearGradient>
<linearGradient id="paint20_linear_1660_132240" x1="470.677" y1="886.796" x2="469.994" y2="1173.45" gradientUnits="userSpaceOnUse">
<stop stop-color="#F2D57E"/>
<stop offset="1" stop-color="#A7F2D7"/>
</linearGradient>
<linearGradient id="paint21_linear_1660_132240" x1="497.319" y1="940.161" x2="506.925" y2="1175.37" gradientUnits="userSpaceOnUse">
<stop stop-color="#F2D57E"/>
<stop offset="1" stop-color="#A7F2D7"/>
</linearGradient>
<linearGradient id="paint22_linear_1660_132240" x1="498.435" y1="965.839" x2="500.853" y2="1169.86" gradientUnits="userSpaceOnUse">
<stop stop-color="#F2D57E"/>
<stop offset="1" stop-color="#A7F2D7"/>
</linearGradient>
<linearGradient id="paint23_linear_1660_132240" x1="501.094" y1="993.773" x2="495.276" y2="1163.76" gradientUnits="userSpaceOnUse">
<stop stop-color="#F2D57E"/>
<stop offset="1" stop-color="#A7F2D7"/>
</linearGradient>
<linearGradient id="paint24_linear_1660_132240" x1="506.749" y1="1025.57" x2="496.283" y2="1151.26" gradientUnits="userSpaceOnUse">
<stop stop-color="#F2D57E"/>
<stop offset="1" stop-color="#A7F2D7"/>
</linearGradient>
<linearGradient id="paint25_linear_1660_132240" x1="524.437" y1="1075.77" x2="518.67" y2="1120.3" gradientUnits="userSpaceOnUse">
<stop stop-color="#F2D57E"/>
<stop offset="1" stop-color="#A7F2D7"/>
</linearGradient>
<clipPath id="clip0_1660_132240">
<rect width="623" height="1179" fill="white"/>
</clipPath>
</defs>
</svg>
