<svg width="573" height="1114" viewBox="0 0 573 1114" fill="none" xmlns="http://www.w3.org/2000/svg">
<g clip-path="url(#clip0_1660_131663)">
<path d="M421.838 318.175C427.357 325.621 433.202 332.744 439.046 339.866C437.098 335.334 435.15 330.801 432.877 325.945C430.279 322.707 427.357 319.146 424.759 315.908C419.889 309.11 414.37 301.664 408.525 293.246C387.745 263.461 364.693 228.174 343.589 190.943C340.017 186.734 336.121 182.849 332.225 178.964C355.277 222.022 381.901 261.519 404.954 295.512C411.448 303.93 416.967 311.376 421.838 318.175Z" fill="url(#paint0_linear_1660_131663)" fill-opacity="0.4"/>
<path d="M368.595 272.855C374.764 280.949 380.283 288.395 385.803 295.193C406.258 320.769 428.012 345.05 449.766 368.684C450.415 369.331 451.065 369.979 451.714 370.626C450.416 367.389 449.441 363.827 448.142 360.59C428.337 338.899 408.206 316.237 389.375 292.927C383.855 286.128 378.336 278.682 372.167 270.589L365.348 261.2C335.802 221.379 304.307 178.321 281.254 132.025C278.657 130.082 276.384 128.463 274.111 126.197C296.839 175.407 330.932 221.056 361.777 263.467L368.595 272.855Z" fill="url(#paint1_linear_1660_131663)" fill-opacity="0.4"/>
<path d="M335.15 267.348C340.994 274.47 346.839 280.945 352.358 287.096C356.579 291.953 361.449 296.809 366.644 301.989C374.437 309.759 382.878 317.528 390.346 324.975C398.139 332.097 406.256 340.19 414.048 347.96C428.659 362.529 439.699 375.479 448.14 387.782C453.011 394.58 457.556 401.703 462.102 409.473C460.803 404.94 459.504 400.407 458.205 395.875C455.932 392.314 453.66 388.753 451.387 385.839C442.621 373.213 431.581 360.263 416.646 345.37C408.853 337.6 400.412 329.831 392.944 322.384C384.827 314.938 377.034 307.169 369.242 299.399C364.047 294.219 359.176 289.362 355.28 284.83C349.76 278.678 343.916 272.204 338.072 265.081C299.434 218.785 258.2 164.072 231.575 98.0281C229.627 96.7331 227.679 95.4381 225.406 94.4668C234.173 116.805 244.887 139.144 258.199 161.482C278.005 194.181 302.682 227.851 335.15 267.348Z" fill="url(#paint2_linear_1660_131663)" fill-opacity="0.4"/>
<path d="M308.529 288.721C313.724 293.901 319.569 299.081 324.764 303.614C335.154 312.679 346.842 321.096 357.882 328.866C372.492 339.55 388.077 350.557 401.065 363.507C407.558 369.982 413.078 376.78 417.623 383.255C449.118 430.198 465.677 487.501 479.638 543.51C479.638 537.682 479.638 531.855 479.638 526.027C466.326 475.199 449.767 423.723 421.195 380.988C416.649 373.866 410.805 367.392 403.987 360.593C390.675 347.319 375.414 336.635 360.479 325.628C349.44 317.858 337.751 309.441 327.686 300.7C322.166 295.844 316.646 290.987 311.451 285.807C251.06 226.886 220.864 153.395 194.24 76.3428C192.616 75.3716 190.668 74.7242 189.045 73.753C203.981 116.488 217.617 152.1 234.826 185.446C255.281 226.562 279.632 260.555 308.529 288.721Z" fill="url(#paint3_linear_1660_131663)" fill-opacity="0.4"/>
<path d="M165.99 71.4872C172.159 85.4083 178.003 100.948 184.172 117.459C189.692 132.675 194.887 147.567 200.407 164.078C220.862 224.619 241.642 287.426 286.449 332.103C288.397 334.046 290.02 335.664 291.968 337.607C296.514 341.492 301.059 345.376 305.929 348.938C317.293 357.031 330.281 362.859 342.943 369.01C359.178 376.133 375.737 384.226 388.075 396.529C390.347 398.795 392.62 401.061 394.569 403.651C427.686 447.033 438.725 509.192 448.466 564.229C449.44 570.38 450.739 576.208 451.713 582.359C454.635 598.223 457.557 614.734 460.155 628.979C461.778 639.662 464.051 650.346 465.674 661.03C466.648 657.468 467.298 654.231 468.272 650.67C466.973 642.9 465.674 635.777 464.375 628.007C461.778 612.468 458.856 596.604 455.934 581.388C454.635 575.56 453.986 569.733 453.012 563.582C442.946 508.221 431.907 445.414 398.14 401.385C396.192 398.795 393.594 396.205 391.322 393.939C378.334 380.989 361.126 372.895 344.567 365.449C332.229 359.621 319.567 354.118 308.203 346.025C303.657 342.787 299.111 338.902 294.566 335.017C292.618 333.074 290.994 331.456 289.046 329.513C245.214 285.808 224.109 223.324 203.979 163.107C198.784 146.92 193.264 131.704 187.744 116.488C181.575 99.977 175.406 84.1129 169.562 70.5156L167.939 66.3072C167.939 65.6597 167.289 65.0118 167.289 64.3643C165.341 63.7168 163.717 62.7457 161.769 62.0982C162.419 64.0407 163.717 65.9833 164.367 67.9258L165.99 71.4872Z" fill="url(#paint4_linear_1660_131663)" fill-opacity="0.4"/>
<path d="M174.758 131.375C181.576 147.239 188.07 163.426 193.914 180.261C202.681 204.542 210.473 229.795 217.941 254.076C224.759 275.767 231.903 298.429 239.046 320.444C248.461 347.962 260.8 379.042 284.177 402.352L285.151 403.322C288.722 406.884 292.619 410.122 296.515 412.712C307.879 420.158 320.217 423.395 332.88 426.309C347.166 429.546 360.478 433.107 371.192 442.496C372.166 443.467 373.465 444.762 374.439 445.733C406.583 477.784 416.648 540.267 423.466 585.915C424.44 593.362 425.739 600.484 427.038 606.959C430.61 627.355 433.857 648.075 436.779 667.176C439.701 686.277 442.623 705.379 446.195 724.48C447.169 721.566 448.143 719.3 449.117 716.386C446.519 699.551 443.597 683.04 441 666.205C438.078 646.457 434.506 626.06 431.259 605.988C429.96 599.513 429.311 592.39 427.687 584.944C423.791 560.34 419.57 532.174 411.453 505.95C402.037 475.194 390.024 453.504 373.79 439.259C362.426 429.223 348.464 425.661 333.529 421.776C321.516 418.862 309.178 415.625 298.463 408.827C294.567 406.237 290.995 403.323 287.424 399.761L286.449 398.79C263.721 376.128 251.708 345.372 242.292 318.501C234.825 296.81 227.682 274.148 220.863 252.457C213.395 228.176 205.603 202.924 196.512 178.319C190.668 161.484 184.174 145.297 177.356 129.433C161.771 93.1735 145.861 67.5976 127.354 48.4965C124.432 47.5253 121.51 46.5539 118.588 45.5826C119.886 46.8776 121.185 48.1725 122.484 49.4674C142.614 68.8922 158.524 93.8206 174.758 131.375Z" fill="url(#paint5_linear_1660_131663)" fill-opacity="0.4"/>
<path d="M-81.4187 46.2346L-79.1462 46.558C-33.6903 49.7954 13.7136 53.0329 56.572 66.6303C89.0405 76.3427 115.016 91.883 136.12 112.927C157.225 133.97 174.433 161.488 189.043 198.071C195.537 214.259 201.706 230.77 206.576 247.281C216.966 279.656 225.084 313.002 233.201 345.7C236.123 357.679 239.37 371.276 242.941 384.55L243.591 387.787C251.383 418.22 260.474 452.537 281.579 477.465C284.501 481.026 287.748 484.264 291.644 486.854C303.658 495.595 316.32 496.566 328.658 497.861C339.048 498.508 349.763 499.48 358.854 505.307C362.425 507.573 365.672 510.164 368.919 513.401C378.66 523.113 386.777 537.682 392.946 557.431C400.089 580.093 403.985 605.345 407.232 626.065C408.206 632.216 409.18 639.014 410.154 644.518C413.401 663.943 416.972 683.691 419.894 702.792C422.816 721.893 426.063 741.318 429.635 761.067C430.609 758.801 431.583 756.535 432.557 754.269C429.311 736.786 426.713 719.303 423.79 702.145C420.868 683.044 417.621 662.972 414.05 643.87C413.076 638.367 412.102 631.569 411.128 625.417C407.882 604.698 403.985 579.445 396.842 556.135C390.348 535.415 381.907 520.523 371.841 510.487C368.595 507.25 365.023 504.336 360.802 502.07C350.737 495.919 339.373 494.948 328.658 493.976C316.645 493.005 304.632 492.034 293.592 483.616C290.346 481.027 287.423 478.113 284.176 474.875C263.721 450.594 255.279 418.219 247.162 386.816L246.513 383.578C243.266 370.628 239.694 356.707 236.772 344.728C228.655 312.03 220.538 278.685 210.148 246.31C204.953 229.475 198.784 212.964 192.29 196.776C177.355 160.517 161.121 133.97 140.666 112.926C118.263 89.9403 90.9886 73.7527 56.8967 63.0691C13.389 49.4717 -34.0149 46.2344 -80.1201 42.9969C-85.6398 42.6732 -91.1592 42.3496 -96.3542 41.7021C-117.459 40.0833 -137.265 37.1692 -155.123 32.9605C-158.369 33.608 -160.967 34.2555 -163.889 35.2267C-143.434 40.7304 -121.031 44.2916 -96.6794 45.9103C-90.835 45.9103 -85.9643 46.2346 -81.4187 46.2346Z" fill="url(#paint6_linear_1660_131663)" fill-opacity="0.4"/>
<path d="M-82.3857 87.9995C-76.2167 88.9708 -69.723 90.2658 -63.554 91.8845L-61.9312 92.2076C-16.4753 101.272 30.6046 110.014 73.1383 127.173C105.282 139.799 130.607 155.986 151.387 176.706C173.79 199.044 190.998 227.21 203.986 262.822C209.181 277.067 214.051 293.578 218.597 310.413C226.065 340.522 231.909 371.601 237.429 401.71C240.676 418.545 243.597 435.703 247.169 452.862L247.169 453.509C254.312 487.179 261.131 521.82 279.962 550.31C282.56 554.195 285.482 557.756 288.729 560.993L289.053 561.317C301.716 573.943 314.704 573.943 327.691 573.943C335.808 574.267 344.25 574.267 353.016 577.18C358.211 579.123 363.406 582.36 367.952 586.893C388.082 606.965 394.901 646.786 400.095 675.923C400.745 680.455 401.719 685.312 402.693 689.52C406.264 707.974 409.511 726.751 412.433 744.557C414.706 757.831 417.304 771.429 419.902 785.026C421.2 783.084 421.849 781.141 423.148 779.198C420.875 767.22 418.927 755.565 416.979 743.91C413.732 725.78 410.485 707.003 406.914 688.549C406.264 684.664 405.29 679.808 404.316 674.952C399.121 645.167 392.303 604.699 371.199 583.655C366.328 578.799 360.809 575.238 355.289 572.971C345.873 569.41 337.107 569.087 328.665 569.087C316.327 569.087 304.313 568.763 292.949 557.432L292.625 557.108C289.703 554.195 287.105 550.957 284.508 547.072C266.325 519.23 259.183 484.913 252.364 451.567L252.039 451.243C248.792 434.408 245.221 417.249 242.298 400.738L241.974 400.415C236.455 370.306 230.61 339.227 223.143 309.118C218.922 291.96 213.726 275.772 208.856 261.204C196.193 226.563 179.959 198.721 158.206 176.382C136.452 154.044 109.827 136.561 75.7352 123.287C32.8768 106.452 -14.2019 97.0644 -59.9824 88.3233C-66.4761 87.0283 -73.6194 85.7332 -80.4377 84.1144C-124.27 75.3733 -162.258 62.0996 -195.376 43.3223C-197.324 43.9698 -198.948 44.2933 -200.896 44.9408C-196.675 47.207 -192.454 49.4732 -188.233 51.7395C-158.687 68.2505 -123.296 80.2296 -82.3857 87.9995Z" fill="url(#paint7_linear_1660_131663)" fill-opacity="0.4"/>
<path d="M-78.8208 126.521C-72.6517 128.14 -66.4829 130.406 -60.3139 132.025C-12.2605 146.269 37.7407 161.161 82.8719 182.852C115.34 198.392 140.342 215.551 159.823 234.976C182.551 257.638 198.135 284.833 206.902 316.884C210.473 330.157 213.72 344.402 216.642 360.266C220.538 382.928 223.461 405.914 226.058 430.519C233.201 492.678 240.669 557.104 269.89 611.493C273.137 617.968 276.384 622.501 278.982 625.738C280.93 628.328 283.203 630.594 285.151 632.537C293.593 640.954 302.035 646.134 313.074 648.724C318.918 650.019 324.762 650.019 330.282 649.695C336.451 649.371 343.269 649.048 349.763 651.638C354.958 653.58 359.828 657.141 364.049 661.35C369.893 667.177 374.764 674.624 378.66 684.336C385.154 699.228 388.725 716.387 391.648 730.308C392.297 733.546 392.946 736.136 393.595 739.373C397.492 755.56 400.414 772.719 403.336 791.173L403.661 792.144C404.635 797 405.284 802.18 406.258 807.036C407.232 805.417 408.531 803.475 409.18 801.532C408.856 797.971 407.882 794.41 407.557 790.849L407.557 790.201C404.31 772.072 401.063 754.589 397.491 738.078C396.842 735.488 396.193 732.251 395.543 729.013C392.621 715.092 388.725 697.609 382.231 682.07C377.686 671.71 372.491 663.94 366.322 657.789C361.776 653.256 356.257 649.695 350.737 647.429C343.594 644.839 336.451 644.839 329.633 645.163C324.113 645.487 318.918 645.487 313.398 644.515C303.658 641.925 295.865 637.393 287.748 629.299C285.8 627.357 283.852 625.414 281.904 622.824C279.307 619.587 276.384 615.378 273.137 609.55C243.915 555.808 236.772 491.707 229.305 429.871C226.382 405.59 223.786 382.281 219.889 359.619C216.967 343.755 213.72 328.862 210.149 315.589C201.058 283.214 185.797 256.343 163.069 233.033C143.264 212.637 117.289 195.155 83.5213 178.967C38.3901 157.276 -11.6114 142.384 -60.3142 128.139L-61.6131 127.492C-67.4574 125.549 -72.9771 123.93 -79.1461 122.312C-138.563 104.506 -185.967 81.8439 -225.578 52.7067C-227.202 53.0304 -228.826 54.0012 -230.124 54.6487C-218.436 63.7136 -205.448 72.1308 -192.136 79.577C-159.343 98.0306 -122.653 113.247 -78.8208 126.521Z" fill="url(#paint8_linear_1660_131663)" fill-opacity="0.4"/>
<path d="M-94.7315 156.63L-93.7576 156.954C-36.6131 177.674 22.4796 198.393 76.0526 227.207C103.326 241.452 131.574 257.963 153.653 279.978C175.082 301.345 187.42 324.654 191.64 351.525C193.913 364.799 194.562 379.691 195.212 391.346C197.809 443.146 202.355 485.881 209.823 525.054C218.914 572.968 231.901 614.408 249.759 651.639C253.006 658.761 256.902 665.236 260.798 670.416C266.318 678.509 271.513 684.984 277.682 691.136C283.526 696.963 289.371 701.496 295.865 704.733C303.657 708.618 311.449 709.913 318.917 710.885C324.112 711.532 329.307 712.179 334.177 713.798C343.593 716.711 351.71 721.568 358.204 728.043C372.815 742.612 379.633 764.302 385.802 787.288C389.049 799.591 391.971 812.217 395.217 824.519C396.192 822.9 397.166 821.282 398.14 819.663C395.543 808.656 392.621 797.325 389.698 785.994C385.153 769.806 380.607 753.618 372.49 740.345C369.243 734.517 365.347 729.338 361.126 725.129C353.983 718.007 345.541 712.826 335.151 709.589C329.631 707.97 324.112 706.999 318.917 706.351C311.449 705.38 304.631 704.409 297.488 700.524C291.643 697.287 285.799 693.402 280.28 687.899C274.435 682.071 269.24 675.596 264.045 667.826C260.149 662.646 256.577 655.847 253.331 649.372C212.42 563.256 202.68 466.132 198.784 390.375C198.134 378.721 197.484 363.828 195.536 350.23C190.991 322.388 178.328 298.107 156.574 276.416C155.6 275.445 154.302 274.15 153.328 273.179C131.249 252.459 103.002 235.948 78.001 222.675C24.1033 194.185 -34.9896 172.817 -92.4588 152.421L-93.4327 152.098C-154.473 130.083 -213.242 107.097 -260.321 67.2759C-261.62 67.9234 -262.919 68.5707 -264.217 69.2182C-247.334 83.463 -228.177 96.7367 -206.423 108.715C-170.708 128.788 -131.746 143.68 -94.7315 156.63Z" fill="url(#paint9_linear_1660_131663)" fill-opacity="0.4"/>
<path d="M-133.049 185.764C-82.0738 202.275 -15.5134 225.909 44.5533 257.96C74.4243 274.147 102.672 290.011 124.751 312.673C144.232 332.745 149.751 355.084 151.7 382.926C152.349 394.581 152.673 406.559 152.998 418.538L152.999 423.071C154.297 465.806 161.765 507.569 175.077 551.275C186.441 587.858 202.351 625.737 225.403 671.385C229.624 680.126 233.196 686.277 236.442 692.104C245.534 706.997 253.976 720.594 265.34 731.926C266.638 733.221 267.937 734.515 269.236 735.81C279.626 744.875 290.665 750.055 302.678 755.559C308.847 758.472 315.341 761.062 321.185 764.3C330.276 769.48 337.744 774.983 344.237 781.458C356.575 793.76 365.667 809.948 373.459 831.963C375.083 836.819 376.707 842.323 378.979 848.474C379.953 846.856 380.927 845.884 381.901 844.265C380.277 839.409 378.979 834.877 377.356 830.668C371.512 813.833 365.342 801.207 357.225 790.523C354.303 786.315 350.731 782.106 347.16 778.544C340.341 771.746 332.549 765.919 323.458 760.739C317.289 757.177 310.795 754.587 304.626 751.674C292.937 746.494 281.898 741.314 272.158 732.897C270.859 731.602 269.56 730.306 268.586 729.335C257.547 718.328 249.105 705.378 240.014 690.486C236.442 684.982 233.195 678.507 228.65 670.089C194.558 602.426 159.492 520.195 156.895 423.718L156.895 419.186C156.57 407.208 156.245 395.228 155.596 383.573C153.647 355.084 148.128 331.451 127.673 310.407C127.348 310.083 126.699 309.435 126.374 309.112C103.971 286.773 75.7232 270.91 46.1769 255.046C-14.2145 222.671 -80.4498 199.362 -132.075 182.851C-197.661 161.484 -260.326 138.497 -308.379 93.8203C-309.678 94.4678 -310.652 95.4392 -311.95 96.0867C-293.443 113.245 -272.338 128.462 -246.688 141.735C-210.324 159.865 -170.713 173.462 -133.049 185.764Z" fill="url(#paint10_linear_1660_131663)" fill-opacity="0.4"/>
<path d="M-301.551 175.731C-264.862 196.128 -222.653 210.373 -186.288 222.028C-131.091 239.51 -66.8043 262.172 -8.03637 294.223C21.8346 310.41 50.4074 327.245 71.5119 350.231C89.6943 369.656 94.8891 392.318 96.5125 420.484C96.8372 425.988 97.1617 431.491 97.8111 436.671L97.8114 437.319C98.4608 444.442 98.7854 451.888 99.1101 458.687C105.279 542.537 147.488 607.286 192.294 675.92L198.464 685.309C203.659 693.727 207.879 699.877 211.776 705.057L212.425 705.705C222.165 719.95 232.555 734.195 244.244 747.144C254.309 758.476 265.349 765.598 277.362 773.045C281.583 775.958 286.453 778.872 290.999 782.109C298.142 787.289 305.285 793.117 311.454 799.268C328.662 816.427 342.948 838.441 353.988 864.989C354.962 867.902 356.585 870.816 357.559 873.729C358.533 872.758 359.508 871.14 360.482 870.169C359.508 867.902 358.534 865.636 357.56 863.37C346.52 836.823 331.585 814.161 314.052 796.678C307.558 790.203 300.415 784.376 292.947 778.872C288.402 775.635 283.531 772.721 278.985 769.483C267.621 762.037 256.582 754.915 246.517 744.231C235.153 731.605 224.763 717.36 215.347 703.439L214.698 702.791C211.126 697.288 206.905 691.136 201.386 683.043L195.217 673.654C150.735 605.344 108.851 540.918 102.682 458.363C102.032 451.24 101.707 443.794 101.058 436.671C100.733 431.168 100.409 425.664 100.084 420.161C99.11 403.649 97.1619 391.995 93.5903 381.311C89.3694 368.037 82.8756 357.03 73.7844 347.317C72.4857 346.022 70.8621 344.403 69.5634 343.108C48.4589 322.065 21.5103 306.202 -7.06198 290.662C-66.1546 258.287 -130.767 235.948 -186.288 218.142C-249.277 198.07 -314.214 174.761 -359.67 129.436C-359.994 129.112 -360.644 128.464 -360.969 128.141C-361.943 129.112 -363.241 129.76 -364.215 130.731C-345.708 147.242 -325.578 162.134 -301.551 175.731Z" fill="url(#paint11_linear_1660_131663)" fill-opacity="0.4"/>
<path d="M335.48 889.27C320.545 849.125 302.038 818.37 278.661 796.355C272.167 789.88 264.699 784.376 257.232 778.873C249.764 773.369 242.296 767.865 235.803 761.39C222.815 749.088 211.126 735.49 199.762 722.217C197.165 718.979 193.918 715.742 191.32 712.504C187.099 707.648 182.554 702.468 178.333 697.612L175.41 694.05C167.293 684.662 158.852 675.597 150.734 666.856C105.279 616.999 58.1992 565.523 46.1859 495.917C44.5624 485.234 42.2903 472.608 40.6669 460.63C38.3941 444.766 33.8479 430.521 27.3542 417.571C21.1852 405.592 13.3931 394.585 3.32783 383.901C-15.1792 364.8 -38.232 349.584 -67.4536 332.749C-124.598 299.727 -188.886 276.418 -243.757 257.964C-302.85 237.892 -363.566 214.906 -405.45 173.142C-406.1 172.495 -407.074 171.524 -407.723 170.876C-408.372 171.524 -409.022 172.171 -409.671 172.819C-409.996 173.142 -410.321 173.466 -410.645 173.79C-409.996 174.438 -409.347 175.085 -408.373 176.056C-394.411 189.977 -377.528 202.927 -357.722 214.258C-322.007 234.978 -282.395 249.223 -245.056 261.849C-190.185 280.302 -126.547 303.612 -69.7266 336.31C-41.8037 352.498 -19.725 366.743 -2.19204 384.225C19.8865 406.24 31.9004 430.521 36.7706 461.277C38.394 473.256 40.6665 485.882 42.6146 496.889C47.8096 528.616 61.1215 559.372 82.5507 591.099C101.707 619.265 125.085 645.165 148.137 670.094C156.254 678.835 164.696 688.547 172.813 697.288L175.41 700.525C179.631 705.382 184.177 710.562 188.398 715.418C190.995 718.655 194.242 721.893 196.84 725.13C208.204 738.404 220.542 752.001 233.204 764.627C240.023 771.426 247.491 776.93 254.959 782.434C262.102 787.614 269.245 793.441 275.739 799.269C298.791 820.96 317.298 851.068 331.584 890.565C332.558 893.479 333.533 896.393 334.507 899.306L334.831 900.278C335.805 899.306 337.104 898.011 338.078 897.04C337.429 894.45 336.779 891.86 335.48 889.27Z" fill="url(#paint12_linear_1660_131663)" fill-opacity="0.4"/>
<path d="M247.493 789.879C230.934 773.368 211.778 758.152 193.595 743.26C184.504 736.137 175.088 728.691 166.321 721.244C160.802 716.388 154.308 711.208 147.49 705.704C136.775 696.963 125.411 688.222 114.372 679.157C90.6699 660.704 66.3186 641.603 45.2141 620.559C16.6419 592.07 -1.54033 564.228 -11.9302 533.795L-12.9041 530.234C-16.151 521.17 -19.398 511.457 -21.9955 501.745C-29.7879 473.902 -43.7497 449.621 -65.5036 427.93L-66.1528 427.283C-86.9327 406.563 -112.582 390.052 -134.661 376.455C-189.533 343.109 -248.951 318.827 -305.121 297.784C-358.369 277.712 -412.916 255.049 -451.554 218.466C-452.528 219.437 -453.177 220.732 -454.151 221.704C-443.112 232.063 -430.124 242.423 -415.838 251.488C-382.396 272.532 -343.433 288.072 -306.744 301.993C-250.573 323.037 -191.156 347.317 -136.934 380.016C-113.557 394.261 -89.2058 410.124 -69.4 429.872C-47.9708 451.24 -33.6842 475.197 -26.2165 502.716C-23.619 512.428 -20.372 522.141 -17.1251 531.206L-15.8265 534.443C-5.11187 565.846 13.07 593.688 42.2916 622.825C63.7208 644.193 88.0723 663.294 111.774 681.747C122.814 690.165 133.853 699.23 144.568 707.971C151.386 713.475 157.231 718.655 163.4 723.511C172.166 730.957 181.582 738.403 190.673 745.525C209.18 760.094 227.687 775.311 244.246 791.822C249.116 796.678 253.337 801.533 257.558 806.39C287.104 840.383 303.014 884.737 313.404 919.701L313.728 920.672C314.702 919.701 316.001 918.406 316.975 917.435C306.585 882.47 290.026 838.117 260.48 803.476C256.584 799.591 252.363 794.735 247.493 789.879Z" fill="url(#paint13_linear_1660_131663)" fill-opacity="0.4"/>
<path d="M243.915 810.278C239.694 804.775 234.499 798.947 228.98 793.444C208.525 773.048 182.55 757.508 157.549 742.292C151.38 738.731 146.185 735.493 140.665 731.932C133.197 727.075 125.405 722.543 119.885 718.982C109.495 712.507 98.7807 706.356 88.0661 700.204C48.1298 676.571 6.24556 652.29 -26.2229 619.915C-42.1325 604.052 -54.4701 587.865 -64.2106 569.735C-69.4056 560.67 -74.6004 550.958 -79.1459 541.245C-91.484 515.346 -108.043 492.359 -129.148 471.963C-147.006 454.805 -168.11 438.294 -197.331 419.517C-248.631 386.495 -306.101 360.271 -360.324 336.637C-401.883 318.507 -448.962 298.111 -485.652 267.355C-486.301 268.65 -487.275 269.621 -487.925 270.916C-480.457 277.068 -472.664 282.895 -464.222 288.723C-431.429 310.414 -393.116 327.249 -362.271 340.522C-308.049 364.156 -251.229 390.379 -199.929 423.402C-169.409 442.826 -147.979 459.661 -130.446 477.143C-110.641 496.892 -95.3803 518.583 -83.367 543.511C-78.8214 553.224 -73.6263 562.936 -68.1067 572.325C-58.3661 590.455 -45.379 607.289 -29.1448 623.477C3.97308 656.499 45.5325 681.104 85.7934 704.413C96.1833 710.241 106.898 717.039 116.963 723.19C123.457 727.075 130.6 731.608 137.743 736.141C143.263 739.702 148.783 743.263 154.627 746.501C179.628 761.717 205.278 777.58 225.083 797.329C230.603 802.832 235.474 808.336 239.694 813.84C267.942 851.718 282.877 898.338 293.592 939.453C294.566 938.482 296.19 937.511 297.164 936.54C290.995 914.202 285.475 895.748 278.981 879.56C269.565 851.394 257.876 829.379 243.915 810.278Z" fill="url(#paint14_linear_1660_131663)" fill-opacity="0.4"/>
<path d="M213.398 801.86C192.294 780.817 161.774 767.22 134.825 755.241C128.656 752.327 121.838 749.414 115.669 746.5L109.499 743.586C104.304 740.996 98.7852 738.73 93.5902 736.14C34.8223 707.974 -32.063 676.247 -79.7917 628.656C-88.8829 619.591 -97.0003 610.202 -104.143 600.49L-107.39 595.957C-112.585 588.835 -118.105 581.389 -122.975 573.942C-136.612 553.223 -151.871 534.77 -169.08 517.611C-190.184 496.568 -215.834 476.171 -247.654 454.804C-297.33 421.458 -351.553 393.292 -402.529 367.068L-408.373 363.831C-440.517 347.32 -476.556 328.867 -507.077 305.557C-507.726 306.852 -508.375 308.147 -509.025 309.442C-507.401 310.413 -505.779 312.031 -504.155 313.003C-474.609 334.694 -440.192 352.176 -409.996 367.392L-404.152 370.63C-353.177 396.853 -298.954 425.019 -249.602 458.041C-218.108 479.085 -192.457 499.481 -171.677 520.201C-154.469 537.36 -139.534 555.489 -125.897 576.209C-121.027 583.655 -115.507 591.102 -110.312 598.224L-107.065 602.756C-99.922 612.469 -91.4804 622.181 -82.3892 631.246C-34.0112 679.484 33.1989 711.535 91.9669 739.701C97.1618 742.291 103.006 744.881 108.201 747.471L114.37 750.384C120.539 753.298 127.357 756.212 133.526 759.126C160.15 770.781 190.021 784.378 210.801 805.098C213.723 808.012 216.646 811.573 219.243 814.81C249.764 854.308 265.349 906.755 277.037 953.374C278.011 952.403 279.634 951.431 280.608 950.46C269.244 904.164 253.335 852.041 222.49 812.22C219.892 808.335 216.645 805.098 213.398 801.86Z" fill="url(#paint15_linear_1660_131663)" fill-opacity="0.4"/>
<path d="M198.457 819.336C178.976 799.912 151.377 789.875 125.077 779.839C114.687 775.954 104.298 772.069 94.8817 767.86C87.7386 764.623 80.9207 761.709 74.427 758.472C5.26912 724.479 -66.1615 684.981 -123.955 626.06C-133.047 616.995 -140.839 608.577 -147.658 600.483C-159.996 585.591 -173.308 571.67 -186.295 558.72C-214.867 530.231 -245.388 504.978 -280.129 481.992C-323.312 453.179 -370.391 425.66 -424.938 398.466C-459.03 381.307 -494.421 362.853 -523.643 339.544C-524.292 340.839 -524.941 342.134 -525.591 343.429C-523.318 345.047 -520.72 346.99 -518.447 349.256C-490.2 370.3 -457.731 387.135 -427.211 402.675C-372.989 430.193 -325.585 457.387 -283.051 486.201C-248.635 509.51 -218.115 534.115 -189.542 562.605C-176.555 575.555 -163.892 589.476 -151.229 604.045C-144.086 612.462 -136.294 620.879 -127.203 629.944C-69.0841 689.19 2.99599 728.687 72.4786 763.004C78.9722 766.242 85.791 769.156 92.934 772.393C102.35 776.602 112.74 780.487 123.13 784.372C149.104 794.084 176.053 804.12 194.885 822.898C197.483 825.488 199.755 828.401 202.028 831.315C231.574 869.84 246.51 920.992 257.224 967.288C258.523 966.641 259.497 965.669 261.12 964.698C250.406 918.402 235.146 867.574 205.599 829.048C203.651 825.163 201.054 821.926 198.457 819.336Z" fill="url(#paint16_linear_1660_131663)" fill-opacity="0.4"/>
<path d="M180.599 846.859C161.767 828.082 135.468 816.751 109.493 805.743C99.1031 801.211 89.687 797.002 80.2711 792.145C74.1021 789.232 68.2584 785.995 61.7647 782.757C-2.84758 748.117 -75.9019 708.943 -134.995 653.259C-139.215 649.05 -143.761 645.165 -147.657 641.28C-152.528 636.424 -156.748 632.215 -160.969 627.359C-170.385 617.323 -179.476 607.611 -188.567 598.546C-223.633 563.581 -257.4 536.386 -294.09 512.753C-334.675 487.177 -378.833 463.219 -425.588 442.499C-460.654 426.96 -500.59 406.564 -534.032 373.218C-534.681 372.571 -535.006 372.247 -535.655 371.599C-536.305 372.894 -536.63 374.513 -537.279 375.808C-530.136 382.93 -522.669 389.729 -514.227 396.204C-491.174 414.01 -463.9 430.197 -427.535 446.385C-380.781 467.104 -336.948 490.738 -296.363 516.314C-259.673 539.947 -226.231 566.818 -191.165 601.783C-182.399 610.524 -173.307 620.237 -163.891 630.273C-159.671 635.129 -155.45 639.337 -150.58 644.194C-146.683 648.079 -142.462 652.287 -137.917 656.172C-78.4993 712.181 -5.12098 751.677 59.816 786.642C65.985 790.203 72.1542 793.117 78.3232 796.031C87.7391 800.887 97.4799 804.772 107.87 809.304C133.195 820.312 159.495 831.643 177.677 849.773C209.821 881.824 225.731 932.652 236.77 980.567C238.069 979.919 239.042 978.948 240.341 978.3C229.951 930.386 213.392 879.558 180.599 846.859Z" fill="url(#paint17_linear_1660_131663)" fill-opacity="0.4"/>
<path d="M151.707 874.379C149.759 872.436 147.81 869.846 145.862 867.903C128.654 850.745 106.575 837.795 84.8212 825.169C79.6262 821.931 74.1069 819.018 68.912 815.78C65.9898 814.161 63.392 812.219 60.4698 810.6L60.1456 810.277C57.5481 808.982 54.9502 807.039 52.3527 805.744C36.7678 796.031 20.5336 786.966 5.2734 778.225C-44.7281 749.088 -97.0023 718.98 -140.835 679.807C-151.225 670.742 -159.666 662.324 -167.134 654.23C-174.602 646.137 -181.095 639.662 -187.589 633.187C-224.603 596.28 -257.722 570.38 -295.71 548.689C-334.022 526.674 -373.958 508.221 -413.57 493.976C-453.831 479.731 -487.273 459.335 -514.871 431.817C-524.937 421.781 -534.353 410.449 -543.769 397.823C-544.094 399.442 -544.743 401.384 -545.067 403.003C-536.301 414.982 -527.21 425.342 -517.469 435.054C-511.625 440.881 -505.78 446.061 -499.611 451.565C-475.585 471.637 -447.986 486.854 -414.869 498.509C-375.582 512.43 -335.97 530.559 -297.658 552.574C-259.994 573.941 -227.201 600.165 -190.512 636.748C-184.343 642.899 -177.524 649.698 -170.056 657.792C-162.264 666.209 -153.498 674.303 -143.432 683.691C-99.2752 723.188 -47.3251 753.621 3.32577 782.758C18.9106 791.823 34.8202 801.212 50.405 810.277C52.6779 811.895 55.2752 813.19 57.2233 814.485L57.5475 814.809C60.4696 816.427 63.7171 818.37 66.3146 820.313C71.5095 823.55 77.0289 826.464 82.2238 829.701C103.653 842.004 125.732 854.954 142.615 871.788C144.563 873.731 146.512 875.673 148.135 877.94C177.682 911.933 195.214 957.905 207.227 999.02C208.526 998.373 209.825 997.726 211.124 997.078C207.877 985.423 204.63 975.063 200.734 965.351C187.422 926.178 171.512 896.717 151.707 874.379Z" fill="url(#paint18_linear_1660_131663)" fill-opacity="0.4"/>
<path d="M98.4563 871.788C86.4429 859.809 72.4813 847.83 57.2212 836.499C52.0262 832.614 47.1562 829.053 42.6106 825.816C17.2852 808.334 -9.98866 792.794 -36.2882 777.577C-73.9516 756.21 -112.914 733.548 -146.681 705.058C-156.746 696.317 -165.512 688.224 -172.98 680.13C-178.824 674.303 -184.019 668.475 -188.89 663.619C-225.254 627.359 -256.424 604.049 -293.763 586.243C-327.206 569.732 -362.921 556.782 -399.285 547.717C-436.299 538.653 -466.82 521.17 -495.392 492.681C-510.977 477.141 -526.562 457.716 -544.095 431.816C-546.043 428.579 -548.316 425.665 -550.264 422.427C-550.589 424.046 -551.238 425.988 -551.238 427.931C-549.94 429.873 -548.641 431.816 -547.017 434.082C-529.16 460.306 -513.575 479.731 -497.99 495.27C-493.769 499.479 -489.223 504.012 -484.678 507.896C-459.677 529.588 -431.754 543.832 -399.611 551.926C-363.246 560.991 -328.18 573.941 -294.737 589.804C-258.048 607.61 -227.203 630.596 -191.163 666.532C-185.968 671.712 -180.773 676.892 -175.253 683.043C-167.785 691.137 -159.018 699.231 -148.953 707.972C-115.186 737.109 -75.8995 759.448 -37.9114 781.139C-11.6119 796.355 15.337 811.571 40.6624 829.053C45.208 832.291 50.0779 835.852 55.2728 839.737C70.533 851.068 84.1705 862.723 96.1838 874.702C104.95 883.443 112.742 892.507 119.236 900.925C144.237 933.623 159.497 975.386 170.861 1015.85C172.159 1015.21 173.458 1014.56 174.432 1014.24C162.744 973.444 147.484 931.681 122.483 898.335C115.665 889.594 107.547 880.853 98.4563 871.788Z" fill="url(#paint19_linear_1660_131663)" fill-opacity="0.4"/>
<path d="M92.6086 919.048C90.0111 914.516 87.4138 910.631 84.8164 906.098L84.4921 905.775C73.7776 887.969 64.037 871.134 49.4261 856.566C47.8027 854.947 46.5035 853.652 44.8801 852.033C40.3345 848.148 35.7888 844.263 31.5679 840.702C3.32029 818.363 -29.4727 801.852 -60.6425 785.665C-92.7863 769.154 -126.229 751.995 -154.801 728.685C-164.867 720.592 -173.308 712.822 -180.451 705.699C-185.322 700.843 -189.217 696.311 -193.438 692.102C-222.985 662.641 -251.232 639.655 -293.117 623.144C-321.039 612.137 -352.534 604.043 -389.873 597.892C-424.939 592.065 -454.81 575.877 -483.707 547.063C-501.889 528.934 -518.123 507.567 -536.955 481.019C-542.799 472.602 -549.293 463.537 -555.462 454.795C-555.787 457.062 -556.112 458.681 -556.436 460.947C-551.241 468.717 -545.397 476.487 -540.527 483.933C-523.643 507.89 -506.759 530.552 -486.954 550.301C-483.707 553.538 -480.784 556.453 -477.213 559.366C-450.913 583 -422.341 597.245 -390.522 602.425C-353.508 608.252 -322.338 616.669 -294.415 627.677C-253.18 643.54 -225.258 666.202 -196.036 695.339C-191.815 699.548 -187.594 703.757 -183.049 708.937C-175.905 716.707 -167.139 724.153 -157.073 732.247C-128.176 755.88 -94.4092 772.715 -61.9407 789.55C-30.771 805.738 1.69757 821.925 29.6204 843.94C33.8413 847.501 38.7109 851.061 42.9319 855.27C44.2306 856.565 45.8542 858.184 47.1529 859.479C61.439 873.724 71.1797 890.559 81.5696 908.041C84.1671 912.574 86.7648 917.106 89.6869 921.315C110.142 954.661 122.48 992.863 133.195 1031.39C134.493 1030.74 135.792 1030.74 137.09 1030.09C133.844 1018.44 130.597 1006.14 126.701 994.482C115.986 964.373 104.947 939.768 92.6086 919.048Z" fill="url(#paint20_linear_1660_131663)" fill-opacity="0.4"/>
<path d="M55.2764 913.549C49.7568 894.448 44.8864 876.642 28.9769 860.131C24.756 855.922 20.5349 851.713 16.314 848.152C-12.583 823.871 -48.6229 809.302 -83.0395 795.057C-113.56 782.755 -144.729 769.806 -171.029 750.704C-180.769 743.582 -188.562 737.107 -195.056 730.632L-195.705 729.985C-197.328 728.366 -198.952 726.747 -200.575 725.129C-213.887 711.855 -228.823 697.61 -245.058 685.955C-263.565 672.681 -282.071 663.293 -304.15 656.818C-332.397 648.077 -362.918 644.191 -392.14 640.307L-397.984 639.659C-433.375 634.803 -463.57 618.939 -493.441 589.155C-514.546 568.111 -532.728 542.859 -550.261 518.902L-550.911 518.254C-555.132 512.75 -558.703 507.247 -562.924 501.743C-563.248 504.009 -563.249 505.951 -563.573 508.218C-560.651 512.426 -557.404 516.959 -554.482 521.168L-553.833 521.816C-535.975 546.744 -517.793 571.996 -496.364 593.363C-493.766 595.953 -491.493 598.219 -488.896 600.809C-475.584 612.788 -462.596 622.501 -448.634 629.299C-432.725 637.393 -416.491 642.573 -398.958 645.163L-393.114 645.81C-363.892 649.695 -333.697 653.904 -305.774 662.321C-260.967 675.919 -233.693 700.524 -204.796 729.337C-203.173 730.956 -201.225 732.898 -199.602 734.517L-198.952 735.165C-192.458 741.64 -184.341 748.438 -174.276 755.885C-147.651 775.309 -115.833 788.259 -85.3124 800.561C-50.8958 814.806 -15.1807 829.051 13.0669 852.684C17.2878 856.246 21.5094 860.455 25.4056 864.34C40.6658 880.203 45.211 897.685 50.7307 916.139C52.6788 923.261 54.6271 930.384 57.2246 937.506C72.1601 978.298 82.8744 1012.29 91.6409 1044.99C92.9396 1044.34 94.2388 1044.34 95.5376 1043.7C86.7711 1011 75.7317 976.68 60.7962 935.888C59.1728 927.794 57.2246 920.672 55.2764 913.549Z" fill="url(#paint21_linear_1660_131663)" fill-opacity="0.4"/>
<path d="M29.6208 944.31C28.6467 936.864 28.3214 929.417 27.9968 921.971C26.698 898.014 25.7245 877.619 9.16556 861.108C8.1915 860.136 7.21747 859.165 5.91873 857.87C0.399084 853.014 -8.04331 849.128 -15.1864 845.243L-16.4845 844.596C-40.5112 832.294 -68.4347 825.171 -95.0589 818.049C-134.021 807.689 -174.606 797.006 -205.127 771.753L-205.452 771.429C-211.945 766.249 -219.088 760.422 -224.932 753.947C-228.829 749.415 -233.05 745.206 -236.946 741.321C-249.284 729.018 -260.973 719.306 -272.986 711.213C-290.519 699.558 -308.702 691.14 -331.105 684.341C-347.988 679.161 -366.17 675.277 -383.703 671.392C-399.613 667.831 -415.847 663.946 -431.756 659.737C-470.719 648.73 -503.837 628.657 -535.656 596.93C-545.397 587.217 -554.812 576.534 -563.904 565.526C-563.579 567.793 -563.579 570.382 -563.254 572.649C-555.462 582.361 -547.02 591.426 -538.578 599.843C-506.759 631.57 -472.018 652.614 -433.056 663.622C-417.471 668.154 -400.912 671.715 -385.002 675.276C-367.469 679.161 -349.936 683.046 -333.053 688.226C-296.363 698.91 -269.414 715.422 -240.517 744.235C-236.621 748.12 -232.725 752.004 -229.153 756.213C-222.984 763.012 -216.166 768.516 -209.348 774.019L-209.023 774.343C-177.853 800.243 -136.618 810.927 -97.3311 821.611C-70.7069 828.733 -43.1091 836.179 -19.4071 848.157L-18.1082 848.805C-11.2899 852.366 -3.17275 856.575 2.34686 860.784C3.32093 861.755 4.29465 862.726 5.26872 863.697C20.5289 878.913 21.8282 898.986 22.8023 921.972C23.127 929.418 23.4516 936.864 24.4257 944.31C27.3479 968.591 34.166 992.872 40.9843 1016.51C44.2312 1028.16 47.8027 1040.14 50.7249 1052.12C52.0236 1052.12 53.3224 1051.47 54.6211 1051.47C51.699 1039.49 48.4518 1027.19 44.8802 1015.21C39.3606 992.224 32.543 967.944 29.6208 944.31Z" fill="url(#paint22_linear_1660_131663)" fill-opacity="0.4"/>
<path d="M6.89355 1022.01C1.04921 996.753 -4.79551 970.853 -4.47081 945.277L-4.47102 940.097C-4.14635 921.644 -3.82168 908.37 -14.861 890.24C-19.0819 883.441 -23.9521 877.29 -29.7964 871.463C-38.5629 862.722 -48.9528 855.599 -62.2649 848.801C-67.7845 845.887 -74.9277 843.297 -82.0708 840.707C-100.902 834.879 -122.656 832.613 -145.709 830.347C-185.645 826.139 -226.88 821.93 -255.127 797.649C-258.699 794.735 -261.945 791.498 -265.192 788.26C-267.465 785.994 -269.414 784.051 -271.037 781.785C-275.907 775.634 -281.102 769.807 -286.622 764.303C-311.947 739.051 -341.819 722.863 -378.833 706.028C-394.418 698.906 -410.976 692.107 -426.886 685.309C-448.315 676.244 -470.394 667.179 -491.498 657.143C-515.849 645.164 -538.253 631.89 -559.033 615.703C-558.708 617.969 -558.383 619.588 -558.058 621.855C-537.928 636.747 -516.823 649.373 -493.121 660.704C-472.017 670.74 -449.613 680.129 -428.509 688.87C-412.924 695.345 -396.365 702.144 -380.78 709.266C-344.091 725.777 -314.869 741.964 -289.869 766.893C-284.674 772.073 -279.479 777.9 -274.609 784.052C-272.985 786.318 -271.037 788.26 -268.44 790.85C-265.193 794.088 -261.296 797.325 -258.049 800.563C-229.152 825.491 -186.944 830.024 -146.358 834.232C-123.306 836.498 -102.201 838.765 -83.369 844.592C-76.5506 846.858 -70.0574 849.448 -64.2131 852.038C-42.7839 863.045 -28.8219 875.672 -18.7566 892.183C-8.36673 909.665 -8.69166 922.291 -8.69169 939.774C-9.01635 941.392 -8.69148 943.011 -8.69147 944.954C-9.01618 971.177 -3.17199 997.077 2.34768 1022.65C4.29579 1031.07 6.24362 1039.49 7.54237 1047.9C8.19172 1051.14 9.16623 1054.7 9.81558 1057.94C11.1143 1057.94 12.7373 1057.62 14.0361 1057.62C13.062 1054.06 12.7373 1050.49 11.7632 1046.93C10.4645 1039.16 8.84167 1030.42 6.89355 1022.01Z" fill="url(#paint23_linear_1660_131663)" fill-opacity="0.4"/>
<path d="M-57.0669 929.093C-58.3656 925.855 -59.015 922.618 -60.3138 919.38C-67.1321 898.984 -73.3006 881.179 -85.9633 868.553C-94.0805 860.459 -104.795 854.308 -118.757 850.746C-124.276 849.128 -130.77 847.833 -137.913 847.185C-154.147 845.243 -172.979 846.537 -192.785 847.508C-233.695 849.451 -280.125 851.717 -309.996 828.407C-313.568 825.494 -317.464 822.257 -321.36 818.372C-322.983 816.753 -324.282 815.458 -325.256 813.839C-330.776 807.041 -336.62 800.566 -343.114 794.091C-371.037 766.248 -403.18 745.205 -436.948 723.19L-440.844 720.6C-459.676 708.298 -478.832 696.319 -497.664 684.664L-497.989 684.34C-515.847 673.009 -533.704 661.679 -551.886 650.024C-551.237 651.966 -551.237 653.908 -550.588 655.851C-533.704 666.858 -516.496 677.541 -500.262 687.901L-499.937 688.225C-481.105 699.88 -462.274 712.183 -443.766 724.161L-439.87 726.751C-406.103 748.766 -374.284 769.486 -346.686 797.004C-340.517 803.155 -334.672 809.631 -329.152 816.429C-327.853 817.724 -326.555 819.667 -324.932 821.285C-321.035 825.17 -316.815 828.731 -313.243 831.645C-299.607 842.652 -281.099 848.804 -257.397 851.718C-236.617 853.66 -214.539 853.012 -193.11 851.717C-173.304 850.746 -154.797 849.775 -138.887 851.394C-131.744 852.042 -125.575 853.012 -120.38 854.955C-107.393 858.84 -97.3275 864.344 -89.8598 871.79C-77.8464 883.768 -72.3271 900.279 -65.184 920.999C-64.2099 923.913 -62.9112 927.15 -61.9372 930.711C-48.9498 968.266 -41.8067 1005.17 -34.9884 1043.05C-34.0143 1049.2 -32.7154 1055.03 -31.4167 1060.86C-30.118 1060.86 -28.8189 1060.86 -27.1955 1060.53C-28.8188 1054.38 -29.793 1048.23 -31.0917 1041.76C-36.936 1004.2 -44.0795 966.647 -57.0669 929.093Z" fill="url(#paint24_linear_1660_131663)" fill-opacity="0.4"/>
</g>
<defs>
<linearGradient id="paint0_linear_1660_131663" x1="334.692" y1="195.277" x2="303.084" y2="264.093" gradientUnits="userSpaceOnUse">
<stop stop-color="#F2D57E"/>
<stop offset="1" stop-color="#A7F2D7"/>
</linearGradient>
<linearGradient id="paint1_linear_1660_131663" x1="280.834" y1="149.086" x2="234.271" y2="234.981" gradientUnits="userSpaceOnUse">
<stop stop-color="#F2D57E"/>
<stop offset="1" stop-color="#A7F2D7"/>
</linearGradient>
<linearGradient id="paint2_linear_1660_131663" x1="235.683" y1="122.902" x2="177.41" y2="224.315" gradientUnits="userSpaceOnUse">
<stop stop-color="#F2D57E"/>
<stop offset="1" stop-color="#A7F2D7"/>
</linearGradient>
<linearGradient id="paint3_linear_1660_131663" x1="193.761" y1="122.37" x2="103.291" y2="353.655" gradientUnits="userSpaceOnUse">
<stop stop-color="#F2D57E"/>
<stop offset="1" stop-color="#A7F2D7"/>
</linearGradient>
<linearGradient id="paint4_linear_1660_131663" x1="156.94" y1="130.233" x2="65.5501" y2="499.319" gradientUnits="userSpaceOnUse">
<stop stop-color="#F2D57E"/>
<stop offset="1" stop-color="#A7F2D7"/>
</linearGradient>
<linearGradient id="paint5_linear_1660_131663" x1="111.179" y1="123.562" x2="17.7851" y2="559.81" gradientUnits="userSpaceOnUse">
<stop stop-color="#F2D57E"/>
<stop offset="1" stop-color="#A7F2D7"/>
</linearGradient>
<linearGradient id="paint6_linear_1660_131663" x1="-50.1569" y1="14.3242" x2="-202.532" y2="468.021" gradientUnits="userSpaceOnUse">
<stop stop-color="#F2D57E"/>
<stop offset="1" stop-color="#A7F2D7"/>
</linearGradient>
<linearGradient id="paint7_linear_1660_131663" x1="-83.8073" y1="23.6006" x2="-244.107" y2="463.295" gradientUnits="userSpaceOnUse">
<stop stop-color="#F2D57E"/>
<stop offset="1" stop-color="#A7F2D7"/>
</linearGradient>
<linearGradient id="paint8_linear_1660_131663" x1="-116.481" y1="38.6984" x2="-281.772" y2="458.704" gradientUnits="userSpaceOnUse">
<stop stop-color="#F2D57E"/>
<stop offset="1" stop-color="#A7F2D7"/>
</linearGradient>
<linearGradient id="paint9_linear_1660_131663" x1="-147.596" y1="52.1165" x2="-316.11" y2="445.105" gradientUnits="userSpaceOnUse">
<stop stop-color="#F2D57E"/>
<stop offset="1" stop-color="#A7F2D7"/>
</linearGradient>
<linearGradient id="paint10_linear_1660_131663" x1="-185.587" y1="71.2716" x2="-355.33" y2="434.799" gradientUnits="userSpaceOnUse">
<stop stop-color="#F2D57E"/>
<stop offset="1" stop-color="#A7F2D7"/>
</linearGradient>
<linearGradient id="paint11_linear_1660_131663" x1="-233.425" y1="103.002" x2="-396.457" y2="408.121" gradientUnits="userSpaceOnUse">
<stop stop-color="#F2D57E"/>
<stop offset="1" stop-color="#A7F2D7"/>
</linearGradient>
<linearGradient id="paint12_linear_1660_131663" x1="-283.147" y1="149.843" x2="-432.929" y2="400.41" gradientUnits="userSpaceOnUse">
<stop stop-color="#F2D57E"/>
<stop offset="1" stop-color="#A7F2D7"/>
</linearGradient>
<linearGradient id="paint13_linear_1660_131663" x1="-335.137" y1="205.25" x2="-475.335" y2="427.327" gradientUnits="userSpaceOnUse">
<stop stop-color="#F2D57E"/>
<stop offset="1" stop-color="#A7F2D7"/>
</linearGradient>
<linearGradient id="paint14_linear_1660_131663" x1="-365.668" y1="249.492" x2="-510.224" y2="486.448" gradientUnits="userSpaceOnUse">
<stop stop-color="#F2D57E"/>
<stop offset="1" stop-color="#A7F2D7"/>
</linearGradient>
<linearGradient id="paint15_linear_1660_131663" x1="-374.467" y1="273.741" x2="-531.014" y2="558.564" gradientUnits="userSpaceOnUse">
<stop stop-color="#F2D57E"/>
<stop offset="1" stop-color="#A7F2D7"/>
</linearGradient>
<linearGradient id="paint16_linear_1660_131663" x1="-385.055" y1="300.176" x2="-544.858" y2="609.449" gradientUnits="userSpaceOnUse">
<stop stop-color="#F2D57E"/>
<stop offset="1" stop-color="#A7F2D7"/>
</linearGradient>
<linearGradient id="paint17_linear_1660_131663" x1="-398.509" y1="331.76" x2="-555.993" y2="639.647" gradientUnits="userSpaceOnUse">
<stop stop-color="#F2D57E"/>
<stop offset="1" stop-color="#A7F2D7"/>
</linearGradient>
<linearGradient id="paint18_linear_1660_131663" x1="-416.273" y1="365.605" x2="-567.886" y2="652.339" gradientUnits="userSpaceOnUse">
<stop stop-color="#F2D57E"/>
<stop offset="1" stop-color="#A7F2D7"/>
</linearGradient>
<linearGradient id="paint19_linear_1660_131663" x1="-432.832" y1="397.609" x2="-579.185" y2="671.035" gradientUnits="userSpaceOnUse">
<stop stop-color="#F2D57E"/>
<stop offset="1" stop-color="#A7F2D7"/>
</linearGradient>
<linearGradient id="paint20_linear_1660_131663" x1="-439.115" y1="427.649" x2="-584.387" y2="715.452" gradientUnits="userSpaceOnUse">
<stop stop-color="#F2D57E"/>
<stop offset="1" stop-color="#A7F2D7"/>
</linearGradient>
<linearGradient id="paint21_linear_1660_131663" x1="-437.325" y1="460.645" x2="-580.012" y2="786.264" gradientUnits="userSpaceOnUse">
<stop stop-color="#F2D57E"/>
<stop offset="1" stop-color="#A7F2D7"/>
</linearGradient>
<linearGradient id="paint22_linear_1660_131663" x1="-423.156" y1="502.595" x2="-552.916" y2="862.688" gradientUnits="userSpaceOnUse">
<stop stop-color="#F2D57E"/>
<stop offset="1" stop-color="#A7F2D7"/>
</linearGradient>
<linearGradient id="paint23_linear_1660_131663" x1="-422.386" y1="550.589" x2="-539.529" y2="899.791" gradientUnits="userSpaceOnUse">
<stop stop-color="#F2D57E"/>
<stop offset="1" stop-color="#A7F2D7"/>
</linearGradient>
<linearGradient id="paint24_linear_1660_131663" x1="-427.64" y1="591.683" x2="-536.309" y2="907.798" gradientUnits="userSpaceOnUse">
<stop stop-color="#F2D57E"/>
<stop offset="1" stop-color="#A7F2D7"/>
</linearGradient>
<clipPath id="clip0_1660_131663">
<rect width="573" height="1114" fill="white"/>
</clipPath>
</defs>
</svg>
