<svg width="131" height="130" viewBox="0 0 131 130" fill="none" xmlns="http://www.w3.org/2000/svg">
<mask id="mask0_2154_5027" style="mask-type:alpha" maskUnits="userSpaceOnUse" x="0" y="0" width="131" height="130">
<rect x="0.5" width="130" height="130" fill="#D9D9D9"/>
</mask>
<g mask="url(#mask0_2154_5027)">
<path d="M124.727 110.65C103.361 135.099 63.0945 134.284 34.3325 109.02C5.57052 83.755 -10.8649 55.2304 9.67937 31.5958C31.0454 7.14613 45.0155 38.1157 74.5992 62.5654C103.361 87.83 146.093 87.015 124.727 110.65Z" fill="url(#paint0_linear_2154_5027)"/>
<path d="M104.25 34.5328C113.787 34.5328 121.518 26.8025 121.518 17.2665C121.518 7.73049 113.787 0 104.25 0C94.7127 0 86.9814 7.73049 86.9814 17.2665C86.9814 26.8025 94.7127 34.5328 104.25 34.5328Z" fill="url(#paint1_linear_2154_5027)"/>
<path d="M48.5654 45.1494C50.7241 55.4976 58.0236 63.1093 66.698 63.1093H66.7777C75.4588 63.1093 82.7517 55.4976 84.9103 45.1494" stroke="#231D06" stroke-width="2" stroke-linecap="round" stroke-linejoin="round"/>
<path d="M48.5668 45.1491C46.3617 45.0561 44.6016 43.2362 44.6016 41.0112C44.6016 38.992 46.0562 37.305 47.9757 36.9463" stroke="#231D06" stroke-width="2" stroke-linecap="round" stroke-linejoin="round"/>
<path d="M78.3828 71.6309C83.1185 72.7135 86.9111 74.467 89.9531 76.619C97.8106 82.1783 100.6 90.4276 101.523 96.7442" stroke="#231D06" stroke-width="2" stroke-linecap="round" stroke-linejoin="round"/>
<path d="M31.9551 96.7442C32.8119 90.8461 35.3026 83.2742 42.0243 77.768C42.5025 77.3762 43.0007 76.9909 43.5254 76.619C46.5608 74.467 50.3533 72.7135 55.0957 71.6309" stroke="#231D06" stroke-width="2" stroke-linecap="round" stroke-linejoin="round"/>
<path d="M84.9135 45.1499C87.1186 45.0569 88.8787 43.237 88.8787 41.0119C88.8787 38.9927 87.4241 37.3057 85.5046 36.947C66.834 31.0423 74.3461 16.5562 74.3461 16.5562C74.3461 16.5562 75.349 13.1621 80.2973 13.1621C86.5341 13.1621 94.0661 25.1708 94.0661 38.5278C94.0661 49.3077 90.0809 54.7276 90.0809 59.4567C90.0809 64.1858 94.4978 67.8056 99.0144 68.6624C97.7258 76.6195 89.9481 76.6195 89.9481 76.6195" stroke="#231D06" stroke-width="2" stroke-linecap="round" stroke-linejoin="round"/>
<path d="M75.8805 14.4958C75.8805 14.4958 76.0664 9.06934 66.7677 9.06934C43.9459 9.06934 39.416 25.1628 39.416 38.5198C39.416 49.2998 43.4012 54.7196 43.4012 59.4487C43.4012 64.1778 38.9843 67.7977 34.4678 68.6545C34.4678 74.0345 42.0263 77.7606 42.0263 77.7606" stroke="#231D06" stroke-width="2" stroke-linecap="round" stroke-linejoin="round"/>
<path d="M48.5668 45.1474C46.3617 45.0544 44.6016 43.2345 44.6016 41.0095C44.6016 38.9903 46.0562 37.3032 47.9757 36.9446C66.7393 36.9446 74.351 16.5537 74.351 16.5537" stroke="#231D06" stroke-width="2" stroke-linecap="round" stroke-linejoin="round"/>
<path d="M74.3545 61.0498C74.3545 61.0498 75.1715 66.5693 78.3862 71.5973" stroke="#231D06" stroke-width="2" stroke-linecap="round" stroke-linejoin="round"/>
<path d="M59.1352 61.0498C59.1352 61.0498 58.3116 66.5693 55.1035 71.5973" stroke="#231D06" stroke-width="2" stroke-linecap="round" stroke-linejoin="round"/>
<path d="M55.1035 71.5986C55.1035 81.1431 62.6488 83.9394 66.7469 83.9394C70.845 83.9394 78.3836 81.1431 78.3836 71.5986" stroke="#231D06" stroke-width="2" stroke-linecap="round" stroke-linejoin="round"/>
</g>
<defs>
<linearGradient id="paint0_linear_2154_5027" x1="30.8856" y1="19.8491" x2="76.3613" y2="135.962" gradientUnits="userSpaceOnUse">
<stop stop-color="#F2D57E"/>
<stop offset="1" stop-color="#A7F2D7"/>
</linearGradient>
<linearGradient id="paint1_linear_2154_5027" x1="89.406" y1="8.79509" x2="120.024" y2="25.661" gradientUnits="userSpaceOnUse">
<stop stop-color="#F2D57E"/>
<stop offset="1" stop-color="#A7F2D7"/>
</linearGradient>
</defs>
</svg>
