<svg width="623" height="1328" viewBox="0 0 623 1328" fill="none" xmlns="http://www.w3.org/2000/svg">
<path d="M695.809 97.2465L698.075 97.57C743.404 100.808 790.677 104.046 833.416 117.645C865.794 127.358 891.697 142.9 912.743 163.946C933.789 184.992 950.949 212.513 965.519 249.1C971.995 265.289 978.147 281.802 983.004 298.315C993.365 330.694 1001.46 364.043 1009.55 396.746C1012.47 408.726 1015.71 422.324 1019.27 435.6L1019.92 438.838C1027.69 469.273 1036.75 503.594 1057.8 528.525C1060.71 532.087 1063.95 535.325 1067.84 537.915C1079.82 546.657 1092.44 547.628 1104.75 548.923C1115.11 549.571 1125.79 550.542 1134.86 556.371C1138.42 558.637 1141.66 561.227 1144.9 564.465C1154.61 574.179 1162.7 588.749 1168.86 608.5C1175.98 631.165 1179.86 656.42 1183.1 677.142C1184.07 683.294 1185.04 690.093 1186.02 695.597C1189.25 715.024 1192.81 734.775 1195.73 753.878C1198.64 772.981 1201.88 792.408 1205.44 812.159C1206.41 809.892 1207.39 807.626 1208.36 805.36C1205.12 787.876 1202.53 770.391 1199.61 753.23C1196.7 734.127 1193.46 714.053 1189.9 694.949C1188.93 689.445 1187.96 682.646 1186.99 676.494C1183.75 655.772 1179.86 630.517 1172.74 607.204C1166.26 586.482 1157.85 571.589 1147.81 561.551C1144.57 558.313 1141.01 555.399 1136.8 553.133C1126.76 546.981 1115.43 546.01 1104.75 545.039C1092.77 544.067 1080.79 543.096 1069.78 534.677C1066.54 532.087 1063.63 529.173 1060.39 525.935C1039.99 501.651 1031.57 469.273 1023.48 437.866L1022.83 434.628C1019.59 421.676 1016.03 407.754 1013.12 395.774C1005.02 363.072 996.927 329.723 986.566 297.345C981.385 280.508 975.233 263.994 968.757 247.805C953.863 211.542 937.675 184.992 917.276 163.946C894.935 140.957 867.737 124.768 833.74 114.083C790.353 100.484 743.081 97.2463 697.104 94.0085C691.599 93.6847 686.095 93.3611 680.915 92.7135C659.869 91.0946 640.117 88.1801 622.309 83.9709C619.072 84.6185 616.481 85.2661 613.567 86.2375C633.966 91.7418 656.307 95.3033 680.59 96.9222C686.418 96.9222 691.276 97.2465 695.809 97.2465Z" fill="url(#paint0_linear_2154_4953)" fill-opacity="0.4"/>
<path d="M694.842 139.016C700.994 139.987 707.47 141.283 713.621 142.902L715.24 143.225C760.569 152.291 807.519 161.033 849.934 178.194C881.989 190.821 907.243 207.01 927.966 227.732C950.307 250.073 967.467 278.242 980.418 313.858C985.599 328.105 990.456 344.618 994.989 361.455C1002.44 391.567 1008.26 422.65 1013.77 452.762C1017.01 469.598 1019.92 486.759 1023.48 503.919L1023.48 504.567C1030.6 538.24 1037.4 572.885 1056.18 601.378C1058.77 605.263 1061.69 608.825 1064.93 612.063L1065.25 612.386C1077.88 625.014 1090.83 625.014 1103.78 625.014C1111.87 625.338 1120.29 625.338 1129.03 628.252C1134.22 630.194 1139.4 633.432 1143.93 637.965C1164 658.04 1170.8 697.865 1175.98 727.005C1176.63 731.538 1177.6 736.395 1178.57 740.604C1182.13 759.06 1185.37 777.839 1188.29 795.647C1190.55 808.923 1193.14 822.522 1195.73 836.121C1197.03 834.178 1197.68 832.235 1198.97 830.292C1196.71 818.312 1194.76 806.656 1192.82 795C1189.58 776.868 1186.34 758.089 1182.78 739.633C1182.13 735.748 1181.16 730.891 1180.19 726.034C1175.01 696.246 1168.21 655.773 1147.17 634.727C1142.31 629.871 1136.81 626.309 1131.3 624.042C1121.91 620.481 1113.17 620.157 1104.75 620.157C1092.45 620.157 1080.47 619.833 1069.13 608.501L1068.81 608.177C1065.9 605.263 1063.31 602.025 1060.72 598.14C1042.58 570.295 1035.46 535.974 1028.66 502.624L1028.34 502.3C1025.1 485.463 1021.54 468.303 1018.62 451.79L1018.3 451.467C1012.8 421.355 1006.97 390.271 999.522 360.16C995.312 342.999 990.132 326.81 985.275 312.24C972.647 277.595 956.459 249.75 934.765 227.409C913.072 205.068 886.521 187.583 852.524 174.308C809.784 157.471 762.836 148.082 717.183 139.34C710.707 138.045 703.584 136.749 696.785 135.131C653.074 126.388 615.191 113.113 582.165 94.3339C580.223 94.9814 578.603 95.3049 576.661 95.9525C580.87 98.219 585.079 100.485 589.288 102.752C618.753 119.265 654.045 131.245 694.842 139.016Z" fill="url(#paint1_linear_2154_4953)" fill-opacity="0.4"/>
<path d="M698.399 177.541C704.551 179.16 710.703 181.426 716.855 183.045C764.775 197.292 814.637 212.185 859.643 233.879C892.021 249.42 916.953 266.581 936.38 286.008C959.045 308.673 974.586 335.871 983.328 367.925C986.89 381.2 990.127 395.446 993.041 411.312C996.927 433.977 999.841 456.965 1002.43 481.573C1009.55 543.739 1017 608.172 1046.14 662.567C1049.38 669.043 1052.62 673.576 1055.21 676.814C1057.15 679.404 1059.42 681.671 1061.36 683.614C1069.78 692.032 1078.2 697.213 1089.21 699.803C1095.03 701.098 1100.86 701.097 1106.37 700.774C1112.52 700.45 1119.32 700.126 1125.79 702.716C1130.97 704.659 1135.83 708.221 1140.04 712.43C1145.87 718.258 1150.72 725.705 1154.61 735.419C1161.08 750.313 1164.65 767.473 1167.56 781.396C1168.21 784.634 1168.86 787.224 1169.5 790.462C1173.39 806.651 1176.3 823.811 1179.22 842.267L1179.54 843.238C1180.51 848.095 1181.16 853.275 1182.13 858.132C1183.1 856.513 1184.4 854.571 1185.04 852.628C1184.72 849.066 1183.75 845.505 1183.43 841.944L1183.43 841.296C1180.19 823.164 1176.95 805.679 1173.39 789.166C1172.74 786.576 1172.09 783.338 1171.45 780.101C1168.53 766.178 1164.65 748.693 1158.17 733.152C1153.64 722.791 1148.46 715.02 1142.31 708.868C1137.77 704.335 1132.27 700.774 1126.76 698.507C1119.64 695.917 1112.52 695.917 1105.72 696.241C1100.21 696.565 1095.03 696.565 1089.53 695.593C1079.82 693.003 1072.04 688.47 1063.95 680.375C1062.01 678.433 1060.06 676.49 1058.12 673.9C1055.53 670.662 1052.62 666.453 1049.38 660.625C1020.24 606.877 1013.12 542.768 1005.67 480.925C1002.75 456.641 1000.17 433.33 996.28 410.665C993.366 394.799 990.128 379.905 986.566 366.63C977.5 334.252 962.282 307.378 939.618 284.065C919.867 263.667 893.964 246.182 860.29 229.993C815.285 208.3 765.422 193.406 716.855 179.159L715.559 178.512C709.731 176.569 704.227 174.95 698.075 173.331C638.823 155.523 591.551 132.859 552.05 103.718C550.431 104.042 548.811 105.013 547.516 105.661C559.172 114.727 572.123 123.145 585.399 130.592C618.101 149.047 654.689 164.266 698.399 177.541Z" fill="url(#paint2_linear_2154_4953)" fill-opacity="0.4"/>
<path d="M682.532 207.654L683.503 207.977C740.489 228.7 799.418 249.422 852.842 278.238C880.039 292.485 908.209 308.998 930.226 331.015C951.596 352.385 963.899 375.697 968.108 402.571C970.375 415.846 971.022 430.74 971.67 442.396C974.26 494.201 978.794 536.941 986.241 576.119C995.307 624.039 1008.26 665.483 1026.07 702.718C1029.3 709.841 1033.19 716.316 1037.07 721.497C1042.58 729.591 1047.76 736.067 1053.91 742.219C1059.74 748.047 1065.57 752.581 1072.04 755.818C1079.81 759.704 1087.58 760.999 1095.03 761.97C1100.21 762.618 1105.39 763.265 1110.25 764.884C1119.64 767.798 1127.73 772.655 1134.21 779.131C1148.78 793.701 1155.58 815.394 1161.73 838.383C1164.97 850.686 1167.88 863.314 1171.12 875.618C1172.09 873.999 1173.06 872.38 1174.03 870.761C1171.44 859.753 1168.53 848.42 1165.62 837.088C1161.08 820.899 1156.55 804.709 1148.46 791.434C1145.22 785.606 1141.33 780.426 1137.12 776.217C1130 769.093 1121.58 763.912 1111.22 760.675C1105.72 759.056 1100.21 758.084 1095.03 757.437C1087.58 756.465 1080.78 755.494 1073.66 751.609C1067.83 748.371 1062.01 744.486 1056.5 738.982C1050.67 733.154 1045.49 726.678 1040.31 718.907C1036.43 713.726 1032.87 706.927 1029.63 700.451C988.831 614.325 979.117 517.19 975.232 441.425C974.584 429.769 973.936 414.874 971.994 401.276C967.461 373.43 954.833 349.147 933.14 327.453C932.169 326.482 930.873 325.187 929.902 324.215C907.885 303.493 879.716 286.981 854.785 273.706C801.037 245.213 742.108 223.843 684.798 203.444L683.827 203.121C622.956 181.104 564.351 158.115 517.403 118.289C516.107 118.937 514.812 119.584 513.517 120.232C530.354 134.478 549.457 147.754 571.15 159.734C606.766 179.808 645.621 194.702 682.532 207.654Z" fill="url(#paint3_linear_2154_4953)" fill-opacity="0.4"/>
<path d="M644.319 236.792C695.153 253.305 761.529 276.941 821.429 308.995C851.217 325.184 879.386 341.05 901.403 363.715C920.83 383.789 926.335 406.13 928.277 433.976C928.925 445.632 929.248 457.612 929.572 469.592L929.573 474.125C930.868 516.865 938.315 558.632 951.59 602.343C962.922 638.931 978.788 676.813 1001.78 722.467C1005.99 731.209 1009.55 737.36 1012.78 743.189C1021.85 758.083 1030.27 771.682 1041.6 783.014C1042.9 784.309 1044.19 785.604 1045.49 786.899C1055.85 795.965 1066.86 801.146 1078.84 806.65C1084.99 809.564 1091.46 812.154 1097.29 815.392C1106.36 820.573 1113.8 826.077 1120.28 832.552C1132.58 844.856 1141.65 861.045 1149.42 883.063C1151.04 887.919 1152.66 893.424 1154.93 899.576C1155.9 897.957 1156.87 896.985 1157.84 895.366C1156.22 890.509 1154.93 885.977 1153.31 881.768C1147.48 864.931 1141.33 852.304 1133.23 841.619C1130.32 837.41 1126.76 833.2 1123.19 829.638C1116.4 822.839 1108.62 817.011 1099.56 811.831C1093.41 808.269 1086.93 805.679 1080.78 802.764C1069.12 797.584 1058.11 792.404 1048.4 783.985C1047.11 782.69 1045.81 781.395 1044.84 780.423C1033.83 769.415 1025.41 756.464 1016.35 741.57C1012.78 736.066 1009.55 729.589 1005.01 721.171C971.016 653.5 936.048 571.26 933.458 474.773L933.458 470.24C933.134 458.26 932.81 446.279 932.163 434.623C930.22 406.13 924.716 382.494 904.318 361.449C903.994 361.125 903.346 360.477 903.022 360.153C880.681 337.812 852.512 321.947 823.048 306.081C762.824 273.703 696.773 250.391 645.291 233.878C579.887 212.509 517.397 189.52 469.477 144.837C468.182 145.485 467.211 146.457 465.915 147.104C484.371 164.265 505.417 179.483 530.996 192.758C567.26 210.89 606.761 224.488 644.319 236.792Z" fill="url(#paint4_linear_2154_4953)" fill-opacity="0.4"/>
<path d="M476.286 226.757C512.874 247.155 554.966 261.402 591.23 273.058C646.273 290.542 710.381 313.207 768.986 345.261C798.774 361.45 827.267 378.288 848.313 401.276C866.445 420.703 871.626 443.368 873.244 471.537C873.568 477.041 873.892 482.545 874.539 487.726L874.54 488.374C875.187 495.497 875.511 502.944 875.835 509.743C881.987 593.603 924.078 658.359 968.76 727.001L974.913 736.392C980.093 744.81 984.302 750.961 988.187 756.142L988.835 756.789C998.548 771.036 1008.91 785.282 1020.57 798.234C1030.6 809.566 1041.61 816.69 1053.59 824.137C1057.8 827.051 1062.66 829.965 1067.19 833.203C1074.31 838.383 1081.44 844.211 1087.59 850.363C1104.75 867.524 1119 889.541 1130 916.091C1130.98 919.005 1132.59 921.919 1133.57 924.833C1134.54 923.861 1135.51 922.243 1136.48 921.272C1135.51 919.005 1134.54 916.739 1133.57 914.472C1122.56 887.922 1107.66 865.257 1090.18 847.773C1083.7 841.297 1076.58 835.469 1069.13 829.965C1064.6 826.727 1059.74 823.813 1055.21 820.575C1043.88 813.128 1032.87 806.005 1022.83 795.32C1011.5 782.693 1001.14 768.446 991.749 754.523L991.102 753.876C987.54 748.372 983.33 742.219 977.826 734.125L971.675 724.735C927.316 656.417 885.548 591.984 879.396 509.42C878.749 502.296 878.425 494.849 877.777 487.726C877.453 482.222 877.13 476.717 876.806 471.213C875.835 454.7 873.892 443.044 870.33 432.359C866.121 419.084 859.645 408.075 850.58 398.362C849.284 397.067 847.665 395.448 846.37 394.152C825.324 373.107 798.451 357.242 769.958 341.7C711.029 309.322 646.596 286.98 591.229 269.172C528.415 249.098 463.659 225.786 418.33 180.456C418.006 180.132 417.358 179.484 417.034 179.161C416.063 180.132 414.768 180.78 413.797 181.751C432.252 198.264 452.326 213.158 476.286 226.757Z" fill="url(#paint5_linear_2154_4953)" fill-opacity="0.4"/>
<path d="M1111.55 940.376C1096.65 900.227 1078.2 869.468 1054.89 847.451C1048.41 840.975 1040.96 835.471 1033.52 829.967C1026.07 824.462 1018.62 818.958 1012.15 812.482C999.196 800.179 987.54 786.579 976.207 773.304C973.617 770.066 970.379 766.828 967.789 763.591C963.58 758.734 959.047 753.553 954.837 748.696L951.923 745.135C943.829 735.745 935.41 726.679 927.316 717.937C881.986 668.074 835.038 616.593 823.058 546.98C821.439 536.295 819.173 523.668 817.554 511.688C815.288 495.823 810.754 481.575 804.278 468.624C798.126 456.644 790.356 445.636 780.319 434.951C761.863 415.848 738.874 400.63 709.734 383.793C652.748 350.767 588.639 327.455 533.92 308.999C474.991 288.925 414.444 265.936 372.676 224.168C372.028 223.521 371.057 222.55 370.41 221.902C369.762 222.55 369.114 223.197 368.467 223.845C368.143 224.168 367.819 224.492 367.495 224.816C368.143 225.464 368.79 226.111 369.762 227.082C383.684 241.005 400.521 253.956 420.272 265.289C455.888 286.011 495.389 300.257 532.624 312.885C587.344 331.34 650.805 354.653 707.467 387.355C735.312 403.544 757.33 417.79 774.814 435.275C796.831 457.292 808.812 481.576 813.669 512.335C815.287 524.315 817.554 536.943 819.496 547.951C824.677 579.682 837.952 610.441 859.321 642.172C878.425 670.341 901.737 696.244 924.726 721.175C932.82 729.917 941.239 739.631 949.333 748.373L951.923 751.611C956.132 756.467 960.666 761.648 964.875 766.505C967.465 769.742 970.703 772.981 973.293 776.218C984.626 789.493 996.929 803.092 1009.56 815.72C1016.36 822.519 1023.8 828.024 1031.25 833.528C1038.37 838.709 1045.5 844.537 1051.97 850.365C1074.96 872.058 1093.42 902.17 1107.66 941.672C1108.63 944.586 1109.61 947.5 1110.58 950.414L1110.9 951.385C1111.87 950.414 1113.17 949.119 1114.14 948.147C1113.49 945.557 1112.84 942.966 1111.55 940.376Z" fill="url(#paint6_linear_2154_4953)" fill-opacity="0.4"/>
<path d="M1023.8 840.973C1007.29 824.461 988.188 809.243 970.056 794.349C960.99 787.226 951.6 779.778 942.858 772.331C937.354 767.474 930.878 762.294 924.079 756.789C913.394 748.047 902.062 739.305 891.053 730.239C867.417 711.784 843.133 692.681 822.087 671.635C793.595 643.142 775.463 615.297 765.102 584.861L764.131 581.3C760.893 572.234 757.655 562.52 755.065 552.807C747.294 524.961 733.371 500.677 711.677 478.984L711.03 478.336C690.308 457.614 664.729 441.102 642.712 427.503C587.993 394.153 528.74 369.869 472.725 348.823C419.625 328.749 365.229 306.084 326.699 269.496C325.728 270.467 325.081 271.763 324.109 272.734C335.118 283.095 348.069 293.456 362.316 302.522C395.665 323.568 434.52 339.11 471.107 353.033C527.121 374.079 586.374 398.362 640.445 431.064C663.758 445.311 688.041 461.176 707.792 480.926C729.161 502.296 743.408 526.257 750.855 553.778C753.446 563.492 756.684 573.205 759.921 582.271L761.216 585.509C771.901 616.916 790.033 644.761 819.173 673.901C840.543 695.271 864.827 714.374 888.463 732.83C899.471 741.248 910.48 750.314 921.165 759.056C927.965 764.561 933.793 769.741 939.945 774.598C948.687 782.045 958.076 789.492 967.142 796.615C985.598 811.185 1004.05 826.403 1020.57 842.916C1025.42 847.773 1029.63 852.629 1033.84 857.486C1063.31 891.483 1079.17 935.842 1089.53 970.81L1089.86 971.781C1090.83 970.81 1092.12 969.515 1093.09 968.544C1082.73 933.575 1066.22 889.217 1036.76 854.572C1032.87 850.686 1028.66 845.83 1023.8 840.973Z" fill="url(#paint7_linear_2154_4953)" fill-opacity="0.4"/>
<path d="M1020.24 861.375C1016.03 855.871 1010.85 850.043 1005.34 844.538C984.945 824.14 959.042 808.599 934.111 793.381C927.959 789.819 922.778 786.581 917.274 783.019C909.827 778.163 902.056 773.63 896.552 770.068C886.191 763.593 875.506 757.441 864.821 751.289C824.996 727.653 783.228 703.369 750.849 670.991C734.984 655.125 722.681 638.937 712.967 620.805C707.787 611.739 702.606 602.025 698.073 592.312C685.77 566.409 669.256 543.42 648.21 523.022C630.402 505.861 609.357 489.349 580.216 470.57C529.059 437.544 471.749 411.317 417.677 387.681C376.233 369.549 329.284 349.151 292.697 318.391C292.049 319.686 291.078 320.657 290.43 321.953C297.877 328.104 305.648 333.933 314.067 339.761C346.769 361.455 384.975 378.291 415.734 391.566C469.806 415.202 526.468 441.429 577.626 474.455C608.062 493.882 629.431 510.718 646.916 528.203C666.666 547.953 681.884 569.647 693.864 594.578C698.397 604.292 703.578 614.005 709.082 623.395C718.796 641.527 731.747 658.363 747.936 674.552C780.962 707.578 822.406 732.186 862.555 755.498C872.916 761.326 883.6 768.125 893.638 774.277C900.113 778.163 907.237 782.696 914.36 787.229C919.865 790.791 925.369 794.352 931.197 797.59C956.128 812.808 981.707 828.673 1001.46 848.424C1006.96 853.928 1011.82 859.433 1016.03 864.937C1044.2 902.82 1059.09 949.444 1069.78 990.565C1070.75 989.593 1072.37 988.622 1073.34 987.651C1067.19 965.31 1061.68 946.854 1055.21 930.665C1045.82 902.496 1034.16 880.478 1020.24 861.375Z" fill="url(#paint8_linear_2154_4953)" fill-opacity="0.4"/>
<path d="M989.805 852.955C968.759 831.91 938.324 818.311 911.45 806.331C905.298 803.417 898.499 800.503 892.347 797.589L886.195 794.675C881.014 792.084 875.51 789.818 870.33 787.228C811.725 759.059 745.025 727.328 697.429 679.732C688.363 670.666 680.269 661.276 673.145 651.562L669.908 647.03C664.727 639.906 659.223 632.459 654.366 625.012C640.767 604.29 625.55 585.835 608.389 568.675C587.343 547.629 561.764 527.23 530.034 505.861C480.495 472.511 426.423 444.341 375.589 418.115L369.761 414.877C337.706 398.364 301.767 379.909 271.331 356.597C270.684 357.892 270.036 359.187 269.389 360.482C271.007 361.454 272.626 363.072 274.245 364.043C303.709 385.737 338.03 403.221 368.142 418.439L373.97 421.677C424.804 447.903 478.876 476.072 528.091 509.098C559.498 530.144 585.077 550.543 605.799 571.265C622.96 588.425 637.853 606.557 651.452 627.279C656.309 634.726 661.814 642.173 666.994 649.297L670.232 653.829C677.355 663.543 685.773 673.256 694.839 682.322C743.083 730.566 810.106 762.621 868.711 790.79C873.891 793.38 879.719 795.97 884.9 798.56L891.051 801.474C897.203 804.388 904.003 807.302 910.155 810.216C936.705 821.873 966.493 835.471 987.215 856.194C990.129 859.108 993.043 862.669 995.634 865.907C1026.07 905.409 1041.61 957.862 1053.27 1004.49C1054.24 1003.52 1055.86 1002.54 1056.83 1001.57C1045.5 955.271 1029.63 903.142 998.871 863.317C996.281 859.431 993.043 856.193 989.805 852.955Z" fill="url(#paint9_linear_2154_4953)" fill-opacity="0.4"/>
<path d="M974.905 870.435C955.478 851.008 927.956 840.97 901.729 830.933C891.368 827.047 881.007 823.162 871.617 818.953C864.494 815.715 857.695 812.802 851.219 809.564C782.254 775.566 711.021 736.065 653.388 677.136C644.322 668.07 636.551 659.652 629.752 651.557C617.448 636.663 604.173 622.741 591.222 609.79C562.729 581.297 532.293 556.041 497.648 533.053C454.585 504.236 407.637 476.715 353.241 449.517C319.244 432.356 283.952 413.901 254.811 390.588C254.164 391.883 253.516 393.179 252.869 394.474C255.135 396.093 257.725 398.035 259.992 400.302C288.161 421.348 320.539 438.185 350.975 453.726C405.047 481.248 452.319 508.445 494.734 537.262C529.055 560.574 559.491 585.182 587.983 613.674C600.935 626.626 613.562 640.549 626.19 655.119C633.313 663.537 641.084 671.955 650.15 681.021C708.107 740.274 779.987 779.775 849.276 814.096C855.752 817.334 862.552 820.249 869.675 823.486C879.065 827.695 889.426 831.581 899.787 835.466C925.69 845.18 952.564 855.217 971.343 873.996C973.933 876.587 976.199 879.5 978.466 882.414C1007.93 920.945 1022.82 972.102 1033.51 1018.4C1034.8 1017.76 1035.78 1016.78 1037.39 1015.81C1026.71 969.512 1011.49 918.678 982.027 880.148C980.085 876.262 977.495 873.025 974.905 870.435Z" fill="url(#paint10_linear_2154_4953)" fill-opacity="0.4"/>
<path d="M957.099 897.962C938.319 879.183 912.093 867.85 886.19 856.841C875.829 852.308 866.439 848.099 857.049 843.242C850.897 840.328 845.07 837.091 838.594 833.853C774.161 799.208 701.31 760.03 642.382 704.34C638.172 700.131 633.639 696.245 629.754 692.36C624.897 687.503 620.688 683.294 616.479 678.437C607.089 668.4 598.024 658.687 588.958 649.621C553.989 614.652 520.316 587.454 483.728 563.818C443.255 538.239 399.221 514.279 352.596 493.557C317.627 478.015 277.802 457.617 244.452 424.268C243.805 423.62 243.481 423.296 242.834 422.649C242.186 423.944 241.862 425.562 241.214 426.858C248.338 433.981 255.784 440.78 264.203 447.256C287.191 465.064 314.39 481.253 350.653 497.442C397.278 518.165 440.989 541.801 481.462 567.38C518.049 591.016 551.398 617.889 586.367 652.858C595.109 661.6 604.175 671.314 613.565 681.351C617.774 686.208 621.983 690.417 626.84 695.274C630.725 699.159 634.935 703.368 639.468 707.254C698.72 763.268 771.894 802.769 836.651 837.738C842.803 841.299 848.955 844.214 855.107 847.128C864.496 851.984 874.21 855.87 884.571 860.403C909.826 871.412 936.053 882.744 954.185 900.876C986.239 932.931 1002.1 983.765 1013.11 1031.68C1014.41 1031.04 1015.38 1030.07 1016.67 1029.42C1006.31 981.498 989.801 930.664 957.099 897.962Z" fill="url(#paint11_linear_2154_4953)" fill-opacity="0.4"/>
<path d="M928.284 925.483C926.341 923.541 924.398 920.95 922.455 919.007C905.295 901.847 883.278 888.895 861.584 876.268C856.404 873.03 850.9 870.116 845.719 866.878C842.805 865.259 840.214 863.316 837.3 861.697L836.977 861.374C834.387 860.079 831.796 858.136 829.206 856.841C813.664 847.127 797.475 838.061 782.257 829.319C732.395 800.179 680.266 770.067 636.555 730.889C626.194 721.823 617.776 713.405 610.329 705.31C602.882 697.216 596.406 690.741 589.931 684.265C553.019 647.354 519.993 621.45 482.11 599.757C443.904 577.74 404.079 559.285 364.578 545.038C324.429 530.792 291.079 510.393 263.558 482.872C253.52 472.835 244.13 461.502 234.74 448.874C234.416 450.493 233.769 452.436 233.445 454.055C242.187 466.035 251.253 476.396 260.967 486.109C266.795 491.937 272.623 497.118 278.775 502.622C302.735 522.697 330.257 537.915 363.282 549.571C402.46 563.494 441.961 581.625 480.168 603.642C517.727 625.012 550.429 651.239 587.016 687.826C593.168 693.978 599.968 700.778 607.415 708.872C615.186 717.291 623.927 725.385 633.965 734.775C677.999 774.276 729.805 804.712 780.315 833.853C795.857 842.919 811.722 852.308 827.264 861.374C829.53 862.993 832.12 864.288 834.063 865.583L834.386 865.906C837.3 867.525 840.539 869.469 843.129 871.411C848.31 874.649 853.814 877.563 858.994 880.801C880.364 893.105 902.381 906.056 919.218 922.893C921.16 924.835 923.103 926.778 924.722 929.045C954.187 963.042 971.67 1009.02 983.65 1050.14C984.945 1049.49 986.241 1048.84 987.536 1048.2C984.298 1036.54 981.06 1026.18 977.175 1016.47C963.899 977.288 948.035 947.824 928.284 925.483Z" fill="url(#paint12_linear_2154_4953)" fill-opacity="0.4"/>
<path d="M875.182 922.892C863.202 910.912 849.279 898.932 834.062 887.6C828.881 883.714 824.025 880.153 819.492 876.915C794.237 859.431 767.039 843.889 740.812 828.671C703.253 807.302 664.4 784.637 630.726 756.144C620.689 747.402 611.947 739.308 604.5 731.213C598.672 725.385 593.491 719.557 588.635 714.7C552.371 678.436 521.288 655.124 484.053 637.316C450.703 620.803 415.087 607.851 378.823 598.786C341.912 589.72 311.476 572.235 282.983 543.742C267.442 528.201 251.9 508.774 234.416 482.872C232.473 479.634 230.206 476.719 228.264 473.481C227.94 475.1 227.292 477.043 227.292 478.985C228.587 480.928 229.883 482.871 231.502 485.138C249.31 511.364 264.851 530.791 280.393 546.333C284.602 550.542 289.135 555.075 293.668 558.96C318.599 580.654 346.444 594.9 378.499 602.994C414.763 612.06 449.731 625.012 483.081 640.877C519.668 658.685 550.428 681.674 586.368 717.614C591.548 722.794 596.729 727.975 602.233 734.127C609.68 742.221 618.423 750.316 628.46 759.058C662.133 788.199 701.311 810.54 739.193 832.233C765.42 847.451 792.294 862.669 817.549 880.153C822.082 883.391 826.938 886.952 832.119 890.837C847.337 902.17 860.936 913.827 872.916 925.807C881.658 934.549 889.429 943.614 895.904 952.032C920.836 984.735 936.053 1026.5 947.386 1066.98C948.681 1066.33 949.976 1065.68 950.947 1065.36C939.291 1024.56 924.074 982.792 899.142 949.443C892.343 940.7 884.248 931.958 875.182 922.892Z" fill="url(#paint13_linear_2154_4953)" fill-opacity="0.4"/>
<path d="M869.351 970.157C866.76 965.624 864.17 961.738 861.58 957.205L861.257 956.882C850.572 939.074 840.858 922.237 826.288 907.667C824.669 906.048 823.374 904.752 821.755 903.134C817.222 899.248 812.689 895.363 808.479 891.801C780.31 869.46 747.608 852.947 716.525 836.758C684.471 820.245 651.121 803.085 622.628 779.772C612.591 771.678 604.172 763.907 597.049 756.783C592.193 751.927 588.308 747.394 584.098 743.185C554.634 713.721 526.465 690.732 484.697 674.219C456.852 663.211 425.444 655.116 388.209 648.964C353.241 643.136 323.453 626.947 294.636 598.13C276.504 579.998 260.315 558.629 241.536 532.079C235.708 523.66 229.232 514.594 223.08 505.852C222.756 508.118 222.432 509.737 222.109 512.004C227.289 519.775 233.117 527.545 237.974 534.992C254.811 558.952 271.648 581.617 291.398 601.368C294.636 604.606 297.551 607.52 301.112 610.434C327.339 634.07 355.832 648.317 387.562 653.497C424.473 659.326 455.557 667.744 483.402 678.752C524.522 694.618 552.367 717.282 581.508 746.422C585.717 750.632 589.926 754.841 594.459 760.022C601.582 767.792 610.325 775.24 620.362 783.334C649.179 806.97 682.852 823.807 715.231 840.644C746.314 856.833 778.692 873.022 806.537 895.039C810.747 898.601 815.603 902.162 819.812 906.371C821.107 907.666 822.726 909.285 824.021 910.581C838.268 924.827 847.981 941.664 858.342 959.148C860.933 963.681 863.523 968.214 866.437 972.423C886.835 1005.77 899.139 1043.98 909.824 1082.51C911.119 1081.86 912.414 1081.86 913.709 1081.21C910.471 1069.56 907.234 1057.25 903.348 1045.6C892.664 1015.49 881.654 990.879 869.351 970.157Z" fill="url(#paint14_linear_2154_4953)" fill-opacity="0.4"/>
<path d="M832.123 964.658C826.619 945.555 821.762 927.747 805.897 911.234C801.688 907.024 797.478 902.815 793.269 899.254C764.452 874.97 728.513 860.4 694.192 846.153C663.756 833.849 632.673 820.898 606.447 801.795C596.733 794.672 588.962 788.196 582.486 781.721L581.839 781.073C580.22 779.454 578.601 777.835 576.982 776.216C563.707 762.941 548.813 748.694 532.624 737.038C514.168 723.763 495.713 714.374 473.696 707.898C445.526 699.156 415.091 695.27 385.95 691.385L380.122 690.737C344.83 685.88 314.718 670.015 284.93 640.227C263.884 619.181 245.752 593.927 228.268 569.967L227.62 569.319C223.411 563.814 219.85 558.31 215.64 552.806C215.317 555.072 215.316 557.015 214.993 559.281C217.907 563.49 221.145 568.024 224.059 572.233L224.706 572.881C242.514 597.812 260.646 623.066 282.016 644.436C284.606 647.026 286.873 649.293 289.463 651.883C302.738 663.863 315.689 673.577 329.612 680.377C345.478 688.471 361.666 693.651 379.151 696.241L384.979 696.889C414.119 700.774 444.231 704.984 472.076 713.402C516.758 727.001 543.956 751.609 572.773 780.426C574.392 782.044 576.334 783.987 577.953 785.606L578.601 786.254C585.077 792.729 593.172 799.529 603.209 806.976C629.759 826.403 661.489 839.354 691.925 851.657C726.246 865.904 761.862 880.15 790.031 903.786C794.24 907.348 798.45 911.558 802.335 915.443C817.553 931.309 822.086 948.793 827.59 967.248C829.533 974.371 831.476 981.495 834.066 988.618C848.96 1029.41 859.645 1063.41 868.387 1096.11C869.682 1095.47 870.977 1095.47 872.273 1094.82C863.53 1062.12 852.522 1027.8 837.628 986.999C836.009 978.905 834.066 971.781 832.123 964.658Z" fill="url(#paint15_linear_2154_4953)" fill-opacity="0.4"/>
<path d="M806.54 995.423C805.569 987.976 805.244 980.528 804.92 973.081C803.625 949.121 802.654 928.724 786.142 912.211C785.17 911.24 784.199 910.268 782.904 908.973C777.399 904.116 768.98 900.23 761.857 896.345L760.563 895.698C736.603 883.394 708.757 876.27 682.207 869.147C643.353 858.786 602.88 848.102 572.445 822.847L572.121 822.522C565.645 817.342 558.522 811.514 552.694 805.038C548.808 800.505 544.599 796.296 540.714 792.411C528.41 780.107 516.754 770.394 504.774 762.299C487.289 750.643 469.157 742.224 446.816 735.425C429.98 730.244 411.848 726.359 394.364 722.474C378.499 718.912 362.31 715.027 346.444 710.818C307.59 699.809 274.564 679.734 242.833 648.003C233.12 638.29 223.73 627.605 214.664 616.597C214.988 618.863 214.988 621.453 215.312 623.72C223.082 633.433 231.501 642.499 239.919 650.917C271.65 682.648 306.295 703.694 345.149 714.703C360.69 719.236 377.203 722.797 393.069 726.359C410.553 730.244 428.037 734.13 444.874 739.31C481.461 749.995 508.336 766.509 537.152 795.325C541.038 799.211 544.923 803.095 548.484 807.305C554.636 814.104 561.436 819.609 568.235 825.113L568.559 825.437C599.643 851.34 640.763 862.025 679.941 872.709C706.491 879.833 734.012 887.279 757.648 899.259L758.943 899.907C765.743 903.468 773.837 907.678 779.342 911.887C780.313 912.858 781.284 913.829 782.256 914.801C797.473 930.018 798.769 950.094 799.74 973.082C800.064 980.529 800.388 987.976 801.359 995.423C804.273 1019.71 811.072 1043.99 817.872 1067.63C821.11 1079.28 824.671 1091.26 827.585 1103.24C828.881 1103.24 830.176 1102.59 831.471 1102.59C828.557 1090.61 825.319 1078.31 821.757 1066.33C816.253 1043.34 809.454 1019.06 806.54 995.423Z" fill="url(#paint16_linear_2154_4953)" fill-opacity="0.4"/>
<path d="M783.875 1073.13C778.047 1047.87 772.219 1021.97 772.542 996.391L772.542 991.21C772.866 972.755 773.19 959.479 762.181 941.348C757.972 934.548 753.115 928.396 747.287 922.568C738.545 913.826 728.184 906.703 714.909 899.904C709.405 896.99 702.281 894.399 695.158 891.809C676.379 885.981 654.685 883.715 631.697 881.448C591.871 877.239 550.751 873.03 522.582 848.746C519.021 845.832 515.783 842.594 512.545 839.357C510.279 837.09 508.335 835.147 506.716 832.88C501.86 826.729 496.68 820.901 491.175 815.397C465.92 790.142 436.132 773.952 399.22 757.115C383.679 749.992 367.166 743.193 351.301 736.393C329.931 727.327 307.914 718.262 286.868 708.224C262.584 696.244 240.243 682.969 219.521 666.78C219.845 669.046 220.169 670.666 220.493 672.932C240.567 687.826 261.613 700.454 285.249 711.786C306.295 721.823 328.636 731.213 349.682 739.955C365.224 746.431 381.737 753.23 397.278 760.354C433.866 776.867 463.006 793.055 487.937 817.987C493.118 823.167 498.298 828.995 503.155 835.147C504.774 837.414 506.717 839.356 509.307 841.947C512.545 845.184 516.43 848.423 519.668 851.66C548.485 876.592 590.576 881.124 631.049 885.334C654.038 887.6 675.084 889.867 693.863 895.695C700.663 897.961 707.138 900.551 712.966 903.141C734.336 914.15 748.259 926.778 758.296 943.291C768.657 960.775 768.333 973.402 768.333 990.887C768.009 992.506 768.333 994.125 768.333 996.067C768.01 1022.29 773.838 1048.2 779.342 1073.78C781.285 1082.19 783.227 1090.61 784.522 1099.03C785.17 1102.27 786.142 1105.83 786.789 1109.07C788.084 1109.07 789.703 1108.74 790.998 1108.74C790.026 1105.18 789.703 1101.62 788.731 1098.06C787.436 1090.29 785.818 1081.55 783.875 1073.13Z" fill="url(#paint17_linear_2154_4953)" fill-opacity="0.4"/>
<path d="M720.092 980.203C718.797 976.965 718.149 973.727 716.854 970.49C710.054 950.091 703.903 932.284 691.276 919.656C683.181 911.562 672.496 905.41 658.573 901.848C653.069 900.229 646.594 898.934 639.47 898.286C623.281 896.344 604.501 897.638 584.751 898.61C543.954 900.552 497.653 902.819 467.865 879.507C464.303 876.593 460.418 873.355 456.533 869.47C454.914 867.851 453.619 866.556 452.647 864.937C447.143 858.137 441.315 851.662 434.839 845.186C406.994 817.341 374.94 796.295 341.266 774.278L337.381 771.688C318.601 759.384 299.498 747.404 280.719 735.748L280.395 735.423C262.586 724.091 244.779 712.759 226.647 701.103C227.295 703.046 227.294 704.988 227.942 706.93C244.779 717.939 261.939 728.624 278.128 738.985L278.452 739.309C297.232 750.965 316.011 763.269 334.466 775.249L338.352 777.839C372.025 799.856 403.756 820.578 431.277 848.1C437.429 854.252 443.258 860.728 448.762 867.527C450.057 868.822 451.352 870.765 452.971 872.384C456.856 876.269 461.065 879.83 464.627 882.745C478.226 893.753 496.682 899.906 520.318 902.82C541.04 904.762 563.057 904.114 584.427 902.819C604.178 901.848 622.633 900.877 638.499 902.496C645.622 903.143 651.774 904.114 656.954 906.057C669.906 909.942 679.943 915.447 687.39 922.894C699.37 934.874 704.874 951.386 711.997 972.109C712.969 975.023 714.264 978.26 715.235 981.822C728.186 1019.38 735.309 1056.29 742.109 1094.17C743.08 1100.33 744.376 1106.15 745.671 1111.98C746.966 1111.98 748.261 1111.98 749.88 1111.66C748.261 1105.51 747.29 1099.36 745.995 1092.88C740.167 1055.32 733.043 1017.76 720.092 980.203Z" fill="url(#paint18_linear_2154_4953)" fill-opacity="0.4"/>
<path d="M673.145 968.874C666.346 951.066 660.842 937.791 651.452 928.401L651.128 928.077C641.738 918.688 629.435 914.154 609.36 912.859C603.856 912.535 597.381 912.536 589.286 912.86C574.716 913.831 558.527 916.421 540.719 919.335C495.713 926.782 444.555 935.201 409.91 912.212C404.406 908.65 399.225 904.765 394.045 899.585L393.397 898.937C388.864 894.404 384.331 889.871 379.475 885.015C341.592 847.132 303.061 813.782 266.798 782.698C258.703 775.899 250.609 769.1 242.838 762.625C243.486 765.215 244.781 767.805 245.428 770.395C251.904 775.575 257.732 780.756 263.884 786.26C300.148 817.344 338.678 850.694 376.237 888.252C380.77 892.785 385.626 897.641 390.159 902.174C395.663 907.679 401.491 912.212 407.32 916.097C443.259 939.733 495.065 931.315 541.042 923.544C558.203 920.63 574.391 918.04 588.962 917.068C596.409 916.745 602.884 916.745 608.389 917.068C627.168 918.363 638.501 922.573 647.243 931.315L647.567 931.639C655.985 940.057 661.489 953.332 668.289 970.493C682.859 1007.73 691.601 1046.26 701.638 1091.91C702.934 1098.39 704.552 1105.19 706.171 1111.34C707.466 1111.34 709.085 1111.66 710.38 1111.66C708.762 1104.86 707.143 1098.06 705.524 1091.26C696.782 1044.96 687.715 1006.76 673.145 968.874Z" fill="url(#paint19_linear_2154_4953)" fill-opacity="0.4"/>
<path d="M675.731 1078.95C666.989 1041.72 657.923 1003.51 641.086 968.542C635.905 958.181 630.725 950.411 625.221 944.907C621.336 941.021 616.803 937.783 611.946 935.517C601.585 930.984 588.634 929.689 567.588 931.308C561.76 931.955 554.636 932.602 545.894 934.221C532.295 936.164 517.401 940.05 501.536 943.611C452.644 955.591 396.954 969.19 356.805 946.526C355.186 945.554 353.567 944.582 351.948 943.611C354.862 946.525 357.776 950.087 360.69 953.001C401.487 971.78 454.911 959.153 502.183 947.497C518.048 943.935 532.943 940.05 546.218 937.783C554.636 936.488 561.435 935.516 567.587 935.193C592.842 933.25 609.031 934.545 621.983 947.497C627.487 953.001 632.344 960.448 637.201 970.485C654.038 1004.81 663.104 1043.01 671.522 1079.92C672.493 1084.13 673.464 1088.34 674.436 1092.55C675.731 1097.73 677.026 1103.56 678.645 1109.71C679.94 1109.71 681.559 1110.04 682.854 1110.04C681.235 1103.88 679.617 1097.73 677.998 1091.58C677.998 1087.05 676.702 1083.16 675.731 1078.95Z" fill="url(#paint20_linear_2154_4953)" fill-opacity="0.4"/>
<path d="M659.863 1081.22C649.826 1044.63 639.465 1007.07 618.743 976.636C608.382 961.742 595.431 953.323 578.594 950.733C563.052 948.143 545.244 951.704 529.379 953.971C522.903 955.266 515.132 956.561 506.066 958.504C492.791 961.418 478.869 965.627 463.651 969.836C441.957 975.988 418.969 982.787 396.304 986.673C397.599 987.968 399.218 988.94 400.514 990.235C422.207 986.026 443.9 979.874 464.946 973.722L465.27 973.398C480.164 968.865 494.41 964.98 507.038 962.066C516.427 959.799 523.551 958.504 530.351 957.533C559.167 952.676 587.012 948.143 607.734 968.865C610.648 971.779 613.239 975.017 615.505 978.579C635.903 1008.69 646.265 1045.6 655.654 1081.54C657.273 1087.69 659.216 1093.52 660.511 1099.35C661.159 1101.94 662.13 1104.21 662.778 1106.8C664.397 1107.12 665.691 1107.12 667.31 1107.44C666.339 1104.53 665.692 1101.29 664.721 1098.38C662.778 1093.2 661.158 1087.05 659.863 1081.22Z" fill="url(#paint21_linear_2154_4953)" fill-opacity="0.4"/>
<path d="M600.938 991.206C588.31 978.579 572.121 972.103 550.751 971.455C532.62 970.808 513.193 974.693 496.032 978.255L492.795 978.903C485.348 980.522 477.253 982.141 467.863 984.407C455.883 987.321 442.932 991.207 429.333 995.092C423.829 996.711 418.324 998.33 412.82 999.948C414.115 1001.24 415.411 1001.89 416.706 1003.19C421.239 1001.89 425.772 1000.6 430.305 999.301C443.904 995.416 456.531 991.207 468.511 988.293C477.901 986.026 485.671 984.083 493.442 982.788L497.003 981.816C531.972 974.693 571.15 966.599 598.024 993.473C624.574 1020.02 637.849 1061.14 649.505 1096.76C650.153 1099.35 651.448 1101.94 652.096 1104.53C653.715 1104.85 655.009 1104.85 656.628 1105.18C655.333 1101.94 654.686 1098.7 653.39 1095.46C641.41 1060.17 628.459 1018.73 600.938 991.206Z" fill="url(#paint22_linear_2154_4953)" fill-opacity="0.4"/>
<path d="M578.924 1008.05C563.382 998.986 544.603 995.101 521.938 996.396C502.187 997.368 482.113 1002.55 464.305 1006.76L453.296 1009.35C448.115 1010.64 442.288 1011.94 437.107 1013.23L431.926 1014.53C433.545 1015.5 434.84 1016.79 436.459 1017.77L438.079 1017.44C443.259 1016.15 449.087 1014.85 454.268 1013.56C456.858 1012.91 459.448 1012.26 461.714 1011.94L464.953 1011.29C501.54 1002.55 543.308 992.511 576.657 1012.26C583.457 1016.47 589.933 1021.65 595.761 1027.48C616.159 1047.88 630.081 1077.34 641.09 1104.54C642.709 1104.86 644.328 1105.19 645.947 1105.51C634.615 1077.34 620.368 1046.26 598.675 1024.57C592.523 1017.77 585.723 1012.26 578.924 1008.05Z" fill="url(#paint23_linear_2154_4953)" fill-opacity="0.4"/>
<path d="M595.433 1058.88C584.748 1048.2 573.739 1040.43 561.435 1034.6C529.057 1019.71 491.498 1024.89 456.853 1031.68C458.472 1032.66 460.415 1033.95 462.034 1034.92C494.736 1028.77 530.029 1024.56 559.817 1038.16C571.473 1043.34 582.481 1051.11 592.842 1061.47C604.175 1072.81 613.565 1086.08 621.659 1099.36C623.278 1099.68 625.221 1100.33 627.164 1100.33C623.926 1094.5 620.364 1088.99 616.478 1083.81C609.679 1074.42 602.556 1066.01 595.433 1058.88Z" fill="url(#paint24_linear_2154_4953)" fill-opacity="0.4"/>
<path d="M507.037 1059.85C511.894 1062.12 516.751 1064.39 521.608 1066.65C521.932 1066.98 522.255 1066.65 522.579 1066.98C533.588 1069.57 544.272 1074.42 554.633 1080.25C560.138 1082.52 565.642 1084.14 571.146 1085.75C556.252 1074.75 540.063 1066.98 523.55 1062.77C518.37 1061.47 512.542 1060.18 507.037 1059.85Z" fill="url(#paint25_linear_2154_4953)" fill-opacity="0.4"/>
<defs>
<linearGradient id="paint0_linear_2154_4953" x1="726.984" y1="65.3326" x2="574.239" y2="518.814" gradientUnits="userSpaceOnUse">
<stop stop-color="#F2D57E"/>
<stop offset="1" stop-color="#A7F2D7"/>
</linearGradient>
<linearGradient id="paint1_linear_2154_4953" x1="693.424" y1="74.6099" x2="532.751" y2="514.054" gradientUnits="userSpaceOnUse">
<stop stop-color="#F2D57E"/>
<stop offset="1" stop-color="#A7F2D7"/>
</linearGradient>
<linearGradient id="paint2_linear_2154_4953" x1="660.844" y1="89.7086" x2="495.184" y2="509.435" gradientUnits="userSpaceOnUse">
<stop stop-color="#F2D57E"/>
<stop offset="1" stop-color="#A7F2D7"/>
</linearGradient>
<linearGradient id="paint3_linear_2154_4953" x1="629.815" y1="103.128" x2="460.945" y2="495.807" gradientUnits="userSpaceOnUse">
<stop stop-color="#F2D57E"/>
<stop offset="1" stop-color="#A7F2D7"/>
</linearGradient>
<linearGradient id="paint4_linear_2154_4953" x1="591.928" y1="122.286" x2="421.851" y2="485.477" gradientUnits="userSpaceOnUse">
<stop stop-color="#F2D57E"/>
<stop offset="1" stop-color="#A7F2D7"/>
</linearGradient>
<linearGradient id="paint5_linear_2154_4953" x1="544.224" y1="154.019" x2="380.911" y2="458.779" gradientUnits="userSpaceOnUse">
<stop stop-color="#F2D57E"/>
<stop offset="1" stop-color="#A7F2D7"/>
</linearGradient>
<linearGradient id="paint6_linear_2154_4953" x1="494.64" y1="200.866" x2="344.635" y2="451.079" gradientUnits="userSpaceOnUse">
<stop stop-color="#F2D57E"/>
<stop offset="1" stop-color="#A7F2D7"/>
</linearGradient>
<linearGradient id="paint7_linear_2154_4953" x1="442.793" y1="256.279" x2="302.405" y2="478.014" gradientUnits="userSpaceOnUse">
<stop stop-color="#F2D57E"/>
<stop offset="1" stop-color="#A7F2D7"/>
</linearGradient>
<linearGradient id="paint8_linear_2154_4953" x1="412.347" y1="300.526" x2="267.584" y2="537.135" gradientUnits="userSpaceOnUse">
<stop stop-color="#F2D57E"/>
<stop offset="1" stop-color="#A7F2D7"/>
</linearGradient>
<linearGradient id="paint9_linear_2154_4953" x1="403.572" y1="324.777" x2="246.765" y2="609.249" gradientUnits="userSpaceOnUse">
<stop stop-color="#F2D57E"/>
<stop offset="1" stop-color="#A7F2D7"/>
</linearGradient>
<linearGradient id="paint10_linear_2154_4953" x1="393.014" y1="351.216" x2="232.925" y2="660.146" gradientUnits="userSpaceOnUse">
<stop stop-color="#F2D57E"/>
<stop offset="1" stop-color="#A7F2D7"/>
</linearGradient>
<linearGradient id="paint11_linear_2154_4953" x1="379.599" y1="382.805" x2="221.831" y2="690.357" gradientUnits="userSpaceOnUse">
<stop stop-color="#F2D57E"/>
<stop offset="1" stop-color="#A7F2D7"/>
</linearGradient>
<linearGradient id="paint12_linear_2154_4953" x1="361.882" y1="416.653" x2="210.005" y2="703.056" gradientUnits="userSpaceOnUse">
<stop stop-color="#F2D57E"/>
<stop offset="1" stop-color="#A7F2D7"/>
</linearGradient>
<linearGradient id="paint13_linear_2154_4953" x1="345.369" y1="448.66" x2="198.766" y2="721.763" gradientUnits="userSpaceOnUse">
<stop stop-color="#F2D57E"/>
<stop offset="1" stop-color="#A7F2D7"/>
</linearGradient>
<linearGradient id="paint14_linear_2154_4953" x1="339.104" y1="478.702" x2="193.566" y2="766.198" gradientUnits="userSpaceOnUse">
<stop stop-color="#F2D57E"/>
<stop offset="1" stop-color="#A7F2D7"/>
</linearGradient>
<linearGradient id="paint15_linear_2154_4953" x1="340.89" y1="511.703" x2="197.907" y2="837.054" gradientUnits="userSpaceOnUse">
<stop stop-color="#F2D57E"/>
<stop offset="1" stop-color="#A7F2D7"/>
</linearGradient>
<linearGradient id="paint16_linear_2154_4953" x1="355.021" y1="553.658" x2="224.957" y2="913.551" gradientUnits="userSpaceOnUse">
<stop stop-color="#F2D57E"/>
<stop offset="1" stop-color="#A7F2D7"/>
</linearGradient>
<linearGradient id="paint17_linear_2154_4953" x1="355.788" y1="601.658" x2="238.361" y2="950.695" gradientUnits="userSpaceOnUse">
<stop stop-color="#F2D57E"/>
<stop offset="1" stop-color="#A7F2D7"/>
</linearGradient>
<linearGradient id="paint18_linear_2154_4953" x1="350.548" y1="642.756" x2="241.618" y2="958.713" gradientUnits="userSpaceOnUse">
<stop stop-color="#F2D57E"/>
<stop offset="1" stop-color="#A7F2D7"/>
</linearGradient>
<linearGradient id="paint19_linear_2154_4953" x1="361.336" y1="701.452" x2="271.847" y2="1010.96" gradientUnits="userSpaceOnUse">
<stop stop-color="#F2D57E"/>
<stop offset="1" stop-color="#A7F2D7"/>
</linearGradient>
<linearGradient id="paint20_linear_2154_4953" x1="470.676" y1="859.796" x2="469.993" y2="1146.45" gradientUnits="userSpaceOnUse">
<stop stop-color="#F2D57E"/>
<stop offset="1" stop-color="#A7F2D7"/>
</linearGradient>
<linearGradient id="paint21_linear_2154_4953" x1="497.319" y1="913.161" x2="506.925" y2="1148.37" gradientUnits="userSpaceOnUse">
<stop stop-color="#F2D57E"/>
<stop offset="1" stop-color="#A7F2D7"/>
</linearGradient>
<linearGradient id="paint22_linear_2154_4953" x1="498.433" y1="938.839" x2="500.851" y2="1142.86" gradientUnits="userSpaceOnUse">
<stop stop-color="#F2D57E"/>
<stop offset="1" stop-color="#A7F2D7"/>
</linearGradient>
<linearGradient id="paint23_linear_2154_4953" x1="501.093" y1="966.773" x2="495.275" y2="1136.76" gradientUnits="userSpaceOnUse">
<stop stop-color="#F2D57E"/>
<stop offset="1" stop-color="#A7F2D7"/>
</linearGradient>
<linearGradient id="paint24_linear_2154_4953" x1="506.748" y1="998.565" x2="496.282" y2="1124.26" gradientUnits="userSpaceOnUse">
<stop stop-color="#F2D57E"/>
<stop offset="1" stop-color="#A7F2D7"/>
</linearGradient>
<linearGradient id="paint25_linear_2154_4953" x1="524.435" y1="1048.77" x2="518.668" y2="1093.3" gradientUnits="userSpaceOnUse">
<stop stop-color="#F2D57E"/>
<stop offset="1" stop-color="#A7F2D7"/>
</linearGradient>
</defs>
</svg>
