<svg width="623" height="1152" viewBox="0 0 623 1152" fill="none" xmlns="http://www.w3.org/2000/svg">
<g clip-path="url(#clip0_2402_19795)">
<path d="M695.81 97.2465L698.076 97.57C743.405 100.808 790.678 104.046 833.417 117.645C865.795 127.358 891.698 142.9 912.744 163.946C933.79 184.992 950.95 212.513 965.52 249.1C971.996 265.289 978.148 281.802 983.005 298.315C993.366 330.694 1001.46 364.043 1009.56 396.746C1012.47 408.726 1015.71 422.324 1019.27 435.6L1019.92 438.838C1027.69 469.273 1036.75 503.594 1057.8 528.525C1060.71 532.087 1063.95 535.325 1067.84 537.915C1079.82 546.657 1092.44 547.628 1104.75 548.923C1115.11 549.571 1125.79 550.542 1134.86 556.371C1138.42 558.637 1141.66 561.227 1144.9 564.465C1154.61 574.179 1162.7 588.749 1168.86 608.5C1175.98 631.165 1179.87 656.42 1183.1 677.142C1184.07 683.294 1185.05 690.093 1186.02 695.597C1189.25 715.024 1192.82 734.775 1195.73 753.878C1198.64 772.981 1201.88 792.408 1205.44 812.159C1206.41 809.892 1207.39 807.626 1208.36 805.36C1205.12 787.876 1202.53 770.391 1199.62 753.23C1196.7 734.127 1193.46 714.053 1189.9 694.949C1188.93 689.445 1187.96 682.646 1186.99 676.494C1183.75 655.772 1179.86 630.517 1172.74 607.204C1166.27 586.482 1157.85 571.589 1147.81 561.551C1144.57 558.313 1141.01 555.399 1136.8 553.133C1126.76 546.981 1115.43 546.01 1104.75 545.039C1092.77 544.067 1080.79 543.096 1069.78 534.677C1066.54 532.087 1063.63 529.173 1060.39 525.935C1039.99 501.651 1031.57 469.273 1023.48 437.866L1022.83 434.628C1019.59 421.676 1016.03 407.754 1013.12 395.774C1005.02 363.072 996.928 329.723 986.567 297.345C981.386 280.508 975.234 263.994 968.758 247.805C953.864 211.542 937.675 184.992 917.277 163.946C894.936 140.957 867.738 124.768 833.741 114.083C790.354 100.484 743.082 97.2463 697.105 94.0085C691.6 93.6847 686.096 93.3611 680.916 92.7135C659.87 91.0946 640.118 88.1801 622.31 83.9709C619.073 84.6185 616.482 85.2661 613.568 86.2375C633.967 91.7418 656.308 95.3033 680.591 96.9222C686.419 96.9222 691.277 97.2465 695.81 97.2465Z" fill="url(#paint0_linear_2402_19795)" fill-opacity="0.4"/>
<path d="M694.843 139.016C700.995 139.987 707.471 141.283 713.622 142.902L715.241 143.225C760.57 152.291 807.519 161.033 849.935 178.194C881.99 190.821 907.244 207.01 927.967 227.732C950.308 250.073 967.468 278.242 980.419 313.858C985.6 328.105 990.457 344.618 994.99 361.455C1002.44 391.567 1008.26 422.65 1013.77 452.762C1017.01 469.598 1019.92 486.759 1023.48 503.919L1023.48 504.567C1030.61 538.24 1037.41 572.885 1056.18 601.378C1058.77 605.263 1061.69 608.825 1064.93 612.063L1065.25 612.386C1077.88 625.014 1090.83 625.014 1103.78 625.014C1111.88 625.338 1120.29 625.338 1129.04 628.252C1134.22 630.194 1139.4 633.432 1143.93 637.965C1164 658.04 1170.8 697.865 1175.98 727.005C1176.63 731.538 1177.6 736.395 1178.57 740.604C1182.14 759.06 1185.37 777.839 1188.29 795.647C1190.55 808.923 1193.14 822.522 1195.74 836.121C1197.03 834.178 1197.68 832.235 1198.97 830.292C1196.71 818.312 1194.76 806.656 1192.82 795C1189.58 776.868 1186.34 758.089 1182.78 739.633C1182.14 735.748 1181.16 730.891 1180.19 726.034C1175.01 696.246 1168.21 655.773 1147.17 634.727C1142.31 629.871 1136.81 626.309 1131.3 624.042C1121.91 620.481 1113.17 620.157 1104.75 620.157C1092.45 620.157 1080.47 619.833 1069.14 608.501L1068.81 608.177C1065.9 605.263 1063.31 602.025 1060.72 598.14C1042.59 570.295 1035.46 535.974 1028.66 502.624L1028.34 502.3C1025.1 485.463 1021.54 468.303 1018.63 451.79L1018.3 451.467C1012.8 421.355 1006.97 390.271 999.523 360.16C995.313 342.999 990.133 326.81 985.276 312.24C972.648 277.595 956.459 249.75 934.766 227.409C913.073 205.068 886.522 187.583 852.525 174.308C809.785 157.471 762.837 148.082 717.184 139.34C710.708 138.045 703.585 136.749 696.786 135.131C653.075 126.388 615.192 113.113 582.166 94.3339C580.224 94.9814 578.604 95.3049 576.662 95.9525C580.871 98.219 585.08 100.485 589.289 102.752C618.754 119.265 654.046 131.245 694.843 139.016Z" fill="url(#paint1_linear_2402_19795)" fill-opacity="0.4"/>
<path d="M698.4 177.541C704.552 179.16 710.704 181.426 716.856 183.045C764.776 197.292 814.638 212.185 859.644 233.879C892.022 249.42 916.954 266.581 936.381 286.008C959.046 308.673 974.587 335.871 983.329 367.925C986.891 381.2 990.128 395.446 993.042 411.312C996.928 433.977 999.842 456.965 1002.43 481.573C1009.56 543.739 1017 608.172 1046.14 662.567C1049.38 669.043 1052.62 673.576 1055.21 676.814C1057.15 679.404 1059.42 681.671 1061.36 683.614C1069.78 692.032 1078.2 697.213 1089.21 699.803C1095.03 701.098 1100.86 701.097 1106.37 700.774C1112.52 700.45 1119.32 700.126 1125.79 702.716C1130.97 704.659 1135.83 708.221 1140.04 712.43C1145.87 718.258 1150.72 725.705 1154.61 735.419C1161.09 750.313 1164.65 767.473 1167.56 781.396C1168.21 784.634 1168.86 787.224 1169.5 790.462C1173.39 806.651 1176.3 823.811 1179.22 842.267L1179.54 843.238C1180.51 848.095 1181.16 853.275 1182.13 858.132C1183.1 856.513 1184.4 854.571 1185.05 852.628C1184.72 849.066 1183.75 845.505 1183.43 841.944L1183.43 841.296C1180.19 823.164 1176.95 805.679 1173.39 789.166C1172.74 786.576 1172.09 783.338 1171.45 780.101C1168.53 766.178 1164.65 748.693 1158.17 733.152C1153.64 722.791 1148.46 715.02 1142.31 708.868C1137.77 704.335 1132.27 700.774 1126.76 698.507C1119.64 695.917 1112.52 695.917 1105.72 696.241C1100.22 696.565 1095.03 696.565 1089.53 695.593C1079.82 693.003 1072.05 688.47 1063.95 680.375C1062.01 678.433 1060.07 676.49 1058.12 673.9C1055.53 670.662 1052.62 666.453 1049.38 660.625C1020.24 606.877 1013.12 542.768 1005.67 480.925C1002.76 456.641 1000.17 433.33 996.281 410.665C993.367 394.799 990.129 379.905 986.567 366.63C977.501 334.252 962.283 307.378 939.619 284.065C919.868 263.667 893.965 246.182 860.291 229.993C815.286 208.3 765.423 193.406 716.856 179.159L715.56 178.512C709.732 176.569 704.228 174.95 698.076 173.331C638.824 155.523 591.552 132.859 552.051 103.718C550.432 104.042 548.812 105.013 547.517 105.661C559.173 114.727 572.124 123.145 585.4 130.592C618.102 149.047 654.69 164.266 698.4 177.541Z" fill="url(#paint2_linear_2402_19795)" fill-opacity="0.4"/>
<path d="M682.533 207.654L683.504 207.977C740.49 228.699 799.419 249.421 852.843 278.238C880.04 292.485 908.21 308.998 930.227 331.015C951.597 352.385 963.9 375.697 968.109 402.571C970.376 415.846 971.023 430.74 971.671 442.396C974.261 494.201 978.795 536.941 986.242 576.119C995.308 624.039 1008.26 665.483 1026.07 702.718C1029.3 709.841 1033.19 716.316 1037.07 721.497C1042.58 729.591 1047.76 736.067 1053.91 742.219C1059.74 748.047 1065.57 752.58 1072.04 755.818C1079.81 759.704 1087.59 760.999 1095.03 761.97C1100.21 762.618 1105.39 763.265 1110.25 764.884C1119.64 767.798 1127.73 772.655 1134.21 779.13C1148.78 793.701 1155.58 815.394 1161.73 838.383C1164.97 850.686 1167.88 863.314 1171.12 875.617C1172.09 873.998 1173.06 872.38 1174.04 870.761C1171.45 859.753 1168.53 848.42 1165.62 837.088C1161.08 820.899 1156.55 804.709 1148.46 791.434C1145.22 785.606 1141.33 780.426 1137.12 776.216C1130 769.093 1121.58 763.912 1111.22 760.674C1105.72 759.056 1100.21 758.084 1095.03 757.437C1087.59 756.465 1080.79 755.494 1073.66 751.609C1067.83 748.371 1062.01 744.486 1056.5 738.982C1050.67 733.154 1045.49 726.678 1040.31 718.907C1036.43 713.726 1032.87 706.927 1029.63 700.451C988.832 614.325 979.118 517.19 975.233 441.425C974.585 429.769 973.937 414.874 971.994 401.275C967.462 373.43 954.834 349.147 933.141 327.453C932.169 326.482 930.874 325.187 929.903 324.215C907.886 303.493 879.717 286.981 854.786 273.705C801.038 245.213 742.109 223.843 684.799 203.444L683.828 203.121C622.957 181.103 564.352 158.115 517.404 118.289C516.108 118.937 514.813 119.584 513.518 120.232C530.355 134.478 549.458 147.753 571.151 159.733C606.767 179.808 645.622 194.702 682.533 207.654Z" fill="url(#paint3_linear_2402_19795)" fill-opacity="0.4"/>
<path d="M644.32 236.792C695.154 253.305 761.53 276.941 821.43 308.995C851.218 325.184 879.387 341.05 901.404 363.715C920.831 383.789 926.336 406.13 928.278 433.976C928.926 445.632 929.249 457.612 929.573 469.592L929.574 474.125C930.869 516.865 938.316 558.632 951.591 602.343C962.923 638.931 978.789 676.813 1001.78 722.467C1005.99 731.209 1009.55 737.36 1012.79 743.189C1021.85 758.083 1030.27 771.682 1041.6 783.014C1042.9 784.309 1044.19 785.604 1045.49 786.899C1055.85 795.965 1066.86 801.146 1078.84 806.65C1084.99 809.564 1091.46 812.154 1097.29 815.392C1106.36 820.573 1113.81 826.077 1120.28 832.552C1132.59 844.856 1141.65 861.045 1149.42 883.063C1151.04 887.919 1152.66 893.424 1154.93 899.576C1155.9 897.957 1156.87 896.985 1157.84 895.366C1156.22 890.509 1154.93 885.977 1153.31 881.768C1147.48 864.931 1141.33 852.304 1133.23 841.619C1130.32 837.41 1126.76 833.2 1123.2 829.638C1116.4 822.839 1108.63 817.011 1099.56 811.831C1093.41 808.269 1086.93 805.679 1080.78 802.764C1069.12 797.584 1058.12 792.404 1048.4 783.985C1047.11 782.69 1045.81 781.395 1044.84 780.423C1033.83 769.415 1025.41 756.464 1016.35 741.57C1012.79 736.066 1009.55 729.589 1005.01 721.171C971.017 653.5 936.049 571.26 933.459 474.773L933.459 470.24C933.135 458.26 932.811 446.279 932.164 434.623C930.221 406.13 924.717 382.494 904.319 361.449C903.995 361.125 903.347 360.477 903.023 360.153C880.682 337.812 852.513 321.947 823.049 306.081C762.825 273.703 696.774 250.391 645.292 233.878C579.888 212.509 517.398 189.52 469.478 144.837C468.183 145.485 467.212 146.457 465.916 147.104C484.372 164.265 505.418 179.483 530.997 192.758C567.261 210.89 606.762 224.488 644.32 236.792Z" fill="url(#paint4_linear_2402_19795)" fill-opacity="0.4"/>
<path d="M476.286 226.757C512.874 247.155 554.966 261.402 591.23 273.058C646.273 290.542 710.381 313.207 768.986 345.261C798.774 361.45 827.267 378.288 848.313 401.276C866.445 420.703 871.626 443.368 873.244 471.537C873.568 477.041 873.892 482.545 874.539 487.726L874.54 488.374C875.187 495.497 875.511 502.944 875.835 509.743C881.987 593.603 924.078 658.359 968.76 727.001L974.913 736.392C980.093 744.81 984.302 750.961 988.187 756.142L988.835 756.789C998.548 771.036 1008.91 785.282 1020.57 798.234C1030.6 809.566 1041.61 816.69 1053.59 824.137C1057.8 827.051 1062.66 829.965 1067.19 833.203C1074.31 838.383 1081.44 844.211 1087.59 850.363C1104.75 867.524 1119 889.541 1130 916.091C1130.98 919.005 1132.59 921.919 1133.57 924.833C1134.54 923.861 1135.51 922.243 1136.48 921.272C1135.51 919.005 1134.54 916.739 1133.57 914.472C1122.56 887.922 1107.66 865.257 1090.18 847.773C1083.7 841.297 1076.58 835.469 1069.13 829.965C1064.6 826.727 1059.74 823.813 1055.21 820.575C1043.88 813.128 1032.87 806.005 1022.83 795.32C1011.5 782.693 1001.14 768.446 991.749 754.523L991.102 753.876C987.54 748.372 983.33 742.219 977.826 734.125L971.675 724.735C927.316 656.417 885.548 591.984 879.396 509.42C878.749 502.296 878.425 494.849 877.777 487.726C877.453 482.222 877.13 476.717 876.806 471.213C875.835 454.7 873.892 443.044 870.33 432.359C866.121 419.084 859.645 408.075 850.58 398.362C849.284 397.067 847.665 395.448 846.37 394.152C825.324 373.107 798.451 357.242 769.958 341.7C711.029 309.322 646.596 286.98 591.229 269.172C528.415 249.098 463.659 225.786 418.33 180.456C418.006 180.132 417.358 179.484 417.034 179.161C416.063 180.132 414.768 180.78 413.797 181.751C432.252 198.264 452.326 213.158 476.286 226.757Z" fill="url(#paint5_linear_2402_19795)" fill-opacity="0.4"/>
<path d="M1111.55 940.376C1096.66 900.227 1078.2 869.468 1054.89 847.451C1048.41 840.975 1040.97 835.471 1033.52 829.967C1026.07 824.462 1018.62 818.958 1012.15 812.482C999.197 800.179 987.541 786.579 976.208 773.304C973.618 770.066 970.38 766.828 967.79 763.591C963.581 758.734 959.048 753.553 954.838 748.696L951.924 745.135C943.83 735.745 935.411 726.679 927.317 717.937C881.987 668.074 835.039 616.593 823.059 546.98C821.44 536.295 819.174 523.668 817.555 511.688C815.288 495.823 810.755 481.575 804.279 468.624C798.127 456.644 790.357 445.636 780.32 434.951C761.864 415.848 738.875 400.63 709.735 383.793C652.749 350.767 588.64 327.455 533.921 308.999C474.992 288.925 414.445 265.936 372.677 224.168C372.029 223.521 371.058 222.55 370.41 221.902C369.763 222.55 369.115 223.197 368.468 223.845C368.144 224.168 367.82 224.492 367.496 224.816C368.144 225.464 368.791 226.111 369.763 227.082C383.685 241.005 400.522 253.956 420.273 265.289C455.889 286.011 495.39 300.257 532.625 312.885C587.345 331.34 650.806 354.653 707.468 387.355C735.313 403.544 757.331 417.79 774.815 435.275C796.832 457.292 808.813 481.576 813.67 512.335C815.288 524.315 817.555 536.943 819.497 547.951C824.678 579.682 837.953 610.441 859.322 642.172C878.426 670.341 901.738 696.244 924.727 721.175C932.821 729.917 941.24 739.631 949.334 748.373L951.924 751.611C956.133 756.467 960.667 761.648 964.876 766.505C967.466 769.742 970.704 772.981 973.294 776.218C984.627 789.493 996.93 803.092 1009.56 815.72C1016.36 822.519 1023.8 828.024 1031.25 833.528C1038.37 838.709 1045.5 844.537 1051.97 850.365C1074.96 872.058 1093.42 902.17 1107.66 941.672C1108.64 944.586 1109.61 947.5 1110.58 950.414L1110.9 951.385C1111.87 950.414 1113.17 949.119 1114.14 948.147C1113.49 945.557 1112.84 942.966 1111.55 940.376Z" fill="url(#paint6_linear_2402_19795)" fill-opacity="0.4"/>
<path d="M1023.81 840.973C1007.29 824.461 988.189 809.243 970.057 794.349C960.991 787.226 951.601 779.778 942.859 772.331C937.355 767.474 930.879 762.294 924.08 756.789C913.395 748.047 902.063 739.305 891.054 730.239C867.418 711.784 843.134 692.681 822.088 671.635C793.596 643.142 775.464 615.297 765.103 584.861L764.132 581.3C760.894 572.234 757.656 562.52 755.066 552.807C747.295 524.961 733.372 500.677 711.678 478.984L711.031 478.336C690.309 457.614 664.73 441.102 642.713 427.503C587.994 394.153 528.741 369.869 472.726 348.823C419.626 328.749 365.23 306.084 326.7 269.496C325.729 270.467 325.082 271.763 324.11 272.734C335.119 283.095 348.07 293.456 362.317 302.522C395.666 323.568 434.521 339.11 471.108 353.033C527.122 374.079 586.375 398.362 640.446 431.064C663.759 445.311 688.042 461.176 707.793 480.926C729.162 502.296 743.409 526.257 750.856 553.778C753.447 563.492 756.685 573.205 759.922 582.271L761.217 585.509C771.902 616.916 790.034 644.761 819.174 673.901C840.544 695.271 864.828 714.374 888.464 732.83C899.472 741.248 910.481 750.314 921.166 759.056C927.966 764.561 933.794 769.741 939.946 774.598C948.688 782.045 958.077 789.492 967.143 796.615C985.599 811.185 1004.05 826.403 1020.57 842.916C1025.42 847.773 1029.63 852.629 1033.84 857.486C1063.31 891.483 1079.17 935.842 1089.53 970.81L1089.86 971.781C1090.83 970.81 1092.12 969.515 1093.09 968.544C1082.73 933.575 1066.22 889.217 1036.76 854.572C1032.87 850.686 1028.66 845.83 1023.81 840.973Z" fill="url(#paint7_linear_2402_19795)" fill-opacity="0.4"/>
<path d="M1020.24 861.375C1016.03 855.871 1010.85 850.043 1005.34 844.539C984.946 824.14 959.044 808.599 934.112 793.381C927.961 789.82 922.779 786.581 917.275 783.02C909.828 778.163 902.057 773.63 896.553 770.068C886.192 763.593 875.507 757.441 864.822 751.289C824.997 727.653 783.229 703.369 750.851 670.991C734.985 655.125 722.682 638.937 712.969 620.805C707.788 611.739 702.608 602.026 698.075 592.312C685.771 566.409 669.258 543.42 648.212 523.022C630.404 505.862 609.358 489.349 580.218 470.57C529.06 437.544 471.75 411.317 417.678 387.681C376.234 369.549 329.285 349.151 292.698 318.391C292.05 319.686 291.079 320.658 290.431 321.953C297.878 328.105 305.65 333.933 314.068 339.761C346.77 361.455 384.976 378.291 415.736 391.566C469.807 415.202 526.47 441.429 577.627 474.455C608.063 493.882 629.433 510.719 646.917 528.203C666.668 547.954 681.885 569.647 693.865 594.578C698.398 604.292 703.579 614.005 709.083 623.395C718.797 641.527 731.748 658.363 747.937 674.553C780.963 707.578 822.407 732.186 862.556 755.498C872.917 761.326 883.602 768.126 893.639 774.277C900.115 778.163 907.238 782.696 914.362 787.229C919.866 790.791 925.37 794.352 931.198 797.59C956.129 812.808 981.708 828.673 1001.46 848.424C1006.96 853.928 1011.82 859.433 1016.03 864.937C1044.2 902.82 1059.09 949.444 1069.78 990.565C1070.75 989.593 1072.37 988.622 1073.34 987.651C1067.19 965.31 1061.68 946.854 1055.21 930.665C1045.82 902.496 1034.16 880.478 1020.24 861.375Z" fill="url(#paint8_linear_2402_19795)" fill-opacity="0.4"/>
<path d="M989.805 852.955C968.759 831.91 938.324 818.311 911.45 806.331C905.298 803.417 898.499 800.503 892.347 797.589L886.195 794.675C881.014 792.084 875.51 789.818 870.33 787.228C811.725 759.059 745.025 727.328 697.429 679.732C688.363 670.666 680.269 661.276 673.145 651.562L669.908 647.03C664.727 639.906 659.223 632.459 654.366 625.012C640.767 604.29 625.55 585.835 608.389 568.675C587.343 547.629 561.764 527.23 530.034 505.861C480.495 472.511 426.423 444.341 375.589 418.115L369.761 414.877C337.706 398.364 301.767 379.909 271.331 356.597C270.684 357.892 270.036 359.187 269.389 360.482C271.007 361.454 272.626 363.072 274.245 364.043C303.709 385.737 338.03 403.221 368.142 418.439L373.97 421.677C424.804 447.903 478.876 476.072 528.091 509.098C559.498 530.144 585.077 550.543 605.799 571.265C622.96 588.425 637.853 606.557 651.452 627.279C656.309 634.726 661.814 642.173 666.994 649.297L670.232 653.829C677.355 663.543 685.773 673.256 694.839 682.322C743.083 730.566 810.106 762.621 868.711 790.79C873.891 793.38 879.719 795.97 884.9 798.56L891.051 801.474C897.203 804.388 904.003 807.302 910.155 810.216C936.705 821.873 966.493 835.471 987.215 856.194C990.129 859.108 993.043 862.669 995.634 865.907C1026.07 905.409 1041.61 957.862 1053.27 1004.49C1054.24 1003.52 1055.86 1002.54 1056.83 1001.57C1045.5 955.271 1029.63 903.142 998.871 863.317C996.281 859.431 993.043 856.193 989.805 852.955Z" fill="url(#paint9_linear_2402_19795)" fill-opacity="0.4"/>
<path d="M974.906 870.435C955.479 851.008 927.957 840.97 901.73 830.933C891.369 827.047 881.008 823.162 871.618 818.953C864.495 815.715 857.696 812.802 851.22 809.564C782.255 775.566 711.022 736.065 653.389 677.136C644.323 668.07 636.552 659.652 629.753 651.557C617.449 636.663 604.174 622.741 591.223 609.79C562.73 581.297 532.294 556.041 497.649 533.053C454.586 504.236 407.638 476.715 353.242 449.517C319.245 432.356 283.953 413.901 254.812 390.588C254.164 391.883 253.517 393.179 252.87 394.474C255.136 396.093 257.726 398.035 259.993 400.302C288.162 421.348 320.54 438.185 350.976 453.726C405.048 481.248 452.319 508.445 494.735 537.262C529.056 560.574 559.492 585.182 587.984 613.674C600.936 626.626 613.563 640.549 626.191 655.119C633.314 663.537 641.085 671.955 650.151 681.021C708.108 740.274 779.988 779.775 849.277 814.096C855.753 817.334 862.553 820.249 869.676 823.486C879.066 827.695 889.427 831.581 899.788 835.466C925.691 845.18 952.564 855.217 971.344 873.996C973.934 876.587 976.2 879.5 978.467 882.414C1007.93 920.945 1022.83 972.102 1033.51 1018.4C1034.81 1017.76 1035.78 1016.78 1037.4 1015.81C1026.71 969.512 1011.49 918.678 982.028 880.148C980.086 876.262 977.496 873.025 974.906 870.435Z" fill="url(#paint10_linear_2402_19795)" fill-opacity="0.4"/>
<path d="M957.1 897.962C938.32 879.183 912.094 867.85 886.191 856.841C875.83 852.308 866.44 848.099 857.05 843.242C850.898 840.328 845.071 837.091 838.595 833.853C774.162 799.208 701.311 760.03 642.383 704.34C638.173 700.131 633.64 696.245 629.755 692.36C624.898 687.503 620.689 683.294 616.48 678.437C607.09 668.4 598.025 658.687 588.959 649.621C553.99 614.652 520.317 587.454 483.729 563.818C443.256 538.239 399.221 514.279 352.597 493.557C317.628 478.015 277.803 457.617 244.453 424.268C243.806 423.62 243.482 423.296 242.835 422.649C242.187 423.944 241.863 425.562 241.215 426.858C248.339 433.981 255.785 440.78 264.204 447.256C287.192 465.064 314.391 481.253 350.654 497.442C397.279 518.165 440.99 541.801 481.463 567.38C518.05 591.016 551.399 617.889 586.368 652.858C595.11 661.6 604.176 671.314 613.566 681.351C617.775 686.208 621.984 690.417 626.841 695.274C630.726 699.159 634.936 703.368 639.469 707.254C698.721 763.268 771.895 802.769 836.652 837.738C842.804 841.299 848.956 844.214 855.108 847.128C864.497 851.984 874.211 855.87 884.572 860.403C909.827 871.412 936.054 882.744 954.186 900.876C986.24 932.931 1002.11 983.765 1013.11 1031.68C1014.41 1031.04 1015.38 1030.07 1016.68 1029.42C1006.31 981.498 989.802 930.664 957.1 897.962Z" fill="url(#paint11_linear_2402_19795)" fill-opacity="0.4"/>
<path d="M928.286 925.483C926.343 923.541 924.4 920.95 922.457 919.007C905.297 901.847 883.28 888.895 861.586 876.268C856.406 873.03 850.902 870.116 845.721 866.878C842.807 865.259 840.216 863.316 837.302 861.697L836.979 861.374C834.389 860.079 831.798 858.136 829.208 856.841C813.666 847.127 797.477 838.061 782.259 829.319C732.397 800.179 680.268 770.067 636.557 730.889C626.196 721.823 617.778 713.405 610.331 705.31C602.884 697.216 596.408 690.741 589.933 684.265C553.021 647.354 519.995 621.45 482.112 599.757C443.906 577.74 404.081 559.285 364.58 545.038C324.431 530.792 291.081 510.393 263.559 482.872C253.522 472.835 244.132 461.502 234.742 448.874C234.418 450.493 233.771 452.436 233.447 454.055C242.189 466.035 251.255 476.396 260.969 486.109C266.797 491.937 272.625 497.118 278.777 502.622C302.737 522.697 330.259 537.915 363.284 549.571C402.462 563.494 441.963 581.625 480.17 603.642C517.729 625.012 550.431 651.239 587.018 687.826C593.17 693.978 599.97 700.778 607.417 708.872C615.188 717.291 623.929 725.385 633.967 734.775C678.001 774.276 729.807 804.712 780.317 833.853C795.859 842.919 811.724 852.308 827.266 861.374C829.532 862.993 832.122 864.288 834.065 865.583L834.388 865.906C837.302 867.525 840.541 869.469 843.131 871.411C848.311 874.649 853.815 877.563 858.996 880.801C880.366 893.105 902.383 906.056 919.22 922.893C921.162 924.835 923.105 926.778 924.724 929.045C954.189 963.042 971.672 1009.02 983.652 1050.14C984.947 1049.49 986.243 1048.84 987.538 1048.2C984.3 1036.54 981.062 1026.18 977.177 1016.47C963.901 977.288 948.037 947.824 928.286 925.483Z" fill="url(#paint12_linear_2402_19795)" fill-opacity="0.4"/>
<path d="M875.184 922.892C863.204 910.912 849.281 898.932 834.064 887.6C828.883 883.714 824.027 880.153 819.494 876.915C794.239 859.431 767.04 843.889 740.814 828.671C703.255 807.302 664.402 784.637 630.728 756.144C620.691 747.402 611.949 739.308 604.502 731.213C598.674 725.385 593.493 719.557 588.637 714.7C552.373 678.436 521.289 655.124 484.054 637.316C450.705 620.803 415.089 607.851 378.825 598.786C341.914 589.72 311.478 572.235 282.985 543.742C267.444 528.201 251.902 508.774 234.418 482.872C232.475 479.634 230.208 476.719 228.266 473.481C227.942 475.1 227.294 477.043 227.294 478.985C228.589 480.928 229.885 482.871 231.504 485.138C249.312 511.364 264.853 530.791 280.395 546.333C284.604 550.542 289.137 555.075 293.67 558.96C318.601 580.654 346.446 594.9 378.501 602.994C414.765 612.06 449.733 625.012 483.083 640.877C519.67 658.685 550.43 681.674 586.37 717.614C591.55 722.794 596.731 727.975 602.235 734.127C609.682 742.221 618.425 750.316 628.462 759.058C662.135 788.199 701.313 810.54 739.195 832.233C765.422 847.451 792.296 862.669 817.551 880.153C822.084 883.391 826.94 886.952 832.121 890.837C847.339 902.17 860.938 913.827 872.918 925.807C881.66 934.549 889.431 943.614 895.906 952.032C920.837 984.735 936.055 1026.5 947.387 1066.98C948.683 1066.33 949.978 1065.68 950.949 1065.36C939.293 1024.56 924.076 982.792 899.144 949.443C892.345 940.7 884.25 931.958 875.184 922.892Z" fill="url(#paint13_linear_2402_19795)" fill-opacity="0.4"/>
<path d="M869.352 970.157C866.761 965.624 864.171 961.738 861.581 957.205L861.258 956.882C850.573 939.074 840.859 922.237 826.289 907.667C824.67 906.048 823.375 904.752 821.756 903.134C817.223 899.248 812.69 895.363 808.48 891.801C780.311 869.46 747.609 852.947 716.526 836.758C684.472 820.245 651.122 803.085 622.629 779.772C612.592 771.678 604.173 763.907 597.05 756.783C592.193 751.927 588.308 747.394 584.099 743.185C554.635 713.721 526.466 690.732 484.698 674.219C456.853 663.211 425.445 655.116 388.21 648.964C353.242 643.136 323.454 626.947 294.637 598.13C276.505 579.998 260.316 558.629 241.537 532.079C235.709 523.66 229.233 514.594 223.081 505.852C222.757 508.118 222.433 509.737 222.11 512.004C227.29 519.775 233.118 527.545 237.975 534.992C254.812 558.952 271.648 581.617 291.399 601.368C294.637 604.606 297.552 607.52 301.113 610.434C327.34 634.07 355.832 648.317 387.563 653.497C424.474 659.326 455.558 667.744 483.403 678.752C524.523 694.618 552.368 717.282 581.509 746.422C585.718 750.632 589.927 754.841 594.46 760.022C601.583 767.792 610.326 775.24 620.363 783.334C649.18 806.97 682.853 823.807 715.232 840.644C746.315 856.833 778.693 873.022 806.538 895.039C810.748 898.601 815.604 902.162 819.813 906.371C821.108 907.666 822.727 909.285 824.022 910.581C838.269 924.827 847.982 941.664 858.343 959.148C860.934 963.681 863.524 968.214 866.438 972.423C886.836 1005.77 899.14 1043.98 909.825 1082.51C911.12 1081.86 912.415 1081.86 913.71 1081.21C910.472 1069.56 907.235 1057.25 903.349 1045.6C892.665 1015.49 881.655 990.879 869.352 970.157Z" fill="url(#paint14_linear_2402_19795)" fill-opacity="0.4"/>
<path d="M832.123 964.658C826.619 945.555 821.762 927.747 805.897 911.234C801.688 907.024 797.478 902.815 793.269 899.254C764.452 874.97 728.513 860.4 694.192 846.153C663.756 833.849 632.673 820.898 606.447 801.795C596.733 794.672 588.962 788.196 582.486 781.721L581.839 781.073C580.22 779.454 578.601 777.835 576.982 776.216C563.707 762.941 548.813 748.694 532.624 737.038C514.168 723.763 495.713 714.374 473.696 707.898C445.526 699.156 415.091 695.27 385.95 691.385L380.122 690.737C344.83 685.88 314.718 670.015 284.93 640.227C263.884 619.181 245.752 593.927 228.268 569.967L227.62 569.319C223.411 563.814 219.85 558.31 215.64 552.806C215.317 555.072 215.316 557.015 214.993 559.281C217.907 563.49 221.145 568.024 224.059 572.233L224.706 572.881C242.514 597.812 260.646 623.066 282.016 644.436C284.606 647.026 286.873 649.293 289.463 651.883C302.738 663.863 315.689 673.577 329.612 680.377C345.478 688.471 361.666 693.651 379.151 696.241L384.979 696.889C414.119 700.774 444.231 704.984 472.076 713.402C516.758 727.001 543.956 751.609 572.773 780.426C574.392 782.044 576.334 783.987 577.953 785.606L578.601 786.254C585.077 792.729 593.172 799.529 603.209 806.976C629.759 826.403 661.489 839.354 691.925 851.657C726.246 865.904 761.862 880.15 790.031 903.786C794.24 907.348 798.45 911.558 802.335 915.443C817.553 931.309 822.086 948.793 827.59 967.248C829.533 974.371 831.476 981.495 834.066 988.618C848.96 1029.41 859.645 1063.41 868.387 1096.11C869.682 1095.47 870.977 1095.47 872.273 1094.82C863.53 1062.12 852.522 1027.8 837.628 986.999C836.009 978.905 834.066 971.781 832.123 964.658Z" fill="url(#paint15_linear_2402_19795)" fill-opacity="0.4"/>
<path d="M806.542 995.423C805.571 987.976 805.246 980.528 804.922 973.081C803.627 949.121 802.656 928.724 786.143 912.211C785.172 911.24 784.201 910.268 782.906 908.973C777.401 904.116 768.982 900.23 761.859 896.345L760.565 895.698C736.605 883.394 708.759 876.27 682.209 869.147C643.355 858.786 602.882 848.102 572.447 822.847L572.123 822.522C565.647 817.342 558.524 811.514 552.696 805.038C548.81 800.505 544.601 796.296 540.716 792.411C528.412 780.107 516.756 770.394 504.776 762.299C487.291 750.643 469.159 742.224 446.818 735.425C429.982 730.244 411.85 726.359 394.366 722.474C378.501 718.912 362.312 715.027 346.446 710.818C307.592 699.809 274.566 679.734 242.835 648.003C233.122 638.29 223.732 627.605 214.666 616.597C214.99 618.863 214.99 621.453 215.314 623.72C223.084 633.433 231.503 642.499 239.921 650.917C271.652 682.648 306.297 703.694 345.151 714.703C360.692 719.236 377.205 722.797 393.071 726.359C410.555 730.244 428.039 734.13 444.876 739.31C481.463 749.995 508.338 766.509 537.154 795.325C541.04 799.211 544.925 803.095 548.486 807.305C554.638 814.104 561.438 819.609 568.237 825.113L568.561 825.437C599.645 851.34 640.765 862.025 679.943 872.709C706.493 879.833 734.014 887.279 757.65 899.259L758.945 899.907C765.745 903.468 773.839 907.678 779.344 911.887C780.315 912.858 781.286 913.829 782.257 914.801C797.475 930.018 798.771 950.094 799.742 973.082C800.066 980.529 800.39 987.976 801.361 995.423C804.275 1019.71 811.074 1043.99 817.874 1067.63C821.112 1079.28 824.673 1091.26 827.587 1103.24C828.883 1103.24 830.178 1102.59 831.473 1102.59C828.559 1090.61 825.321 1078.31 821.759 1066.33C816.255 1043.34 809.456 1019.06 806.542 995.423Z" fill="url(#paint16_linear_2402_19795)" fill-opacity="0.4"/>
<path d="M783.875 1073.13C778.047 1047.87 772.219 1021.97 772.542 996.391L772.542 991.21C772.866 972.755 773.19 959.479 762.181 941.348C757.972 934.548 753.115 928.396 747.287 922.568C738.545 913.826 728.184 906.703 714.909 899.904C709.405 896.99 702.281 894.399 695.158 891.809C676.379 885.981 654.685 883.715 631.697 881.448C591.871 877.239 550.751 873.03 522.582 848.746C519.021 845.832 515.783 842.594 512.545 839.357C510.279 837.09 508.335 835.147 506.716 832.88C501.86 826.729 496.68 820.901 491.175 815.397C465.92 790.142 436.132 773.952 399.22 757.115C383.679 749.992 367.166 743.193 351.301 736.393C329.931 727.327 307.914 718.262 286.868 708.224C262.584 696.244 240.243 682.969 219.521 666.78C219.845 669.046 220.169 670.666 220.493 672.932C240.567 687.826 261.613 700.454 285.249 711.786C306.295 721.823 328.636 731.213 349.682 739.955C365.224 746.431 381.737 753.23 397.278 760.354C433.866 776.867 463.006 793.055 487.937 817.987C493.118 823.167 498.298 828.995 503.155 835.147C504.774 837.414 506.717 839.356 509.307 841.947C512.545 845.184 516.43 848.423 519.668 851.66C548.485 876.592 590.576 881.124 631.049 885.334C654.038 887.6 675.084 889.867 693.863 895.695C700.663 897.961 707.138 900.551 712.966 903.141C734.336 914.15 748.259 926.778 758.296 943.291C768.657 960.775 768.333 973.402 768.333 990.887C768.009 992.506 768.333 994.125 768.333 996.067C768.01 1022.29 773.838 1048.2 779.342 1073.78C781.285 1082.19 783.227 1090.61 784.522 1099.03C785.17 1102.27 786.142 1105.83 786.789 1109.07C788.084 1109.07 789.703 1108.74 790.998 1108.74C790.026 1105.18 789.703 1101.62 788.731 1098.06C787.436 1090.29 785.818 1081.55 783.875 1073.13Z" fill="url(#paint17_linear_2402_19795)" fill-opacity="0.4"/>
<path d="M720.093 980.203C718.798 976.965 718.15 973.727 716.855 970.49C710.055 950.091 703.904 932.284 691.277 919.656C683.182 911.562 672.497 905.41 658.574 901.848C653.07 900.229 646.594 898.934 639.471 898.286C623.282 896.344 604.502 897.638 584.751 898.61C543.955 900.552 497.654 902.819 467.866 879.507C464.304 876.593 460.419 873.355 456.534 869.47C454.915 867.851 453.62 866.556 452.648 864.937C447.144 858.137 441.316 851.662 434.84 845.186C406.995 817.341 374.941 796.295 341.267 774.278L337.382 771.688C318.602 759.384 299.499 747.404 280.72 735.748L280.396 735.423C262.587 724.091 244.78 712.759 226.648 701.103C227.296 703.046 227.295 704.988 227.943 706.93C244.78 717.939 261.94 728.624 278.129 738.985L278.453 739.309C297.233 750.965 316.012 763.269 334.467 775.249L338.353 777.839C372.026 799.856 403.757 820.578 431.278 848.1C437.43 854.252 443.259 860.728 448.763 867.527C450.058 868.822 451.353 870.765 452.972 872.384C456.857 876.269 461.066 879.83 464.628 882.745C478.227 893.753 496.683 899.906 520.319 902.82C541.041 904.762 563.058 904.114 584.428 902.819C604.179 901.848 622.634 900.877 638.5 902.496C645.623 903.143 651.775 904.114 656.955 906.057C669.907 909.942 679.944 915.447 687.391 922.894C699.371 934.874 704.875 951.386 711.998 972.109C712.97 975.023 714.265 978.26 715.236 981.822C728.187 1019.38 735.31 1056.29 742.11 1094.17C743.081 1100.33 744.377 1106.15 745.672 1111.98C746.967 1111.98 748.262 1111.98 749.881 1111.66C748.262 1105.51 747.291 1099.36 745.996 1092.88C740.168 1055.32 733.044 1017.76 720.093 980.203Z" fill="url(#paint18_linear_2402_19795)" fill-opacity="0.4"/>
<path d="M673.146 968.874C666.347 951.066 660.843 937.791 651.453 928.401L651.129 928.077C641.739 918.688 629.435 914.154 609.361 912.859C603.857 912.535 597.382 912.536 589.287 912.86C574.717 913.831 558.528 916.421 540.72 919.335C495.714 926.782 444.556 935.201 409.911 912.212C404.407 908.65 399.226 904.765 394.046 899.585L393.398 898.937C388.865 894.404 384.332 889.871 379.476 885.015C341.593 847.132 303.062 813.782 266.799 782.698C258.704 775.899 250.61 769.1 242.839 762.625C243.487 765.215 244.781 767.805 245.429 770.395C251.905 775.575 257.733 780.756 263.885 786.26C300.149 817.344 338.679 850.694 376.238 888.252C380.771 892.785 385.627 897.641 390.16 902.174C395.664 907.679 401.492 912.212 407.321 916.097C443.26 939.733 495.066 931.315 541.043 923.544C558.204 920.63 574.392 918.04 588.963 917.068C596.41 916.745 602.885 916.745 608.39 917.068C627.169 918.363 638.502 922.573 647.244 931.315L647.567 931.639C655.986 940.057 661.49 953.332 668.289 970.493C682.86 1007.73 691.602 1046.26 701.639 1091.91C702.935 1098.39 704.553 1105.19 706.172 1111.34C707.467 1111.34 709.086 1111.66 710.381 1111.66C708.763 1104.86 707.144 1098.06 705.525 1091.26C696.783 1044.96 687.716 1006.76 673.146 968.874Z" fill="url(#paint19_linear_2402_19795)" fill-opacity="0.4"/>
<path d="M675.732 1078.95C666.99 1041.72 657.924 1003.51 641.087 968.542C635.906 958.181 630.726 950.411 625.222 944.907C621.337 941.021 616.804 937.783 611.947 935.517C601.586 930.984 588.635 929.689 567.589 931.308C561.761 931.955 554.637 932.602 545.895 934.221C532.296 936.164 517.402 940.05 501.537 943.611C452.645 955.591 396.955 969.19 356.806 946.526C355.187 945.554 353.568 944.582 351.949 943.611C354.863 946.525 357.777 950.087 360.691 953.001C401.488 971.78 454.912 959.153 502.184 947.497C518.049 943.935 532.944 940.05 546.219 937.783C554.637 936.488 561.436 935.516 567.588 935.193C592.843 933.25 609.032 934.545 621.984 947.497C627.488 953.001 632.345 960.448 637.202 970.485C654.039 1004.81 663.105 1043.01 671.523 1079.92C672.494 1084.13 673.465 1088.34 674.437 1092.55C675.732 1097.73 677.027 1103.56 678.646 1109.71C679.941 1109.71 681.56 1110.04 682.855 1110.04C681.236 1103.88 679.618 1097.73 677.999 1091.58C677.999 1087.05 676.703 1083.16 675.732 1078.95Z" fill="url(#paint20_linear_2402_19795)" fill-opacity="0.4"/>
<path d="M659.863 1081.22C649.826 1044.63 639.465 1007.07 618.743 976.636C608.382 961.742 595.431 953.323 578.594 950.733C563.052 948.143 545.244 951.704 529.379 953.971C522.903 955.266 515.132 956.561 506.066 958.504C492.791 961.418 478.869 965.627 463.651 969.836C441.957 975.988 418.969 982.787 396.304 986.673C397.599 987.968 399.218 988.94 400.514 990.235C422.207 986.026 443.9 979.874 464.946 973.722L465.27 973.398C480.164 968.865 494.41 964.98 507.038 962.066C516.427 959.799 523.551 958.504 530.351 957.533C559.167 952.676 587.012 948.143 607.734 968.865C610.648 971.779 613.239 975.017 615.505 978.579C635.903 1008.69 646.265 1045.6 655.654 1081.54C657.273 1087.69 659.216 1093.52 660.511 1099.35C661.159 1101.94 662.13 1104.21 662.778 1106.8C664.397 1107.12 665.691 1107.12 667.31 1107.44C666.339 1104.53 665.692 1101.29 664.721 1098.38C662.778 1093.2 661.158 1087.05 659.863 1081.22Z" fill="url(#paint21_linear_2402_19795)" fill-opacity="0.4"/>
<path d="M600.94 991.206C588.312 978.579 572.123 972.103 550.753 971.455C532.621 970.808 513.195 974.693 496.034 978.255L492.797 978.903C485.35 980.522 477.255 982.141 467.865 984.407C455.885 987.321 442.934 991.207 429.335 995.092C423.831 996.711 418.326 998.33 412.822 999.948C414.117 1001.24 415.413 1001.89 416.708 1003.19C421.241 1001.89 425.774 1000.6 430.307 999.301C443.905 995.416 456.533 991.207 468.513 988.293C477.902 986.026 485.673 984.083 493.444 982.788L497.005 981.816C531.974 974.693 571.152 966.599 598.026 993.473C624.576 1020.02 637.851 1061.14 649.507 1096.76C650.155 1099.35 651.45 1101.94 652.098 1104.53C653.717 1104.85 655.011 1104.85 656.63 1105.18C655.335 1101.94 654.687 1098.7 653.392 1095.46C641.412 1060.17 628.461 1018.73 600.94 991.206Z" fill="url(#paint22_linear_2402_19795)" fill-opacity="0.4"/>
<path d="M578.925 1008.05C563.383 998.986 544.604 995.101 521.939 996.396C502.188 997.368 482.114 1002.55 464.306 1006.76L453.297 1009.35C448.116 1010.64 442.289 1011.94 437.108 1013.23L431.927 1014.53C433.546 1015.5 434.841 1016.79 436.46 1017.77L438.08 1017.44C443.26 1016.15 449.088 1014.85 454.269 1013.56C456.859 1012.91 459.449 1012.26 461.715 1011.94L464.954 1011.29C501.541 1002.55 543.309 992.511 576.658 1012.26C583.458 1016.47 589.934 1021.65 595.762 1027.48C616.16 1047.88 630.082 1077.34 641.091 1104.54C642.71 1104.86 644.329 1105.19 645.948 1105.51C634.616 1077.34 620.369 1046.26 598.676 1024.57C592.524 1017.77 585.724 1012.26 578.925 1008.05Z" fill="url(#paint23_linear_2402_19795)" fill-opacity="0.4"/>
<path d="M595.434 1058.88C584.749 1048.2 573.74 1040.43 561.436 1034.6C529.058 1019.71 491.499 1024.89 456.854 1031.68C458.473 1032.66 460.416 1033.95 462.035 1034.92C494.737 1028.77 530.03 1024.56 559.818 1038.16C571.474 1043.34 582.482 1051.11 592.843 1061.47C604.176 1072.81 613.566 1086.08 621.66 1099.36C623.279 1099.68 625.222 1100.33 627.165 1100.33C623.927 1094.5 620.365 1088.99 616.479 1083.81C609.68 1074.42 602.557 1066.01 595.434 1058.88Z" fill="url(#paint24_linear_2402_19795)" fill-opacity="0.4"/>
<path d="M507.039 1059.85C511.896 1062.12 516.753 1064.39 521.61 1066.65C521.934 1066.98 522.257 1066.65 522.581 1066.98C533.589 1069.57 544.274 1074.42 554.635 1080.25C560.14 1082.52 565.644 1084.14 571.148 1085.75C556.254 1074.75 540.065 1066.98 523.552 1062.77C518.372 1061.47 512.544 1060.18 507.039 1059.85Z" fill="url(#paint25_linear_2402_19795)" fill-opacity="0.4"/>
</g>
<defs>
<linearGradient id="paint0_linear_2402_19795" x1="726.985" y1="65.3326" x2="574.24" y2="518.814" gradientUnits="userSpaceOnUse">
<stop stop-color="#F2D57E"/>
<stop offset="1" stop-color="#A7F2D7"/>
</linearGradient>
<linearGradient id="paint1_linear_2402_19795" x1="693.425" y1="74.6099" x2="532.752" y2="514.054" gradientUnits="userSpaceOnUse">
<stop stop-color="#F2D57E"/>
<stop offset="1" stop-color="#A7F2D7"/>
</linearGradient>
<linearGradient id="paint2_linear_2402_19795" x1="660.845" y1="89.7086" x2="495.185" y2="509.435" gradientUnits="userSpaceOnUse">
<stop stop-color="#F2D57E"/>
<stop offset="1" stop-color="#A7F2D7"/>
</linearGradient>
<linearGradient id="paint3_linear_2402_19795" x1="629.816" y1="103.128" x2="460.946" y2="495.807" gradientUnits="userSpaceOnUse">
<stop stop-color="#F2D57E"/>
<stop offset="1" stop-color="#A7F2D7"/>
</linearGradient>
<linearGradient id="paint4_linear_2402_19795" x1="591.929" y1="122.286" x2="421.852" y2="485.477" gradientUnits="userSpaceOnUse">
<stop stop-color="#F2D57E"/>
<stop offset="1" stop-color="#A7F2D7"/>
</linearGradient>
<linearGradient id="paint5_linear_2402_19795" x1="544.224" y1="154.019" x2="380.911" y2="458.779" gradientUnits="userSpaceOnUse">
<stop stop-color="#F2D57E"/>
<stop offset="1" stop-color="#A7F2D7"/>
</linearGradient>
<linearGradient id="paint6_linear_2402_19795" x1="494.641" y1="200.866" x2="344.636" y2="451.079" gradientUnits="userSpaceOnUse">
<stop stop-color="#F2D57E"/>
<stop offset="1" stop-color="#A7F2D7"/>
</linearGradient>
<linearGradient id="paint7_linear_2402_19795" x1="442.794" y1="256.279" x2="302.406" y2="478.014" gradientUnits="userSpaceOnUse">
<stop stop-color="#F2D57E"/>
<stop offset="1" stop-color="#A7F2D7"/>
</linearGradient>
<linearGradient id="paint8_linear_2402_19795" x1="412.349" y1="300.526" x2="267.585" y2="537.136" gradientUnits="userSpaceOnUse">
<stop stop-color="#F2D57E"/>
<stop offset="1" stop-color="#A7F2D7"/>
</linearGradient>
<linearGradient id="paint9_linear_2402_19795" x1="403.572" y1="324.777" x2="246.765" y2="609.249" gradientUnits="userSpaceOnUse">
<stop stop-color="#F2D57E"/>
<stop offset="1" stop-color="#A7F2D7"/>
</linearGradient>
<linearGradient id="paint10_linear_2402_19795" x1="393.015" y1="351.216" x2="232.926" y2="660.146" gradientUnits="userSpaceOnUse">
<stop stop-color="#F2D57E"/>
<stop offset="1" stop-color="#A7F2D7"/>
</linearGradient>
<linearGradient id="paint11_linear_2402_19795" x1="379.6" y1="382.805" x2="221.832" y2="690.357" gradientUnits="userSpaceOnUse">
<stop stop-color="#F2D57E"/>
<stop offset="1" stop-color="#A7F2D7"/>
</linearGradient>
<linearGradient id="paint12_linear_2402_19795" x1="361.884" y1="416.653" x2="210.007" y2="703.056" gradientUnits="userSpaceOnUse">
<stop stop-color="#F2D57E"/>
<stop offset="1" stop-color="#A7F2D7"/>
</linearGradient>
<linearGradient id="paint13_linear_2402_19795" x1="345.371" y1="448.66" x2="198.768" y2="721.763" gradientUnits="userSpaceOnUse">
<stop stop-color="#F2D57E"/>
<stop offset="1" stop-color="#A7F2D7"/>
</linearGradient>
<linearGradient id="paint14_linear_2402_19795" x1="339.105" y1="478.702" x2="193.567" y2="766.198" gradientUnits="userSpaceOnUse">
<stop stop-color="#F2D57E"/>
<stop offset="1" stop-color="#A7F2D7"/>
</linearGradient>
<linearGradient id="paint15_linear_2402_19795" x1="340.89" y1="511.703" x2="197.907" y2="837.054" gradientUnits="userSpaceOnUse">
<stop stop-color="#F2D57E"/>
<stop offset="1" stop-color="#A7F2D7"/>
</linearGradient>
<linearGradient id="paint16_linear_2402_19795" x1="355.023" y1="553.658" x2="224.959" y2="913.551" gradientUnits="userSpaceOnUse">
<stop stop-color="#F2D57E"/>
<stop offset="1" stop-color="#A7F2D7"/>
</linearGradient>
<linearGradient id="paint17_linear_2402_19795" x1="355.788" y1="601.658" x2="238.361" y2="950.695" gradientUnits="userSpaceOnUse">
<stop stop-color="#F2D57E"/>
<stop offset="1" stop-color="#A7F2D7"/>
</linearGradient>
<linearGradient id="paint18_linear_2402_19795" x1="350.549" y1="642.756" x2="241.619" y2="958.713" gradientUnits="userSpaceOnUse">
<stop stop-color="#F2D57E"/>
<stop offset="1" stop-color="#A7F2D7"/>
</linearGradient>
<linearGradient id="paint19_linear_2402_19795" x1="361.337" y1="701.452" x2="271.848" y2="1010.96" gradientUnits="userSpaceOnUse">
<stop stop-color="#F2D57E"/>
<stop offset="1" stop-color="#A7F2D7"/>
</linearGradient>
<linearGradient id="paint20_linear_2402_19795" x1="470.677" y1="859.796" x2="469.994" y2="1146.45" gradientUnits="userSpaceOnUse">
<stop stop-color="#F2D57E"/>
<stop offset="1" stop-color="#A7F2D7"/>
</linearGradient>
<linearGradient id="paint21_linear_2402_19795" x1="497.319" y1="913.161" x2="506.925" y2="1148.37" gradientUnits="userSpaceOnUse">
<stop stop-color="#F2D57E"/>
<stop offset="1" stop-color="#A7F2D7"/>
</linearGradient>
<linearGradient id="paint22_linear_2402_19795" x1="498.435" y1="938.839" x2="500.853" y2="1142.86" gradientUnits="userSpaceOnUse">
<stop stop-color="#F2D57E"/>
<stop offset="1" stop-color="#A7F2D7"/>
</linearGradient>
<linearGradient id="paint23_linear_2402_19795" x1="501.094" y1="966.773" x2="495.276" y2="1136.76" gradientUnits="userSpaceOnUse">
<stop stop-color="#F2D57E"/>
<stop offset="1" stop-color="#A7F2D7"/>
</linearGradient>
<linearGradient id="paint24_linear_2402_19795" x1="506.749" y1="998.565" x2="496.283" y2="1124.26" gradientUnits="userSpaceOnUse">
<stop stop-color="#F2D57E"/>
<stop offset="1" stop-color="#A7F2D7"/>
</linearGradient>
<linearGradient id="paint25_linear_2402_19795" x1="524.437" y1="1048.77" x2="518.669" y2="1093.3" gradientUnits="userSpaceOnUse">
<stop stop-color="#F2D57E"/>
<stop offset="1" stop-color="#A7F2D7"/>
</linearGradient>
<clipPath id="clip0_2402_19795">
<rect width="623" height="1179" fill="white" transform="translate(0 -27)"/>
</clipPath>
</defs>
</svg>
