<svg width="859" height="1421" viewBox="0 0 859 1421" fill="none" xmlns="http://www.w3.org/2000/svg">
<path d="M483.186 1099.11C477.418 1106.36 472.046 1113.83 466.674 1121.31C470.549 1118.26 474.425 1115.21 478.53 1111.76C480.987 1108.42 483.673 1104.68 486.13 1101.34C491.441 1094.89 497.21 1087.65 503.833 1079.84C527.242 1052.11 555.382 1020.77 585.901 990.808C589.045 986.278 591.793 981.519 594.54 976.761C558.894 1010.11 527.61 1045.98 500.722 1076.99C494.266 1085.42 488.497 1092.66 483.186 1099.11Z" fill="url(#paint0_linear_2154_4986)" fill-opacity="0.2"/>
<path d="M513.225 1036.1C506.999 1044.13 501.23 1051.38 496.087 1058.45C476.659 1084.78 458.818 1112.02 441.602 1139.09C441.144 1139.88 440.686 1140.68 440.228 1141.47C443.02 1139.38 446.209 1137.52 449.002 1135.43C464.844 1110.74 481.541 1085.48 499.199 1061.31C504.342 1054.23 510.11 1046.99 516.336 1038.95L523.646 1029.95C554.489 991.185 587.956 949.702 626.73 915.513C627.936 912.508 628.913 909.9 630.516 907.124C588.844 941.754 553.544 986.41 520.535 1027.1L513.225 1036.1Z" fill="url(#paint1_linear_2154_4986)" fill-opacity="0.2"/>
<path d="M509.913 1002.46C504.541 1009.93 499.795 1017.24 495.277 1024.14C491.675 1029.47 488.241 1035.42 484.578 1041.76C479.083 1051.28 473.756 1061.42 468.49 1070.54C463.621 1079.89 457.897 1089.8 452.402 1099.32C442.1 1117.17 432.439 1131.15 422.733 1142.47C417.422 1148.92 411.715 1155.14 405.382 1161.53C409.425 1159.11 413.469 1156.68 417.512 1154.26C420.366 1151.15 423.219 1148.04 425.448 1145.09C435.382 1133.38 445.043 1119.39 455.575 1101.15C461.07 1091.64 466.397 1081.49 471.663 1072.37C476.761 1062.63 482.255 1053.11 487.75 1043.59C491.413 1037.25 494.848 1031.3 498.221 1026.37C502.739 1019.46 507.485 1012.16 512.857 1004.68C547.608 955.484 589.82 901.602 646.749 858.861C647.498 856.65 648.246 854.438 648.597 851.997C629.28 866.224 610.466 882.326 592.322 900.932C565.846 928.473 539.689 960.958 509.913 1002.46Z" fill="url(#paint2_linear_2154_4986)" fill-opacity="0.2"/>
<path d="M482.395 982.348C478.732 988.693 475.236 995.663 472.198 1001.84C466.123 1014.2 461.008 1027.63 456.351 1040.28C449.802 1057.12 443.191 1074.98 434.033 1090.84C429.454 1098.77 424.311 1105.85 419.229 1111.9C382.009 1154.39 330.926 1185.17 280.424 1213.12C286.053 1211.61 291.682 1210.1 297.312 1208.59C342.978 1182.61 388.432 1153.34 422.34 1114.76C428.048 1108.53 432.794 1101.23 437.602 1092.9C446.989 1076.64 453.371 1059.18 460.15 1041.94C464.806 1029.3 469.921 1015.86 475.767 1003.9C479.034 997.327 482.3 990.753 485.964 984.409C527.297 910.985 590.498 862.876 658.061 817.286C658.581 815.471 658.703 813.427 659.222 811.612C621.794 837.06 590.911 859.414 563.139 884.621C528.7 914.967 502.146 947.223 482.395 982.348Z" fill="url(#paint3_linear_2154_4986)" fill-opacity="0.2"/>
<path d="M655.462 788.818C643.605 798.364 630.102 808.016 615.744 818.232C602.469 827.487 589.424 836.346 574.898 845.937C521.693 881.311 466.383 917.585 434.788 972.309C433.414 974.688 432.269 976.671 430.896 979.05C428.316 984.434 425.736 989.818 423.553 995.431C418.667 1008.47 416.39 1022.49 413.716 1036.28C411.025 1053.76 407.48 1071.81 398.78 1086.88C397.178 1089.65 395.575 1092.43 393.576 1094.97C360.215 1138.1 303.016 1164.83 252.363 1188.46C246.672 1190.99 241.378 1193.75 235.687 1196.28C221.116 1203.2 205.92 1210.29 192.83 1216.48C182.928 1220.8 173.194 1225.76 163.292 1230.09C166.983 1230.11 170.278 1229.89 173.97 1229.91C181.141 1226.65 187.686 1223.55 194.857 1220.29C209.199 1213.77 223.769 1206.84 237.714 1200.09C243.009 1197.33 248.471 1195.2 254.161 1192.67C305.044 1168.64 362.868 1141.75 396.687 1097.83C398.686 1095.28 400.518 1092.11 402.12 1089.33C411.278 1073.47 414.656 1054.8 417.575 1036.92C420.02 1023.53 422.068 1009.91 426.954 996.867C428.908 991.65 431.488 986.266 434.068 980.882C435.442 978.502 436.586 976.52 437.96 974.141C468.868 920.606 523.782 884.104 576.758 849.126C591.055 839.932 604.329 830.677 617.604 821.421C631.962 811.205 645.695 801.156 657.322 792.007L660.968 789.354C661.594 789.187 662.052 788.393 662.678 788.225C662.8 786.181 663.319 784.366 663.442 782.322C661.733 783.45 660.192 785.204 658.483 786.333L655.462 788.818Z" fill="url(#paint4_linear_2154_4986)" fill-opacity="0.2"/>
<path d="M599.87 812.765C586.305 823.439 572.344 833.884 557.589 843.871C536.396 858.6 514.012 872.643 492.483 886.122C473.289 898.304 453.24 911.051 433.816 923.63C409.663 939.823 382.823 959.752 366.339 988.304L365.652 989.493C363.134 993.855 361.012 998.447 359.515 1002.87C355.255 1015.74 355.312 1028.47 355.766 1041.42C356.325 1056.02 356.321 1069.76 350.017 1082.51C349.33 1083.7 348.414 1085.29 347.727 1086.48C325.061 1125.74 267.299 1151.6 224.961 1169.99C218.019 1172.85 211.473 1175.95 205.554 1178.88C186.772 1187.6 167.594 1196.09 149.896 1203.85C132.198 1211.6 114.5 1219.36 96.9691 1227.75C100.035 1227.93 102.476 1228.28 105.542 1228.47C121.135 1221.61 136.331 1214.52 151.924 1207.66C170.247 1199.73 189.029 1191.01 207.581 1182.69C213.501 1179.76 220.214 1177.29 226.988 1173.8C249.752 1163.68 275.871 1152.32 299.109 1137.72C326.39 1120.69 344.244 1103.5 353.814 1084.18C360.577 1070.63 360.414 1056.26 360.312 1040.87C360.026 1028.54 359.969 1015.82 363.771 1003.74C365.268 999.317 367.161 995.123 369.679 990.761L370.366 989.571C386.393 961.812 413.003 942.279 436.531 926.254C455.558 913.446 475.607 900.7 494.801 888.517C516.33 875.039 538.713 860.997 560.136 845.871C574.891 835.884 588.852 825.438 602.417 814.764C633.423 790.367 654.024 768.422 667.699 745.651C667.883 742.585 668.067 739.518 668.251 736.452C667.336 738.038 666.42 739.624 665.504 741.211C651.935 765.629 631.959 787.406 599.87 812.765Z" fill="url(#paint5_linear_2154_4986)" fill-opacity="0.2"/>
<path d="M616 543.966L616.274 546.239C624.879 590.862 633.987 637.362 631.913 682.164C630.91 715.953 622.602 744.997 607.72 770.772C592.839 796.548 570.697 820.246 539.127 843.79C525.166 854.235 510.808 864.451 496.114 873.416C467.521 891.804 437.402 908.255 407.91 924.537C397.092 930.453 384.795 937.1 372.894 943.976L369.934 945.44C342.546 960.823 311.741 978.463 293.107 1005.24C290.421 1008.98 288.131 1012.95 286.635 1017.37C281.291 1031.2 283.621 1043.65 285.555 1055.87C287.611 1066.05 289.438 1076.62 286.155 1086.89C284.887 1090.91 283.223 1094.71 280.934 1098.68C274.065 1110.57 262.087 1122.16 244.601 1133.22C224.552 1145.96 201.163 1156.25 181.985 1164.74C176.294 1167.27 169.978 1169.97 164.913 1172.33C146.986 1180.49 128.83 1189.04 111.132 1196.8C93.434 1204.56 75.507 1212.72 57.351 1221.27C59.7917 1221.62 62.232 1221.97 64.6726 1222.32C80.7231 1214.67 96.9415 1207.64 112.763 1200.39C130.461 1192.63 149.014 1184.3 166.544 1175.92C171.609 1173.56 177.925 1170.86 183.616 1168.33C202.794 1159.84 226.184 1149.55 246.858 1136.63C265.198 1125.02 277.405 1113.03 284.503 1100.74C286.792 1096.77 288.685 1092.58 289.785 1087.92C293.129 1076.64 291.135 1065.44 289.307 1054.87C287.145 1043.04 284.983 1031.22 290.265 1018.41C291.929 1014.61 293.99 1011.04 296.279 1007.08C314.456 981.088 343.552 964.576 371.794 948.628L374.754 947.164C386.426 940.685 398.953 933.641 409.77 927.726C439.263 911.443 469.381 894.994 497.974 876.605C512.896 867.244 527.255 857.027 541.216 846.582C572.389 822.81 593.845 800.301 608.894 775.151C625.317 747.621 633.915 717.16 635.437 681.555C637.343 636.127 628.235 589.628 619.463 544.379C618.351 538.979 617.239 533.578 616.524 528.407C612.641 507.659 610.344 487.826 609.801 469.536C608.337 466.576 607.041 464.241 605.349 461.678C605.311 482.806 607.653 505.307 612.375 529.183C613.883 534.812 614.827 539.588 616 543.966Z" fill="url(#paint6_linear_2154_4986)" fill-opacity="0.2"/>
<path d="M575.403 553.844C576.057 560.038 576.482 566.628 576.511 572.989L576.617 574.636C579.592 620.767 583.299 668.379 577.701 713.791C573.8 748.022 564.699 776.606 550.046 801.985C534.249 829.347 511.481 853.214 480.431 874.942C468.011 883.633 453.317 892.598 438.227 901.335C411.069 916.321 382.553 929.996 354.892 943.106C339.467 950.591 323.646 957.847 307.992 965.729L307.366 965.897C276.684 981.493 244.979 997.027 222.318 1022.54C219.235 1026.05 216.549 1029.79 214.26 1033.75L214.031 1034.15C205.102 1049.61 208.454 1062.12 211.806 1074.63C213.588 1082.54 215.767 1090.67 215.215 1099.87C214.679 1105.37 212.893 1111.21 209.687 1116.77C195.492 1141.35 158.784 1158.23 131.977 1170.77C127.767 1172.57 123.327 1174.77 119.512 1176.79C102.607 1185.01 85.3058 1193 68.8588 1200.42C56.6226 1206.05 44.1571 1212.07 31.692 1218.09C33.9037 1218.84 35.9482 1218.96 38.1599 1219.71C49.145 1214.42 59.901 1209.53 70.6572 1204.63C87.3332 1196.81 104.635 1188.83 121.54 1180.61C125.125 1178.98 129.565 1176.78 134.005 1174.59C161.437 1161.87 198.771 1144.83 213.653 1119.06C217.087 1113.11 219.103 1106.87 219.868 1100.96C220.878 1090.97 218.928 1082.45 216.749 1074.31C213.564 1062.43 210.777 1050.77 218.79 1036.89L219.018 1036.5C221.079 1032.93 223.536 1029.59 226.619 1026.08C248.822 1001.36 280.13 985.597 310.584 970.398L310.813 970.001C326.238 962.516 341.892 954.634 357.088 947.545L357.316 947.149C384.978 934.039 413.493 920.365 440.652 905.378C456.138 896.871 470.435 887.676 483.252 879.214C513.448 858.05 536.154 835.206 552.119 808.469C568.084 781.733 578.101 751.561 582.125 715.287C587.326 669.646 584.244 621.868 580.873 575.507C580.448 568.917 579.855 561.701 579.659 554.715C576.79 510.231 579.808 470.203 589.4 433.442C588.272 431.733 587.54 430.253 586.412 428.544C585.312 433.196 584.212 437.849 583.112 442.501C574.788 475.235 572.35 512.426 575.403 553.844Z" fill="url(#paint7_linear_2154_4986)" fill-opacity="0.2"/>
<path d="M539.111 567.251C539.14 573.613 538.543 580.141 538.571 586.502C537.213 636.477 535.732 688.495 526.426 737.582C519.794 772.879 509.671 801.403 495.934 825.196C479.907 852.955 457.659 875.006 428.959 891.746C417.058 898.622 404.135 905.437 389.565 912.358C368.678 921.977 347.227 930.742 324.128 939.613C265.924 962.583 205.614 986.453 160.614 1028.68C155.197 1033.48 151.656 1037.78 149.199 1041.12C147.2 1043.67 145.597 1046.45 144.224 1048.83C138.271 1059.14 135.446 1068.61 135.793 1079.91C136.05 1085.88 137.559 1091.51 139.297 1096.74C141.202 1102.6 143.274 1109.08 142.448 1116.01C141.912 1121.51 139.729 1127.13 136.753 1132.28C132.632 1139.42 126.695 1146.04 118.319 1152.31C105.608 1162.42 89.9539 1170.3 77.2598 1176.72C74.2999 1178.18 71.9656 1179.47 69.0057 1180.94C54.3738 1188.88 38.5523 1196.14 21.4797 1203.73L20.6253 1204.29C16.1855 1206.49 11.3492 1208.45 6.90938 1210.65C8.72452 1211.17 10.9361 1211.92 12.9802 1212.04C16.3366 1210.81 19.5252 1208.95 22.8817 1207.71L23.5074 1207.54C40.1834 1199.72 56.2342 1192.07 71.2626 1184.36C73.597 1183.06 76.5567 1181.6 79.5166 1180.13C92.2107 1173.71 108.094 1165.44 121.43 1155.16C130.265 1148.1 136.43 1141.08 140.78 1133.55C143.985 1128 146.001 1121.76 146.765 1115.86C147.424 1108.3 145.58 1101.42 143.507 1094.94C141.77 1089.71 140.429 1084.7 139.943 1079.14C139.931 1069.08 142.298 1060.4 148.022 1050.49C149.396 1048.11 150.769 1045.73 152.768 1043.18C155.225 1039.84 158.537 1035.94 163.329 1031.3C207.703 989.245 267.784 965.772 325.592 942.572C348.294 933.472 370.141 924.938 391.028 915.318C405.599 908.397 419.147 901.415 431.048 894.539C459.977 877.402 481.996 855.747 498.648 827.821C513.24 803.463 523.424 773.918 530.347 737.202C539.653 688.115 541.134 636.096 542.324 585.496L542.615 584.078C542.983 577.945 543.122 572.21 543.094 565.848C544.959 504.006 554.616 452.479 572.54 406.782C571.808 405.302 570.451 403.989 569.491 402.905C563.751 416.511 558.971 431.199 555.214 445.95C545.851 482.314 540.621 521.594 539.111 567.251Z" fill="url(#paint8_linear_2154_4986)" fill-opacity="0.2"/>
<path d="M505.919 559.719L505.858 560.741C500.591 621.148 495.827 683.432 481.819 742.494C475.097 772.452 466.437 803.936 450.869 830.901C435.758 857.074 416.425 874.991 391.556 886.013C379.32 891.638 365.101 896.118 354.01 899.76C304.64 915.67 264.53 931.111 228.615 948.445C184.674 969.604 147.994 992.84 116.637 1019.68C110.594 1024.65 105.345 1030.08 101.347 1035.17C94.9528 1042.58 90.0384 1049.26 85.6884 1056.8C81.5673 1063.94 78.6969 1070.74 77.2455 1077.83C75.5037 1086.34 76.2638 1094.19 77.253 1101.63C77.9683 1106.8 78.6842 1111.97 78.3775 1117.08C77.9929 1126.91 75.3964 1135.98 70.8174 1143.91C60.5147 1161.76 41.3204 1173.94 20.7073 1185.83C9.66082 1192.15 -1.7821 1198.23 -12.8286 1204.54C-11.0134 1205.06 -9.19868 1205.58 -7.38354 1206.1C2.57959 1200.75 12.7716 1195 22.9637 1189.25C37.4279 1180.68 51.8927 1172.11 62.6204 1160.86C67.4119 1156.22 71.41 1151.13 74.3863 1145.98C79.4232 1137.25 82.2487 1127.78 82.6946 1116.93C82.8337 1111.2 82.3473 1105.63 81.632 1100.46C80.6428 1093.01 79.8212 1086.19 81.7305 1078.31C83.3496 1071.84 85.5938 1065.2 89.486 1058.46C93.607 1051.33 98.5215 1044.64 104.687 1037.63C108.685 1032.54 114.331 1027.34 119.748 1022.53C192.381 960.835 283.691 926.312 355.869 902.95C366.961 899.307 381.18 894.826 393.813 889.43C419.536 877.845 439.724 859.363 455.064 832.794C455.75 831.604 456.666 830.018 457.353 828.828C471.671 802.198 480.33 770.715 486.7 743.198C500.311 683.907 505.701 621.455 510.572 560.818L510.633 559.797C516.145 495.301 523.183 432.743 549.5 377.087C548.539 376.003 547.578 374.92 546.618 373.836C537.214 393.787 529.336 415.675 523.379 439.73C513.206 479.328 508.876 520.713 505.919 559.719Z" fill="url(#paint9_linear_2154_4986)" fill-opacity="0.2"/>
<path d="M467.884 530.35C465.09 583.725 459.439 653.957 443.98 720.112C436.052 753.075 428.018 784.391 411.824 811.524C397.461 835.485 377.306 846.584 350.912 855.667C339.821 859.309 328.333 862.723 316.845 866.136L312.466 867.31C271.518 879.623 233.101 897.626 194.316 921.762C161.908 942.178 129.422 967.308 91.2744 1001.33C83.9195 1007.66 78.8993 1012.69 74.1078 1017.33C62.0677 1029.94 51.1108 1041.59 43.0976 1055.47C42.1818 1057.05 41.2661 1058.64 40.3503 1060.23C34.2749 1072.58 32.1203 1084.55 29.9042 1097.55C28.6817 1104.25 27.8558 1111.17 26.2367 1117.64C23.5791 1127.74 20.1899 1136.36 15.6109 1144.29C6.91084 1159.36 -6.38032 1172.3 -25.6361 1185.51C-29.9083 1188.33 -34.8065 1191.32 -40.1621 1195.1C-38.347 1195.62 -37.1568 1196.3 -35.3417 1196.82C-31.0695 1194 -27.0266 1191.58 -23.3799 1188.93C-8.62528 1178.94 1.97991 1169.73 10.2056 1159.14C13.5172 1155.24 16.6615 1150.71 19.18 1146.35C23.9879 1138.02 27.6059 1129.01 30.2634 1118.91C32.1115 1112.04 32.9375 1105.12 34.1601 1098.42C36.1472 1085.82 38.3019 1073.85 43.9194 1062.29C44.8352 1060.7 45.7512 1059.11 46.438 1057.92C54.2223 1044.44 64.5532 1032.96 76.5932 1020.35C80.9882 1015.48 86.4056 1010.68 93.3639 1004.12C149.93 953.767 220.317 898.705 312.846 871.23L317.225 870.057C328.713 866.644 340.201 863.23 351.293 859.587C378.312 850.336 399.718 838.903 414.767 813.752C414.996 813.356 415.454 812.562 415.683 812.166C431.481 784.804 439.515 753.488 447.213 720.922C462.901 654.37 468.324 584.536 470.95 530.535C474.663 461.828 480.695 395.517 511.452 337.665C510.491 336.582 509.302 335.895 508.341 334.812C496.542 357.08 487.289 381.348 481.087 409.491C472.959 449.212 470.047 490.886 467.884 530.35Z" fill="url(#paint10_linear_2154_4986)" fill-opacity="0.2"/>
<path d="M434.086 365.445C423.852 406.065 420.985 450.411 419.112 488.456C416.469 546.149 411.17 613.939 395.376 678.843C387.448 711.806 378.559 743.686 361.801 769.965C347.729 792.507 327.177 803.377 300.387 812.231C295.154 813.969 289.921 815.706 285.085 817.672L284.459 817.84C277.746 820.309 270.636 822.549 264.152 824.622C184.742 852.269 133.087 909.686 78.3482 970.612L70.8704 978.985C64.0797 986.167 59.2272 991.825 55.2288 996.919L54.771 997.712C43.524 1010.78 32.4445 1024.48 22.9514 1039.09C14.6029 1051.72 10.5713 1064.19 6.47873 1077.69C4.7534 1082.51 3.1957 1087.96 1.24142 1093.17C-1.91896 1101.4 -5.70497 1109.79 -10.055 1117.32C-22.1893 1138.34 -39.769 1157.8 -62.5653 1175.3C-65.1286 1176.99 -67.5241 1179.31 -70.0874 1181C-68.8978 1181.69 -67.083 1182.21 -65.8933 1182.9C-63.9554 1181.37 -62.0176 1179.85 -60.0797 1178.32C-37.2835 1160.82 -19.2459 1140.57 -6.88264 1119.15C-2.30363 1111.22 1.48226 1102.83 4.87158 1094.21C6.82586 1089 8.3839 1083.55 10.3382 1078.33C14.5984 1065.46 18.6294 1052.98 26.3523 1040.52C35.6166 1026.31 46.6962 1012.61 57.7142 999.94L58.172 999.147C62.5669 994.282 67.42 988.624 73.8141 981.212L81.2915 972.84C135.801 912.311 187.228 855.29 265.387 827.978C272.1 825.509 279.21 823.269 285.923 820.8C291.156 819.062 296.388 817.325 301.621 815.588C317.32 810.376 328.076 805.482 337.475 799.276C349.209 791.775 358.166 782.67 365.202 771.399C366.118 769.813 367.263 767.83 368.179 766.244C383.061 740.468 391.43 710.404 399.067 678.86C415.09 613.559 419.994 545.539 422.865 487.45C425.998 421.58 431.756 352.997 463.809 297.48C464.038 297.083 464.496 296.29 464.725 295.893C463.535 295.206 462.574 294.123 461.384 293.437C450.211 315.537 441.02 338.782 434.086 365.445Z" fill="url(#paint11_linear_2154_4986)" fill-opacity="0.2"/>
<path d="M-90.7994 1163.76C-55.8732 1138.98 -30.9389 1113.19 -15.7056 1084.98C-11.1266 1077.05 -7.73729 1068.43 -4.34796 1059.81C-0.958639 1051.19 2.43079 1042.58 7.00977 1034.64C15.5422 1018.95 25.6611 1004.17 35.5508 989.789C38.0079 986.449 40.2975 982.483 42.7546 979.143C46.3564 973.82 50.1874 968.1 53.7892 962.778L56.4752 959.041C63.4499 948.792 70.0282 938.314 76.3774 928.233C112.809 871.542 150.385 812.869 214.526 783.28C224.427 778.951 236.038 773.494 247.19 768.83C261.928 762.534 274.517 754.468 285.351 744.861C295.33 735.818 303.952 725.463 311.675 713.002C325.351 690.231 334.1 664.087 342.821 631.582C359.973 567.99 365.898 500.032 369.562 442.401C373.701 380.284 380.236 315.85 409.77 264.695C410.228 263.902 410.915 262.712 411.372 261.919C410.579 261.461 409.786 261.004 408.993 260.546C408.597 260.317 408.2 260.088 407.804 259.859C407.346 260.652 406.888 261.445 406.201 262.634C396.356 279.686 388.204 299.301 382.37 321.312C371.572 361.078 368.034 402.92 365.474 442.155C361.81 499.786 355.717 567.119 338.794 630.314C330.364 661.401 322.301 686.355 309.938 707.769C294.369 734.735 274.013 752.592 245.559 765.244C234.406 769.909 222.796 775.366 212.665 780.092C183.357 793.308 157.081 814.092 131.963 842.946C109.698 868.689 90.7111 897.911 72.5792 926.569C66.2299 936.651 59.0263 947.296 52.6771 957.377L50.2202 960.717C46.6183 966.04 42.7875 971.759 39.1856 977.082C36.7285 980.422 34.4389 984.388 31.9818 987.728C22.0921 1002.11 12.1411 1017.51 3.21209 1032.98C-1.59583 1041.31 -4.98537 1049.93 -8.3747 1058.54C-11.5351 1066.76 -15.321 1075.15 -19.2745 1082.92C-34.2789 1110.74 -58.5879 1136.36 -93.0562 1160.34C-95.6196 1162.03 -98.183 1163.73 -100.746 1165.42L-101.601 1165.98C-100.411 1166.67 -98.8248 1167.59 -97.6352 1168.27C-95.3008 1166.98 -92.9662 1165.68 -90.7994 1163.76Z" fill="url(#paint12_linear_2154_4986)" fill-opacity="0.2"/>
<path d="M-17.4943 1053.28C-5.81795 1033.05 3.93702 1010.66 13.6307 989.293C18.1648 978.693 22.9281 967.695 27.8587 957.324C31.1253 950.75 34.4534 943.154 38.0103 935.161C43.6891 922.578 49.2003 909.369 55.108 896.389C66.8173 868.782 78.9844 840.382 93.8661 814.606C114.014 779.709 136.217 754.989 162.934 737.103L166.123 735.243C174.042 729.769 182.586 724.128 191.298 719.112C216.184 704.399 236.037 684.665 251.376 658.096L251.834 657.303C266.487 631.924 275.817 602.943 283.254 578.156C301.305 516.67 309.426 453.151 315.257 393.598C320.904 337.111 328.718 278.703 354.086 232.016C352.897 231.33 351.478 231.04 350.288 230.353C343.129 243.668 336.474 258.86 331.404 274.967C319.706 312.627 314.75 354.18 310.772 393.124C304.941 452.677 296.82 516.196 279.227 576.889C271.5 603.094 262.46 630.656 248.494 654.846C233.384 681.018 213.927 700.981 189.271 715.297C180.559 720.313 172.014 725.955 164.095 731.429L161.303 733.518C133.732 751.967 111.528 776.688 90.9228 812.377C75.8121 838.55 63.6448 866.95 51.9355 894.558C46.6533 907.37 40.7453 920.35 35.0665 932.934C31.5095 940.926 28.0138 947.897 24.9148 955.096C19.9842 965.468 15.2216 976.464 10.6875 987.065C1.3904 1008.66 -8.53264 1030.43 -20.209 1050.65C-23.6433 1056.6 -27.2446 1061.92 -30.8464 1067.25C-56.0593 1104.51 -94.8001 1131.31 -125.895 1150.37L-126.75 1150.93C-125.56 1151.62 -123.974 1152.54 -122.784 1153.22C-91.6889 1134.16 -53.1159 1106.73 -27.2775 1069.31C-24.5301 1064.55 -20.9286 1059.23 -17.4943 1053.28Z" fill="url(#paint13_linear_2154_4986)" fill-opacity="0.2"/>
<path d="M-38.1231 1055.11C-33.8958 1049.62 -29.6073 1043.11 -25.7151 1036.37C-11.2913 1011.39 -2.98366 982.343 5.26289 954.323C7.11095 947.458 8.89807 941.616 10.9137 935.377C13.6775 926.927 16.0447 918.248 18.0603 912.009C21.6336 900.325 24.8106 888.412 27.9874 876.499C40.5106 831.913 53.1566 785.283 76.0515 745.628C87.27 726.197 99.7227 710.123 114.723 696.048C122.139 688.697 130.181 681.18 138.39 674.287C160.225 655.698 178.157 633.798 192.413 608.189C204.38 586.547 214.883 561.945 225.48 528.937C244.14 470.974 254.64 408.829 263.476 350.482C270.264 305.757 277.816 255.129 298.058 211.827C296.639 211.537 295.45 210.85 294.031 210.56C290.016 219.345 286.398 228.36 282.947 238C270.457 275.202 264.082 316.465 259.221 349.612C250.385 407.958 239.717 469.478 221.057 527.44C210.169 561.867 199.437 586.866 187.074 608.28C173.108 632.469 156.092 652.783 135.111 670.808C126.902 677.7 118.86 685.218 111.215 692.965C96.215 707.041 83.3043 723.908 71.8568 743.736C48.504 784.184 35.4616 830.585 23.3349 875.399C20.3871 886.916 16.5848 898.996 13.2404 910.284C11.1634 917.544 8.62814 925.599 6.09328 933.652C4.07764 939.891 2.06212 946.129 0.443039 952.597C-7.80354 980.617 -16.5079 1009.43 -30.4738 1033.62C-34.3659 1040.36 -38.4257 1046.48 -42.6531 1051.97C-71.9542 1088.98 -113.135 1115.44 -150.089 1136.4C-148.899 1137.09 -147.542 1138.4 -146.353 1139.09C-126.365 1127.36 -109.963 1117.27 -96.0014 1106.82C-71.2223 1090.46 -52.972 1073.5 -38.1231 1055.11Z" fill="url(#paint14_linear_2154_4986)" fill-opacity="0.2"/>
<path d="M-37.8677 1023.54C-22.986 997.762 -17.7282 964.844 -13.1119 935.785C-11.8894 929.089 -10.8344 921.767 -9.61186 915.07L-8.38899 908.373C-7.22782 902.699 -6.46346 896.796 -5.30229 891.122C6.73899 827.223 20.1256 754.584 53.7811 696.291C60.1917 685.187 67.1666 674.938 74.7055 665.543L78.2458 661.243C83.7855 654.395 89.5543 647.151 95.4905 640.532C111.987 622.033 125.875 602.558 138.009 581.541C152.891 555.765 165.974 525.778 178.403 489.598C197.794 433.115 211.009 373.595 223.185 317.705L224.804 311.238C232.458 276.002 240.983 236.51 255.624 201.078C254.205 200.788 252.786 200.497 251.367 200.207C250.848 202.022 249.704 204.004 249.185 205.819C235.856 239.894 227.85 277.572 220.945 310.596L219.326 317.063C207.15 372.953 193.935 432.473 174.772 488.559C162.572 524.343 149.489 554.33 134.837 579.709C122.702 600.727 109.043 619.806 92.5468 638.305C86.6105 644.923 80.8418 652.168 75.3021 659.015L71.7617 663.316C64.2228 672.71 57.0192 683.356 50.6086 694.459C16.4952 753.545 2.87956 826.581 -9.16172 890.48C-10.3229 896.154 -11.3163 902.454 -12.4775 908.128L-13.6998 914.824C-14.9223 921.521 -15.9775 928.843 -17.2 935.54C-21.5873 964.202 -27.013 996.495 -41.6658 1021.87C-43.7263 1025.44 -46.4126 1029.18 -48.8696 1032.52C-79.1479 1072.14 -125.791 1100.73 -167.81 1124.06C-166.621 1124.74 -165.263 1126.05 -164.073 1126.74C-122.283 1103.81 -76.0365 1074.99 -45.5293 1034.98C-42.4467 1031.47 -40.1572 1027.5 -37.8677 1023.54Z" fill="url(#paint15_linear_2154_4986)" fill-opacity="0.2"/>
<path d="M-58.6072 1013.67C-44.8702 989.875 -42.2978 960.693 -39.3904 932.763C-38.319 921.749 -37.2476 910.735 -35.6121 900.576C-34.3282 892.858 -33.2737 885.536 -31.8222 878.443C-16.8331 803.028 2.8863 724 44.8903 653.078C51.3008 641.975 57.4213 632.29 63.4802 623.627C74.6823 607.887 84.6945 591.462 93.8525 575.599C114 540.703 130.517 504.768 143.756 465.354C160.445 416.299 174.878 363.828 187.07 304.246C194.847 266.966 203.539 228.099 218.515 193.918C217.096 193.628 215.678 193.338 214.259 193.048C213.282 195.656 212.076 198.661 210.473 201.437C197.435 234.093 189.552 269.726 182.418 303.147C169.829 362.499 155.793 415.199 138.936 463.628C125.301 502.813 109.409 538.58 89.2618 573.477C80.1038 589.339 69.9237 605.14 59.1181 621.108C52.8302 630.168 46.7101 639.852 40.2995 650.956C-1.93334 722.274 -21.4852 801.928 -36.7033 877.74C-38.1548 884.833 -39.2099 892.155 -40.4938 899.874C-42.1293 910.033 -43.2007 921.046 -44.2721 932.06C-46.9505 959.594 -49.6902 988.15 -62.9693 1011.15C-64.8009 1014.32 -67.0287 1017.27 -69.2569 1020.21C-98.8483 1058.64 -144.408 1086.27 -186.366 1108.57C-185.405 1109.66 -184.215 1110.34 -182.858 1111.66C-140.9 1089.35 -95.7371 1061.5 -66.1457 1023.06C-62.8955 1020.18 -60.4388 1016.84 -58.6072 1013.67Z" fill="url(#paint16_linear_2154_4986)" fill-opacity="0.2"/>
<path d="M-89.805 1003.59C-76.526 980.594 -72.3676 952.328 -68.4381 924.459C-66.7413 913.277 -65.1055 903.118 -62.8445 892.791C-61.622 886.095 -60.0033 879.628 -58.5518 872.535C-41.764 801.331 -22.7764 720.822 15.7648 649.487C18.7412 644.332 21.3212 638.948 24.0686 634.189C27.5028 628.241 30.4789 623.086 34.0808 617.763C41.3458 606.096 48.3818 594.825 54.7924 583.721C79.5189 540.894 97.0746 501.328 110.436 459.87C124.668 414.156 136.415 365.42 144.363 315.021C150.325 277.222 159.72 233.474 183.302 192.629C183.76 191.836 183.989 191.44 184.447 190.647C183.028 190.356 181.381 190.462 179.962 190.172C174.926 198.896 170.285 207.849 166.209 217.656C154.958 244.471 146.359 274.932 140.108 314.15C132.159 364.55 120.641 412.889 106.409 458.603C93.0479 500.061 75.7213 539.229 50.9948 582.057C44.8132 592.764 37.7769 604.035 30.5118 615.703C26.91 621.025 23.9337 626.18 20.4995 632.129C17.7521 636.887 14.7757 642.043 12.1959 647.427C-26.5743 719.158 -45.7904 800.063 -62.8071 871.663C-64.6552 878.527 -65.8779 885.224 -67.1004 891.92C-69.3614 902.247 -70.6006 912.636 -72.2975 923.817C-76.3945 951.061 -80.5528 979.326 -93.374 1001.53C-116.04 1040.79 -161.036 1069.27 -204.473 1092.31C-203.513 1093.39 -202.323 1094.08 -201.362 1095.16C-157.757 1072.75 -112.929 1043.65 -89.805 1003.59Z" fill="url(#paint17_linear_2154_4986)" fill-opacity="0.2"/>
<path d="M-123.846 982.884C-122.473 980.505 -120.473 977.958 -119.099 975.578C-106.965 954.561 -100.154 929.942 -93.571 905.719C-91.7843 899.877 -90.3944 893.807 -88.6077 887.965C-87.7982 884.731 -86.5919 881.726 -85.7823 878.492L-85.5537 878.096C-84.9731 875.259 -83.7667 872.254 -83.1861 869.416C-77.8261 851.89 -73.2591 833.906 -68.7535 816.944C-53.5113 761.239 -37.9177 703.093 -11.3881 650.731C-5.31273 638.377 0.640041 628.067 6.53138 618.778C12.4227 609.49 17.0014 601.559 21.5803 593.628C47.6806 548.421 64.1534 509.816 75.3029 467.61C86.6814 425.007 94.2003 381.762 97.7375 339.919C101.107 297.451 112.179 259.959 131.64 226.252C138.737 213.959 147.253 201.955 157.02 189.617C155.373 189.723 153.329 189.601 151.681 189.707C142.372 201.252 134.71 212.691 127.842 224.587C123.721 231.725 120.225 238.696 116.501 246.062C103.311 274.402 95.735 304.924 93.0237 339.842C89.7154 381.288 82.4254 424.136 71.0469 466.739C60.1263 508.549 43.2575 546.925 17.3862 591.735C13.0362 599.269 8.22802 607.598 2.33669 616.886C-3.78359 626.571 -9.33948 637.109 -15.8114 649.235C-42.57 701.993 -58.5606 759.911 -73.6351 816.242C-78.3697 833.6 -83.3332 851.355 -88.0677 868.714C-89.0449 871.322 -89.6254 874.159 -90.3736 876.371L-90.6022 876.767C-91.4117 880 -92.4507 883.631 -93.6568 886.636C-95.4434 892.478 -96.8334 898.549 -98.62 904.391C-104.974 928.217 -111.785 952.836 -123.691 973.457C-125.064 975.836 -126.438 978.216 -128.208 980.366C-153.421 1017.63 -193.306 1046.41 -229.925 1068.63C-228.964 1069.71 -228.003 1070.79 -227.043 1071.88C-216.622 1065.73 -207.452 1059.92 -199.075 1053.66C-164.668 1030.69 -140.314 1007.74 -123.846 982.884Z" fill="url(#paint18_linear_2154_4986)" fill-opacity="0.2"/>
<path d="M-135.088 930.921C-126.616 916.249 -118.648 899.7 -111.64 882.068C-109.228 876.058 -107.045 870.445 -105.091 865.229C-94.7389 836.309 -86.766 806.015 -78.8546 776.744C-67.9341 734.934 -56.0978 691.538 -37.291 651.637C-31.4446 639.679 -25.8888 629.141 -19.9974 619.852C-15.8763 612.714 -11.5876 606.202 -8.1534 600.254C17.4889 555.84 31.9623 519.782 39.5264 479.206C46.8452 442.719 50.137 404.965 49.5083 367.59C48.712 329.591 57.7231 295.666 77.8706 260.77C88.8602 241.735 103.603 221.696 124.097 198.103C126.722 195.389 128.951 192.445 131.575 189.73C129.928 189.836 127.884 189.713 126.007 190.216C124.466 191.97 122.924 193.724 121.154 195.875C100.43 219.864 85.6878 239.904 74.6982 258.938C71.7219 264.093 68.5168 269.645 65.937 275.029C51.4354 304.726 44.8815 335.309 45.359 368.367C45.9877 405.741 42.5282 442.87 35.835 479.19C28.1032 519.139 13.859 554.801 -11.5544 598.818C-15.2176 605.163 -18.8808 611.508 -23.3984 618.417C-29.2897 627.705 -34.8462 638.245 -40.6926 650.203C-60.1248 690.271 -71.5645 733.896 -82.714 776.102C-90.6254 805.373 -98.3691 835.27 -108.721 864.19C-110.675 869.407 -112.858 875.019 -115.271 881.029C-122.278 898.661 -130.018 914.814 -138.489 929.487C-144.671 940.194 -151.416 950.046 -157.872 958.479C-183.007 991.025 -219.413 1016.53 -255.574 1037.96C-254.613 1039.04 -253.652 1040.12 -253.088 1040.98C-216.698 1019.16 -180.292 993.65 -154.532 960.937C-147.847 952.106 -141.498 942.025 -135.088 930.921Z" fill="url(#paint19_linear_2154_4986)" fill-opacity="0.2"/>
<path d="M-182.251 937.522C-178.543 933.847 -175.461 930.339 -171.753 926.664L-171.524 926.268C-157.088 911.338 -143.339 897.598 -133.037 879.753C-131.892 877.771 -130.976 876.184 -129.831 874.201C-127.251 868.817 -124.671 863.433 -122.32 858.445C-108.031 825.454 -100.545 789.592 -92.9525 755.378C-85.2986 720.142 -77.3542 683.487 -62.2107 649.931C-56.9898 638.141 -51.6625 627.998 -46.6256 619.274C-43.1914 613.326 -39.8189 608.4 -36.8426 603.245C-16.0082 567.159 -1.09367 534 4.04624 489.381C7.47286 459.635 7.16301 427.203 3.46813 389.645C0.047112 354.359 7.97512 321.396 28.3516 286.103C41.1727 263.896 57.624 242.728 78.409 217.717C85.0321 209.908 92.1135 201.306 98.9655 193.102C96.6925 193.375 95.0447 193.482 92.7716 193.756C86.6064 200.771 80.6089 208.412 74.6727 215.03C55.8868 237.495 38.352 259.624 24.3861 283.813C22.0966 287.779 20.0356 291.348 18.1427 295.543C2.09979 326.993 -4.28667 358.202 -1.07815 390.193C2.84568 427.355 2.7593 459.557 -0.667323 489.303C-5.34933 533.129 -20.0346 565.891 -40.64 601.58C-43.6163 606.736 -46.593 611.891 -50.4238 617.61C-56.0862 626.502 -61.017 636.874 -66.2379 648.665C-81.6104 682.617 -89.1581 719.5 -97.041 755.133C-104.634 789.347 -111.891 824.812 -125.951 857.407C-128.302 862.395 -130.485 868.007 -133.461 873.162C-134.377 874.749 -135.522 876.732 -136.438 878.318C-146.511 895.766 -160.26 909.506 -174.467 924.04C-178.175 927.715 -181.884 931.39 -185.195 935.295C-212.129 963.629 -245.849 985.402 -280.301 1005.7C-279.34 1006.78 -279.005 1008.03 -278.044 1009.11C-267.623 1002.97 -256.577 996.657 -246.323 989.887C-220.003 971.773 -199.083 954.77 -182.251 937.522Z" fill="url(#paint20_linear_2154_4986)" fill-opacity="0.2"/>
<path d="M-186.575 900.138C-169.548 889.877 -153.603 880.577 -141.759 860.978C-138.783 855.823 -135.806 850.668 -133.456 845.68C-117.458 811.56 -112.686 773.074 -107.808 736.235C-103.8 703.652 -99.3355 670.277 -87.6712 639.999C-83.3047 628.773 -79.0609 619.591 -74.482 611.66L-74.0242 610.867C-72.8794 608.884 -71.7347 606.902 -70.5899 604.919C-61.203 588.66 -51.2965 570.586 -44.2275 551.932C-36.1814 530.669 -31.8886 510.413 -31.3321 487.469C-30.1785 457.998 -34.3026 427.593 -38.0917 398.44L-38.9745 392.643C-43.4176 357.296 -35.8865 324.104 -14.8231 287.621C0.0585577 261.845 19.7598 237.795 38.3781 214.706L38.8364 213.912C43.0637 208.421 47.4585 203.557 51.6858 198.066C49.4128 198.34 47.5366 198.843 45.2636 199.117C41.952 203.021 38.411 207.322 35.0995 211.226L34.6417 212.019C15.169 235.673 -4.53225 259.723 -19.6429 285.896C-21.4745 289.068 -23.0772 291.844 -24.9088 295.017C-33.0448 310.94 -39.0755 325.964 -42.0398 341.172C-45.7523 358.592 -46.5659 375.57 -44.5426 393.129L-43.6597 398.926C-39.8706 428.079 -36.143 458.254 -37.0676 487.33C-38.6386 534.009 -55.3686 566.649 -75.7451 601.942C-76.8898 603.925 -78.2632 606.304 -79.4079 608.287L-79.8663 609.081C-84.4452 617.012 -88.9178 626.59 -93.5132 638.213C-105.407 668.887 -109.704 702.888 -113.711 735.471C-118.589 772.309 -123.132 810.399 -138.672 843.726C-141.023 848.713 -144 853.869 -146.747 858.628C-158.133 877.433 -173.848 886.337 -190.25 896.43C-196.628 900.15 -203.006 903.871 -209.216 908.216C-244.768 933.162 -274.841 952.281 -304.166 969.189C-303.205 970.273 -302.87 971.524 -301.91 972.608C-272.584 955.7 -242.282 936.183 -206.731 911.238C-199.331 907.579 -192.953 903.859 -186.575 900.138Z" fill="url(#paint21_linear_2154_4986)" fill-opacity="0.2"/>
<path d="M-222.913 883.39C-215.972 880.525 -208.862 878.284 -201.752 876.043C-178.944 868.591 -159.493 862.374 -147.816 842.15C-147.129 840.96 -146.442 839.771 -145.527 838.185C-142.26 831.611 -140.685 822.473 -138.776 814.587L-138.486 813.169C-132.803 786.841 -133.129 758.1 -133.12 730.611C-133.168 690.399 -133.323 648.541 -116.806 612.606L-116.576 612.209C-113.249 604.613 -109.463 596.224 -104.716 588.919C-101.343 583.992 -98.3669 578.837 -95.6195 574.078C-86.9194 559.009 -80.554 545.236 -75.8358 531.57C-69.1021 511.664 -65.6632 491.971 -64.8777 468.631C-64.2314 451.028 -65.1715 432.509 -65.9437 414.614C-66.6097 398.368 -67.047 381.725 -67.0875 365.311C-66.5102 324.931 -55.6669 287.834 -33.2299 248.972C-26.3614 237.076 -18.471 225.241 -10.1839 213.635C-12.2893 214.534 -14.7912 215.204 -16.8967 216.104C-24.268 226.124 -30.846 236.602 -36.7987 246.912C-59.2357 285.774 -70.5981 324.686 -71.1755 365.065C-71.5315 381.25 -70.6977 398.122 -70.0317 414.369C-69.2594 432.263 -68.4871 450.157 -69.1335 467.761C-69.9847 505.867 -78.9799 536.1 -99.3564 571.393C-102.104 576.151 -104.851 580.91 -107.995 585.439C-112.97 593.141 -116.527 601.134 -120.084 609.126L-120.313 609.523C-137.289 646.251 -136.967 688.736 -137.147 729.344C-137.156 756.833 -137.226 785.344 -142.68 811.275L-142.971 812.694C-144.651 820.184 -146.622 829.092 -149.263 835.498C-149.95 836.688 -150.636 837.877 -151.323 839.067C-162.084 857.705 -181.14 864.152 -203.094 871.04C-210.203 873.28 -217.312 875.52 -224.254 878.386C-246.956 887.486 -268.653 900.338 -289.724 913.024C-300.145 919.168 -310.795 925.709 -321.612 931.624C-321.277 932.875 -320.316 933.959 -319.981 935.21C-309.163 929.294 -298.117 922.982 -287.467 916.441C-266.686 905.174 -244.99 892.322 -222.913 883.39Z" fill="url(#paint22_linear_2154_4986)" fill-opacity="0.2"/>
<path d="M-303.837 881.609C-280.951 869.443 -257.439 857.109 -232.648 850.801L-227.644 849.46C-209.733 844.996 -196.826 841.873 -182.162 826.547C-176.683 820.721 -171.998 814.438 -167.877 807.3C-161.695 796.593 -157.497 784.741 -154.365 770.159C-152.975 764.088 -152.316 756.537 -151.658 748.986C-150.889 729.338 -154.314 707.797 -158.075 685.006C-164.317 645.448 -170.894 604.64 -154.728 571.145C-152.835 566.951 -150.546 562.985 -148.256 559.02C-146.654 556.244 -145.28 553.864 -143.51 551.714C-138.824 545.43 -134.536 538.918 -130.644 532.177C-112.786 501.246 -104.858 468.282 -98.1479 428.271C-95.2898 411.415 -92.9961 393.706 -90.5346 376.621C-87.3085 353.633 -84.25 330.019 -80.0018 307.093C-74.7151 280.536 -67.6745 255.52 -57.4003 231.314C-59.5057 232.213 -60.9859 232.946 -63.0913 233.845C-72.2822 257.09 -79.0323 280.687 -83.8611 306.451C-88.1093 329.378 -91.397 353.388 -94.3942 375.979C-96.6267 392.667 -98.9206 410.377 -101.779 427.233C-108.259 466.848 -116.354 499.185 -133.983 529.719C-137.647 536.064 -141.936 542.577 -146.621 548.86C-148.391 551.01 -149.765 553.39 -151.596 556.562C-153.886 560.528 -156.008 565.119 -158.297 569.085C-174.921 603.372 -168.405 645.202 -161.996 685.386C-158.235 708.178 -154.977 729.093 -155.746 748.741C-156.176 755.895 -157.001 762.82 -157.995 769.12C-163.097 792.611 -171.692 809.328 -185.044 823.297C-199.251 837.831 -211.532 840.786 -228.42 845.311C-230.068 845.417 -231.548 846.149 -233.424 846.652C-258.841 853.127 -282.352 865.461 -305.635 877.398C-313.264 881.453 -320.893 885.508 -328.689 888.938C-331.649 890.401 -334.838 892.262 -337.798 893.726C-337.463 894.977 -336.731 896.456 -336.395 897.707C-333.207 895.847 -329.85 894.612 -326.661 892.752C-319.49 889.49 -311.465 885.664 -303.837 881.609Z" fill="url(#paint23_linear_2154_4986)" fill-opacity="0.2"/>
<path d="M-230.586 795.949C-227.794 793.86 -224.834 792.396 -222.042 790.307C-204.098 778.46 -188.49 767.909 -179.561 752.444C-173.837 742.53 -170.66 730.617 -170.823 716.247C-170.684 710.511 -171.109 703.921 -172.327 696.873C-174.641 680.733 -180.752 662.928 -186.802 644.101C-199.237 605.198 -213.41 561.061 -198.602 526.254C-196.709 522.06 -194.588 517.469 -191.84 512.711C-190.696 510.728 -189.78 509.142 -188.467 507.784C-183.324 500.708 -178.577 493.402 -173.999 485.471C-154.309 451.368 -142.277 414.959 -129.725 376.734L-128.229 372.311C-121.205 350.987 -114.577 329.434 -108.178 308.277L-107.949 307.88C-101.612 287.746 -95.2752 267.612 -88.7091 247.081C-90.418 248.21 -92.294 248.712 -94.0029 249.84C-100.279 268.953 -106.158 288.294 -111.976 306.613L-112.205 307.01C-118.604 328.166 -125.628 349.49 -132.423 370.417L-133.919 374.841C-146.471 413.065 -158.274 449.078 -177.735 482.785C-182.085 490.319 -186.832 497.625 -191.975 504.702C-192.891 506.288 -194.432 508.042 -195.577 510.024C-198.324 514.783 -200.675 519.77 -202.568 523.965C-209.682 539.949 -210.848 559.369 -207.545 582.954C-204.058 603.473 -197.734 624.572 -190.952 644.878C-184.902 663.705 -179.187 681.28 -176.645 697.024C-175.426 704.072 -174.772 710.265 -175.308 715.772C-175.709 729.288 -178.428 740.408 -183.694 749.529C-192.165 764.201 -206.69 773.791 -224.863 786.035C-227.426 787.727 -230.218 789.816 -233.407 791.677C-266.334 813.907 -300.144 830.341 -334.976 846.714C-340.667 849.244 -345.961 852.004 -351.256 854.763C-350.92 856.014 -350.585 857.266 -349.854 858.746C-344.33 855.59 -338.64 853.059 -332.72 850.132C-297.949 834.782 -263.513 818.18 -230.586 795.949Z" fill="url(#paint24_linear_2154_4986)" fill-opacity="0.2"/>
<path d="M-231.794 747.67C-216.352 736.493 -204.955 727.741 -198.315 716.241L-198.086 715.844C-191.446 704.344 -190.252 691.286 -194.197 671.56C-195.309 666.16 -196.985 659.906 -199.393 652.171C-204.102 638.348 -210.794 623.381 -218.218 606.934C-237.06 565.389 -258.432 518.153 -245.193 478.739C-243.177 472.5 -240.765 466.491 -237.102 460.146L-236.644 459.353C-233.439 453.801 -230.234 448.25 -226.8 442.302C-200.013 395.905 -177.771 350.056 -157.133 306.983C-152.66 297.404 -148.188 287.826 -143.944 278.644C-146.279 279.94 -148.445 281.861 -150.779 283.157C-154.107 290.753 -157.603 297.723 -161.327 305.09C-181.966 348.163 -204.207 394.012 -230.765 440.012C-233.97 445.564 -237.404 451.511 -240.609 457.063C-244.502 463.804 -247.372 470.607 -249.616 477.242C-263.145 518.075 -241.606 565.937 -222.2 608.336C-214.944 624.158 -208.251 639.124 -203.542 652.947C-201.302 660.056 -199.626 666.311 -198.514 671.712C-194.904 690.186 -196.038 702.223 -202.219 712.93L-202.448 713.326C-208.401 723.636 -219.799 732.388 -234.614 743.398C-266.81 767.109 -301.765 785.526 -343.265 807.037C-349.185 809.964 -355.333 813.287 -360.856 816.443C-360.521 817.694 -360.415 819.342 -360.08 820.593C-353.931 817.269 -347.782 813.946 -341.634 810.622C-299.173 790.194 -264.614 771.548 -231.794 747.67Z" fill="url(#paint25_linear_2154_4986)" fill-opacity="0.2"/>
<defs>
<linearGradient id="paint0_linear_2154_4986" x1="579.418" y1="983.36" x2="504.81" y2="970.563" gradientUnits="userSpaceOnUse">
<stop stop-color="#F2D57E"/>
<stop offset="1" stop-color="#A7F2D7"/>
</linearGradient>
<linearGradient id="paint1_linear_2154_4986" x1="610.14" y1="919.524" x2="515.199" y2="896.676" gradientUnits="userSpaceOnUse">
<stop stop-color="#F2D57E"/>
<stop offset="1" stop-color="#A7F2D7"/>
</linearGradient>
<linearGradient id="paint2_linear_2154_4986" x1="623.78" y1="869.257" x2="510.847" y2="839.094" gradientUnits="userSpaceOnUse">
<stop stop-color="#F2D57E"/>
<stop offset="1" stop-color="#A7F2D7"/>
</linearGradient>
<linearGradient id="paint3_linear_2154_4986" x1="613.474" y1="828.738" x2="366.749" y2="800.977" gradientUnits="userSpaceOnUse">
<stop stop-color="#F2D57E"/>
<stop offset="1" stop-color="#A7F2D7"/>
</linearGradient>
<linearGradient id="paint4_linear_2154_4986" x1="596.375" y1="795.306" x2="216.228" y2="802.3" gradientUnits="userSpaceOnUse">
<stop stop-color="#F2D57E"/>
<stop offset="1" stop-color="#A7F2D7"/>
</linearGradient>
<linearGradient id="paint5_linear_2154_4986" x1="591.008" y1="749.5" x2="145.446" y2="771.934" gradientUnits="userSpaceOnUse">
<stop stop-color="#F2D57E"/>
<stop offset="1" stop-color="#A7F2D7"/>
</linearGradient>
<linearGradient id="paint6_linear_2154_4986" x1="654.895" y1="565.819" x2="177.333" y2="535.649" gradientUnits="userSpaceOnUse">
<stop stop-color="#F2D57E"/>
<stop offset="1" stop-color="#A7F2D7"/>
</linearGradient>
<linearGradient id="paint7_linear_2154_4986" x1="637.248" y1="535.805" x2="171.192" y2="494.343" gradientUnits="userSpaceOnUse">
<stop stop-color="#F2D57E"/>
<stop offset="1" stop-color="#A7F2D7"/>
</linearGradient>
<linearGradient id="paint8_linear_2154_4986" x1="614.231" y1="508.243" x2="165.93" y2="456.861" gradientUnits="userSpaceOnUse">
<stop stop-color="#F2D57E"/>
<stop offset="1" stop-color="#A7F2D7"/>
</linearGradient>
<linearGradient id="paint9_linear_2154_4986" x1="593.239" y1="481.745" x2="170.233" y2="420.262" gradientUnits="userSpaceOnUse">
<stop stop-color="#F2D57E"/>
<stop offset="1" stop-color="#A7F2D7"/>
</linearGradient>
<linearGradient id="paint10_linear_2154_4986" x1="564.928" y1="450.107" x2="170.093" y2="379.826" gradientUnits="userSpaceOnUse">
<stop stop-color="#F2D57E"/>
<stop offset="1" stop-color="#A7F2D7"/>
</linearGradient>
<linearGradient id="paint11_linear_2154_4986" x1="521.929" y1="412.242" x2="185.284" y2="333.371" gradientUnits="userSpaceOnUse">
<stop stop-color="#F2D57E"/>
<stop offset="1" stop-color="#A7F2D7"/>
</linearGradient>
<linearGradient id="paint12_linear_2154_4986" x1="463.845" y1="376.472" x2="183.334" y2="296.339" gradientUnits="userSpaceOnUse">
<stop stop-color="#F2D57E"/>
<stop offset="1" stop-color="#A7F2D7"/>
</linearGradient>
<linearGradient id="paint13_linear_2154_4986" x1="396.9" y1="340.733" x2="146.386" y2="262.518" gradientUnits="userSpaceOnUse">
<stop stop-color="#F2D57E"/>
<stop offset="1" stop-color="#A7F2D7"/>
</linearGradient>
<linearGradient id="paint14_linear_2154_4986" x1="346.282" y1="322.777" x2="80.2673" y2="244.186" gradientUnits="userSpaceOnUse">
<stop stop-color="#F2D57E"/>
<stop offset="1" stop-color="#A7F2D7"/>
</linearGradient>
<linearGradient id="paint15_linear_2154_4986" x1="320.585" y1="320.577" x2="5.22222" y2="242.74" gradientUnits="userSpaceOnUse">
<stop stop-color="#F2D57E"/>
<stop offset="1" stop-color="#A7F2D7"/>
</linearGradient>
<linearGradient id="paint16_linear_2154_4986" x1="292.315" y1="317.221" x2="-47.5219" y2="242.545" gradientUnits="userSpaceOnUse">
<stop stop-color="#F2D57E"/>
<stop offset="1" stop-color="#A7F2D7"/>
</linearGradient>
<linearGradient id="paint17_linear_2154_4986" x1="258.331" y1="312.439" x2="-79.5752" y2="239.648" gradientUnits="userSpaceOnUse">
<stop stop-color="#F2D57E"/>
<stop offset="1" stop-color="#A7F2D7"/>
</linearGradient>
<linearGradient id="paint18_linear_2154_4986" x1="221.05" y1="304.087" x2="-94.9025" y2="231.512" gradientUnits="userSpaceOnUse">
<stop stop-color="#F2D57E"/>
<stop offset="1" stop-color="#A7F2D7"/>
</linearGradient>
<linearGradient id="paint19_linear_2154_4986" x1="185.86" y1="296.421" x2="-115.882" y2="225.497" gradientUnits="userSpaceOnUse">
<stop stop-color="#F2D57E"/>
<stop offset="1" stop-color="#A7F2D7"/>
</linearGradient>
<linearGradient id="paint20_linear_2154_4986" x1="155.219" y1="298.145" x2="-160.149" y2="231.976" gradientUnits="userSpaceOnUse">
<stop stop-color="#F2D57E"/>
<stop offset="1" stop-color="#A7F2D7"/>
</linearGradient>
<linearGradient id="paint21_linear_2154_4986" x1="123.805" y1="308.41" x2="-227.466" y2="254.506" gradientUnits="userSpaceOnUse">
<stop stop-color="#F2D57E"/>
<stop offset="1" stop-color="#A7F2D7"/>
</linearGradient>
<linearGradient id="paint22_linear_2154_4986" x1="86.9368" y1="332.919" x2="-294.356" y2="300.435" gradientUnits="userSpaceOnUse">
<stop stop-color="#F2D57E"/>
<stop offset="1" stop-color="#A7F2D7"/>
</linearGradient>
<linearGradient id="paint23_linear_2154_4986" x1="40.7711" y1="346.083" x2="-326.765" y2="322.995" gradientUnits="userSpaceOnUse">
<stop stop-color="#F2D57E"/>
<stop offset="1" stop-color="#A7F2D7"/>
</linearGradient>
<linearGradient id="paint24_linear_2154_4986" x1="-0.28197" y1="351.659" x2="-333.666" y2="328.217" gradientUnits="userSpaceOnUse">
<stop stop-color="#F2D57E"/>
<stop offset="1" stop-color="#A7F2D7"/>
</linearGradient>
<linearGradient id="paint25_linear_2154_4986" x1="-54.1866" y1="377.271" x2="-376.313" y2="370.939" gradientUnits="userSpaceOnUse">
<stop stop-color="#F2D57E"/>
<stop offset="1" stop-color="#A7F2D7"/>
</linearGradient>
</defs>
</svg>
