<svg width="87" height="87" viewBox="0 0 87 87" fill="none" xmlns="http://www.w3.org/2000/svg">
<mask id="mask0_2154_5054" style="mask-type:alpha" maskUnits="userSpaceOnUse" x="0" y="0" width="87" height="87">
<rect x="0.741211" y="0.945312" width="86" height="86" fill="#D9D9D9"/>
</mask>
<g mask="url(#mask0_2154_5054)">
<path d="M68.5583 56.0682C71.2515 55.531 73.9239 55.1706 76.5575 55.8684C80.9561 57.0374 84.2303 61.1883 84.9113 65.644C85.5923 70.0997 83.9223 74.7041 81.0217 78.1486C78.1211 81.5932 74.0915 83.9729 69.8367 85.5351C65.2669 87.2194 59.7137 87.8825 55.7926 84.9494C53.6741 83.3553 52.3397 80.919 50.2367 79.3053C47.8076 77.4411 44.5915 76.8787 41.5333 76.9421C38.4725 77.013 35.4573 77.6446 32.4107 77.9132C25.5067 78.5125 18.3149 77.1163 12.5018 73.3317C6.68874 69.547 2.40262 63.2677 1.75093 56.4272C1.19627 50.6682 3.42061 44.5116 7.8485 40.708C12.448 36.7564 20.1102 36.6456 25.7862 38.0364C30.8695 39.2824 35.5478 41.8997 39.6579 45.1347C42.7925 47.611 45.6282 50.4495 48.8455 52.813C52.0628 55.1764 55.8029 57.0733 59.7922 57.2754C62.7257 57.4187 65.655 56.6476 68.5658 56.0709L68.5583 56.0682Z" fill="url(#paint0_linear_2154_5054)"/>
<path d="M60.3994 6.49027C65.6015 3.93385 71.5673 4.10264 76.1796 9.51319C80.219 14.2456 81.2991 20.9485 81.1238 27.2707C80.9973 31.8429 80.2733 36.4977 78.2565 40.623C76.2325 44.7458 72.7916 48.2949 68.499 49.6878C61.3662 52.0028 53.3646 47.6228 49.9106 40.9515C46.4593 34.2727 46.9278 26.0002 49.4867 18.8126C51.3189 13.6826 55.5267 8.88524 60.3994 6.49027Z" fill="url(#paint1_linear_2154_5054)"/>
<path d="M69.7412 62.4668C69.7412 49.2036 59.0044 38.4668 45.7412 38.4668C32.478 38.4668 21.7412 49.2036 21.7412 62.4668H69.7412Z" stroke="#231D06" stroke-width="2.5" stroke-miterlimit="10"/>
<circle cx="45.7412" cy="20.9453" r="11.75" stroke="#231D06" stroke-width="2.5"/>
</g>
<defs>
<linearGradient id="paint0_linear_2154_5054" x1="11.0135" y1="42.9067" x2="32.4407" y2="101.729" gradientUnits="userSpaceOnUse">
<stop stop-color="#F2D57E"/>
<stop offset="1" stop-color="#A7F2D7"/>
</linearGradient>
<linearGradient id="paint1_linear_2154_5054" x1="54.5094" y1="11.9663" x2="81.6123" y2="36.8614" gradientUnits="userSpaceOnUse">
<stop stop-color="#F2D57E"/>
<stop offset="1" stop-color="#A7F2D7"/>
</linearGradient>
</defs>
</svg>
