<svg width="1096" height="144" viewBox="0 0 1096 144" fill="none" xmlns="http://www.w3.org/2000/svg">
<g opacity="0.3">
<path d="M207.348 -13.8903C257.974 -19.293 325.637 -26.0209 394.76 -30.4042C429.322 -32.5449 462.424 -34.4817 496.012 -34.3798C525.706 -34.2779 546.637 -31.6275 569.029 -27.55C578.278 -25.8171 587.527 -23.9822 596.776 -22.1473L600.184 -21.4337C633.286 -14.9097 670.281 -9.50703 713.118 -4.71597C749.14 -0.740402 789.543 2.72546 841.142 6.29327C850.878 7.00684 858.179 7.41459 864.994 7.82234C883.005 8.73978 899.556 9.55529 916.594 9.55529C918.541 9.55529 920.488 9.55529 922.435 9.55529C937.039 9.35141 949.208 8.43397 962.351 7.4146C969.166 6.90491 975.981 6.29328 982.796 5.88553C993.505 5.27391 1003.24 4.9681 1012.98 4.9681C1031.47 4.9681 1050.46 6.0894 1072.85 8.33203C1077.72 8.84171 1083.07 9.45335 1089.4 10.065C1088.92 9.65723 1088.91 9.35141 1088.43 8.94366C1083.56 8.43397 1079.18 7.92429 1074.8 7.51654C1057.76 5.7836 1043.64 4.76422 1029.53 4.35647C1024.17 4.1526 1018.33 4.05064 1012.98 4.05064C1002.75 4.05064 992.532 4.35648 981.823 4.9681C974.521 5.37585 967.706 5.98748 960.891 6.49716C948.234 7.51654 936.065 8.43395 922.435 8.63783C920.488 8.63783 918.54 8.63783 917.08 8.63783C900.529 8.63783 884.466 7.92429 866.455 7.00685C859.64 6.70104 852.337 6.19133 842.602 5.5797C766.177 0.27895 678.069 -7.16249 603.591 -21.9434L600.184 -22.657C590.935 -24.4919 581.685 -26.3267 572.437 -28.0597C549.558 -32.2391 527.653 -35.0934 496.499 -35.1953C496.012 -35.1953 495.038 -35.1953 494.551 -35.1953C460.963 -35.1953 427.862 -33.2585 393.787 -31.1178C324.177 -26.7345 257.001 -20.0066 205.889 -14.502C140.66 -7.57022 76.4038 -1.35204 6.79364 -0.84235C6.30686 -0.536537 6.3071 -0.230732 5.82031 0.0750809C32.5934 -0.128796 59.8538 -1.04623 89.0609 -2.98305C129.951 -5.8373 169.866 -9.91478 207.348 -13.8903Z" fill="url(#paint0_linear_2418_22489)"/>
<path d="M1087.46 23.3178C1046.09 19.3422 1009.09 17.4054 975.018 17.6093C965.283 17.6093 955.547 17.9151 945.811 18.2209C936.076 18.5267 926.34 18.8325 916.604 18.8325C897.62 18.9344 878.635 18.6286 860.137 18.3228C855.756 18.2209 850.888 18.2209 846.507 18.1189C839.692 18.017 832.39 17.915 825.575 17.8131L820.707 17.7112C807.564 17.5073 794.421 17.4054 781.764 17.3034C710.207 16.5899 636.216 15.8763 574.881 6.80387C565.632 5.37674 554.437 3.74574 544.214 2.11474C530.585 -0.0259509 516.467 -1.55502 501.863 -2.5744C488.233 -3.49183 474.117 -4.00152 458.54 -4.10346C430.307 -4.2054 401.586 -2.98215 367.024 -1.04533C299.361 2.72636 233.646 9.14843 178.639 14.8569C119.251 20.9732 56.4563 26.8856 -6.33884 26.8856C-7.31241 26.8856 -8.77253 26.8856 -9.74609 26.8856C-9.74609 27.0895 -9.74609 27.2933 -9.74609 27.4972C-9.74609 27.5991 -9.74609 27.7011 -9.74609 27.803C-8.77253 27.803 -7.7992 27.803 -6.33884 27.803C14.5929 27.803 36.9847 27.1914 60.3503 25.8662C102.701 23.5216 143.103 19.5461 180.586 15.6724C235.592 9.96395 300.821 3.64382 367.998 -0.12787C401.099 -1.96275 428.359 -3.186 454.645 -3.186C487.747 -3.186 515.007 -1.24919 541.781 2.82831C552.003 4.45931 563.199 6.09032 572.934 7.51745C600.681 11.6969 633.782 14.4492 673.698 16.0802C709.234 17.5073 746.229 17.9151 782.251 18.2209C794.908 18.3228 808.538 18.5267 821.194 18.6286L825.575 18.7306C832.39 18.8325 839.692 18.9344 846.507 19.0364C850.888 19.1383 855.756 19.1383 860.137 19.2403C878.635 19.5461 898.106 19.7499 917.09 19.7499C927.313 19.7499 937.049 19.4441 946.785 19.1383C956.034 18.8325 965.77 18.6286 975.018 18.5267C1008.61 18.3228 1045.12 20.1577 1085.52 24.1333C1088.44 24.4391 1091.36 24.7449 1094.28 25.0507L1095.25 25.1526C1095.25 24.8468 1095.25 24.4391 1095.25 24.1333C1092.82 23.8274 1090.39 23.5216 1087.46 23.3178Z" fill="url(#paint1_linear_2418_22489)"/>
<path d="M959.43 25.2531C952.128 25.0492 943.853 24.9473 935.578 24.9473C904.91 24.9473 873.757 26.5783 843.576 28.1073C836.274 28.5151 829.945 28.8209 823.13 29.1267C813.881 29.5345 804.632 30.0442 797.818 30.35C785.161 30.9616 772.504 31.6752 759.848 32.3887C712.143 34.9372 662.491 37.6895 613.813 37.6895C589.96 37.6895 568.543 37.0778 547.611 35.7526C536.902 35.141 525.706 34.4275 514.997 33.612C486.276 31.4713 456.582 30.4519 425.428 30.5538C399.141 30.6558 370.909 31.3694 334.887 33.0004C271.605 35.8546 208.809 40.7476 150.395 45.5387C105.61 49.2084 54.9849 53.3879 4.35938 54.3053C4.84616 54.6111 4.84592 54.9169 5.33271 55.2227C15.5552 55.0188 25.7784 54.713 36.4876 54.3053C77.3775 52.5724 118.754 49.2084 151.855 46.4561C210.269 41.665 272.578 36.874 335.86 34.0197C373.342 32.2868 402.062 31.5732 428.349 31.5732C458.043 31.5732 485.789 32.5926 513.536 34.6313C524.245 35.4468 535.442 36.1604 546.638 36.772C567.569 38.0972 589.961 38.7088 614.3 38.7088C663.952 38.7088 713.604 36.0585 761.309 33.4081C773.478 32.6945 786.621 32.0829 798.791 31.4713C806.579 31.0635 815.342 30.6558 824.105 30.248C830.92 29.9422 837.734 29.6364 844.549 29.2287C874.73 27.6996 905.884 26.1705 935.578 26.1705C943.853 26.1705 951.642 26.2725 958.944 26.4763C1008.6 28.0054 1054.84 33.0003 1093.78 37.7914C1093.78 37.4856 1094.27 37.0778 1094.27 36.772C1072.85 34.2236 1054.84 32.1848 1037.8 30.6558C1009.57 27.6996 984.256 26.0686 959.43 25.2531Z" fill="url(#paint2_linear_2418_22489)"/>
<path d="M932.171 33.8164C902.964 33.8164 874.73 36.5687 847.47 39.1172C836.761 40.1365 826.052 41.1559 815.829 41.9714C808.041 42.583 800.74 43.1947 793.438 43.7044C716.039 49.209 632.799 54.2039 545.178 54C531.548 54 519.378 53.8981 508.182 53.6942C487.737 53.2865 467.293 53.1845 447.821 53.1845C404.984 53.1845 363.121 54 319.797 55.8349C265.764 58.0775 209.784 61.1357 148.449 65.417C109.993 68.0674 69.5897 70.7178 30.1602 71.6352C30.6469 71.9411 31.134 72.2469 31.6207 72.5527C34.5415 72.4507 37.9489 72.3488 41.3564 72.3488C78.352 71.2275 115.348 68.781 149.91 66.4364C211.244 62.257 267.224 59.0969 320.77 56.9562C364.094 55.2233 405.47 54.3059 448.307 54.3059C467.779 54.3059 487.737 54.5097 508.182 54.8155C519.865 55.0194 532.034 55.1213 545.664 55.1213C633.772 55.3252 717.499 50.2284 795.385 44.7237C802.686 44.214 809.989 43.6024 817.777 42.9908C828 42.1753 838.709 41.1559 849.418 40.1365C876.191 37.5881 903.938 34.9377 932.171 34.9377C936.066 34.9377 939.96 35.0396 943.854 35.1416C994.966 36.5687 1044.62 42.2772 1087.46 47.8838C1087.94 47.578 1087.94 47.2721 1088.43 46.8644C1045.59 41.2578 995.939 35.6513 944.827 34.2242C940.446 33.9183 936.066 33.8164 932.171 33.8164Z" fill="url(#paint3_linear_2418_22489)"/>
<path d="M938.495 49.8187C935.574 49.8187 932.166 49.7168 929.245 49.7168C903.446 49.7168 877.159 51.1439 851.36 52.571C845.032 52.8768 838.704 53.2846 832.376 53.5904C828.968 53.7943 825.56 53.8962 822.153 54.1001H821.667C818.746 54.304 815.338 54.4059 812.417 54.6098C793.432 55.5272 774.448 56.6485 756.437 57.6679C697.049 60.9299 635.228 64.3958 572.919 65.1094C558.316 65.3132 545.66 65.3132 533.977 65.2113C522.294 65.1093 512.559 65.1094 502.823 65.1094C447.33 65.1094 403.031 66.2307 358.247 68.7791C312.976 71.3275 269.166 74.6915 228.763 78.667C187.874 82.7446 147.471 84.7833 106.094 84.7833C91.0037 84.7833 75.4257 84.4775 58.875 83.9678C59.8486 84.2736 60.8226 84.6814 61.7962 84.9872C77.3733 85.4969 91.9766 85.7008 106.58 85.7008C115.342 85.7008 123.618 85.5988 132.38 85.4969C165.481 84.8853 197.609 82.9485 231.197 79.5845C271.114 75.6089 314.437 72.245 359.708 69.6966C404.005 67.1481 448.303 66.1287 503.309 66.1287C512.558 66.1287 522.781 66.1287 534.464 66.2307C546.634 66.3326 559.289 66.2307 573.893 66.1287C636.688 65.4152 698.51 62.0512 758.385 58.6873C776.883 57.6679 795.867 56.6485 814.365 55.6292C817.286 55.5272 820.206 55.3234 822.64 55.2214H823.126C826.534 55.0175 830.429 54.8137 833.836 54.7117C840.164 54.4059 846.492 53.9982 852.82 53.6924C878.133 52.2652 904.42 50.8381 929.732 50.8381C932.653 50.8381 935.574 50.8381 938.495 50.94C986.2 51.6536 1033.9 56.1388 1073.82 60.726C1074.31 60.4202 1074.79 60.1144 1075.28 59.8086C1064.08 58.4834 1053.86 57.3621 1043.64 56.4447C1004.21 52.3672 970.136 50.2265 938.495 49.8187Z" fill="url(#paint4_linear_2418_22489)"/>
<path d="M927.8 66.1284C922.445 65.8226 917.577 65.6187 912.223 65.3129H911.737C890.318 64.1916 870.36 63.0703 848.455 63.0703C846.021 63.0703 844.073 63.0703 841.639 63.0703C835.311 63.1723 828.982 63.2742 823.141 63.3761C785.172 64.2936 748.177 66.842 712.641 69.1866C676.132 71.6331 638.163 74.1815 599.22 74.997C585.59 75.3028 573.421 75.4047 562.712 75.4047C555.41 75.4047 549.082 75.3028 542.754 75.3028C498.457 75.3028 460.001 76.1183 416.19 80.0939C386.983 82.7443 357.289 86.414 324.675 91.307C294.007 95.8942 259.445 98.0349 216.121 98.0349C188.862 98.0349 160.629 97.2194 126.554 95.9961C115.844 95.5884 104.161 95.1806 92.9648 94.7729C94.4252 95.1806 95.399 95.4865 96.8594 95.8942C106.595 96.302 116.818 96.6078 126.066 97.0155C156.734 98.1368 186.428 99.0543 216.121 99.0543C220.989 99.0543 225.371 99.0543 230.239 98.9523C267.721 98.5446 299.849 96.302 327.596 92.1225C359.723 87.2295 389.417 83.6617 418.624 81.0113C461.461 77.0357 499.43 76.2202 543.24 76.2202C549.568 76.2202 555.897 76.2203 563.199 76.3222C574.395 76.4241 586.565 76.2202 600.195 75.9144C639.624 75.0989 677.594 72.4486 714.589 70.0021C750.124 67.6575 786.633 65.109 824.116 64.1916C829.957 64.0897 836.284 63.8858 842.612 63.8858C844.56 63.8858 846.994 63.8858 848.941 63.8858C870.359 63.8858 890.318 65.0071 911.249 66.1284C916.604 66.4343 921.959 66.7401 927.314 66.9439C967.717 68.9827 1005.69 73.0602 1042.68 77.4435C1043.17 77.1377 1044.14 76.9338 1044.63 76.628C1033.43 75.3028 1021.75 73.8757 1010.07 72.6524C979.399 69.5943 952.626 67.4536 927.8 66.1284Z" fill="url(#paint5_linear_2418_22489)"/>
<path d="M899.565 79.9934C893.237 78.974 887.395 77.8527 881.553 76.7314C862.569 73.1636 846.506 70.1055 821.68 70.1055C820.219 70.1055 818.759 70.1055 816.812 70.1055C809.023 70.2074 799.773 70.921 791.498 71.4306L790.039 71.5326C762.779 73.3675 736.491 76.6295 711.179 79.6876C674.183 84.1728 635.728 88.862 593.864 89.6775H593.377C584.615 89.8813 574.88 90.0852 565.631 89.9833C559.303 89.8813 552.974 89.8813 547.133 89.8813C528.635 89.8813 512.571 90.1872 497.481 90.7988C475.576 91.7162 455.617 93.2453 433.712 95.6918C417.161 97.5267 400.611 99.7693 384.547 101.91C369.944 103.847 354.854 105.784 339.763 107.618C302.281 112.002 262.364 114.041 214.659 114.041C200.055 114.041 184.965 113.837 169.875 113.531C171.822 113.837 173.769 114.244 175.716 114.55C188.859 114.856 202.003 114.958 214.659 114.958C262.364 114.958 304.228 112.817 341.71 108.434C356.8 106.701 371.89 104.662 386.494 102.725C402.558 100.585 418.622 98.4441 435.172 96.6092C470.708 92.5317 503.323 90.9007 546.647 90.9007C552.488 90.9007 558.329 90.9007 564.17 91.0026C573.906 91.1046 583.155 90.9007 592.404 90.6968H592.891C635.728 89.8813 674.671 85.0903 712.153 80.6051C737.466 77.5469 763.752 74.3868 790.525 72.552L791.985 72.45C799.774 71.9403 809.023 71.3287 816.325 71.1248C817.785 71.1248 819.245 71.1248 820.705 71.1248C843.584 71.1248 859.649 74.0811 877.66 77.5469C883.501 78.6682 889.342 79.7895 895.671 80.8089C916.116 84.1728 939.481 86.9252 962.36 89.5755C973.556 90.9007 985.239 92.2259 996.435 93.653C997.408 93.4492 997.895 93.1433 998.869 92.9395C987.673 91.5123 975.989 90.0852 964.306 88.7601C942.888 86.0077 919.523 83.2554 899.565 79.9934Z" fill="url(#paint6_linear_2418_22489)"/>
<path d="M823.139 91.2058C819.731 90.9 816.811 90.4923 813.403 90.1865C792.958 88.0458 774.948 86.2109 755.964 86.2109C743.794 86.2109 731.137 86.9245 717.994 88.5555C712.639 89.1671 706.798 89.9826 700.957 91.002C687.327 93.2446 674.183 96.4046 660.066 99.6666C630.859 106.395 597.758 114.04 557.841 115.059C552.974 115.161 547.62 115.263 541.778 115.263C539.345 115.263 537.397 115.263 535.45 115.161C526.201 114.957 516.952 114.855 507.216 114.855C465.353 114.855 425.437 116.588 383.574 118.423L378.706 118.627C355.34 119.646 331.974 120.768 309.095 121.889H308.608C286.703 122.908 264.798 123.928 242.406 124.947C244.353 125.151 245.813 125.457 247.76 125.661C268.692 124.743 289.623 123.724 309.582 122.806H310.069C332.948 121.685 356.313 120.666 379.192 119.646L384.06 119.443C425.923 117.608 465.352 115.875 506.729 115.875C515.978 115.875 525.228 115.977 534.477 116.181C536.424 116.181 538.857 116.283 541.291 116.283C547.133 116.283 552.974 116.181 557.841 116.079C576.339 115.671 594.838 113.734 614.796 110.472C631.834 107.516 647.897 103.948 662.987 100.38C677.104 97.1182 690.247 94.0601 703.391 91.8175C709.232 90.7981 714.586 89.9826 719.941 89.4729C732.597 88.0458 744.28 87.3322 755.476 87.3322C773.487 87.3322 790.037 89.0652 810.969 91.2058C813.89 91.5117 817.297 91.8175 820.705 92.2252C858.674 96.0988 891.775 100.788 925.363 105.681C930.718 106.496 936.073 107.21 941.428 107.924C942.401 107.72 943.375 107.516 944.349 107.21C938.507 106.496 933.153 105.681 927.311 104.865C894.697 99.8706 861.108 95.0795 823.139 91.2058Z" fill="url(#paint7_linear_2418_22489)"/>
<path d="M864.037 113.734C829.475 109.249 793.939 104.661 754.997 101.807C743.314 100.992 733.579 100.584 725.303 100.584C719.462 100.584 713.621 100.788 708.266 101.196C697.07 102.113 686.361 103.948 671.757 107.516C667.863 108.535 662.994 109.758 657.64 111.389C648.878 113.836 640.603 116.792 631.354 119.85C603.607 129.432 571.967 140.34 524.749 143.092C522.801 143.194 520.853 143.296 518.906 143.398C523.287 143.398 528.155 143.5 532.536 143.5C577.321 140.034 607.988 129.636 634.761 120.36C644.01 117.302 652.286 114.346 660.561 111.899C665.916 110.37 670.296 109.147 674.677 108.127C692.201 103.846 705.345 101.501 724.816 101.501C733.092 101.501 742.341 101.909 753.537 102.725C791.993 105.477 827.528 110.064 861.603 114.549C865.497 115.059 869.391 115.569 873.285 116.079C878.153 116.69 883.508 117.404 889.349 118.117C890.323 117.913 891.783 117.709 892.757 117.506C886.915 116.792 881.075 116.078 875.233 115.365C871.826 114.651 867.931 114.244 864.037 113.734Z" fill="url(#paint8_linear_2418_22489)"/>
<path d="M741.839 111.695C722.854 111.695 705.817 113.224 689.266 116.486C675.149 119.239 663.467 122.908 653.244 126.17L651.298 126.782C646.917 128.209 642.049 129.738 636.694 131.573C629.879 133.918 623.064 136.568 615.762 139.32C612.842 140.442 609.921 141.563 607 142.684C608.947 142.684 610.408 142.582 612.355 142.582C614.789 141.665 617.223 140.747 619.657 139.83C626.959 137.078 633.287 134.427 640.102 132.083C645.456 130.248 649.837 128.719 654.705 127.292L656.652 126.578C677.583 119.952 700.95 112.511 741.353 112.511C781.269 112.511 822.159 116.894 857.694 120.666C860.128 120.972 863.049 121.175 865.483 121.481C866.943 121.277 867.916 121.074 869.376 120.87C865.969 120.564 863.048 120.156 859.64 119.85C824.105 116.181 783.216 111.695 741.839 111.695Z" fill="url(#paint9_linear_2418_22489)"/>
<path d="M788.586 123.215C772.522 123.215 758.405 123.725 744.775 124.744C709.24 127.496 684.9 134.224 663.969 140.748C665.916 140.646 668.35 140.544 670.297 140.442C690.255 134.326 713.621 128.108 746.236 125.559C758.892 124.54 773.009 124.03 788.586 124.03C805.623 124.03 822.661 124.642 838.725 125.457C840.185 125.254 842.132 125.05 843.593 124.744C836.778 124.336 829.962 124.03 823.147 123.826C810.977 123.419 799.295 123.215 788.586 123.215Z" fill="url(#paint10_linear_2418_22489)"/>
<path d="M722.867 137.282C728.222 136.874 733.577 136.466 738.931 136.059C739.418 136.059 739.418 135.957 739.905 135.957C750.127 134.632 761.81 133.714 773.98 133.001C779.821 132.491 785.175 131.879 790.53 131.268C771.058 131.879 753.048 133.204 737.471 135.141C732.603 135.753 727.248 136.466 722.867 137.282Z" fill="url(#paint11_linear_2418_22489)"/>
</g>
<defs>
<linearGradient id="paint0_linear_2418_22489" x1="81.8896" y1="-23.6681" x2="89.0491" y2="70.7426" gradientUnits="userSpaceOnUse">
<stop stop-color="#F2D57E"/>
<stop offset="1" stop-color="#A7F2D7"/>
</linearGradient>
<linearGradient id="paint1_linear_2418_22489" x1="67.8268" y1="4.01832" x2="71.3276" y2="70.7852" gradientUnits="userSpaceOnUse">
<stop stop-color="#F2D57E"/>
<stop offset="1" stop-color="#A7F2D7"/>
</linearGradient>
<linearGradient id="paint2_linear_2418_22489" x1="80.8729" y1="32.6581" x2="84.0681" y2="96.0132" gradientUnits="userSpaceOnUse">
<stop stop-color="#F2D57E"/>
<stop offset="1" stop-color="#A7F2D7"/>
</linearGradient>
<linearGradient id="paint3_linear_2418_22489" x1="104.452" y1="43.6821" x2="109.829" y2="124.591" gradientUnits="userSpaceOnUse">
<stop stop-color="#F2D57E"/>
<stop offset="1" stop-color="#A7F2D7"/>
</linearGradient>
<linearGradient id="paint4_linear_2418_22489" x1="130.228" y1="58.8815" x2="135.061" y2="134.063" gradientUnits="userSpaceOnUse">
<stop stop-color="#F2D57E"/>
<stop offset="1" stop-color="#A7F2D7"/>
</linearGradient>
<linearGradient id="paint5_linear_2418_22489" x1="159.773" y1="72.235" x2="164.931" y2="147.373" gradientUnits="userSpaceOnUse">
<stop stop-color="#F2D57E"/>
<stop offset="1" stop-color="#A7F2D7"/>
</linearGradient>
<linearGradient id="paint6_linear_2418_22489" x1="228.072" y1="81.5289" x2="237.227" y2="174.728" gradientUnits="userSpaceOnUse">
<stop stop-color="#F2D57E"/>
<stop offset="1" stop-color="#A7F2D7"/>
</linearGradient>
<linearGradient id="paint7_linear_2418_22489" x1="291.684" y1="96.2583" x2="300.042" y2="178.169" gradientUnits="userSpaceOnUse">
<stop stop-color="#F2D57E"/>
<stop offset="1" stop-color="#A7F2D7"/>
</linearGradient>
<linearGradient id="paint8_linear_2418_22489" x1="545.151" y1="111.514" x2="563.135" y2="197.801" gradientUnits="userSpaceOnUse">
<stop stop-color="#F2D57E"/>
<stop offset="1" stop-color="#A7F2D7"/>
</linearGradient>
<linearGradient id="paint9_linear_2418_22489" x1="625.419" y1="119.588" x2="638.747" y2="181.743" gradientUnits="userSpaceOnUse">
<stop stop-color="#F2D57E"/>
<stop offset="1" stop-color="#A7F2D7"/>
</linearGradient>
<linearGradient id="paint10_linear_2418_22489" x1="676.579" y1="127.68" x2="682.899" y2="163.344" gradientUnits="userSpaceOnUse">
<stop stop-color="#F2D57E"/>
<stop offset="1" stop-color="#A7F2D7"/>
</linearGradient>
<linearGradient id="paint11_linear_2418_22489" x1="727.617" y1="132.799" x2="729.602" y2="145.097" gradientUnits="userSpaceOnUse">
<stop stop-color="#F2D57E"/>
<stop offset="1" stop-color="#A7F2D7"/>
</linearGradient>
</defs>
</svg>
