<svg width="304" height="213" viewBox="0 0 304 213" fill="none" xmlns="http://www.w3.org/2000/svg">
<path d="M278.566 12.956C275.432 9.9103 272.113 7.42285 268.706 5.46789C256.281 -1.51781 241.559 -0.903554 227.419 4.13408C203.746 12.5587 181.73 32.6123 159.614 50.2874C137.498 68.0087 113.62 84.0743 90.2878 83.2027C75.001 82.6269 61.0503 74.7547 45.966 72.6908C33.7829 71.0521 19.5831 74.2556 10.0855 88.4107C1.5947 101.093 -0.915903 119.945 1.63232 135.174C4.18055 150.403 11.0551 162.484 18.7977 172.436C54.2607 217.886 110.804 224.152 161.034 196.03C179.468 185.725 197.353 171.126 216.206 165.103C235.987 158.785 256.747 161.826 275.21 147.119C286.3 138.273 295.56 123.257 300.352 106.384C310.637 70.0464 297.893 31.6456 278.566 12.9099L278.566 12.956Z" fill="url(#paint0_linear_2418_22487)"/>
<defs>
<linearGradient id="paint0_linear_2418_22487" x1="281.992" y1="34.8123" x2="102.549" y2="262.733" gradientUnits="userSpaceOnUse">
<stop stop-color="#F2D57E"/>
<stop offset="1" stop-color="#A7F2D7"/>
</linearGradient>
</defs>
</svg>
