<svg width="536" height="192" viewBox="0 0 536 192" fill="none" xmlns="http://www.w3.org/2000/svg">
<g opacity="0.3">
<path d="M195.089 -42.2812C203.616 -40.725 212.143 -39.0577 220.67 -37.1681C233.096 -34.5005 245.521 -31.4994 257.459 -28.6094C268.179 -26.0529 279.386 -23.3853 290.349 -20.8288C304.236 -17.7165 320.559 -14.4931 338.101 -14.4931H338.831C341.511 -14.4931 344.191 -14.6042 346.628 -14.8265C353.693 -15.4935 359.54 -17.0496 365.387 -18.7169C371.965 -20.6065 378.299 -22.2737 385.852 -22.496C386.583 -22.496 387.557 -22.496 388.288 -22.496C412.408 -22.496 439.694 -13.4927 459.428 -6.8236C462.595 -5.71208 465.763 -4.71169 468.686 -3.82248C477.701 -0.932518 486.715 2.06858 494.998 4.84739C503.282 7.62619 511.565 10.405 520.092 13.0727C519.362 12.4058 518.874 11.85 518.143 11.1831C510.834 8.73773 503.525 6.40353 496.217 3.95818C487.69 1.06823 478.675 -1.82172 469.904 -4.71168C466.981 -5.6009 464.057 -6.71243 460.646 -7.7128C449.927 -11.2697 437.745 -15.3823 424.833 -18.4946C409.728 -22.1626 397.059 -23.8299 385.609 -23.4964C377.569 -23.2741 370.99 -21.4957 363.925 -19.6061C358.322 -18.05 352.475 -16.4938 345.897 -15.8269C343.46 -15.6046 341.024 -15.4935 338.344 -15.4935H337.613C320.559 -15.4935 304.479 -18.7169 290.836 -21.718C279.873 -24.1633 268.666 -26.831 257.946 -29.3875C246.008 -32.2774 233.583 -35.2786 220.914 -37.9462C212.387 -39.8358 203.86 -41.5031 195.333 -43.0592C175.843 -46.6161 160.25 -48.2834 146.12 -48.3945C144.658 -48.0611 143.196 -47.7276 141.734 -47.3942C142.709 -47.3942 143.683 -47.3942 144.658 -47.3942C159.519 -47.5053 174.868 -45.9492 195.089 -42.2812Z" fill="url(#paint0_linear_3102_5577)"/>
<path d="M82.2932 -5.71141C84.9732 -6.60062 87.8967 -7.48983 90.8203 -8.26789L91.5507 -8.49021C112.016 -14.7147 132.968 -21.2727 155.382 -25.6076C172.193 -28.9422 187.785 -30.4983 203.377 -30.4983C220.188 -30.4983 237.242 -28.6087 255.514 -24.7184C262.823 -23.1623 270.863 -21.1616 278.903 -19.0497C293.033 -15.1593 306.92 -10.8244 320.32 -6.60061C327.873 -4.26641 335.425 -1.82107 343.221 0.513123L343.465 0.624283C358.814 5.18152 374.406 9.96106 392.191 11.6283C394.627 11.8507 397.064 11.9618 399.5 11.9618H399.743C409.245 11.9618 414.118 9.73878 418.99 7.51573C422.158 6.18191 425.324 4.7369 429.71 3.73653C432.39 3.18077 435.557 2.84733 438.968 2.84733C454.073 2.84733 471.614 8.51608 484.527 12.6287C486.476 13.2956 488.668 13.9625 490.617 14.5183C498.901 17.0748 507.184 19.7425 514.98 22.299C520.828 24.1886 526.919 26.0781 533.009 27.9677C532.766 27.412 532.278 26.9674 532.035 26.4116C526.675 24.7443 521.559 23.077 516.442 21.4098C508.403 18.8533 500.119 16.1856 491.836 13.6291C490.13 13.0733 487.937 12.4064 485.745 11.7395C472.589 7.51572 454.804 1.73581 438.968 1.73581C435.313 1.73581 431.902 2.06925 428.979 2.62501C424.106 3.62538 420.695 5.07036 417.528 6.51534C412.899 8.62723 408.27 10.628 399.743 10.628H399.5C397.307 10.628 395.114 10.5168 392.678 10.2945C375.38 8.62725 359.788 3.95884 344.683 -0.598398H344.439C336.887 -2.93259 329.09 -5.26678 321.781 -7.60097H321.538C308.138 -11.8248 294.252 -16.1597 280.121 -20.05C272.081 -22.2731 264.041 -24.1626 256.732 -25.8299C238.947 -29.6091 222.381 -31.6099 205.814 -31.721C189.247 -31.8322 172.68 -30.276 154.895 -26.7192C132.481 -22.2731 111.285 -15.8263 90.8203 -9.49058C87.8967 -8.60136 84.7294 -7.60099 81.5622 -6.71177C61.8282 -0.709551 42.5814 3.51423 23.0909 5.95958C22.6037 6.40418 22.1162 6.73765 21.6289 7.18225C24.0652 6.8488 26.5015 6.51535 28.9378 6.18189C46.2356 3.95885 64.021 -0.0426445 82.2932 -5.71141Z" fill="url(#paint1_linear_3102_5577)"/>
<path d="M98.1334 0.297514C101.057 -0.480551 104.224 -1.14746 107.148 -1.92553C130.536 -7.70545 154.899 -13.7077 179.993 -17.7092C198.022 -20.5991 213.858 -21.9329 228.476 -21.9329C245.53 -21.9329 261.609 -19.9322 276.958 -15.9307C283.292 -14.2634 289.87 -12.3739 296.935 -10.1508C306.924 -6.92741 316.67 -3.48166 326.902 0.297514C352.971 9.74545 380.013 19.5268 411.442 23.8618C415.096 24.4175 418.02 24.6399 420.213 24.751C421.918 24.8622 423.624 24.8621 425.085 24.8621C431.42 24.8621 436.536 24.3064 441.652 22.8614C444.332 22.0833 446.524 21.083 448.473 20.0826C450.666 18.9711 453.103 17.7484 456.513 17.0815C459.193 16.5257 462.36 16.3034 465.528 16.3034C469.913 16.3034 474.542 16.748 479.658 17.7484C487.698 19.1934 495.495 21.5276 501.829 23.4172C503.291 23.8618 504.509 24.1952 505.97 24.6398C513.523 26.7517 521.076 29.1971 529.115 31.8647L529.603 31.9759C531.795 32.6428 533.988 33.4209 536.18 34.0878C535.937 33.6432 535.693 33.0874 535.206 32.6428C533.744 32.087 532.039 31.6424 530.577 31.0867L530.334 30.9755C522.294 28.419 514.497 25.9737 506.945 23.7506C505.727 23.4171 504.265 22.9726 502.803 22.528C496.469 20.6384 488.429 18.3042 480.145 16.748C474.542 15.7477 469.669 15.3031 465.04 15.3031C461.63 15.3031 458.219 15.6365 455.295 16.1923C451.641 16.9703 448.961 18.193 446.525 19.4157C444.576 20.416 442.627 21.3053 440.19 22.0833C435.561 23.306 430.932 23.8618 424.841 23.8618C423.38 23.8618 421.918 23.8618 420.213 23.7506C418.02 23.6395 415.34 23.4172 411.929 22.9726C380.744 18.7488 353.945 8.96738 327.876 -0.369406C317.644 -4.03743 307.899 -7.59429 297.91 -10.8177C290.845 -13.0408 284.023 -15.0415 277.689 -16.7088C262.097 -20.7103 246.261 -22.711 228.963 -22.8222C213.858 -22.9333 197.534 -21.4884 178.775 -18.4872C153.681 -14.4858 129.318 -8.48352 105.686 -2.59245L104.955 -2.48129C102.031 -1.81438 99.3511 -1.14747 96.4276 -0.369406C67.4355 6.74434 41.1239 10.9681 15.2991 12.7465C14.8118 13.08 14.5678 13.5246 14.3242 13.8581C22.1204 13.4135 30.1601 12.6354 37.9562 11.635C57.2031 9.18967 76.694 5.52167 98.1334 0.297514Z" fill="url(#paint2_linear_3102_5577)"/>
<path d="M100.078 19.7445C125.415 13.8534 159.28 6.51739 193.875 1.73784C211.173 -0.596357 227.74 -2.70824 244.551 -2.59709C259.412 -2.48594 269.888 0.404 281.095 4.85009C285.724 6.73968 290.353 8.74044 294.982 10.7412L296.688 11.5192C313.255 18.633 331.77 24.5241 353.21 29.7482C371.239 34.0831 391.46 37.8623 417.285 41.7526C422.157 42.5307 425.812 42.9753 429.222 43.4199C438.237 44.4203 446.52 45.3095 455.048 45.3095C456.022 45.3095 456.996 45.3095 457.971 45.3095C465.28 45.0872 471.371 44.0868 477.949 42.9753C481.359 42.4196 484.77 41.7526 488.181 41.308C493.541 40.6411 498.413 40.3077 503.286 40.3077C512.544 40.3077 522.046 41.5303 533.253 43.9757C535.689 44.5314 538.369 45.1984 541.536 45.8653C541.293 45.4207 541.292 45.0872 541.049 44.6426C538.612 44.0868 536.42 43.5311 534.227 43.0865C525.7 41.1969 518.635 40.0854 511.57 39.6408C508.89 39.4184 505.966 39.3073 503.286 39.3073C498.17 39.3073 493.054 39.6408 487.694 40.3077C484.039 40.7523 480.628 41.4192 477.218 41.975C470.883 43.0865 464.793 44.0868 457.971 44.3091C456.996 44.3091 456.022 44.3091 455.291 44.3091C447.007 44.3091 438.968 43.5311 429.953 42.5307C426.543 42.1973 422.888 41.6415 418.015 40.9746C379.765 35.1946 335.669 27.0805 298.393 10.9635L296.688 10.1854C292.059 8.18468 287.429 6.18392 282.8 4.29433C271.35 -0.262914 260.387 -3.37518 244.794 -3.48633C244.551 -3.48633 244.063 -3.48633 243.82 -3.48633C227.009 -3.48633 210.442 -1.37444 193.388 0.959761C158.549 5.73931 124.928 13.0754 99.3472 19.0776C66.7007 26.6359 34.5411 33.4162 -0.298014 33.972C-0.541645 34.3054 -0.541526 34.6389 -0.785156 34.9723C12.6145 34.75 26.2581 33.7497 40.8759 31.6378C61.3408 28.5255 81.318 24.0794 100.078 19.7445Z" fill="url(#paint3_linear_3102_5577)"/>
<path d="M540.565 60.3205C519.856 55.9856 501.34 53.8737 484.286 54.096C479.414 54.096 474.541 54.4294 469.668 54.7629C464.796 55.0963 459.923 55.4298 455.051 55.4298C445.549 55.5409 436.047 55.2075 426.789 54.874C424.597 54.7629 422.16 54.7629 419.968 54.6517C416.557 54.5406 412.902 54.4294 409.491 54.3182L407.055 54.2071C400.477 53.9848 393.899 53.8736 387.565 53.7625C351.751 52.9844 314.719 52.2064 284.022 42.3138C279.393 40.7577 273.79 38.9792 268.673 37.2008C261.852 34.8666 254.786 33.1993 247.477 32.0878C240.655 31.0874 233.59 30.5317 225.794 30.4205C211.664 30.3094 197.289 31.6432 179.992 33.7551C146.127 37.8677 113.237 44.8703 85.7067 51.0948C55.9838 57.764 24.5555 64.2108 -6.87283 64.2108C-7.36009 64.2108 -8.09086 64.2108 -8.57812 64.2108C-8.57812 64.4331 -8.57812 64.6554 -8.57812 64.8777C-8.57812 64.9889 -8.57812 65.1 -8.57812 65.2112C-8.09086 65.2112 -7.60372 65.2112 -6.87283 65.2112C3.60328 65.2112 14.8102 64.5443 26.5044 63.0993C47.7003 60.5428 67.9215 56.2079 86.681 51.9841C114.211 45.7595 146.858 38.8681 180.479 34.7555C197.046 32.7547 210.689 31.4209 223.845 31.4209C240.412 31.4209 254.056 33.5328 267.455 37.9789C272.571 39.7573 278.175 41.5358 283.047 43.0919C296.934 47.6491 313.501 50.6502 333.479 52.4287C351.264 53.9848 369.78 54.4294 387.808 54.7629C394.143 54.874 400.964 55.0963 407.299 55.2075L409.491 55.3186C412.902 55.4298 416.557 55.5409 419.968 55.6521C422.16 55.7632 424.597 55.7633 426.789 55.8744C436.047 56.2079 445.792 56.4302 455.294 56.4302C460.41 56.4302 465.283 56.0967 470.156 55.7632C474.785 55.4298 479.657 55.2075 484.286 55.0963C501.097 54.874 519.369 56.8748 539.59 61.2097C541.052 61.5432 542.514 61.8766 543.976 62.2101L544.463 62.3212C544.463 61.9878 544.463 61.5432 544.463 61.2097C543.245 60.8762 542.026 60.5428 540.565 60.3205Z" fill="url(#paint4_linear_3102_5577)"/>
<path d="M476.483 62.4292C472.829 62.2069 468.687 62.0957 464.546 62.0957C449.197 62.0957 433.605 63.8741 418.5 65.5414C414.845 65.986 411.678 66.3195 408.267 66.653C403.638 67.0976 399.009 67.6533 395.598 67.9868C389.264 68.6537 382.929 69.4318 376.595 70.2098C352.719 72.9886 327.869 75.9897 303.506 75.9897C291.568 75.9897 280.848 75.3228 270.372 73.8778C265.012 73.2109 259.409 72.4329 254.049 71.5436C239.675 69.2094 224.813 68.0979 209.221 68.2091C196.065 68.3202 181.935 69.0983 163.906 70.8768C132.234 73.989 100.805 79.3243 71.5696 84.5485C49.1556 88.5499 23.818 93.1072 -1.51953 94.1076C-1.2759 94.441 -1.27602 94.7745 -1.03239 95.1079C4.08385 94.8856 9.20044 94.5522 14.5603 94.1076C35.0253 92.218 55.7337 88.5499 72.3006 85.5488C101.536 80.3247 132.721 75.1005 164.393 71.9883C183.153 70.0987 197.527 69.3206 210.683 69.3206C225.544 69.3206 239.431 70.4321 253.318 72.6552C258.678 73.5444 264.282 74.3225 269.885 74.9894C280.361 76.4343 291.568 77.1013 303.749 77.1013C328.6 77.1013 353.45 74.2113 377.326 71.3214C383.417 70.5433 389.994 69.8764 396.085 69.2095C399.983 68.7649 404.369 68.3202 408.754 67.8756C412.165 67.5422 415.576 67.2087 418.987 66.7641C434.092 65.0968 449.684 63.4295 464.546 63.4295C468.687 63.4295 472.585 63.5407 476.24 63.763C501.09 65.4303 524.235 70.8767 543.725 76.1009C543.725 75.7674 543.969 75.3228 543.969 74.9894C533.25 72.2106 524.235 69.9875 515.708 68.3202C501.577 65.0968 488.908 63.3184 476.483 62.4292Z" fill="url(#paint5_linear_3102_5577)"/>
<path d="M462.842 71.7695C448.224 71.7695 434.093 74.7707 420.45 77.5495C415.09 78.661 409.73 79.7725 404.614 80.6617C400.716 81.3286 397.062 81.9956 393.407 82.5513C354.67 88.5535 313.009 94 269.156 93.7777C262.334 93.7777 256.243 93.6665 250.639 93.4442C240.407 92.9996 230.175 92.8885 220.43 92.8885C198.99 92.8885 178.038 93.7777 156.355 95.7784C129.312 98.2238 101.294 101.558 70.5968 106.227C51.35 109.117 31.1286 112.007 11.3945 113.007C11.6382 113.34 11.8819 113.674 12.1255 114.007C13.5873 113.896 15.2927 113.785 16.9981 113.785C35.5141 112.562 54.0301 109.895 71.3279 107.338C102.025 102.781 130.042 99.3353 156.842 97.0011C178.525 95.1115 199.233 94.1111 220.673 94.1111C230.418 94.1111 240.407 94.3334 250.639 94.6669C256.487 94.8892 262.577 95.0003 269.399 95.0003C313.496 95.2226 355.401 89.6651 394.381 83.6628C398.036 83.1071 401.691 82.4401 405.589 81.7732C410.705 80.884 416.065 79.7725 421.425 78.661C434.824 75.8822 448.711 72.9922 462.842 72.9922C464.791 72.9922 466.74 73.1033 468.689 73.2145C494.27 74.7706 519.12 80.9952 540.56 87.1085C540.803 86.7751 540.803 86.4416 541.047 85.997C519.607 79.8836 494.757 73.7703 469.176 72.2141C466.983 71.8807 464.791 71.7695 462.842 71.7695Z" fill="url(#paint6_linear_3102_5577)"/>
<path d="M466.01 89.2186C464.548 89.2186 462.843 89.1074 461.381 89.1074C448.468 89.1074 435.312 90.6635 422.4 92.2197C419.233 92.5531 416.066 92.9977 412.899 93.3312C411.193 93.5535 409.488 93.6646 407.782 93.887H407.539C406.077 94.1093 404.371 94.2204 402.909 94.4427C393.408 95.4431 383.906 96.6658 374.892 97.7773C345.169 101.334 314.228 105.113 283.043 105.891C275.735 106.114 269.4 106.114 263.553 106.003C257.706 105.891 252.834 105.891 247.961 105.891C220.187 105.891 198.016 107.114 175.602 109.893C152.945 112.672 131.018 116.34 110.797 120.675C90.3319 125.121 70.1107 127.344 49.4022 127.344C41.8496 127.344 34.053 127.01 25.7695 126.455C26.2568 126.788 26.7443 127.233 27.2316 127.566C35.0277 128.122 42.3365 128.344 49.6454 128.344C54.0308 128.344 58.1726 128.233 62.558 128.122C79.1248 127.455 95.2045 125.343 112.015 121.675C131.993 117.34 153.676 113.672 176.333 110.893C198.504 108.114 220.674 107.003 248.204 107.003C252.833 107.003 257.95 107.003 263.797 107.114C269.888 107.225 276.222 107.114 283.531 107.003C314.959 106.225 345.9 102.557 375.867 98.8888C385.125 97.7773 394.626 96.6658 403.884 95.5542C405.346 95.4431 406.808 95.2208 408.026 95.1096H408.269C409.975 94.8873 411.924 94.665 413.63 94.5539C416.797 94.2204 419.964 93.7758 423.131 93.4424C435.8 91.8862 448.956 90.3301 461.625 90.3301C463.086 90.3301 464.548 90.3301 466.01 90.4412C489.886 91.2193 513.761 96.11 533.739 101.112C533.983 100.778 534.226 100.445 534.47 100.111C528.866 98.6665 523.75 97.4438 518.634 96.4435C498.9 91.9974 481.846 89.6632 466.01 89.2186Z" fill="url(#paint7_linear_3102_5577)"/>
<path d="M460.654 107.001C457.974 106.667 455.538 106.445 452.858 106.111H452.615C441.895 104.889 431.906 103.666 420.943 103.666C419.725 103.666 418.75 103.666 417.532 103.666C414.365 103.777 411.197 103.888 408.274 103.999C389.271 105 370.755 107.779 352.97 110.335C334.697 113.003 315.694 115.782 296.204 116.671C289.382 117.004 283.291 117.115 277.931 117.115C274.277 117.115 271.11 117.004 267.943 117.004C245.773 117.004 226.526 117.894 204.599 122.228C189.981 125.118 175.12 129.12 158.796 134.455C143.448 139.457 126.15 141.791 104.467 141.791C90.8234 141.791 76.6931 140.902 59.639 139.568C54.2791 139.124 48.4316 138.679 42.8281 138.234C43.559 138.679 44.0464 139.012 44.7773 139.457C49.6499 139.902 54.7661 140.235 59.3951 140.68C74.7438 141.902 89.6053 142.903 104.467 142.903C106.903 142.903 109.096 142.903 111.532 142.792C130.292 142.347 146.372 139.902 160.258 135.344C176.338 130.009 191.199 126.119 205.817 123.229C227.257 118.894 246.259 118.005 268.186 118.005C271.353 118.005 274.521 118.005 278.175 118.116C283.779 118.227 289.87 118.005 296.691 117.671C316.426 116.782 335.429 113.892 353.945 111.224C371.73 108.668 390.002 105.889 408.761 104.889C411.685 104.778 414.852 104.555 418.019 104.555C418.993 104.555 420.212 104.555 421.186 104.555C431.906 104.555 441.895 105.778 452.371 107.001C455.051 107.334 457.731 107.667 460.411 107.89C480.632 110.113 499.635 114.559 518.151 119.338C518.395 119.005 518.882 118.783 519.126 118.449C513.522 117.004 507.675 115.448 501.828 114.114C486.479 110.78 473.079 108.446 460.654 107.001Z" fill="url(#paint8_linear_3102_5577)"/>
<path d="M446.523 122.114C443.355 121.002 440.431 119.78 437.508 118.557C428.006 114.667 419.967 111.332 407.542 111.332C406.811 111.332 406.08 111.332 405.105 111.332C401.207 111.443 396.578 112.221 392.436 112.777L391.706 112.888C378.062 114.889 364.906 118.446 352.237 121.78C333.721 126.671 314.475 131.784 293.523 132.673H293.279C288.893 132.896 284.021 133.118 279.392 133.007C276.225 132.896 273.057 132.896 270.134 132.896C260.876 132.896 252.836 133.229 245.284 133.896C234.32 134.896 224.331 136.564 213.368 139.231C205.084 141.232 196.801 143.677 188.762 146.012C181.453 148.123 173.9 150.235 166.348 152.236C147.588 157.016 127.61 159.239 103.734 159.239C96.4253 159.239 88.8729 159.016 81.3203 158.683C82.2948 159.016 83.2692 159.461 84.2438 159.794C90.8218 160.128 97.3998 160.239 103.734 160.239C127.61 160.239 148.562 157.905 167.322 153.125C174.874 151.236 182.427 149.013 189.736 146.901C197.776 144.567 205.815 142.232 214.099 140.232C231.884 135.785 248.207 134.007 269.891 134.007C272.814 134.007 275.737 134.007 278.661 134.118C283.534 134.229 288.163 134.007 292.792 133.785H293.035C314.475 132.896 333.965 127.671 352.725 122.781C365.394 119.446 378.549 116 391.949 114L392.68 113.889C396.578 113.333 401.207 112.666 404.862 112.444C405.592 112.444 406.323 112.444 407.054 112.444C418.505 112.444 426.545 115.667 435.559 119.446C438.483 120.669 441.406 121.891 444.573 123.003C454.806 126.671 466.5 129.672 477.951 132.562C483.554 134.007 489.401 135.452 495.005 137.008C495.492 136.786 495.736 136.452 496.223 136.23C490.619 134.674 484.772 133.118 478.925 131.673C468.205 128.672 456.511 125.671 446.523 122.114Z" fill="url(#paint9_linear_3102_5577)"/>
<path d="M408.272 134.345C406.566 134.011 405.104 133.567 403.399 133.233C393.167 130.899 384.153 128.898 374.651 128.898C368.56 128.898 362.226 129.676 355.648 131.455C352.968 132.122 350.044 133.011 347.121 134.123C340.299 136.568 333.721 140.014 326.655 143.57C312.038 150.907 295.471 159.243 275.493 160.355C273.057 160.466 270.377 160.577 267.454 160.577C266.236 160.577 265.261 160.577 264.286 160.466C259.657 160.243 255.028 160.132 250.156 160.132C229.204 160.132 209.226 162.022 188.274 164.023L185.838 164.245C174.143 165.356 162.449 166.579 150.998 167.802H150.754C139.791 168.913 128.828 170.025 117.621 171.136C118.596 171.359 119.326 171.692 120.301 171.914C130.777 170.914 141.253 169.802 151.242 168.802H151.485C162.936 167.579 174.63 166.468 186.081 165.356L188.517 165.134C209.469 163.133 229.203 161.244 249.912 161.244C254.541 161.244 259.17 161.355 263.799 161.577C264.774 161.577 265.992 161.688 267.21 161.688C270.133 161.688 273.057 161.577 275.493 161.466C284.751 161.021 294.009 158.91 303.998 155.353C312.525 152.129 320.565 148.239 328.118 144.349C335.183 140.792 341.761 137.457 348.339 135.012C351.263 133.9 353.942 133.011 356.622 132.455C362.957 130.899 368.804 130.121 374.407 130.121C383.422 130.121 391.705 132.011 402.181 134.345C403.643 134.678 405.348 135.012 407.054 135.456C426.057 139.68 442.624 144.793 459.434 150.128C462.114 151.018 464.794 151.796 467.474 152.574C467.961 152.352 468.449 152.129 468.936 151.796C466.012 151.018 463.332 150.128 460.409 149.239C444.086 143.793 427.275 138.569 408.272 134.345Z" fill="url(#paint10_linear_3102_5577)"/>
<path d="M428.738 158.907C411.44 154.016 393.655 149.014 374.165 145.902C368.318 145.013 363.445 144.568 359.304 144.568C356.38 144.568 353.456 144.791 350.776 145.235C345.173 146.236 339.813 148.236 332.504 152.127C330.555 153.238 328.119 154.572 325.439 156.35C321.053 159.018 316.912 162.242 312.283 165.576C298.396 176.024 282.56 187.918 258.928 190.919C257.953 191.03 256.978 191.141 256.004 191.252C258.197 191.252 260.633 191.363 262.826 191.363C285.24 187.584 300.588 176.247 313.988 166.132C318.617 162.797 322.759 159.574 326.901 156.906C329.581 155.239 331.773 153.905 333.966 152.794C342.736 148.125 349.314 145.569 359.06 145.569C363.201 145.569 367.831 146.013 373.434 146.903C392.681 149.904 410.466 154.906 427.52 159.796C429.469 160.352 431.418 160.908 433.367 161.464C435.803 162.13 438.483 162.908 441.407 163.687C441.894 163.464 442.625 163.242 443.112 163.02C440.189 162.242 437.265 161.463 434.342 160.685C432.636 159.907 430.687 159.463 428.738 158.907Z" fill="url(#paint11_linear_3102_5577)"/>
<path d="M367.583 156.688C358.082 156.688 349.554 158.355 341.271 161.912C334.206 164.913 328.359 168.914 323.243 172.471L322.268 173.138C320.076 174.694 317.639 176.361 314.959 178.362C311.549 180.919 308.138 183.809 304.483 186.81C303.021 188.032 301.559 189.255 300.098 190.478C301.072 190.478 301.803 190.367 302.778 190.367C303.996 189.366 305.214 188.366 306.432 187.365C310.087 184.364 313.254 181.474 316.665 178.918C319.345 176.917 321.537 175.25 323.974 173.694L324.948 172.916C335.424 165.691 347.119 157.577 367.34 157.577C387.318 157.577 407.782 162.356 425.567 166.469C426.785 166.802 428.247 167.025 429.466 167.358C430.197 167.136 430.683 166.914 431.414 166.691C429.709 166.358 428.247 165.913 426.542 165.58C408.757 161.578 388.292 156.688 367.583 156.688Z" fill="url(#paint12_linear_3102_5577)"/>
<path d="M390.979 169.246C382.939 169.246 375.874 169.802 369.052 170.913C351.267 173.914 339.085 181.251 328.609 188.364C329.584 188.253 330.802 188.142 331.777 188.031C341.766 181.362 353.46 174.581 369.783 171.803C376.118 170.691 383.183 170.135 390.979 170.135C399.506 170.135 408.033 170.802 416.073 171.691C416.804 171.469 417.778 171.247 418.509 170.913C415.099 170.469 411.687 170.135 408.276 169.913C402.186 169.468 396.339 169.246 390.979 169.246Z" fill="url(#paint13_linear_3102_5577)"/>
<path d="M358.086 184.583C360.766 184.139 363.446 183.694 366.126 183.25C366.369 183.25 366.369 183.138 366.613 183.138C371.729 181.693 377.576 180.693 383.667 179.915C386.591 179.359 389.27 178.692 391.95 178.025C382.205 178.692 373.191 180.137 365.395 182.249C362.959 182.916 360.279 183.694 358.086 184.583Z" fill="url(#paint14_linear_3102_5577)"/>
</g>
<defs>
<linearGradient id="paint0_linear_3102_5577" x1="168.296" y1="-32.7396" x2="203.287" y2="85.8946" gradientUnits="userSpaceOnUse">
<stop stop-color="#F2D57E"/>
<stop offset="1" stop-color="#A7F2D7"/>
</linearGradient>
<linearGradient id="paint1_linear_3102_5577" x1="57.5287" y1="-16.5231" x2="82.9293" y2="103.329" gradientUnits="userSpaceOnUse">
<stop stop-color="#F2D57E"/>
<stop offset="1" stop-color="#A7F2D7"/>
</linearGradient>
<linearGradient id="paint2_linear_3102_5577" x1="50.9594" y1="-8.33233" x2="73.7113" y2="106.569" gradientUnits="userSpaceOnUse">
<stop stop-color="#F2D57E"/>
<stop offset="1" stop-color="#A7F2D7"/>
</linearGradient>
<linearGradient id="paint3_linear_3102_5577" x1="37.2867" y1="9.08293" x2="53.9382" y2="109.869" gradientUnits="userSpaceOnUse">
<stop stop-color="#F2D57E"/>
<stop offset="1" stop-color="#A7F2D7"/>
</linearGradient>
<linearGradient id="paint4_linear_3102_5577" x1="30.2463" y1="39.2765" x2="38.4782" y2="111.339" gradientUnits="userSpaceOnUse">
<stop stop-color="#F2D57E"/>
<stop offset="1" stop-color="#A7F2D7"/>
</linearGradient>
<linearGradient id="paint5_linear_3102_5577" x1="36.7747" y1="70.5035" x2="44.2936" y2="138.935" gradientUnits="userSpaceOnUse">
<stop stop-color="#F2D57E"/>
<stop offset="1" stop-color="#A7F2D7"/>
</linearGradient>
<linearGradient id="paint6_linear_3102_5577" x1="48.577" y1="82.527" x2="61.1433" y2="169.32" gradientUnits="userSpaceOnUse">
<stop stop-color="#F2D57E"/>
<stop offset="1" stop-color="#A7F2D7"/>
</linearGradient>
<linearGradient id="paint7_linear_3102_5577" x1="61.4811" y1="99.1005" x2="72.7868" y2="179.834" gradientUnits="userSpaceOnUse">
<stop stop-color="#F2D57E"/>
<stop offset="1" stop-color="#A7F2D7"/>
</linearGradient>
<linearGradient id="paint8_linear_3102_5577" x1="76.265" y1="113.659" x2="88.3071" y2="194.175" gradientUnits="userSpaceOnUse">
<stop stop-color="#F2D57E"/>
<stop offset="1" stop-color="#A7F2D7"/>
</linearGradient>
<linearGradient id="paint9_linear_3102_5577" x1="110.447" y1="123.788" x2="131.444" y2="221.899" gradientUnits="userSpaceOnUse">
<stop stop-color="#F2D57E"/>
<stop offset="1" stop-color="#A7F2D7"/>
</linearGradient>
<linearGradient id="paint10_linear_3102_5577" x1="142.284" y1="139.854" x2="161.401" y2="225.849" gradientUnits="userSpaceOnUse">
<stop stop-color="#F2D57E"/>
<stop offset="1" stop-color="#A7F2D7"/>
</linearGradient>
<linearGradient id="paint11_linear_3102_5577" x1="269.139" y1="156.486" x2="306.097" y2="237.879" gradientUnits="userSpaceOnUse">
<stop stop-color="#F2D57E"/>
<stop offset="1" stop-color="#A7F2D7"/>
</linearGradient>
<linearGradient id="paint12_linear_3102_5577" x1="309.316" y1="165.293" x2="336.501" y2="223.483" gradientUnits="userSpaceOnUse">
<stop stop-color="#F2D57E"/>
<stop offset="1" stop-color="#A7F2D7"/>
</linearGradient>
<linearGradient id="paint13_linear_3102_5577" x1="334.921" y1="174.115" x2="348.397" y2="209.021" gradientUnits="userSpaceOnUse">
<stop stop-color="#F2D57E"/>
<stop offset="1" stop-color="#A7F2D7"/>
</linearGradient>
<linearGradient id="paint14_linear_3102_5577" x1="360.463" y1="179.696" x2="364.768" y2="191.94" gradientUnits="userSpaceOnUse">
<stop stop-color="#F2D57E"/>
<stop offset="1" stop-color="#A7F2D7"/>
</linearGradient>
</defs>
</svg>
