<svg width="131" height="130" viewBox="0 0 131 130" fill="none" xmlns="http://www.w3.org/2000/svg">
<mask id="mask0_1088_10743" style="mask-type:alpha" maskUnits="userSpaceOnUse" x="0" y="0" width="131" height="130">
<rect x="0.5" width="130" height="130" fill="#D9D9D9"/>
</mask>
<g mask="url(#mask0_1088_10743)">
<path d="M103.014 83.3257C107.085 82.5136 111.125 81.9689 115.106 83.0237C121.755 84.7908 126.704 91.0653 127.734 97.8008C128.763 104.536 126.239 111.496 121.854 116.703C117.47 121.91 111.378 125.507 104.947 127.869C98.0388 130.415 89.6445 131.417 83.7172 126.983C80.5148 124.574 78.4977 120.891 75.3187 118.452C71.6469 115.634 66.7853 114.783 62.1625 114.879C57.5356 114.987 52.9778 115.941 48.3725 116.347C37.9361 117.253 27.0648 115.143 18.2776 109.422C9.4904 103.701 3.01139 94.2087 2.02627 83.8684C1.18783 75.1629 4.55021 65.8564 11.2435 60.1068C18.1962 54.1334 29.7787 53.966 38.3587 56.0683C46.0427 57.9519 53.1146 61.9082 59.3275 66.7984C64.0659 70.5416 68.3524 74.8324 73.2158 78.405C78.0792 81.9777 83.7328 84.8451 89.7631 85.1506C94.1974 85.3671 98.6255 84.2015 103.026 83.3297L103.014 83.3257Z" fill="url(#paint0_linear_1088_10743)"/>
<path d="M90.6811 8.38207C98.5447 4.51772 107.563 4.77286 114.535 12.9516C120.641 20.1052 122.274 30.2375 122.009 39.7944C121.817 46.7058 120.723 53.7421 117.674 59.9781C114.615 66.2102 109.413 71.5751 102.925 73.6806C92.1424 77.1801 80.047 70.5591 74.8259 60.4746C69.6088 50.3787 70.3169 37.8738 74.185 27.0089C76.9547 19.2542 83.3153 12.0024 90.6811 8.38207Z" fill="url(#paint1_linear_1088_10743)"/>
<path d="M68.5232 17.3838L63.9883 17.3838" stroke="#1F1F1F" stroke-width="2" stroke-linecap="round" stroke-linejoin="round"/>
<path d="M91.0461 17.3838H94.3927C96.8002 17.3838 98.7538 19.3065 98.7538 21.6758V88.678C98.7538 91.0425 96.8002 92.9652 94.3927 92.9652H36.5983C34.1958 92.9652 32.2422 91.0425 32.2422 88.678V21.6758C32.2422 19.3065 34.1958 17.3838 36.5983 17.3838H40.7177" stroke="#1F1F1F" stroke-width="2" stroke-linecap="round" stroke-linejoin="round"/>
<path d="M62.7567 15.1162H41.9922V32.0205H62.7567V15.1162Z" stroke="#1F1F1F" stroke-width="2" stroke-linecap="round" stroke-linejoin="round"/>
<path d="M90.0457 15.1162H69.2812V32.0205H90.0457V15.1162Z" stroke="#1F1F1F" stroke-width="2" stroke-linecap="round" stroke-linejoin="round"/>
<path d="M32.2422 41.5693H98.7538" stroke="#1F1F1F" stroke-width="2" stroke-linecap="round" stroke-linejoin="round"/>
<path d="M32.2422 50.6396H98.7538" stroke="#1F1F1F" stroke-width="2" stroke-linecap="round" stroke-linejoin="round"/>
</g>
<defs>
<linearGradient id="paint0_linear_1088_10743" x1="16.0278" y1="63.4304" x2="48.4178" y2="152.348" gradientUnits="userSpaceOnUse">
<stop stop-color="#F2D57E"/>
<stop offset="1" stop-color="#A7F2D7"/>
</linearGradient>
<linearGradient id="paint1_linear_1088_10743" x1="81.7775" y1="16.6597" x2="122.747" y2="54.2919" gradientUnits="userSpaceOnUse">
<stop stop-color="#F2D57E"/>
<stop offset="1" stop-color="#A7F2D7"/>
</linearGradient>
</defs>
</svg>
