<svg width="131" height="131" viewBox="0 0 131 131" fill="none" xmlns="http://www.w3.org/2000/svg">
<mask id="mask0_1088_10729" style="mask-type:alpha" maskUnits="userSpaceOnUse" x="0" y="0" width="131" height="131">
<rect x="0.5" y="0.5" width="130" height="130" fill="#D9D9D9"/>
</mask>
<g mask="url(#mask0_1088_10729)">
<path d="M103.01 83.8257C107.081 83.0136 111.121 82.4689 115.102 83.5237C121.751 85.2908 126.701 91.5653 127.73 98.3008C128.759 105.036 126.235 111.996 121.85 117.203C117.466 122.41 111.374 126.007 104.943 128.369C98.0349 130.915 89.6406 131.917 83.7133 127.483C80.5109 125.074 78.4937 121.391 75.3148 118.952C71.643 116.134 66.7814 115.283 62.1585 115.379C57.5317 115.487 52.9739 116.441 48.3685 116.847C37.9322 117.753 27.0609 115.643 18.2737 109.922C9.4865 104.201 3.00748 94.7087 2.02236 84.3684C1.18392 75.6629 4.5463 66.3564 11.2396 60.6068C18.1923 54.6334 29.7748 54.466 38.3548 56.5683C46.0388 58.4519 53.1107 62.4082 59.3236 67.2984C64.062 71.0416 68.3485 75.3324 73.2119 78.905C78.0753 82.4777 83.7289 85.3451 89.7592 85.6506C94.1935 85.8671 98.6216 84.7015 103.022 83.8297L103.01 83.8257Z" fill="url(#paint0_linear_1088_10729)"/>
<path d="M90.6772 8.88207C98.5408 5.01772 107.559 5.27286 114.531 13.4516C120.637 20.6052 122.27 30.7375 122.005 40.2944C121.814 47.2058 120.719 54.2421 117.67 60.4781C114.611 66.7102 109.409 72.0751 102.921 74.1806C92.1385 77.6801 80.0431 71.0591 74.822 60.9746C69.6049 50.8787 70.313 38.3738 74.1811 27.5089C76.9508 19.7542 83.3114 12.5024 90.6772 8.88207Z" fill="url(#paint1_linear_1088_10729)"/>
<path d="M55.501 19.1885C55.8058 19.1018 56.1398 19.2923 56.2236 19.6152L56.2246 19.6182C56.3091 19.9355 56.1166 20.2642 55.7988 20.3467H55.7979C38.7225 24.8453 26.793 40.3397 26.793 58.0244C26.793 58.9818 26.8285 59.9542 26.9023 60.9717L26.9893 62.0059C27.0139 62.2973 26.832 62.5546 26.5664 62.6357L26.4473 62.6592L26.4365 62.6602C26.436 62.6602 26.4332 62.661 26.4268 62.6611H26.3877C26.1214 62.6611 25.8856 62.4803 25.8115 62.2285L25.79 62.1172C25.6559 60.677 25.5889 59.3376 25.5889 58.0234C25.589 39.7914 37.8879 23.8234 55.4932 19.1904L55.501 19.1885Z" fill="#1F1F1F" stroke="#1F1F1F" stroke-width="0.755814"/>
<path d="M97.3975 80.7031C97.5667 80.4675 97.8765 80.3902 98.1299 80.501L98.2354 80.5605C98.5061 80.754 98.5681 81.1254 98.376 81.3955V81.3965C90.9046 91.8987 78.7116 98.1709 65.7637 98.1709C52.8586 98.1708 40.6583 91.9103 33.1309 81.4229C32.9383 81.1509 32.9992 80.778 33.2676 80.582C33.5396 80.3903 33.9118 80.4524 34.1074 80.7207C41.4111 90.8966 53.2442 96.9707 65.7637 96.9707C78.3236 96.9707 90.1488 90.8924 97.3975 80.7031Z" fill="#1F1F1F" stroke="#1F1F1F" stroke-width="0.755814"/>
<path d="M76.0283 19.1914L76.0352 19.1934C93.6282 23.823 105.916 39.7918 105.916 58.0273C105.916 59.3414 105.849 60.6809 105.715 62.1211V62.123C105.689 62.4267 105.428 62.6601 105.122 62.6602C105.086 62.6602 105.078 62.6598 105.073 62.6592L105.062 62.6582C104.732 62.6262 104.489 62.3321 104.521 62.0059V62.0049C104.653 60.6034 104.717 59.3001 104.717 58.0234C104.717 40.6072 93.1683 25.325 76.5273 20.5684L75.7314 20.3506C75.4074 20.2645 75.2201 19.9379 75.3047 19.6211L75.3057 19.6172C75.3895 19.2927 75.722 19.1042 76.0283 19.1914Z" fill="#1F1F1F" stroke="#1F1F1F" stroke-width="0.755814"/>
<circle cx="65.4168" cy="57.2908" r="18.7527" stroke="#1F1F1F" stroke-width="2"/>
<circle cx="100.748" cy="71.6138" r="10.0171" stroke="#1F1F1F" stroke-width="2"/>
<circle cx="65.3747" cy="20.0075" r="9.43723" stroke="#1F1F1F" stroke-width="2"/>
<circle cx="31.1655" cy="71.6138" r="10.0171" stroke="#1F1F1F" stroke-width="2"/>
</g>
<defs>
<linearGradient id="paint0_linear_1088_10729" x1="16.0239" y1="63.9304" x2="48.4139" y2="152.848" gradientUnits="userSpaceOnUse">
<stop stop-color="#F2D57E"/>
<stop offset="1" stop-color="#A7F2D7"/>
</linearGradient>
<linearGradient id="paint1_linear_1088_10729" x1="81.7736" y1="17.1597" x2="122.743" y2="54.7919" gradientUnits="userSpaceOnUse">
<stop stop-color="#F2D57E"/>
<stop offset="1" stop-color="#A7F2D7"/>
</linearGradient>
</defs>
</svg>
