<svg width="86" height="86" viewBox="0 0 86 86" fill="none" xmlns="http://www.w3.org/2000/svg">
<mask id="mask0_276_3604" style="mask-type:alpha" maskUnits="userSpaceOnUse" x="0" y="0" width="86" height="86">
<rect width="86" height="86" fill="#D9D9D9"/>
</mask>
<g mask="url(#mask0_276_3604)">
<path d="M67.8161 55.1229C70.5093 54.5857 73.1817 54.2253 75.8154 54.9231C80.2139 56.0921 83.4882 60.2429 84.1691 64.6987C84.8501 69.1544 83.1801 73.7588 80.2795 77.2033C77.3789 80.6478 73.3493 83.0276 69.0945 84.5898C64.5247 86.2741 58.9716 86.9372 55.0504 84.0041C52.9319 82.41 51.5975 79.9737 49.4945 78.36C47.0654 76.4958 43.8493 75.9334 40.7911 75.9968C37.7303 76.0677 34.7152 76.6993 31.6685 76.9679C24.7645 77.5672 17.5727 76.171 11.7596 72.3864C5.94655 68.6017 1.66043 62.3224 1.00874 55.4819C0.454078 49.7229 2.67842 43.5662 7.10631 39.7627C11.7058 35.8111 19.368 35.7003 25.044 37.091C30.1273 38.3371 34.8057 40.9544 38.9157 44.1894C42.0503 46.6657 44.886 49.5042 48.1033 51.8676C51.3207 54.2311 55.0608 56.128 59.05 56.3301C61.9835 56.4734 64.9128 55.7023 67.8236 55.1255L67.8161 55.1229Z" fill="url(#paint0_linear_276_3604)"/>
<path d="M59.6573 5.54496C64.8593 2.98854 70.8251 3.15733 75.4374 8.56788C79.4769 13.3003 80.5569 20.0032 80.3816 26.3254C80.2551 30.8976 79.5311 35.5523 77.5143 39.6777C75.4903 43.8005 72.0494 47.3496 67.7568 48.7425C60.624 51.0575 52.6224 46.6775 49.1684 40.0062C45.7171 33.3274 46.1856 25.0549 48.7445 17.8673C50.5767 12.7373 54.7845 7.93993 59.6573 5.54496Z" fill="url(#paint1_linear_276_3604)"/>
<path d="M36.248 11.8818C36.7291 11.7451 37.2215 12.0438 37.3457 12.5176C37.4736 12.9962 37.1862 13.489 36.708 13.6133V13.6123C25.6323 16.5304 17.8938 26.5815 17.8936 38.0537C17.8936 38.6742 17.9168 39.3058 17.9648 39.9678L18.0205 40.6416V40.6426C18.0639 41.1342 17.7074 41.5656 17.2188 41.6162L17.2197 41.6172H17.2178C17.2159 41.6174 17.2138 41.618 17.2119 41.6182L17.2109 41.6172C17.1738 41.6211 17.1383 41.6211 17.125 41.6211C16.6975 41.6211 16.3252 41.315 16.2441 40.8945L16.2314 40.8086C16.1414 39.8423 16.0967 38.9404 16.0967 38.0537C16.0967 25.7674 24.3838 15.0072 36.248 11.8828V11.8818Z" fill="black" stroke="black" stroke-width="0.5"/>
<path d="M63.6943 52.7656C63.9638 52.3904 64.4733 52.2828 64.8672 52.5059L64.9443 52.5547V52.5557C65.3481 52.8432 65.4433 53.4011 65.1553 53.8057C60.1184 60.8858 51.9003 65.1123 43.1738 65.1123C34.4756 65.1122 26.2533 60.8939 21.1797 53.8252V53.8242C20.8927 53.4209 20.9831 52.8644 21.3828 52.5732L21.3848 52.5713C21.7631 52.3021 22.2766 52.3653 22.5791 52.7041L22.6367 52.7754L22.6377 52.7764C27.3754 59.3779 35.0525 63.3193 43.1738 63.3193C51.3222 63.3193 58.9935 59.3752 63.6943 52.7666V52.7656Z" fill="black" stroke="black" stroke-width="0.5"/>
<path d="M49.0029 12.5195C49.1275 12.042 49.6207 11.7474 50.1006 11.8838L50.0996 11.8848C61.9563 15.0067 70.2352 25.7673 70.2354 38.0557C70.2354 38.9424 70.1906 39.8443 70.1006 40.8105C70.0594 41.2764 69.6648 41.6209 69.2109 41.6211C69.1924 41.6211 69.1552 41.6221 69.1162 41.6172V41.6162C68.6293 41.5654 68.2674 41.1319 68.3145 40.6406L68.3711 39.9678C68.4191 39.3057 68.4424 38.6743 68.4424 38.0537C68.4424 26.5757 60.7101 16.5279 49.6396 13.6152C49.1601 13.4881 48.8739 12.9986 49.002 12.5195H49.0029Z" fill="black" stroke="black" stroke-width="0.5"/>
<circle cx="42.9441" cy="37.5691" r="11.8172" stroke="black" stroke-width="2.5"/>
<circle cx="66.3185" cy="47.0441" r="6.03822" stroke="black" stroke-width="2.5"/>
<circle cx="42.9193" cy="12.9046" r="5.65463" stroke="black" stroke-width="2.5"/>
<circle cx="20.2872" cy="47.0441" r="6.03822" stroke="black" stroke-width="2.5"/>
</g>
<defs>
<linearGradient id="paint0_linear_276_3604" x1="10.2713" y1="41.9614" x2="31.6985" y2="100.784" gradientUnits="userSpaceOnUse">
<stop stop-color="#F2D57E"/>
<stop offset="1" stop-color="#A7F2D7"/>
</linearGradient>
<linearGradient id="paint1_linear_276_3604" x1="53.7672" y1="11.021" x2="80.8701" y2="35.9161" gradientUnits="userSpaceOnUse">
<stop stop-color="#F2D57E"/>
<stop offset="1" stop-color="#A7F2D7"/>
</linearGradient>
</defs>
</svg>
