<svg width="86" height="86" viewBox="0 0 86 86" fill="none" xmlns="http://www.w3.org/2000/svg">
<mask id="mask0_276_3513" style="mask-type:alpha" maskUnits="userSpaceOnUse" x="0" y="0" width="86" height="86">
<rect width="86" height="86" fill="#D9D9D9"/>
</mask>
<g mask="url(#mask0_276_3513)">
<path d="M74.1036 74.2012C70.0283 78.2094 65.0823 81.3694 60.0623 83.243C46.9564 88.1554 31.9797 86.1233 19.3369 80.1296C12.8164 77.0349 6.48118 72.5979 3.48028 65.9984C0.479361 59.3988 2.01686 50.3383 8.31507 46.8148C15.2894 42.8998 24.4496 47.0106 31.8315 43.9345C37.185 41.7067 40.3711 36.235 44.8077 32.4878C51.7264 26.6339 62.1277 25.3103 70.2784 29.2532C80.7445 34.3148 85.8757 47.225 83.3749 58.3921C82.0412 64.3205 78.605 69.7829 74.1036 74.1919L74.1036 74.2012Z" fill="url(#paint0_linear_276_3513)"/>
<path d="M60.3509 53.4938C73.3512 40.3412 73.2273 19.0628 60.0748 6.06246C57.8329 3.84651 54.2186 3.86832 52.0052 6.10877C49.7892 8.35066 49.9172 11.8604 52.0515 14.1784C60.504 23.3645 60.8105 36.7909 52.2335 45.4679C43.6566 54.145 29.9311 52.9672 20.944 45.65C18.4999 43.6607 15.0878 43.4559 12.8744 45.6963C10.6584 47.9382 10.6802 51.5525 12.9207 53.766C26.0732 66.7663 47.3506 66.6463 60.3509 53.4938Z" stroke="black" stroke-width="2.5" stroke-miterlimit="10"/>
<path d="M42.4113 40.2608C48.1529 36.9458 50.1202 29.604 46.8052 23.8624C43.4903 18.1208 36.1485 16.1536 30.4069 19.4685C24.6652 22.7834 22.698 30.1252 26.013 35.8668C29.3279 41.6085 36.6697 43.5757 42.4113 40.2608Z" stroke="black" stroke-width="2.5" stroke-linecap="round" stroke-linejoin="round"/>
</g>
<defs>
<linearGradient id="paint0_linear_276_3513" x1="63.1156" y1="31.1409" x2="39.7643" y2="90.0636" gradientUnits="userSpaceOnUse">
<stop stop-color="#F2D57E"/>
<stop offset="1" stop-color="#A7F2D7"/>
</linearGradient>
</defs>
</svg>
