<svg width="131" height="131" viewBox="0 0 131 131" fill="none" xmlns="http://www.w3.org/2000/svg">
<mask id="mask0_3066_6031" style="mask-type:alpha" maskUnits="userSpaceOnUse" x="0" y="0" width="131" height="131">
<rect x="0.5" y="0.933594" width="130" height="130" fill="#D9D9D9"/>
</mask>
<g mask="url(#mask0_3066_6031)">
<path d="M112.517 113.098C106.357 119.157 98.8801 123.934 91.2916 126.766C71.4805 134.192 48.8412 131.12 29.7301 122.06C19.8735 117.382 10.297 110.675 5.7607 100.699C1.22444 90.7225 3.54857 77.0264 13.0691 71.7002C23.6117 65.7822 37.4585 71.9961 48.6172 67.3462C56.7097 63.9786 61.5259 55.7075 68.2323 50.0431C78.6909 41.1942 94.4138 39.1933 106.735 45.1536C122.555 52.8048 130.312 72.3202 126.532 89.2007C124.516 98.1623 119.321 106.419 112.517 113.084L112.517 113.098Z" fill="url(#paint0_linear_3066_6031)"/>
<path d="M91.728 81.7959C111.38 61.9141 111.192 29.7491 91.3106 10.0974C87.9217 6.74772 82.4583 6.7807 79.1123 10.1674C75.7626 13.5563 75.9561 18.8617 79.1823 22.3657C91.9595 36.2517 92.4227 56.5474 79.4576 69.6638C66.4924 82.7803 45.7446 80.9999 32.1594 69.9391C28.4649 66.932 23.3071 66.6223 19.9611 70.0091C16.6114 73.398 16.6444 78.8614 20.0311 82.2074C39.9129 101.859 72.0764 101.678 91.728 81.7959Z" stroke="#1F1F1F" stroke-width="2" stroke-miterlimit="10"/>
<path d="M64.6113 61.7926C73.2905 56.7817 76.2642 45.6836 71.2533 37.0044C66.2423 28.3252 55.1443 25.3515 46.4651 30.3624C37.7859 35.3734 34.8122 46.4714 39.8231 55.1506C44.8341 63.8298 55.9321 66.8036 64.6113 61.7926Z" stroke="#1F1F1F" stroke-width="2" stroke-linecap="round" stroke-linejoin="round"/>
</g>
<defs>
<linearGradient id="paint0_linear_3066_6031" x1="95.9071" y1="48.0071" x2="60.6086" y2="137.076" gradientUnits="userSpaceOnUse">
<stop stop-color="#F2D57E"/>
<stop offset="1" stop-color="#A7F2D7"/>
</linearGradient>
</defs>
</svg>
