<svg width="86" height="86" viewBox="0 0 86 86" fill="none" xmlns="http://www.w3.org/2000/svg">
<mask id="mask0_276_3451" style="mask-type:alpha" maskUnits="userSpaceOnUse" x="0" y="0" width="86" height="86">
<rect width="86" height="86" fill="#D9D9D9"/>
</mask>
<g mask="url(#mask0_276_3451)">
<path d="M74.1036 74.2012C70.0283 78.2094 65.0823 81.3694 60.0623 83.243C46.9564 88.1554 31.9797 86.1233 19.3369 80.1296C12.8164 77.0349 6.48118 72.5979 3.48028 65.9984C0.479361 59.3988 2.01686 50.3383 8.31507 46.8148C15.2894 42.8998 24.4496 47.0106 31.8315 43.9345C37.185 41.7067 40.3711 36.235 44.8077 32.4878C51.7264 26.6339 62.1277 25.3103 70.2784 29.2532C80.7445 34.3148 85.8757 47.225 83.3749 58.3921C82.0412 64.3205 78.605 69.7829 74.1036 74.1919L74.1036 74.2012Z" fill="url(#paint0_linear_276_3451)"/>
<path d="M56.9863 49.3583C57.1631 48.6912 57.8475 48.2941 58.5146 48.4706C61.6149 49.2917 64.2656 50.4016 66.1709 51.7528C68.0497 53.0854 69.4228 54.82 69.4229 56.9071C69.4227 58.7362 68.1643 60.2354 66.585 61.3857C64.9629 62.567 62.7245 63.5919 60.1533 64.4355C55.0579 66.1072 48.3862 67.1514 41.8594 67.1757C41.8509 67.1759 41.8425 67.1777 41.834 67.1777C41.8148 67.1777 41.7956 67.1767 41.7764 67.1767C41.7269 67.1768 41.6774 67.1786 41.6279 67.1786C41.6054 67.1786 41.5828 67.1759 41.5605 67.1747C35.0535 67.1474 28.4428 66.1492 23.3994 64.5253C20.8494 63.7043 18.6308 62.7018 17.0225 61.5361C15.4528 60.3983 14.208 58.9106 14.208 57.0839C14.208 54.9967 15.5811 53.2622 17.46 51.9296C19.3653 50.5783 22.0158 49.4685 25.1162 48.6474C25.7834 48.4708 26.4677 48.8679 26.6445 49.5351C26.8213 50.2024 26.4232 50.8866 25.7559 51.0634C22.8187 51.8413 20.4802 52.8524 18.9062 53.9687C17.306 55.1036 16.708 56.1834 16.708 57.0839C16.708 57.6969 17.14 58.5346 18.4893 59.5126C19.7998 60.4625 21.7434 61.3664 24.166 62.1464C28.9837 63.6975 35.4233 64.6712 41.7803 64.6767C48.1005 64.6606 54.5387 63.6459 59.374 62.0595C61.8177 61.2577 63.7847 60.3327 65.1133 59.3652C66.4841 58.3668 66.9227 57.5176 66.9229 56.9071C66.9228 56.0066 66.3247 54.9268 64.7246 53.7919C63.1507 52.6757 60.812 51.6645 57.875 50.8866C57.2078 50.7098 56.8097 50.0256 56.9863 49.3583Z" fill="black"/>
<path d="M56.0916 21.6611C60.6965 21.6611 63.745 26.2038 62.6101 30.501C62.562 30.683 62.5084 30.8651 62.4451 31.0459C62.3949 31.1893 62.3401 31.3324 62.28 31.4746V31.4766L61.6082 33.0605L53.8025 51.5293C52.7349 54.0536 50.3264 55.7216 47.615 55.7217H35.1853C32.474 55.7216 30.0654 54.0536 28.9978 51.5293L21.1912 33.0605L20.5203 31.4766V31.4746C20.3846 31.1531 20.2774 30.8273 20.1912 30.501C19.0561 26.2037 22.1037 21.6611 26.7088 21.6611H56.0916ZM26.7205 24.1611C24.5577 24.1611 22.8245 25.8556 22.4988 27.9443C22.3721 28.7622 22.4605 29.6406 22.824 30.502L23.5662 32.2578L26.0828 38.1992C26.0955 38.2292 26.1058 38.2597 26.116 38.29L31.3005 50.5557C31.9968 52.2018 33.5284 53.2216 35.1853 53.2217H47.615C49.2719 53.2216 50.8035 52.2018 51.4998 50.5557L56.6834 38.29C56.6936 38.2596 56.7048 38.2293 56.7175 38.1992L59.2332 32.2578L59.9763 30.502C60.3801 29.5452 60.4448 28.5673 60.2517 27.6748C59.8251 25.7117 58.1488 24.1611 56.0798 24.1611H26.7205Z" fill="black"/>
<path d="M62.1126 29.04H68.6172C71.1542 29.04 73.2129 31.0089 73.2129 33.4352C73.2129 38.2401 69.815 42.4364 64.949 43.6376L55.2129 46.04" stroke="black" stroke-width="2.5" stroke-linecap="round" stroke-linejoin="round"/>
<path d="M35.2119 3.04004C35.2119 5.70331 34.2119 5.70331 34.2119 8.37065C34.2119 11.038 35.2119 11.038 35.2119 13.7053C35.2119 16.3727 34.2119 16.3727 34.2119 19.04" stroke="black" stroke-width="2.5" stroke-linecap="round" stroke-linejoin="round"/>
<path d="M42.2119 3.04004C42.2119 5.70331 41.2119 5.70331 41.2119 8.37065C41.2119 11.038 42.2119 11.038 42.2119 13.7053C42.2119 16.3727 41.2119 16.3727 41.2119 19.04" stroke="black" stroke-width="2.5" stroke-linecap="round" stroke-linejoin="round"/>
<path d="M50.2119 3.04004C50.2119 5.70331 49.2119 5.70331 49.2119 8.37065C49.2119 11.038 50.2119 11.038 50.2119 13.7053C50.2119 16.3727 49.2119 16.3727 49.2119 19.04" stroke="black" stroke-width="2.5" stroke-linecap="round" stroke-linejoin="round"/>
</g>
<defs>
<linearGradient id="paint0_linear_276_3451" x1="63.1156" y1="31.1409" x2="39.7643" y2="90.0636" gradientUnits="userSpaceOnUse">
<stop stop-color="#F2D57E"/>
<stop offset="1" stop-color="#A7F2D7"/>
</linearGradient>
</defs>
</svg>
