<svg width="86" height="86" viewBox="0 0 86 86" fill="none" xmlns="http://www.w3.org/2000/svg">
<mask id="mask0_473_3444" style="mask-type:alpha" maskUnits="userSpaceOnUse" x="0" y="0" width="86" height="86">
<rect width="86" height="86" fill="#D9D9D9"/>
</mask>
<g mask="url(#mask0_473_3444)">
<path d="M74.1026 74.2012C70.0273 78.2094 65.0814 81.3694 60.0613 83.243C46.9555 88.1554 31.9787 86.1233 19.336 80.1296C12.8155 77.0349 6.48021 72.5979 3.4793 65.9984C0.478385 59.3988 2.01588 50.3383 8.31409 46.8148C15.2884 42.8998 24.4486 47.0106 31.8305 43.9345C37.184 41.7067 40.3701 36.235 44.8067 32.4878C51.7254 26.6339 62.1268 25.3103 70.2774 29.2532C80.7435 34.3148 85.8747 47.225 83.374 58.3921C82.0402 64.3205 78.604 69.7829 74.1026 74.1919L74.1026 74.2012Z" fill="url(#paint0_linear_473_3444)"/>
<path d="M66.69 12H18.308C17.5851 12 16.999 12.5861 16.999 13.309V61.691C16.999 62.4139 17.5851 63 18.308 63H66.69C67.413 63 67.999 62.4139 67.999 61.691V13.309C67.999 12.5861 67.413 12 66.69 12Z" stroke="black" stroke-width="2.5" stroke-linecap="round" stroke-linejoin="round"/>
<path d="M16.999 23H67.999" stroke="black" stroke-width="2.5" stroke-linecap="round" stroke-linejoin="round"/>
<path d="M51.9976 57.0205H61.0176V48.0005H51.9976V57.0205Z" stroke="black" stroke-width="2.5" stroke-linecap="round" stroke-linejoin="round"/>
<path d="M21.9986 57.0215H31.0186V48.0015H21.9986V57.0215Z" stroke="black" stroke-width="2.5" stroke-linecap="round" stroke-linejoin="round"/>
<path d="M37.0025 57.0244H46.0225V48.0045H37.0025V57.0244Z" stroke="black" stroke-width="2.5" stroke-linecap="round" stroke-linejoin="round"/>
<path d="M51.9976 41.0195H61.0176V31.9996H51.9976V41.0195Z" stroke="black" stroke-width="2.5" stroke-linecap="round" stroke-linejoin="round"/>
<path d="M21.9996 41.0225H31.0195V32.0025H21.9996V41.0225Z" stroke="black" stroke-width="2.5" stroke-linecap="round" stroke-linejoin="round"/>
<path d="M37.0015 41.0254H46.0215V32.0054H37.0015V41.0254Z" stroke="black" stroke-width="2.5" stroke-linecap="round" stroke-linejoin="round"/>
<path d="M26.999 9V15" stroke="black" stroke-width="2.5" stroke-linecap="round" stroke-linejoin="round"/>
<path d="M56.999 9V15" stroke="black" stroke-width="2.5" stroke-linecap="round" stroke-linejoin="round"/>
</g>
<defs>
<linearGradient id="paint0_linear_473_3444" x1="63.1146" y1="31.1409" x2="39.7633" y2="90.0636" gradientUnits="userSpaceOnUse">
<stop stop-color="#F2D57E"/>
<stop offset="1" stop-color="#A7F2D7"/>
</linearGradient>
</defs>
</svg>
