<svg width="131" height="131" viewBox="0 0 131 131" fill="none" xmlns="http://www.w3.org/2000/svg">
<mask id="mask0_1088_10741" style="mask-type:alpha" maskUnits="userSpaceOnUse" x="0" y="0" width="131" height="131">
<rect x="0.499023" y="0.5" width="130" height="130" fill="#D9D9D9"/>
</mask>
<g mask="url(#mask0_1088_10741)">
<path d="M112.512 112.665C106.352 118.724 98.8757 123.5 91.2873 126.332C71.4761 133.758 48.8368 130.686 29.7257 121.626C19.8691 116.948 10.2926 110.241 5.75631 100.265C1.22004 90.2889 3.54417 76.5928 13.0647 71.2666C23.6073 65.3486 37.4541 71.5625 48.6128 66.9126C56.7053 63.545 61.5215 55.2739 68.2279 49.6095C78.6865 40.7606 94.4094 38.7597 106.73 44.72C122.551 52.3712 130.308 71.8866 126.527 88.7671C124.511 97.7287 119.317 105.986 112.512 112.651L112.512 112.665Z" fill="url(#paint0_linear_1088_10741)"/>
<path d="M55.6154 54.5582L52.7642 58.9846C51.6353 60.7427 52.8945 63.0498 54.9883 63.0498H58.0469C60.3964 63.0498 62.302 64.9523 62.302 67.298C62.302 69.6436 60.3964 71.5461 58.0469 71.5461H41.5235C38.8991 71.5461 36.7764 69.422 36.7764 66.8067C36.7764 65.8096 37.0899 64.8415 37.6737 64.0372L48.9096 48.475C51.4713 44.93 55.5817 42.8252 59.9622 42.8252H74.4593C78.9025 42.8252 83.0708 44.9926 85.618 48.6243L94.6878 61.5615C95.368 62.5296 95.7299 63.6856 95.7299 64.8656V65.7807C95.7299 68.9645 93.144 71.5461 89.9551 71.5461H78.0004C75.7088 71.5461 73.8466 69.6918 73.8466 67.3991C73.8466 65.1113 75.704 63.2521 78.0004 63.2521H80.5862C82.5304 63.2521 83.8137 61.2243 82.9695 59.4711L80.1231 53.542" stroke="#1F1F1F" stroke-width="2" stroke-linecap="round" stroke-linejoin="round"/>
<path d="M48.2653 71.5469C48.2653 75.7978 44.9722 79.2424 40.9083 79.2424H34.0768C29.7227 79.2424 26.1943 82.9332 26.1943 87.4877C26.1943 92.0422 29.7227 95.7329 34.0768 95.7329H96.1107C100.91 95.7329 104.799 91.6653 104.799 86.6448C104.799 80.9648 99.8743 76.6773 94.5342 77.7086L45.6979 87.1317C42.2896 87.7913 39.7822 90.8486 39.6771 94.4713L39.6421 95.7329" stroke="#1F1F1F" stroke-width="2" stroke-linecap="round" stroke-linejoin="round"/>
<path d="M86.6597 71.5469V79.105" stroke="#1F1F1F" stroke-width="2" stroke-linecap="round" stroke-linejoin="round"/>
<path d="M66.2543 36.779C71.6808 36.779 76.0799 32.0415 76.0799 26.1976C76.0799 20.3537 71.6808 15.6162 66.2543 15.6162C60.8278 15.6162 56.4287 20.3537 56.4287 26.1976C56.4287 32.0415 60.8278 36.779 66.2543 36.779Z" stroke="#1F1F1F" stroke-width="2" stroke-linecap="round" stroke-linejoin="round"/>
</g>
<defs>
<linearGradient id="paint0_linear_1088_10741" x1="95.9027" y1="47.5735" x2="60.6043" y2="136.643" gradientUnits="userSpaceOnUse">
<stop stop-color="#F2D57E"/>
<stop offset="1" stop-color="#A7F2D7"/>
</linearGradient>
</defs>
</svg>
