<svg width="86" height="86" viewBox="0 0 86 86" fill="none" xmlns="http://www.w3.org/2000/svg">
<mask id="mask0_276_3615" style="mask-type:alpha" maskUnits="userSpaceOnUse" x="0" y="0" width="86" height="86">
<rect width="86" height="86" fill="#D9D9D9"/>
</mask>
<g mask="url(#mask0_276_3615)">
<path d="M74.1026 74.2012C70.0273 78.2094 65.0814 81.3694 60.0613 83.243C46.9555 88.1554 31.9787 86.1233 19.336 80.1296C12.8155 77.0349 6.48021 72.5979 3.4793 65.9984C0.478385 59.3988 2.01588 50.3383 8.31409 46.8148C15.2884 42.8998 24.4486 47.0106 31.8305 43.9345C37.184 41.7067 40.3701 36.235 44.8067 32.4878C51.7254 26.6339 62.1268 25.3103 70.2774 29.2532C80.7435 34.3148 85.8747 47.225 83.374 58.3921C82.0402 64.3205 78.604 69.7829 74.1026 74.1919L74.1026 74.2012Z" fill="url(#paint0_linear_276_3615)"/>
<path d="M36.4628 35.7619L34.5766 38.6901C33.8298 39.8531 34.6628 41.3793 36.0479 41.3793H38.0713C39.6255 41.3793 40.8862 42.6379 40.8862 44.1897C40.8862 45.7414 39.6255 47 38.0713 47H27.1404C25.4043 47 24 45.5948 24 43.8647C24 43.2051 24.2074 42.5646 24.5936 42.0325L32.0266 31.7375C33.7213 29.3924 36.4404 28 39.3383 28H48.9287C51.8681 28 54.6255 29.4338 56.3106 31.8363L62.3106 40.3948C62.7606 41.0352 63 41.7999 63 42.5806V43.186C63 45.2921 61.2894 47 59.1798 47H51.2713C49.7553 47 48.5234 45.7733 48.5234 44.2566C48.5234 42.7431 49.7521 41.5132 51.2713 41.5132H52.9819C54.2681 41.5132 55.117 40.1717 54.5585 39.0119L52.6755 35.0896" stroke="black" stroke-width="2.5" stroke-linecap="round" stroke-linejoin="round"/>
<path d="M31.6008 47C31.6008 49.8121 29.4223 52.0909 26.7339 52.0909H22.2146C19.3341 52.0909 17 54.5325 17 57.5455C17 60.5584 19.3341 63 22.2146 63H63.2524C66.4275 63 69 60.3091 69 56.9879C69 53.2303 65.7421 50.3939 62.2095 51.0762L29.9023 57.31C27.6476 57.7463 25.9889 59.7688 25.9194 62.1654L25.8962 63" stroke="black" stroke-width="2.5" stroke-linecap="round" stroke-linejoin="round"/>
<path d="M57 47V52" stroke="black" stroke-width="2.5" stroke-linecap="round" stroke-linejoin="round"/>
<path d="M43.5 24C47.0899 24 50 20.866 50 17C50 13.134 47.0899 10 43.5 10C39.9101 10 37 13.134 37 17C37 20.866 39.9101 24 43.5 24Z" stroke="black" stroke-width="2.5" stroke-linecap="round" stroke-linejoin="round"/>
</g>
<defs>
<linearGradient id="paint0_linear_276_3615" x1="63.1146" y1="31.1409" x2="39.7633" y2="90.0636" gradientUnits="userSpaceOnUse">
<stop stop-color="#F2D57E"/>
<stop offset="1" stop-color="#A7F2D7"/>
</linearGradient>
</defs>
</svg>
