<svg width="86" height="86" viewBox="0 0 86 86" fill="none" xmlns="http://www.w3.org/2000/svg">
<mask id="mask0_276_3588" style="mask-type:alpha" maskUnits="userSpaceOnUse" x="0" y="0" width="86" height="86">
<rect width="86" height="86" fill="#D9D9D9"/>
</mask>
<g mask="url(#mask0_276_3588)">
<path d="M82.1811 73.1987C68.0467 89.3731 41.4086 88.834 22.3815 72.1204C3.35434 55.4069 -7.51831 36.5368 6.07251 20.9016C20.207 4.72719 29.4487 25.2148 49.0195 41.3891C68.0466 58.1027 96.3156 57.5635 82.1811 73.1987Z" fill="url(#paint0_linear_276_3588)"/>
<path d="M68.6346 22.8448C74.9437 22.8448 80.0582 17.7309 80.0582 11.4224C80.0582 5.11402 74.9437 0 68.6346 0C62.3255 0 57.2109 5.11402 57.2109 11.4224C57.2109 17.7309 62.3255 22.8448 68.6346 22.8448Z" fill="url(#paint1_linear_276_3588)"/>
<path d="M12 39.2261L21.2151 35.4209L29.2624 56.4884L21.656 59.9997" stroke="black" stroke-width="2.5" stroke-linecap="round" stroke-linejoin="round"/>
<path d="M22.9512 39.9644L27.4911 37.2614C29.5135 36.0587 31.8221 35.4207 34.1771 35.4207H48.1758C51.629 35.4207 54.4287 38.2204 54.4287 41.6736V42.1493M54.4287 42.1493H39.5059M54.4287 42.1493L68.7019 33.1662C70.2178 32.2149 72.2093 32.6093 73.2495 34.0633C74.3284 35.5792 73.9765 37.6829 72.4645 38.7656L59.0885 48.3249C57.3831 49.543 55.3684 50.2507 53.2725 50.3628L36.4007 51.2755C35.3527 51.3335 34.3164 51.5113 33.3109 51.813L28.0788 53.3791" stroke="black" stroke-width="2.5" stroke-linecap="round" stroke-linejoin="round"/>
<path d="M45.1123 26.3337C45.1123 26.3337 37.9893 10.881 59.9694 9.84082C59.9694 9.84082 58.6198 32.1767 45.1123 26.3337Z" stroke="black" stroke-width="2.5" stroke-linecap="round" stroke-linejoin="round"/>
<path d="M51.9893 18.5723C47.4494 20.034 45.1098 26.3295 45.1098 26.3295C45.1098 26.3295 42.2869 32.6946 42.5305 35.4209" stroke="black" stroke-width="2.5" stroke-linecap="round" stroke-linejoin="round"/>
<path d="M39.2621 23.9013C39.2621 23.9013 48.2877 4.31479 20.4297 3C20.4297 3 22.1428 31.3066 39.2621 23.9013Z" stroke="black" stroke-width="2.5" stroke-linecap="round" stroke-linejoin="round"/>
<path d="M42.5259 34.7058C42.4022 30.9625 39.2621 23.9013 39.2621 23.9013C39.2621 23.9013 36.3039 15.912 30.542 14.0752" stroke="black" stroke-width="2.5" stroke-linecap="round" stroke-linejoin="round"/>
</g>
<defs>
<linearGradient id="paint0_linear_276_3588" x1="20.1012" y1="13.1307" x2="50.1851" y2="89.9435" gradientUnits="userSpaceOnUse">
<stop stop-color="#F2D57E"/>
<stop offset="1" stop-color="#A7F2D7"/>
</linearGradient>
<linearGradient id="paint1_linear_276_3588" x1="58.8149" y1="5.81829" x2="79.0696" y2="16.9757" gradientUnits="userSpaceOnUse">
<stop stop-color="#F2D57E"/>
<stop offset="1" stop-color="#A7F2D7"/>
</linearGradient>
</defs>
</svg>
