<svg width="86" height="86" viewBox="0 0 86 86" fill="none" xmlns="http://www.w3.org/2000/svg">
<mask id="mask0_276_3379" style="mask-type:alpha" maskUnits="userSpaceOnUse" x="0" y="0" width="86" height="86">
<rect width="86" height="86" fill="#D9D9D9"/>
</mask>
<g mask="url(#mask0_276_3379)">
<path d="M67.8171 55.1229C70.5103 54.5857 73.1827 54.2253 75.8163 54.9231C80.2149 56.0921 83.4891 60.2429 84.1701 64.6987C84.8511 69.1544 83.1811 73.7588 80.2805 77.2033C77.3799 80.6478 73.3503 83.0276 69.0955 84.5898C64.5257 86.2741 58.9725 86.9372 55.0514 84.0041C52.9329 82.41 51.5985 79.9737 49.4955 78.36C47.0664 76.4958 43.8503 75.9334 40.7921 75.9968C37.7313 76.0677 34.7161 76.6993 31.6695 76.9679C24.7655 77.5672 17.5736 76.171 11.7606 72.3864C5.94753 68.6017 1.66141 62.3224 1.00971 55.4819C0.455054 49.7229 2.6794 43.5662 7.10729 39.7627C11.7068 35.8111 19.369 35.7003 25.045 37.091C30.1283 38.3371 34.8066 40.9544 38.9167 44.1894C42.0513 46.6657 44.887 49.5042 48.1043 51.8676C51.3216 54.2311 55.0617 56.128 59.051 56.3301C61.9845 56.4734 64.9138 55.7023 67.8246 55.1255L67.8171 55.1229Z" fill="url(#paint0_linear_276_3379)"/>
<path d="M59.6582 5.54496C64.8603 2.98854 70.8261 3.15733 75.4384 8.56788C79.4778 13.3003 80.5579 20.0032 80.3826 26.3254C80.2561 30.8976 79.5321 35.5523 77.5153 39.6777C75.4912 43.8005 72.0503 47.3496 67.7578 48.7425C60.625 51.0575 52.6234 46.6775 49.1694 40.0062C45.7181 33.3274 46.1865 25.0549 48.7454 17.8673C50.5777 12.7373 54.7855 7.93993 59.6582 5.54496Z" fill="url(#paint1_linear_276_3379)"/>
<path d="M43.0361 11C35.8644 15.5213 30.996 29 30.996 29C30.996 29 24.4236 24.2582 19.0851 23.6548C19.0851 23.6548 15.9704 28.3323 17.498 44C17.498 44 35.8686 42.3354 43.0402 61.7701M43.0402 61.7701C43.0402 61.7701 48.5315 39.6242 75.996 44.5981C75.996 44.5981 69.5882 64.3345 43.0402 61.7701Z" stroke="black" stroke-width="2.5" stroke-linecap="round" stroke-linejoin="round"/>
<path d="M42.998 11C49.4772 15.1299 53.6064 26.1502 54.498 28.5" stroke="black" stroke-width="2.5" stroke-linecap="round" stroke-linejoin="round"/>
<path d="M42.9366 62C43.9959 35.2353 30.998 29 30.998 29" stroke="black" stroke-width="2.5" stroke-linecap="round" stroke-linejoin="round"/>
<path d="M42.998 56.5C42.998 56.5 44.7767 26.4091 67.2825 24C67.2825 24 69.9646 32.0466 68.6216 43.9167" stroke="black" stroke-width="2.5" stroke-linecap="round" stroke-linejoin="round"/>
<path d="M17.4517 44.0621C17.4517 44.0621 12.13 43.6207 9.99805 45.0921C9.99805 45.0921 18.8181 63.9023 42.998 61.8424" stroke="black" stroke-width="2.5" stroke-linecap="round" stroke-linejoin="round"/>
</g>
<defs>
<linearGradient id="paint0_linear_276_3379" x1="10.2722" y1="41.9614" x2="31.6995" y2="100.784" gradientUnits="userSpaceOnUse">
<stop stop-color="#F2D57E"/>
<stop offset="1" stop-color="#A7F2D7"/>
</linearGradient>
<linearGradient id="paint1_linear_276_3379" x1="53.7682" y1="11.021" x2="80.8711" y2="35.9161" gradientUnits="userSpaceOnUse">
<stop stop-color="#F2D57E"/>
<stop offset="1" stop-color="#A7F2D7"/>
</linearGradient>
</defs>
</svg>
