<svg width="86" height="86" viewBox="0 0 86 86" fill="none" xmlns="http://www.w3.org/2000/svg">
<mask id="mask0_276_3361" style="mask-type:alpha" maskUnits="userSpaceOnUse" x="0" y="0" width="86" height="86">
<rect width="86" height="86" fill="#D9D9D9"/>
</mask>
<g mask="url(#mask0_276_3361)">
<path d="M82.1811 73.1987C68.0467 89.3731 41.4086 88.834 22.3815 72.1204C3.35434 55.4069 -7.51831 36.5368 6.07251 20.9016C20.207 4.72719 29.4487 25.2148 49.0195 41.3891C68.0466 58.1027 96.3156 57.5635 82.1811 73.1987Z" fill="url(#paint0_linear_276_3361)"/>
<path d="M68.6346 22.8448C74.9437 22.8448 80.0582 17.7309 80.0582 11.4224C80.0582 5.11402 74.9437 0 68.6346 0C62.3255 0 57.2109 5.11402 57.2109 11.4224C57.2109 17.7309 62.3255 22.8448 68.6346 22.8448Z" fill="url(#paint1_linear_276_3361)"/>
<path d="M67.691 10H19.309C18.5861 10 18 10.5861 18 11.309V59.691C18 60.4139 18.5861 61 19.309 61H67.691C68.4139 61 69 60.4139 69 59.691V11.309C69 10.5861 68.4139 10 67.691 10Z" stroke="black" stroke-width="2.5" stroke-linecap="round" stroke-linejoin="round"/>
<path d="M18 21H69" stroke="black" stroke-width="2.5" stroke-linecap="round" stroke-linejoin="round"/>
<path d="M36.895 27.5791H24.3984V40.0756H36.895V27.5791Z" stroke="black" stroke-width="2.5" stroke-linecap="round" stroke-linejoin="round"/>
<path d="M24.3984 47.5488H36.8984" stroke="black" stroke-width="2.5" stroke-linecap="round" stroke-linejoin="round"/>
<path d="M24.3984 55.0195H36.8984" stroke="black" stroke-width="2.5" stroke-linecap="round" stroke-linejoin="round"/>
<path d="M51.5006 55.0195H63.9971V42.523H51.5006V55.0195Z" stroke="black" stroke-width="2.5" stroke-linecap="round" stroke-linejoin="round"/>
<path d="M63.9999 35.0498H51.5" stroke="black" stroke-width="2.5" stroke-linecap="round" stroke-linejoin="round"/>
<path d="M63.9999 27.5791H51.5" stroke="black" stroke-width="2.5" stroke-linecap="round" stroke-linejoin="round"/>
<path d="M44 27V55" stroke="black" stroke-width="2.5" stroke-linecap="round" stroke-linejoin="round"/>
<path d="M24 16H39" stroke="black" stroke-width="2.5" stroke-linecap="round" stroke-linejoin="round"/>
</g>
<defs>
<linearGradient id="paint0_linear_276_3361" x1="20.1012" y1="13.1307" x2="50.1851" y2="89.9435" gradientUnits="userSpaceOnUse">
<stop stop-color="#F2D57E"/>
<stop offset="1" stop-color="#A7F2D7"/>
</linearGradient>
<linearGradient id="paint1_linear_276_3361" x1="58.8149" y1="5.81829" x2="79.0696" y2="16.9757" gradientUnits="userSpaceOnUse">
<stop stop-color="#F2D57E"/>
<stop offset="1" stop-color="#A7F2D7"/>
</linearGradient>
</defs>
</svg>
