<svg width="86" height="86" viewBox="0 0 86 86" fill="none" xmlns="http://www.w3.org/2000/svg">
<mask id="mask0_276_3635" style="mask-type:alpha" maskUnits="userSpaceOnUse" x="0" y="0" width="86" height="86">
<rect width="86" height="86" fill="#D9D9D9"/>
</mask>
<g mask="url(#mask0_276_3635)">
<path d="M74.1026 74.2012C70.0273 78.2094 65.0814 81.3694 60.0613 83.243C46.9555 88.1554 31.9787 86.1233 19.336 80.1296C12.8155 77.0349 6.48021 72.5979 3.4793 65.9984C0.478385 59.3988 2.01588 50.3383 8.31409 46.8148C15.2884 42.8998 24.4486 47.0106 31.8305 43.9345C37.184 41.7067 40.3701 36.235 44.8067 32.4878C51.7254 26.6339 62.1268 25.3103 70.2774 29.2532C80.7435 34.3148 85.8747 47.225 83.374 58.3921C82.0402 64.3205 78.604 69.7829 74.1026 74.1919L74.1026 74.2012Z" fill="url(#paint0_linear_276_3635)"/>
<circle cx="66" cy="32" r="8" stroke="black" stroke-width="2.5"/>
<circle cx="66" cy="32" r="2.5" stroke="black" stroke-width="2.5"/>
<circle cx="36" cy="7" r="2" stroke="black" stroke-width="2.5"/>
<circle cx="23" cy="7" r="2" stroke="black" stroke-width="2.5"/>
<path d="M38.5 35.5C38.5 35.5 49.0999 21.3111 45.0681 13.5446C42.8837 9.33694 38 8 38 8" stroke="black" stroke-width="2.5"/>
<path d="M20.8154 35C20.8154 35 9.54789 21.431 14.0709 13.5946C16.5214 9.34899 22 8 22 8" stroke="black" stroke-width="2.5"/>
<path d="M29.001 50C29.001 50 24.7079 67 38.804 67C51.529 67 49.2169 55.0279 49.6566 48.4412C49.9061 44.7045 51.902 39.8469 54.7711 36.9822C57.6402 34.1174 64.0001 32.5 64.0001 32.5" stroke="black" stroke-width="2.5"/>
<path d="M22.4007 35.1942C21.1483 34.2008 18.1747 37.2803 19.2179 38.5081C21.8322 41.5849 26.1518 42.5309 26.1518 42.5309V48.3308C26.1518 50.7803 32.1763 50.4252 32.1761 47.9757C32.1758 44.5437 32.1761 42.5309 32.1761 42.5309C32.1761 42.5309 36.0408 41.1107 38.6551 38.8621C39.9379 37.7588 37.3309 34.2634 35.9271 35.1934C33.4265 36.8503 32.4269 38.4744 29.2205 38.5081C25.9317 38.5426 24.7877 37.0878 22.4007 35.1942Z" stroke="black" stroke-width="2.5"/>
</g>
<defs>
<linearGradient id="paint0_linear_276_3635" x1="63.1146" y1="31.1409" x2="39.7633" y2="90.0636" gradientUnits="userSpaceOnUse">
<stop stop-color="#F2D57E"/>
<stop offset="1" stop-color="#A7F2D7"/>
</linearGradient>
</defs>
</svg>
