<svg width="130" height="130" viewBox="0 0 130 130" fill="none" xmlns="http://www.w3.org/2000/svg">
<path d="M102.514 83.3257C106.585 82.5136 110.625 81.9689 114.606 83.0237C121.255 84.7908 126.204 91.0653 127.234 97.8008C128.263 104.536 125.739 111.496 121.354 116.703C116.97 121.91 110.878 125.507 104.447 127.869C97.5388 130.415 89.1445 131.417 83.2172 126.983C80.0148 124.574 77.9977 120.891 74.8187 118.452C71.1469 115.634 66.2853 114.783 61.6625 114.879C57.0356 114.987 52.4778 115.941 47.8725 116.347C37.4361 117.253 26.5648 115.143 17.7776 109.422C8.9904 103.701 2.51139 94.2087 1.52627 83.8684C0.687827 75.1629 4.05021 65.8564 10.7435 60.1068C17.6962 54.1334 29.2787 53.966 37.8587 56.0683C45.5427 57.9519 52.6146 61.9082 58.8275 66.7984C63.5659 70.5416 67.8524 74.8324 72.7158 78.405C77.5792 81.9777 83.2328 84.8451 89.2631 85.1506C93.6974 85.3671 98.1255 84.2015 102.526 83.3297L102.514 83.3257Z" fill="url(#paint0_linear_1486_258373)"/>
<path d="M90.1811 8.38207C98.0447 4.51772 107.063 4.77286 114.035 12.9516C120.141 20.1052 121.774 30.2375 121.509 39.7944C121.317 46.7058 120.223 53.7421 117.174 59.9781C114.115 66.2102 108.913 71.5751 102.425 73.6806C91.6424 77.1801 79.547 70.5591 74.3259 60.4746C69.1088 50.3787 69.8169 37.8738 73.685 27.0089C76.4547 19.2542 82.8153 12.0024 90.1811 8.38207Z" fill="url(#paint1_linear_1486_258373)"/>
<g clip-path="url(#clip0_1486_258373)">
<path d="M37.5391 57.7402V110.16" stroke="#010101" stroke-width="2" stroke-linecap="round" stroke-linejoin="round"/>
<path d="M68.4297 57.7402V110.16" stroke="#010101" stroke-width="2" stroke-linecap="round" stroke-linejoin="round"/>
<path d="M91.3496 57.7402V110.16" stroke="#010101" stroke-width="2" stroke-linecap="round" stroke-linejoin="round"/>
<path d="M61.17 110.16V62.3096C61.17 62.3096 60.26 54.3696 67.98 56.4096C67.98 56.4096 72.92 62.0096 80.43 57.7396L87.01 54.8196C88.71 54.0696 89.49 52.0896 88.77 50.3796C88.09 48.7796 86.32 47.9396 84.65 48.4396L78.6 50.2496C76.08 51.1296 73.29 50.8896 70.96 49.5896L62.84 44.3396C61.66 43.6796 59.46 42.1596 58.12 42.0496L42.3 42.0796C36.31 41.6096 31.1 46.2596 31 52.2596C31 52.3496 31 52.4496 31 52.5396V66.5596C31 68.9396 31.81 71.2496 33.3 73.1096L37.54 78.4096" stroke="#010101" stroke-width="2" stroke-linecap="round" stroke-linejoin="round"/>
<path d="M49.7298 35.78C54.3635 35.78 58.1198 32.0237 58.1198 27.39C58.1198 22.7563 54.3635 19 49.7298 19C45.0962 19 41.3398 22.7563 41.3398 27.39C41.3398 32.0237 45.0962 35.78 49.7298 35.78Z" stroke="#010101" stroke-width="2" stroke-linecap="round" stroke-linejoin="round"/>
<path d="M80.4291 41.0398C85.0627 41.0398 88.8191 37.2834 88.8191 32.6498C88.8191 28.0161 85.0627 24.2598 80.4291 24.2598C75.7954 24.2598 72.0391 28.0161 72.0391 32.6498C72.0391 37.2834 75.7954 41.0398 80.4291 41.0398Z" stroke="#010101" stroke-width="2" stroke-linecap="round" stroke-linejoin="round"/>
<path d="M49.7305 110.16V82.2695" stroke="#010101" stroke-width="2" stroke-linecap="round" stroke-linejoin="round"/>
<path d="M80.4297 110.16V82.2695" stroke="#010101" stroke-width="2" stroke-linecap="round" stroke-linejoin="round"/>
<path d="M68.4299 79.4797L61.1699 70.9297" stroke="#010101" stroke-width="2" stroke-linecap="round" stroke-linejoin="round"/>
<path d="M91.3502 78.4196L96.5902 71.5696C98.4902 69.0896 99.5102 66.0596 99.5102 62.9396V54.8496C99.5102 46.9696 92.9102 40.5396 85.0502 41.0796C84.9102 41.0796 84.7702 41.0996 84.6302 41.1096C81.8202 41.3496 79.0002 41.4496 76.1902 41.2496C71.8102 40.9496 67.0602 41.7396 65.4902 46.0596" stroke="#010101" stroke-width="2" stroke-linecap="round" stroke-linejoin="round"/>
</g>
<defs>
<linearGradient id="paint0_linear_1486_258373" x1="15.5278" y1="63.4304" x2="47.9178" y2="152.348" gradientUnits="userSpaceOnUse">
<stop stop-color="#F2D57E"/>
<stop offset="1" stop-color="#A7F2D7"/>
</linearGradient>
<linearGradient id="paint1_linear_1486_258373" x1="81.2775" y1="16.6597" x2="122.247" y2="54.2919" gradientUnits="userSpaceOnUse">
<stop stop-color="#F2D57E"/>
<stop offset="1" stop-color="#A7F2D7"/>
</linearGradient>
<clipPath id="clip0_1486_258373">
<rect width="70.51" height="93.16" fill="white" transform="translate(30 18)"/>
</clipPath>
</defs>
</svg>
