<svg width="86" height="86" viewBox="0 0 86 86" fill="none" xmlns="http://www.w3.org/2000/svg">
<mask id="mask0_340_6175" style="mask-type:alpha" maskUnits="userSpaceOnUse" x="0" y="0" width="86" height="86">
<rect width="86" height="86" fill="#D9D9D9"/>
</mask>
<g mask="url(#mask0_340_6175)">
<path d="M67.8161 55.1229C70.5093 54.5857 73.1817 54.2253 75.8154 54.9231C80.2139 56.0921 83.4882 60.2429 84.1691 64.6987C84.8501 69.1544 83.1801 73.7588 80.2795 77.2033C77.3789 80.6478 73.3493 83.0276 69.0945 84.5898C64.5247 86.2741 58.9716 86.9372 55.0504 84.0041C52.9319 82.41 51.5975 79.9737 49.4945 78.36C47.0654 76.4958 43.8493 75.9334 40.7911 75.9968C37.7303 76.0677 34.7152 76.6993 31.6685 76.9679C24.7645 77.5672 17.5727 76.171 11.7596 72.3864C5.94655 68.6017 1.66043 62.3224 1.00874 55.4819C0.454078 49.7229 2.67842 43.5662 7.10631 39.7627C11.7058 35.8111 19.368 35.7003 25.044 37.091C30.1273 38.3371 34.8057 40.9544 38.9157 44.1894C42.0503 46.6657 44.886 49.5042 48.1033 51.8676C51.3207 54.2311 55.0608 56.128 59.05 56.3301C61.9835 56.4734 64.9128 55.7023 67.8236 55.1255L67.8161 55.1229Z" fill="url(#paint0_linear_340_6175)"/>
<path d="M59.6573 5.54496C64.8593 2.98854 70.8251 3.15733 75.4374 8.56788C79.4769 13.3003 80.5569 20.0032 80.3816 26.3254C80.2551 30.8976 79.5311 35.5523 77.5143 39.6777C75.4903 43.8005 72.0494 47.3496 67.7568 48.7425C60.624 51.0575 52.6224 46.6775 49.1684 40.0062C45.7171 33.3274 46.1856 25.0549 48.7445 17.8673C50.5767 12.7373 54.7845 7.93993 59.6573 5.54496Z" fill="url(#paint1_linear_340_6175)"/>
<path d="M68.999 61.5215C68.999 48.2583 58.2622 37.5215 44.999 37.5215C31.7358 37.5215 20.999 48.2583 20.999 61.5215H68.999Z" stroke="black" stroke-width="2.57" stroke-miterlimit="10"/>
<circle cx="45" cy="20" r="11.75" stroke="black" stroke-width="2.5"/>
</g>
<defs>
<linearGradient id="paint0_linear_340_6175" x1="10.2713" y1="41.9614" x2="31.6985" y2="100.784" gradientUnits="userSpaceOnUse">
<stop stop-color="#F2D57E"/>
<stop offset="1" stop-color="#A7F2D7"/>
</linearGradient>
<linearGradient id="paint1_linear_340_6175" x1="53.7672" y1="11.021" x2="80.8701" y2="35.9161" gradientUnits="userSpaceOnUse">
<stop stop-color="#F2D57E"/>
<stop offset="1" stop-color="#A7F2D7"/>
</linearGradient>
</defs>
</svg>
