<svg width="86" height="86" viewBox="0 0 86 86" fill="none" xmlns="http://www.w3.org/2000/svg">
<mask id="mask0_473_3090" style="mask-type:alpha" maskUnits="userSpaceOnUse" x="0" y="0" width="86" height="86">
<rect width="86" height="86" fill="#D9D9D9"/>
</mask>
<g mask="url(#mask0_473_3090)">
<path d="M82.1811 73.1987C68.0467 89.3731 41.4086 88.834 22.3815 72.1204C3.35434 55.4069 -7.51831 36.5368 6.07251 20.9016C20.207 4.72719 29.4487 25.2148 49.0195 41.3891C68.0466 58.1027 96.3156 57.5635 82.1811 73.1987Z" fill="url(#paint0_linear_473_3090)"/>
<path d="M68.6346 22.8448C74.9437 22.8448 80.0582 17.7309 80.0582 11.4224C80.0582 5.11402 74.9437 0 68.6346 0C62.3255 0 57.2109 5.11402 57.2109 11.4224C57.2109 17.7309 62.3255 22.8448 68.6346 22.8448Z" fill="url(#paint1_linear_473_3090)"/>
<path d="M48.8125 58.2734C48.8125 61.4359 46.3704 63.9995 43.3579 63.9995C40.3454 63.9995 37.9033 61.4359 37.9033 58.2734C37.9033 55.1085 40.3454 52.5449 43.3579 52.5449C46.3704 52.5449 48.8125 55.1086 48.8125 58.2734Z" stroke="black" stroke-width="2.5"/>
<path d="M43.3586 7C34.0327 7 26.4482 14.5453 26.4482 23.82C26.4482 24.1589 26.7232 24.4323 27.0638 24.4323H36.2556C36.5963 24.4323 36.8711 24.1589 36.8711 23.82C36.8711 20.2588 39.7823 17.3611 43.3585 17.3611C46.9346 17.3611 49.8458 20.2587 49.8458 23.82C49.8458 25.5399 49.1714 27.1569 47.9355 28.3861C47.7922 28.538 47.4421 28.8184 47.1014 29.0918L46.9064 29.246C43.8448 31.7137 38.1471 36.3056 38.1471 46.2085C38.1471 46.545 38.422 46.8183 38.7627 46.8183H47.9496C48.2903 46.8183 48.5652 46.5449 48.5652 46.2085C48.5652 41.2381 51.0558 39.2404 53.5136 37.2705C54.1551 36.7494 54.7613 36.2587 55.3111 35.7072C58.5067 32.5292 60.2666 28.3067 60.2666 23.8177C60.2689 14.5453 52.6844 7 43.3586 7Z" stroke="black" stroke-width="2.5"/>
</g>
<defs>
<linearGradient id="paint0_linear_473_3090" x1="20.1012" y1="13.1307" x2="50.1851" y2="89.9435" gradientUnits="userSpaceOnUse">
<stop stop-color="#F2D57E"/>
<stop offset="1" stop-color="#A7F2D7"/>
</linearGradient>
<linearGradient id="paint1_linear_473_3090" x1="58.8149" y1="5.81829" x2="79.0696" y2="16.9757" gradientUnits="userSpaceOnUse">
<stop stop-color="#F2D57E"/>
<stop offset="1" stop-color="#A7F2D7"/>
</linearGradient>
</defs>
</svg>
