<svg width="86" height="86" viewBox="0 0 86 86" fill="none" xmlns="http://www.w3.org/2000/svg">
<mask id="mask0_276_3629" style="mask-type:alpha" maskUnits="userSpaceOnUse" x="0" y="0" width="86" height="86">
<rect width="86" height="86" fill="#D9D9D9"/>
</mask>
<g mask="url(#mask0_276_3629)">
<path d="M67.8171 55.1229C70.5103 54.5857 73.1827 54.2253 75.8163 54.9231C80.2149 56.0921 83.4891 60.2429 84.1701 64.6987C84.8511 69.1544 83.1811 73.7588 80.2805 77.2033C77.3799 80.6478 73.3503 83.0276 69.0955 84.5898C64.5257 86.2741 58.9725 86.9372 55.0514 84.0041C52.9329 82.41 51.5985 79.9737 49.4955 78.36C47.0664 76.4958 43.8503 75.9334 40.7921 75.9968C37.7313 76.0677 34.7161 76.6993 31.6695 76.9679C24.7655 77.5672 17.5736 76.171 11.7606 72.3864C5.94753 68.6017 1.66141 62.3224 1.00971 55.4819C0.455054 49.7229 2.6794 43.5662 7.10729 39.7627C11.7068 35.8111 19.369 35.7003 25.045 37.091C30.1283 38.3371 34.8066 40.9544 38.9167 44.1894C42.0513 46.6657 44.887 49.5042 48.1043 51.8676C51.3216 54.2311 55.0617 56.128 59.051 56.3301C61.9845 56.4734 64.9138 55.7023 67.8246 55.1255L67.8171 55.1229Z" fill="url(#paint0_linear_276_3629)"/>
<path d="M59.6573 5.54496C64.8593 2.98854 70.8251 3.15733 75.4374 8.56788C79.4769 13.3003 80.5569 20.0032 80.3816 26.3254C80.2551 30.8976 79.5311 35.5523 77.5143 39.6777C75.4903 43.8005 72.0494 47.3496 67.7568 48.7425C60.624 51.0575 52.6224 46.6775 49.1684 40.0062C45.7171 33.3274 46.1856 25.0549 48.7445 17.8673C50.5767 12.7373 54.7845 7.93993 59.6573 5.54496Z" fill="url(#paint1_linear_276_3629)"/>
<path d="M45 11.5L42 11.5" stroke="black" stroke-width="2.5" stroke-linecap="round" stroke-linejoin="round"/>
<path d="M59.901 11.5H62.115C63.7076 11.5 65 12.7719 65 14.3393V58.6639C65 60.2281 63.7076 61.5 62.115 61.5H23.8818C22.2924 61.5 21 60.2281 21 58.6639V14.3393C21 12.7719 22.2924 11.5 23.8818 11.5H26.6069" stroke="black" stroke-width="2.5" stroke-linecap="round" stroke-linejoin="round"/>
<path d="M41.1857 10H27.4492V21.1829H41.1857V10Z" stroke="black" stroke-width="2.5" stroke-linecap="round" stroke-linejoin="round"/>
<path d="M59.2375 10H45.501V21.1829H59.2375V10Z" stroke="black" stroke-width="2.5" stroke-linecap="round" stroke-linejoin="round"/>
<path d="M21 27.5H65" stroke="black" stroke-width="2.5" stroke-linecap="round" stroke-linejoin="round"/>
<path d="M21 33.5H65" stroke="black" stroke-width="2.5" stroke-linecap="round" stroke-linejoin="round"/>
</g>
<defs>
<linearGradient id="paint0_linear_276_3629" x1="10.2722" y1="41.9614" x2="31.6995" y2="100.784" gradientUnits="userSpaceOnUse">
<stop stop-color="#F2D57E"/>
<stop offset="1" stop-color="#A7F2D7"/>
</linearGradient>
<linearGradient id="paint1_linear_276_3629" x1="53.7672" y1="11.021" x2="80.8701" y2="35.9161" gradientUnits="userSpaceOnUse">
<stop stop-color="#F2D57E"/>
<stop offset="1" stop-color="#A7F2D7"/>
</linearGradient>
</defs>
</svg>
