<svg width="86" height="86" viewBox="0 0 86 86" fill="none" xmlns="http://www.w3.org/2000/svg">
<mask id="mask0_276_3382" style="mask-type:alpha" maskUnits="userSpaceOnUse" x="0" y="0" width="86" height="86">
<rect width="86" height="86" fill="#D9D9D9"/>
</mask>
<g mask="url(#mask0_276_3382)">
<path d="M74.1036 74.2012C70.0283 78.2094 65.0823 81.3694 60.0623 83.243C46.9564 88.1554 31.9797 86.1233 19.3369 80.1296C12.8164 77.0349 6.48118 72.5979 3.48028 65.9984C0.479361 59.3988 2.01686 50.3383 8.31507 46.8148C15.2894 42.8998 24.4496 47.0106 31.8315 43.9345C37.185 41.7067 40.3711 36.235 44.8077 32.4878C51.7264 26.6339 62.1277 25.3103 70.2784 29.2532C80.7445 34.3148 85.8757 47.225 83.3749 58.3921C82.0412 64.3205 78.605 69.7829 74.1036 74.1919L74.1036 74.2012Z" fill="url(#paint0_linear_276_3382)"/>
<path d="M66.2646 35.2031V23.5939C66.2646 22.7433 66.6078 21.973 67.1663 21.4144C67.7249 20.8559 68.4952 20.5127 69.3458 20.5127C71.0434 20.5127 72.4233 21.8927 72.4197 23.5902V39.2481C72.4197 45.8084 66.5347 49.2839 63.5448 51.4597C61.588 52.8834 60.1533 54.5409 60.1533 56.9576V58.0309" stroke="black" stroke-width="2.5" stroke-linecap="round" stroke-linejoin="round"/>
<path d="M47.6276 58.0339C47.3356 52.2219 46.3389 47.3994 50.0955 43.5552C53.0708 40.5068 55.305 41.6824 57.3239 39.6672L62.2998 34.6913C62.7926 34.1948 63.4388 33.9502 64.085 33.9502C64.7311 33.9502 65.3773 34.1948 65.8702 34.6913C66.0271 34.8519 66.1586 35.0235 66.2681 35.2097C66.8339 36.1771 66.6989 37.4403 65.8702 38.2653L59.3975 44.7344" stroke="black" stroke-width="2.5" stroke-linecap="round" stroke-linejoin="round"/>
<path d="M61.0226 58.0303H46.6279C46.2811 58.0303 46 58.3114 46 58.6582V63.3676C46 63.7144 46.2811 63.9955 46.6279 63.9955H61.0226C61.3694 63.9955 61.6505 63.7144 61.6505 63.3676V58.6582C61.6505 58.3114 61.3694 58.0303 61.0226 58.0303Z" stroke="black" stroke-width="2.5" stroke-linecap="round" stroke-linejoin="round"/>
<path d="M20.1551 35.2031V23.5939C20.1551 22.7433 19.8119 21.973 19.2534 21.4144C18.6985 20.8595 17.9245 20.5127 17.0739 20.5127C15.3763 20.5127 13.9964 21.8927 14 23.5902V39.2481C14 45.8084 19.8849 49.2839 22.8749 51.4597C24.8316 52.8834 26.2664 54.5409 26.2664 56.9576V58.0309" stroke="black" stroke-width="2.5" stroke-linecap="round" stroke-linejoin="round"/>
<path d="M38.7922 58.0339C39.0842 52.2219 40.0808 47.3994 36.3243 43.5552C33.349 40.5068 31.1147 41.6824 29.0959 39.6672L24.12 34.6913C23.6271 34.1948 22.981 33.9502 22.3348 33.9502C21.6886 33.9502 21.0425 34.1948 20.5496 34.6913C20.3926 34.8519 20.2612 35.0235 20.1517 35.2097C19.5858 36.1771 19.7209 37.4403 20.5496 38.2653L27.0223 44.7344" stroke="black" stroke-width="2.5" stroke-linecap="round" stroke-linejoin="round"/>
<path d="M25.3963 64H39.791C40.1378 64 40.4189 63.7189 40.4189 63.3721V58.6627C40.4189 58.3159 40.1378 58.0348 39.791 58.0348H25.3963C25.0495 58.0348 24.7684 58.3159 24.7684 58.6627V63.3721C24.7684 63.7189 25.0495 64 25.3963 64Z" stroke="black" stroke-width="2.5" stroke-linecap="round" stroke-linejoin="round"/>
<path d="M55.7892 16.4045C54.2283 14.7991 52.1803 14 50.1323 14C48.0843 14 46.0363 14.7991 44.4754 16.4045L43.1349 17.78L41.7945 16.4045C40.2336 14.7991 38.1856 14 36.1376 14C34.0896 14 32.0416 14.7991 30.4807 16.4045C27.3554 19.6116 27.3554 24.8073 30.4807 28.0108L31.8283 29.3936L43.1385 41L54.4523 29.3936L55.7927 28.0108C58.9181 24.8109 58.9181 19.6116 55.7927 16.4045H55.7892Z" stroke="black" stroke-width="2.5" stroke-linecap="round" stroke-linejoin="round"/>
</g>
<defs>
<linearGradient id="paint0_linear_276_3382" x1="63.1156" y1="31.1409" x2="39.7643" y2="90.0636" gradientUnits="userSpaceOnUse">
<stop stop-color="#F2D57E"/>
<stop offset="1" stop-color="#A7F2D7"/>
</linearGradient>
</defs>
</svg>
