<svg width="86" height="86" viewBox="0 0 86 86" fill="none" xmlns="http://www.w3.org/2000/svg">
<mask id="mask0_571_3098" style="mask-type:alpha" maskUnits="userSpaceOnUse" x="0" y="0" width="86" height="86">
<rect width="86" height="86" fill="#D9D9D9"/>
</mask>
<g mask="url(#mask0_571_3098)">
<path d="M82.1811 73.1987C68.0467 89.3731 41.4086 88.834 22.3815 72.1204C3.35434 55.4069 -7.51831 36.5368 6.07251 20.9016C20.207 4.72719 29.4487 25.2148 49.0195 41.3891C68.0466 58.1027 96.3156 57.5635 82.1811 73.1987Z" fill="url(#paint0_linear_571_3098)"/>
<path d="M68.6346 22.8448C74.9437 22.8448 80.0582 17.7309 80.0582 11.4224C80.0582 5.11402 74.9437 0 68.6346 0C62.3255 0 57.2109 5.11402 57.2109 11.4224C57.2109 17.7309 62.3255 22.8448 68.6346 22.8448Z" fill="url(#paint1_linear_571_3098)"/>
<path d="M48.9482 54.5488C49.4384 54.5488 49.8387 54.9483 49.8389 55.4385C49.8389 55.9288 49.4386 56.3291 48.9482 56.3291H37.7305C37.2403 56.3289 36.8408 55.9287 36.8408 55.4385C36.841 54.9485 37.2405 54.549 37.7305 54.5488H48.9482Z" fill="black" stroke="black" stroke-width="0.6"/>
<path d="M48.9482 58.5332C49.4384 58.5332 49.8387 58.9327 49.8389 59.4229C49.8389 59.9132 49.4386 60.3135 48.9482 60.3135H37.7305C37.2403 60.3133 36.8408 59.913 36.8408 59.4229C36.841 58.9328 37.2405 58.5334 37.7305 58.5332H48.9482Z" fill="black" stroke="black" stroke-width="0.6"/>
<path d="M46.0752 62.5195C46.5654 62.5195 46.9656 62.919 46.9658 63.4092C46.9658 63.8995 46.5655 64.2998 46.0752 64.2998H40.6025C40.1124 64.2996 39.7129 63.8994 39.7129 63.4092C39.7131 62.9192 40.1125 62.5197 40.6025 62.5195H46.0752Z" fill="black" stroke="black" stroke-width="0.6"/>
<path d="M42.0244 12.5312C47.2483 12.1715 52.2223 13.9316 56.0312 17.4873C59.7873 20.9935 61.9433 25.9518 61.9434 31.0879C61.9434 38.4202 57.6834 45.0051 51.041 48.0225V48.9785C51.041 50.8364 49.529 52.3447 47.6748 52.3447H39.0117C37.1538 52.3447 35.6455 50.8327 35.6455 48.9785V48.0215C28.7274 44.8728 24.3767 37.7544 24.7666 30.1152C25.2433 20.7366 32.6654 13.1779 42.0244 12.5312ZM43.3564 14.2617C42.9564 14.2617 42.5537 14.2748 42.1484 14.3037H42.1475C33.6852 14.8868 26.9779 21.723 26.543 30.2021C26.1823 37.293 30.3356 43.8911 36.8779 46.6162L36.9961 46.6768C37.2593 46.8364 37.4258 47.1244 37.4258 47.4375V48.9756C37.4259 49.8492 38.138 50.5605 39.0117 50.5605H47.6748C48.5485 50.5605 49.2596 49.8492 49.2598 48.9756V47.4375C49.2598 47.0754 49.4788 46.754 49.8086 46.6162L50.3926 46.3604C56.3514 43.612 60.166 37.6858 60.166 31.085C60.166 26.4398 58.2169 21.955 54.8184 18.7852C51.6671 15.8433 47.6383 14.2618 43.3564 14.2617Z" fill="black" stroke="black" stroke-width="0.6"/>
<path d="M43.3525 0.700195C43.8427 0.700195 44.243 1.09971 44.2432 1.58984V5.37793C44.2429 5.86805 43.8427 6.26758 43.3525 6.26758C42.8625 6.26737 42.4631 5.86792 42.4629 5.37793V1.58984C42.4631 1.09984 42.8625 0.700403 43.3525 0.700195Z" fill="black" stroke="black" stroke-width="0.6"/>
<path d="M22.6016 9.29395C22.9491 8.94643 23.5116 8.9491 23.8604 9.29297L23.8623 9.29395L26.541 11.9727C26.8884 12.32 26.8864 12.8826 26.543 13.2314L26.541 13.2334C26.369 13.4054 26.1411 13.4951 25.9121 13.4951H25.9092C25.6802 13.4951 25.4523 13.4054 25.2803 13.2334L22.6016 10.5547C22.254 10.2072 22.2567 9.64468 22.6006 9.2959L22.6016 9.29395Z" fill="black" stroke="black" stroke-width="0.6"/>
<path d="M71.8193 29.166C72.3093 29.1662 72.7088 29.5657 72.709 30.0557C72.709 30.5458 72.3095 30.9461 71.8193 30.9463H68.0312C67.5411 30.9461 67.1416 30.5458 67.1416 30.0557C67.1418 29.5657 67.5412 29.1662 68.0312 29.166H71.8193Z" fill="black" stroke="black" stroke-width="0.6"/>
<path d="M18.6826 29.166C19.1726 29.1662 19.5721 29.5657 19.5723 30.0557C19.5723 30.5458 19.1727 30.9461 18.6826 30.9463H14.8945C14.4044 30.9461 14.0049 30.5458 14.0049 30.0557C14.0051 29.5657 14.4045 29.1662 14.8945 29.166H18.6826Z" fill="black" stroke="black" stroke-width="0.6"/>
<path d="M62.8545 9.29395C63.202 8.94643 63.7645 8.9491 64.1133 9.29297L64.1152 9.29395L64.1768 9.36133C64.4614 9.71064 64.4392 10.2258 64.1172 10.5527L61.4365 13.2334C61.2645 13.4054 61.0366 13.4951 60.8076 13.4951H60.8047C60.5757 13.4951 60.3478 13.4054 60.1758 13.2334C59.8283 12.8859 59.8309 12.3234 60.1748 11.9746L60.1758 11.9727L62.8545 9.29395Z" fill="black" stroke="black" stroke-width="0.6"/>
</g>
<defs>
<linearGradient id="paint0_linear_571_3098" x1="20.1012" y1="13.1307" x2="50.1851" y2="89.9435" gradientUnits="userSpaceOnUse">
<stop stop-color="#F2D57E"/>
<stop offset="1" stop-color="#A7F2D7"/>
</linearGradient>
<linearGradient id="paint1_linear_571_3098" x1="58.8149" y1="5.81829" x2="79.0696" y2="16.9757" gradientUnits="userSpaceOnUse">
<stop stop-color="#F2D57E"/>
<stop offset="1" stop-color="#A7F2D7"/>
</linearGradient>
</defs>
</svg>
